<svg xmlns="http://www.w3.org/2000/svg" width="40" height="37" viewBox="0 0 40 37">
    <g fill="none" fill-rule="evenodd">
        <path d="M0 0h40v40H0z"/>
        <circle cx="18" cy="15" r="13" stroke="#146EB4" stroke-width="3"/>
        <path stroke="#146EB4" stroke-linecap="round" stroke-width="3" d="M26.18 13.947l-3.478 6.069-7.207-10.393-4.638 10.794"/>
        <path stroke="#146EB4" stroke-linecap="round" stroke-width="2" d="M7.15 26.796l-1.458 2.602-4.334-5.292"/>
        <path fill="#146EB4" d="M29.144 23.354c1.953 1.969 3.158 3.157 3.614 3.566.685.612 1.393-.653 3.085.957a32.4 32.4 0 0 1 3.591 4.088c.596.81.946 2.957-.454 4.186-1.4 1.228-3.106.617-4.038 0-.933-.618-3.238-2.946-3.911-3.971-.673-1.026-.968-1.875-.615-2.448.352-.573-2.771-2.713-3.786-3.732.693-.635 1.531-1.517 2.514-2.646z"/>
    </g>
</svg>
