<svg xmlns="http://www.w3.org/2000/svg" width="39" height="40" viewBox="0 0 39 40">
    <g fill="none" fill-rule="evenodd">
        <path fill="#146EB4" d="M18.746 6H1.786C.82 6 0 7.138 0 8.008v29.92C0 39.048.902 40 2.112 40h30.276c.63 0 1.612-1.142 1.612-2.072V21.535c0-.667-.505-1.511-1.493-1.511-.989 0-1.47.528-1.47 1.511v15.539H2.948V8.995h15.831c.591 0 1.712-.247 1.712-1.355S19.805 6 18.746 6z"/>
        <path fill="#146EB4" d="M28.262 4C19.32 12.888 14.62 17.53 14.16 17.927c-.45 1.312-1.809 5.168-2.091 6.836-.283 1.668.282 2.596 2.09 2.106 1.206-.326 3.395-1.12 6.567-2.384L35 10.873 28.262 4zM37 8.583L35.583 10 29 3.352 30.425 2zM37.591 8c.587-.495.967-.92 1.141-1.273.261-.531.442-1.278 0-1.884-.442-.606-3.48-3.746-4.163-4.248-.683-.5-1.56-.844-2.271-.366-.475.318-.908.7-1.298 1.147L37.591 8z"/>
        <path fill="#FFF" d="M17.48 20L15 22.812 16.015 24 19 21.779z"/>
    </g>
</svg>
