<svg xmlns="http://www.w3.org/2000/svg" viewBox="-13789 -22011 48 33.188">
  <defs>
    <style>
      .cls-1 {
        fill: #462b7a;
      }
    </style>
  </defs>
  <g id="noun_1029503_cc" transform="translate(-13789 -22090)">
    <path id="Path_63" data-name="Path 63" class="cls-1" d="M48,83.664A4.664,4.664,0,0,0,43.336,79H4.664A4.664,4.664,0,0,0,0,83.664v23.859a4.664,4.664,0,0,0,4.664,4.664H43.336A4.664,4.664,0,0,0,48,107.523ZM42.028,85.4,24.777,97.188h-.007a1.183,1.183,0,0,1-.1.062l-.027.014a1.171,1.171,0,0,1-.115.052h0a1.161,1.161,0,0,1-.126.038h-.011a1.168,1.168,0,0,1-.128.023c-.006,0-.011-.012-.017-.011a1.167,1.167,0,0,1-.129-.006h0a1.163,1.163,0,0,1-.127.006c-.006,0-.011.006-.017,0a1.151,1.151,0,0,1-.127-.02H23.83a1.156,1.156,0,0,1-.125-.038h0a1.164,1.164,0,0,1-.113-.05l-.028-.014a.719.719,0,0,1-.094-.058h-.006l-.007,0L5.983,85.563a1.172,1.172,0,0,1,1.3-1.951L24.1,94.816,40.706,83.472a1.172,1.172,0,0,1,1.322,1.934Z" transform="translate(0)"/>
  </g>
</svg>
