<svg xmlns="http://www.w3.org/2000/svg" viewBox="-17933 -21991 48 48.086">
  <defs>
    <style>
      .cls-1 {
        fill: #452b7a;
      }
    </style>
  </defs>
  <path id="Path_125" data-name="Path 125" class="cls-1" d="M47.284,34.562a2.278,2.278,0,0,0-2.805-.4c-3.606,2.2-10.619,6.411-10.619,6.411a4.686,4.686,0,0,1-2.805.9H23.041a.553.553,0,0,1-.1-1.1l8.215-.1a1.9,1.9,0,0,0,0-3.807l-4.809-.4a29.465,29.465,0,0,1-5.911-1.2c-6.111-2.3-9.818-1.1-11.721-.5a2.035,2.035,0,0,0-2-1l-4.208.2a2.5,2.5,0,0,0-2.5,2.6l.5,9.417a2.457,2.457,0,0,0,2.6,2.3l4.208-.2a2.245,2.245,0,0,0,1.9-1.2,1.507,1.507,0,0,0,1.1.4h.1l17.932,1.2h.7a11.061,11.061,0,0,0,6.612-2.1l11.42-8.014a2.232,2.232,0,0,0,.5-3.106l-.3-.3ZM4.708,45.681a1.406,1.406,0,1,1,.2-2.805,1.418,1.418,0,0,1,1.3,1.4,1.456,1.456,0,0,1-1.5,1.4Zm29.653-6.812a3.784,3.784,0,0,0-.4-2.1l6.612-3.406a2.111,2.111,0,0,1,2.4.3C39.971,35.363,36.565,37.467,34.361,38.869Zm3.206-6.411a1.925,1.925,0,0,1,1.2.4l-5.81,2.905a5.237,5.237,0,0,0-1.6-.6l-.9-.1,6.211-2.4a2.925,2.925,0,0,1,.9-.2ZM23.241,1.5l-.4,2.5a12.025,12.025,0,0,0-3.106,1.3l-2.1-1.4a1.948,1.948,0,0,0-2.4.2l-1.5,1.5a1.948,1.948,0,0,0-.2,2.4l1.4,2.1a12.025,12.025,0,0,0-1.3,3.106l-2.4.4a1.938,1.938,0,0,0-1.6,1.9v2.1a2.022,2.022,0,0,0,1.6,1.9l2.4.4a12.025,12.025,0,0,0,1.3,3.106l-1.4,2a1.948,1.948,0,0,0,.2,2.4l1.5,1.5a1.843,1.843,0,0,0,2.4.2l2.1-1.4a12.025,12.025,0,0,0,3.106,1.3l.4,2.4a1.938,1.938,0,0,0,1.9,1.6h2.1a2.022,2.022,0,0,0,1.9-1.6l.4-2.4a12.025,12.025,0,0,0,3.106-1.3l2.1,1.4a1.948,1.948,0,0,0,2.4-.2l1.5-1.5a1.843,1.843,0,0,0,.2-2.4l-1.4-2.1a12.025,12.025,0,0,0,1.3-3.106l2.4-.4a1.938,1.938,0,0,0,1.6-1.9v-2.1a2.022,2.022,0,0,0-1.6-1.9l-2.4-.4a12.025,12.025,0,0,0-1.3-3.106l1.3-2a1.948,1.948,0,0,0-.2-2.4l-1.5-1.5a1.843,1.843,0,0,0-2.4-.2l-2.1,1.4a12.025,12.025,0,0,0-3.106-1.3l-.4-2.4a1.835,1.835,0,0,0-1.8-1.6h-2.1a1.95,1.95,0,0,0-1.9,1.5Zm2.905,6.311a1,1,0,0,1,1,1v.8a6.942,6.942,0,0,1,2,.3,1.313,1.313,0,0,1,.9,1.5,1.2,1.2,0,0,1-1.2.9h-.3a5.833,5.833,0,0,0-1.9-.3c-1.4,0-1.8.6-1.8,1.2,0,.7.7,1.1,2.5,1.8,2.5.9,3.606,2,3.606,4.007s-1.4,3.606-3.907,4.007v1.1a1,1,0,0,1-1,1,1.077,1.077,0,0,1-1-1h0v-1a6.975,6.975,0,0,1-2.5-.5,1.2,1.2,0,0,1-.8-1.5v-.1a1.2,1.2,0,0,1,1.2-.9.6.6,0,0,1,.4.1,5.877,5.877,0,0,0,2.3.4c1.2,0,2-.5,2-1.3s-.7-1.3-2.3-1.8c-2.3-.8-3.807-1.8-3.807-3.907,0-1.9,1.3-3.306,3.606-3.807v-1A1,1,0,0,1,26.147,7.814Z" transform="translate(-17933 -21991)"/>
</svg>
