<svg xmlns="http://www.w3.org/2000/svg" viewBox="-17939 -21713 59.178 48">
  <defs>
    <style>
      .cls-1 {
        fill: #452b7a;
      }
    </style>
  </defs>
  <path id="Path_124" data-name="Path 124" class="cls-1" d="M49.536,42.506h-2.1V28.424a4.811,4.811,0,0,1-6.671-1.606,5.458,5.458,0,0,1-.741-1.976H38.047a7.434,7.434,0,0,1-7.412-7.412V4.582a7.328,7.328,0,0,1,.618-2.841l-.247-.124L27.3.135a3.809,3.809,0,0,0-2.347,0L6.177,7.547a2.578,2.578,0,0,0-1.482,2.594V42.506h-2.1A2.831,2.831,0,0,0,0,45.347a2.789,2.789,0,0,0,2.594,2.594H49.659a2.72,2.72,0,1,0,.247-5.435ZM23.965,38.924l-15.071.371V35.588l15.071-1.235Zm0-9.018L8.894,31.883V28.177l15.071-2.718Zm0-9.141L8.894,24.347V20.641l15.071-4.324Zm0-9.018L8.894,16.812V13.106L23.965,7.177ZM55.218.506H38.047a3.99,3.99,0,0,0-4.076,4.2h0V17.553a4.113,4.113,0,0,0,4.076,4.076h5.188v2.718a1.635,1.635,0,0,0,1.606,1.606,1.341,1.341,0,0,0,1.112-.494l3.829-3.829h5.312a4.113,4.113,0,0,0,4.076-4.076V4.582A3.931,3.931,0,0,0,55.218.506Zm-5.435,14.7a2.928,2.928,0,0,1-1.853,1.112c-.247,0-.247.124-.247.371v.865a.584.584,0,0,1-.618.618h-.988a.584.584,0,0,1-.618-.618h0v-.988h-.247a10.291,10.291,0,0,1-1.853-.494c-.494-.247-.618-.494-.494-.988a3.819,3.819,0,0,0,.247-.988.519.519,0,0,1,.494-.494.454.454,0,0,1,.371.124,5.177,5.177,0,0,0,1.853.494,3.42,3.42,0,0,0,1.112-.124.821.821,0,0,0,.494-.618.88.88,0,0,0-.371-.741c-.247-.124-.371-.247-.618-.371l-.618-.247a4.566,4.566,0,0,1-1.359-.618,2.83,2.83,0,0,1-1.729-2.841,3.191,3.191,0,0,1,2.224-2.965c.371-.124.371-.124.371-.494V4.459c0-.494.124-.741.741-.741h.494c.865,0,.988.124.988,1.112,0,.494,0,.494.494.494.494.124.988.247,1.359.371a.551.551,0,0,1,.371.741h0l-.124.371a7.873,7.873,0,0,0-.247.865c-.124.247-.247.741-.865.371a3.078,3.078,0,0,0-2.1-.371.743.743,0,0,0-.494.124.964.964,0,0,0-.494.494.944.944,0,0,0,.247.618,3.1,3.1,0,0,0,.865.494l.247.124,1.482.741a3.733,3.733,0,0,1,1.729,2.347,2.46,2.46,0,0,1-.247,2.594Z" transform="translate(-17939 -21712.949)"/>
</svg>
