<svg xmlns="http://www.w3.org/2000/svg" width="40" height="40" viewBox="0 0 40 40">
    <g fill="none" fill-rule="evenodd">
        <path stroke="#979797" stroke-width=".01" d="M.005.005h39.99v39.99H.005z"/>
        <circle cx="34.5" cy="5.5" r="5.5" fill="#146EB4"/>
        <circle cx="34.5" cy="33.5" r="5.5" fill="#146EB4"/>
        <circle cx="6.5" cy="33.5" r="5.5" fill="#146EB4"/>
        <circle cx="34.5" cy="5.5" r="3.5" fill="#FFF"/>
        <circle cx="34.5" cy="33.5" r="3.5" fill="#FFF"/>
        <circle cx="6.5" cy="33.5" r="3.5" fill="#FFF"/>
        <path fill="#146EB4" d="M11.828 8l21.214 21.213-2.829 2.829L9 10.829zM33.088 9.829l-8.102 8.102-2.828-2.829L30.26 7zM19.458 23.459l-8.63 8.63L8 29.26l8.63-8.63z"/>
        <path fill="#146EB4" d="M4.263.882C4.532 1.172 5.911 2.545 8.4 5l-.16 2.734-3.222.115C2.634 5.497 1.313 4.166 1.055 3.857c-.78.676-1.45 5.141 1.755 7.551s7.14.57 7.871-.17c.73-.74 3.635-3.71 1.355-7.823C9.756-.7 4.82.243 4.263.882z"/>
    </g>
</svg>
