<svg xmlns="http://www.w3.org/2000/svg" viewBox="-16442 -20769 48 48">
  <defs>
    <style>
      .cls-1 {
        fill: #462b7a;
      }

      .cls-2 {
        fill: none;
        stroke: #462b7a;
        stroke-miterlimit: 10;
      }
    </style>
  </defs>
  <g id="Group_58" data-name="Group 58" transform="translate(-16442 -20769)">
    <rect id="Rectangle_42" data-name="Rectangle 42" class="cls-1" width="34" height="4" transform="translate(4)"/>
    <rect id="Rectangle_43" data-name="Rectangle 43" class="cls-1" width="21" height="4" transform="translate(0 24)"/>
    <rect id="Rectangle_44" data-name="Rectangle 44" class="cls-1" width="21" height="4" transform="translate(0 32)"/>
    <rect id="Rectangle_45" data-name="Rectangle 45" class="cls-1" width="4" height="24"/>
    <rect id="Rectangle_46" data-name="Rectangle 46" class="cls-1" width="4" height="21" transform="translate(34)"/>
    <rect id="Rectangle_47" data-name="Rectangle 47" class="cls-1" width="4" height="29.7" transform="translate(21.117 23.957) rotate(-45)"/>
    <path id="Path_68" data-name="Path 68" class="cls-1" d="M33,18A15,15,0,1,0,48,33,14.98,14.98,0,0,0,33,18Zm0,26A11,11,0,1,1,44,33,10.968,10.968,0,0,1,33,44Z"/>
    <path id="Path_69" data-name="Path 69" class="cls-1" d="M33.3,38.3l-.6.6a3.984,3.984,0,0,1-5.7,0h0a3.984,3.984,0,0,1,0-5.7l.6-.6Z"/>
    <path id="Path_70" data-name="Path 70" class="cls-1" d="M37.9,33.8h0l-5.7-5.7h0a2.717,2.717,0,0,1,3.9,0l1.8,1.8A2.717,2.717,0,0,1,37.9,33.8Z"/>
    <path id="Path_71" data-name="Path 71" class="cls-1" d="M39.2,30.2h0l-3.5-3.5h0a2.444,2.444,0,0,1,3.2.2h0C39.8,27.8,40.1,29.4,39.2,30.2Z"/>
    <path id="Path_72" data-name="Path 72" class="cls-2" d="M34,39l1,1v2"/>
    <path id="Path_73" data-name="Path 73" class="cls-2" d="M27,32l-1-1H24"/>
    <path id="Path_74" data-name="Path 74" class="cls-2" d="M40,29h1l2,2"/>
    <path id="Path_75" data-name="Path 75" class="cls-2" d="M37,26V25l-2-2"/>
    <path id="Path_76" data-name="Path 76" class="cls-2" d="M39,33l2,1v2"/>
    <path id="Path_77" data-name="Path 77" class="cls-2" d="M33,27l-1-2H30"/>
  </g>
</svg>
