<svg xmlns="http://www.w3.org/2000/svg" xmlns:xlink="http://www.w3.org/1999/xlink" width="39" height="38" viewBox="0 0 39 38">
    <defs>
        <ellipse id="b" cx="15.306" cy="14.869" rx="15.306" ry="14.869"/>
        <filter id="a" width="145.7%" height="147.1%" x="-22.9%" y="-16.8%" filterUnits="objectBoundingBox">
            <feOffset dy="2" in="SourceAlpha" result="shadowOffsetOuter1"/>
            <feGaussianBlur in="shadowOffsetOuter1" result="shadowBlurOuter1" stdDeviation="2"/>
            <feColorMatrix in="shadowBlurOuter1" values="0 0 0 0 0 0 0 0 0 0 0 0 0 0 0 0 0 0 0.5 0"/>
        </filter>
    </defs>
    <g fill="none" fill-rule="evenodd">
        <g transform="translate(4 2)">
            <use fill="#000" filter="url(#a)" xlink:href="#b"/>
            <use fill="#FFF" xlink:href="#b"/>
        </g>
        <path fill="#146EB4" d="M12.414 16.902c0-.529 13.122-6.043 13.518-5.574.397.47-1.99 11.134-2.577 11.58-.39.298-1.592-.493-3.606-2.373-1.325 1.34-2.16 1.926-2.503 1.76-.343-.166-.219-1.336.374-3.51 3.596-2.546 5.35-3.868 5.264-3.966-.086-.099-2.053 1.025-5.899 3.37-3.047-.506-4.57-.935-4.57-1.287z"/>
    </g>
</svg>
