<?xml version="1.0" encoding="UTF-8"?>
<svg width="19px" height="19px" viewBox="0 0 19 19" version="1.1" xmlns="http://www.w3.org/2000/svg" xmlns:xlink="http://www.w3.org/1999/xlink">
    <!-- Generator: Sketch 50.2 (55047) - http://www.bohemiancoding.com/sketch -->
    <title>call icon</title>
    <desc>Created with Sketch.</desc>
    <defs></defs>
    <g id="Page-1" stroke="none" stroke-width="1" fill="none" fill-rule="evenodd">
        <g id="frontend-developer-3" transform="translate(-432.000000, -3235.000000)">
            <g id="call-icon" transform="translate(431.000000, 3234.000000)">
                <rect id="Rectangle-47" x="0.952380952" y="0" width="20" height="20"></rect>
                <path d="M4.91674805,2.92822266 C5.31915283,3.40234375 7.37646484,6.57171631 7.58056641,6.91094971 C7.78466797,7.25018311 7.14764404,9.10253906 6.98425293,8.51220703 C6.82086182,7.921875 3.68933105,3.62243652 3.26324463,3.38568115 C2.8371582,3.14892578 4.51434326,2.45410156 4.91674805,2.92822266 Z" id="Path-54" fill="#FFFFFF"></path>
                <path d="M2.98669434,3.69348145 C3.69207764,4.01635742 6.17706299,7.63208008 6.47235107,8.47412109 C6.76763916,9.31616211 5.99407959,9.76025391 5.99407959,10.4993896 C5.99407959,11.2385254 6.52581787,11.6334229 6.96112061,12.1190186 C7.39642334,12.6046143 9.73596191,14.9968262 10.5076904,15.4185791 C11.2794189,15.840332 11.4954834,14.9766846 12.3894653,14.8171997 C13.2834473,14.6577148 17.3474731,17.7597046 17.0127563,18.3270264 C16.6780396,18.8943481 15.0712891,19.633606 14.5837402,19.793396 C14.0961914,19.953186 13.003418,19.7967529 10.5076904,18.3270264 C8.01196289,16.8572998 5.73779297,14.7231445 3.8182373,12.2351074 C1.89868164,9.74707031 1.53295898,8.91149902 1.53295898,7.328125 C1.53295898,5.74475098 2.28131104,3.37060547 2.98669434,3.69348145 Z" id="Path-55" fill="#FFFFFF"></path>
                <path d="M12.980072,14.4169922 C12.3754578,14.2078857 13.6217651,13.12146 14.6049194,13.6171265 C15.5880737,14.112793 17.74646,15.427063 18.024231,16.149353 C18.302002,16.8716431 17.4836426,18.270752 17.2825317,17.7150879 C17.0814209,17.1594238 13.5846863,14.6260986 12.980072,14.4169922 Z" id="Path-56" fill="#FFFFFF"></path>
                <path d="M15,11 C15,8.23857625 12.7614237,6 10,6" id="Oval-11" stroke="#FFFFFF" stroke-linecap="round"></path>
                <path d="M19,11 C19,6.02943725 14.9705627,2 10,2" id="Oval-11-Copy" stroke="#FFFFFF" stroke-linecap="round"></path>
            </g>
        </g>
    </g>
</svg>