<svg xmlns="http://www.w3.org/2000/svg" width="29" height="15" viewBox="0 0 29 15">
    <g fill="#146EB4" fill-rule="evenodd">
        <path d="M8 6h12v3H8z"/>
        <path d="M12.935 2.625V0H6.401C4.896 0-.422 1.838.027 7.521c.448 5.683 4.892 6.849 6.263 6.849h6.645v-2.352H6.47c-1.375 0-3.929-1.45-3.929-4.497 0-3.046 2.271-4.896 3.929-4.896h6.466zM16 2.625V0h6.535c1.505 0 6.822 1.838 6.374 7.521-.449 5.683-4.893 6.849-6.264 6.849H16v-2.352h6.466c1.376 0 3.929-1.45 3.929-4.497 0-3.046-2.27-4.896-3.929-4.896H16z"/>
    </g>
</svg>
