<svg xmlns="http://www.w3.org/2000/svg" width="20" height="15" viewBox="0 0 20 15">
    <g fill="none" fill-rule="evenodd" transform="translate(0 -2)">
        <path d="M0 0h20v20H0z"/>
        <rect width="18.5" height="13.139" x=".75" y="2.972" fill="#FFF" stroke="#FFF" stroke-width="1.5" rx="2"/>
        <path fill="#146EB4" fill-rule="nonzero" d="M1.533 16.183l-1.061-1.06 6.3-6.305 1.062 1.06zM12.2 10.15l1.013-1.105 6.561 6.01-1.013 1.107z"/>
        <path fill="#146EB4" fill-rule="nonzero" d="M11.355 9.482l-.094.097.051-.058.043-.039zm5.63-6.405h1.999l-6.597 7.494a3.293 3.293 0 0 1-4.711-.168L.908 3.077H2.95L8.782 9.39c.676.737 1.791.79 2.53.131l5.673-6.444zm-5.63 6.405l-.094.097.051-.058.043-.039zm5.63-6.405h1.999l-6.597 7.494a3.293 3.293 0 0 1-4.711-.168L.908 3.077H2.95L8.782 9.39c.676.737 1.791.79 2.53.131l5.673-6.444z"/>
    </g>
</svg>
