<svg xmlns="http://www.w3.org/2000/svg" width="40" height="36" viewBox="0 0 40 36">
    <g fill="none" fill-rule="evenodd">
        <path d="M0-2h40v40H0z"/>
        <g fill="#146EB4">
            <path d="M29.075 14.187h10.878l-3.32 10.615-2.247-3.332-18.04 12.855-3.39-4.894-9.604 5.985-2.997-4.507 13.882-8.71 3.352 4.664 13.794-9.474z"/>
            <circle cx="18.5" cy="6.5" r="6.5"/>
            <path d="M28.734 18.001l-10.751 7.376-3.391-4.542a1285.422 1285.422 0 0 1-8.289 5.439c-1.273-4.13 1.108-8.098 2.142-9.153 1.033-1.054 4.17-4.578 10.146-4.578 3.984 0 7.365 1.82 10.143 5.458z"/>
        </g>
    </g>
</svg>
