<svg xmlns="http://www.w3.org/2000/svg" width="37" height="41" viewBox="0 0 37 41">
    <g fill="none" fill-rule="evenodd">
        <path d="M-1 0h40v40H-1z"/>
        <path stroke="#146EB4" stroke-linecap="round" d="M22.919 31.846H14.85M22.92 33.799H14.75M23 35.627h-8.096M21.54 37.188c0 1.588-1.512 2.338-2.532 2.338-1.019 0-2.72-.675-2.513-2.338M30.333 18.52h6.136M26.584 10.407L30.94 6.29M18.705 6.638V.885M10.942 10.511L6.562 6.26M7.32 18.37H1.107"/>
        <path fill="#146EB4" d="M22.763 29.893h-7.682c-2.831-5.571-4.247-9.742-4.247-12.514 0-4.157 3.451-6.826 7.69-6.826 4.24 0 8.302 2.833 8.302 6.826 0 2.662-1.354 6.834-4.063 12.514z"/>
        <path stroke="#FFF" stroke-linecap="round" d="M18.569 12.997c1.191 0 6.085.35 6.085 5.77"/>
    </g>
</svg>
