<svg xmlns="http://www.w3.org/2000/svg" width="40" height="40" viewBox="0 0 40 40">
    <g fill="none" fill-rule="evenodd">
        <path stroke="#979797" stroke-width=".01" d="M.005.005h39.99v39.99H.005z"/>
        <circle cx="30" cy="13.529" r="4.118" fill="#146EB4"/>
        <circle cx="8.824" cy="13.529" r="4.118" fill="#146EB4"/>
        <path fill="#146EB4" d="M1.283 29.355c0-1.128-1.654-11.5 8.071-11.705 9.725-.204 7.901 9.773 7.901 11.705-2.986.139-13.62-.023-15.972 0zM27.059 6.327l3.626-3.87 1.115 4.64zM14.098 32.028l-2.97 3.618-1.623-4.255z"/>
        <path stroke="#146EB4" d="M9.412 6.038c2.98-3.241 6.422-4.862 10.326-4.862 3.904 0 7.072 1.115 9.505 3.343M31.596 31.765c-2.98 3.24-6.423 4.861-10.326 4.861-3.904 0-7.072-1.114-9.505-3.342"/>
        <path fill="#146EB4" d="M21.283 29.355c0-1.128-1.654-11.5 8.071-11.705 9.725-.204 7.901 9.773 7.901 11.705-2.986.139-13.62-.023-15.972 0z"/>
    </g>
</svg>
