<svg xmlns="http://www.w3.org/2000/svg" viewBox="-15829 -20530 48 48">
  <defs>
    <style>
      .cls-1 {
        fill: #452b7a;
      }
    </style>
  </defs>
  <g id="Group_63" data-name="Group 63" transform="translate(-15829 -20530)">
    <rect id="Rectangle_66" data-name="Rectangle 66" class="cls-1" width="4" height="6" transform="translate(8 28)"/>
    <rect id="Rectangle_67" data-name="Rectangle 67" class="cls-1" width="4" height="26" transform="translate(44 8)"/>
    <rect id="Rectangle_68" data-name="Rectangle 68" class="cls-1" width="6" height="4" transform="translate(42 8)"/>
    <rect id="Rectangle_69" data-name="Rectangle 69" class="cls-1" width="40" height="7" transform="translate(8 30)"/>
    <path id="Path_98" data-name="Path 98" class="cls-1" d="M36,48H20l4-18h8Z"/>
    <rect id="Rectangle_70" data-name="Rectangle 70" class="cls-1" width="36" height="4" transform="translate(10 44)"/>
    <path id="Path_99" data-name="Path 99" class="cls-1" d="M0,6V26H40V6ZM13.7,22H10.3L7.7,16l2.6-6h3.4l-2.6,6ZM20,22H16.6L20,10h3.4Zm9.7,0H26.3l2.6-6-2.6-6h3.4l2.6,6Z"/>
    <path id="Path_100" data-name="Path 100" class="cls-1" d="M0,0V4H40V0ZM3,3A.945.945,0,0,1,2,2,.945.945,0,0,1,3,1,.945.945,0,0,1,4,2,.945.945,0,0,1,3,3ZM6,3A.945.945,0,0,1,5,2,.945.945,0,0,1,6,1,.945.945,0,0,1,7,2,.945.945,0,0,1,6,3ZM9,3A.945.945,0,0,1,8,2,.945.945,0,0,1,9,1a.945.945,0,0,1,1,1A.945.945,0,0,1,9,3Z"/>
  </g>
</svg>
