<svg xmlns="http://www.w3.org/2000/svg" viewBox="-19883 -21279 47.9 48.199">
  <defs>
    <style>
      .cls-1 {
        fill: #fff;
      }
    </style>
  </defs>
  <path id="Path_139" data-name="Path 139" class="cls-1" d="M1.3,37l2,.4a10.887,10.887,0,0,0,1,2.5L3.1,41.6a1.67,1.67,0,0,0,.2,2l1.2,1.2a1.657,1.657,0,0,0,2,.2l1.7-1.2a11.176,11.176,0,0,0,2.5,1.1l.4,2a1.6,1.6,0,0,0,1.5,1.3h1.7a1.435,1.435,0,0,0,1.5-1.3l.4-2a10.887,10.887,0,0,0,2.5-1l1.7,1.2a1.67,1.67,0,0,0,2-.2l1.2-1.2a1.657,1.657,0,0,0,.2-2L22.6,40a7.714,7.714,0,0,0,1-2.5l2-.4a1.6,1.6,0,0,0,1.3-1.5V33.9a1.435,1.435,0,0,0-1.3-1.5l-2-.4a10.887,10.887,0,0,0-1-2.5l1.2-1.7a1.67,1.67,0,0,0-.2-2l-1.2-1.2a1.657,1.657,0,0,0-2-.2l-1.7,1.2a7.714,7.714,0,0,0-2.5-1l-.4-2a1.6,1.6,0,0,0-1.5-1.3H12.6a1.435,1.435,0,0,0-1.5,1.3l-.3,2a10.887,10.887,0,0,0-2.5,1L6.6,24.4a1.67,1.67,0,0,0-2,.2L3.4,25.8a1.657,1.657,0,0,0-.2,2l1.2,1.7a10.887,10.887,0,0,0-1,2.5l-2,.4A1.238,1.238,0,0,0,0,33.7v1.7A1.6,1.6,0,0,0,1.3,37Zm12.1-7.3a4.9,4.9,0,1,1-4.9,4.9A4.908,4.908,0,0,1,13.4,29.7ZM37.8,41.1V34.6h-2a.645.645,0,0,1-.6-.6.367.367,0,0,1,.1-.3l4-5.9a.55.55,0,0,1,.5-.3h0a.55.55,0,0,1,.5.3l4,5.9a.524.524,0,0,1-.2.8.367.367,0,0,1-.3.1H41.7V43a2.006,2.006,0,0,1-2,2H27.9a.9.9,0,0,1-.9-.9h0V42a.9.9,0,0,1,.9-.9h9.9Zm8.8-25.3a1.6,1.6,0,0,0,1.3-1.5V12.6a1.435,1.435,0,0,0-1.3-1.5l-2-.4a10.887,10.887,0,0,0-1-2.5l1.2-1.7a1.67,1.67,0,0,0-.2-2L43.4,3.3a1.657,1.657,0,0,0-2-.2L39.7,4.3a7.714,7.714,0,0,0-2.5-1l-.3-2A1.6,1.6,0,0,0,35.3,0H33.6a1.435,1.435,0,0,0-1.5,1.3l-.4,2a10.887,10.887,0,0,0-2.5,1L27.5,3.1a1.67,1.67,0,0,0-2,.2L24.3,4.5a1.657,1.657,0,0,0-.2,2l1.2,1.7a7.714,7.714,0,0,0-1,2.5l-2,.4A1.6,1.6,0,0,0,21,12.6v1.7a1.435,1.435,0,0,0,1.3,1.5l2,.4a10.887,10.887,0,0,0,1,2.5l-1.2,1.7a1.67,1.67,0,0,0,.2,2l1.2,1.3a1.657,1.657,0,0,0,2,.2l1.7-1.2a7.714,7.714,0,0,0,2.5,1l.4,2A1.6,1.6,0,0,0,33.6,27h1.7a1.435,1.435,0,0,0,1.5-1.3l.4-2a10.887,10.887,0,0,0,2.5-1l1.7,1.2a1.67,1.67,0,0,0,2-.2l1.2-1.2a1.657,1.657,0,0,0,.2-2l-1.2-1.7a10.887,10.887,0,0,0,1-2.5ZM34.5,18.3a4.9,4.9,0,1,1,4.9-4.9A4.908,4.908,0,0,1,34.5,18.3ZM10.1,6.9v6.5h2a.645.645,0,0,1,.6.6.367.367,0,0,1-.1.3l-4,5.9a.55.55,0,0,1-.5.3h0a.55.55,0,0,1-.5-.3l-4-5.9a.524.524,0,0,1,.2-.8.367.367,0,0,1,.3-.1h2V5a2.006,2.006,0,0,1,2-2H20a.9.9,0,0,1,.9.9h0V6a.9.9,0,0,1-.9.9H10.1Z" transform="translate(-19883 -21279)"/>
</svg>
