<svg xmlns="http://www.w3.org/2000/svg" width="40" height="39" viewBox="0 0 40 39">
    <g fill="none" fill-rule="evenodd">
        <path stroke="#979797" stroke-width=".01" d="M.005.005h39.99V38.09H.005z"/>
        <path fill="#146EB4" d="M29.724 3.025L32.964 0v9.222c-5.583.028-8.752.028-9.504 0a61.992 61.992 0 0 1 2.206-2.237c-2.154-.86-12.61-3.554-17.708 4.71-5.1 8.264-.565 14.22.471 15.059a151.254 151.254 0 0 0-4.12 3.444C-.276 24.728-2.318 13.02 6.872 5.12 13-.147 20.617-.845 29.723 3.025zM11.547 36.049l-2.44 2.918-1.056-9.051c5.635-.752 8.829-1.107 9.58-1.066-.777.793-1.347 1.71-2.442 2.742 2.138.896 10.426 2.23 15.592-4.813 5.166-7.042 1.695-12.713.685-13.994a298.834 298.834 0 0 1 4.154-3.512c4.443 5.377 5.744 16.398-3.127 23.577-5.914 4.787-12.896 5.853-20.946 3.199z"/>
        <path fill="#146EB4" stroke="#146EB4" d="M19.5 10.976h1v2.81h-1zM19.5 24.31h1v2.81h-1zM23.652 23.254l.731-.682 1.917 2.055-.732.682z"/>
        <path stroke="#146EB4" d="M25.999 19.447l.035-1 2.808.099-.035.999z"/>
        <path fill="#146EB4" stroke="#146EB4" d="M25.895 12.43l.707.706-1.987 1.987-.707-.707zM13.642 13.67l.695-.72 2.021 1.952-.694.72zM10.595 19.548v-1h2.81v1z"/>
        <ellipse cx="19.5" cy="18.571" fill="#146EB4" rx="6.5" ry="6.19"/>
        <ellipse cx="19.5" cy="18.571" fill="#FFF" rx="3.5" ry="3.333"/>
        <path fill="#146EB4" stroke="#146EB4" d="M15.09 22.812l.719.694-1.952 2.022-.72-.695z"/>
    </g>
</svg>
