<svg xmlns="http://www.w3.org/2000/svg" viewBox="-17935 -21408 51.66 48">
  <defs>
    <style>
      .cls-1 {
        fill: #452b7a;
      }
    </style>
  </defs>
  <path id="Path_126" data-name="Path 126" class="cls-1" d="M47.247,0H10.655A4.364,4.364,0,0,0,6.242,4.413V21.525l.969.323a5.224,5.224,0,0,1,3.874-3.121v-7.1H46.816V36.377H29.381a5.273,5.273,0,0,1-3.121,4.2c.108.215.108.43.215.646H47.247a4.364,4.364,0,0,0,4.413-4.413h0V4.413A4.364,4.364,0,0,0,47.247,0ZM34.117,8.072a1.886,1.886,0,0,1-1.83-1.83,1.83,1.83,0,0,1,3.659,0h0A1.75,1.75,0,0,1,34.117,8.072Zm5.489,0a1.886,1.886,0,0,1-1.83-1.83,1.83,1.83,0,0,1,3.659,0h0A1.814,1.814,0,0,1,39.605,8.072Zm5.489,0a1.886,1.886,0,0,1-1.83-1.83,1.83,1.83,0,0,1,3.659,0h0A1.886,1.886,0,0,1,45.094,8.072ZM26.152,20.664h-1.4a1.261,1.261,0,0,0-1.184.969l-.215,1.291a1.3,1.3,0,0,0,.753,1.4l1.291.538a8.118,8.118,0,0,0,.861,2.583l-.753,1.184a1.138,1.138,0,0,0,.215,1.507l.969.861A1.169,1.169,0,0,0,28.3,31l1.076-.861a7.4,7.4,0,0,0,2.583.538l.753,1.291a1.2,1.2,0,0,0,1.507.538l1.291-.43a1.169,1.169,0,0,0,.753-1.291l-.215-1.4a6.249,6.249,0,0,0,1.722-2.045h1.4a1.261,1.261,0,0,0,1.184-.969l.215-1.291a1.3,1.3,0,0,0-.753-1.4l-1.291-.538a8.118,8.118,0,0,0-.861-2.583l.753-1.184a1.138,1.138,0,0,0-.215-1.507L37.238,17a1.169,1.169,0,0,0-1.614,0l-1.076.861a7.4,7.4,0,0,0-2.583-.538l-.753-1.291A1.2,1.2,0,0,0,29.7,15.5l-1.291.43a1.169,1.169,0,0,0-.753,1.291l.215,1.4a10.223,10.223,0,0,0-1.722,2.045Zm3.336,2.8a2.512,2.512,0,1,1,2.045,2.906h0A2.478,2.478,0,0,1,29.489,23.462ZM1.291,37.453l2.152.323a9.135,9.135,0,0,0,.969,2.368L3.121,41.865a1.455,1.455,0,0,0,.108,1.83l1.184,1.184a1.339,1.339,0,0,0,1.83.108L7.964,43.7a9.135,9.135,0,0,0,2.368.969l.323,2.152A1.386,1.386,0,0,0,12.054,48h1.614a1.4,1.4,0,0,0,1.4-1.291l.323-2.152a9.135,9.135,0,0,0,2.368-.969l1.722,1.291a1.455,1.455,0,0,0,1.83-.108l1.076-1.184a1.339,1.339,0,0,0,.108-1.83L21.2,40.036a9.135,9.135,0,0,0,.969-2.368l2.152-.323a1.386,1.386,0,0,0,1.184-1.4V34.332a1.4,1.4,0,0,0-1.291-1.4l-2.152-.323a9.135,9.135,0,0,0-.969-2.368l1.291-1.722a1.455,1.455,0,0,0-.108-1.83l-1.184-1.076a1.339,1.339,0,0,0-1.83-.108L17.543,26.8a9.135,9.135,0,0,0-2.368-.969l-.323-2.152a1.386,1.386,0,0,0-1.4-1.184H11.839a1.4,1.4,0,0,0-1.4,1.291l-.323,2.152a9.135,9.135,0,0,0-2.368.969L6.027,25.614a1.455,1.455,0,0,0-1.83.108L3.121,26.8a1.339,1.339,0,0,0-.108,1.83L4.3,30.35a9.135,9.135,0,0,0-.969,2.368l-2.152.323A1.4,1.4,0,0,0,0,34.439v1.614A1.4,1.4,0,0,0,1.291,37.453Zm11.516-5.6h0a3.353,3.353,0,0,1,3.336,3.336,3.425,3.425,0,0,1-3.336,3.336h0a3.353,3.353,0,0,1-3.336-3.336A3.425,3.425,0,0,1,12.807,31.857Z" transform="translate(-17935 -21408)"/>
</svg>
