<svg xmlns="http://www.w3.org/2000/svg" width="39" height="40" viewBox="0 0 39 40">
    <g fill="none" fill-rule="evenodd">
        <path d="M0 0h40v40H0z"/>
        <circle cx="17.5" cy="17.5" r="15.5" stroke="#146EB4" stroke-width="4"/>
        <path fill="#146EB4" d="M30.428 27c1.09 1.098 7.069 6.768 7.88 7.903.81 1.135 1.156 3.322-.36 4.445-1.516 1.123-3.194.744-4.655-.74-.974-.99-3.405-3.421-7.293-7.294 2.101-1.839 3.577-3.277 4.428-4.314zM12.945 25l1.54-1.47v-1.49h1.478v-1.624h1.62c.99-.957 1.796-1.756 2.417-2.396A662.395 662.395 0 0 1 16.779 15L10 21.882V25h2.945z"/>
        <circle cx="21.5" cy="13.5" r="5.5" fill="#146EB4"/>
        <path fill="#FFF" d="M19 11.048c1.324 1.342 4.633 4.527 5.092 4.952.669-.628 1.656-2.82 0-4.708-1.655-1.888-3.915-1.473-5.092-.244z"/>
    </g>
</svg>
