<svg xmlns="http://www.w3.org/2000/svg" viewBox="-20285 -21524 34.934 48">
  <defs>
    <style>
      .cls-1 {
        fill: #fff;
      }
    </style>
  </defs>
  <path id="Path_133" data-name="Path 133" class="cls-1" d="M9.015,21.591l.735,1.224a1.329,1.329,0,0,0,1.567.588l1.469-.539a7.043,7.043,0,0,0,2.5,1.42l.245,1.518A1.312,1.312,0,0,0,16.8,26.929h1.42A1.268,1.268,0,0,0,19.5,25.852l.245-1.518a7.043,7.043,0,0,0,2.5-1.42l1.469.539a1.329,1.329,0,0,0,1.567-.588l.735-1.224a1.356,1.356,0,0,0-.294-1.665L24.54,19a7.175,7.175,0,0,0,0-2.889l1.175-.979a1.333,1.333,0,0,0,.294-1.665l-.735-1.224a1.329,1.329,0,0,0-1.567-.588l-1.469.539a7.043,7.043,0,0,0-2.5-1.42L19.5,9.25a1.268,1.268,0,0,0-1.273-1.077H16.8A1.268,1.268,0,0,0,15.529,9.25l-.294,1.518a7.043,7.043,0,0,0-2.5,1.42l-1.469-.539a1.329,1.329,0,0,0-1.567.588l-.735,1.224a1.356,1.356,0,0,0,.294,1.665l1.175.979a7.176,7.176,0,0,0,0,2.889l-1.175.979A1.267,1.267,0,0,0,9.015,21.591Zm8.472-6.807a2.686,2.686,0,0,1,2.694,2.694,2.694,2.694,0,1,1-5.387,0h0A2.717,2.717,0,0,1,17.488,14.784ZM7.4,31.777a1.191,1.191,0,0,1,.539.979v6.416A4.878,4.878,0,0,0,12,43.923v1.861a2.185,2.185,0,0,0,2.155,2.2H20.72a2.195,2.195,0,0,0,2.2-2.2h0V43.923a4.757,4.757,0,0,0,4.065-4.75V32.757a1.191,1.191,0,0,1,.539-.979A17.488,17.488,0,0,0,29.388,4.7,17.213,17.213,0,0,0,16.214.043,17.5,17.5,0,0,0,7.4,31.777ZM4.853,16.155a12.708,12.708,0,0,1,11.7-11.313c.294,0,.588-.049.93-.049A12.687,12.687,0,0,1,30.172,17.477a12.832,12.832,0,0,1-5.338,10.382,5.928,5.928,0,0,0-2.547,4.9v1.812h-9.55V32.806a6.056,6.056,0,0,0-2.547-4.9A12.621,12.621,0,0,1,4.853,16.155Z" transform="translate(-20285.008 -21523.988)"/>
</svg>
