<svg xmlns="http://www.w3.org/2000/svg" width="41" height="40" viewBox="0 0 41 40">
    <g fill="none" fill-rule="evenodd">
        <path d="M0 1h40v40H0z"/>
        <g fill="#146EB4" transform="translate(-3)">
            <circle cx="22.5" cy="21.5" r="6.5"/>
            <path d="M13.007 40.001c0-3.009 1.128-11.887 10.002-11.887 8.875 0 10.003 7.58 10.003 11.887-4.414 0-14.5-.088-20.005 0zM22.608 12l-4.702 2.472.898-5.236L15 5.528l5.257-.764L22.608 0l2.352 4.764 5.257.764-3.804 3.708.898 5.236zM36.128 16.731l-4.059.408 2.145-3.47-1.641-3.734 3.962.969 3.044-2.716.304 4.068 3.523 2.056-3.775 1.546-.867 3.986zM11.243 17.898l-1.211 3.895-2.355-3.33-4.08.052 2.44-3.27-1.31-3.862 3.863 1.31 3.27-2.44-.053 4.08 3.33 2.354z"/>
        </g>
    </g>
</svg>
