<svg xmlns="http://www.w3.org/2000/svg" viewBox="-20292 -21279 48 46.762">
  <defs>
    <style>
      .cls-1 {
        fill: #fff;
      }
    </style>
  </defs>
  <g id="Group_76" data-name="Group 76" transform="translate(-20292 -21279)">
    <path id="Path_145" data-name="Path 145" class="cls-1" d="M61.282,55.946,44.644,42.508s2.453-4.266-.533-7.466c-1.44-1.493-3.68-2.72-5.813-1.813l2.826,3.36-.853,4.373-4.533,1.067-3.466-4.266s-1.386,4.373,1.173,6.826c2.773,2.666,7.732,1.013,8.106,1.013L56.429,60.585s3.093,3.2,5.546.373C64.375,58.132,61.282,55.946,61.282,55.946Zm-2.08,4A1.546,1.546,0,1,1,60.748,58.4,1.583,1.583,0,0,1,59.2,59.945Z" transform="translate(-14.887 -15.364)"/>
    <path id="Path_146" data-name="Path 146" class="cls-1" d="M27.357,34.343a11.882,11.882,0,1,1,6.826-6.666l6.4,5.173a20.522,20.522,0,0,0,1.92-4.8h0s.373-1.44,1.013-1.44h1.6a1.355,1.355,0,0,0,1.333-1.333l-.053-4.693a1.355,1.355,0,0,0-1.333-1.333h-1.6c-.64,0-1.013-1.386-1.013-1.386h0a19.025,19.025,0,0,0-2.133-4.906h0s-.747-1.227-.32-1.706,1.12-1.173,1.12-1.173a1.289,1.289,0,0,0-.053-1.866L37.7,4.959a1.289,1.289,0,0,0-1.866.053s-.64.693-1.12,1.173c-.427.48-1.706-.267-1.706-.267h0A19.654,19.654,0,0,0,28.05,3.946h0s-1.44-.32-1.44-1.013v-1.6A1.355,1.355,0,0,0,25.277,0L20.584.053a1.355,1.355,0,0,0-1.333,1.333v1.6c0,.64-1.386,1.013-1.386,1.013h0a19.025,19.025,0,0,0-4.906,2.133h0s-1.227.747-1.706.32-1.173-1.12-1.173-1.12a1.289,1.289,0,0,0-1.866.053L4.959,8.746a1.289,1.289,0,0,0,.053,1.866s.693.693,1.173,1.12c.48.48-.267,1.706-.267,1.706h0A19.654,19.654,0,0,0,3.946,18.4h0s-.32,1.44-1.013,1.44h-1.6A1.355,1.355,0,0,0,0,21.171l.053,4.693A1.355,1.355,0,0,0,1.386,27.2h1.6C3.626,27.2,4,28.583,4,28.583H4a19.025,19.025,0,0,0,2.133,4.906h0s.747,1.227.32,1.706-1.12,1.173-1.12,1.173a1.289,1.289,0,0,0,.053,1.866l3.36,3.253a1.289,1.289,0,0,0,1.866-.053s.693-.693,1.12-1.173,1.706.267,1.706.267h0A19.654,19.654,0,0,0,18.4,42.5h0s1.44.32,1.44,1.013v1.6a1.355,1.355,0,0,0,1.333,1.333l4.693-.053A1.355,1.355,0,0,0,27.2,45.061v-1.6c0-.64,1.386-1.013,1.386-1.013h0a19.223,19.223,0,0,0,4.693-2.026Z"/>
  </g>
</svg>
