<svg xmlns="http://www.w3.org/2000/svg" width="30" height="40" viewBox="0 0 30 40">
    <g fill="none" fill-rule="evenodd">
        <path d="M-5 0h40v40H-5z"/>
        <path fill="#146EB4" d="M25.033 22.598v-3.614c0-.619.622-1.59 2.057-1.59s1.923.578 1.923 1.59v11.682c0 1.74-1.941 9.372-9.72 9.05-7.78-.322-10.444-7.477-11.144-8.264-.701-.786-6.269-9.97-6.673-10.673-.403-.703-.058-2.379 1.812-1.795 1.87.584 5.575 3.966 6.08 4.77.504.804 0-12.87 0-13.729 0-.858.615-1.864 1.937-1.864s1.851.55 1.851 1.496v12.94h1.39c.624 0 0-4.75 0-6.204 0-1.453 1.318-1.685 2.288-1.685.97 0 1.658.684 1.658 1.685v4.985h1.487v-3.983c0-1.002.91-1.378 1.902-1.378.992 0 1.831.597 1.831 1.378v5.203c.88.352 1.32.352 1.32 0zM11 0h1v6h-1zM19.728 3l.616.788-4.728 3.694L15 6.694z"/>
        <path fill="#146EB4" d="M22.082 12.973l-.225.974-5.846-1.35.225-.974zM5.822 11l.242.97-5.822 1.452-.242-.97zM7.805 7.088l-.616.788-4.728-3.694.616-.788z"/>
    </g>
</svg>
