<svg xmlns="http://www.w3.org/2000/svg" viewBox="-14199 -22018 48 48">
  <defs>
    <style>
      .cls-1 {
        fill: #462b7a;
      }
    </style>
  </defs>
  <g id="noun_117809_cc" transform="translate(-14209 -22028)">
    <path id="Path_62" data-name="Path 62" class="cls-1" d="M34,10A24,24,0,1,0,58,34,23.993,23.993,0,0,0,34,10ZM45.64,41.56a1.989,1.989,0,0,1-1.68.96,1.9,1.9,0,0,1-.96-.24l-9.96-5.64a1.915,1.915,0,0,1-.96-1.68V21.34a1.92,1.92,0,1,1,3.84,0V33.88l9,5.1A1.876,1.876,0,0,1,45.64,41.56Z"/>
  </g>
</svg>
