<svg xmlns="http://www.w3.org/2000/svg" xmlns:xlink="http://www.w3.org/1999/xlink" width="354" height="296" viewBox="0 0 354 296">
    <defs>
        <path id="a" d="M26.799 3.202H1.873a1.58 1.58 0 1 1 0-3.16H26.8a1.58 1.58 0 1 1 0 3.16z"/>
    </defs>
    <g fill="none" fill-rule="evenodd">
        <path fill="#1C1F45" d="M299.533 105.14l1.62 3.097a.99.99 0 0 0 1.224.468c1.9-.714 6.552-2.64 8.243-4.93l-1.008-1.097s-4.621 1.627-6.171.09l-3.908 2.372"/>
        <path fill="#0E4E80" d="M274.466 91.819l10.22-5.486a2.284 2.284 0 0 1 2.791.5l15.995 16.43-3.638 3.201c-6.532-4.272-12.064-8.366-15.828-12.145l-12.29 4.856 2.75-7.356"/>
        <path fill="#E6E7E8" d="M180.497 95.21c-8.22 0-14.885-6.658-14.885-14.871 0-8.214 6.664-14.872 14.885-14.872 8.222 0 14.886 6.658 14.886 14.872 0 8.213-6.664 14.872-14.886 14.872m34.08-10.828v-7.828l-9.87-2.739a24.883 24.883 0 0 0-2.365-5.775l5.024-8.881-5.54-5.535-8.838 4.991a24.947 24.947 0 0 0-5.86-2.438l-2.713-9.758h-7.835l-2.713 9.758a24.93 24.93 0 0 0-5.86 2.438l-8.838-4.991-5.54 5.535 5.024 8.88a24.89 24.89 0 0 0-2.366 5.776l-9.87 2.74v7.827l9.95 2.761a24.876 24.876 0 0 0 2.36 5.623l-5.098 9.011 5.54 5.535 9.07-5.122a24.934 24.934 0 0 0 5.55 2.287l2.791 10.04h7.835l2.791-10.04a24.94 24.94 0 0 0 5.55-2.287l9.07 5.122 5.54-5.535-5.098-9.01a24.87 24.87 0 0 0 2.363-5.625l9.947-2.76"/>
        <path fill="#E6E7E8" d="M137.162 73.404a6.496 6.496 0 1 1 2.972-12.648 6.496 6.496 0 1 1-2.972 12.648zm15.574-1.205l.782-3.329-3.924-2.149a10.867 10.867 0 0 0-.428-2.692l3.023-3.275-1.802-2.906-4.257 1.24a10.889 10.889 0 0 0-2.248-1.62l-.18-4.42-3.33-.782-2.13 3.879c-.937.034-1.855.188-2.734.452l-3.26-3.004-2.909 1.801 1.25 4.278a10.88 10.88 0 0 0-1.584 2.22l-4.47.18-.783 3.328 3.955 2.167c.04.9.19 1.781.442 2.627l-3.068 3.323 1.803 2.906 4.368-1.274c.64.587 1.354 1.1 2.131 1.526l.184 4.548 3.331.782 2.19-3.991a10.892 10.892 0 0 0 2.59-.42l3.344 3.083 2.909-1.8-1.268-4.34a10.863 10.863 0 0 0 1.567-2.157l4.506-.181z"/>
        <path fill="#146EB4" d="M49.07 187.155c-4.485-5.094-4.553-12.89-2.198-19.252 2.356-6.364 6.727-11.735 10.591-17.313 3.864-5.58 7.377-11.796 7.595-18.577.403-12.58-10.247-22.525-14.626-34.327-1.109-2.989-1.798-6.083-2.123-9.225-2.68-26.737 11.888-56.576 37.747-65.673 3.278-1.455 7.649.728 7.649 4.003.364 7.278-6.556 13.1-6.556 20.741 0 .728.364 2.183.728 2.547 13.112 7.278 15.662 20.378 2.186 29.111-1.093 1.092-1.457 2.547-2.22 3.892-.905 2.32-1.011 4.802-.617 7.262.395 2.46 1.29 4.9 2.386 7.135 2.193 4.47 5.179 8.572 6.8 13.28 4.43 12.862-2.218 26.837-10.12 37.914-7.904 11.078-17.544 21.738-20.124 35.095-.826 4.278-.913 8.796-2.843 12.704-1.928 3.907-6.603 6.995-10.608 5.27l-.796-3.522"/>
        <path fill="#1C1F45" d="M60.255 147.33l-.358-.431c8.165-6.764 12.288-15.624 12.605-27.086.284-10.247-2.425-21.553-5.046-32.486-.452-1.885-.903-3.77-1.34-5.648-2.905-12.493 1.036-23.312 4.853-30.189 4.133-7.443 9.02-12.002 9.07-12.048l.38.412c-.048.044-4.88 4.554-8.968 11.924-3.765 6.787-7.652 17.462-4.789 29.774.436 1.878.888 3.76 1.34 5.645 5.28 22.033 10.74 44.816-7.747 60.133"/>
        <path fill="#72C3FF" d="M11.64 110.965C4.92 103.36.46 93.079 2.25 83.094c1.788-9.986 11.21-18.79 21.294-17.604-5.603-8.743-11.381-18.012-11.911-28.38-.53-10.368 6.337-21.89 16.704-22.581 4.401-.293 8.652 1.728 11.667 4.915 3.076 3.344 4.897 7.71 4.533 12.078-2.185-2.912.729-6.55 3.642-7.278 1.821-.364 3.642 0 5.099 1.091 2.914 2.548 4.735 6.187 4.006 9.825-2.185 8.734-8.377 16.739-4.006 25.836 6.92 13.827 13.112 27.291 16.24 42.302a165.696 165.696 0 0 1 1.685 7.353c.502 2.466.935 4.946 1.295 7.436.963 6.649 1.373 13.675-1.262 19.855-3.138 7.36-10.254 12.688-12.472 20.375-3.518 12.194 6.402 26.193.466 37.412-4.3 8.126-15.847 9.6-23.39 5.423-10.753-5.955-11.019-20.063-8.277-30.619 2.59-9.974 8.3-18.565 6.716-29.444-.55-3.778-1.9-7.053-3.742-10.017-4.772-7.678-12.85-13.267-18.896-20.107"/>
        <path fill="#E6E7E8" d="M24.167 185.328h44.038c7.325 0 12.083 7.707 8.798 14.247l-10.305 20.508a9.845 9.845 0 0 1-8.797 5.423H33.244a9.844 9.844 0 0 1-9.002-5.858l-9.077-20.508c-2.878-6.502 1.887-13.812 9.002-13.812"/>
        <path fill="#1C1F45" d="M46.353 183.265c-.077-.162-1.881-4.051-2.245-11.632-.336-6.974.559-18.506 6.724-33.841 8.416-20.936-2.66-41.867-10.748-57.15-3.296-6.23-6.143-11.61-6.992-15.708-2.9-14.002 5.282-30.821 5.365-30.99l.503.249c-.082.166-8.18 16.816-5.319 30.628.833 4.02 3.662 9.367 6.94 15.559 8.138 15.38 19.284 36.443 10.77 57.62-6.117 15.22-7.012 26.653-6.685 33.564.353 7.484 2.176 11.422 2.194 11.461l-.507.24"/>
        <path fill="#1C1F45" d="M51.37 137.929l-.556-.065c.879-7.521-.512-14.82-4.132-21.697-2.902-5.511-7.235-10.766-12.88-15.62-9.627-8.277-19.865-12.565-19.967-12.608l.214-.517c.103.042 10.413 4.359 20.107 12.691 5.702 4.9 10.081 10.211 13.018 15.786 3.677 6.98 5.09 14.392 4.196 22.03M37.275 75.256c-3.516-11.696-.278-20.816 3.057-26.407 3.61-6.054 8.12-9.394 8.166-9.427l.332.452c-.045.033-4.477 3.318-8.028 9.281-3.27 5.491-6.445 14.45-2.99 25.94l-.537.16"/>
        <path fill="#1C1F45" d="M49.383 143.236l-.56-.038c.606-8.858-.783-21.015-10.84-28.627-6.013-4.552-12.355-5.325-12.418-5.333l.064-.556c.065.007 6.558.799 12.693 5.442 10.255 7.763 11.676 20.116 11.061 29.112M68.629 89.884l-.558-.049c.702-8.012 3.134-18.764 10.73-24.488 4.57-3.443 8.782-3.421 8.96-3.418l-.009.56c-.051-.005-4.225-.015-8.644 3.329C71.7 71.424 69.32 82 68.628 89.884M10.537 83.73c-.664 0-1.205.54-1.205 1.204a1.206 1.206 0 0 0 2.41 0c0-.664-.54-1.204-1.205-1.204zm0 2.968a1.767 1.767 0 0 1-1.765-1.764 1.767 1.767 0 0 1 3.531 0c0 .972-.792 1.764-1.766 1.764zM90.852 60.185a.873.873 0 0 0-.873.872.874.874 0 0 0 1.746 0 .874.874 0 0 0-.873-.872zm0 2.304c-.79 0-1.434-.642-1.434-1.432a1.434 1.434 0 0 1 2.868 0c0 .79-.644 1.432-1.434 1.432zM21.5 107.853c-.6 0-1.086.486-1.086 1.084a1.086 1.086 0 0 0 2.17 0c0-.598-.486-1.084-1.085-1.084zm0 2.73a1.648 1.648 0 0 1-1.647-1.646 1.647 1.647 0 0 1 3.292 0c0 .907-.738 1.645-1.646 1.645zM39.565 30.528a.83.83 0 1 0 0 1.662.83.83 0 0 0 0-1.662zm0 2.22a1.392 1.392 0 0 1-1.391-1.39 1.392 1.392 0 0 1 2.782 0c0 .766-.624 1.39-1.391 1.39zM51.038 37.26a.831.831 0 0 0-.831.83.831.831 0 0 0 1.66 0 .83.83 0 0 0-.83-.83zm0 2.22a1.392 1.392 0 0 1-1.392-1.39 1.392 1.392 0 0 1 2.783 0c0 .766-.624 1.39-1.391 1.39zM82.542 34.749c-.82 0-1.486.666-1.486 1.485a1.487 1.487 0 0 0 2.972 0c0-.82-.667-1.485-1.486-1.485zm0 3.53a2.048 2.048 0 0 1-2.047-2.045 2.048 2.048 0 0 1 4.094 0 2.048 2.048 0 0 1-2.047 2.045z"/>
        <path fill="#F8C73D" d="M252.822 56.746c0 9.643-7.821 17.46-17.475 17.46-9.652 0-17.476-7.817-17.476-17.46 0-9.642 7.824-17.46 17.476-17.46 9.654 0 17.475 7.818 17.475 17.46"/>
        <path fill="#FBFAF8" d="M226.272 68.404a1.024 1.024 0 0 0 .711-1.762c-3.815-3.665-3.859-8.992-3.859-9.046a1.025 1.025 0 0 0-2.05 0c0 .254.05 6.26 4.488 10.522.199.191.455.286.71.286"/>
        <path fill="#0E4E80" d="M308.593 160.459l14.325-73.581-55.031-59.027 2.884-4.046 57.932 61.278-14.493 74.588-5.617.788"/>
        <path fill="#082F4D" d="M274.234 27.468l6.433 6.805h-6.793l-2.212-2.373 2.572-4.432"/>
        <path fill="#0B3F66" d="M325.842 99.803l-4.397-5.357.273-1.41 5.521-.434-1.397 7.2"/>
        <path fill="#FBFAF8" d="M292.724 169.713c0 .394-.319.716-.717.716h-9.5a.72.72 0 0 1-.72-.716v-7.166c0-.395.324-.715.72-.715h9.5c.398 0 .717.32.717.715v7.166"/>
        <path fill="#0E4E80" d="M311.401 162.937c-23.405 0-42.378 5.457-42.378 15.235h84.756c0-9.778-18.972-15.235-42.378-15.235"/>
        <path fill="#146EB4" d="M311.401 169.032c-4.256 0-3.408-3.225-1.82-6.083.604-.008 1.21-.012 1.82-.012 5.165 0 10.116.266 14.694.786-2.36 1.564-8.649 5.31-14.694 5.31M275.558 32.701a8.98 8.98 0 0 1-12.693-.234c-3.442-3.563-3.334-9.242.233-12.678a8.982 8.982 0 0 1 12.693.233 8.96 8.96 0 0 1-.233 12.68"/>
        <path fill="#1C1F45" d="M272.337 29.365a4.338 4.338 0 0 1-6.13-.115 4.324 4.324 0 0 1 .114-6.122 4.336 4.336 0 0 1 6.13.112 4.33 4.33 0 0 1-.114 6.125"/>
        <path fill="#146EB4" d="M334.711 85.95c0 4.953-4.018 8.967-8.975 8.967s-8.975-4.014-8.975-8.967c0-4.954 4.018-8.967 8.975-8.967s8.975 4.013 8.975 8.967"/>
        <path fill="#0B3F66" d="M330.07 85.95a4.331 4.331 0 0 1-4.334 4.331 4.333 4.333 0 0 1-4.334-4.331 4.334 4.334 0 0 1 4.334-4.332 4.332 4.332 0 0 1 4.334 4.332"/>
        <path fill="#146EB4" d="M320.377 160.064c0 4.953-4.018 8.968-8.976 8.968-4.958 0-8.975-4.015-8.975-8.968 0-4.952 4.017-8.967 8.975-8.967 4.958 0 8.976 4.015 8.976 8.967"/>
        <path fill="#1C1F45" d="M315.736 160.064a4.335 4.335 0 0 1-4.335 4.332 4.334 4.334 0 0 1-4.336-4.332 4.333 4.333 0 0 1 4.336-4.33 4.333 4.333 0 0 1 4.335 4.33"/>
        <path fill="#0E4E80" d="M265.89 38.915l-9.536-9.884 4.043-3.893 9.537 9.885-4.043 3.892"/>
        <path fill="#146EB4" d="M213.36 44.679c17.463-16.817 33.68-27.722 49.453-11.963 14.5 14.488 3.68 32.118-13.785 48.934L213.36 44.68"/>
        <path fill="#FBFAF8" d="M269.306 23.128a2.981 2.981 0 1 0 0 5.964 2.982 2.982 0 1 0 0-5.964M325.736 82.91a2.981 2.981 0 1 0 0 5.963 2.982 2.982 0 1 0 0-5.964M311.401 157.082a2.985 2.985 0 0 0-2.986 2.982 2.986 2.986 0 0 0 5.97 0 2.982 2.982 0 0 0-2.984-2.982"/>
        <path fill="#E6E7E8" d="M315.205 271.543H45.66a3.4 3.4 0 0 1 0-6.796h.618a10.722 10.722 0 0 0 6.743 2.372h252.987c2.552 0 4.899-.888 6.741-2.372h2.456a3.4 3.4 0 0 1 3.402 3.398 3.4 3.4 0 0 1-3.402 3.398"/>
        <path fill="#F5F5F5" d="M305.939 267.045H52.95c-5.943 0-10.761-4.814-10.761-10.752V115.28c0-5.313 4.311-9.62 9.63-9.62H307.07c5.32 0 9.63 4.307 9.63 9.62v141.013c0 5.938-4.818 10.752-10.762 10.752"/>
        <path fill="#F8C73D" d="M316.77 115.354H42.26c0-5.313 4.31-9.62 9.628-9.62H307.14c5.32 0 9.63 4.307 9.63 9.62"/>
        <path fill="#0E4E80" d="M51.286 124.088a1.53 1.53 0 1 1-.001-3.062 1.53 1.53 0 0 1 .001 3.062"/>
        <path fill="#FFCB30" d="M67.392 123.276h-12.77a.617.617 0 0 1-.617-.616v-.329c0-.34.277-.616.617-.616h12.77c.34 0 .617.276.617.616v.33c0 .34-.277.615-.617.615"/>
        <path fill="#0E4E80" d="M51.303 141.322a1.531 1.531 0 1 1-.001-3.063 1.531 1.531 0 0 1 0 3.063"/>
        <path fill="#FFCB30" d="M67.392 140.452h-12.77a.617.617 0 0 1-.617-.616v-.33c0-.34.277-.615.617-.615h12.77c.34 0 .617.276.617.616v.329c0 .34-.277.616-.617.616"/>
        <path fill="#0E4E80" d="M51.303 163.715a1.531 1.531 0 1 1-.001-3.063 1.531 1.531 0 0 1 0 3.063"/>
        <path fill="#FFCB30" d="M67.392 162.811h-12.77a.617.617 0 0 1-.617-.616v-.329c0-.34.277-.616.617-.616h12.77c.34 0 .617.276.617.616v.33c0 .34-.277.615-.617.615"/>
        <path fill="#0E4E80" d="M51.303 169.313a1.531 1.531 0 1 1-.002-3.062 1.531 1.531 0 0 1 .002 3.062"/>
        <path fill="#FFCB30" d="M67.392 168.588h-12.77a.616.616 0 0 1-.617-.616v-.329c0-.34.277-.616.617-.616h12.77c.34 0 .617.276.617.616v.33c0 .34-.277.615-.617.615"/>
        <path fill="#0E4E80" d="M55.537 128.585a1.53 1.53 0 1 1-.002-3.061 1.53 1.53 0 0 1 .002 3.061"/>
        <path fill="#FFCB30" d="M71.642 127.773H58.873a.617.617 0 0 1-.617-.616v-.329c0-.34.277-.616.617-.616h12.77c.34 0 .617.276.617.616v.329c0 .34-.277.616-.618.616"/>
        <path fill="#0E4E80" d="M55.537 133.082a1.53 1.53 0 1 1-.002-3.062 1.53 1.53 0 0 1 .002 3.062"/>
        <path fill="#FFCB30" d="M76.956 132.27H58.873a.617.617 0 0 1-.617-.616v-.329c0-.34.277-.616.617-.616h18.083c.34 0 .617.276.617.616v.329c0 .34-.276.616-.617.616"/>
        <path fill="#0E4E80" d="M55.588 145.603a1.53 1.53 0 1 1-.002-3.062 1.53 1.53 0 0 1 .002 3.062"/>
        <path fill="#FFCB30" d="M81.144 144.761h-22.27a.616.616 0 0 1-.618-.616v-.329c0-.34.277-.616.617-.616h22.271c.341 0 .617.276.617.616v.329c0 .34-.276.616-.617.616"/>
        <path fill="#0E4E80" d="M55.588 150.213a1.53 1.53 0 1 1-.002-3.062 1.53 1.53 0 0 1 .002 3.062"/>
        <path fill="#FFCB30" d="M73.518 149.258H58.873a.617.617 0 0 1-.617-.616v-.33c0-.34.277-.615.617-.615h14.645c.34 0 .617.276.617.616v.329c0 .34-.277.616-.617.616"/>
        <path fill="#0E4E80" d="M59.55 154.178a1.208 1.208 0 1 1-.001-2.416 1.208 1.208 0 0 1 0 2.416"/>
        <path fill="#FFCB30" d="M87.146 153.531H62.228a.616.616 0 1 1 0-1.232h24.918a.617.617 0 1 1 0 1.232"/>
        <path fill="#0E4E80" d="M59.55 157.8a1.209 1.209 0 1 1 0-2.416 1.209 1.209 0 0 1 0 2.417"/>
        <path fill="#FFCB30" d="M76.956 157.08H62.228a.616.616 0 1 1 0-1.232h14.728a.616.616 0 1 1 0 1.232"/>
        <path fill="#0E4E80" d="M51.303 175.899a1.531 1.531 0 1 1-.001-3.062 1.531 1.531 0 0 1 0 3.062"/>
        <path fill="#FFCB30" d="M67.392 175.053h-12.77a.617.617 0 0 1-.617-.616v-.33c0-.34.277-.616.617-.616h12.77c.34 0 .617.276.617.617v.329c0 .34-.277.616-.617.616"/>
        <path fill="#0E4E80" d="M51.303 193.023a1.531 1.531 0 1 1-.001-3.062 1.531 1.531 0 0 1 0 3.062"/>
        <path fill="#FFCB30" d="M67.392 192.228h-12.77a.617.617 0 0 1-.617-.616v-.329c0-.34.277-.616.617-.616h12.77c.34 0 .617.276.617.616v.33c0 .34-.277.615-.617.615"/>
        <path fill="#0E4E80" d="M51.303 215.416a1.53 1.53 0 1 1-.002-3.062 1.53 1.53 0 0 1 .002 3.062"/>
        <path fill="#FFCB30" d="M67.392 214.587h-12.77a.617.617 0 0 1-.617-.616v-.329c0-.34.277-.616.617-.616h12.77c.34 0 .617.276.617.616v.33c0 .34-.277.615-.617.615"/>
        <path fill="#1C1F45" d="M51.286 221.177a1.53 1.53 0 1 1-.001-3.062 1.53 1.53 0 0 1 .001 3.062"/>
        <path fill="#FFCB30" d="M67.392 220.365h-12.77a.617.617 0 0 1-.617-.616v-.33c0-.34.277-.616.617-.616h12.77c.34 0 .617.276.617.616v.33c0 .34-.277.616-.617.616"/>
        <path fill="#0E4E80" d="M55.588 180.51a1.53 1.53 0 1 1-.002-3.062 1.53 1.53 0 0 1 .002 3.061"/>
        <path fill="#FFCB30" d="M71.642 179.55H58.873a.617.617 0 0 1-.617-.617v-.328c0-.34.277-.617.617-.617h12.77c.34 0 .617.276.617.617v.328c0 .34-.277.617-.618.617"/>
        <path fill="#0E4E80" d="M55.588 184.79a1.53 1.53 0 1 1-.002-3.061 1.53 1.53 0 0 1 .002 3.061"/>
        <path fill="#FFCB30" d="M76.956 184.046H58.873a.617.617 0 0 1-.617-.616v-.329c0-.34.277-.616.617-.616h18.083c.34 0 .617.276.617.616v.33c0 .34-.276.615-.617.615"/>
        <path fill="#0E4E80" d="M55.588 197.304a1.53 1.53 0 1 1-.002-3.062 1.53 1.53 0 0 1 .002 3.062"/>
        <path fill="#FFCB30" d="M81.144 196.538h-22.27a.616.616 0 0 1-.618-.616v-.33c0-.34.277-.616.617-.616h22.271c.341 0 .617.276.617.617v.329c0 .34-.276.616-.617.616"/>
        <path fill="#0E4E80" d="M55.588 201.914a1.53 1.53 0 1 1-.002-3.061 1.53 1.53 0 0 1 .002 3.061"/>
        <path fill="#FFCB30" d="M73.518 201.034H58.873a.616.616 0 0 1-.617-.616v-.329c0-.34.277-.616.617-.616h14.645c.34 0 .617.276.617.616v.33c0 .34-.277.615-.617.615"/>
        <path fill="#0E4E80" d="M59.55 205.88a1.209 1.209 0 1 1 0-2.417 1.209 1.209 0 0 1 0 2.417"/>
        <path fill="#FFCB30" d="M87.146 205.307H62.228a.616.616 0 1 1 0-1.232h24.918a.617.617 0 1 1 0 1.232"/>
        <path fill="#0E4E80" d="M59.55 209.502a1.208 1.208 0 1 1-.002-2.416 1.208 1.208 0 0 1 .001 2.416"/>
        <path fill="#FFCB30" d="M76.956 208.856H62.228a.616.616 0 1 1 0-1.232h14.728a.616.616 0 1 1 0 1.232"/>
        <path fill="#0E4E80" d="M101.073 122.496a1.247 1.247 0 1 1-.001-2.494 1.247 1.247 0 0 1 0 2.494"/>
        <path fill="#F58A07" d="M119.792 122.496H107.29a1.247 1.247 0 1 1 0-2.493h12.503a1.247 1.247 0 1 1 0 2.493"/>
        <path fill="#F9CB4A" d="M150.853 122.496h-24.86a1.247 1.247 0 1 1 0-2.493h24.86a1.247 1.247 0 1 1 0 2.493"/>
        <path fill="#0E4E80" d="M101.073 129.832a1.247 1.247 0 1 1 0-2.495 1.247 1.247 0 0 1 0 2.495"/>
        <path fill="#F8C73D" d="M142.173 129.832h-34.884a1.247 1.247 0 1 1 0-2.493h34.884a1.247 1.247 0 1 1 0 2.493"/>
        <path fill="#146EB4" d="M211.83 129.832h-63.457a1.247 1.247 0 1 1 0-2.493h63.457a1.247 1.247 0 1 1 0 2.493"/>
        <path fill="#0E4E80" d="M101.073 137.167a1.247 1.247 0 1 1-.001-2.494 1.247 1.247 0 0 1 0 2.494"/>
        <path fill="#F8C73D" d="M119.792 137.167H107.29a1.247 1.247 0 1 1 0-2.492h12.503a1.247 1.247 0 1 1 0 2.492"/>
        <path fill="#0E4E80" d="M101.073 144.503a1.247 1.247 0 1 1-.001-2.494 1.247 1.247 0 0 1 0 2.494"/>
        <path fill="#F9CB4A" d="M113.474 144.503h-6.185a1.247 1.247 0 1 1 0-2.493h6.185a1.247 1.247 0 1 1 0 2.493"/>
        <path fill="#FFFFFE" d="M142.173 144.503h-22.499a1.247 1.247 0 1 1 0-2.493h22.499a1.247 1.247 0 1 1 0 2.493"/>
        <path fill="#0E4E80" d="M101.073 151.839a1.247 1.247 0 1 1-.001-2.494 1.247 1.247 0 0 1 0 2.494"/>
        <path fill="#FFFFFE" d="M127.292 151.839h-12.504a1.247 1.247 0 1 1 0-2.493h12.504a1.247 1.247 0 1 1 0 2.493"/>
        <path fill="#0E4E80" d="M164.005 151.839h-30.513a1.247 1.247 0 1 1 0-2.493h30.513a1.247 1.247 0 1 1 0 2.493M101.073 159.175a1.247 1.247 0 1 1-.001-2.494 1.247 1.247 0 0 1 0 2.494"/>
        <path fill="#146EB4" d="M224.718 159.175h-109.93a1.247 1.247 0 1 1 0-2.493h109.93a1.247 1.247 0 1 1 0 2.493"/>
        <path fill="#E88171" d="M244.445 159.175H231.76a1.247 1.247 0 1 1 0-2.493h12.684a1.247 1.247 0 1 1 0 2.493"/>
        <path fill="#F58A07" d="M244.445 158.967H231.76a1.247 1.247 0 1 1 0-2.492h12.684a1.247 1.247 0 1 1 0 2.492"/>
        <path fill="#0E4E80" d="M101.073 166.51a1.247 1.247 0 1 1-.001-2.493 1.247 1.247 0 0 1 0 2.493M275.841 166.51h-152.44a1.247 1.247 0 1 1 0-2.492h152.44a1.247 1.247 0 1 1 0 2.492M101.073 173.846a1.247 1.247 0 1 1 0-2.494 1.247 1.247 0 0 1 0 2.494M214.438 173.846H123.4a1.247 1.247 0 1 1 0-2.493h91.037a1.247 1.247 0 1 1 0 2.493"/>
        <path fill="#305293" d="M244.445 173.846h-23.52a1.247 1.247 0 1 1 0-2.493h23.52a1.247 1.247 0 1 1 0 2.493"/>
        <path fill="#0E4E80" d="M101.073 181.182a1.247 1.247 0 1 1-.001-2.494 1.247 1.247 0 0 1 0 2.494"/>
        <path fill="#F9CB4A" d="M120.906 181.182h-6.118a1.247 1.247 0 1 1 0-2.493h6.118a1.247 1.247 0 1 1 0 2.493"/>
        <path fill="#0E4E80" d="M101.073 188.421a1.247 1.247 0 1 1-.001-2.494 1.247 1.247 0 0 1 0 2.494"/>
        <path fill="#FFFFFE" d="M127.292 188.421h-12.504a1.247 1.247 0 1 1 0-2.492h12.504a1.247 1.247 0 1 1 0 2.492"/>
        <path fill="#0E4E80" d="M164.005 188.421h-30.513a1.247 1.247 0 1 1 0-2.492h30.513a1.247 1.247 0 1 1 0 2.492M101.073 195.757a1.247 1.247 0 1 1 0-2.494 1.247 1.247 0 0 1 0 2.494"/>
        <path fill="#146EB4" d="M224.718 195.757h-109.93a1.247 1.247 0 1 1 0-2.493h109.93a1.247 1.247 0 1 1 0 2.493"/>
        <path fill="#F58A07" d="M244.445 195.757H231.76a1.247 1.247 0 1 1 0-2.493h12.684a1.247 1.247 0 1 1 0 2.493"/>
        <path fill="#F58A07" d="M244.445 195.55H231.76a1.247 1.247 0 1 1 0-2.493h12.684a1.247 1.247 0 1 1 0 2.493"/>
        <path fill="#0E4E80" d="M101.073 203.093a1.247 1.247 0 1 1-.001-2.494 1.247 1.247 0 0 1 0 2.494"/>
        <path fill="#F9CB4A" d="M275.841 203.093h-152.44a1.247 1.247 0 1 1 0-2.493h152.44a1.247 1.247 0 1 1 0 2.493"/>
        <path fill="#0E4E80" d="M101.073 210.429a1.247 1.247 0 1 1-.001-2.494 1.247 1.247 0 0 1 0 2.494M148.82 210.429h-25.419a1.247 1.247 0 1 1 0-2.493h25.42a1.247 1.247 0 1 1 0 2.493"/>
        <path fill="#FFFFFE" d="M214.438 210.429H156.21a1.247 1.247 0 1 1 0-2.493h58.228a1.247 1.247 0 1 1 0 2.493"/>
        <path fill="#305293" d="M244.445 210.429h-23.52a1.247 1.247 0 1 1 0-2.493h23.52a1.247 1.247 0 1 1 0 2.493"/>
        <path fill="#0E4E80" d="M101.073 217.765a1.247 1.247 0 1 1 0-2.495 1.247 1.247 0 0 1 0 2.495"/>
        <path fill="#F58A07" d="M120.906 217.765h-6.118a1.247 1.247 0 1 1 0-2.493h6.118a1.247 1.247 0 1 1 0 2.493"/>
        <path fill="#0E4E80" d="M99.825 223.757a1.247 1.247 0 1 1 2.494.001 1.247 1.247 0 0 1-2.494 0z"/>
        <path fill="#FFFFFE" d="M127.292 225.003h-12.504a1.247 1.247 0 1 1 0-2.492h12.504a1.247 1.247 0 1 1 0 2.492"/>
        <path fill="#0E4E80" d="M164.005 225.003h-30.513a1.247 1.247 0 1 1 0-2.492h30.513a1.247 1.247 0 1 1 0 2.492M101.073 232.34a1.247 1.247 0 1 1 0-2.495 1.247 1.247 0 0 1 0 2.494"/>
        <path fill="#146EB4" d="M224.718 232.34h-109.93a1.247 1.247 0 1 1 0-2.493h109.93a1.247 1.247 0 1 1 0 2.492"/>
        <path fill="#E88171" d="M244.445 232.34H231.76a1.247 1.247 0 1 1 0-2.493h12.684a1.247 1.247 0 1 1 0 2.492"/>
        <path fill="#305293" d="M244.445 232.132H231.76a1.247 1.247 0 1 1 0-2.493h12.684a1.247 1.247 0 1 1 0 2.493"/>
        <path fill="#0E4E80" d="M101.073 239.675a1.247 1.247 0 1 1-.001-2.494 1.247 1.247 0 0 1 0 2.494M275.841 239.675h-152.44a1.247 1.247 0 1 1 0-2.492h152.44a1.247 1.247 0 1 1 0 2.492M101.073 247.01a1.247 1.247 0 1 1-.001-2.493 1.247 1.247 0 0 1 0 2.494"/>
        <path fill="#FFFFFE" d="M214.438 247.01H123.4a1.247 1.247 0 1 1 0-2.492h91.037a1.247 1.247 0 1 1 0 2.493"/>
        <path fill="#F9CB4A" d="M244.445 247.01h-23.52a1.247 1.247 0 1 1 0-2.492h23.52a1.247 1.247 0 1 1 0 2.493"/>
        <path fill="#FFFFFE" d="M275.841 247.01h-23.52a1.247 1.247 0 1 1 0-2.492h23.52a1.247 1.247 0 1 1 0 2.493"/>
        <path fill="#1C1F45" d="M101.073 254.347a1.247 1.247 0 1 1-.001-2.494 1.247 1.247 0 0 1 0 2.494"/>
        <path fill="#E88171" d="M120.906 254.347h-6.118a1.247 1.247 0 1 1 0-2.493h6.118a1.247 1.247 0 1 1 0 2.493"/>
        <path fill="#F0B3BD" d="M265.281 71.635l.824-1.901s-1.933-4.854-.412-6.373c1.52-1.52 5.393-2.309 6.902-1.258 1.753 1.221.887 4.64.887 4.64l.34 2.396c-.268.49-1.036.292-1.036.292s-.107 1.756-1.366 2.204c-1.259.447-1.343.698-1.343 2.124 0 1.425-5.215.955-4.796-2.124"/>
        <path fill="#146EB4" d="M270.575 72.655a5.882 5.882 0 0 1 4.008 6.038l-.815 10.423.776 3.004-13.57 7.736-3.069-6.959c-2.182-4.95-2.31-10.588-.24-15.585.043-.106.088-.21.134-.316 1.18-2.72 2.793-4.685 5.263-5.402a6.184 6.184 0 0 1 3.263-.03l4.25 1.091"/>
        <path fill="#F0B3BD" d="M273.632 81.99l-7.36 1.783s.984 6.488 2.034 8.127c1.049 1.638 18.262-5.584 18.262-5.584l3.585-1.234s-.7-1.454-2.275-1.913c-1.575-.459-3.082 1.154-3.082 1.154l-11.242 1.687.078-4.02"/>
        <path fill="#F0B3BD" d="M266.316 83.803c.081.52 1.03 6.525 2.023 8.075 1.017 1.592 18.042-5.526 18.214-5.598l3.544-1.22c-.126-.235-.836-1.447-2.23-1.853-1.534-.448-3.027 1.127-3.042 1.143l-.01.01-.013.002-11.289 1.693.079-4.015-7.276 1.763zm2.778 8.37c-.423.001-.71-.077-.822-.252-1.042-1.627-2.03-8.077-2.039-8.142l-.006-.036.035-.009 7.41-1.794-.078 4.023 11.183-1.676c.133-.137 1.597-1.598 3.112-1.156 1.573.458 2.292 1.92 2.3 1.934l.019.04-.042.014-3.585 1.234c-.627.263-13.919 5.82-17.487 5.82z"/>
        <path fill="#305293" d="M303.147 105.496l2.222 2.697a.99.99 0 0 0 1.295.206c1.712-1.09 5.868-3.93 7.051-6.52l-1.213-.865s-4.186 2.542-6.02 1.357l-3.335 3.125"/>
        <path fill="#F58A07" d="M260.973 99.856s3.2 4.89 6.48 6.004c3.28 1.114 21.385-11.142 21.385-11.142 2.506 3.1 7.23 6.814 14.23 11.156l3.739-3.503c-5.577-4.706-10.59-9.571-13.997-14.89a2.582 2.582 0 0 0-2.87-.801l-15.652 5.586-13.315 7.59"/>
        <path fill="#0E4E80" d="M274.288 92.266l-13.315 7.59s.671 1.025 1.713 2.244c1.435-1.943 4.953-5.998 11.602-9.834"/>
        <path fill="#E5E6E3" d="M290.969 85.598l-13.866 4.659-.23-.684 13.865-4.658.23.683"/>
        <path fill="#E5E6E3" d="M290.522 85.208l2.798-14.346.709.138-2.799 14.346-.708-.138"/>
        <path fill="#B6B8B5" d="M291.381 85.258a.55.55 0 1 1-1.1 0 .55.55 0 0 1 1.1 0"/>
        <path fill="#1C1F45" d="M273.428 61.623c-1.123-.883-5.24-1.45-7.468.582.046-.041 0 0 0 0 1.916 1.157 4.498 1.55 5.354 1.652h-.081c.111-.003.234.006.37.03 1.094.197 2.034.163 2.034.163s.941-1.522-.21-2.427"/>
        <path fill="#95869E" d="M268.292 68.906s-1.066-1.738 0-2.383 1.403.252 1.403.252.954-.813.729-1.57c-.203-.685.031-1.37.89-1.348-.856-.103-3.438-.495-5.354-1.652a4.993 4.993 0 0 0-.306.281c-2.202 2.2-.062 6.816.388 7.084.45.268 1.857 1.073 2.25-.664"/>
        <path fill="#0F1229" d="M265.838 82.94a.094.094 0 0 1-.093-.083c-.665-5.725 1.094-6.951 1.17-7a.094.094 0 1 1 .103.156c-.018.012-1.735 1.236-1.086 6.822a.094.094 0 0 1-.083.104l-.01.001"/>
        <path fill="#CFCEC9" d="M194.698 295.984c-1.098 0-2.264-.155-3.176-.168l-6.019-.07c-4.512-.052-9.03-.158-13.542-.158-.762-.01-1.706-.135-1.955-.8-.19-.51.187-1.083.697-1.34.51-.26 1.116-.283 1.697-.3 7.471-.227 14.947-.602 22.413-.813.208-.007.44-.017.678-.017.743 0 1.562.086 2.027.61.771.866.279 2.298-.747 2.733-.588.247-1.315.323-2.073.323"/>
        <path fill="#0E4E80" d="M181.347 291.018v3.217h-3.073s.067-.504-.938-.336c-1.005.168-.536.537-2.178.537h-2.631a.485.485 0 0 1-.236-.906c.908-.507 4.035-2.292 4.777-3.346h4.279v.834M195.673 291.018v3.217H192.6s.067-.504-.938-.336c-1.005.168-.536.537-2.178.537h-2.631a.484.484 0 0 1-.236-.906c.908-.507 4.035-2.292 4.777-3.346h4.279v.834"/>
        <path fill="#0E4E80" d="M195.616 253.183l-.989 22.064 2 15.31-6.252-.172s-1.581-15.043-1.581-15.994c0-.951-1.37-16.07-1.37-16.07l8.192-5.138"/>
        <path fill="#146EB4" d="M181.178 249.978s-2.037 12.824-3.388 24.474c-.832 7.167-1.012 14.853-1.462 15.976 0 0 5.049.129 5.774.129l1.687-15.374 5.005-14.01s2.883-.76 5.358-2.377c2.474-1.616 1.185-7.618 1.185-7.618l-14.16-1.2"/>
        <path fill="#E9879A" d="M180.91 232.315l-.08.233s-1.394-.436-1.575-.617c-.18-.18-.51-.547-.51-.547l-.362-.337.725-2.025 1.722 2.454.237.522-.156.317"/>
        <path fill="#F0B3BD" d="M183.701 215.081l-.51 1.176c-.17.393-.193.835-.059 1.242.185.563.385 1.35.156 1.58-.232.231-.798.697-1.187 1.011a.393.393 0 0 0 .016.624l.584.424s-.553 1.514.587 2.058c1.14.545 1.747.9 1.747 1.6 0 .702-.364 2.276-.364 2.276l5.455-.26s-.972-1.859-.972-3.494c0-1.636 1.821-5.451.972-6.904-.848-1.454-5.091-4.845-6.425-1.333"/>
        <path fill="#E5E6E3" d="M190.925 226.454l-.886-1.755-4.866 1.5c-.517.159-.914.573-1.051 1.095l-.198.753 7-1.593M173.395 235.99l7.42-6.18c.163-.136.114-.374-.11-.531l-6.005-4.218c-.224-.157-.539-.175-.702-.038l-7.42 6.18c-.164.136-.115.374.11.531l6.004 4.217c.225.158.539.176.703.04"/>
        <path fill="#0A0B09" d="M172.994 235.444l7.086-5.901-5.671-3.982-7.086 5.9 5.67 3.983"/>
        <path fill="#8B8E8D" d="M170.56 234.103l.075-.063-1.282-.9-.076.063 1.282.9"/>
        <path fill="#F0B3BD" d="M180.887 232.094s-.664-.188-1-.524c-.337-.336-.486-1.72-.486-1.72l-.661-.986a.52.52 0 0 1-.075-.405l.054-.24a.238.238 0 0 1 .428-.081c.41.602 1.12 1.623 1.397 1.9.4.4 1.558.897 1.558.897s-.66 1.378-1.215 1.159"/>
        <path fill="#F58A07" d="M195.865 229.602a5.277 5.277 0 0 0-5.82-3.434l-6.224 1.013a4.341 4.341 0 0 0-3.733 4.65l1.176 14.493-.475 3.515s7.595 2.93 14.548 1.34l.835-12.99c.378-2.348.667-5.854-.307-8.587"/>
        <path fill="#1C1F45" d="M186.088 221.79a.224.224 0 0 1-.222-.264c.141-.771.51-2.988.16-3.337-.423-.423 1.094-1.606 1.094-1.606s-.222-1.496-1.747-1.496c-1.525 0-1.545-.301-1.545-.301s-.84-1.112 1.046-1.915c1.885-.803 5.351 1.662 5.351 1.662s1.803-.194 2.218 1.828c.416 2.022-.776 4.737-1.83 5.54-1.053.804-1.428 1.944-1.428 1.944h-.19a2.454 2.454 0 0 1-2.385-1.875l-.017-.069s2.263-1.191 1.492-2.216c-.77-1.025-1.409-.138-1.409.222 0 .287-.263 1.311-.371 1.717a.224.224 0 0 1-.217.166"/>
        <path fill="#0F1229" d="M183.312 217.729c-.35 0-.636.42-.636.937 0 .516.285.937.636.937.351 0 .637-.42.637-.937 0-.517-.286-.937-.637-.937zm0 2.06c-.454 0-.824-.503-.824-1.123s.37-1.124.824-1.124c.455 0 .824.504.824 1.124 0 .62-.37 1.124-.824 1.124z"/>
        <path fill="#0F1229" d="M186.648 219.225l-.016-.002-2.606-.465a.094.094 0 0 1-.076-.109.094.094 0 0 1 .109-.075l2.606.465c.05.01.085.058.076.109a.094.094 0 0 1-.093.077"/>
        <path fill="#F0B3BD" d="M176.628 237.127s-.481-1.522-.696-1.737c-.214-.214-1.287-.822-1.287-.822l-.786-1.82s-.68.249-.68.57c0 .322 1.002 2.144-.071 2.745l-2.715-1.726s.23 1.106.606 1.482c.375.375 4.362 3.56 4.362 3.56l1.267-2.252"/>
        <path fill="#E5E6E3" d="M177.782 237.34l-.984-.564-1.795 2.602.792.799 1.987-2.836"/>
        <path fill="#F58A07" d="M188.867 230.506s2.868 3.264 3.287 10.63c.419 7.364-2.43 7.113-4.272 7.113-1.843 0-12.23-7.867-12.23-7.867l2.345-3.348 6.701 3.683s-2.847-5.44-2.847-8.788 5.86-3.644 7.016-1.423"/>
        <path fill="#0F1229" d="M189.093 248.56c-.314 0-.619-.038-.897-.086-.772-.135-1.576-.565-2.163-.88-.153-.081-.288-.154-.401-.209a.094.094 0 0 1 .082-.168c.115.056.252.13.407.212.576.309 1.365.731 2.107.86.76.132 1.732.195 2.504-.49 1.078-.96 1.525-3.2 1.328-6.658-.412-7.25-3.235-10.54-3.264-10.573a.094.094 0 0 1 .009-.132.094.094 0 0 1 .132.009c.03.032 2.894 3.372 3.31 10.685.203 3.567-.252 5.794-1.39 6.808-.544.484-1.17.623-1.764.623M184.925 240.948l-3.792-2.084a.093.093 0 0 1-.037-.127.093.093 0 0 1 .127-.037l3.255 1.789c-.485-.974-2.112-4.375-2.587-7.145a.094.094 0 0 1 .184-.03c.553 3.22 2.685 7.318 2.706 7.36l.144.274"/>
        <path fill="#1C1F45" d="M185.428 247.159s-2.433-1.26-4.21-1.4l-.115-1.425 4.325 2.825"/>
        <path fill="#CFCEC9" d="M71.908 290.49c-2.998 0-5.816-.088-7.453-.2-1.438-.102-4.24-.135-7.487-.135-6.494 0-14.767.135-17.453.135-4.03 0-4.627-1.647-4.627-1.647-1.23-1.05 6.143-1.775 10.604-1.775H46.088c1.324 0 3.588-.013 6.31-.026 2.716-.013 5.887-.026 9.034-.026 6.346 0 12.593.052 14.798.263 4.535.435 9.85 1.123 7.45 2.388-1.489.783-6.87 1.024-11.772 1.024"/>
        <path fill="#E5E6E3" d="M38.222 287.079l-.788-.21 6.205-28.58h6.167l4.773 28.602-.799.165-4.638-27.952h-4.88l-6.04 27.975"/>
        <path fill="#A0A2A1" d="M38.8 287.28a1.008 1.008 0 1 1-2.016 0 1.007 1.007 0 0 1 2.016 0M55.187 287.28a1.008 1.008 0 0 1-2.015 0 1.007 1.007 0 0 1 2.015 0"/>
        <path fill="#676867" d="M46.416 287.079l-.788-.21 6.204-28.58H58l4.773 28.602-.799.165-4.638-27.952h-4.88l-6.04 27.975"/>
        <path fill="#676867" d="M46.994 287.28a1.008 1.008 0 0 1-2.016 0 1.007 1.007 0 0 1 2.016 0M63.381 287.28a1.008 1.008 0 0 1-2.015 0 1.007 1.007 0 0 1 2.015 0"/>
        <path fill="#B6B8B5" d="M39.922 239.287h14.371l.54 10.191a11.914 11.914 0 0 0 4.59 8.777l3.605 2.802H45.29l-1.898-1.775a13.785 13.785 0 0 1-4.356-9.426l-.43-9.192a1.316 1.316 0 0 1 1.316-1.377"/>
        <path fill="#E5E6E3" d="M40.183 249.856l-.43-9.192a1.316 1.316 0 0 1 1.316-1.377h-1.147c-.751 0-1.35.628-1.315 1.377l.43 9.192a13.785 13.785 0 0 0 4.355 9.426l1.477 1.464 1.568.311-1.899-1.775a13.786 13.786 0 0 1-4.355-9.426"/>
        <path fill="#FFFEFE" d="M63.573 261.057H45.4a.608.608 0 1 1 0-1.216h18.173a.608.608 0 1 1 0 1.216"/>
        <path fill="#95869E" d="M41.719 288.314h-.507l-.858-42.542h2.223l-.858 42.542"/>
        <path fill="#0E4E80" d="M42.577 245.772h-2.223l.047 2.464 2.158-1.507.018-.957"/>
        <path fill="#95869E" d="M81.951 288.314h-.507l-.858-42.542h2.223l-.858 42.542"/>
        <path fill="#0E4E80" d="M82.81 245.772h-2.224l.048 2.464 2.157-1.507.018-.957"/>
        <path fill="#F0B3BD" d="M64.356 244.528s.572.392 1.898.573c0 0 .814.06.633-.287-.18-.346-.814-.7-.814-.7h.84l.005.01a.958.958 0 0 0 1.786-.691c-.167-.466-.414-.926-.762-1.073-.784-.331-3.041-.223-3.041-.223s-1.148 1.307-.545 2.391"/>
        <path fill="#DF798B" d="M66.918 244.125s-.256-.351-.447-.366c-.192-.015-.933 0-.933 0l.535.355.845.01"/>
        <path fill="#0E4E80" d="M56.364 229.98s2.533 1.435 2.588 2.414c.054.98-1.294 9.138-1.294 9.138l7.608.544s-1.306.706-.816 2.72c0 0-7.404.085-9.2-.475-1.797-.56 1.114-14.341 1.114-14.341"/>
        <path fill="#F0B3BD" d="M34.771 228.95s1.355-2.454.402-3.32c-.953-.865-1.586-.688-1.586-.688s-.489.472.029.732.894.943.352 1.041c-.541.099-1.01.123-1.034-.442-.024-.566 0-1.162 0-1.162s.444.129.653-.29c.209-.417-.158-.959-.664-.983-.506-.025-.949.394-.924.615.023.204-.788-1.007-1.818-1.605a.43.43 0 0 0-.493.047h-.002a.428.428 0 0 0 .053.69c.504.309 1.242.847 1.595 1.526l-.197.178s-1.093-.786-1.72-1.171a.43.43 0 0 0-.6.155l-.037.065a.429.429 0 0 0 .151.576l1.788 1.088-.074.344-1.39-.592a.429.429 0 0 0-.338.788l1.654.714s.563 2.19 1.156 2.767c.592.578 2.715-.373 3.044-1.073"/>
        <path fill="#DF798B" d="M32.934 225.111h-.405l.405 1.162v-1.162M32.53 229.246a.09.09 0 0 1-.09-.084c-.17-2.062 1.494-2.315 1.51-2.317a.09.09 0 0 1 .103.077.09.09 0 0 1-.078.102c-.062.009-1.51.236-1.355 2.123a.09.09 0 0 1-.083.098h-.008"/>
        <path fill="#F0B3BD" d="M66.762 283.565l-1.224-7.06s-2.686-.425-4.687 1.457l2.653 6.608.69-.211v.053l1.753 1.538 1.464-.037.648-.678-1.297-1.67"/>
        <path fill="#146EB4" d="M63.504 284.57s-.312 3.168-.17 3.74c.144.574 6.3.824 8.232 0 1.933-.823-.43-2.252-1.324-2.252-.895 0-2.44-1.488-2.44-1.488s-.369 1.274-1.04.629c-.671-.642-1.944-2.401-3.258-.63"/>
        <path fill="#B36505" d="M57.2 249.403h12.665s3.336.6 0 5.251c-3.336 4.65-7.758 7.286-7.758 7.286s.507-4.03-2.85-3.1l3.393-4.108s-6.981 2.092-9.386 2.17c-2.405.078-2.447-6.939 3.935-7.5"/>
        <path fill="#F58A07" d="M43.416 249.403s.238 5.454 2.089 8.228c1.85 2.774 10.017 8.267 10.017 8.267s4.784 10.051 5.329 12.064c0 0 2.183-1.458 4.687-1.458 0 0-3.756-12.237-4.41-13.217-.652-.979-5.334-8.974-5.334-8.974s1.796-2.425.816-4.91c-.98-2.487-13.194 0-13.194 0"/>
        <path fill="#1C1F45" d="M61.129 263.287c-.14-.208-.462-.736-.883-1.437-.59.844-3.38 4.85-2.25 3.655.925-.978 2.585-1.453 3.404-1.636-.115-.285-.208-.487-.271-.582"/>
        <path fill="#146EB4" d="M48.048 228.616s-4.506.7-5.355 2.31c-.65 1.234 1.587 7.638 2.67 10.569a4.17 4.17 0 0 1-.024 2.955l-1.923 4.953c3.995 1.392 8.616 1.33 13.783 0 0 0-1.757-4.488-1.164-7.115.594-2.628 4.517-4.158 3.222-6.446-1.294-2.288-2.736-3.73-2.482-5 .255-1.272-2.8-1.74-4.326-2.226-1.527-.487-4.4 0-4.4 0"/>
        <path fill="#0E4E80" d="M56.496 246.243l-11.68-.446-.459 1.182 12.139-.736"/>
        <path fill="#305293" d="M46.976 228.98s-1.136 1.684 2.734 2.073c3.872.39 4.075-1.792 4.075-1.792s-.086-.906-1.443-1.153c-1.636-.297-3.155.227-3.588.07-.432-.158-1.462.222-1.778.801"/>
        <path fill="#1C1F45" d="M47.575 217.883s-2.069-2.39-4.137-1.098c-2.07 1.292-.518 4.65-2.522 5.49 0 0 2.586 2.196 5.043-.905 2.456-3.1 1.616-3.487 1.616-3.487"/>
        <path fill="#1C1F45" d="M48.658 221.286s2.473.552 4.707.233a1.299 1.299 0 0 0 1.108-1.387c-.089-1.17-.63-2.893-2.93-3.507-3.612-.963-4.938 1.506-4.938 1.506s-3.165 4.336.286 6.925c3.451 2.59 1.767-3.77 1.767-3.77"/>
        <path fill="#F0B3BD" d="M53.785 221.09s.209 2.507-.335 3.625c-.544 1.118-1.587.942-1.537 1.857.037.662.394 1.485.588 1.888a.85.85 0 0 1-.095.9c-.24.299-.739.593-1.764.617-.684.016-1.2-.045-1.588-.137a.836.836 0 0 1-.527-1.249c.43-.698.855-1.753.13-2.477-1.169-1.169-2.135-2.083-1.627-2.896.509-.813 1.272-.204 1.272-.204l.356-1.728s4.705.25 5.127-.197"/>
        <path fill="#146EB4" d="M42.693 230.926s-2.511 3.95-3.121 6.653c-.61 2.702-4.594-8.86-4.594-8.86s-1.277 1.695-3.531 1.26c0 0 3.381 10.377 6.612 13.755 3.231 3.38 7.966-8.933 7.966-8.933s-.877-4.747-3.332-3.875"/>
        <path fill="#305293" d="M34.978 228.72s-1.277 1.694-3.531 1.26c0 0 .265.813.718 2.06 1.902-.132 2.968-.688 3.563-1.238-.449-1.21-.75-2.082-.75-2.082"/>
        <path fill="#F0B3BD" d="M59.257 258.84l-3.666 4.185 2.405 2.48 4.111-3.565s.894-4.186-2.85-3.1"/>
        <path fill="#F0B3BD" d="M55.59 263.025s-4.193 1.903-3.33 3.174c.864 1.272 4.948 4.905 6.997 3.77 2.05-1.135-1.253-2.16-1.261-4.464-.008-2.303-2.195-2.58-2.405-2.48"/>
        <path fill="#146EB4" d="M56.764 265.73c-.57-.371 0-.767-.595-1.535-.594-.766-2.264-.254-2.271-.253-1.05.66-2.114 1.555-1.638 2.257.864 1.272 4.948 4.905 6.997 3.77 1.886-1.045-.76-1.996-1.2-3.935-.271.003-.866-.025-1.293-.303"/>
        <path fill="#305293" d="M56.838 269.074c-1.264-.421-3.743-2.823-4.239-3.17-.232-.163-.372-.13-.455-.048a.649.649 0 0 0 .116.343c.77 1.135 4.104 4.149 6.27 3.98.43-.468-.434-.686-1.692-1.105"/>
        <path fill="#0F1229" d="M44.508 238.323l-.033-.006a.108.108 0 0 1-.07-.135c.014-.045 1.424-4.555-.349-7.03a.108.108 0 1 1 .176-.125c1.836 2.563.439 7.032.379 7.22a.108.108 0 0 1-.103.076"/>
        <path fill="#95869E" d="M86.188 246.243h-48.14a.471.471 0 1 1 0-.943h48.14a.472.472 0 1 1 0 .943"/>
        <path fill="#CDCECA" d="M63.818 245.3h15.574a.73.73 0 0 0 .732-.73H63.086c0 .403.328.73.732.73"/>
        <path fill="#E5E6E3" d="M65.822 245.3H82.95a.731.731 0 0 0 .731-.73H66.683c-.142.322-.312.73-.86.73"/>
        <path fill="#B6B8B5" d="M68.645 245.103h.642a.144.144 0 1 0 0-.29h-.642a.145.145 0 0 0 0 .29M67.973 244.959a.144.144 0 1 0 .288 0 .144.144 0 0 0-.288 0"/>
        <path fill="#FFFFFE" d="M87.135 234.998H72.022c-.478 0-.913.274-1.12.704l-4.259 8.867H83.68l4.103-8.542a.718.718 0 0 0-.648-1.029"/>
        <path fill="#E5E6E3" d="M72.047 234.998h-.453a1.24 1.24 0 0 0-1.119.704l-4.26 8.867h.453l4.26-8.867a1.24 1.24 0 0 1 1.119-.704"/>
        <path fill="#0E4E80" d="M290.423 279.158c-1.378.272-1.401 2.243-.03 2.55 1.463.33 4.016.649 8.366.606 8.652-.086 25.32-.685 26.967-.428 1.645.257 15.95.602 16.378.431.429-.174 1.619-1.714-1.374-2.228-2.993-.514-5.65-.673-7.192-.935-1.54-.263-28.783-.349-30.581-.349-1.8 0-11.65.183-12.508.349l-.026.004M329.055 249.639h-6.935v-1.331c0-.36.294-.652.653-.652h5.63c.359 0 .652.292.652.652v1.331"/>
        <path fill="#D0CEDD" d="M322.12 249.639h6.935v-.992h-6.935z"/>
        <path fill="#0E4E80" d="M324.889 247.656h.837v-8.135h-.837z"/>
        <path fill="#CACBCC" d="M336.01 240.468h-21.438a1.326 1.326 0 0 1-1.328-1.325v-13.306c0-.732.593-1.327 1.328-1.327h21.438c.735 0 1.328.595 1.328 1.327v13.306c0 .732-.593 1.325-1.328 1.325"/>
        <path fill="#146EB4" d="M335.015 240.468h-21.442a1.326 1.326 0 0 1-1.325-1.325v-13.306c0-.732.594-1.327 1.325-1.327h21.442c.731 0 1.325.595 1.325 1.327v13.306c0 .732-.594 1.325-1.325 1.325"/>
        <path fill="#F7F9FA" d="M334.659 239.92h-20.73a.993.993 0 0 1-.992-.993v-12.83c0-.548.445-.992.992-.992h20.73a.99.99 0 0 1 .992.993v12.829a.99.99 0 0 1-.992.992"/>
        <path fill="#CACBCC" d="M329.428 235.137H319.21a.667.667 0 0 1-.666-.665v-4.84c0-.366.3-.664.666-.664h10.218c.366 0 .662.298.662.665v4.839a.664.664 0 0 1-.662.665"/>
        <path fill="#FBFAF8" d="M327.163 231.749h-5.689a.643.643 0 0 1-.643-.644c0-.357.287-.645.643-.645h5.69c.355 0 .642.288.642.644a.643.643 0 0 1-.643.645M327.163 233.645h-5.689a.643.643 0 0 1-.643-.645c0-.356.287-.644.643-.644h5.69c.355 0 .642.288.642.644a.643.643 0 0 1-.643.645"/>
        <path fill="#0E4E80" d="M326.35 243.589a1.043 1.043 0 1 1-2.086-.003 1.043 1.043 0 0 1 2.085.003"/>
        <path fill="#FFF" d="M325.914 243.589a.607.607 0 0 1-1.213 0 .607.607 0 0 1 1.213 0"/>
        <path fill="#E6E7E8" d="M306.49 279.722h9.658v-29.016h-9.657z"/>
        <path fill="#D0CEDD" d="M306.49 279.722h1.3v-29.016h-1.3z"/>
        <path fill="#146EB4" d="M306.49 251.643h1.3l8.358-.937h-9.657v.937"/>
        <path fill="#E5E6E3" d="M324.025 249.639h-9.924c0-.532.432-.964.966-.964h7.993c.534 0 .965.432.965.964"/>
        <path fill="#145F9A" d="M329.21 274.398l1.54 3.276 9.98-4.687a1.936 1.936 0 0 0-2.284-1.036c-1.622.466-4.331.738-7.024-1.242l-2.212 3.689"/>
        <path fill="#0E4E80" d="M298.288 262.342l17.247 4.207 14.123 8.485c1.566-1.239 2.367-2.828 2.601-4.675l-14.384-10.735-16.76-3.377-2.827 6.095"/>
        <path fill="#E6E7E8" d="M326.379 279.722h9.657v-29.016h-9.657z"/>
        <path fill="#D0CEDD" d="M326.379 279.722h1.298v-29.016h-1.298z"/>
        <path fill="#146EB4" d="M326.379 251.643h1.298l8.36-.937h-9.658v.937"/>
        <path fill="#0E4E80" d="M305.286 250.706h32.672v-1.067h-32.672z"/>
        <path fill="#0E4E80" d="M324.86 250.706h13.098v-1.067h-13.099z"/>
        <path fill="#145F9A" d="M325.696 277.43v3.62h11.026c0-.948-.689-1.757-1.625-1.908-1.668-.269-4.236-1.173-5.828-4.108l-3.573 2.396"/>
        <path fill="#146EB4" d="M303.332 252.482l-12.536.004.336 3.061c.227 2.07 1.31 3.962 3.012 5.164 1.403.991 3.289 1.833 5.52 1.64 4.997-.433 17.126-2.597 17.126-2.597l7.542 17.92c2.284-.292 4.347-1.093 6.065-2.684l-8.313-20.372a3.437 3.437 0 0 0-3.18-2.136h-15.572"/>
        <path fill="#F0B3BD" d="M306.125 221.45l.745 1.896a.42.42 0 0 1-.267.554l-.8.247s.007 2.279-1.307 2.54c-1.314.261-1.963-.945-2.784 2.018l-5.543-2.18s2.687-.672 2.361-2.701c-.325-2.03-.214-6.047 3.356-6.546 3.57-.498 4.163 1.29 4.24 4.172"/>
        <path fill="#1C1F45" d="M300.91 221.244s-.782-.722-1.24-.013c-.457.71-.83 1.807.61 2.67l-1.9.438s-1.226-1.386-1.289-4.692c-.063-3.306 1.615-4.72 3.647-4.752 2.032-.03 4.194-1.907 6.02.233 1.828 2.14-.151 3.851-1.454 3.695-1.302-.156-3.449-.052-3.449-.052l.2.712c.13.461-.104.934-.534 1.146-.208.102-.425.288-.61.615"/>
        <path fill="#0F1229" d="M304.456 220.964l-4-.166.012-.256 3.999.167-.011.255"/>
        <path fill="#0F1229" d="M305.311 219.861c-.33 0-.616.389-.64.88-.013.252.044.49.16.671.107.168.252.264.408.272.35.013.638-.377.663-.88a1.142 1.142 0 0 0-.16-.67c-.107-.167-.253-.264-.41-.272h-.02zm-.05 2.08l-.035-.001c-.24-.013-.458-.151-.611-.39a1.402 1.402 0 0 1-.2-.821c.033-.643.453-1.148.93-1.122.242.012.459.15.612.39.145.225.216.516.2.82-.031.629-.43 1.124-.897 1.124z"/>
        <path fill="#305293" d="M296.683 226.716l.638-1.486s4.942.955 5.527 2.76l-6.165-1.274"/>
        <path fill="#146EB4" d="M289.99 237.376s-.274-10.843 7.1-11.214l10.228 2.697a2.375 2.375 0 0 1 1.753 2.394l-.438 10.435h-2.243l-.568 11.116c-5.075 1.42-10.085 1.353-15.026-.318l-.807-15.11"/>
        <path fill="#F0B3BD" d="M308.613 241.673s-2.914-1.402-5.83-.225l-.508 6.113a1.92 1.92 0 0 0 2.009 2.076l12.747-.622s.284.336 1.628.224c1.348-.112 1.965-1.177 1.965-1.177l1.051 1.142c.145.159.37.223.577.165a.574.574 0 0 0 .36-.817c-.449-.87-1.286-2.351-1.876-2.508-.84-.224-1.404.617-1.404.617s-.168-.841-.617-.897c-.448-.056-1.064.953-1.064.953s-.112-.841-.449-.897c-.339-.056-.955.953-.955.953l-8.135-.953.5-4.147"/>
        <path fill="#0F1229" d="M302.462 240.495h-.009a.107.107 0 0 1-.099-.116l.386-5.25c.003-.037.292-3.756 3.028-5.336a.107.107 0 0 1 .148.04.108.108 0 0 1-.04.147c-2.635 1.521-2.918 5.128-2.92 5.164l-.387 5.251a.108.108 0 0 1-.107.1"/>
        <path fill="#E5E6E3" d="M326.35 249.639s-.057-1.614 2.072-1.614c2.13 0 2.34 1.314 2.34 1.614 0 0-4.505-.091-4.413 0"/>
        <path fill="#0E4E80" d="M295.325 253.569c.841.113 1.61.19 2.27.213-3-2.356-5.299-9.912-7.564-17.71-.054.797-.042 1.304-.042 1.304l.807 15.11.336 3.061c.227 2.07 1.31 3.962 3.012 5.164 1.403.991 3.289 1.833 5.52 1.64 1.205-.105 2.826-.31 4.59-.561-7.073.439-8.93-8.221-8.93-8.221"/>
        <path fill="#1C1F45" d="M305.78 261.567c.388-.058.78-.117 1.171-.178-.331.018-.72.076-1.171.178"/>
        <path fill="#0E4E80" d="M300.055 278.379h1.065v-15.22h-1.065z"/>
        <path fill="#F58A07" d="M311.583 262.16H299.97a11.372 11.372 0 0 1-6.343-7.475l-5.617-21.295a1.306 1.306 0 0 0-1.263-.973h-3.897a1 1 0 0 0-1.22 1.222l5.618 21.3a12.392 12.392 0 0 0 11.976 9.22h12.359a.998.998 0 0 0 .998-1c0-.551-.445-1-.998-1M295.325 280.998c3.485-1.384 6.97-1.384 10.455 0v-2.62c-3.027-1.168-6.317-1.663-10.455 0v2.62"/>
        <path fill="#E9879A" d="M311.583 262.16H299.97s1.511.558 3.77.907c2.259.349 8.841.093 8.841.093 0-.552-.445-1-.998-1"/>
        <path fill="#CFCEC9" d="M168.74 105.733h-1.367c.24-.027.48-.043.72-.043.216 0 .432.014.646.043m-39.832 0h-8.247c.735-.654 1.769-.976 2.768-1.014a6.17 6.17 0 0 1 .247-.005c1.176 0 2.333.312 3.476.6.585.145 1.17.285 1.756.42"/>
        <path fill="#BBBBC0" d="M150.897 122.881a1.61 1.61 0 0 1-1.037-.385h.993a1.247 1.247 0 1 0 0-2.493h-2.09a7.989 7.989 0 0 0-.198-.63c-.604-1.637-2.29-2.812-4.037-2.812h-.002c-1.235 0-2.442.587-3.254 1.509-.428.487-.6 1.273-.871 1.933h-2.736c-.34-1.452-.081-3.746-.19-4.65h19.417c-.165.975-.752 1.838-1.323 2.656l-2.025 2.903c-.65.932-1.607 1.97-2.647 1.97"/>
        <path fill="#CFA731" d="M156.892 115.354h-19.417a1.258 1.258 0 0 0-.045-.229c-.58-1.794-2.616-2.711-4.496-2.877-.338-.03-.676-.043-1.015-.043-1.607 0-3.216.289-4.826.4-.362.026-.729.04-1.096.04-1.61 0-3.233-.282-4.526-1.209-1.587-1.137-2.41-3.504-1.32-5.123.145-.217.317-.41.509-.58h8.247a86.013 86.013 0 0 0 19.098 2.142 85.77 85.77 0 0 0 17.709-1.842c.547-.116 1.103-.237 1.659-.3h1.366a4.2 4.2 0 0 1 .228.039c1.075.213 2.116 1.03 2.207 2.12.09 1.055-.737 2.01-1.706 2.436-.969.427-2.06.448-3.118.498a46.59 46.59 0 0 0-11.037 1.87c1.067.137 1.711 1.36 1.609 2.429a3.3 3.3 0 0 1-.03.229"/>
        <path fill="#CFAA3C" d="M150.853 122.496h-.993c-.646-.549-.837-1.562-1.097-2.493h2.09a1.247 1.247 0 1 1 0 2.493m-12.062-1.225c-.62 0-.952-.523-1.126-1.268h2.736c-.186.455-.418.85-.812 1.045-.308.153-.572.223-.798.223"/>
        <path fill="#0E4E80" d="M131.755 99.149l30.045-1.31-1.858 6.784-17.493 7.33-11.141-4.962.447-7.842"/>
        <path fill="#E1604E" d="M134.96 96.277l.261 5.335h22.958l.578-11.17-23.796 5.835"/>
        <path fill="#F58A07" d="M142.343 75.558s-9.804 1.986-11.607 3.465c-1.803 1.479-3.589 19.624-2.98 20.462.61.837 37.3 1.692 38.145.123.846-1.57-3.866-20.361-5.134-21.303-1.269-.941-15.317-2.958-18.424-2.747"/>
        <path fill="#0F1229" d="M158.18 94.757h-.009a.108.108 0 0 1-.098-.117c.3-3.457.003-13.192 0-13.29a.107.107 0 0 1 .104-.111c.059-.006.11.045.111.104.004.098.3 9.846 0 13.316a.107.107 0 0 1-.107.098M133.96 94.403l-.013-.001a.108.108 0 0 1-.095-.12c.468-4.091-.376-12.497-.384-12.582a.108.108 0 0 1 .096-.118c.057-.009.112.037.118.096.009.085.854 8.514.384 12.63a.108.108 0 0 1-.107.095"/>
        <path fill="#F0B3BD" d="M137.365 98.73l-.464-1.87a.25.25 0 0 1 .169-.297l.633-.197a.25.25 0 0 0 .172-.193l.108-.58a.25.25 0 0 1 .245-.204h.519a.249.249 0 0 0 .211-.117l.316-.505a.25.25 0 0 1 .34-.083l.6.356a.25.25 0 0 0 .249.002l.352-.196a.25.25 0 0 1 .33.08l1.262 1.905a.25.25 0 0 1-.078.351l-.28.17a.25.25 0 0 1-.317-.047c-.165-.187-.472-.043-.433.204l.013.083a.25.25 0 0 1-.137.261l-2.475 1.221-.05.019c-.156.038-.916.198-1.251-.283l-.034-.08M154.806 98.73l.463-1.87a.25.25 0 0 0-.169-.297l-.633-.197a.25.25 0 0 1-.172-.193l-.108-.58a.25.25 0 0 0-.245-.204h-.519a.249.249 0 0 1-.211-.117l-.316-.505a.25.25 0 0 0-.34-.083l-.6.356a.25.25 0 0 1-.249.002l-.352-.196a.25.25 0 0 0-.33.08l-1.262 1.905a.25.25 0 0 0 .078.351l.28.17a.25.25 0 0 0 .317-.047c.165-.187.472-.043.434.204l-.014.083a.249.249 0 0 0 .137.261l2.475 1.221.05.019c.156.038.916.198 1.251-.283l.035-.08"/>
        <path fill="#0F1229" d="M136.894 96.222h-.016l-5.869-.864a.108.108 0 0 1-.091-.123.111.111 0 0 1 .123-.091l5.869.864a.108.108 0 0 1-.016.214M155.793 96.533a.108.108 0 0 1-.019-.214l4.772-.85a.108.108 0 1 1 .037.212l-4.771.85-.02.002"/>
        <path fill="#F0B3BD" d="M140.777 71.359s-.824 7.075 4.219 7.075c4.587 0 4.427-6.087 4.427-6.087s.46-3.767-3.097-4.194c-3.557-.426-5.764 1.934-5.55 3.206"/>
        <path fill="#1C1F45" d="M148.203 69.038s-1.12 2.193.015 3.307c.725.71 1.045 1.736.813 2.724l-.012.053s1.904-1.507 2.257-4.563c.352-3.056-1.035-4.979-2.21-4.762 0 0-.468-2.347-3.453-2.128-2.984.22-5.448-.022-6.529 2.342-1.08 2.363.804 4.433.804 4.433s.147 2.502 1.165 4.679l-.397-2.922s3.28-4.401 7.547-3.163"/>
        <path fill="#F0B3BD" d="M149.367 72.726l-.348 2.396s1.695-.9 1.668-2.119c-.01-.407-.15-.631-.335-.75-.393-.253-.918.01-.985.473M140.786 72.037l.294 3.085s-1.63-.944-1.602-2.163c.027-1.22 1.308-.922 1.308-.922"/>
        <path fill="#E5E6E3" d="M154.129 88.568h-16.983c-.747 0-1.352.604-1.352 1.35v11.198c0 .746.605 1.351 1.352 1.351h16.983c.746 0 1.351-.605 1.351-1.35V89.917c0-.746-.605-1.35-1.351-1.35"/>
        <path fill="#6D6374" d="M155.153 103.121h-19.032a.327.327 0 1 1 0-.654h19.032a.327.327 0 1 1 0 .654"/>
        <path fill="#95869E" d="M152.32 102.77a.14.14 0 1 1-.278 0 .14.14 0 0 1 .279 0M150.579 102.909h1.126v-.279h-1.126z"/>
        <path fill="#146EB4" d="M125.435 94.603l26.078 15.819c-2.1 1.703-3.268 3.928-3.738 6.545l-27.164-13.668a4.972 4.972 0 0 1-1.802-7.35 4.982 4.982 0 0 1 6.626-1.346"/>
        <path fill="#1C1F45" d="M143.971 112.823l-1.655 1.397 3.275 1.648c.98-.843 2.891-2.469 3.176-2.577.385-.147-4.796-.468-4.796-.468"/>
        <path fill="#0E4E80" d="M151.513 110.422l4.343 2.445a.67.67 0 0 1 .252.916c-1.146 1.996-4.967 8.448-6.987 9.325 0 0-1.63-.523-1.006-2.653.625-2.13-.215-4.1-.215-4.1s.142-4.964 3.613-5.933"/>
        <path fill="#146EB4" d="M149.121 123.108c2.02-.877 5.841-7.329 6.987-9.325a.669.669 0 0 0-.077-.773c-.776.46-4.136 2.791-6.91 10.098M165.201 96.39l-27.553 13.086c1.915 1.908 2.851 4.24 3.052 6.891l28.415-10.837c2.86-1.09 4.067-4.478 2.54-7.129a4.982 4.982 0 0 0-6.454-2.012"/>
        <path fill="#0E4E80" d="M137.648 109.476l-4.57 1.991a.669.669 0 0 0-.343.886c.936 2.103 4.081 8.909 6.001 9.987 0 0 1.675-.355 1.27-2.537-.404-2.182.633-4.057.633-4.057s.364-4.953-2.99-6.27"/>
        <path fill="#146EB4" d="M138.736 122.34c-1.92-1.078-5.065-7.884-6.001-9.987a.67.67 0 0 1 .154-.76c.726.535 3.832 3.196 5.847 10.747"/>
        <path fill="#E1604E" d="M127.803 94.815c-.195 2.53-.233 4.413-.046 4.67.171.235 3.194.472 7.471.656l-7.425-5.326M155.318 100.465c5.804-.067 10.294-.32 10.583-.857.207-.384.081-1.801-.246-3.736l-10.337 4.593"/>
        <path fill="#0F1229" d="M138.704 109.083a.108.108 0 0 1-.047-.206l4.943-2.347a.108.108 0 0 1 .093.195l-4.943 2.347-.046.01"/>
        <path fill="#F58A07" d="M217.574 52.255l6.649-2.523-2.38-12.742 3.438-.457s4.517 13.672 4.438 14.54c-.08.867-9.154 7.095-9.154 7.095l-2.991-5.913"/>
        <path fill="#0E4E80" d="M193.786 95.434l-3.629-1.585a.736.736 0 0 0-.972.568l-.275 1.613.779.82-.968.295-1.07 6.28.742.585s1.659-4.285 4.217-4.928l1.176-3.648M232.981 101.09l.905 3.852a.736.736 0 0 0 1.038.437l1.457-.746.19-1.115.817.598 5.673-2.907.023-.944s-4.427 1.24-6.475-.42l-3.628 1.245"/>
        <path fill="#0E4E80" d="M217.574 73.375l1.218 1.454a5.046 5.046 0 0 0 1.791 1.358c3.286 1.486 10.7 5.821 11.317 6.366.741.654 5.623 17.39 5.623 17.39-.778.56-2.804 1.152-4.712 1.741 0 0-5.884-9.567-6.895-14.506l-12.945-4.196-2.46-7.435 7.063-2.172"/>
        <path fill="#146EB4" d="M210.419 100.316s-8.67 1.605-17.767-.585c-.829-1.853.053-3.136 1.381-4.652 7.569 1.8 12.716-.362 12.716-.362.136-1.12-.018-4.308-.188-5.358-.88-5.395-2.472-9.403-.033-14.682.363-.787.269-.539.574-1.206 2.752-.56 8.461-.102 11.575.213 0 0-.197 8.06-4.06 10.136 0 0 .37 13.268-4.198 16.496"/>
        <path fill="#F58A07" d="M206.935 52.845l11.273-.625 2.142.204s1.191 3.993.379 8.267c-.915 4.813-1.254 10.292-1.352 12.25a.783.783 0 0 1-.782.743h-11.836a.503.503 0 0 1-.494-.411l-2.731-14.867c-.157-1.048-.337-5.56 3.401-5.56"/>
        <path fill="#F0B3BD" d="M214.596 42.518s.938 1.032.938 2.578c0 1.546.61 2.062.61 3.046s-1.173 1.687-1.83 2.343c-.656.657-.134 1.928-.134 1.928a2.79 2.79 0 0 1-3.517.384l-.382-.25s.375-1.359 0-2.342c-.376-.985-2.205-3.328-1.595-5.156.61-1.828 3.494-4.944 5.91-2.53"/>
        <path fill="#1C1F45" d="M210.796 46.877s-.609.01-.609.965c0 .956.75 1.331.985 1.331s-.891 1.032-.891 1.032-2.205 1.218-2.58 0c-.376-1.22.563-1.393.563-1.393s-1.947-1.115-1.126-1.935c.82-.82.844-.61.656-1.594-.188-.984-.029-3.14 1.276-3.14 0 0-.103-1.5 1.586-1.828 1.688-.328 2.486.516 2.486.516s.891-1.136 1.83-.591c.938.544 1.172 1.013 1.172 1.013s.68-.351 1.22.187c.54.54.14 2.953-2.393 2.719-2.532-.235-2.618-.703-2.618-.703s1.003 1.187.226 1.963c-.776.776-1.266 1.411-1.266 1.692 0 .282-.517-.234-.517-.234"/>
        <path fill="#F0B3BD" d="M222.342 37.809s-.41-.873-.41-1.562l3.347-.536-.13 1.746s-2.694.623-2.807.352"/>
        <path fill="#F0B3BD" d="M225.48 31.944l-.214 3.942-3.333.412s-.371-.826-.896-1.35c-.524-.525-.221-1.09-.221-1.09s.514-.422.715.132c.203.554.203.867.596.816.393-.05.333-2.285.333-2.285l3.02-.577"/>
        <path fill="#F0B3BD" d="M225.48 31.886s0 1.327-.715 1.506c0 0-.348.122-.267-.29.08-.414.171-.746.171-1.018 0-.273.685-.748.811-.198"/>
        <path fill="#F0B3BD" d="M224.745 31.983s0 1.395-.753 1.583c0 0-.366.129-.28-.306.084-.434.18-.783.18-1.07 0-.285.719-.785.853-.207"/>
        <path fill="#F0B3BD" d="M223.948 32.074s0 1.394-.753 1.582c0 0-.366.13-.28-.305.084-.434.18-.784.18-1.07 0-.286.719-.786.853-.207"/>
        <path fill="#F0B3BD" d="M223.11 32.306s0 1.394-.752 1.582c0 0-.366.13-.281-.305.085-.434.18-.784.18-1.07 0-.286.72-.786.853-.207"/>
        <path fill="#FFC53A" d="M228.641 22.532c.33 7.738-5.681 14.278-13.427 14.607-7.745.33-14.29-5.677-14.62-13.415-.33-7.738 5.682-14.278 13.427-14.607 7.745-.329 14.29 5.677 14.62 13.415"/>
        <path fill="#0F1229" d="M211.439 74.672h-4.703a.101.101 0 1 1 0-.201h4.703a.101.101 0 1 1 0 .201"/>
        <path fill="#E5E6E3" d="M214.618 74.78c0 .41-.465.74-1.038.74s-1.038-.33-1.038-.74c0-.407.465-.738 1.038-.738s1.038.33 1.038.739"/>
        <path fill="#0F1229" d="M218.238 74.76h-2.87a.1.1 0 0 1 0-.201h2.87a.101.101 0 1 1 0 .202"/>
        <path fill="#F0B3BD" d="M205.37 38.045l-2.971-1.123.504-3.315a.7.7 0 0 1 .157-.405l1.955-2.498a.339.339 0 0 1 .542.405l-1.23 1.787a.076.076 0 0 0 .013.1l.1.087c.035.03.087.024.113-.012l.983-1.599 1.01-1.199c.097-.136.422-.229.549-.12 0 0 .305.272-.04.65l-.75.96-1.037 1.713a.076.076 0 0 0 .126.084l1.297-1.777a.376.376 0 0 1 .61.436l-1.134 1.619.006.094.032.036a.076.076 0 0 0 .117-.005l.976-1.277a.29.29 0 0 1 .483.316l-.936 1.668-.206 1.207a2.622 2.622 0 0 1-.44 1.066l-.828 1.102"/>
        <path fill="#F58A07" d="M203.534 58.406s-5.696-1.894-7.748-3.234c-2.051-1.34 6.313-18.64 6.313-18.64l3.7 1.458-4.016 13.792 8.126.898-6.375 5.726"/>
        <path fill="#0F1229" d="M210.88 59.352h-4.144a.101.101 0 1 1 0-.202h4.145a.101.101 0 1 1 0 .202"/>
        <path fill="#0E4E80" d="M237.555 284.398c-.693 1.156-1.297 2.365-1.9 3.573.17.086.341.175.512.264.442-.708.884-1.42 1.326-2.13a9.94 9.94 0 0 0-.421 1.725c-.035.234-.062.477.013.701.12.36.467.586.791.78a97.23 97.23 0 0 0 3.195 1.838 16.654 16.654 0 0 1-.474-6.168c.086-.793-.222-1.696-1.137-1.877-.862-.171-1.519.652-1.905 1.294"/>
        <path fill="#F0B3BD" d="M239.25 283.483a.263.263 0 0 0 .105.326l.686.431c.059.037.125.073.192.06.058-.01.102-.056.142-.1a41.008 41.008 0 0 0 2.822-3.436c-.184.207-1.862-1.099-2.57-.422-.353.338-.483.912-.653 1.35-.233.599-.474 1.195-.724 1.791"/>
        <path fill="#F0B3BD" d="M239.227 287.8c.343.448.79.876 1.352.942l.03.003a16.908 16.908 0 0 1-.012-3.764c.047-.431-.024-.892-.245-1.258a.725.725 0 0 0-.387-.184c-.192-.026-.417.036-.562-.092l-.16.069c-.393.642-.798 1.32-.84 2.071-.045.804.335 1.574.824 2.213"/>
        <path fill="#0E4E80" d="M246.923 253.97s4.415 13.463 4.578 14.77c.163 1.305-9.066 14.117-9.066 14.117l-3.166-2.123s6.007-11.75 5.24-13.382c-.767-1.632-5.523-9.466-5.523-9.466l1.84-11.57 6.097 7.654M234.36 230.384s2.382-1.898 5.43-1.91c1.462-.005 4.048.157 6.343.328 2.92.217 5.763-1 7.618-3.262l3.946-4.815 2.806 1.098s-1.913 10.271-10.416 12.568c-5.474 1.48-14.927 2.908-14.927 2.908s-3.488-1.089-.8-6.915"/>
        <path fill="#F0B3BD" d="M259.722 222.25c.465-.17.867-.476 1.25-.79.644-.528 1.28-1.124 1.545-1.92a.313.313 0 0 0-.03-.271c-.08-.12-.203-.103-.298-.053-.179.094-.274.29-.395.453-.121.162-.323.309-.513.239l.67-.885c.124-.163.253-.335.248-.551a.34.34 0 0 0-.196-.31c-.26-.11-.497.193-.673.419a1.942 1.942 0 0 1-.75.582l1.128-1.491a.643.643 0 0 0 .133-.451c-.035-.324-.324-.388-.55-.32-.522.153-.857 1.028-1.293 1.503-.071.078-.194-.011-.142-.103l.533-.939c.181-.367-.342-.68-.57-.34l-.006.009c-.192.295-.563 1.1-.689 1.428-.126.328-.37.658-.72.698-.325.036-.614-.187-.916-.315-.301-.128-.751-.096-.836.22-.17.633.865.629 1.124.965.231.299.063.59.005.919-.206 1.161.951 1.667 1.941 1.304"/>
        <path fill="#C86C7C" d="M259.384 221.284h-.005l-.044-.055a3.105 3.105 0 0 0-.039-.942 1.572 1.572 0 0 0-.23-.603.801.801 0 0 0-.504-.348l-.04-.058.057-.04c.217.037.424.18.57.39.113.167.192.37.245.64a3.2 3.2 0 0 1 .04.972l-.05.044M261.348 220.195l-.034-.013a5.383 5.383 0 0 0-1.675-1.082l-.027-.065.064-.027a5.495 5.495 0 0 1 1.707 1.102l.002.07-.037.015"/>
        <path fill="#CFCEC9" d="M238.615 295.325c-1.292 0-2.577-.092-3.856-.264-.13-.003-.26-.003-.392-.003h-.293c-.69.01-1.381.05-2.071.05-.223 0-.445-.004-.667-.014-.957-.089-1.826-.609-2.42-1.366l.323-.751c.88-1.357 2.531-1.706 3.913-2.315.234-.066.466-.119.697-.168.23-.046.458-.089.684-.125a18.555 18.555 0 0 1 1.85-.194c.06-.004.118-.004.177-.004a8.598 8.598 0 0 1 1.674.168c.286.023.572.053.858.092a9.397 9.397 0 0 0 1.222.297c.252.141.504.283.757.421a15.29 15.29 0 0 1-.075-.286c2.102.398 6.125-.379 5.466 2.667-.174.695-1.39.695-2.17 1.09-.3.096-.602.185-.924.257a24.87 24.87 0 0 1-4.753.448"/>
        <path fill="#161737" d="M241.071 291.15c-.253-.139-.505-.28-.757-.422.117.02.234.04.35.056a4.1 4.1 0 0 0 .332.079l.075.286"/>
        <path fill="#0E4E80" d="M231.713 289.8c-.082 1.346-.06 2.696-.04 4.043h.578l.194-2.503a9.84 9.84 0 0 0 .422 1.726c.076.224.166.451.335.616.273.263.684.306 1.062.329 1.226.079 2.455.132 3.683.158a16.628 16.628 0 0 1-3.265-5.252c-.29-.745-.979-1.403-1.875-1.143-.844.244-1.048 1.274-1.094 2.025"/>
        <path fill="#F0B3BD" d="M232.795 288.205c.01.129.113.234.244.244l.807.063c.068.006.144.01.198-.033.047-.037.065-.1.08-.155a40.89 40.89 0 0 0 .92-4.35c-.067.27-2.16-.116-2.476.81-.158.46-.008 1.03.043 1.498.07.639.131 1.281.184 1.923"/>
        <path fill="#1C1F45" d="M243.362 224.825c-.047.467-.053.946.073 1.398.198.712.715 1.447.406 2.118-.106.232-.299.41-.486.583-.291.268-.599.544-.982.644-.547.141-1.143-.127-1.51-.557-.369-.43-.543-.992-.634-1.55-.034-.211-.058-.43-.01-.637.147-.629.851-.919 1.332-1.35.62-.555.842-2.056 1.498-2.42 1.06-.587.358 1.323.313 1.771"/>
        <path fill="#146EB4" d="M230.9 261.488c.515 7.252.774 16.507.775 23.777 1.382-.043 2.764-.086 4.146-.132.951-7.751 2.55-17.411 4.775-24.898.717-2.411 2.05-10.558.823-12.387-.396-.591-.577-1.241-1.277-1.372-2.118 0-2.259.334-4.056 1.377-1.196.694-2.501 1.388-3.39 2.475-2.378 2.905-2.043 7.704-1.797 11.16"/>
        <path fill="#0E4E80" d="M241.75 246.325c-1.328-.149-4.887 1.428-7.9 2.92-.425.32-.82.673-1.155 1.083-1.402 1.714-1.86 4.086-1.95 6.453 1.577.219 5.471.329 8.168-3.246 0 0 1.156-1.676 2.11-1.53.956.147 1.119 2.509 2.736 2.686h.002c.153-.108.312-.209.479-.3.827-1.47-.324-7.823-2.49-8.066"/>
        <path fill="#F58A07" d="M230.493 228.997c-2.427 2.707-1.496 4.886.072 8.165 1.684 3.522 2.093 8.427 2.12 8.603.031.2-.035.402-.1.595l-2.327 6.89a1.781 1.781 0 0 0 1.784 2.347l.03-.001c.401-.02.802-.035 1.202-.043 4.62-.097 8.298-3.917 8.162-8.531 0-.031.168 2.497.27 3.792.23 2.948 2.746 5.197 5.703 5.072l.09-.004c1.532-.063.187-2.321.187-2.321-1.78-2.458-2.88-4.577-3.731-8.355-.138-.611 1.28-6.643 2.005-9.302.53-1.946 1.236-4.134.212-5.872-.656-1.113-1.897-1.756-3.143-2.099-1.245-.343-2.548-.443-3.795-.782-1.44-.391-2.907-1.106-4.355-.745l-4.386 2.59"/>
        <path fill="#FFFFFE" d="M238.905 227.057l-.255-.078-.05-.016a26.902 26.902 0 0 1-.215-.068l-.334-.107c-.375.208-.647.563-.748 1.129-.358 1.992 2.115 4.286 4.02 4.124.268-.023.54-.09.766-.237.296-.193.49-.507.642-.826.351-.733.246-2.34-.267-3.184-1.071-.239-2.17-.354-3.23-.643l-.265-.075-.064-.02"/>
        <path fill="#F0B3BD" d="M244.15 223.046c.008 1.196-.451 2.596-1.601 2.929-.346.1-.716.088-1.069.163-.352.073-.718.268-.831.61-.174.527.322 1.137.064 1.627-.113.216-.345.34-.572.427-.468.18-.974.258-1.473.228-.235-.014-.482-.057-.663-.208-.46-.38-.225-1.107-.06-1.681.699-2.416-.616-4.959-.499-7.471.03-.646.168-1.314.572-1.819.398-.498 1.008-.78 1.615-.98.997-.329 2.112-.48 3.081-.077 1.013.422 1.533 1.413 1.498 2.479a90.918 90.918 0 0 0-.062 3.773"/>
        <path fill="#1C1F45" d="M238.324 225.201c.051-.482.178-.958.175-1.443-.005-.708-.283-1.382-.526-2.049-.101-.279-.199-.577-.139-.867.06-.29.341-.557.631-.493.243.054.387.3.485.528.184.425.312.873.383 1.33.016.11.035.228.116.3.125.113.32.06.473-.008 1.6-.7 2.767-2.302 2.943-4.038 1.305.943 1.305 2.299 1.292 3.602.24-1.049.483-2.115.42-3.19-.065-1.074-.477-2.176-1.328-2.836-.98-.758-2.33-.798-3.562-.656-1.547.179-3.207.692-4.05 2-1.052 1.636-.427 3.781-.605 5.718-.026.286-.072.575-.201.832-.198.39-.563.661-.857.985-.37.409-.64.937-.631 1.489.008.552.338 1.115.86 1.295.24.084.51.086.736.203.544.28.602 1.047 1.033 1.48.332.334.83.42 1.28.559.709.219 1.366.606 2.097.739.421.076 1.75.022 1.83-.612.057-.435-.567-.581-.875-.75-1.464-.796-2.156-2.474-1.98-4.118"/>
        <path fill="#F0B3BD" d="M234.766 292.048c.511.237 1.105.412 1.634.214l.028-.013a16.95 16.95 0 0 1-1.746-3.332c-.158-.405-.434-.784-.797-1.005a.709.709 0 0 0-.43.013c-.182.066-.353.228-.54.178l-.112.135c-.052.751-.098 1.538.211 2.226.33.731 1.023 1.242 1.752 1.584"/>
        <path fill="#F58A07" d="M271.672 208.502c-.083 6.402-5.344 11.524-11.752 11.44-6.407-.082-11.534-5.338-11.45-11.74.082-6.401 5.343-11.523 11.75-11.44 6.408.082 11.535 5.339 11.452 11.74"/>
        <path fill="#F0B3BD" d="M253.99 219.855s.516-2.17-.214-2.611c-.73-.442-.244-1.172.195-1.038.439.135.766.865.766.865s.596-2.257 1-2.502a.372.372 0 0 1 .596.35c-.057.192-.23.67-.192.786.038.117.307-.709.557-.709.25 0 .674.384.404.922s-.192.634 0 .48c.192-.153.27-.595.346-.595.077 0 .558-.02.423.423-.134.442-.327.653-.25.787.077.135.22-.211.274-.307.053-.096.072-.212.322-.173.25.038.192.932-.288 1.715-.48.782-1.48 2.223-1.519 2.665-.039.442-2.42-1.058-2.42-1.058"/>
        <path fill="#F58A07" d="M230.493 228.997s2.382-1.897 5.429-1.91c1.462-.005 4.05.158 6.344.328 2.92.217 5.762-1 7.617-3.262l3.947-4.814 2.805 1.528s-1.913 9.84-10.415 12.138c-5.475 1.479-14.927 2.908-14.927 2.908s-3.489-1.09-.8-6.916"/>
        <path fill="#0F1229" d="M232.481 235.864a.104.104 0 0 1-.102-.087.103.103 0 0 1 .086-.119c.083-.013 8.37-1.338 13.57-2.462a.105.105 0 0 1 .124.08.104.104 0 0 1-.08.123c-5.206 1.124-13.498 2.45-13.581 2.464l-.017.001M242.064 237.403h-1.872a.104.104 0 1 1 0-.207h1.872a.103.103 0 1 1 0 .207M242.064 240.567h-1.872a.104.104 0 1 1 0-.208h1.872a.104.104 0 1 1 0 .208M242.064 243.73h-1.872a.103.103 0 1 1 0-.207h1.872a.103.103 0 1 1 0 .207"/>
        <g transform="translate(5.933 262.41)">
            <mask id="b" fill="#fff">
                <use xlink:href="#a"/>
            </mask>
            <path fill="#CFCEC9" d="M.292 3.202H28.38V.042H.292z" mask="url(#b)"/>
        </g>
        <path fill="#FFFFFE" d="M117.8 46.915l-.094 1.78 1.935.104.095-1.78.964.05-.227 4.269-.964-.051.09-1.683-1.936-.103-.09 1.683-.964-.051.227-4.269.965.051M124.79 47.287l-.043.817-1.306-.07-.184 3.452-.965-.051.184-3.452-1.3-.069.044-.817 3.57.19M126.39 47.372l1.106 2.676 1.378-2.544 1.074.057-.227 4.269-.867-.046.154-2.879-1.266 2.385-.629-.033-1.005-2.506-.153 2.878-.873-.046.227-4.269 1.081.058M131.86 47.663l-.183 3.427 1.831.097-.044.842-2.796-.149.227-4.268.965.05M15.491 138.31c-.992-.085-1.758-.574-2.32-1.354l.871-1.115c.47.59 1.038.915 1.492.954.549.046.915-.263.969-.895l.301-3.564-2.543-.214.12-1.413 4.22.356-.424 5.019c-.132 1.549-1.156 2.354-2.686 2.225M22.536 132.757c-.56-.048-.956.12-.99.521-.115 1.36 3.885.934 3.65 3.59-.123 1.444-1.444 2.118-3.08 1.98-1.213-.103-2.388-.67-3.161-1.446l.78-1.304c.702.739 1.742 1.262 2.523 1.328.685.058 1.118-.16 1.157-.613.117-1.392-3.887-.913-3.666-3.527.114-1.339 1.335-2.085 3.044-1.94 1.034.086 2.042.49 2.74 1.038l-.761 1.326c-.742-.53-1.645-.903-2.236-.953"/>
        <path fill="#F58A07" d="M33.71 261.141a3.673 3.673 0 0 1-3.675 3.672H10.232a3.673 3.673 0 0 1-3.675-3.672v-18.574a3.673 3.673 0 0 1 3.675-3.672h19.803a3.674 3.674 0 0 1 3.675 3.673v18.573"/>
        <path fill="#FFFFFE" d="M21.862 244.335h-3.447v2.038a5.686 5.686 0 0 0-.935.387l-1.445-1.444-2.438 2.435 1.443 1.442a5.7 5.7 0 0 0-.39.934h-2.042v3.444h2.04c.101.325.232.637.387.934l-1.445 1.444 2.437 2.435 1.444-1.441c.297.155.609.287.934.389v2.04h3.447v-2.037c.325-.102.637-.232.935-.387l1.446 1.444 2.437-2.436-1.443-1.441c.156-.297.287-.609.39-.934h2.042v-3.444h-2.04a5.73 5.73 0 0 0-.387-.934l1.445-1.444-2.437-2.435-1.443 1.441a5.713 5.713 0 0 0-.935-.388v-2.042zm-.67.67v1.862l.469.148c.28.088.558.204.825.343l.436.228.348-.347.97-.969 1.49 1.489-1.32 1.318.228.436c.14.268.255.545.342.824l.147.47h1.862v2.105h-1.864l-.148.468a5.04 5.04 0 0 1-.344.824l-.228.436 1.318 1.316-1.49 1.49-.972-.971-.348-.348-.436.227c-.268.14-.546.255-.825.342l-.47.148v1.86h-2.107v-1.863l-.469-.147a5.08 5.08 0 0 1-.825-.344l-.436-.229-1.318 1.317-1.49-1.489.972-.97.347-.348-.227-.435a5.089 5.089 0 0 1-.342-.825l-.147-.47h-1.862v-2.105h1.864l.148-.468c.088-.28.204-.557.344-.824l.228-.436-.348-.348-.97-.969 1.49-1.488 1.32 1.318.436-.227a5.06 5.06 0 0 1 .825-.343l.47-.146v-1.86h2.108z"/>
        <path fill="#FFFFFE" d="M20.134 248.234a3.622 3.622 0 0 0-3.624 3.62c0 2 1.622 3.62 3.624 3.62a3.622 3.622 0 0 0 3.623-3.62c0-2-1.622-3.62-3.623-3.62zm0 .67a2.956 2.956 0 0 1 2.953 2.95 2.955 2.955 0 0 1-2.953 2.95 2.955 2.955 0 0 1-2.954-2.95 2.956 2.956 0 0 1 2.954-2.95zM321.079 50.957c-1.108 0-1.965.857-1.965 1.982s.857 1.992 1.965 1.992c.583 0 1.22-.295 1.68-.756l.858.93c-.683.702-1.671 1.154-2.61 1.154-1.93 0-3.39-1.43-3.39-3.301 0-1.863 1.487-3.265 3.445-3.265.93 0 1.909.415 2.545 1.07l-.847 1.033c-.442-.507-1.081-.84-1.681-.84M326.725 50.92c-.488 0-.82.175-.82.525 0 1.19 3.44.526 3.43 2.85 0 1.263-1.097 1.945-2.528 1.945-1.061 0-2.122-.406-2.85-1.023l.58-1.19c.665.59 1.604.968 2.29.968.6 0 .96-.221.96-.618 0-1.217-3.445-.507-3.445-2.793 0-1.171 1.008-1.909 2.502-1.909.906 0 1.81.277 2.455.701l-.564 1.208c-.682-.406-1.493-.664-2.01-.664M332.602 50.92c-.491 0-.824.175-.824.525 0 1.19 3.444.526 3.434 2.85 0 1.263-1.097 1.945-2.528 1.945-1.061 0-2.122-.406-2.85-1.023l.58-1.19c.665.59 1.604.968 2.287.968.6 0 .959-.221.959-.618 0-1.217-3.441-.507-3.441-2.793 0-1.171 1.005-1.909 2.501-1.909.904 0 1.81.277 2.456.701l-.564 1.208c-.682-.406-1.496-.664-2.01-.664M62.924 9.694c-.34.103-.528.32-.439.616.302 1.003 2.533-.278 3.116 1.685.321 1.066-.271 1.872-1.268 2.171-.74.222-1.583.102-2.248-.267l.104-1.125c.612.359 1.365.48 1.84.338.418-.126.614-.388.513-.722-.31-1.027-2.528.292-3.109-1.637-.297-.988.217-1.82 1.259-2.134a2.948 2.948 0 0 1 1.889.078l-.086 1.136c-.579-.199-1.21-.247-1.57-.139M68.6 11.73c.753-.225 1.14-1.156.852-2.112-.288-.957-1.12-1.505-1.872-1.28-.759.23-1.17 1.15-.882 2.106.288.957 1.15 1.513 1.903 1.287zm3.15.887c-.235.478-.656.85-1.093.982-.611.184-1.27-.119-1.81-.772-1.357.366-2.722-.514-3.19-2.07-.478-1.587.21-3.075 1.587-3.488 1.377-.414 2.774.456 3.25 2.036.365 1.213.045 2.387-.75 3.058.258.203.517.294.736.228.218-.065.459-.316.662-.665l.608.691zM71.398 6.064l1.315 4.372 1.93-.58.323 1.075-2.946.884-1.639-5.446 1.017-.305M332.645 148.427a1.132 1.132 0 0 0-1.138 1.161c.007.655.508 1.156 1.154 1.152.34-.002.709-.176.976-.446l.5.54c-.395.41-.968.676-1.515.68-1.121.007-1.978-.82-1.985-1.91-.006-1.084.854-1.905 1.994-1.913a2.143 2.143 0 0 1 1.487.614l-.491.604c-.26-.294-.633-.485-.982-.482M336.64 149.185l-.815.005-.099.811.818-.005.095-.81zm.596-.004l-.089.812.725-.005-.062.597-.735.004-.103.86-.596.004.102-.86-.817.005-.103.86-.6.003.103-.86-.732.005.06-.596.74-.005.093-.811-.725.005.06-.596.738-.005.105-.897.597-.004-.106.897.818-.005.105-.897.603-.004-.108.897.731-.004-.056.596-.748.004zM335.937 205.96c-1.094.006-1.938.858-1.931 1.97.01 1.112.863 1.964 1.958 1.957.573-.004 1.203-.3 1.654-.758l.854.915c-.669.698-1.645 1.15-2.574 1.156-1.905.012-3.356-1.391-3.369-3.242-.01-1.84 1.447-3.235 3.382-3.248.923-.005 1.892.399 2.525 1.042l-.83 1.026c-.442-.499-1.075-.823-1.669-.819M342.72 207.246l-1.384.01-.164 1.377 1.384-.008.165-1.379zm1.016-.005l-.158 1.377 1.233-.008-.103 1.012-1.249.009-.175 1.459-1.011.006.17-1.46-1.383.01-.175 1.459-1.022.007.175-1.46-1.243.008.106-1.013 1.255-.008.159-1.377-1.233.008.102-1.013 1.253-.007.18-1.524 1.013-.006-.182 1.523 1.385-.009.181-1.523 1.022-.006-.181 1.523 1.242-.007-.095 1.011-1.266.009zM146.05 7.757c-1.128 0-2.002.873-2.002 2.018 0 1.145.874 2.027 2.002 2.027.591 0 1.24-.3 1.71-.77l.873.949c-.695.713-1.7 1.173-2.658 1.173-1.964 0-3.448-1.455-3.448-3.36 0-1.896 1.512-3.323 3.504-3.323.949 0 1.945.422 2.593 1.089l-.865 1.051c-.45-.516-1.099-.854-1.71-.854M153.234 10.507h-1.607v1.586h-.92v-1.586H149.1V9.55h1.606V7.954h.921V9.55h1.607v.957M157.985 10.507h-1.607v1.586h-.92v-1.586h-1.607V9.55h1.606V7.954h.921V9.55h1.607v.957"/>
        <path fill="#CFCEC9" d="M139.304 281.28H97.983a1.668 1.668 0 1 1 0-3.335h41.321a1.668 1.668 0 1 1 0 3.336"/>
        <path fill="#F58A07" d="M140.973 275.9a3.98 3.98 0 0 1-3.982 3.979h-36.696a3.98 3.98 0 0 1-3.982-3.978v-20.124a3.98 3.98 0 0 1 3.982-3.979h36.696c2.2 0 3.982 1.782 3.982 3.98V275.9"/>
        <path fill="#FBFAF8" d="M112.738 273.707h2.91l8.371-15.737h-2.91l-8.37 15.737M133.399 266.306h-.021l-4.504-6.366h-3.089l4.514 6.383-4.514 6.082h3.09l4.503-6.063h.021l-.01-.019.01-.017M103.887 266.306h.022l4.503-6.366h2.822l-4.514 6.383 4.514 6.082h-2.822l-4.503-6.063h-.022l.011-.019-.01-.017"/>
        <path fill="#F58A07" d="M112.397 102.497a3.244 3.244 0 0 1-3.246 3.243H79.239a3.244 3.244 0 0 1-3.246-3.243V86.093a3.245 3.245 0 0 1 3.246-3.243h29.912a3.245 3.245 0 0 1 3.246 3.244v16.403"/>
        <path fill="#FBFAF8" d="M85.908 93.744c-.122.163-.34.335-.656.518l-.35.229c.102.08.218.157.35.228.224.143.39.259.496.35.107.092.19.213.252.365.06.154.091.361.091.626v2.786c0 .396.115.68.343.854.229.172.612.259 1.151.259v1.156h-.534c-.813 0-1.395-.141-1.745-.425-.35-.285-.526-.762-.526-1.433v-3.289c0-.315-.056-.54-.168-.678-.111-.137-.284-.205-.518-.205h-.442v-1.173h.442c.234 0 .407-.068.518-.206.112-.137.168-.363.168-.678V89.74c0-.66.175-1.135.526-1.424.35-.29.932-.434 1.745-.434h.534v1.157c-.539 0-.922.086-1.151.259-.228.173-.343.458-.343.854v2.801c0 .366-.061.63-.183.792M104.738 93.912v1.173h-.442c-.234 0-.407.068-.519.205-.111.137-.167.363-.167.678v3.29c0 .67-.175 1.147-.526 1.432-.35.284-.933.425-1.745.425h-.534V99.96c.539 0 .922-.087 1.151-.26.229-.172.343-.457.343-.853V96.06c0-.265.03-.472.092-.626a.922.922 0 0 1 .25-.365c.108-.091.273-.207.496-.35.132-.071.25-.147.351-.228l-.35-.229c-.316-.183-.534-.355-.656-.518-.122-.162-.183-.426-.183-.792v-2.801c0-.396-.114-.681-.343-.854-.229-.173-.612-.26-1.15-.26v-1.156h.533c.812 0 1.395.144 1.745.434.35.29.526.764.526 1.424v3.29c0 .314.056.54.167.677.112.138.285.206.52.206h.441"/>
        <path fill="#F58A07" d="M90.678.993c-.64-.068-1.29-.108-1.93-.12l.007-.325c.649.013 1.307.054 1.957.122l-.034.323zm-6.418.247L84.2.92a21.96 21.96 0 0 1 1.942-.273l.031.322c-.642.062-1.286.153-1.913.27zm10.834.651a23.659 23.659 0 0 0-1.87-.489l.069-.317c.634.138 1.272.305 1.896.496l-.095.31zm4.162 1.727a23.397 23.397 0 0 0-1.742-.839l.128-.298c.6.259 1.194.544 1.767.85l-.153.287zm3.74 2.506c-.49-.407-1.01-.8-1.54-1.166l.185-.267c.538.372 1.064.77 1.563 1.184l-.207.25zm3.084 3.262a15.598 15.598 0 0 0-1.214-1.496l.24-.22c.453.495.87 1.008 1.238 1.528l-.264.188zm2.929 4.35a22.735 22.735 0 0 0-1.907-.318l.039-.322a20.247 20.247 0 0 1 .744.104 9.591 9.591 0 0 0-.537-1.593l.298-.13c.258.593.455 1.192.585 1.78.283.048.566.103.845.162l-.067.317zm-6.307.063l-.12-.3a7.135 7.135 0 0 1 1.932-.459l.033.323a6.808 6.808 0 0 0-1.845.436zm10.606 1.289c-.595-.25-1.204-.48-1.81-.68l.101-.308a24.63 24.63 0 0 1 1.835.69l-.126.298zm-13.38 1.871l-.32-.06c.12-.63.413-1.258.849-1.816l.256.199a3.972 3.972 0 0 0-.786 1.677zm17.358.25a25.365 25.365 0 0 0-1.658-.996l.156-.284c.569.312 1.134.652 1.68 1.01l-.178.27zm-9.463.693l-.295-.135a6.179 6.179 0 0 0 .52-1.818l.32.042a6.5 6.5 0 0 1-.546 1.911zM120.83 20a26.06 26.06 0 0 0-1.458-1.271l.204-.253c.505.409 1.002.842 1.476 1.287l-.222.237zm-19.033.696a3.897 3.897 0 0 1-1.6-1.214l.259-.196c.359.474.866.858 1.468 1.111l-.127.3zm2.647.231l-.078-.315a4.355 4.355 0 0 0 1.654-.85l.205.25a4.676 4.676 0 0 1-1.781.915zm19.387 2.437c-.383-.514-.79-1.021-1.213-1.507l.245-.212c.428.491.84 1.005 1.228 1.525l-.26.194zm2.347 3.846c-.28-.575-.59-1.147-.918-1.701l.28-.166c.332.562.645 1.142.93 1.724l-.292.143zm1.378 3.519c-.115-.384-.241-.77-.376-1.147l.305-.11c.137.383.266.774.383 1.164l-.312.093zM192.236 18.09l-.05-.321a21.271 21.271 0 0 1 1.949-.214l.02.323c-.637.04-1.283.111-1.92.211zm-4.352 1.159l-.115-.304c.613-.232 1.24-.44 1.862-.615l.089.312c-.614.173-1.231.377-1.836.607zm-4.034 2.005l-.172-.275a23.67 23.67 0 0 1 1.704-.97l.149.288c-.57.294-1.135.616-1.68.957zM180.28 24l-.223-.236c.475-.445.974-.875 1.486-1.28l.201.255c-.504.398-.997.823-1.464 1.261zm-2.962 3.391l-.265-.187c.376-.53.78-1.05 1.202-1.548l.248.21c-.416.49-.815 1.003-1.185 1.525zm-2.196 3.924l-.3-.125a21.043 21.043 0 0 1 .85-1.767l.286.154a20.84 20.84 0 0 0-.836 1.738zm3.328 3.863l-.037-.322a15.308 15.308 0 0 1 1.965-.099l-.005.325a14.85 14.85 0 0 0-1.923.096zm-4.497.465l-.322-.04c.078-.635.2-1.285.362-1.931l.315.079a15.64 15.64 0 0 0-.355 1.892zm10.73.434a7.515 7.515 0 0 0-1.775-.68l.079-.315c.68.17 1.304.41 1.852.71l-.155.285zm-10.633.082l-.097-.31c.624-.195 1.259-.37 1.888-.52l.076.316c-.622.148-1.25.321-1.867.514zm-4.19 1.678l-.144-.291c.582-.288 1.182-.56 1.783-.808l.124.3c-.594.245-1.187.514-1.763.799zm17.408 1.618a4.451 4.451 0 0 0-.722-1.72l.268-.183c.093.135.181.279.263.428.243.437.413.913.51 1.415l-.32.06zm-21.291.685l-.187-.265a30.076 30.076 0 0 1 1.638-1.072l.17.277c-.55.334-1.095.69-1.621 1.06zm7.897.032a10.998 10.998 0 0 1-.316-1.947l.323-.024c.049.655.152 1.29.307 1.89l-.314.08zm-11.379 2.84l-.226-.233c.467-.45.956-.892 1.454-1.312l.21.248c-.493.415-.977.852-1.438 1.297zm24.082.82l-.269-.181a6.11 6.11 0 0 0 .811-1.706l.312.092a6.455 6.455 0 0 1-.854 1.796zm-10.476.334a7.474 7.474 0 0 1-.597-.667 8.637 8.637 0 0 1-.62-.897l.278-.167c.18.3.38.59.597.863.174.22.367.436.57.638l-.228.23zm4.04 2.147a7.891 7.891 0 0 1-1.881-.63l.14-.292a7.56 7.56 0 0 0 1.804.604l-.063.318zm2.642.026l-.06-.319c.415-.079.82-.201 1.201-.364.192-.081.382-.177.566-.285l.164.28a5.423 5.423 0 0 1-.602.303c-.403.172-.83.302-1.269.385zm-23.274.054l-.26-.194a28.492 28.492 0 0 1 1.227-1.526l.246.213a27.839 27.839 0 0 0-1.213 1.507zm-2.404 3.817l-.287-.15c.302-.578.627-1.15.966-1.702l.277.17a28.604 28.604 0 0 0-.956 1.682zm-1.778 4.147l-.307-.104c.209-.614.441-1.23.69-1.83l.3.124a29.073 29.073 0 0 0-.683 1.81zm-1.12 4.37l-.32-.055c.112-.639.247-1.283.402-1.915l.315.077a29.28 29.28 0 0 0-.397 1.893zm-.432 4.49l-.324-.005c.01-.647.044-1.304.1-1.954l.323.027a28.622 28.622 0 0 0-.099 1.932zm.077 2.594h-.325l.323-.024.002.024zM7.035 155.872l-.262-.193c.39-.528.805-1.04 1.236-1.522l.242.216c-.423.475-.833.979-1.216 1.499zm-2.275 3.882l-.296-.134c.27-.595.57-1.182.89-1.747l.282.16c-.315.556-.61 1.135-.876 1.721zm-1.444 4.263l-.317-.072c.146-.634.321-1.269.522-1.89l.309.1a22.5 22.5 0 0 0-.514 1.862zm-.567 4.465l-.325-.008c.016-.648.062-1.306.135-1.955l.322.036c-.072.64-.116 1.288-.132 1.927zm.04 4.544a21.243 21.243 0 0 1-.275-1.94l.323-.032c.06.642.152 1.285.27 1.911l-.319.06zm3.013 1.458l-.177-.272c.18-.117.368-.224.557-.32.4-.2.845-.328 1.322-.378l.034.322a3.51 3.51 0 0 0-1.21.347c-.179.09-.355.19-.526.301zm5.602.963c-.333-.47-.828-.874-1.431-1.167l.142-.292c.651.317 1.189.756 1.554 1.271l-.265.188zm-8.287 2.502l-.297-.13a10.72 10.72 0 0 1 .892-1.658 10.865 10.865 0 0 1-.245-.605l.304-.113c.238.64.518 1.218.833 1.719l-.275.173a8.744 8.744 0 0 1-.456-.826c-.272.43-.526.912-.756 1.44zm7.538 1.426l-.161-.281c.573-.328.99-.79 1.207-1.337l.302.12c-.244.615-.71 1.133-1.348 1.498zm-2.603.529a4.141 4.141 0 0 1-1.893-.66l.178-.272a3.81 3.81 0 0 0 1.747.61l-.032.322zm-6.232 2.358l-.317-.071a49.129 49.129 0 0 1 .466-1.897l.313.085c-.047.171-.092.342-.135.51-.116.457-.225.914-.327 1.373zm-.784 4.456l-.322-.041c.083-.645.18-1.294.288-1.932l.32.054a49.984 49.984 0 0 0-.286 1.919zm-.382 4.509l-.324-.013a52.31 52.31 0 0 1 .115-1.949l.324.025c-.05.643-.089 1.295-.115 1.937zm-.312 4.54a53.494 53.494 0 0 1-.054-1.952l.325-.003c.006.644.024 1.297.053 1.94l-.324.015zm.4 4.535a55.38 55.38 0 0 1-.219-1.94l.323-.03c.06.642.134 1.29.217 1.928l-.322.042zm.777 4.486a56.268 56.268 0 0 1-.38-1.914l.32-.058c.114.63.24 1.271.377 1.904l-.317.068zm1.147 4.407c-.189-.62-.37-1.25-.537-1.877l.314-.084c.166.623.345 1.251.533 1.866l-.31.095zm1.508 4.296a54.615 54.615 0 0 1-.69-1.826l.306-.11c.216.607.447 1.218.685 1.816l-.301.12zm1.861 4.156a53.75 53.75 0 0 1-.84-1.762l.295-.135c.266.585.547 1.175.836 1.752l-.29.145zm2.207 3.983a53.557 53.557 0 0 1-.988-1.684l.283-.159c.316.562.647 1.125.982 1.674l-.277.17zm2.544 3.779a52.287 52.287 0 0 1-1.13-1.592l.268-.183c.363.533.741 1.065 1.124 1.582l-.262.193zm2.871 3.536a50.44 50.44 0 0 1-1.27-1.484l.252-.206c.406.494.83.99 1.26 1.475l-.242.215z"/>
    </g>
</svg>
