<svg xmlns="http://www.w3.org/2000/svg" width="331" height="300" viewBox="0 0 331 300">
    <g fill="none" fill-rule="evenodd">
        <path fill="#E6E7E8" d="M65.984 225.604c-9.982 0-18.074-8.092-18.074-18.074 0-9.982 8.092-18.074 18.074-18.074 9.982 0 18.074 8.092 18.074 18.074 0 9.982-8.092 18.074-18.074 18.074zm41.38-13.16v-9.512l-11.985-3.329a30.252 30.252 0 0 0-2.872-7.019l6.1-10.792-6.726-6.727-10.731 6.066a30.265 30.265 0 0 0-7.115-2.963l-3.295-11.86h-9.512l-3.295 11.86a30.265 30.265 0 0 0-7.115 2.963l-10.73-6.066-6.727 6.727 6.1 10.792a30.283 30.283 0 0 0-2.873 7.02l-11.984 3.328v9.513l12.08 3.356a30.276 30.276 0 0 0 2.866 6.834l-6.189 10.95 6.726 6.727 11.013-6.225a30.244 30.244 0 0 0 6.738 2.78l3.39 12.201h9.512l3.39-12.202a30.242 30.242 0 0 0 6.738-2.78l11.013 6.226 6.726-6.727-6.19-10.95a30.28 30.28 0 0 0 2.87-6.835l12.077-3.355z"/>
        <path fill="#95869E" d="M101.644 240.941h.48V54.118h-.48z"/>
        <path fill="#146EB4" d="M46.996 64.87a1.883 1.883 0 1 1 0-3.767 1.883 1.883 0 0 1 0 3.767"/>
        <path fill="#95869E" d="M66.804 63.87H51.1a.758.758 0 0 1-.758-.758v-.405c0-.419.34-.758.758-.758h15.705c.42 0 .759.34.759.758v.405c0 .42-.34.759-.759.759"/>
        <path fill="#146EB4" d="M46.996 86.013a1.883 1.883 0 1 1 0-3.767 1.883 1.883 0 0 1 0 3.767"/>
        <path fill="#95869E" d="M66.804 85.014H51.1a.758.758 0 0 1-.758-.759v-.405c0-.419.34-.758.758-.758h15.705c.42 0 .759.34.759.758v.405c0 .42-.34.759-.759.759"/>
        <path fill="#146EB4" d="M46.996 113.538a1.883 1.883 0 1 1 0-3.767 1.883 1.883 0 0 1 0 3.767"/>
        <path fill="#95869E" d="M66.804 112.538H51.1a.758.758 0 0 1-.758-.758v-.405c0-.42.34-.759.758-.759h15.705c.42 0 .759.34.759.759v.405c0 .418-.34.758-.759.758"/>
        <path fill="#146EB4" d="M46.996 120.65a1.883 1.883 0 1 1 0-3.767 1.883 1.883 0 0 1 0 3.766"/>
        <path fill="#95869E" d="M66.804 119.65H51.1a.758.758 0 0 1-.758-.758v-.406c0-.419.34-.758.758-.758h15.705c.42 0 .759.34.759.758v.406c0 .418-.34.758-.759.758"/>
        <path fill="#146EB4" d="M52.224 70.406a1.884 1.884 0 1 1 0-3.768 1.884 1.884 0 0 1 0 3.768"/>
        <path fill="#95869E" d="M72.032 69.406H56.327a.758.758 0 0 1-.758-.758v-.405c0-.419.34-.759.758-.759h15.705c.42 0 .759.34.759.759v.405c0 .419-.34.758-.759.758"/>
        <path fill="#146EB4" d="M52.224 75.942a1.884 1.884 0 1 1 0-3.768 1.884 1.884 0 0 1 0 3.768"/>
        <path fill="#95869E" d="M78.568 74.942h-22.24a.759.759 0 0 1-.759-.759v-.404c0-.42.34-.759.758-.759h22.24c.42 0 .76.34.76.759v.404c0 .42-.34.759-.76.759"/>
        <path fill="#146EB4" d="M52.224 91.318a1.883 1.883 0 1 1 1.884-1.884c0 1.04-.843 1.884-1.884 1.884"/>
        <path fill="#95869E" d="M83.719 90.319H56.327a.758.758 0 0 1-.758-.759v-.405c0-.419.34-.758.758-.758H83.72c.419 0 .758.34.758.758v.405c0 .42-.34.759-.758.759"/>
        <path fill="#146EB4" d="M52.224 96.854a1.884 1.884 0 1 1 0-3.767 1.884 1.884 0 0 1 0 3.767"/>
        <path fill="#95869E" d="M74.339 95.854H56.327a.759.759 0 0 1-.758-.758v-.405c0-.42.34-.758.758-.758H74.34c.419 0 .759.339.759.758v.405c0 .419-.34.758-.759.758"/>
        <path fill="#146EB4" d="M57.056 101.903a1.487 1.487 0 1 1 0-2.973 1.487 1.487 0 0 1 0 2.973"/>
        <path fill="#95869E" d="M91.1 101.114H60.454a.758.758 0 1 1 0-1.517H91.1a.758.758 0 1 1 0 1.517"/>
        <path fill="#146EB4" d="M57.056 106.272a1.487 1.487 0 1 1 0-2.973 1.487 1.487 0 0 1 0 2.973"/>
        <path fill="#95869E" d="M78.568 105.483H60.454a.758.758 0 1 1 0-1.517h18.114a.759.759 0 0 1 0 1.517"/>
        <path fill="#146EB4" d="M46.996 128.607a1.883 1.883 0 1 1 0-3.766 1.883 1.883 0 0 1 0 3.766"/>
        <path fill="#95869E" d="M66.804 127.608H51.1a.758.758 0 0 1-.758-.759v-.405c0-.419.34-.758.758-.758h15.705c.42 0 .759.34.759.758v.405c0 .42-.34.759-.759.759"/>
        <path fill="#146EB4" d="M46.996 149.75a1.883 1.883 0 1 1 0-3.767 1.883 1.883 0 0 1 0 3.767"/>
        <path fill="#95869E" d="M66.804 148.751H51.1a.758.758 0 0 1-.758-.758v-.406c0-.419.34-.758.758-.758h15.705c.42 0 .759.34.759.758v.406c0 .418-.34.758-.759.758"/>
        <path fill="#146EB4" d="M46.996 177.275a1.883 1.883 0 1 1 0-3.767 1.883 1.883 0 0 1 0 3.767"/>
        <path fill="#95869E" d="M66.804 176.275H51.1a.759.759 0 0 1-.758-.758v-.405c0-.42.34-.759.758-.759h15.705c.42 0 .759.34.759.759v.405c0 .419-.34.758-.759.758"/>
        <path fill="#146EB4" d="M46.996 184.387a1.883 1.883 0 1 1 0-3.767 1.883 1.883 0 0 1 0 3.767"/>
        <path fill="#95869E" d="M66.804 183.387H51.1a.758.758 0 0 1-.758-.758v-.406c0-.418.34-.758.758-.758h15.705c.42 0 .759.34.759.758v.406c0 .419-.34.758-.759.758"/>
        <path fill="#146EB4" d="M52.224 134.143a1.883 1.883 0 1 1 0-3.767 1.883 1.883 0 0 1 0 3.767"/>
        <path fill="#95869E" d="M72.032 133.144H56.327a.759.759 0 0 1-.758-.759v-.405c0-.419.34-.759.758-.759h15.705c.42 0 .759.34.759.759v.405c0 .419-.34.759-.759.759"/>
        <path fill="#146EB4" d="M52.224 139.679a1.884 1.884 0 1 1 0-3.768 1.884 1.884 0 0 1 0 3.768"/>
        <path fill="#95869E" d="M78.568 138.68h-22.24a.759.759 0 0 1-.759-.76v-.404c0-.42.34-.759.758-.759h22.24c.42 0 .76.34.76.759v.405c0 .419-.34.758-.76.758"/>
        <path fill="#146EB4" d="M52.224 155.055a1.884 1.884 0 1 1 0-3.767 1.884 1.884 0 0 1 0 3.767"/>
        <path fill="#95869E" d="M83.719 154.056H56.327a.759.759 0 0 1-.758-.759v-.405c0-.418.34-.758.758-.758H83.72c.419 0 .758.34.758.758v.405c0 .42-.34.76-.758.76"/>
        <path fill="#146EB4" d="M52.224 160.591a1.884 1.884 0 1 1 0-3.767 1.884 1.884 0 0 1 0 3.767"/>
        <path fill="#95869E" d="M74.339 159.591H56.327a.759.759 0 0 1-.758-.758v-.405c0-.42.34-.758.758-.758H74.34c.419 0 .759.339.759.758v.405c0 .419-.34.758-.759.758"/>
        <path fill="#146EB4" d="M57.056 165.64a1.487 1.487 0 1 1 0-2.973 1.487 1.487 0 0 1 0 2.973"/>
        <path fill="#95869E" d="M91.1 164.851H60.454a.758.758 0 1 1 0-1.517H91.1a.758.758 0 1 1 0 1.517"/>
        <path fill="#146EB4" d="M57.056 170.01a1.487 1.487 0 1 1 0-2.974 1.487 1.487 0 0 1 0 2.973"/>
        <path fill="#95869E" d="M78.568 169.22H60.454a.758.758 0 1 1 0-1.516h18.114a.758.758 0 1 1 0 1.517"/>
        <path fill="#F58A07" d="M108.229 62.91a1.534 1.534 0 1 1 0-3.069 1.534 1.534 0 0 1 0 3.069"/>
        <path fill="#F8C73D" d="M131.251 62.91h-15.378a1.534 1.534 0 1 1 0-3.069h15.378a1.534 1.534 0 1 1 0 3.069"/>
        <path fill="#F58A07" d="M169.453 62.91h-30.576a1.534 1.534 0 0 1 0-3.069h30.576a1.534 1.534 0 1 1 0 3.069M108.229 71.94a1.534 1.534 0 1 1 0-3.068 1.534 1.534 0 0 1 0 3.068"/>
        <path fill="#305293" d="M158.777 71.94h-42.904a1.534 1.534 0 1 1 0-3.069h42.904a1.534 1.534 0 0 1 0 3.07"/>
        <path fill="#F8C73D" d="M244.447 71.94h-78.044a1.534 1.534 0 0 1 0-3.069h78.044a1.534 1.534 0 0 1 0 3.07"/>
        <path fill="#F58A07" d="M108.229 80.97a1.534 1.534 0 1 1-.001-3.068 1.534 1.534 0 0 1 0 3.068"/>
        <path fill="#305293" d="M131.251 80.97h-15.378a1.534 1.534 0 1 1 0-3.068h15.378a1.534 1.534 0 1 1 0 3.068"/>
        <path fill="#F58A07" d="M108.229 90.001a1.534 1.534 0 1 1 0-3.069 1.534 1.534 0 0 1 0 3.069M123.48 90.001h-7.607a1.534 1.534 0 1 1 0-3.069h7.607a1.534 1.534 0 1 1 0 3.069M158.777 90.001h-27.671a1.534 1.534 0 1 1 0-3.069h27.67a1.534 1.534 0 0 1 0 3.069M108.229 99.031a1.534 1.534 0 1 1 0-3.068 1.534 1.534 0 0 1 0 3.068M140.474 99.031h-15.378a1.534 1.534 0 0 1 0-3.068h15.378a1.534 1.534 0 0 1 0 3.068"/>
        <path fill="#146EB4" d="M185.627 99.031H148.1a1.534 1.534 0 1 1 0-3.068h37.527a1.535 1.535 0 0 1 0 3.068"/>
        <path fill="#494E5B" d="M108.229 108.062a1.534 1.534 0 1 1 0-3.069 1.534 1.534 0 0 1 0 3.069"/>
        <path fill="#F8C73D" d="M260.298 108.062H125.096a1.534 1.534 0 0 1 0-3.069h135.202a1.534 1.534 0 0 1 0 3.069"/>
        <path fill="#EBA53E" d="M284.56 108.062h-15.6a1.534 1.534 0 1 1 0-3.069h15.6a1.534 1.534 0 0 1 0 3.069"/>
        <path fill="#EBA53E" d="M284.56 107.807h-15.6a1.534 1.534 0 1 1 0-3.069h15.6a1.534 1.534 0 0 1 0 3.069"/>
        <path fill="#494E5B" d="M108.229 117.092a1.535 1.535 0 1 1 0-3.069 1.535 1.535 0 0 1 0 3.07M108.229 126.123a1.534 1.534 0 1 1 0-3.069 1.534 1.534 0 0 1 0 3.069"/>
        <path fill="#146EB4" d="M247.654 126.123H135.69a1.534 1.534 0 0 1 0-3.069h111.964a1.534 1.534 0 0 1 0 3.069"/>
        <path fill="#F8C73D" d="M284.56 126.123h-28.927a1.534 1.534 0 1 1 0-3.069h28.927a1.534 1.534 0 0 1 0 3.069"/>
        <path fill="#494E5B" d="M108.229 135.153a1.534 1.534 0 1 1 0-3.069 1.534 1.534 0 0 1 0 3.069"/>
        <path fill="#F58A07" d="M132.621 135.153h-7.525a1.534 1.534 0 0 1 0-3.069h7.525a1.534 1.534 0 1 1 0 3.069"/>
        <path fill="#494E5B" d="M108.229 144.064a1.534 1.534 0 1 1 0-3.068 1.534 1.534 0 0 1 0 3.068"/>
        <path fill="#F58A07" d="M140.474 144.064h-15.378a1.534 1.534 0 0 1 0-3.068h15.378a1.534 1.534 0 0 1 0 3.068"/>
        <path fill="#146EB4" d="M185.627 144.064H148.1a1.534 1.534 0 1 1 0-3.068h37.527a1.534 1.534 0 0 1 0 3.068"/>
        <path fill="#494E5B" d="M108.229 153.095a1.534 1.534 0 1 1 0-3.068 1.534 1.534 0 0 1 0 3.068"/>
        <path fill="#F8C73D" d="M260.298 153.095H125.096a1.534 1.534 0 0 1 0-3.069h135.202a1.534 1.534 0 0 1 0 3.07"/>
        <path fill="#EBA53E" d="M284.56 153.095h-15.6a1.534 1.534 0 1 1 0-3.069h15.6a1.534 1.534 0 0 1 0 3.07"/>
        <path fill="#EBA53E" d="M284.56 152.84h-15.6a1.535 1.535 0 0 1 0-3.069h15.6a1.534 1.534 0 1 1 0 3.069"/>
        <path fill="#494E5B" d="M108.229 162.125a1.534 1.534 0 1 1 0-3.068 1.534 1.534 0 0 1 0 3.068"/>
        <path fill="#F58A07" d="M323.175 162.125H135.69a1.534 1.534 0 0 1 0-3.068h187.485a1.534 1.534 0 0 1 0 3.068"/>
        <path fill="#494E5B" d="M108.229 171.155a1.534 1.534 0 1 1 0-3.068 1.534 1.534 0 0 1 0 3.068"/>
        <path fill="#208DA2" d="M166.952 171.155H135.69a1.534 1.534 0 1 1 0-3.068h31.262a1.534 1.534 0 1 1 0 3.068"/>
        <path fill="#F58A07" d="M247.654 171.155H176.04a1.534 1.534 0 1 1 0-3.068h71.614a1.534 1.534 0 0 1 0 3.068"/>
        <path fill="#F8C73D" d="M284.56 171.155h-28.927a1.534 1.534 0 1 1 0-3.068h28.927a1.534 1.534 0 0 1 0 3.068"/>
        <path fill="#494E5B" d="M108.229 180.186a1.534 1.534 0 1 1 0-3.069 1.534 1.534 0 0 1 0 3.069"/>
        <path fill="#EBA53E" d="M132.621 180.186h-7.525a1.534 1.534 0 1 1 0-3.068h7.525a1.534 1.534 0 1 1 0 3.068"/>
        <path fill="#494E5B" d="M108.229 189.097a1.534 1.534 0 1 1 0-3.068 1.534 1.534 0 0 1 0 3.068"/>
        <path fill="#95869E" d="M140.474 189.097h-15.378a1.534 1.534 0 1 1 0-3.068h15.378a1.534 1.534 0 0 1 0 3.068"/>
        <path fill="#208DA2" d="M185.627 189.097H148.1a1.534 1.534 0 1 1 0-3.068h37.527a1.535 1.535 0 0 1 0 3.068"/>
        <path fill="#494E5B" d="M108.229 198.128a1.534 1.534 0 1 1 0-3.068 1.534 1.534 0 0 1 0 3.068"/>
        <path fill="#F8C73D" d="M260.298 198.128H125.096a1.534 1.534 0 0 1 0-3.069h135.202a1.534 1.534 0 0 1 0 3.069"/>
        <path fill="#EBA53E" d="M284.56 198.128h-15.6a1.534 1.534 0 1 1 0-3.069h15.6a1.534 1.534 0 0 1 0 3.069"/>
        <path fill="#F8C73D" d="M284.56 197.873h-15.6a1.534 1.534 0 1 1 0-3.069h15.6a1.534 1.534 0 0 1 0 3.069"/>
        <path fill="#494E5B" d="M108.229 207.158a1.534 1.534 0 1 1 0-3.068 1.534 1.534 0 0 1 0 3.068"/>
        <path fill="#146EB4" d="M323.175 207.158H135.69a1.534 1.534 0 0 1 0-3.068h187.485a1.534 1.534 0 0 1 0 3.068"/>
        <path fill="#494E5B" d="M108.229 216.189a1.534 1.534 0 1 1 0-3.069 1.534 1.534 0 0 1 0 3.069"/>
        <path fill="#F58A07" d="M247.654 216.189H135.69a1.534 1.534 0 0 1 0-3.069h111.964a1.534 1.534 0 0 1 0 3.069M284.56 216.189h-28.927a1.534 1.534 0 1 1 0-3.069h28.927a1.534 1.534 0 0 1 0 3.069M323.175 216.189H294.25a1.535 1.535 0 1 1 0-3.069h28.926a1.534 1.534 0 0 1 0 3.069"/>
        <path fill="#494E5B" d="M108.229 225.22a1.535 1.535 0 1 1 0-3.07 1.535 1.535 0 0 1 0 3.07"/>
        <path fill="#EBA53E" d="M132.621 225.22h-7.525a1.534 1.534 0 0 1 0-3.07h7.525a1.534 1.534 0 1 1 0 3.07"/>
        <path fill="#146EB4" d="M99.133 210.571c-3.437-3.908-3.489-9.888-1.684-14.77 1.806-4.88 5.156-9.001 8.117-13.28 2.962-4.28 5.654-9.05 5.821-14.251.31-9.65-7.853-17.28-11.21-26.333a28.838 28.838 0 0 1-1.626-7.077c-2.055-20.51 9.11-43.401 28.93-50.38 2.512-1.116 5.862.559 5.862 3.071.28 5.583-5.024 10.05-5.024 15.911 0 .559.279 1.675.558 1.954 10.05 5.583 12.003 15.633 1.675 22.332-.838.837-1.117 1.954-1.7 2.985-.695 1.78-.776 3.684-.474 5.572.302 1.887.988 3.759 1.828 5.473 1.681 3.43 3.97 6.575 5.212 10.187 3.396 9.868-1.7 20.588-7.757 29.085-6.057 8.498-13.446 16.676-15.423 26.923-.633 3.281-.7 6.747-2.178 9.745-1.48 2.998-5.062 5.366-8.131 4.044l-.61-2.703"/>
        <path fill="#FFF" d="M107.706 180.02l-.274-.33c13.963-11.58 9.81-28.925 5.793-45.7a635.584 635.584 0 0 1-1.027-4.332c-2.227-9.584.794-17.884 3.72-23.16 3.167-5.71 6.914-9.207 6.951-9.242l.292.316c-.148.137-14.746 13.902-10.544 31.988.334 1.44.68 2.885 1.026 4.33 4.047 16.902 8.233 34.38-5.937 46.13"/>
        <path fill="#83A1C8" d="M70.446 152.123c-5.15-5.833-8.568-13.72-7.198-21.38 1.371-7.66 8.592-14.414 16.321-13.505-4.294-6.707-8.723-13.817-9.13-21.77-.406-7.954 4.857-16.794 12.804-17.323 3.373-.225 6.63 1.325 8.941 3.77 2.358 2.566 3.754 5.915 3.475 9.265-1.675-2.233.558-5.024 2.79-5.583 1.397-.279 2.793 0 3.909.838 2.233 1.954 3.629 4.745 3.07 7.536-1.674 6.7-6.42 12.841-3.07 19.82 5.304 10.607 10.05 20.935 12.447 32.451.469 1.87.907 3.75 1.291 5.64.385 1.892.717 3.795.993 5.705.738 5.1 1.052 10.49-.967 15.232-2.406 5.646-7.86 9.732-9.56 15.63-2.696 9.354 4.907 20.093.358 28.7-3.296 6.233-12.145 7.363-17.926 4.16-8.242-4.568-8.446-15.391-6.345-23.489 1.985-7.651 6.362-14.242 5.147-22.587-.421-2.899-1.455-5.411-2.867-7.685-3.658-5.89-9.848-10.177-14.483-15.425"/>
        <path fill="#F8C73D" d="M68.463 209.17h57.566l-15.473 30.82H82.09l-13.628-30.82"/>
        <path fill="#FFF" d="M97.051 207.587c-.058-.125-1.441-3.108-1.72-8.924-.258-5.35.428-14.196 5.153-25.96 6.45-16.06-2.039-32.117-8.237-43.841-2.527-4.779-4.709-8.906-5.36-12.05C84.667 106.07 90.937 93.168 91 93.039l.385.19c-.063.128-6.269 12.9-4.076 23.496.638 3.084 2.807 7.186 5.318 11.936 6.238 11.798 14.78 27.957 8.256 44.203-4.69 11.674-5.376 20.445-5.125 25.747.271 5.74 1.668 8.762 1.682 8.792l-.389.184"/>
        <path fill="#FFF" d="M100.897 172.808l-.427-.05c.843-7.217-.737-18.044-13.047-28.633-7.378-6.348-15.216-9.633-15.295-9.665l.165-.397c.079.032 7.98 3.344 15.41 9.736 6.874 5.913 14.743 15.746 13.194 29.01M90.093 124.73c-2.694-8.972-.213-15.968 2.343-20.257 2.768-4.645 6.225-7.207 6.26-7.232l.253.346c-.034.026-3.43 2.545-6.152 7.12-2.507 4.213-4.94 11.084-2.292 19.9l-.412.123"/>
        <path fill="#FFF" d="M99.373 176.88l-.428-.03c.464-6.795-.601-16.121-8.309-21.96-4.609-3.492-9.469-4.086-9.517-4.091l.049-.427c.05.006 5.026.613 9.728 4.175 7.86 5.955 8.949 15.432 8.477 22.333M114.124 135.952l-.428-.038c.538-6.146 2.402-14.395 8.225-18.785 3.503-2.642 6.729-2.623 6.866-2.623l-.006.43c-.034.007-3.239-.011-6.625 2.554-5.679 4.3-7.502 12.413-8.032 18.462M69.601 131.23a.925.925 0 0 0 0 1.848.925.925 0 0 0 0-1.847zm0 2.277a1.355 1.355 0 0 1-1.353-1.353c0-.746.607-1.353 1.353-1.353.747 0 1.354.607 1.354 1.353s-.607 1.353-1.354 1.353zM131.156 113.168a.67.67 0 1 0 .002 1.34.67.67 0 0 0-.002-1.34zm0 1.768a1.1 1.1 0 0 1 0-2.198 1.1 1.1 0 0 1 0 2.198zM78.003 149.736a.833.833 0 0 0 0 1.664.833.833 0 0 0 0-1.664zm0 2.093a1.263 1.263 0 0 1-1.262-1.26 1.263 1.263 0 0 1 2.524 0c0 .695-.566 1.26-1.262 1.26zM91.848 90.418a.637.637 0 1 0 .002 1.274.637.637 0 0 0-.002-1.274zm0 1.703a1.067 1.067 0 1 1 1.066-1.066c0 .587-.478 1.066-1.066 1.066zM100.641 95.582a.637.637 0 1 0 .002 1.274.637.637 0 0 0-.002-1.274zm0 1.703a1.067 1.067 0 0 1 0-2.133c.588 0 1.067.479 1.067 1.066 0 .588-.479 1.067-1.067 1.067zM124.787 93.656a1.14 1.14 0 0 0 0 2.278 1.14 1.14 0 0 0 0-2.278zm0 2.708a1.57 1.57 0 0 1-1.568-1.57 1.57 1.57 0 0 1 1.568-1.568 1.57 1.57 0 0 1 1.57 1.569 1.57 1.57 0 0 1-1.57 1.569z"/>
        <path fill="#F8C73D" d="M222.674 150.876c0 6.909-5.599 12.51-12.509 12.51s-12.51-5.601-12.51-12.51c0-6.908 5.6-12.51 12.51-12.51s12.509 5.602 12.509 12.51"/>
        <path fill="#FBFAF8" d="M203.67 159.229a.734.734 0 0 0 .509-1.263c-2.732-2.626-2.764-6.442-2.764-6.48a.734.734 0 0 0-1.467 0c0 .181.036 4.484 3.213 7.538a.731.731 0 0 0 .508.205"/>
        <path fill="#0E4E80" d="M262.596 225.184l10.255-52.72-39.393-42.29 2.064-2.9 41.468 43.905-10.372 53.44-4.022.565"/>
        <path fill="#1C1F45" d="M238.001 129.9l4.605 4.875h-4.863l-1.583-1.7 1.841-3.176M274.944 181.725l-3.148-3.837.197-1.01 3.952-.312-1.001 5.16"/>
        <path fill="#FBFAF8" d="M251.237 231.814a.512.512 0 0 1-.513.513h-6.801a.515.515 0 0 1-.515-.513v-5.134c0-.283.232-.512.515-.512h6.8c.285 0 .514.229.514.512v5.134"/>
        <path fill="#0E4E80" d="M264.606 226.96c-16.753 0-30.335 3.91-30.335 10.915h60.672c0-7.005-13.582-10.916-30.337-10.916"/>
        <path fill="#1C1F45" d="M264.606 231.327c-3.046 0-2.438-2.311-1.303-4.359.433-.005.867-.009 1.303-.009 3.699 0 7.242.191 10.52.564-1.691 1.12-6.192 3.804-10.52 3.804"/>
        <path fill="#0E4E80" d="M238.95 133.649a6.425 6.425 0 0 1-9.087-.168 6.426 6.426 0 1 1 9.086.168"/>
        <path fill="#1C1F45" d="M236.643 131.258a3.104 3.104 0 1 1-4.306-4.47 3.104 3.104 0 0 1 4.306 4.47"/>
        <path fill="#0E4E80" d="M281.293 171.8a6.426 6.426 0 1 1-12.851-.002 6.426 6.426 0 0 1 12.851.002"/>
        <path fill="#1C1F45" d="M277.971 171.8a3.103 3.103 0 1 1-6.206 0 3.103 3.103 0 0 1 6.206 0"/>
        <path fill="#0E4E80" d="M271.03 224.902a6.424 6.424 0 1 1-12.848 0 6.425 6.425 0 1 1 12.848 0"/>
        <path fill="#1C1F45" d="M267.71 224.902a3.104 3.104 0 1 1-6.208-.002 3.104 3.104 0 0 1 6.208.002"/>
        <path fill="#0A385C" d="M232.029 138.101l-6.827-7.082 2.894-2.79 6.827 7.083-2.894 2.79"/>
        <path fill="#146EB4" d="M194.426 142.23c12.5-12.049 24.109-19.862 35.4-8.57 10.38 10.38 2.633 23.01-9.867 35.06l-25.533-26.49"/>
        <path fill="#FBFAF8" d="M234.473 126.79a2.135 2.135 0 0 0-2.136 2.136 2.135 2.135 0 1 0 4.272 0c0-1.18-.956-2.136-2.136-2.136M274.867 169.622a2.136 2.136 0 1 0 0 4.272 2.136 2.136 0 1 0 0-4.272M264.606 222.765a2.137 2.137 0 1 0 0 4.273 2.137 2.137 0 0 0 0-4.273"/>
        <path fill="#E6E7E8" d="M185.877 298.645a4.748 4.748 0 0 1-1.704-.317c-3.786-1.442-3.989-6.565-5.39-10.367-1.84-4.987-6.972-8.567-12.287-8.567h-.005c-3.76 0-7.434 1.79-9.902 4.597-2.202 2.503-2.183 7.607-5.122 9.071-.94.466-1.742.678-2.429.678-5.934 0-3.193-15.775-4.142-18.72-1.763-5.465-7.96-8.257-13.68-8.764a34.948 34.948 0 0 0-3.088-.13c-4.893 0-9.787.88-14.688 1.22a48.32 48.32 0 0 1-3.335.122c-4.9 0-9.839-.86-13.772-3.682-4.831-3.466-7.336-10.674-4.018-15.607 2.142-3.186 6.138-4.708 9.973-4.855.25-.01.499-.015.747-.015 3.579 0 7.102.953 10.583 1.826 20.726 5.198 42.09 7.803 63.459 7.803 18.092 0 36.188-1.868 53.89-5.612 2.384-.504 4.823-1.043 7.24-1.043.89 0 1.779.073 2.66.249 3.27.65 6.44 3.136 6.718 6.459.27 3.211-2.244 6.12-5.193 7.42-2.949 1.299-6.27 1.362-9.488 1.515a141.71 141.71 0 0 0-33.588 5.696c3.246.416 5.21 4.14 4.896 7.397-.313 3.257-2.245 6.102-4.116 8.785l-6.162 8.843c-1.979 2.839-4.89 5.998-8.057 5.998"/>
        <path fill="#0E4E80" d="M127.627 226.359l91.43-3.99-5.654 20.664-53.234 22.324-33.902-15.111 1.36-23.887"/>
        <path fill="#E1604E" d="M137.382 217.61l.793 16.252h69.862l1.76-34.021-72.415 17.77"/>
        <path fill="#F58A07" d="M159.848 154.505s-29.834 6.047-35.321 10.551c-5.487 4.505-10.922 59.775-9.068 62.325 1.855 2.55 113.505 5.156 116.079.376 2.574-4.779-11.765-62.019-15.625-64.887-3.86-2.868-46.61-9.008-56.065-8.365"/>
        <path fill="#0F1229" d="M208.044 212.982l-.029-.002a.329.329 0 0 1-.299-.355c.911-10.53.009-40.182 0-40.48a.329.329 0 1 1 .656-.02c.01.298.913 29.99-.001 40.556a.328.328 0 0 1-.327.3M134.336 211.903l-.038-.002a.329.329 0 0 1-.29-.364c1.426-12.465-1.143-38.069-1.17-38.326a.328.328 0 1 1 .654-.066c.027.257 2.603 25.932 1.17 38.467a.329.329 0 0 1-.326.291"/>
        <path fill="#F0B3BD" d="M144.697 225.083l-1.41-5.693a.76.76 0 0 1 .513-.908l1.93-.599a.76.76 0 0 0 .52-.587l.328-1.768a.76.76 0 0 1 .747-.622h1.578a.759.759 0 0 0 .644-.357l.962-1.539a.76.76 0 0 1 1.031-.25l1.827 1.082a.76.76 0 0 0 .758.009l1.072-.6a.76.76 0 0 1 1.004.244l3.842 5.805a.76.76 0 0 1-.238 1.068l-.85.52a.76.76 0 0 1-.966-.146c-.503-.568-1.437-.13-1.32.62l.04.253a.76.76 0 0 1-.415.799l-7.533 3.717a.76.76 0 0 1-.154.057c-.473.117-2.786.602-3.805-.863a.733.733 0 0 1-.105-.242M197.773 225.083l1.408-5.693a.76.76 0 0 0-.512-.908l-1.929-.599a.76.76 0 0 1-.521-.587l-.328-1.768a.76.76 0 0 0-.747-.622h-1.577a.76.76 0 0 1-.645-.357l-.961-1.539a.76.76 0 0 0-1.032-.25l-1.826 1.082a.76.76 0 0 1-.759.009l-1.071-.6a.76.76 0 0 0-1.005.244l-3.84 5.805a.76.76 0 0 0 .236 1.068l.851.52a.76.76 0 0 0 .965-.146c.503-.568 1.437-.13 1.32.62l-.039.253a.76.76 0 0 0 .415.799l7.532 3.717c.05.025.1.043.154.057.473.117 2.787.602 3.805-.863a.733.733 0 0 0 .106-.242"/>
        <path fill="#0F1229" d="M143.266 217.445l-.048-.004-17.861-2.63a.329.329 0 0 1 .096-.65l17.86 2.63a.329.329 0 0 1-.047.654M200.777 218.391a.328.328 0 0 1-.058-.651l14.52-2.59a.328.328 0 1 1 .115.647l-14.52 2.59-.057.004"/>
        <path fill="#F0B3BD" d="M155.08 141.714s-2.506 21.55 12.84 21.55c13.96 0 13.474-18.54 13.474-18.54s1.396-11.475-9.427-12.774c-10.822-1.298-17.54 5.891-16.887 9.764"/>
        <path fill="#0E4E80" d="M177.68 134.643s-3.41 6.68.047 10.073c2.205 2.165 3.18 5.288 2.472 8.297l-.037.161s5.795-4.59 6.868-13.897c1.074-9.308-3.149-15.165-6.725-14.504 0 0-1.423-7.15-10.506-6.482-9.083.669-16.579-.069-19.868 7.132-3.289 7.2 2.444 13.505 2.444 13.505s.448 7.62 3.548 14.25l-1.21-8.898s9.98-13.407 22.967-9.637"/>
        <path fill="#F0B3BD" d="M181.22 145.878l-1.058 7.296s5.158-2.738 5.076-6.453c-.028-1.238-.457-1.922-1.018-2.284-1.197-.771-2.795.032-3 1.441M155.11 143.78l.894 9.394s-4.958-2.873-4.875-6.587c.083-3.715 3.981-2.807 3.981-2.807"/>
        <path fill="#FBFAF8" d="M195.712 194.129h-51.68a4.114 4.114 0 0 0-4.115 4.114v34.108a4.114 4.114 0 0 0 4.114 4.114h51.681a4.114 4.114 0 0 0 4.115-4.114v-34.108a4.115 4.115 0 0 0-4.115-4.114"/>
        <path fill="#6D6374" d="M198.83 238.458h-57.917a.996.996 0 1 1 0-1.993h57.917a.996.996 0 1 1 0 1.993"/>
        <path fill="#95869E" d="M190.212 237.386a.425.425 0 1 1-.85 0 .425.425 0 0 1 .85 0M184.91 237.811h3.428v-.85h-3.428z"/>
        <path fill="#146EB4" d="M108.393 212.513l79.358 48.182c-6.388 5.187-9.944 11.965-11.374 19.935L93.713 239c-8.321-4.19-10.926-14.827-5.482-22.388 4.62-6.418 13.401-8.203 20.162-4.099"/>
        <path fill="#1C1F45" d="M164.803 268.009l-5.04 4.255 9.969 5.02c2.982-2.567 8.798-7.52 9.664-7.85 1.172-.448-14.593-1.425-14.593-1.425"/>
        <path fill="#0E4E80" d="M187.751 260.695l13.218 7.448a2.039 2.039 0 0 1 .767 2.79c-3.487 6.082-15.116 25.732-21.26 28.402 0 0-4.963-1.593-3.062-8.079 1.9-6.488-.657-12.49-.657-12.49s.431-15.12 10.994-18.071"/>
        <path fill="#2E446F" d="M180.475 299.335c6.145-2.67 17.774-22.32 21.26-28.402a2.038 2.038 0 0 0-.232-2.354c-2.361 1.398-12.59 8.502-21.028 30.756"/>
        <path fill="#146EB4" d="M229.408 217.953l-83.847 39.862c5.828 5.81 8.676 12.914 9.288 20.99l86.47-33.01c8.703-3.322 12.376-13.638 7.73-21.714-3.945-6.855-12.498-9.524-19.641-6.128"/>
        <path fill="#0E4E80" d="M145.56 257.815l-13.905 6.065a2.038 2.038 0 0 0-1.047 2.698c2.85 6.403 12.421 27.137 18.262 30.42 0 0 5.098-1.084 3.868-7.728-1.231-6.647 1.923-12.357 1.923-12.357s1.108-15.089-9.1-19.098"/>
        <path fill="#2E446F" d="M148.87 296.997c-5.84-3.282-15.412-24.016-18.262-30.42a2.038 2.038 0 0 1 .471-2.317c2.207 1.63 11.66 9.737 17.791 32.737"/>
        <path fill="#F58A07" d="M115.6 213.157c-.592 7.707-.71 13.442-.14 14.224.52.717 9.721 1.438 22.735 1.999L115.6 213.157M199.332 230.368c17.663-.204 31.325-.975 32.206-2.61.63-1.17.246-5.487-.75-11.38l-31.456 13.99"/>
        <path fill="#0F1229" d="M148.773 256.617a.33.33 0 0 1-.141-.626l15.039-7.15a.328.328 0 1 1 .282.594l-15.04 7.15a.324.324 0 0 1-.14.032"/>
        <path fill="#F58A07" d="M109.455 52.85a3.828 3.828 0 0 1-3.828 3.827H70.354a3.828 3.828 0 0 1-3.828-3.827V33.488a3.828 3.828 0 0 1 3.828-3.827h35.273a3.828 3.828 0 0 1 3.828 3.828v19.36"/>
        <path fill="#FBFAF8" d="M82.315 50.74h2.796l8.047-15.142h-2.796L82.315 50.74M102.175 43.618h-.021l-4.33-6.124h-2.968l4.339 6.141-4.34 5.85h2.97l4.329-5.832h.02l-.01-.018.01-.017M73.807 43.618h.02l4.329-6.124h2.713l-4.34 6.141 4.34 5.85h-2.713l-4.329-5.832h-.02l.01-.018-.01-.017"/>
        <path fill="#146EB4" d="M269.079 89.48a4.578 4.578 0 0 1-4.578 4.578h-42.186a4.578 4.578 0 0 1-4.577-4.578V66.324a4.578 4.578 0 0 1 4.577-4.577h42.186a4.578 4.578 0 0 1 4.578 4.578v23.154"/>
        <path fill="#FBFAF8" d="M231.72 77.124c-.171.23-.48.473-.924.732l-.494.322c.143.115.308.222.494.322.316.202.549.366.7.495.149.13.267.3.354.516.086.216.129.509.129.882v3.933c0 .56.161.961.483 1.205.323.244.864.366 1.624.366v1.633h-.753c-1.147 0-1.967-.2-2.461-.601-.495-.402-.742-1.076-.742-2.022v-4.643c0-.444-.08-.764-.237-.957-.157-.194-.401-.29-.73-.29h-.624v-1.656h.623c.33 0 .574-.096.731-.29.158-.193.237-.513.237-.957v-4.643c0-.932.247-1.602.742-2.01.494-.41 1.314-.613 2.461-.613h.753v1.633c-.76 0-1.3.122-1.624.366-.322.244-.483.646-.483 1.204v3.955c0 .517-.086.889-.258 1.118M258.277 77.361v1.656h-.623c-.33 0-.574.096-.732.29-.157.193-.236.513-.236.957v4.643c0 .946-.247 1.62-.741 2.022-.495.4-1.316.6-2.462.6h-.753v-1.632c.76 0 1.301-.122 1.623-.366.323-.244.484-.646.484-1.205v-3.933c0-.373.043-.666.13-.882.085-.215.203-.387.354-.516.15-.13.384-.293.698-.495.187-.1.352-.207.495-.322l-.495-.322c-.444-.259-.752-.502-.924-.732-.172-.23-.258-.6-.258-1.118v-3.955c0-.558-.16-.96-.484-1.204-.322-.244-.863-.366-1.623-.366v-1.633h.753c1.146 0 1.967.203 2.462.613.494.408.741 1.078.741 2.01v4.643c0 .444.079.764.236.957.158.194.402.29.732.29h.623"/>
        <path fill="#146EB4" d="M244.118 20.188c-1.199 7.501-8.251 12.61-15.753 11.412-7.5-1.199-12.61-8.252-11.412-15.753 1.199-7.501 8.251-12.61 15.753-11.412 7.501 1.199 12.61 8.251 11.412 15.753M12.738 133.167C6.679 132.655 1.352 137.152.84 143.21c-.512 6.06 3.984 11.386 10.043 11.898 6.059.513 11.386-3.984 11.898-10.043.512-6.059-3.984-11.385-10.043-11.898"/>
        <path fill="#F8C73D" d="M305.762 242.797a3.532 3.532 0 0 1-3.532 3.533h-19.035a3.533 3.533 0 0 1-3.533-3.533v-17.87a3.533 3.533 0 0 1 3.533-3.533h19.035a3.533 3.533 0 0 1 3.532 3.533v17.87"/>
        <path fill="#FFFFFE" d="M294.375 226.628h-3.314v1.96a5.445 5.445 0 0 0-.898.373l-1.39-1.39-2.343 2.343 1.387 1.388c-.15.286-.276.585-.374.898h-1.964v3.314h1.96c.098.312.224.612.373.898l-1.389 1.39 2.343 2.343 1.387-1.387c.286.15.585.276.899.374v1.963h3.314v-1.96c.31-.098.611-.223.897-.373l1.39 1.39 2.342-2.343-1.388-1.387c.152-.286.279-.586.377-.898h1.961v-3.314h-1.958a5.535 5.535 0 0 0-.374-.899l1.391-1.39-2.344-2.343-1.388 1.388a5.518 5.518 0 0 0-.897-.374v-1.964zm-.643.644v1.792l.45.142c.27.085.536.196.792.33l.418.22.336-.335.932-.932 1.432 1.433-.935.934-.332.334.218.419c.133.258.244.525.33.793l.14.452h1.79v2.026h-1.79l-.143.45c-.086.27-.197.536-.333.792l-.219.42.336.335.932.932-1.433 1.432-.934-.934-.333-.334-.421.218a4.757 4.757 0 0 1-.792.33l-.453.141v1.79h-2.025v-1.792l-.45-.142a4.888 4.888 0 0 1-.793-.33l-.42-.22-1.266 1.266-1.432-1.432 1.268-1.269-.22-.418a4.887 4.887 0 0 1-.328-.794l-.142-.451h-1.789v-2.026h1.792l.142-.45a4.85 4.85 0 0 1 .33-.793l.22-.42-1.266-1.267 1.432-1.432 1.268 1.269.419-.22a4.9 4.9 0 0 1 .795-.328l.45-.142v-1.789h2.027z"/>
        <path fill="#FFFFFE" d="M292.712 230.379a3.483 3.483 0 0 0 0 6.966 3.485 3.485 0 0 0 3.485-3.483 3.485 3.485 0 0 0-3.485-3.483zm0 .644a2.842 2.842 0 0 1 2.839 2.839 2.842 2.842 0 0 1-2.839 2.839 2.842 2.842 0 0 1-2.838-2.84 2.842 2.842 0 0 1 2.838-2.838z"/>
        <path fill="#F58A07" d="M306.304 56.677c0 7.506-6.086 13.591-13.592 13.591-7.505 0-13.59-6.085-13.59-13.59 0-7.507 6.085-13.592 13.59-13.592 7.506 0 13.592 6.085 13.592 13.591M196.062 43.313c-.08 6.16-5.137 11.087-11.296 11.008-6.159-.08-11.087-5.138-11.007-11.297.08-6.159 5.137-11.087 11.296-11.007 6.159.08 11.087 5.137 11.007 11.296"/>
        <path fill="#FFC53A" d="M39.054 94.221c1.792 5.962-1.588 12.248-7.55 14.04-5.961 1.792-12.247-1.588-14.039-7.55-1.792-5.962 1.588-12.248 7.55-14.04 5.962-1.792 12.247 1.589 14.04 7.55"/>
        <path fill="#95869E" d="M149.727 11.872c1.63 7.27-2.94 14.487-10.212 16.118-7.27 1.632-14.487-2.94-16.118-10.211-1.631-7.27 2.94-14.488 10.211-16.119C140.88.03 148.096 4.6 149.727 11.872"/>
        <path fill="#F8C73D" d="M316.576 122.598a7.866 7.866 0 0 1-15.73 0 7.865 7.865 0 0 1 15.73 0"/>
        <path fill="#146EB4" d="M57.22 216.208c0 6.687-5.42 12.108-12.107 12.108-6.687 0-12.108-5.421-12.108-12.108 0-6.686 5.421-12.107 12.108-12.107 6.686 0 12.107 5.42 12.107 12.107"/>
        <path fill="#95869E" d="M272.731 127.126c-6.932 0-12.552 5.62-12.552 12.553 0 6.932 5.62 12.552 12.552 12.552 6.933 0 12.553-5.62 12.553-12.552 0-6.933-5.62-12.553-12.553-12.553"/>
        <path fill="#F58A07" d="M95.806.952a36.72 36.72 0 0 0-1.861-.114l.01-.311c.604.02 1.236.059 1.877.114l-.026.31zm-6.196.065l-.04-.31a24.184 24.184 0 0 1 1.877-.165l.015.312c-.634.032-1.257.087-1.852.163zm10.514.5a79.861 79.861 0 0 0-1.847-.282l.044-.31c.571.081 1.178.174 1.854.285l-.05.308zM85.41 2.04l-.11-.292a17.32 17.32 0 0 1 1.8-.57l.078.302c-.608.158-1.203.346-1.768.56zm19.017.226c-.539-.093-1.078-.188-1.616-.284l-.229-.04.055-.308.228.04c.539.096 1.077.192 1.615.285l-.053.307zm4.33.645a56.998 56.998 0 0 1-1.862-.245l.046-.31c.661.099 1.267.178 1.85.245l-.035.31zm4.103.254c-.52 0-1.06-.015-1.607-.043l.016-.312c.542.028 1.077.042 1.59.042h.272l.003.311-.274.002zm-31.19.992l-.198-.241c.493-.405 1.016-.771 1.552-1.087l.158.269a11.93 11.93 0 0 0-1.512 1.059zm-7.925 2.197l-.053-.308a44.019 44.019 0 0 1 1.86-.278l.04.309a44.183 44.183 0 0 0-1.846.277zm10.43.201a13.353 13.353 0 0 0-1.792-.453l.055-.307c.639.117 1.256.273 1.835.464l-.098.296zm-14.68.742l-.083-.3a45.885 45.885 0 0 1 1.823-.458l.07.304c-.602.138-1.21.29-1.81.454zm9.375.115l-.268-.159c.29-.49.62-.965.98-1.417-.493-.01-.995-.002-1.517.021l-.014-.311a23.03 23.03 0 0 1 1.884-.013l-.01.312-.063-.002.07.057c-.393.48-.75.988-1.062 1.512zM65.355 8.641l-.11-.292a47.49 47.49 0 0 1 1.77-.627l.098.296c-.587.195-1.18.404-1.758.623zm22.508.05a8.095 8.095 0 0 0-1.401-1.086l-.051-.031.16-.268.054.033a8.432 8.432 0 0 1 1.455 1.128l-.217.224zm-26.507 1.667l-.136-.281a49.331 49.331 0 0 1 1.705-.785l.125.286c-.565.247-1.135.51-1.694.78zm16.078 1.083l-.31-.04c.08-.615.224-1.238.426-1.852l.296.098a9.834 9.834 0 0 0-.412 1.794zm12.685.852a8.506 8.506 0 0 0-.748-1.676l.27-.157c.324.559.585 1.143.775 1.738l-.297.095zm-32.594.13l-.16-.268a51.02 51.02 0 0 1 1.63-.932l.15.274c-.544.297-1.089.609-1.62.925zm-3.64 2.386l-.182-.253a51.815 51.815 0 0 1 1.544-1.067l.173.26c-.514.34-1.03.697-1.535 1.06zm23.79.957a8.144 8.144 0 0 1-.522-1.834l.309-.05a7.846 7.846 0 0 0 .5 1.762l-.286.122zm12.74.821l-.293-.108a5.72 5.72 0 0 0 .346-1.782l.311.011a6.019 6.019 0 0 1-.365 1.88zm-39.959.905l-.202-.237a52.85 52.85 0 0 1 1.45-1.192l.194.244c-.486.385-.97.784-1.442 1.185zm30.18 1.518a7.79 7.79 0 0 1-1.515-1.155l.218-.222a7.48 7.48 0 0 0 1.455 1.108l-.158.27zm6.742.712l-.117-.29a5.054 5.054 0 0 0 1.533-.955l.21.23a5.356 5.356 0 0 1-1.626 1.015zm-2.499.46a8.19 8.19 0 0 1-1.89-.228l.071-.304a7.867 7.867 0 0 0 1.82.219l-.001.312zm-37.619.267l-.221-.22c.439-.44.892-.88 1.348-1.307l.213.228c-.453.424-.904.861-1.34 1.3zm-2.946 3.209l-.238-.202c.403-.476.82-.952 1.237-1.413l.232.21c-.416.459-.83.931-1.23 1.405zm-2.673 3.438l-.254-.181c.363-.51.74-1.017 1.118-1.51l.247.19c-.376.49-.75.995-1.111 1.501zm-2.381 3.648l-.268-.16c.319-.536.652-1.073.989-1.597l.262.17c-.335.52-.666 1.054-.983 1.587zm-2.065 3.835l-.281-.136c.271-.56.557-1.124.85-1.675l.276.146a50.977 50.977 0 0 0-.845 1.665zm-1.726 3.997l-.292-.11c.222-.583.458-1.17.701-1.743l.287.122c-.242.57-.476 1.152-.696 1.731zm-1.362 4.134l-.3-.084c.166-.596.348-1.2.54-1.798l.297.096a47.495 47.495 0 0 0-.537 1.786zm-.974 4.239l-.307-.056c.11-.61.235-1.23.37-1.84l.305.069a46.49 46.49 0 0 0-.368 1.827zm-.564 4.311l-.31-.026c.05-.62.114-1.249.19-1.867l.31.038c-.075.615-.14 1.238-.19 1.855zM251.627 15.957l-.03-.31a17.47 17.47 0 0 1 1.693-.082h.193l-.004.313-.19-.001c-.555 0-1.115.027-1.662.08zm6.136.489c-.6-.153-1.212-.277-1.819-.369l.047-.308c.617.093 1.239.219 1.849.374l-.077.303zm4.047 1.525a20.143 20.143 0 0 0-1.693-.763l.115-.29c.58.23 1.159.49 1.72.774l-.142.279zm3.63 2.355c-.478-.388-.98-.76-1.493-1.104l.173-.259c.52.35 1.031.727 1.517 1.121l-.197.242zm3.041 3.077c-.38-.482-.791-.953-1.22-1.4l.226-.216c.435.455.852.933 1.239 1.423l-.245.193zm2.265 3.68a17.886 17.886 0 0 0-.863-1.642l.269-.16c.322.544.618 1.106.877 1.672l-.283.13zm1.293 4.118a17.329 17.329 0 0 0-.425-1.804l.299-.088c.176.6.322 1.218.433 1.838l-.307.054zm.565 4.333l-.311-.018a18.982 18.982 0 0 0 .016-1.856l.312-.013a19.32 19.32 0 0 1-.016 1.887zm-.733 4.332l-.3-.084c.168-.597.31-1.205.423-1.809l.307.057c-.114.613-.259 1.231-.43 1.836zm-1.64 4.076l-.276-.146c.29-.543.557-1.107.797-1.678l.288.12c-.244.58-.516 1.154-.81 1.704zm-2.478 3.63l-.236-.204c.4-.464.784-.957 1.142-1.464l.254.18a19.392 19.392 0 0 1-1.16 1.488zm-3.24 2.97l-.181-.255a17.44 17.44 0 0 0 1.45-1.156l.207.234c-.472.418-.969.814-1.476 1.176zM293.324 77.521l-.273-.154c.31-.548.678-1.072 1.09-1.556l.238.202c-.4.47-.754.977-1.055 1.508zm-1.293 4.076l-.307-.035c.07-.639.19-1.265.358-1.86l.3.084c-.164.58-.281 1.189-.351 1.81zm-.07 4.357a14.899 14.899 0 0 1-.27-1.87l.311-.026c.048.602.137 1.22.263 1.833l-.304.063zm1.426 4.158a18.297 18.297 0 0 1-.735-1.738l.291-.107c.21.576.453 1.15.726 1.71l-.282.135zm2.354 3.712a18.836 18.836 0 0 1-1.112-1.524l.26-.172c.339.519.71 1.023 1.096 1.5l-.244.196zm3.137 3.076a26.354 26.354 0 0 1-1.423-1.234l.215-.228c.444.415.916.825 1.404 1.22l-.196.242zm3.599 2.505a36.08 36.08 0 0 1-1.581-1.014l.174-.259c.498.338 1.027.676 1.568 1.006l-.161.267zm3.846 2.099a60.013 60.013 0 0 1-1.67-.861l.15-.275c.522.28 1.064.56 1.66.856l-.14.28zm3.951 1.872c-.567-.26-1.134-.522-1.701-.787l.133-.282c.564.264 1.13.525 1.698.785l-.13.284zm3.964 1.835c-.564-.268-1.128-.532-1.695-.794l.13-.283c.57.262 1.134.526 1.698.795l-.133.282zm3.874 1.99c-.532-.302-1.083-.6-1.64-.887l.142-.278c.56.29 1.118.59 1.65.894l-.152.271zm3.657 2.356a35.608 35.608 0 0 0-1.534-1.061l.171-.261c.533.35 1.055.709 1.546 1.07l-.183.252zm3.31 2.81a26.267 26.267 0 0 0-1.365-1.265l.203-.237c.485.418.95.85 1.384 1.28l-.221.222zm2.76 3.338c-.332-.504-.7-1.008-1.096-1.5l.244-.195c.402.499.776 1.011 1.112 1.523l-.26.172zm1.885 3.876a15.188 15.188 0 0 0-.678-1.72l.285-.133c.267.577.501 1.169.691 1.758l-.298.095zm.678 4.247c0-.612-.04-1.22-.123-1.819l.304-.07.006.027c.083.613.124 1.236.124 1.852l-.31.01zm-.38 4.343l-.298-.095c.19-.592.343-1.196.453-1.794l.305.056c-.111.612-.267 1.228-.46 1.833zm-1.885 3.968l-.263-.169c.336-.527.646-1.069.916-1.61l.279.14c-.276.55-.59 1.103-.932 1.639zm-2.77 3.41l-.218-.22c.44-.44.865-.9 1.255-1.368l.24.2c-.398.475-.826.942-1.276 1.389zm-3.396 2.783l-.174-.26a23.633 23.633 0 0 0 1.502-1.096l.193.244a23.36 23.36 0 0 1-1.52 1.112zm-3.865 2.092l-.12-.288c.567-.24 1.13-.507 1.679-.795l.146.276c-.555.292-1.128.563-1.705.807zm-24.085.934c-.618-.104-1.233-.21-1.848-.32l.054-.306c.615.108 1.23.215 1.844.318l-.05.308zm19.897.385l-.067-.305a29.232 29.232 0 0 0 1.8-.467l.088.299c-.592.175-1.207.334-1.821.473zm-15.573.267a100.88 100.88 0 0 1-1.856-.26l.044-.308c.618.092 1.236.178 1.854.258l-.042.31zm11.238.4l-.028-.311a34.764 34.764 0 0 0 1.853-.213l.045.309a35.08 35.08 0 0 1-1.87.215zm-6.881.034a63.507 63.507 0 0 1-1.873-.153l.032-.31c.63.06 1.258.112 1.86.152l-.02.311zm3.346.116c-.282 0-.564-.003-.846-.008l.006-.312c.624.01 1.245.01 1.866-.005l.006.312c-.342.008-.687.013-1.032.013zM23.77 155.627a26.392 26.392 0 0 1-.786-1.712l.288-.12a26.1 26.1 0 0 0 .776 1.69l-.278.142zm2.282 3.748A27.847 27.847 0 0 1 25 157.814l.265-.165c.327.522.677 1.042 1.04 1.543l-.253.183zm2.838 3.347a29.418 29.418 0 0 1-1.279-1.381l.236-.204c.403.464.828.924 1.265 1.366l-.222.219zm3.31 2.88c-.5-.373-.996-.768-1.472-1.173l.203-.238c.47.401.96.792 1.455 1.162l-.187.25zm3.701 2.358a29.503 29.503 0 0 1-1.63-.942l.165-.265c.527.326 1.069.64 1.613.931l-.148.276zm4.016 1.768a28.305 28.305 0 0 1-1.754-.682l.122-.287c.573.245 1.156.472 1.735.675l-.103.294zm4.245 1.116c-.611-.108-1.23-.241-1.841-.394l.076-.303c.603.152 1.215.283 1.82.39l-.055.307zM167.907 7.689l-.039-.31a24.8 24.8 0 0 1 1.877-.163l.015.311c-.597.029-1.22.083-1.853.162zm6.165.126a17.205 17.205 0 0 0-1.838-.249l.025-.31c.637.051 1.266.137 1.871.253l-.058.306zm-10.433.7l-.076-.303a45.14 45.14 0 0 1 1.831-.42l.063.306c-.58.12-1.174.256-1.818.417zm14.49.728a12.744 12.744 0 0 0-1.68-.767l.109-.292a13.07 13.07 0 0 1 1.722.786l-.15.273zm-18.693.44l-.088-.299c.599-.175 1.199-.35 1.8-.521l.085.3c-.6.17-1.2.346-1.797.52zm21.955 2.32a9.622 9.622 0 0 0-1.25-1.351l.208-.233a9.9 9.9 0 0 1 1.29 1.394l-.248.19zm1.777 3.873a9.165 9.165 0 0 0-.545-1.755l.287-.122c.25.593.44 1.203.563 1.815l-.305.062zm5.384 3.113a18.02 18.02 0 0 0-1.85-.135l.006-.312c.628.013 1.261.06 1.882.137l-.038.31zm4.186 1.054a17.113 17.113 0 0 0-1.76-.58l.082-.3c.602.162 1.197.357 1.77.58l-.033.155-.059.145zm-9.6.157l-.29-.116c.017-.041.032-.082.048-.124.1-.27.182-.547.248-.83-.25.045-.497.096-.741.15l-.07-.304c.29-.065.584-.123.879-.174.03-.162.053-.326.072-.49l.31.034a7.346 7.346 0 0 1-.056.402c.219-.033.437-.063.657-.088l.036.31c-.252.029-.504.064-.755.104a7.168 7.168 0 0 1-.338 1.126zm-4.787.565l-.146-.275c.55-.292 1.128-.555 1.72-.784l.113.292a15.81 15.81 0 0 0-1.687.767zm18.213 1.297a20.214 20.214 0 0 0-1.584-.97l.15-.273c.545.3 1.087.631 1.609.985l-.175.258zm-21.678 1.256l-.222-.22c.44-.442.918-.863 1.42-1.25l.19.249c-.491.377-.959.789-1.388 1.221zm5.363.19l-.16-.268a7.003 7.003 0 0 0 1.433-1.132l.224.217a7.339 7.339 0 0 1-1.497 1.183zm-3.456.993c-.282 0-.563-.02-.834-.061l.047-.308c.579.086 1.198.074 1.813-.035l.054.307a6.18 6.18 0 0 1-1.08.097zm23.094.338a22.769 22.769 0 0 0-1.357-1.27l.204-.237c.47.405.932.838 1.375 1.288l-.222.219zm2.748 3.352a25.277 25.277 0 0 0-1.105-1.496l.244-.195c.389.487.765.997 1.119 1.515l-.258.176zm2.14 3.774c-.26-.56-.542-1.119-.841-1.66l.274-.151c.302.548.588 1.113.85 1.68l-.284.131zm1.501 4.072a29.848 29.848 0 0 0-.542-1.708l-.023-.067.294-.103.023.065c.199.566.383 1.146.548 1.728l-.3.085zm.897 4.25a33.417 33.417 0 0 0-.314-1.836l.305-.061c.122.606.228 1.23.318 1.854l-.31.044zm.356 4.334a38.897 38.897 0 0 0-.091-1.862l.311-.023c.045.612.076 1.244.092 1.877l-.312.008zm.197 4.373l-.31-.023c.046-.627.08-1.254.1-1.863l.312.01c-.02.613-.054 1.245-.102 1.876zm-.516 4.35l-.308-.05c.099-.615.188-1.236.265-1.847l.31.038c-.078.615-.167 1.24-.267 1.86z"/>
    </g>
</svg>
