<svg xmlns="http://www.w3.org/2000/svg" width="246" height="250" viewBox="0 0 246 250">
    <g fill="none" fill-rule="evenodd">
        <path fill="#146EB4" d="M4.794 240.57h169.731c2.481 0 4.492 2.011 4.492 4.491v.092c0 2.48-2.011 4.491-4.492 4.491H4.795a4.491 4.491 0 0 1-4.492-4.49v-.093c0-2.48 2.01-4.49 4.491-4.49M162.373 228.06h78.242a4.49 4.49 0 0 1 4.49 4.49v.091a4.49 4.49 0 0 1-4.49 4.491h-78.242a4.491 4.491 0 0 1-4.492-4.49v-.091a4.49 4.49 0 0 1 4.492-4.492"/>
        <path fill="#FFC53A" d="M41.556.66H12.243a3.719 3.719 0 0 0-3.72 3.718V20.72a3.72 3.72 0 0 0 3.72 3.72H27.98v9.16l8.979-9.16h4.596a3.72 3.72 0 0 0 3.72-3.72V4.378A3.718 3.718 0 0 0 41.555.66"/>
        <path fill="#FFFFFE" d="M19.64 16.807l-4.25-4.25a.624.624 0 0 1 0-.881l4.13-4.132.883.881-3.691 3.691 3.809 3.81-.882.88M34.64 17.015l-.88-.88 3.9-3.9-3.9-3.9.88-.88 4.34 4.34a.621.621 0 0 1 0 .88l-4.34 4.34M24.67 19.979l-1.138-.505 6.713-15.102 1.138.505-6.713 15.102"/>
        <path fill="#0C436E" d="M95.214 214.252h43.185v-31.957H95.214z"/>
        <path fill="#0E4E80" d="M75.204 215.126v.086a4.308 4.308 0 0 0 4.309 4.308H154.1a4.308 4.308 0 0 0 4.309-4.308v-.086a4.31 4.31 0 0 0-4.31-4.31H79.514a4.309 4.309 0 0 0-4.309 4.31"/>
        <path fill="#146EB4" d="M34.285 80.835H199.48c4.649 0 8.452 3.804 8.452 8.454v89.896c0 4.648-3.803 8.453-8.452 8.453H34.285c-4.648 0-8.451-3.805-8.451-8.453V89.289c0-4.65 3.803-8.454 8.45-8.454"/>
        <path fill="#E6E7E8" d="M31.442 172.544h170.88V85.766H31.442z"/>
        <path fill="#83A1C8" d="M176.173 115.499h18.169V91.221h-18.17zM39.423 115.499h131.012V91.221H39.423V115.5zm65.949-13.228l-.717 10.347 3.866.185.145-3.03h.002l.134-2.794h-.002l.122-2.518-3.55-2.19zM75.763 147.364H47.304c-.017-2.441-1.94-4.96-4.478-6.42-1.746-1.004-3.679-3.514-2.941-5.725.777-2.328.385-3.983-.462-5.134v-6.999h36.34v24.278M82.456 147.364h111.886v-10.2H82.456z"/>
        <path fill="#FFC53A" d="M82.456 133.285h111.886v-10.199H82.456z"/>
        <path fill="#83A1C8" d="M194.342 167.089H39.422v-13.49a13.181 13.181 0 0 0 3.64-1.02c.32-.144.636-.301.94-.472h150.34v14.982"/>
        <path fill="#F58A07" d="M61.779 172.915h111.84v-12.863H61.78z"/>
        <path fill="#FFFFFE" d="M71.918 164.706h1.253v-4.654h-1.253zM67.569 166.74h1.253v-6.688h-1.253zM80.63 164.706h1.253v-4.654h-1.254zM76.28 166.74h1.254v-6.688H76.28zM89.341 164.706h1.253v-4.654H89.34zM84.993 166.74h1.252v-6.688h-1.252zM98.053 164.706h1.253v-4.654h-1.253zM93.704 166.74h1.253v-6.688h-1.253zM106.765 164.706h1.252v-4.654h-1.252zM102.416 166.74h1.253v-6.688h-1.253zM115.476 164.706h1.253v-4.654h-1.253zM111.127 166.74h1.253v-6.688h-1.253zM124.188 164.706h1.252v-4.654h-1.252zM119.84 166.74h1.252v-6.688h-1.253zM132.9 164.706h1.252v-4.654H132.9zM128.55 166.74h1.254v-6.688h-1.253zM141.611 164.706h1.253v-4.654h-1.253zM137.261 166.74h1.254v-6.688h-1.254zM150.322 164.706h1.254v-4.654h-1.254zM145.973 166.74h1.254v-6.688h-1.254zM159.034 164.706h1.253v-4.654h-1.253zM154.686 166.74h1.252v-6.688h-1.252zM167.746 164.706h1.253v-4.654h-1.253zM163.397 166.74h1.253v-6.688h-1.253z"/>
        <path fill="#F58A07" d="M136.027 95.091H97.74a9.537 9.537 0 0 1-9.538-9.536V70.51a9.537 9.537 0 0 1 9.538-9.537h38.288c5.268 0 9.537 4.27 9.537 9.537v15.045a9.537 9.537 0 0 1-9.537 9.536"/>
        <path fill="#FFF" d="M105.958 80.11l3.084.978c-.473 1.72-1.26 2.995-2.359 3.83-1.1.834-2.493 1.252-4.183 1.252-2.092 0-3.81-.716-5.157-2.144-1.346-1.43-2.02-3.382-2.02-5.86 0-2.62.678-4.657 2.032-6.107 1.353-1.45 3.132-2.174 5.338-2.174 1.926 0 3.491.57 4.694 1.708.716.673 1.253 1.64 1.611 2.9l-3.147.751c-.187-.816-.574-1.46-1.166-1.933-.59-.472-1.308-.708-2.153-.708-1.168 0-2.115.42-2.84 1.256-.729.838-1.092 2.196-1.092 4.072 0 1.99.358 3.408 1.074 4.253.717.844 1.647 1.267 2.793 1.267.845 0 1.573-.268 2.18-.805.61-.537 1.046-1.383 1.311-2.535M110.965 80.777l3.093-.3c.187 1.037.563 1.8 1.134 2.287.568.486 1.336.731 2.303.731 1.024 0 1.795-.218 2.315-.65.518-.434.778-.941.778-1.52 0-.372-.11-.69-.327-.951-.22-.262-.6-.489-1.144-.682-.372-.13-1.22-.358-2.545-.688-1.705-.422-2.901-.941-3.589-1.558-.966-.865-1.45-1.922-1.45-3.168 0-.802.228-1.553.682-2.252.455-.697 1.11-1.228 1.967-1.593.855-.366 1.888-.548 3.097-.548 1.978 0 3.464.432 4.465 1.299.997.867 1.523 2.023 1.572 3.47l-3.179.14c-.136-.81-.428-1.392-.876-1.746-.447-.355-1.118-.532-2.013-.532-.923 0-1.647.19-2.17.57-.337.243-.504.57-.504.977 0 .372.157.692.472.956.402.337 1.376.687 2.922 1.052 1.546.366 2.69.744 3.431 1.134.74.39 1.32.924 1.741 1.6.418.677.628 1.513.628 2.509a4.63 4.63 0 0 1-.752 2.535c-.501.788-1.211 1.372-2.127 1.756-.916.383-2.06.574-3.426.574-1.99 0-3.52-.46-4.586-1.38-1.068-.92-1.705-2.26-1.912-4.022M125.637 80.777l3.094-.3c.185 1.037.563 1.8 1.134 2.287.567.486 1.336.731 2.303.731 1.024 0 1.795-.218 2.315-.65.518-.434.78-.941.78-1.52 0-.372-.11-.69-.328-.951-.22-.262-.6-.489-1.145-.682-.372-.13-1.221-.358-2.546-.688-1.704-.422-2.9-.941-3.588-1.558-.966-.865-1.45-1.922-1.45-3.168 0-.802.227-1.553.682-2.252.455-.697 1.11-1.228 1.967-1.593.854-.366 1.888-.548 3.098-.548 1.977 0 3.464.432 4.465 1.299.996.867 1.522 2.023 1.572 3.47l-3.18.14c-.136-.81-.428-1.392-.876-1.746-.447-.355-1.118-.532-2.013-.532-.924 0-1.647.19-2.17.57a1.15 1.15 0 0 0-.505.977c0 .372.157.692.473.956.401.337 1.375.687 2.921 1.052 1.548.366 2.691.744 3.434 1.134.739.39 1.32.924 1.74 1.6.417.677.627 1.513.627 2.509a4.63 4.63 0 0 1-.752 2.535c-.5.788-1.21 1.372-2.127 1.756-.916.383-2.058.574-3.426.574-1.991 0-3.52-.46-4.587-1.38-1.067-.92-1.704-2.26-1.912-4.022"/>
        <path fill="#FFFFFE" d="M1.802 234.713v2.954c0 1.632 1.292 2.955 2.886 2.955h107.606c1.593 0 2.886-1.323 2.886-2.955v-2.954H1.802"/>
        <path fill="#A6A6C7" d="M109.672 234.713v-62.5c0-3.476-2.754-6.295-6.15-6.295H13.46c-3.397 0-6.151 2.819-6.151 6.295v62.5h102.363"/>
        <path fill="#146EB4" d="M12.674 229.879h91.632v-57.995H12.674z"/>
        <path fill="#FFF" d="M91.003 191.738h9.652v-16.256h-9.652zM16.326 191.738h69.597v-16.256H16.326zM16.326 213.074H35.63v-16.256H16.326zM39.186 213.074h59.437v-16.256H39.186z"/>
        <path fill="#FFC53A" d="M16.326 226.282h82.297v-7.62H16.326z"/>
        <path fill="#F58A07" d="M71.965 193.788H48.991a4.1 4.1 0 0 1-4.088-4.087v-12.183a4.1 4.1 0 0 1 4.088-4.088h22.974a4.1 4.1 0 0 1 4.087 4.088v12.183a4.1 4.1 0 0 1-4.087 4.087"/>
        <path fill="#FFFFFE" d="M48.374 187.025v-6.831h1.379v2.688h2.703v-2.688h1.38v6.831h-1.38v-2.987h-2.703v2.987h-1.379M56.799 187.025v-5.675h-2.027v-1.156h5.43v1.156h-2.023v5.675h-1.38M61.074 187.025v-6.831h2.063l1.24 4.66 1.226-4.66h2.07v6.831H66.39v-5.378l-1.357 5.378h-1.328l-1.35-5.378v5.378h-1.282M69.08 187.025v-6.775h1.38v5.625h3.43v1.15h-4.81"/>
        <path fill="#4F9EDB" d="M164.422 222.445v-37.239c0-3.087 2.526-5.614 5.614-5.614h61.235c3.087 0 5.614 2.527 5.614 5.614v37.24c0 3.086-2.527 5.613-5.614 5.613h-61.235c-3.088 0-5.614-2.527-5.614-5.614"/>
        <path fill="#FFF" d="M171.427 225.503h58.964v-43.354h-58.964z"/>
        <path fill="#F58A07" d="M215.664 211.807h-29.51a4.662 4.662 0 0 1-4.647-4.648v-6.667a4.661 4.661 0 0 1 4.648-4.647h29.509a4.661 4.661 0 0 1 4.647 4.647v6.667a4.662 4.662 0 0 1-4.647 4.648"/>
        <path fill="#FFFFFE" d="M186.385 202.02h.727v2.285c0 .298-.027.528-.08.689a.976.976 0 0 1-.383.506c-.185.127-.43.19-.733.19-.357 0-.63-.099-.823-.298-.19-.2-.289-.493-.29-.878l.686-.079c.01.207.038.353.091.439.08.129.199.194.36.194.163 0 .277-.046.346-.14.066-.093.1-.285.1-.576v-2.332M189.8 204.2l-.497-1.338-.487 1.339h.984zm1.342 1.429h-.793l-.315-.82h-1.442l-.298.82h-.773l1.405-3.61h.771l1.445 3.61zM192.075 205.629l-1.29-3.61h.79l.914 2.672.883-2.671h.773l-1.292 3.609h-.778M196.056 204.2l-.498-1.338-.487 1.339h.985zm1.342 1.429h-.793l-.315-.82h-1.443l-.298.82h-.773l1.406-3.61h.77l1.446 3.61zM198.813 204.454l.71-.068c.041.237.128.413.26.525.129.11.305.167.526.167.235 0 .412-.05.531-.15a.44.44 0 0 0 .179-.347.328.328 0 0 0-.075-.219.607.607 0 0 0-.262-.156 9.112 9.112 0 0 0-.585-.157c-.39-.097-.663-.217-.822-.356a.942.942 0 0 1-.331-.727c0-.185.052-.357.155-.517a.987.987 0 0 1 .451-.365c.196-.084.434-.125.71-.125.453 0 .794.098 1.024.297.228.2.349.463.36.795l-.73.032c-.03-.185-.096-.318-.2-.4-.102-.08-.256-.121-.46-.121-.212 0-.379.044-.497.13a.257.257 0 0 0-.117.224c0 .086.036.159.108.219.093.077.316.158.67.242.355.083.617.17.787.26.17.089.302.211.398.366.096.155.144.347.144.576a1.059 1.059 0 0 1-.66.982c-.21.087-.472.133-.784.133-.457 0-.808-.106-1.052-.317-.245-.211-.39-.518-.438-.923M204.67 204.302l.705.224c-.107.395-.288.687-.54.877-.25.192-.57.288-.958.288-.48 0-.874-.164-1.182-.492-.309-.327-.462-.775-.462-1.342 0-.601.154-1.068.464-1.4.31-.332.719-.498 1.225-.498.44 0 .8.13 1.075.391.165.154.287.376.369.664l-.72.173a.772.772 0 0 0-.269-.443.761.761 0 0 0-.493-.163.824.824 0 0 0-.65.288c-.167.192-.25.503-.25.934 0 .455.082.78.245.974.165.194.378.291.64.291a.73.73 0 0 0 .5-.185c.139-.123.24-.317.3-.581M206.733 203.546h.538c.35 0 .568-.014.655-.044a.395.395 0 0 0 .205-.152.47.47 0 0 0 .075-.272.433.433 0 0 0-.098-.294.457.457 0 0 0-.275-.142 6.432 6.432 0 0 0-.533-.011h-.567v.915zm-.729 2.083v-3.61h1.534c.386 0 .666.034.84.099.176.065.315.18.42.345.105.166.157.356.157.568 0 .27-.08.495-.238.671-.16.176-.397.288-.714.334.158.092.288.193.39.303.102.11.242.305.415.586l.44.704h-.871l-.526-.786a5.35 5.35 0 0 0-.385-.53.567.567 0 0 0-.22-.15 1.179 1.179 0 0 0-.366-.04h-.147v1.506h-.729zM209.62 205.629h.729v-3.61h-.73zM211.771 202.631v1.023h.4c.287 0 .478-.018.576-.055a.489.489 0 0 0 .228-.178.488.488 0 0 0 .082-.281.467.467 0 0 0-.116-.325.5.5 0 0 0-.293-.16 3.353 3.353 0 0 0-.524-.024h-.353zm-.728 2.998v-3.61h1.17c.442 0 .731.019.866.055a.94.94 0 0 1 .519.353c.14.181.21.416.21.704 0 .221-.04.407-.122.558a.97.97 0 0 1-.305.355 1.07 1.07 0 0 1-.379.172 4.158 4.158 0 0 1-.755.052h-.476v1.361h-.728zM215.218 205.629v-2.998h-1.07v-.611h2.867v.611h-1.068v2.998h-.729"/>
        <path fill="#F58A07" d="M52.436 46.278c-.741 1.574-6.241 11.944-22.097 11.677l.05-2.891c14.779.249 19.288-9.682 19.474-10.11l2.656 1.142-.083.182"/>
        <path fill="#F0B3BD" d="M27.17 54.121c-.584.38-.98.942-1.165 1.56l2.355 3.616a2.814 2.814 0 0 0 1.899-.435 2.829 2.829 0 0 0-3.089-4.741M56.64 88.295c-.237-.627-5.787-15.462-5.787-24.541h3.295c0 8.479 5.519 23.232 5.574 23.38l-3.083 1.161M40.213 78.523l-6.175-8.826a1.65 1.65 0 0 1 .48-2.344l8.505-5.289 1.74 2.797-7.028 4.37 5.177 7.403-2.699 1.89"/>
        <path fill="#1A203C" d="M58.166 30.423s-2.173-2.624-3.157-3.47c-1.8-1.547-3.286.164-3.286.164-8.962-1.376-10.646 11.422-6.563 14.613 3.307 2.585 6.068.803 6.068.803s1.867 1.392 4.724 1.831c1.77.272 3.906-.888 3.906-.888s2.501 1.786 4.417-.858c1.917-2.644-.918-5.448-2.424-5.475 0 0 1.804-2.172-.669-3.613-.976-.568-3.016-3.107-3.016-3.107"/>
        <path fill="#F0B3BD" d="M47.082 46.327c-.603-.307-1.091-1.221-.37-2.058.71-.824 1.807-1.28 2.982-1.326l.304-.012a3.262 3.262 0 0 1 2.612 1.151c-.5 1.546-3.894 2.87-5.528 2.245"/>
        <path fill="#F0B3BD" d="M48.896 40.578l-.076 3.825 1.917.034.06-3.19.025-1.235c-.579.39-1.239.598-1.926.566"/>
        <path fill="#E15D7B" d="M48.87 41.908l.026-1.33a3.209 3.209 0 0 0 1.926-.566l-.02.99c-.43.501-1.254.804-1.933.906"/>
        <path fill="#F0B3BD" d="M47.826 40.577a5.553 5.553 0 0 0 4.965.018 5.544 5.544 0 0 0 2.503-2.487l.982-1.953c.715-1.42.764-3 .264-4.385a5.541 5.541 0 0 0-2.732-3.083 5.556 5.556 0 0 0-7.468 2.47l-.983 1.953a5.559 5.559 0 0 0 2.469 7.467"/>
        <path fill="#1A203C" d="M53.968 34.819c-3.99.65-4.43-3.653-4.203-5.423.476-3.702 5.31-2.988 7.002-1.146 1.05 1.141 2.912 4.232 2.108 8.072-.803 3.84-4.722 6.227-4.722 6.227-4.307-3.159.143-6.183.143-6.183l-.328-1.547"/>
        <path fill="#83CCD8" d="M45.32 59.671a5.278 5.278 0 1 0 10.29 2.343 5.278 5.278 0 0 0-10.29-2.343"/>
        <path fill="#FFFEFE" d="M48.265 37.55a1.487 1.487 0 0 1-2.609-1.314l2.61 1.313"/>
        <path fill="#F58A07" d="M41.43 62.35c6.973 6.048 15.62 9.013 15.62 9.013-1.69-3.62 2.211-8.046-1.79-12.68-1.652-1.914-10.074.872-10.074.872L41.43 62.35M44.278 47.211c-.36.994.644 1.998 1.697 2.114a1.918 1.918 0 0 0 2.114-1.697c.115-1.051-1.453-3.357-2.045-2.48-.564.837-1.457 1.21-1.766 2.063"/>
        <path fill="#F58A07" d="M52.61 44.082c.468.519.744 1.212.78 1.965 0 0-.474 8.67 1.903 12.663 1.022 1.717-10.135 1.67-10.135 1.67l.3-12.825a4.387 4.387 0 0 1 1.254-3.286c.048 1.934 4.91-1.282 5.898-.187"/>
        <path fill="#F58A07" d="M50.822 47.14c-1.793.175-13.927.777-22.09-13.465l2.597-1.488c7.608 13.274 18.828 12.024 19.308 11.963l.391 2.968c-.03.004-.101.014-.206.022"/>
        <path fill="#F0B3BD" d="M30.392 29.079a2.822 2.822 0 0 0-1.937-.202l-1.9 3.873a2.828 2.828 0 1 0 3.837-3.672"/>
        <path fill="#0E4E80" d="M40.397 78.681a2.148 2.148 0 1 0 4.297.012 2.148 2.148 0 0 0-4.297-.012"/>
        <path fill="#0E4E80" d="M34.364 80.81l8.137.025c.86.004 1.56-.691 1.561-1.553.004-.859-1.11-2.74-1.97-2.743l-7.878 2.298c-.869.255-1.033 1.472-.224 1.877.12.06.245.095.374.096M56.844 90.123a2.147 2.147 0 1 0 3.397-2.627 2.147 2.147 0 0 0-3.397 2.627"/>
        <path fill="#0E4E80" d="M53.39 95.51l6.436-4.978a1.56 1.56 0 0 0 .28-2.185c-.527-.68-2.562-1.481-3.241-.955l-4.804 6.655c-.53.733.088 1.794.975 1.617a.846.846 0 0 0 .355-.154"/>
        <path fill="#E07E07" d="M48.684 59.32c-.843 0-1.753-.083-2.71-.29l.1-.46c4.503.97 8.008-.957 8.044-.976l.23.41c-.118.067-2.385 1.315-5.664 1.315"/>
        <path fill="#146EB4" d="M126.584 154.579a2.449 2.449 0 1 1-4.71 1.342 2.449 2.449 0 0 1 4.71-1.342"/>
        <path fill="#146EB4" d="M133.864 155.047l-8.92 2.546a1.776 1.776 0 0 1-2.195-1.22c-.268-.943.371-3.351 1.313-3.62l9.356.085c1.031.01 1.589 1.294.826 1.99a.94.94 0 0 1-.38.22"/>
        <path fill="#FFFFFE" d="M127.068 153.9a.41.41 0 0 1-.382-.506l.217-.923a.413.413 0 0 1 .803.19l-.218.923a.411.411 0 0 1-.42.316M128.399 153.957a.412.412 0 0 1-.384-.507l.218-.922a.413.413 0 0 1 .803.19l-.218.922a.412.412 0 0 1-.42.317"/>
        <path fill="#F58A07" d="M121.538 137.92l-.047-.025-13.373-7.885-4 4.336 14.033 7.438 3.291 14.325.1-.018 3.759-3.406-2.542-13.13a2.398 2.398 0 0 0-1.22-1.635"/>
        <path fill="#146EB4" d="M94.564 158.291a2.202 2.202 0 1 1-4.403-.009 2.202 2.202 0 0 1 4.403.01"/>
        <path fill="#146EB4" d="M100.738 160.508l-8.34-.02a1.597 1.597 0 0 1-1.593-1.6c.002-.882 1.153-2.804 2.035-2.801l8.063 2.4c.888.265 1.05 1.513.219 1.924a.859.859 0 0 1-.384.097"/>
        <path fill="#FFFFFE" d="M95.151 157.827a.371.371 0 0 1-.205-.534l.418-.743a.37.37 0 0 1 .647.363l-.419.743a.371.371 0 0 1-.44.17M96.287 158.206a.37.37 0 0 1-.205-.533l.418-.744a.371.371 0 0 1 .646.364l-.418.742a.37.37 0 0 1-.441.171"/>
        <path fill="#EFAD62" d="M110.001 126.455l-8.868-.97c-.551.625-1.218 2.56-1.416 3.43a5.143 5.143 0 0 0 .672 3.894 5.146 5.146 0 0 0 3.228 2.284c.68.153 4.043.206 5.625-1.335 2.315-2.256.76-7.303.76-7.303"/>
        <path fill="#F58A07" d="M104.468 131.195H98.76l2.192 13.58-9.632 11.223 4.998 1.405 9.191-10.308a2.374 2.374 0 0 0 .57-1.948l-1.612-13.952"/>
        <path fill="#146EB4" d="M127.792 125.421l-13.218-.229a1.572 1.572 0 0 1-1.377-.865l-5.18-10.302 2.807-1.412 4.754 9.453 12.269.214-.055 3.141"/>
        <path fill="#F0B3BD" d="M108.922 104.46l-.401 8.343-3.866-.185.717-10.347 3.55 2.19"/>
        <path fill="#AF829E" d="M108.668 109.774h-.002l.134-2.795h.002l-.134 2.795"/>
        <path fill="#E15D7B" d="M108.666 109.774c-1.826-.537-2.7-2.682-2.7-2.682l2.834-.113-.134 2.795"/>
        <path fill="#F0B3BD" d="M110.182 109.401c.153-.024.453-.107.603-.149 1.438-.394 2.858-2.766 2.803-4.13-.065-1.63-.236-2.445-.142-3.548.13-1.514-1.34-2.7-2.858-2.639l-3.077.122a2.095 2.095 0 0 0-2.011 2.178l.2 4.991c.07 1.781 2.722 3.454 4.482 3.175"/>
        <path fill="#E98CA4" d="M103.827 110.509c.41-.276.918-.414 1.448-.352l1.712.2a4.875 4.875 0 0 1 2.225.839c-1.77.515-3.906.336-5.385-.687"/>
        <path fill="#146EB4" d="M101.17 113.795c.078-1.344 1.269-3.157 2.735-3.335 2.479.349 4.705.485 5.542.683 1.442 1 2.3 2.741 2.083 4.606l-.218 15.432c-4.636 3.271-13.128 1.957-13.128 1.957 0-6.663 2.834-16.7 2.987-19.343"/>
        <path fill="#146EB4" d="M118.498 125.335l-10.794.116a1.57 1.57 0 0 1-1.57-1.339l-1.776-11.88 3.108-.465 1.574 10.527 9.425-.1.033 3.14"/>
        <path fill="#EFAD62" d="M109.009 111.062c-.707-.168-1.961-.21-3.958-.452 1.108 2.6 4.096 4.762 4.98 7.808.464-.508.42-6.356-1.022-7.356"/>
        <path fill="#FFC53A" d="M108.886 111.54c-.13-.146-.542-.436-.554-.59-.32-.039-.268.082-.711.04 1.21 1.12.51 2.965.988 4.651.607.862 1.13 1.77 1.423 2.777.256-.282.356-2.201.15-4.029-.023-.197-.312-1.727-1.296-2.85"/>
        <path fill="#A5A7C8" d="M109.026 111.827c-.151.2-.8.296-1.005.152-.195-.14-.388-.895-.388-.895l1.502-.225s.037.779-.109.968"/>
        <path fill="#1C1F45" d="M111.682 101.964c5.956-1.295 1.667-5.08 1.667-5.08s-.12 1.412-1.273.95c-2.207-.885-7.008-1.44-8.328 1.441-1.027 2.245.885 7.156 1.247 8.436.595-.372.095-6.151 2.535-5.91 1.333.13 2.849.447 4.152.163"/>
        <path fill="#FFFEFE" d="M110.78 108.157c1.217-.054.433-2.065-.03-2.04-.464.025-1.186 2.094.03 2.04"/>
        <path fill="#FFFFFE" d="M106.873 112.511l-3.024-2.01 1.024-1.123 3.595 1.598-1.595 1.535"/>
        <path fill="#FFFFFE" d="M109.385 111.734l-.173-.67-.579-.604-.248.516 1 .758"/>
        <path fill="#1A203C" d="M106.66 121.677c0-.368.3-.666.667-.666h24.123c.505 0 .919.299.919.665 0 .368-.414.667-.919.667h-24.123a.666.666 0 0 1-.666-.666"/>
        <path fill="#FFFFFE" d="M105.714 121.676c0 .368.323.667.718.667h9.16c.395 0 .719-.3.719-.667 0-.366-.324-.665-.719-.665h-9.16c-.395 0-.718.299-.718.665"/>
        <path fill="#FFFFFE" d="M132.331 108.528v12.165c0 .541-.439.98-.98.98H115.3a.981.981 0 0 1-.981-.98v-12.165a.98.98 0 0 1 .98-.981h16.05a.98.98 0 0 1 .981.98"/>
        <path fill="#146EB4" d="M133.08 108.528v12.165a.98.98 0 0 1-.981.98h-16.05a.981.981 0 0 1-.98-.98v-12.165a.98.98 0 0 1 .98-.981h16.05a.98.98 0 0 1 .98.98"/>
        <path fill="#FFFFFE" d="M121.428 114.61c0-.571.463-1.035 1.034-1.035h3.224a1.034 1.034 0 1 1 0 2.07h-3.224a1.035 1.035 0 0 1-1.034-1.035"/>
        <path fill="#F0B3BD" d="M117.483 123.763a2.688 2.688 0 0 1 .341-1.826l4.058-.683a2.698 2.698 0 1 1-4.4 2.51M126.046 123.012a2.69 2.69 0 0 1 .494-1.79l4.1-.344a2.698 2.698 0 1 1-4.594 2.134"/>
        <path fill="#1C1F45" d="M29.643 138.908c-1.5-.006-2.707-1.945-2.699-4.333.01-2.388 1.232-4.32 2.73-4.313 1.498.005 2.707 1.945 2.698 4.332-.009 2.389-1.23 4.32-2.73 4.314"/>
        <path fill="#1C1F45" d="M42.826 140.944c-1.746-1.004-3.679-3.514-2.941-5.725 1.724-5.166-2.304-7.016-4.299-7.397-1.994-.381-3.754.126-4.862 1.015-1.804 1.444-1.264 3.932-.259 5.936-1.092.63-1.615 1.98-.988 2.987 1.368 2.194.19 5.145-.624 6.898-1.31 2.822.516 6.324 3.695 7.923 3.18 1.598 7.321 1.428 10.514-.002 1.585-.71 3.014-1.748 3.737-3.122 1.56-2.97-.693-6.627-3.973-8.513"/>
        <path fill="#E98CA4" d="M20.93 160.715c-.76.11-1.557.176-2.39.198a1.108 1.108 0 0 1-.06-2.214c3.883-.107 6.79-1.251 8.635-3.402 2.818-3.283 2.281-7.849 2.276-7.893a1.115 1.115 0 0 1 .96-1.238 1.107 1.107 0 0 1 1.237.961c.029.227.657 5.593-2.792 9.613-1.852 2.158-4.492 3.49-7.866 3.975"/>
        <path fill="#EFAD62" d="M30.228 145.364a1.935 1.935 0 0 0-1.643 2.138c.006.041.473 4.287-2.084 7.267-1.25 1.456-3.071 2.406-5.405 2.845.674 1.148.789 2.634.25 3.85 3.427-.55 6.144-1.956 8.066-4.196 3.681-4.29 3.01-10.002 2.98-10.242a1.927 1.927 0 0 0-2.164-1.662"/>
        <path fill="#F0B3BD" d="M30.533 147.248c-.568-.288-1.027-1.15-.349-1.937.67-.777 1.702-1.207 2.807-1.248l.286-.011a3.07 3.07 0 0 1 2.458 1.082c-.469 1.456-3.664 2.703-5.202 2.114"/>
        <path fill="#F0B3BD" d="M32.407 141.837l-.026 1.251-.046 2.348 1.804.033.056-3.002.025-1.164c-.545.367-1.167.563-1.813.534"/>
        <path fill="#2A3368" d="M34.194 142.54l.001-.073.018-.86a.059.059 0 0 1 .007-.005l-.02.931-.006.008"/>
        <path fill="#E15D7B" d="M32.381 143.386l.026-1.25a3.015 3.015 0 0 0 1.806-.53l-.018.861-.001.074c-.405.467-1.177.75-1.813.845"/>
        <path fill="#F0B3BD" d="M32.855 142.782a5.231 5.231 0 0 0 5.18-5.288l-.02-2.059a5.218 5.218 0 0 0-1.672-3.781 5.216 5.216 0 0 0-3.615-1.4 5.201 5.201 0 0 0-2.536.685 5.227 5.227 0 0 0-2.645 4.603l.02 2.058a5.23 5.23 0 0 0 5.288 5.182"/>
        <path fill="#0E4E80" d="M28.874 159.807a4.968 4.968 0 1 0 9.688 2.207 4.968 4.968 0 0 0-9.688-2.207"/>
        <path fill="#FFFEFE" d="M32.509 140.058a1.4 1.4 0 0 1-2.75.028l2.75-.028"/>
        <path fill="#EFAD62" d="M27.895 148.08c-.34.935.606 1.88 1.596 1.99a1.804 1.804 0 0 0 1.99-1.597c.109-.992-1.368-3.16-1.925-2.335-.531.787-1.37 1.14-1.661 1.941"/>
        <path fill="#F58A07" d="M35.735 145.134c.429.501.701 1.141.735 1.85 0 0-.446 8.16 1.792 11.92l-9.513.794.254-11.294a4.14 4.14 0 0 1 1.181-3.093c.047 1.82 3.79-.37 5.551-.177"/>
        <path fill="#0E4E80" d="M29.33 181.57c-.878.044-1.311.867-1.386 1.1-.408 1.28-.263 2.622-1.083 4.794-.558 1.481-1.118 1.784-1.516 2.989-.341 1.034.611 1.37 1.55 1.006.367-.142 2.683-.752 2.724-2.6.031-1.352-.128-2.385.301-3.546.429-1.16.798-.505.936-.152.098.254.407.98.51 1.205a.17.17 0 0 0 .217.087h.003a.168.168 0 0 0 .092-.233c-.13-.264-.37-1.175-.458-2.341-.109-1.428-1.094-2.347-1.89-2.308"/>
        <path fill="#F0B3BD" d="M28.409 187.951c.482-1.08 1.057-4.404.771-5.137-.335-.862-2.131-.927-2.242-.15-.19 1.33.36 3.653-.738 6.145.136.653 1.647.404 2.209-.858"/>
        <path fill="#0E4E80" d="M23.562 170.92l1.731-.76 3.716 12.174a1.618 1.618 0 0 1-1.069 2.022 1.622 1.622 0 0 1-1.983-.96l-5.332-13.71a2.059 2.059 0 0 1 1.022-2.601l.087-.042 11.644-5.572a2.216 2.216 0 0 1 1.912 3.996l-11.728 5.452zM21.465 177.152c-.796-.37-1.564.155-1.738.327-.959.942-1.456 2.196-3.194 3.735-1.186 1.049-1.821 1.056-2.735 1.936-.784.756-.1 1.497.9 1.614.392.044 2.724.586 3.623-1.03.658-1.182 1-2.17 1.92-2.996.921-.827.942-.075.898.302-.03.27-.095 1.055-.11 1.303a.171.171 0 0 0 .151.18h.004c.1.01.187-.063.19-.163.007-.294.22-1.212.687-2.285.569-1.313.127-2.587-.596-2.923"/>
        <path fill="#F0B3BD" d="M17.674 182.368c.931-.732 2.99-3.404 3.079-4.186.106-.918-1.453-1.813-1.913-1.179-.788 1.088-1.386 3.4-3.52 5.092-.184.641 1.27 1.126 2.354.273"/>
        <path fill="#0E4E80" d="M21.554 165.185l1.551.078-2.057 12.559a1.617 1.617 0 0 1-1.888 1.29 1.624 1.624 0 0 1-1.307-1.773l1.679-14.615a2.06 2.06 0 0 1 2.119-1.824l.094.004 12.9.502a2.216 2.216 0 0 1-.173 4.427l-12.918-.648z"/>
        <path fill="#F0B3BD" d="M35.369 160.91c-.564.096-1.169.165-1.814.206a1.107 1.107 0 1 1-.141-2.21c2.051-.132 4.636-.636 5.297-2.29 1.043-2.605-2.555-7.35-3.897-8.805a1.107 1.107 0 0 1 1.628-1.503c.627.68 6.072 6.77 4.325 11.133-.731 1.825-2.544 2.989-5.398 3.47"/>
        <path fill="#F58A07" d="M37.038 145.76a1.916 1.916 0 0 0-2.859.04c-.649.743-.574 1.887.09 2.615 1.53 1.682 4.493 5.89 3.69 7.9-.14.35-.429.632-.795.857-.685.422-1.067 1.201-.911 1.99l.008.04c.235 1.258 1.64 1.964 2.752 1.328 1.197-.687 2.038-1.616 2.506-2.788 1.893-4.727-3.401-10.81-4.48-11.982"/>
        <path fill="#F0B3BD" d="M28.833 159.847a2.65 2.65 0 0 0 .77 1.663l4.048-.332a2.661 2.661 0 0 0-2.382-4.203 2.662 2.662 0 0 0-2.436 2.872"/>
        <path fill="#E98CA4" d="M15.05 160.343c.026.657.288 1.247.7 1.695l4.058-.161a2.663 2.663 0 1 0-4.758-1.534"/>
        <path fill="#1C1F45" d="M38.91 134.392c-.586 1.672-3.221 2.27-5.887 1.335-2.664-.934-4.347-3.048-3.76-4.72.586-1.672 3.22-2.27 5.885-1.335 2.665.935 4.349 3.047 3.763 4.72"/>
        <path fill="#1A203C" d="M36.111 161.372a.667.667 0 0 0-.666-.666H11.322c-.506 0-.92.3-.92.666 0 .368.414.666.92.666h24.123a.666.666 0 0 0 .666-.666"/>
        <path fill="#FFFFFE" d="M37.057 161.372c0 .368-.322.666-.718.666h-9.16c-.395 0-.718-.298-.718-.666 0-.366.323-.666.717-.666h9.161c.396 0 .718.3.718.666"/>
        <path fill="#FFFFFE" d="M10.44 148.223v12.165c0 .541.44.98.98.98h16.05c.543 0 .982-.439.982-.98v-12.165a.981.981 0 0 0-.981-.981H11.42a.981.981 0 0 0-.981.98"/>
        <path fill="#146EB4" d="M9.691 148.223v12.165c0 .541.44.98.981.98h16.05c.542 0 .981-.439.981-.98v-12.165a.98.98 0 0 0-.98-.981h-16.05a.981.981 0 0 0-.982.98"/>
        <path fill="#FFFFFE" d="M21.344 154.305c0-.571-.463-1.035-1.035-1.035h-3.224a1.034 1.034 0 0 0 0 2.07h3.224c.572 0 1.035-.464 1.035-1.035"/>
        <path fill="#F58A07" d="M167.125 77.706a2.144 2.144 0 0 1-1.736-.88l-7.435-10.178a2.147 2.147 0 0 1 .077-2.63l9.716-11.8a2.15 2.15 0 0 1 3.023-.294 2.15 2.15 0 0 1 .293 3.024l-8.657 10.512 6.452 8.832a2.15 2.15 0 0 1-1.733 3.414M181.395 77.687a2.147 2.147 0 0 1-1.731-3.417l6.479-8.853-8.623-10.484a2.148 2.148 0 0 1 3.318-2.729l9.681 11.772c.624.758.654 1.842.075 2.633l-7.465 10.198c-.42.575-1.073.88-1.734.88"/>
        <path fill="#1C1F45" d="M180.675 39.063a6.197 6.197 0 1 1-12.395-.001 6.197 6.197 0 0 1 12.395.001"/>
        <path fill="#F0B3BD" d="M176.75 46.675l-.014 5.894-.015 3.853-4.515-.011.29-12.102 4.255 2.366"/>
        <path fill="#F58A07" d="M167.76 55.91c.015-1.838 1.605-3.618 3.25-4.474 2.465-1.283 6.265-.39 7.477.331 2.06 1.227 3.29 3.719 3.144 6.28l.144 13.745H167.18s.546-11.7.58-15.882"/>
        <path fill="#DADFE9" d="M174.698 60.057c1.071-3.295 2.248-5.598 3.307-8.528-3.244-1.224-6.386-.54-7.054 0 1.06 2.93 2.235 5.233 3.306 8.528.056.238.217.62.22.614l.014.023c.01-.038.152-.4.207-.637"/>
        <path fill="#2A4D90" d="M174.867 51.762h-.777l-.732 4.455.516 2.71.604 1.744.604-1.743.516-2.71-.731-4.456"/>
        <path fill="#F0B3BD" d="M175.654 35.517h-2.352c-2.077 0-4.021 1.701-3.76 3.762.189 1.5 0 2.627 0 4.853 0 1.868 2.186 5.49 4.054 5.49h1.765c1.866 0 4.054-3.622 4.054-5.49 0-2.226-.19-3.353 0-4.853.26-2.06-1.684-3.762-3.76-3.762"/>
        <path fill="#FFFEFE" d="M172.573 46.265c.17.9.956 1.582 1.905 1.582a1.94 1.94 0 0 0 1.905-1.582h-3.81"/>
        <path fill="#146EB4" d="M176.823 84.935h-4.69c-3.368 0-5.896-3.082-5.234-6.386l.282-6.757h14.594l.282 6.757c.661 3.304-1.865 6.386-5.234 6.386"/>
        <path fill="#2A4D90" d="M181.158 80.263h-15.6a1.45 1.45 0 0 1-1.45-1.451V68.47c0-.801.649-1.45 1.45-1.45h15.6c.802 0 1.451.649 1.451 1.45v10.342c0 .802-.65 1.451-1.451 1.451"/>
        <path fill="#A5A7C8" d="M181.158 80.878h-15.6c-.801 0-1.45-.65-1.45-1.453v-10.34c0-.803.649-1.453 1.45-1.453h15.6c.802 0 1.451.65 1.451 1.453v10.34c0 .803-.65 1.453-1.451 1.453"/>
        <path fill="#2A4D90" d="M175.495 75.358h-4.273c-.603 0-1.093-.49-1.093-1.092v-.022c0-.604.49-1.092 1.093-1.092h4.273a1.09 1.09 0 0 1 1.091 1.092v.022c0 .602-.487 1.092-1.091 1.092"/>
        <path fill="#1C1F45" d="M174.357 32.865c-4.124 0-7.696 4.348-7.696 4.348 5.14 3.145 8.755.836 10-.183.36-.294 1.097-.918 1.097-1.735l-3.4-2.43"/>
        <path fill="#A5A7C8" d="M175.056 52.016c-.22.202-1.01.18-1.219-.034-.2-.206-.27-1.137-.27-1.137l1.82.05s-.119.928-.33 1.12"/>
        <path fill="#FFFFFE" d="M172.552 53.17l-1.537-1.852 1.281-1.647 2.182 1.185-1.926 2.313M176.404 53.17l1.537-1.852-1.28-1.647-2.183 1.185 1.926 2.313M177.029 100.955l1.256-4.716-.091-.003a.456.456 0 1 1 .034-.913l.298.01.142-.53-.143-.004a.457.457 0 0 1 .035-.915l.35.014.788-2.967.134-.165a2.716 2.716 0 1 1 4.805 2.495l-.018.027-.007.013-5.353 8.783a1.06 1.06 0 0 1-.348.341c-.967.61-2.177-.364-1.882-1.47"/>
        <path fill="#4F629F" d="M180.26 94.017a2.716 2.716 0 0 0 2.826-4.637 2.716 2.716 0 0 0-2.826 4.637"/>
        <path fill="#4F629F" d="M178.612 101.934l5.353-8.78a1.97 1.97 0 0 0-.655-2.707c-.93-.565-3.692-.593-4.258.335l-2.67 10.025c-.294 1.105.914 2.079 1.881 1.47.144-.091.264-.203.349-.343"/>
        <path fill="#FFFFFE" d="M179.392 94.334a.458.458 0 0 0-.428-.56l-1.051-.04a.458.458 0 0 0-.034.915l1.05.039a.458.458 0 0 0 .463-.354M179.06 95.772a.457.457 0 0 0-.43-.56l-1.049-.039a.458.458 0 1 0-.034.914l1.05.04c.22.007.413-.141.463-.355"/>
        <path fill="#146EB4" d="M167.239 77.258l16.266 11.663-5.116 4.39-14.644-11.181a2.968 2.968 0 0 1-.683-4.142l.035-.048a2.968 2.968 0 0 1 4.142-.682"/>
        <path fill="#FFFFFE" d="M175.93 108.546l.323-4.87.087.027a.458.458 0 0 0 .262-.877l-.286-.086.036-.547.136.041a.457.457 0 1 0 .26-.876l-.335-.1.204-3.063a.853.853 0 0 0-.074-.2 2.524 2.524 0 0 0-.054-.368 2.714 2.714 0 1 0-5.297 1.19l.01.031.001.016 2.252 10.036c.036.159.114.303.22.435.721.887 2.179.352 2.255-.79"/>
        <path fill="#EFAD62" d="M175.097 100.937a2.715 2.715 0 1 1-1.19-5.298 2.715 2.715 0 0 1 1.19 5.298"/>
        <path fill="#4F629F" d="M174.116 108.965l-2.253-10.035a1.97 1.97 0 0 1 1.49-2.353c1.06-.237 3.687.624 3.926 1.685l-.69 10.35c-.074 1.141-1.531 1.677-2.253.788a1.061 1.061 0 0 1-.22-.435"/>
        <path fill="#FFFFFE" d="M175.816 101.516a.457.457 0 0 1 .585-.392l1.008.3a.457.457 0 1 1-.26.876l-1.009-.3a.457.457 0 0 1-.324-.484M175.67 102.985a.457.457 0 0 1 .584-.393l1.009.3a.458.458 0 0 1-.261.876l-1.008-.3a.453.453 0 0 1-.324-.483"/>
        <path fill="#146EB4" d="M179.021 79.825l-7.709 18.472 6.193.744 7.05-16.908a2.968 2.968 0 0 0-1.597-3.881l-.055-.023a2.967 2.967 0 0 0-3.882 1.596"/>
        <path fill="#FFC53A" d="M212.005 158.856l-2.589 9.908-8.484 3.538 1.196 2.872 9.197-3.835c.448-.187.783-.572.906-1.042l2.783-10.655a1.539 1.539 0 0 0-1.101-1.879l-.03-.008a1.54 1.54 0 0 0-1.878 1.101"/>
        <path fill="#0E4E80" d="M208.561 188.994a1.827 1.827 0 0 0 .19-2.356s-.305-.425-.854-1.155c-.555-.726-1.327-1.78-2.288-3.015a291.414 291.414 0 0 0-2.897-3.705c1.009.059 2.002.115 2.962.164l2.815.135 2.522.105c1.563.062 2.866.087 3.778.117.912.024 1.434.029 1.434.029a2.496 2.496 0 0 0 2.516-2.474 2.5 2.5 0 0 0-2.293-2.508s-.52-.043-1.43-.101c-.91-.053-2.211-.143-3.773-.223l-2.521-.122c-.896-.037-1.84-.076-2.816-.118a545.329 545.329 0 0 0-6.122-.194l-.78-.021-.196-.003-.098-.004h-.024l-.199-.001h-.013l-.048.004a2.995 2.995 0 0 0-2.002.871 3.017 3.017 0 0 0-.376 3.842c.267.365.234.29.29.363l.127.144.258.289 2.02 2.238c1.312 1.45 2.552 2.79 3.623 3.931 1.066 1.147 1.98 2.08 2.609 2.742a81.06 81.06 0 0 0 1.002 1.028c.715.713 1.87.712 2.584-.002"/>
        <path fill="#EFAD62" d="M206.33 189.476a2.498 2.498 0 1 0 2.203-4.484 2.498 2.498 0 0 0-2.203 4.484"/>
        <path fill="#F58A07" d="M205.479 196.869l4.175-8.493a1.81 1.81 0 0 0-.826-2.424c-.898-.442-3.432-.238-3.874.66l-1.614 9.408c-.177 1.037 1.012 1.83 1.847 1.191a.964.964 0 0 0 .292-.342"/>
        <path fill="#FFFFFE" d="M204.971 190.097a.42.42 0 0 0-.595-.256l-.862.439a.421.421 0 1 0 .383.75l.862-.44a.421.421 0 0 0 .212-.493M205.35 191.402a.419.419 0 0 0-.595-.257l-.863.44a.42.42 0 1 0 .383.748l.861-.44a.42.42 0 0 0 .213-.49"/>
        <path fill="#FFF" d="M206.77 188.579a1.498 1.498 0 1 0 1.324-2.69 1.5 1.5 0 0 0-1.323 2.69"/>
        <path fill="#1C1F45" d="M216.644 152.477l.277 2.06.453-.144a.832.832 0 0 0 .578-.793.83.83 0 0 1 .293-.633l1.161-1.19c.483-.495.824-1.121.93-1.806.08-.51.045-1.068-.285-1.498-.46-.597 1.103-2.233-.006-3.607-.501-.62-1.289-1.077-1.613-1.742-1.083-2.226-2.71-2.053-3.847-1.252-.567.4-.955.122-1.536-.157-.456-.218-1.03-.436-1.904-.327-1.548.193-2.167 1.298-2.04 2.217 0 0-2.638.105-2.638 3.054 0 2.948 3.114 3.315 3.114 3.315l7.063 2.503"/>
        <path fill="#F0B3BD" d="M213.441 150.268l.437 4.98.289 3.255 3.817-.334-1.119-10.208-3.424 2.307"/>
        <path fill="#BD8E95" d="M213.878 155.248l-.218-2.494h2.81v.794c-.619.782-1.6 1.383-2.592 1.7"/>
        <path fill="#F0B3BD" d="M212.407 155.08h-.62c-1.351 0-2.936-2.622-2.936-3.974 0-1.614.138-2.43 0-3.517-.188-1.49 1.22-2.723 2.724-2.723h3.048c1.146 0 2.076.93 2.076 2.075v4.946c0 1.763-2.529 3.194-4.292 3.194"/>
        <path fill="#1C1F45" d="M212.027 144.866s-.274 2.252 3.529 2.114c0 0-.112 4.447 1.888 4.767l.354-1.498s.827-4.877-1.02-5.703c-1.846-.827-4.751.32-4.751.32"/>
        <path fill="#F0B3BD" d="M218.72 156.05a2.133 2.133 0 0 0-1.447-.292l-1.686.265a4.842 4.842 0 0 0-2.167.918c1.77.44 3.877.179 5.3-.892"/>
        <path fill="#FFC53A" d="M221.383 159.04c-.144-1.323-1.378-2.601-2.664-2.99-1.422 1.07-3.53 1.331-5.3.89a4.858 4.858 0 0 0-1.878 4.637l1.787 10.078 9.09-1.233s-.709-8.37-1.035-11.382"/>
        <path fill="#0E4E80" d="M187.768 187.901s.35-.39.975-1.062c.63-.667 1.512-1.637 2.602-2.769 1.084-1.137 7.074-7.202 7.074-7.202l.134-.124a5.292 5.292 0 0 1 2.613-1.244c.053-.01 10.213-.96 11.087-1.173 1.54-.376.968-3.275.968-3.275l9.13-1.4c.067 1.307.91 2.574 1.14 3.429a5.083 5.083 0 0 1-.511 3.876 5.094 5.094 0 0 1-5.085 2.52c-.246.021-.614.053-1.096.092-.913.066-2.217.178-3.783.283l-2.53.161-2.824.162-3.021.154c-.89.04-1.796.079-2.7.118l-.101.023-.05.02-.023.014-.012.008-.005.002-.033.029-1.152 1.046-2.252 2.021a320.088 320.088 0 0 1-4.031 3.544c-1.185 1.033-2.198 1.867-2.894 2.464-.702.59-1.11.921-1.11.921a1.828 1.828 0 0 1-2.51-2.638"/>
        <path fill="#EFAD62" d="M186.299 189.035a2.497 2.497 0 1 0 4.74 1.574 2.497 2.497 0 0 0-4.74-1.574"/>
        <path fill="#F58A07" d="M178.858 189.199l8.983 2.98c.949.315 1.975-.199 2.29-1.149.314-.95-.233-3.432-1.183-3.748l-9.54-.317c-1.052-.035-1.676 1.251-.928 1.992.11.11.236.195.378.242"/>
        <path fill="#FFFFFE" d="M185.834 188.323a.42.42 0 0 0 .413-.499l-.183-.95a.42.42 0 1 0-.825.158l.181.95a.422.422 0 0 0 .414.341M184.476 188.323a.42.42 0 0 0 .413-.499l-.183-.95a.421.421 0 0 0-.826.158l.182.95a.422.422 0 0 0 .414.341"/>
        <path fill="#FFF" d="M187.248 189.35a1.498 1.498 0 1 0 2.843.944 1.498 1.498 0 0 0-2.843-.943"/>
        <path fill="#FFFEFE" d="M213.206 152.65a1.404 1.404 0 0 1-2.758 0h2.758"/>
        <path fill="#E98CA4" d="M195.737 170.754a2.654 2.654 0 0 0 1.607-.893l-.63-4.024a2.672 2.672 0 1 0-.977 4.918"/>
        <path fill="#FFC53A" d="M221.114 171.001c.367-.124.675-.381.862-.723.204-.37.249-.804.124-1.208l-3.499-11.366-2.972.916 3.024 9.83-7.357 2.005.817 3 8.91-2.426.09-.028"/>
        <path fill="#E6B035" d="M222.026 168.408l-2.613-9.239-.428.12 2.614 9.24.427-.121M217.926 165.718l-1.535-5.455-.531.07 1.535 5.456.53-.07"/>
        <path fill="#F0B3BD" d="M207.56 171.669a2.663 2.663 0 0 0 .4 1.794l4.038.54a2.672 2.672 0 1 0-4.438-2.335"/>
        <path fill="#1A203C" d="M214.766 173.681a.667.667 0 0 0-.666-.666h-24.123c-.505 0-.92.299-.92.666 0 .367.415.666.92.666H214.1a.667.667 0 0 0 .666-.666"/>
        <path fill="#FFFFFE" d="M215.712 173.681c0 .367-.323.666-.717.666h-9.161c-.394 0-.717-.3-.717-.666 0-.367.323-.666.717-.666h9.16c.395 0 .718.299.718.666"/>
        <path fill="#FFFFFE" d="M189.095 160.532v12.165c0 .543.44.982.982.982h16.05a.981.981 0 0 0 .98-.982v-12.165a.982.982 0 0 0-.98-.981h-16.05a.982.982 0 0 0-.982.98"/>
        <path fill="#146EB4" d="M188.347 160.532v12.165c0 .543.439.982.981.982h16.05a.982.982 0 0 0 .981-.982v-12.165a.982.982 0 0 0-.982-.981h-16.049a.981.981 0 0 0-.981.98"/>
        <path fill="#FFFFFE" d="M200 166.614c0-.57-.464-1.034-1.035-1.034h-3.225a1.034 1.034 0 0 0 0 2.068h3.225c.571 0 1.034-.462 1.034-1.034"/>
        <path fill="#FFC53A" d="M134.68 234.937a2.142 2.142 0 0 1-1.736-.88l-7.435-10.176a2.149 2.149 0 0 1 .076-2.633l9.716-11.8a2.149 2.149 0 0 1 3.316 2.73l-8.657 10.513 6.452 8.832a2.147 2.147 0 0 1-1.732 3.414M148.95 234.919a2.148 2.148 0 0 1-1.732-3.417l6.48-8.854-8.624-10.483a2.147 2.147 0 1 1 3.318-2.73l9.682 11.772a2.15 2.15 0 0 1 .074 2.634l-7.464 10.198c-.42.574-1.073.88-1.734.88"/>
        <path fill="#1C1F45" d="M148.23 196.294a6.197 6.197 0 1 1-12.395 0 6.197 6.197 0 0 1 12.394 0"/>
        <path fill="#E98CA4" d="M144.305 203.907l-.015 5.894-.014 3.852-4.517-.01.293-12.102 4.253 2.366"/>
        <path fill="#FFC53A" d="M135.315 213.142c.015-1.839 1.604-3.618 3.25-4.475 2.464-1.281 6.264-.39 7.476.332 2.062 1.227 3.289 3.718 3.145 6.28l.144 13.743h-14.595s.546-11.699.58-15.88"/>
        <path fill="#F0B3BD" d="M145.268 208.648c-1.796-.756-4.332-1.005-6.38-.126l1.517 1.517c.959.958 2.515.958 3.473 0l1.39-1.39M143.208 192.749h-2.35c-2.078 0-4.022 1.7-3.763 3.761.19 1.502 0 2.627 0 4.854 0 1.868 2.188 5.49 4.054 5.49h1.766c1.868 0 4.054-3.622 4.054-5.49 0-2.227-.189-3.352 0-4.854.26-2.06-1.683-3.761-3.761-3.761"/>
        <path fill="#FFFEFE" d="M140.128 203.497a1.938 1.938 0 0 0 3.809 0h-3.809"/>
        <path fill="#4F629F" d="M144.377 242.167h-4.69c-3.369 0-5.895-3.083-5.234-6.387l.282-6.758h14.595l.282 6.758c.661 3.304-1.866 6.387-5.235 6.387"/>
        <path fill="#0E4E80" d="M120.677 234.626l19.926-1.9.57 5.968-19.927 1.9a2.967 2.967 0 0 1-3.236-2.672l-.005-.061a2.966 2.966 0 0 1 2.672-3.235"/>
        <path fill="#0E4E80" d="M160.456 234.626l-19.927-1.9-.569 5.968 19.927 1.9a2.966 2.966 0 0 0 3.236-2.672l.006-.061a2.968 2.968 0 0 0-2.673-3.235"/>
        <path fill="#FFFFFE" d="M149.832 238.677h-15.599c-.802 0-1.451-.65-1.451-1.45v-10.343c0-.801.649-1.451 1.451-1.451h15.599c.801 0 1.452.65 1.452 1.451v10.342c0 .801-.65 1.451-1.452 1.451"/>
        <path fill="#E6E7E8" d="M149.832 239.291h-15.599c-.802 0-1.451-.65-1.451-1.452v-10.34c0-.802.649-1.453 1.451-1.453h15.599c.801 0 1.452.651 1.452 1.452v10.34c0 .804-.65 1.453-1.452 1.453"/>
        <path fill="#0E4E80" d="M144.17 233.772h-4.274c-.603 0-1.092-.49-1.092-1.091v-.023c0-.603.489-1.093 1.092-1.093h4.274c.602 0 1.09.49 1.09 1.093v.023c0 .601-.488 1.09-1.09 1.09"/>
        <path fill="#FFFFFE" d="M134.178 244.764l5.807-.348-.018.107a.544.544 0 1 0 1.076.177l.057-.352.653-.039-.027.167a.545.545 0 0 0 1.075.178l.067-.412 3.653-.22a.996.996 0 0 0 .224-.116 3.235 3.235 0 1 0-1.775-6.204l-.035.014-.019.005-11.528 4.17c-.183.066-.342.18-.481.326-.942.986-.09 2.628 1.27 2.547"/>
        <path fill="#EFAD62" d="M143.05 242.636a3.236 3.236 0 1 1 6.086-2.202 3.236 3.236 0 0 1-6.086 2.202"/>
        <path fill="#EFAD62" d="M133.41 242.683l11.528-4.17a2.346 2.346 0 0 1 3.004 1.407c.441 1.22-.182 4.453-1.4 4.894l-12.343.741c-1.361.082-2.213-1.56-1.27-2.546a1.25 1.25 0 0 1 .48-.326"/>
        <path fill="#FFFFFE" d="M142.473 243.575a.545.545 0 0 1 .552.633l-.203 1.236a.545.545 0 1 1-1.076-.177l.204-1.237a.543.543 0 0 1 .523-.455M140.714 243.622a.544.544 0 0 1 .553.632l-.204 1.238a.544.544 0 1 1-1.075-.177l.203-1.238a.545.545 0 0 1 .523-.455"/>
        <path fill="#F0B3BD" d="M159.242 235.883l-13.461 3.622a2.427 2.427 0 0 0-1.713 2.974l.012.046a2.427 2.427 0 0 0 2.974 1.713l13.462-3.622a2.425 2.425 0 0 0 1.713-2.973l-.013-.047a2.426 2.426 0 0 0-2.974-1.713"/>
        <path fill="#FFFFFE" d="M146.955 244.764l-5.806-.348.017.107a.545.545 0 1 1-1.076.177l-.057-.352-.653-.039.028.167a.546.546 0 0 1-1.076.178l-.067-.412-3.652-.22a1 1 0 0 1-.226-.116 3.228 3.228 0 0 1-.427-.12 3.235 3.235 0 1 1 2.202-6.085l.036.015.018.005 11.529 4.17c.183.066.342.18.482.326.94.986.09 2.628-1.272 2.547"/>
        <path fill="#EFAD62" d="M138.083 242.636a3.237 3.237 0 0 0-6.086-2.201 3.234 3.234 0 0 0 1.942 4.142 3.235 3.235 0 0 0 4.144-1.94"/>
        <path fill="#F58A07" d="M147.724 242.683l-11.528-4.17a2.346 2.346 0 0 0-3.005 1.407c-.441 1.22.181 4.453 1.4 4.894l12.343.741c1.36.082 2.213-1.56 1.272-2.546-.14-.146-.3-.26-.482-.326"/>
        <path fill="#FFFFFE" d="M138.66 243.575a.545.545 0 0 0-.552.633l.203 1.236a.546.546 0 0 0 1.076-.177l-.204-1.237a.542.542 0 0 0-.523-.455M140.419 243.622a.544.544 0 0 0-.552.632l.203 1.238a.542.542 0 0 0 .523.455.543.543 0 0 0 .552-.632l-.203-1.238a.545.545 0 0 0-.523-.455"/>
        <path fill="#F0B3BD" d="M121.89 235.883l13.462 3.622a2.426 2.426 0 0 1 1.713 2.974l-.012.046a2.427 2.427 0 0 1-2.975 1.713l-13.461-3.622a2.426 2.426 0 0 1-1.714-2.973l.013-.047a2.426 2.426 0 0 1 2.974-1.713"/>
        <path fill="#1C1F45" d="M141.912 190.097c-4.125 0-7.696 4.347-7.696 4.347 5.139 3.145 8.755.836 9.998-.182.362-.295 1.098-.918 1.098-1.736l-3.4-2.43"/>
    </g>
</svg>
