<svg xmlns="http://www.w3.org/2000/svg" viewBox="1154 32.001 178.415 36.092">
  <defs>
    <style>
      .cls-1 {
        fill: #462b7a;
      }

      .cls-2 {
        fill: #6bbd45;
      }
    </style>
  </defs>
  <g id="Symbol_1" data-name="Symbol 1" transform="translate(1132 10.047)">
    <g id="Group_1" data-name="Group 1" transform="translate(64.399 31.181)">
      <path id="Path_1" data-name="Path 1" class="cls-1" d="M83.579,18.2v3.154H76.162V24.8h7.067v3.154H76.162V34.2H72.6v-16Z" transform="translate(-72.6 -16.798)"/>
      <path id="Path_2" data-name="Path 2" class="cls-1" d="M96.084,19.3a2.117,2.117,0,0,1,0-2.92,2.044,2.044,0,0,1,3.5,1.46,2,2,0,0,1-2.044,2.044A1.853,1.853,0,0,1,96.084,19.3Zm3.154,13.9H95.792V20.881h3.446Z" transform="translate(-82.126 -15.8)"/>
      <path id="Path_3" data-name="Path 3" class="cls-1" d="M113.883,27.412a2.45,2.45,0,0,0-2.278,1.11,4.743,4.743,0,0,0-.759,2.862V36.7H107.4V24.375h3.446V26.01a5.905,5.905,0,0,1,1.635-1.285,4.261,4.261,0,0,1,2.044-.526v3.212h-.642Z" transform="translate(-87.076 -19.294)"/>
      <path id="Path_4" data-name="Path 4" class="cls-1" d="M131.979,32.8a3.66,3.66,0,0,1-1.343,2.92,5.039,5.039,0,0,1-3.387,1.11,10.1,10.1,0,0,1-2.862-.467A9.223,9.223,0,0,1,121.7,34.9l1.518-2.161a6.5,6.5,0,0,0,4.088,1.46,1.734,1.734,0,0,0,1.051-.292.891.891,0,0,0,.409-.7,1.016,1.016,0,0,0-.526-.818,6.867,6.867,0,0,0-1.577-.7l-1.577-.526a12.881,12.881,0,0,1-1.226-.642,2.865,2.865,0,0,1-1.4-2.57,3.483,3.483,0,0,1,1.4-2.8,5.736,5.736,0,0,1,3.562-1.051,7.7,7.7,0,0,1,4.38,1.46l-1.285,2.278a5.484,5.484,0,0,0-3.212-1.11q-1.577,0-1.577.876a.863.863,0,0,0,.526.759,9.515,9.515,0,0,0,1.694.642,9.473,9.473,0,0,1,1.635.584,10.8,10.8,0,0,1,1.168.584A2.884,2.884,0,0,1,131.979,32.8Z" transform="translate(-93.025 -19.253)"/>
      <path id="Path_5" data-name="Path 5" class="cls-1" d="M147.206,24.332V29.88a1.684,1.684,0,0,0,.35,1.11,1.051,1.051,0,0,0,.876.409,2.028,2.028,0,0,0,1.635-.876l1.285,2.394a4.9,4.9,0,0,1-3.387,1.46,4.105,4.105,0,0,1-4.2-4.38V24.332H142.3V21.879h1.46V18.2h3.446v3.679h2.978v2.453Z" transform="translate(-101.594 -16.798)"/>
      <path id="Path_6" data-name="Path 6" class="cls-1" d="M174.747,21.062a1.356,1.356,0,0,0-.526,1.11,1.323,1.323,0,0,0,.642,1.11,12.01,12.01,0,0,0,2.92.993,8.115,8.115,0,0,1,3.562,1.694,4.3,4.3,0,0,1,1.285,3.27,4.214,4.214,0,0,1-1.635,3.5,6.535,6.535,0,0,1-4.263,1.343,9.888,9.888,0,0,1-6.833-2.8l2.1-2.628c1.752,1.518,3.329,2.278,4.789,2.278a2.349,2.349,0,0,0,1.518-.409,1.438,1.438,0,0,0,.584-1.168,1.363,1.363,0,0,0-.584-1.168,7.482,7.482,0,0,0-2.336-.876,9.946,9.946,0,0,1-4.088-1.752A4,4,0,0,1,170.6,22.23a4.069,4.069,0,0,1,1.635-3.5,6.662,6.662,0,0,1,4.088-1.226,10.275,10.275,0,0,1,3.212.526,8.29,8.29,0,0,1,2.8,1.577l-1.81,2.628a7.047,7.047,0,0,0-4.322-1.577A2.552,2.552,0,0,0,174.747,21.062Z" transform="translate(-113.076 -16.507)"/>
      <path id="Path_7" data-name="Path 7" class="cls-1" d="M207.882,30.466a6.081,6.081,0,0,1-1.869,4.5,6.934,6.934,0,0,1-9.344,0,6.175,6.175,0,0,1-1.869-4.5,6.081,6.081,0,0,1,1.869-4.5,6.775,6.775,0,0,1,9.344,0A6.175,6.175,0,0,1,207.882,30.466Zm-9.578,0a3.507,3.507,0,0,0,.876,2.453,2.79,2.79,0,0,0,2.219.934,2.872,2.872,0,0,0,2.219-.934,3.872,3.872,0,0,0,0-4.906,2.79,2.79,0,0,0-2.219-.934,2.872,2.872,0,0,0-2.219.934A3.507,3.507,0,0,0,198.3,30.466Z" transform="translate(-123.434 -19.253)"/>
      <path id="Path_8" data-name="Path 8" class="cls-1" d="M229.318,31.158V24.5h3.446V36.823h-3.446V35.187A3.92,3.92,0,0,1,225.989,37a4.624,4.624,0,0,1-3.387-1.285,4.895,4.895,0,0,1-1.4-3.8V24.5h3.446v6.716c0,1.869.7,2.862,2.1,2.862a2.428,2.428,0,0,0,1.81-.759A2.876,2.876,0,0,0,229.318,31.158Z" transform="translate(-134.416 -19.419)"/>
      <path id="Path_9" data-name="Path 9" class="cls-1" d="M253.083,27.412a2.45,2.45,0,0,0-2.278,1.11,4.743,4.743,0,0,0-.759,2.862V36.7H246.6V24.375h3.446V26.01a5.905,5.905,0,0,1,1.635-1.285,4.261,4.261,0,0,1,2.044-.526v3.212h-.642Z" transform="translate(-144.982 -19.294)"/>
      <path id="Path_10" data-name="Path 10" class="cls-1" d="M268.1,33.836a4.01,4.01,0,0,0,3.1-1.694l2.044,2.278a7.126,7.126,0,0,1-5.139,2.453,6.631,6.631,0,0,1-4.672-1.752,5.87,5.87,0,0,1-1.927-4.555,6,6,0,0,1,1.927-4.614,6.589,6.589,0,0,1,4.614-1.752,7.325,7.325,0,0,1,2.686.526,6.734,6.734,0,0,1,2.394,1.635l-1.81,2.336a4.612,4.612,0,0,0-1.46-1.11,4.771,4.771,0,0,0-1.694-.409,3.417,3.417,0,0,0-2.336.876,3.526,3.526,0,0,0,0,4.906A3.489,3.489,0,0,0,268.1,33.836Z" transform="translate(-151.18 -19.294)"/>
      <path id="Path_11" data-name="Path 11" class="cls-1" d="M295.73,34.887a7.089,7.089,0,0,1-4.906,1.986,6.3,6.3,0,0,1-4.614-1.752,6.028,6.028,0,0,1-1.81-4.614,5.981,5.981,0,0,1,1.869-4.614,6.08,6.08,0,0,1,4.38-1.694,6.5,6.5,0,0,1,4.322,1.518,5.38,5.38,0,0,1,1.752,4.2v1.81h-8.994a2.39,2.39,0,0,0,1.051,1.635,3.54,3.54,0,0,0,2.044.642,3.876,3.876,0,0,0,2.978-1.226Zm-3.27-7.3A2.546,2.546,0,0,0,290.707,27a3.145,3.145,0,0,0-1.869.642,2.436,2.436,0,0,0-.993,1.694h5.431A2.493,2.493,0,0,0,292.459,27.587Z" transform="translate(-160.706 -19.294)"/>
    </g>
    <g id="Group_2" data-name="Group 2" transform="translate(22 21.954)">
      <path id="Path_12" data-name="Path 12" class="cls-2" d="M21.375,36.886l3.037,3.037-4.964,4.964L9.286,34.726,6.6,37.47,19.448,50.319l10.337-10.4L24.062,34.2Z" transform="translate(-2.746 -14.227)"/>
      <path id="Path_13" data-name="Path 13" class="cls-1" d="M26.806,15.535l2.745-2.686L16.7,0,0,16.7l2.686,2.686,6.307-6.307,6.891,6.891,2.745-2.745L11.739,10.4,16.7,5.431Z"/>
    </g>
  </g>
</svg>
