<svg id="Layer_1" data-name="Layer 1" xmlns="http://www.w3.org/2000/svg" viewBox="0 0 349.55 70.68"><defs><style>.cls-1{fill:#fff;}</style></defs><title>fx_logo_white</title><path class="cls-1" d="M104.56,20.78v6.15H90V33.7h13.82v6.15H90V52.14H83V20.78Z"/><path class="cls-1" d="M110.37,24.93a4,4,0,1,1,2.8,1.14A3.81,3.81,0,0,1,110.37,24.93Zm6.17,27.21h-6.73V28h6.73Z"/><path class="cls-1" d="M135.61,33.93a5.1,5.1,0,0,0-4.49,2.13,9.68,9.68,0,0,0-1.48,5.63V52.14h-6.73V28h6.73v3.19a11.31,11.31,0,0,1,3.25-2.51,8.85,8.85,0,0,1,4-1.08l0,6.33Z"/><path class="cls-1" d="M159.34,44.62a7,7,0,0,1-2.62,5.72,10.16,10.16,0,0,1-6.66,2.15,17.82,17.82,0,0,1-5.61-1,16.52,16.52,0,0,1-5.25-2.85l3-4.22a12.89,12.89,0,0,0,8,2.92,3.64,3.64,0,0,0,2.06-.52A1.58,1.58,0,0,0,153,45.5,2,2,0,0,0,152,43.93a12,12,0,0,0-3.05-1.35q-2-.63-3.05-1.08a17.16,17.16,0,0,1-2.4-1.3,5.57,5.57,0,0,1-2.74-5,6.62,6.62,0,0,1,2.69-5.45,11,11,0,0,1,7-2.11,15.17,15.17,0,0,1,8.52,2.87L156.38,35a11,11,0,0,0-6.26-2.15q-3.12,0-3.12,1.7A1.64,1.64,0,0,0,148,36a19.83,19.83,0,0,0,3.27,1.26q2.29.72,3.25,1.1a16.34,16.34,0,0,1,2.31,1.19A5.48,5.48,0,0,1,159.34,44.62Z"/><path class="cls-1" d="M172.35,32.85V43.66a3.1,3.1,0,0,0,.72,2.17,2.23,2.23,0,0,0,1.7.79,3.89,3.89,0,0,0,3.19-1.7l2.51,4.71a9.72,9.72,0,0,1-6.62,2.87A8,8,0,0,1,165.57,44V32.85h-2.83V28h2.83V20.78h6.77V28h5.83v4.85Z"/><path class="cls-1" d="M203.91,27a2.71,2.71,0,0,0-1,2.2,2.48,2.48,0,0,0,1.23,2.17,22.54,22.54,0,0,0,5.7,1.91,16.06,16.06,0,0,1,6.93,3.3A8.14,8.14,0,0,1,219.23,43a8.47,8.47,0,0,1-3.16,6.84,12.61,12.61,0,0,1-8.32,2.62A19.26,19.26,0,0,1,194.33,47l4.17-5.11q5.07,4.44,9.38,4.44a4.92,4.92,0,0,0,3-.83,2.66,2.66,0,0,0,1.1-2.24A2.61,2.61,0,0,0,210.84,41a15.25,15.25,0,0,0-4.62-1.68q-5.47-1.3-8-3.39t-2.54-6.55a8.12,8.12,0,0,1,3.21-6.89,12.91,12.91,0,0,1,8-2.42,19.23,19.23,0,0,1,6.28,1.08,16.83,16.83,0,0,1,5.47,3.05L215.1,29.3a13.8,13.8,0,0,0-8.43-3.1A4.23,4.23,0,0,0,203.91,27Z"/><path class="cls-1" d="M248.43,40.07a11.93,11.93,0,0,1-3.63,8.84,13.4,13.4,0,0,1-18.26,0,11.93,11.93,0,0,1-3.63-8.84,12,12,0,0,1,3.63-8.86,13.35,13.35,0,0,1,18.26,0A12,12,0,0,1,248.43,40.07Zm-18.75,0a6.91,6.91,0,0,0,1.68,4.82,5.91,5.91,0,0,0,8.61,0,6.91,6.91,0,0,0,1.68-4.82A7,7,0,0,0,240,35.23a5.86,5.86,0,0,0-8.61,0A7,7,0,0,0,229.68,40.07Z"/><path class="cls-1" d="M269,41V28h6.77V52.14H269V49a7.64,7.64,0,0,1-6.48,3.54A9.45,9.45,0,0,1,255.84,50q-2.69-2.49-2.69-7.38V28h6.78V41.15q0,5.56,4.08,5.56a4.82,4.82,0,0,0,3.5-1.46A5.69,5.69,0,0,0,269,41Z"/><path class="cls-1" d="M294.82,33.93a5.1,5.1,0,0,0-4.49,2.13,9.68,9.68,0,0,0-1.48,5.63V52.14h-6.73V28h6.73v3.19a11.31,11.31,0,0,1,3.25-2.51,8.85,8.85,0,0,1,4-1.08l0,6.33Z"/><path class="cls-1" d="M312.14,46.53q3.37,0,6.06-3.37l4,4.49q-4.67,4.84-10.09,4.85a13.08,13.08,0,0,1-9.17-3.43,11.6,11.6,0,0,1-3.75-9,11.67,11.67,0,0,1,3.79-9,12.86,12.86,0,0,1,9-3.48,14,14,0,0,1,5.27,1.08,13.34,13.34,0,0,1,4.69,3.18l-3.5,4.58a8.33,8.33,0,0,0-6.19-2.92,6.55,6.55,0,0,0-4.55,1.73,6.15,6.15,0,0,0-1.91,4.8,6.08,6.08,0,0,0,1.91,4.78A6.49,6.49,0,0,0,312.14,46.53Z"/><path class="cls-1" d="M347.58,48.64A13.49,13.49,0,0,1,338,52.5a12.71,12.71,0,0,1-9.08-3.39A11.89,11.89,0,0,1,325.33,40,11.72,11.72,0,0,1,329,31a12.33,12.33,0,0,1,8.64-3.36,12.48,12.48,0,0,1,8.46,3,10.34,10.34,0,0,1,3.48,8.25v3.59H332A4.79,4.79,0,0,0,334,45.68,6.6,6.6,0,0,0,338,46.94a7.75,7.75,0,0,0,5.83-2.38Zm-6.46-14.31a5.09,5.09,0,0,0-3.39-1.17,6.06,6.06,0,0,0-3.66,1.21,4.64,4.64,0,0,0-1.93,3.28h10.59A4.78,4.78,0,0,0,341.12,34.33Z"/><polygon class="cls-1" points="36.44 44.4 42.39 50.35 32.69 60.06 12.82 40.19 7.51 45.5 32.69 70.68 53.01 50.35 41.75 39.09 36.44 44.4"/><polygon class="cls-1" points="52.55 30.48 57.86 25.18 32.69 0 0 32.69 5.31 37.99 17.67 25.63 31.13 39.09 36.44 33.78 22.98 20.32 32.69 10.62 52.55 30.48"/></svg>