<svg xmlns="http://www.w3.org/2000/svg" xmlns:xlink="http://www.w3.org/1999/xlink" width="323" height="272" viewBox="0 0 323 272">
    <defs>
        <path id="a" d="M51.367 67.063S53.558 17.88 23.775.067C-12.455 20.788 4.57 64.609 4.57 64.609l29.855 31.089 16.941-28.635"/>
        <path id="c" d="M53.159 29.802S30.823-4.725 3.725.832c-19.471 52.903 46.609 81.346 46.609 81.346l2.825-52.376"/>
        <path id="e" d="M64.162.09C1.808-1.892.02 59.29.02 59.29l38.945 7.533S76.137 34.23 64.162.09z"/>
        <path id="g" d="M.23 13.749h41.543s2.253-2.843 0-4.757c-1.243-1.056-2.711-.947-3.778-.636-.695.202-1.387-.266-1.54-.971-.253-1.17-1.031-2.699-3.267-3.603-2.2-.889-3.592.469-4.397 1.864-.265.459-.97.39-1.13-.115C26.964 3.329 24.533.409 16.548.409c-10.156 0-9.028 5.386-8.12 7.625a.517.517 0 0 1-.587.704c-1.567-.334-4.475-.767-5.779.254C.23 10.426.23 13.749.23 13.749"/>
        <path id="i" d="M.355 8.282c-1.36 5.901 12.589 6.66 18.337 6.724 1.594.017 3.179-.133 4.74-.45 4.861-.984 15.501-3.566 14.009-7.077-1.925-4.53-7.709-1.371-7.709-1.371s.726-3.42-9.115-5.679c-9.841-2.259-9.802 5.268-9.802 5.268S2.065.869.355 8.282"/>
        <path id="k" d="M.48 12.324s40.989 4.052 54.36.437c2.548-.689 4.093-3.475 3.071-5.902-.542-1.288-1.764-2.385-4.475-3.144-3.152-.883-5.898.695-7.644 2.172-.737.623-1.833.251-2.123-.669-.372-1.18-1.269-2.454-3.298-3.191-3.007-1.092-7.269 1.432-9.776 3.235-.675.485-1.586-.036-1.534-.864.142-2.255-.74-5.096-6.457-4.177-5.65.908-7.936 4.16-8.858 6.508-.372.95-1.575 1.295-2.38.668-1.4-1.091-3.555-1.97-6.17-.413C.48 9.791.48 12.324.48 12.324"/>
        <path id="m" d="M27.517 7.132l-14.861-5.96-7.28-.549L.103 2.07l27.414 5.063"/>
        <path id="o" d="M.51 3.77L3.858.304l28.826 4.14L8.583 6.672.51 3.77"/>
        <path id="q" d="M18.867 8.01l2.774-3.987L.25.485 18.866 8.01"/>
        <path id="s" d="M.25.485L15.291 10.68l-4.392 5.629L.25.485"/>
        <path id="u" d="M2.592 1.622C1.844 3.25-.455 8.736.284 13.179c.11.662.49 1.26 1.07 1.6 4.885 2.854 11.62 3.81 13.948 4.065a1.91 1.91 0 0 0 1.539-.523c1.413-1.36 4.538-5.175 5.552-13.03a1.674 1.674 0 0 0-.476-1.392C17.566-.448 5.395 0 3.299.92a1.394 1.394 0 0 0-.707.701"/>
        <path id="w" d="M.072 1.577S7.596 9.47 8.62 9.09c.82-.303-3.157-7.55-3.157-7.55L8.843.29s9.132 11.563 6.646 15.214c-2.486 3.65-13.328-2.796-13.328-2.796L.072 1.577"/>
        <path id="y" d="M8.902.306s2.636.645 3.244 2.28c.608 1.635 5.812 26.56 5.812 26.56H4.789L.325 8.566S-1.1 3.962 3.32 2.326C7.739.693 8.902.307 8.902.307"/>
        <path id="A" d="M3.138.264S-.967 10.582.758 15.219C2.48 19.855 7.46 26.345 7.46 26.345l2.985-.872S7.395 14.9 6.395 12.21c-1-2.69 2.72-8.554 2.72-8.554"/>
        <path id="C" d="M14.307.157c5.795 0 3.331 11.096 3.331 11.096s-1.032 7.199-3.33 10.089c-1.989 2.501-5.924 1.75-7.788.548a7.13 7.13 0 0 0-3.008-1.108c-1.58-.189-3.457-.885-3.457-3.726 0-2.674 3.2-4.743 5.306-6.22a6.928 6.928 0 0 0 2.73-4.028c.675-2.738 2.32-6.65 6.216-6.65"/>
    </defs>
    <g fill="none" fill-rule="evenodd">
        <path fill="#1B2441" d="M97.462 113.924s2.191-49.183-27.592-66.996C33.64 67.649 50.666 111.47 50.666 111.47L80.52 142.56l16.941-28.635"/>
        <g transform="translate(46.095 46.861)">
            <mask id="b" fill="#fff">
                <use xlink:href="#a"/>
            </mask>
            <use fill="#0E4E80" xlink:href="#a"/>
            <path fill="#FFF" d="M.187 45.63l30.428 19.86-4.437-39.836L8.74 13.463l.623-.887 16.656 11.643L23.27-.451l1.137.388 5.034 45.195 17.363-14.311.033 1.379-17.253 14.22 5.6 50.28-1.08.12-3.334-29.934L.495 47.126.187 45.63" mask="url(#b)"/>
        </g>
        <path fill="#146EB4" d="M243.597 116.743c-9.398 0-17.017-7.6-17.017-16.976 0-9.377 7.619-16.977 17.017-16.977 9.4 0 17.018 7.6 17.018 16.977 0 9.375-7.619 16.976-17.018 16.976zm45.566-25.023c-.623-.804-4.431-1.632-8.782-1.71a37.707 37.707 0 0 0-4.364-10.13c2.795-2.578 5.471-5.587 5.164-7.441-.622-3.763-8.796-10.172-10.403-10.379-1.028-.132-4.41 2.05-7.592 5.152a37.905 37.905 0 0 0-10.097-4.221c.152-3.802-.086-7.837-1.621-8.934-3.108-2.222-13.432-.988-14.714 0-.803.618-1.63 4.395-1.712 8.718a37.846 37.846 0 0 0-10.436 4.096c-2.519-2.676-5.387-5.147-7.179-4.852-3.772.62-10.197 8.776-10.403 10.378-.124.954 1.759 3.94 4.524 6.906a37.705 37.705 0 0 0-4.735 10.708c-3.444-.058-6.822.271-7.812 1.65-2.228 3.1-.99 13.399 0 14.678.557.72 3.674 1.46 7.446 1.661a37.692 37.692 0 0 0 4.517 11.306c-2.315 2.287-4.245 4.724-3.982 6.313.622 3.763 8.797 10.173 10.404 10.379.884.113 3.508-1.485 6.25-3.907a37.867 37.867 0 0 0 11.4 4.665c-.014 3.24.352 6.31 1.66 7.245 3.107 2.222 13.43.988 14.712 0 .725-.557 1.468-3.68 1.668-7.457a37.861 37.861 0 0 0 11.018-4.796c2.38 2.45 4.977 4.565 6.642 4.292 3.772-.621 10.197-8.777 10.404-10.38.123-.958-1.778-3.968-4.567-6.949a37.65 37.65 0 0 0 4.167-10.678c3.648.108 7.374-.176 8.423-1.636 2.227-3.1.99-13.398 0-14.677z"/>
        <path fill="#005C5A" d="M74.548 128.62S52.212 94.093 25.114 99.651c-19.471 52.903 46.609 81.346 46.609 81.346l2.825-52.377"/>
        <path fill="#005C5A" d="M74.548 128.62S52.212 94.093 25.114 99.651c-19.471 52.903 46.609 81.346 46.609 81.346l2.825-52.377"/>
        <g transform="translate(21.389 98.819)">
            <mask id="d" fill="#fff">
                <use xlink:href="#c"/>
            </mask>
            <use fill="#6EBBF5" xlink:href="#c"/>
            <path fill="#FFF" d="M6.265 45l31.01.741L3.293 1.161l.865-.656L24.783 27.56 27.768 4.79l.973.934-3.023 23.065L53.696 65.49l-.866.656-14.713-19.301-30.891-.739-.96-1.108" mask="url(#d)"/>
        </g>
        <path fill="#21837F" d="M105.759 129.67s37.173-32.59 25.198-66.732c-62.355-1.982-64.143 59.2-64.143 59.2l38.945 7.533"/>
        <g transform="translate(66.795 62.848)">
            <mask id="f" fill="#fff">
                <use xlink:href="#e"/>
            </mask>
            <use fill="#146EB4" xlink:href="#e"/>
            <path fill="#FFFFFE" d="M22.502 11.752l1.011-.6 5.129 36.437L67.078 3.381l.82.71-27.265 31.36 21.371 2.69-1.086.956-21.141-2.662-22.13 25.454-1.347-.105 11.398-13.11-5.196-36.922" mask="url(#f)"/>
        </g>
        <g transform="translate(.022 64.846)">
            <mask id="h" fill="#fff">
                <use xlink:href="#g"/>
            </mask>
            <path fill="#6EBBF5" d="M.23 13.749h41.543s2.253-2.843 0-4.757c-1.243-1.056-2.711-.947-3.778-.636-.695.202-1.387-.266-1.54-.971-.253-1.17-1.031-2.699-3.267-3.603-2.2-.889-3.592.469-4.397 1.864-.265.459-.97.39-1.13-.115C26.964 3.329 24.533.409 16.548.409c-10.156 0-9.028 5.386-8.12 7.625a.517.517 0 0 1-.587.704c-1.567-.334-4.475-.767-5.779.254C.23 10.426.23 13.749.23 13.749" mask="url(#h)"/>
        </g>
        <g transform="translate(211.692 16.22)">
            <mask id="j" fill="#fff">
                <use xlink:href="#i"/>
            </mask>
            <path fill="#6EBBF5" d="M.355 8.282c-1.36 5.901 12.589 6.66 18.337 6.724 1.594.017 3.179-.133 4.74-.45 4.861-.984 15.501-3.566 14.009-7.077-1.925-4.53-7.709-1.371-7.709-1.371s.726-3.42-9.115-5.679c-9.841-2.259-9.802 5.268-9.802 5.268S2.065.869.355 8.282" mask="url(#j)"/>
        </g>
        <g transform="translate(52.772 19.55)">
            <mask id="l" fill="#fff">
                <use xlink:href="#k"/>
            </mask>
            <path fill="#6EBBF5" d="M.48 12.324s40.989 4.052 54.36.437c2.548-.689 4.093-3.475 3.071-5.902-.542-1.288-1.764-2.385-4.475-3.144-3.152-.883-5.898.695-7.644 2.172-.737.623-1.833.251-2.123-.669-.372-1.18-1.269-2.454-3.298-3.191-3.007-1.092-7.269 1.432-9.776 3.235-.675.485-1.586-.036-1.534-.864.142-2.255-.74-5.096-6.457-4.177-5.65.908-7.936 4.16-8.858 6.508-.372.95-1.575 1.295-2.38.668-1.4-1.091-3.555-1.97-6.17-.413C.48 9.791.48 12.324.48 12.324" mask="url(#l)"/>
        </g>
        <g transform="translate(160.945 .233)">
            <mask id="n" fill="#fff">
                <use xlink:href="#m"/>
            </mask>
            <path fill="#6EBBF5" d="M27.517 7.132l-14.861-5.96-7.28-.549L.103 2.07l27.414 5.063" mask="url(#n)"/>
        </g>
        <path fill="#6EBBF5" d="M188.462 7.364l-26.886-3.493-.528-1.57"/>
        <path fill="#146EB4" d="M161.38 8.423l.041.05 1.59 3.903 25.385-5.003-27.015 1.05"/>
        <g transform="translate(155.603 2.897)">
            <mask id="p" fill="#fff">
                <use xlink:href="#o"/>
            </mask>
            <path d="M.51 3.77L3.858.304l28.826 4.14L8.583 6.672.51 3.77" mask="url(#p)"/>
        </g>
        <path fill="#F58A07" d="M103.824 65.36a19.72 19.72 0 0 0 2.374-1.394.38.38 0 1 1 .431.628 20.511 20.511 0 0 1-3.394 1.88.379.379 0 0 1-.502-.195.379.379 0 0 1 .195-.501c.302-.133.6-.273.896-.419M148.151 4.784c1.2.007 2.454.05 3.834.133.21.014.369.194.358.403a.381.381 0 0 1-.404.357 68.13 68.13 0 0 0-3.792-.131.381.381 0 0 1 .004-.761M141.871 5.847a.382.382 0 0 1 .138-.709 42.114 42.114 0 0 1 3.836-.317.38.38 0 1 1 .029.76c-1.308.05-2.575.156-3.766.312a.38.38 0 0 1-.237-.046M110.57 59.91a.377.377 0 0 1 .536-.058c.164.131.192.37.059.535a21.21 21.21 0 0 1-2.69 2.787.382.382 0 0 1-.539-.039.38.38 0 0 1 .04-.537 20.595 20.595 0 0 0 2.595-2.688M111.995 58.613a.38.38 0 0 1-.118-.525 19.679 19.679 0 0 0 1.7-3.32.382.382 0 0 1 .71.28 20.36 20.36 0 0 1-1.766 3.448.38.38 0 0 1-.526.117M114.553 53.109a.38.38 0 0 1-.266-.468c.315-1.145.55-2.347.717-3.677a.382.382 0 0 1 .756.095 26.42 26.42 0 0 1-.738 3.784.38.38 0 0 1-.47.266M120.628 19.647a29.44 29.44 0 0 0-1.812 3.292.382.382 0 0 1-.507.183l-.027-.013a.38.38 0 0 1-.156-.492c.324-.693.683-1.386 1.066-2.058.252-.446.516-.886.792-1.319.113-.177.334-.25.527-.118a.38.38 0 0 1 .117.525M117.939 25.016a27.668 27.668 0 0 0-1.082 3.592.382.382 0 0 1-.744-.169 28.3 28.3 0 0 1 1.112-3.691.381.381 0 0 1 .714.268M124.339 14.919a30.943 30.943 0 0 0-2.43 2.872.382.382 0 0 1-.612-.454 31.915 31.915 0 0 1 2.489-2.944.381.381 0 0 1 .553.526M130.79 9.765a.38.38 0 1 1-.39-.653 30.081 30.081 0 0 1 3.434-1.761.38.38 0 1 1 .304.698 29.586 29.586 0 0 0-3.347 1.716M115.699 41.03a.385.385 0 0 1-.385-.378l-.005-.482c-.009-1.11-.018-2.222-.008-3.332a.38.38 0 0 1 .764.008c-.011 1.104-.002 2.211.008 3.317l.004.482a.38.38 0 0 1-.378.384M125.956 13.343a.382.382 0 0 1-.538-.026.38.38 0 0 1 .026-.537 31.685 31.685 0 0 1 3.013-2.408.38.38 0 1 1 .44.622 30.908 30.908 0 0 0-2.94 2.35M61.379 80.675a.381.381 0 0 1 .47.6l-3.004 2.345a.382.382 0 0 1-.536-.064.38.38 0 0 1 .066-.534l3.004-2.347M66.213 76.943a.38.38 0 1 1 .457.61 169.587 169.587 0 0 0-3.019 2.315.382.382 0 0 1-.47-.6c1.002-.781 2.01-1.562 3.032-2.325M71.287 73.49a.382.382 0 0 1 .393.653 52.006 52.006 0 0 0-3.166 2.071.384.384 0 0 1-.533-.091.38.38 0 0 1 .093-.531 53.103 53.103 0 0 1 3.213-2.101M56.572 84.43a.38.38 0 0 1 .535.064c.13.166.101.404-.064.533l-3.005 2.347a.38.38 0 0 1-.47-.599l3.004-2.346M115.706 42.552a.38.38 0 0 1 .38.382 62.523 62.523 0 0 1-.112 3.828.38.38 0 0 1-.57.307.382.382 0 0 1-.192-.356c.07-1.102.106-2.303.111-3.781 0-.21.173-.38.383-.38M76.827 70.793a.38.38 0 1 1 .264.715c-1.137.418-2.262.919-3.436 1.529a.38.38 0 1 1-.353-.674 30.087 30.087 0 0 1 3.525-1.57M48.795 90.501l2.97-2.318a.38.38 0 1 1 .47.599l-2.97 2.318a.38.38 0 0 1-.47-.599M100.825 66.575a.381.381 0 1 1 .237.723c-1.152.377-2.374.69-3.738.954a.377.377 0 0 1-.261-.042.38.38 0 0 1 .115-.705 30.474 30.474 0 0 0 3.647-.93M116.128 30.393c.208.03.355.221.325.43a38.957 38.957 0 0 0-.332 3.753.381.381 0 0 1-.761-.034c.06-1.402.171-2.653.337-3.825a.381.381 0 0 1 .431-.324M82.804 69.277a.38.38 0 1 1 .125.75c-1.353.224-2.56.483-3.688.794a.381.381 0 1 1-.204-.734 36.669 36.669 0 0 1 3.767-.81M138.415 5.805c.435-.106.873-.203 1.312-.29a.38.38 0 1 1 .15.747 27.26 27.26 0 0 0-3.633.973.379.379 0 0 1-.485-.237.38.38 0 0 1 .237-.484c.794-.272 1.608-.51 2.419-.709M94.941 67.881a.38.38 0 0 1 .109.753 91.758 91.758 0 0 1-3.805.449.38.38 0 0 1-.077-.757c1.046-.105 2.42-.25 3.773-.445M88.89 68.545a.38.38 0 1 1 .074.757c-1.152.11-2.49.24-3.783.402a.383.383 0 0 1-.427-.33.382.382 0 0 1 .331-.426c1.306-.162 2.65-.293 3.805-.403"/>
        <path fill="#146EB4" d="M319.368 66.196l.947 5.229-4.523-2.56-15.04-10.195 18.616 7.526"/>
        <path fill="#0E4E80" d="M320.315 71.425l-8.095-2.98 2.33-.421 5.765 3.401"/>
        <g transform="translate(300.5 58.185)">
            <mask id="r" fill="#fff">
                <use xlink:href="#q"/>
            </mask>
            <path fill="#6EBBF5" d="M18.867 8.01l2.774-3.987L.25.485 18.866 8.01" mask="url(#r)"/>
        </g>
        <g transform="translate(300.5 58.185)">
            <mask id="t" fill="#fff">
                <use xlink:href="#s"/>
            </mask>
            <path d="M.25.485L15.291 10.68l-4.392 5.629L.25.485" mask="url(#t)"/>
        </g>
        <path fill="#F58A07" d="M317.12 75.445a.404.404 0 0 0 .27-.613 11.37 11.37 0 0 0-1.278-1.663.404.404 0 1 0-.594.55c.438.471.838.99 1.188 1.544.09.143.257.21.415.182M303.863 82.635a5.803 5.803 0 0 0-3.472-1.405.406.406 0 0 1-.388-.422c.01-.223.2-.394.423-.386a6.553 6.553 0 0 1 3.974 1.608.404.404 0 1 1-.537.605zm-7.817 2.48a.405.405 0 0 1-.386-.423c.056-1.183.486-2.217 1.247-2.992.276-.28.591-.52.936-.711a.404.404 0 1 1 .394.706c-.278.154-.53.346-.752.571-.627.64-.969 1.468-1.015 2.463a.405.405 0 0 1-.424.386zm22.886-3.478a.405.405 0 0 1-.42-.389 12.936 12.936 0 0 0-.197-1.792c-.128-.71-.319-1.408-.565-2.073a.404.404 0 0 1 .24-.52c.211-.078.443.03.52.24.263.709.466 1.452.602 2.21.114.624.184 1.265.21 1.904a.405.405 0 0 1-.39.42zM306.841 88.1c-.445-1.54-.926-2.706-1.51-3.667a.404.404 0 1 1 .693-.42c.623 1.025 1.13 2.252 1.595 3.864a.404.404 0 0 1-.778.223zm-8.463 2.694c-.266-.255-.52-.524-.753-.8a8.637 8.637 0 0 1-1.565-2.746.406.406 0 0 1 .766-.263 7.82 7.82 0 0 0 1.417 2.487c.216.255.45.504.696.739a.403.403 0 0 1-.208.688.403.403 0 0 1-.353-.105zm19.02-2.875a.404.404 0 0 1-.18-.543c.583-1.159.977-2.424 1.17-3.759a.405.405 0 0 1 .801.116 13.058 13.058 0 0 1-1.246 4.006.405.405 0 0 1-.545.18zm-13.075 5.927a12.674 12.674 0 0 1-3.924-1.516.404.404 0 1 1 .416-.694 11.864 11.864 0 0 0 3.674 1.418.404.404 0 1 1-.166.791zm8.461-1.43a.403.403 0 0 1 .157-.549c.718-.397 1.38-.873 1.968-1.412.367-.336.714-.705 1.032-1.096a.404.404 0 1 1 .629.51 11.117 11.117 0 0 1-3.235 2.706.405.405 0 0 1-.55-.157zm-4.045 2.34a.405.405 0 0 1-.467-.331l-.057-.336c-.458.037-.919.051-1.38.041a.404.404 0 1 1 .017-.808c.406.009.812-.003 1.216-.032a64.424 64.424 0 0 0-.617-2.836.405.405 0 0 1 .787-.188c.252 1.048.462 2.014.638 2.938.642-.09 1.277-.23 1.886-.416a.403.403 0 1 1 .238.773c-.64.195-1.307.342-1.978.438l.05.292a.405.405 0 0 1-.328.465h-.005zm.42 6.51a.405.405 0 0 1-.392-.417 29.244 29.244 0 0 0-.163-4.022.407.407 0 0 1 .36-.444.404.404 0 0 1 .445.359c.154 1.447.21 2.837.168 4.133a.405.405 0 0 1-.418.391zm-1.329 6.365a.404.404 0 0 1-.235-.52l.064-.172c.417-1.158.721-2.402.904-3.696a.404.404 0 1 1 .802.114 19.474 19.474 0 0 1-.944 3.856l-.068.184a.406.406 0 0 1-.523.234zm-3.747 5.295a.402.402 0 0 1 .014-.57 14.47 14.47 0 0 0 2.467-3.103.406.406 0 0 1 .698.412 15.25 15.25 0 0 1-2.607 3.274.404.404 0 0 1-.572-.013zm-5.728 3.017a.404.404 0 0 1 .297-.489c1.23-.303 2.436-.845 3.586-1.61a.404.404 0 1 1 .45.673c-1.228.817-2.52 1.397-3.843 1.722a.406.406 0 0 1-.49-.296zM296.347 116.536a.405.405 0 0 0-.067-.803 8.73 8.73 0 0 1-1.916-.239.404.404 0 0 0-.19.785 9.508 9.508 0 0 0 2.095.263.431.431 0 0 0 .078-.006"/>
        <g transform="translate(254.427 26.877)">
            <mask id="v" fill="#fff">
                <use xlink:href="#u"/>
            </mask>
            <path d="M2.592 1.622C1.844 3.25-.455 8.736.284 13.179c.11.662.49 1.26 1.07 1.6 4.885 2.854 11.62 3.81 13.948 4.065a1.91 1.91 0 0 0 1.539-.523c1.413-1.36 4.538-5.175 5.552-13.03a1.674 1.674 0 0 0-.476-1.392C17.566-.448 5.395 0 3.299.92a1.394 1.394 0 0 0-.707.701" mask="url(#v)"/>
        </g>
        <path fill="#FFC53A" d="M129.588 198.59c-17.633 0-31.927-14.26-31.927-31.85 0-17.59 14.294-31.849 31.927-31.849 17.632 0 31.926 14.26 31.926 31.85 0 17.59-14.294 31.849-31.926 31.849zm85.482-46.946c-1.167-1.508-8.313-3.061-16.475-3.207a70.728 70.728 0 0 0-8.187-19.005c5.242-4.834 10.264-10.48 9.689-13.959-1.168-7.06-16.505-19.084-19.518-19.47-1.93-.248-8.274 3.845-14.244 9.666a71.061 71.061 0 0 0-18.941-7.92c.284-7.133-.162-14.702-3.042-16.762-5.829-4.168-25.196-1.852-27.602 0-1.507 1.161-3.06 8.247-3.213 16.358a70.997 70.997 0 0 0-19.578 7.682c-4.725-5.02-10.106-9.656-13.468-9.103-7.076 1.165-19.13 16.464-19.518 19.471-.23 1.79 3.3 7.39 8.49 12.955a70.737 70.737 0 0 0-8.883 20.09c-6.463-.11-12.8.508-14.658 3.094-4.178 5.815-1.857 25.136 0 27.536 1.046 1.351 6.893 2.74 13.97 3.119a70.689 70.689 0 0 0 8.475 21.208c-4.345 4.29-7.964 8.863-7.472 11.844 1.168 7.06 16.504 19.084 19.518 19.47 1.659.214 6.583-2.784 11.726-7.329a71.058 71.058 0 0 0 21.388 8.752c-.026 6.079.658 11.838 3.113 13.593 5.829 4.168 25.196 1.852 27.602 0 1.358-1.046 2.753-6.905 3.128-13.989a71.08 71.08 0 0 0 20.67-8.998c4.465 4.594 9.336 8.564 12.46 8.05 7.077-1.165 19.13-16.464 19.519-19.47.231-1.8-3.336-7.446-8.567-13.039a70.641 70.641 0 0 0 7.816-20.031c6.844.202 13.833-.33 15.802-3.07 4.178-5.815 1.857-25.136 0-27.536z"/>
        <path fill="#FFFFFE" d="M129.841 121.355c-24.696 0-44.79 20.044-44.79 44.682 0 24.637 20.094 44.682 44.79 44.682 24.698 0 44.79-20.045 44.79-44.682 0-24.638-20.092-44.682-44.79-44.682zm0 90.007c-25.052 0-45.434-20.333-45.434-45.325 0-24.992 20.382-45.326 45.434-45.326 25.053 0 45.435 20.334 45.435 45.326s-20.382 45.325-45.435 45.325z"/>
        <path fill="#FFFFFE" d="M194.321 152.925c-.3-.034-.599-.072-.896-.121a64.792 64.792 0 0 1 1.557 14.077c0 35.832-29.222 64.984-65.14 64.984-23.519 0-44.164-12.5-55.617-31.188l-.007.002c-.292.064-.587.117-.883.162 11.568 19.082 32.567 31.868 56.506 31.868 36.386 0 65.987-29.53 65.987-65.828 0-4.789-.529-9.455-1.507-13.956M90.014 115.512c11.02-8.523 24.835-13.615 39.827-13.615.294 0 .583.018.876.022-.104-.28-.193-.565-.283-.85-.199-.002-.394-.016-.593-.016-15.124 0-29.066 5.115-40.207 13.685.132.255.259.513.38.774M243.733 75.724c-13.082 0-23.725 10.618-23.725 23.667 0 13.05 10.643 23.667 23.725 23.667 13.081 0 23.724-10.617 23.724-23.667s-10.643-23.667-23.724-23.667zm0 47.978c-13.438 0-24.369-10.906-24.369-24.311s10.931-24.31 24.369-24.31c13.437 0 24.369 10.905 24.369 24.31s-10.932 24.31-24.37 24.31z"/>
        <path fill="#FFFFFE" d="M278.103 92.402c-.16-.018-.32-.039-.478-.064.538 2.417.83 4.926.83 7.503 0 19.1-15.576 34.64-34.722 34.64-12.537 0-23.541-6.664-29.646-16.625l-.004.001a7.473 7.473 0 0 1-.47.086c6.166 10.172 17.36 16.987 30.12 16.987 19.395 0 35.173-15.74 35.173-35.089 0-2.552-.281-5.04-.803-7.44M222.503 72.46a34.594 34.594 0 0 1 21.23-7.258c.156 0 .31.01.467.012-.056-.15-.103-.302-.151-.454-.106 0-.21-.008-.316-.008a35.042 35.042 0 0 0-21.432 7.295c.07.136.137.273.202.413"/>
        <path fill="#6EBBF5" d="M172.524 68.86c-7.22 0-13.073-5.84-13.073-13.042s5.853-13.042 13.073-13.042c7.22 0 13.073 5.84 13.073 13.042 0 7.203-5.853 13.041-13.073 13.041zm35.002-19.224c-.478-.617-3.404-1.253-6.746-1.313a28.96 28.96 0 0 0-3.352-7.782c2.146-1.98 4.202-4.291 3.967-5.715-.478-2.891-6.758-7.815-7.992-7.973-.79-.101-3.388 1.574-5.832 3.958a29.113 29.113 0 0 0-7.756-3.243c.116-2.92-.066-6.02-1.245-6.864-2.387-1.706-10.317-.758-11.302 0-.618.476-1.254 3.378-1.316 6.698a29.087 29.087 0 0 0-8.017 3.146c-1.935-2.055-4.138-3.954-5.514-3.727-2.898.477-7.834 6.742-7.992 7.973-.095.732 1.351 3.025 3.476 5.304a28.957 28.957 0 0 0-3.637 8.226c-2.647-.045-5.241.208-6.003 1.268-1.71 2.38-.76 10.292 0 11.274.43.554 2.823 1.122 5.72 1.277a28.93 28.93 0 0 0 3.471 8.685c-1.779 1.756-3.261 3.629-3.06 4.85.479 2.89 6.759 7.813 7.993 7.972.679.087 2.695-1.14 4.801-3.001a29.105 29.105 0 0 0 8.758 3.584c-.011 2.488.27 4.846 1.274 5.565 2.387 1.707 10.317.759 11.302 0 .556-.428 1.127-2.828 1.281-5.728a29.106 29.106 0 0 0 8.464-3.684c1.828 1.88 3.823 3.506 5.102 3.296 2.898-.477 7.833-6.741 7.992-7.973.095-.736-1.366-3.048-3.508-5.338a28.922 28.922 0 0 0 3.2-8.202c2.803.082 5.665-.136 6.47-1.257 1.712-2.382.761-10.293 0-11.276z"/>
        <path fill="#FFFFFE" d="M172.628 37.424c-10.008 0-18.15 8.122-18.15 18.105 0 9.984 8.142 18.107 18.15 18.107 10.007 0 18.15-8.123 18.15-18.107 0-9.983-8.143-18.105-18.15-18.105zm0 36.855c-10.364 0-18.794-8.41-18.794-18.75 0-10.338 8.43-18.748 18.794-18.748 10.363 0 18.794 8.41 18.794 18.748 0 10.34-8.431 18.75-18.794 18.75z"/>
        <path fill="#FFFFFE" d="M199.03 50.161a7.594 7.594 0 0 1-.367-.05c.413 1.858.638 3.785.638 5.764 0 14.672-11.966 26.609-26.673 26.609-9.63 0-18.083-5.118-22.773-12.77h-.003c-.12.027-.24.048-.361.066 4.736 7.815 13.334 13.05 23.137 13.05 14.899 0 27.02-12.092 27.02-26.955 0-1.96-.217-3.871-.618-5.714M156.32 34.842a26.575 26.575 0 0 1 16.308-5.575c.12 0 .239.007.358.008-.043-.114-.079-.23-.115-.348-.082 0-.162-.006-.243-.006a26.917 26.917 0 0 0-16.464 5.604c.054.104.106.21.156.317"/>
        <path fill="#F0AB85" d="M269.869 177.927c.293.644.337 1.375.124 2.05l-.375 2.659-.458.307-1.704.702c.183-.523 0-1.065 0-1.065l-.75-2.75s-1.163-4.642 1.996-4.444c-.016-3.78 1.04-3.157 1.04-3.157l.127 5.698"/>
        <path fill="#FFC53A" d="M277.73 187.12s-2.21 8.409-4.093 8.56c-1.883.15-3.843-13.32-3.843-13.32l-2.56.307s-.996 19.372 4.75 19.725c5.745.352 6.504-3.931 6.504-3.931l-.759-11.34"/>
        <path fill="#F58A07" d="M277.97 210.11H293v-22.773c-4.295-6.537-9.647-4.757-9.647-4.757s-4.865.087-5.624 4.54c0 3.223.24 22.99.24 22.99"/>
        <path fill="#EC967C" d="M285.11 179.555l.223 3.22-.106.1a2.804 2.804 0 0 1-3.802.054l-.05-2.422 3.735-.952"/>
        <path fill="#F0AB85" d="M286.29 172.829l-.271 5.322c-.53-.022-.842.547-.74 1.045a.99.99 0 0 0-.09.392c-.92.657-2.595 1.516-4.754 1.104-3.376-.644-1.338-7.155-1.338-7.155l7.194-.708"/>
        <path fill="#1B2441" d="M287.988 176.826c.026-.39.559-1.218.856-1.474 1.91-1.65.2-2.852-.406-3.241-.67-.43-.539-1.644-1.407-2.322-1.326-1.035-2.605.038-3.454-.12-.85-.156-1.376-1.283-2.611-.686-1.235.597-1.099 1.564-1.495 1.972-.396.408-1.123-.72-2.327.569-1.833 1.96 1.761 2.798 1.761 2.798s1.966.812 4.57-.207c.357-.14.78-.062 1.007.247.622.847.629 5.287.629 5.287l.869-.72s1.893-.315 2.008-2.103"/>
        <path fill="#F0AB85" d="M285.963 177.262a.82.82 0 0 1-1.068.447.817.817 0 1 1 .62-1.513c.419.171.62.648.448 1.066"/>
        <path fill="#0E4E80" d="M281.376 253.05s-.847 1.17-4.84 2.185c-.88.223-1.828.376-1.828 1.822h3.942l4.03-.695v.695h2.177s.606-3.55-.665-4.006h-2.816"/>
        <path fill="#F0AB85" d="M281.169 250.5l.207 2.55a2.468 2.468 0 0 0 2.667.09l.15-.09v-2.55h-3.024"/>
        <path fill="#0E4E80" d="M292.573 253.05s-.847 1.17-4.84 2.185c-.88.223-1.827.376-1.827 1.822h3.942l4.03-.695v.695h2.176s.607-3.55-.665-4.006h-2.816"/>
        <path fill="#F0AB85" d="M292.366 250.5l.207 2.55a2.467 2.467 0 0 0 2.667.09l.15-.09v-2.55h-3.024"/>
        <path fill="#FFC53A" d="M292.99 187.337s4.505 10.372-1.243 15.67c-5.749 5.3-13.552 4.398-13.552 4.398v-2.988s7.053-.595 9.314-5.299c2.26-4.704-.904-8.775-.904-8.775"/>
        <path fill="#F0AB85" d="M278.655 206.995l-3.597.075c-1.461-.08-2.434-2.257-2.676-3.875a.329.329 0 0 1 .435-.355c1.222.423 4.362 1.532 5.175 2.035l.663 2.12"/>
        <path fill="#0E4E80" d="M277.97 210.11c-4.484 12.627 2.524 40.587 2.524 40.587h3.993s-1.884-39.647 3.314-40.587h-9.831"/>
        <path fill="#FFC53A" d="M288.311 195.98a8.068 8.068 0 0 1-.802 3.138c-2.26 4.704-9.681 5.327-9.681 5.327v3.018s8.17.844 13.919-4.455c2.084-1.922 2.817-4.509 2.908-7.028h-6.344"/>
        <path fill="#FFC53A" d="M288.277 196.436c.157-.072.316-.14.472-.214.27-3.477-1.767-6.097-1.793-6.13l-.354.28c.025.032 2.055 2.646 1.675 6.064"/>
        <path fill="#F0AB85" d="M269.179 178.326s.83-.248.959-1.757c.13-1.51.844-1.043.844-1.043s-.372 5.95-1.322 6.174c-.951.224-.481-3.374-.481-3.374"/>
        <path fill="#146EB4" d="M282.39 210.11c-1.221 15.483 8.688 40.587 8.688 40.587h4.747s-3.225-16.052-3.29-31.117c-.016-3.26.119-6.475.465-9.47h-10.61"/>
        <path fill="#0E4E80" d="M58.622 252.825s.819 1.13 4.678 2.11c.85.217 1.765.364 1.765 1.762h-3.808l-3.895-.672v.672h-2.104s-.585-3.432.643-3.872h2.721"/>
        <path fill="#F0AB85" d="M58.823 250.36l-.2 2.465a2.384 2.384 0 0 1-2.577.086l-.145-.086v-2.465h2.922"/>
        <path fill="#0E4E80" d="M43.956 252.825s.82 1.13 4.678 2.11c.85.217 1.765.364 1.765 1.762h-3.808l-3.895-.672v.672h-2.104s-.585-3.432.643-3.872h2.721"/>
        <path fill="#F0AB85" d="M44.157 250.36l-.2 2.465a2.384 2.384 0 0 1-2.577.086l-.145-.086v-2.465h2.922"/>
        <path fill="#146EB4" d="M59.597 207.91v43.087h-4.224l-4.18-43.087h8.404"/>
        <path fill="#0E4E80" d="M55.907 207.899s-1.216 12.2-4.008 20.33c-2.792 8.13-7.1 22.768-7.1 22.768h-4.346s6.035-30.538 4.655-43.098h10.799"/>
        <g transform="translate(52.772 178.753)">
            <mask id="x" fill="#fff">
                <use xlink:href="#w"/>
            </mask>
            <path fill="#6EBBF5" d="M.072 1.577S7.596 9.47 8.62 9.09c.82-.303-3.157-7.55-3.157-7.55L8.843.29s9.132 11.563 6.646 15.214c-2.486 3.65-13.328-2.796-13.328-2.796L.072 1.577" mask="url(#x)"/>
        </g>
        <path fill="#F0AB85" d="M46.221 209.17l1.304 3.217c.629 1.263 2.936 1.295 4.47.894.23-.06.31-.346.15-.521-.842-.921-3.026-3.281-3.783-3.809l-2.14.22"/>
        <g transform="translate(41.421 178.753)">
            <mask id="z" fill="#fff">
                <use xlink:href="#y"/>
            </mask>
            <path fill="#6EBBF5" d="M8.902.306s2.636.645 3.244 2.28c.608 1.635 5.812 26.56 5.812 26.56H4.789L.325 8.566S-1.1 3.962 3.32 2.326C7.739.693 8.902.307 8.902.307" mask="url(#z)"/>
        </g>
        <path fill="#6EBBF5" d="M59.16 207.909l-4.973-24.274.415-.138 4.995 24.412h-.437"/>
        <path fill="#EC967C" d="M43.912 175.15l2.107 5.667s1.426.945 3.132.313c1.706-.631 1.25-1.86 1.25-1.86l-1.35-3.63-2.77.277-2.369-.767"/>
        <path fill="#F0AB85" d="M49.669 176.635c.52-.21.974-.476 1.144-.797.62-2.97-3.52-8.825-3.52-8.825l-5.134 3.017 1.443 4.418a3.901 3.901 0 0 0 2.49 2.493c1.197.237 2.446.152 3.577-.306"/>
        <path fill="#1B2441" d="M44.789 169.187s1.952-.334 3.745-1.385c1.794-1.052-.22-2.707-.22-2.707s-1.18 1.173-3.844 1.735c-1.798.379-2.38.218-3.255 1.204-1.192 1.339.163 3.884.163 3.884l2.925 5.362.306-.114s-1.176-3.397-1.603-4.543c.127-.64.475-.77.791-.738.344.034.626.287.746.61l2.186 5.88s4.355.226 5.202-.42c.847-.646-1.412-4.768-1.412-4.768s-1.28-.07-1.778 1.2c-.494 1.258-1.886.655-1.886.655l-2.066-5.855"/>
        <path fill="#F0AB85" d="M60.967 179.284l-.36-.603c-.797-1.337-2.833-2.61-4.39-2.567l-1.434.531 1.581 2.892 2.497.526 2.106-.78M43.266 171.913c.409-.19.963.062 1.24.565.275.503.167 1.066-.242 1.257-.408.191-.963-.062-1.24-.565-.275-.503-.167-1.066.242-1.257"/>
        <path fill="#F0AB85" d="M56.829 178.98l3.394.58s-1.76.63-1.782.658l-3.876-1.375s.054-.51.86-.394a3.64 3.64 0 0 1 1.404.53"/>
        <g transform="translate(38.75 183.416)">
            <mask id="B" fill="#fff">
                <use xlink:href="#A"/>
            </mask>
            <path fill="#6EBBF5" d="M3.138.264S-.967 10.582.758 15.219C2.48 19.855 7.46 26.345 7.46 26.345l2.985-.872S7.395 14.9 6.395 12.21c-1-2.69 2.72-8.554 2.72-8.554" mask="url(#B)"/>
        </g>
        <path fill="#6EBBF5" d="M45.35 195.55c.86 2.317 3.562 11.186 4.076 13.29-.15.04-.213.052-.442.111-.633-2.599-3.198-10.973-4.045-13.249-1.025-2.759 2.588-8.503 2.743-8.745l.369.232c-.037.058-3.653 5.803-2.702 8.361"/>
        <path fill="#0E4E80" d="M53.076 174.608s.538 3.21 3.288 4.93a.86.86 0 0 0 .63.096c.451-.101.697-.364.906-.517.306-.224.405-.459.429-.633.02-.15-.054-.29-.191-.39-.584-.42-2.461-1.911-2.564-3.808-1.287-.43-2.498.322-2.498.322"/>
        <path fill="#6EBBF5" d="M58.118 178.918c.173-.185.188-.273.21-.434.021-.15-.053-.29-.19-.39-.584-.42-2.461-1.911-2.564-3.808a2.744 2.744 0 0 0-1.285-.098c.636 1.89 1.502 2.99 3.83 4.73"/>
        <path fill="#EE9E35" d="M55.652 176.466c.247.396.575.639.731.541.156-.097.082-.496-.166-.893-.247-.396-.575-.639-.73-.541-.157.097-.083.497.165.893"/>
        <path fill="#DC3F5E" d="M55.457 175.597l.162-.108.02.095-.1.09-.082-.077M56.343 177.023l.2-.12-.258.054.058.066"/>
        <path fill="#EE9E35" d="M55.785 176.383c.248.397.575.64.731.542.157-.097.082-.498-.166-.894s-.575-.638-.731-.542c-.156.098-.082.498.166.894M51.384 172.361l-.331.123c-.633.234-.968.917-.744 1.518l.323.868c.223.601.924.901 1.556.667l.331-.122-1.135-3.054"/>
        <path fill="#145F9A" d="M61.819 169.478c.88 2.37 1.049 4.492.375 4.741-.673.25-1.933-1.47-2.814-3.838-.881-2.37-1.049-4.492-.376-4.742.674-.249 1.934 1.47 2.815 3.84"/>
        <path fill="#FFC53A" d="M58.739 168.82l1.196.269.516 1.388-.66 1.266-1.014-1.677-.038-1.247"/>
        <path fill="#6EBBF5" d="M59.38 170.38c-.74-1.99-.975-3.803-.632-4.48l-.003-.002c-2.958 4.403-7.542 6.565-7.542 6.565l1.125 3.028s6.272-2.729 9.5-1.299c.002 0 .002-.002.003-.003-.703-.288-1.71-1.816-2.45-3.808"/>
        <path fill="#005C5A" d="M60.324 169.73c.143.386.2.72.127.747-.073.026-.248-.264-.391-.649-.143-.384-.2-.719-.128-.745.073-.027.248.263.392.648"/>
        <path fill="#F0AB85" d="M58.588 177.638c-.085.074-.35.419-1.466.832-.813.3-1.55-.56-1.889-1.05-.12-.174-.264-.429-.07-.639l1.239-.664 2.186 1.521"/>
        <path fill="#146EB4" d="M225.702 134.228l-1.588 4.196c-.133.586-.155 1.289.452 1.636 0 0 .401.233.832.381.29-.061 2.124-5.726 2.124-5.726l-.018-.034c-.727-.946-1.802-.453-1.802-.453"/>
        <path fill="#1B2441" d="M225.398 140.441l2.124-5.726.279.162-2.139 5.672-.264-.108"/>
        <path fill="#FFFFFE" d="M225.07 135.888l-.14.379.733.14.138-.366-.732-.153M224.764 136.698l-.14.38.734.14.138-.366-.732-.154"/>
        <path fill="#F0AB85" d="M223.94 133.239l1.762.99c.102.422-.05.865-.388 1.138l-.062.05-1.945-.5.633-1.678"/>
        <path fill="#0E4E80" d="M209.87 106.77s1.748 1.879 2.198 5.183c.3 2.2-.526 5.685-.616 8.42-.083 2.5 1.048 4.487 3.036 6.014l9.452 6.852-.633 1.679s-12.938-1.936-16.335-7.717c-3.396-5.78-4.202-18.866-4.202-18.866l7.1-1.564"/>
        <path fill="#F0AB85" d="M216.925 99.648l4.862 10.83s1.998.232 2.864.996c.453.4.432 1.199.31 1.87a.67.67 0 0 1-1.098.386c-.535-.463-1.224-.984-1.676-1.06-1.199-.199-1.558-1.046-1.558-1.046l-6.975-10.913 3.271-1.063M192.88 77.867l-2.491-2.125 1.93-10.498 2.998-1.528s-.326-.578-1.066-.332c-.739.245-1.365.1-1.365.1s-.561-.693.502-1.16c.597-.402.996-.003 2.728-.07 0-.265-2.281-.897-2.281-.897-.712-.228-2.528 1.175-2.528 1.175-.123.167-.201.36-.232.565l-.287 1.948s-3.863 10.565-3.863 11.694c0 1.128 2.165 2.674 2.165 2.674l3.79-1.546"/>
        <path fill="#146EB4" d="M206.273 107.86s1.499 1.801.6 5.987c-.574 2.672-3.095 6.034-4.788 8.35-1.214 1.66-1.24 3.749-.875 5.771 1.387 7.688-.83 17.074-.83 17.074h-1.8s-2.697-13.754-3.496-23.421c-.72-8.717 3.018-15.137 3.097-15.25l8.092 1.489"/>
        <path fill="#EE9E35" d="M196.305 63.338l-5.647.827-.22-1.489 5.648-.826.22 1.488"/>
        <path fill="#FFFFFE" d="M190.113 62.724l.219 1.489.516-.076-.22-1.488-.515.075"/>
        <path fill="#1B2441" d="M190.44 64.197c-.413.057-.761.03-.86-.644-.109-.735.226-.8.639-.863l.222 1.507"/>
        <path fill="#FFFFFE" d="M196.305 63.338l1.097-.657-.08-.542-1.236-.29.22 1.49"/>
        <path fill="#13374D" d="M197.402 62.68l.476-.342-.556-.199.08.542"/>
        <path fill="#E98333" d="M190.764 63.57l.05.338 5.458-.799-.05-.338-5.458.798M190.659 62.852l.05.338 5.457-.798-.05-.34-5.457.8"/>
        <path fill="#EE9E35" d="M210.686 86.61c3.213 2.354 6.525 13.674 6.525 13.674l-2.82 1.579-4.121-6.285s-.448 7.276.65 12.857c-.499 2.093-2.882 1.858-6.745 1.126-3.863-.73-6.394-2.392-6.394-2.392s-.166-10.094-.666-15.447.487-5.925-.866-5.748c-3.017-1.71-7.963-7.216-7.963-7.216l4.593-.89 9.891 5.78s4.837 1.272 7.916 2.962"/>
        <path fill="#F0AB85" d="M205.083 73.22l-2.387 2.352a4.12 4.12 0 0 0-1.132 3.832l.28 1.255 3.239-7.439"/>
        <g transform="translate(193.664 72.174)">
            <mask id="D" fill="#fff">
                <use xlink:href="#C"/>
            </mask>
            <path fill="#1B2441" d="M17.638 11.253s-1.032 7.199-3.33 10.089c-1.989 2.501-5.924 1.75-7.788.548a7.13 7.13 0 0 0-3.008-1.108c-1.58-.189-3.457-.885-3.457-3.726 0-2.674 3.2-4.743 5.306-6.22a6.928 6.928 0 0 0 2.73-4.028c.675-2.738 2.32-6.65 6.216-6.65 5.795 0 3.331 11.095 3.331 11.095z" mask="url(#D)"/>
        </g>
        <path fill="#146EB4" d="M200.07 147.035l-4.495-.006c-.596.083-1.264.309-1.375.997 0 0-.079.458-.066.913.16.249 6.12-.033 6.12-.033l.026-.029c.632-1.012-.21-1.842-.21-1.842"/>
        <path fill="#13374D" d="M194.134 148.939l6.12-.033-.053.317h-6.075l.008-.284"/>
        <path fill="#FFFFFE" d="M198.291 147.029l-.405.003.126.734h.393l-.114-.737M197.423 147.029l-.405.003.127.734h.392l-.114-.737"/>
        <path fill="#F0AB85" d="M200.38 145.042l-.31 1.993c-.36.243-.83.258-1.205.038l-.068-.04-.217-1.991h1.8M194.251 63.384c.74-.246 1.066.332 1.066.332l-1.994 1.017c-.028-.012-.055-.025-.083-.036-.327-.134-1.007-.427-1.32-.48.19-.19 1.962-.71 2.331-.833"/>
        <path fill="#F58A07" d="M130.982 183.587l-10.223-.056s.78-3.101.487-5.483c-.11-.9-.657-1.696-1.428-2.177-10.019-6.25-7.562-13.388-7.562-13.388s1.09-9.062 13.968-9.871c13.73-.862 12.842 11.304 12.842 11.304s.59 6.775-6.556 11.334c-1.023.653-1.672 1.753-1.827 2.954-.386 3.017.3 5.383.3 5.383"/>
        <path fill="#146EB4" d="M120.76 183.507l-.02 3.653c-.008 1.369.882 2.493 1.978 2.5l6.225.033c1.095.006 1.997-1.109 2.005-2.478l.02-3.653-10.209-.055"/>
        <path fill="#6EBBF5" d="M123.362 189.663l.694 1.673 3.872.02.855-1.664-5.421-.029"/>
        <path fill="#FFF" d="M121.674 164.763c1.161-.578 2.096-.027 2.62.494.294.292.453.69.45 1.103l-.012 2.225c-1.302.105-2.558-.23-3.343-1.4-.534-.797-.447-1.971.285-2.422zm6.047 2.132c-.008-.349.512-3.133 2.234-1.58.18.163.284.408.25.647-.135.979-1.53 1.636-2.516 1.958a8.433 8.433 0 0 1 .032-1.025zm-3.409 2.146c.131 0 .277-.007.418-.013l-.079 14.47.698.004.08-14.526a11.861 11.861 0 0 0 1.54-.267c.008.272.014.54.01.79l-.066 4.786-.13 9.224.7.004.208-15.007c.885-.282 1.706-.674 2.263-1.2 2.385-2.251-1.678-4.72-2.76-1.56-.244.711-.257 1.567-.24 2.395a15.48 15.48 0 0 1-1.605.362s.02-1.336.008-2.193c-.008-.485-.152-.972-.477-1.331-1.797-1.987-5.628-.576-4.09 2.32.664 1.247 2.194 1.732 3.522 1.742z"/>
        <path fill="#FAD473" d="M139.314 150.195a.539.539 0 0 1 .004-.763l5.19-5.12a.541.541 0 0 1 .764.003.538.538 0 0 1-.005.763l-5.189 5.121a.541.541 0 0 1-.764-.004M116.53 150.071a.538.538 0 0 0 .003-.762l-5.133-5.177a.541.541 0 0 0-.765-.004.538.538 0 0 0-.004.762l5.134 5.177c.21.212.552.214.764.004M126.298 148.235a.54.54 0 0 1-.538-.542l.04-7.282a.54.54 0 0 1 .544-.537.54.54 0 0 1 .537.543l-.04 7.282a.54.54 0 0 1-.543.536"/>
        <path fill="#EE9E35" d="M246.962 106.145l-6.237-.034s.475-1.893.297-3.346a1.853 1.853 0 0 0-.871-1.328c-6.114-3.813-4.615-8.17-4.615-8.17s.665-5.529 8.523-6.022c8.377-.526 7.836 6.897 7.836 6.897s.36 4.134-4.001 6.916c-.624.398-1.02 1.07-1.114 1.802-.236 1.84.182 3.285.182 3.285"/>
        <path fill="#6EBBF5" d="M240.725 106.095l-.012 2.23c-.005.835.538 1.52 1.206 1.525l3.798.02c.669.004 1.22-.676 1.224-1.512l.012-2.229-6.228-.034"/>
        <path fill="#6EBBF5" d="M242.313 109.852l.423 1.02 2.362.013.522-1.015-3.307-.018"/>
        <path fill="#FAD473" d="M241.282 94.66c.71-.354 1.28-.017 1.6.3a.94.94 0 0 1 .274.673l-.007 1.358c-.794.064-1.56-.14-2.04-.855-.326-.485-.273-1.202.173-1.477zm3.69 1.3c-.004-.213.313-1.912 1.363-.964.11.099.173.248.153.395-.082.597-.934.998-1.535 1.194-.003-.21-.003-.42.02-.625zm-2.08 1.31c.08 0 .17-.005.255-.009l-.048 8.829.426.003.048-8.863c.304-.032.622-.087.94-.163.005.166.009.329.006.481l-.04 2.921-.079 5.628.427.002.127-9.156c.54-.173 1.04-.412 1.381-.733 1.454-1.373-1.024-2.879-1.685-.951-.148.434-.157.956-.145 1.461-.28.08-.649.166-.98.22 0 0 .012-.814.005-1.337-.005-.296-.093-.593-.291-.812-1.097-1.213-3.434-.351-2.495 1.415.404.76 1.338 1.057 2.148 1.063z"/>
        <path fill="#EE9E35" d="M175.077 60.755l-4.596-.025s.35-1.394.22-2.465a1.367 1.367 0 0 0-.643-.978c-4.504-2.81-3.4-6.018-3.4-6.018s.49-4.074 6.28-4.438c6.171-.387 5.773 5.082 5.773 5.082s.265 3.045-2.948 5.095c-.46.293-.752.787-.82 1.328a6.58 6.58 0 0 0 .134 2.42"/>
        <path fill="#6EBBF5" d="M170.481 60.72l-.008 1.641c-.004.616.396 1.121.889 1.124l2.798.015c.492.003.898-.499.901-1.114l.01-1.642-4.59-.025"/>
        <path fill="#6EBBF5" d="M171.651 63.486l.312.752 1.74.01.385-.748-2.437-.014"/>
        <path fill="#FFF" d="M170.892 52.293c.522-.26.943-.012 1.179.223a.69.69 0 0 1 .201.495l-.005 1c-.585.048-1.15-.103-1.502-.63-.24-.357-.201-.885.127-1.088zm2.718.959c-.003-.157.23-1.409 1.005-.71.08.072.127.183.113.29-.061.44-.688.736-1.132.88a3.777 3.777 0 0 1 .014-.46zm-1.531.964c.058.001.124-.003.187-.005l-.035 6.504.314.002.035-6.53c.224-.023.458-.063.693-.12.003.123.006.243.004.355l-.03 2.152-.058 4.146.314.002.094-6.746c.398-.127.767-.303 1.018-.54 1.071-1.011-.755-2.12-1.24-.7-.11.32-.117.704-.108 1.076-.207.06-.478.122-.722.163 0 0 .008-.601.003-.986a.906.906 0 0 0-.214-.598c-.808-.894-2.53-.259-1.839 1.043.298.56.987.778 1.584.782z"/>
        <path fill="#146EB4" d="M188.608 149.304l9.212.006c8.609.006 16.407 5.07 19.896 12.92l8.762 19.71-18.232 8.708 5.843 3.932 3.238 29.913-66.87-1.123-2.534-74.503 40.33.886.355-.449"/>
        <path fill="#EC967C" d="M181.288 134.19s.845 8.99 2.1 12.78c.988 2.704 5.22 2.334 5.22 2.334s-3.255 14.238-15.204 14.238c-11.949 0-13.797-12.218-13.797-12.218l8.485-1.302-3.92-13.005 17.116-2.827"/>
        <path fill="#F0AB85" d="M186.132 114.27L183.4 98.196l-27.873 12.402 1.688 9.41s2.155 22.918 16.993 20.191c16.05-2.949 12.64-26.132 11.925-25.927M226.478 181.94l3.763 13.317a26.894 26.894 0 0 1-7.591 27.025l-17.079 14.289-5.489-15.991 9.446-9.436a10.802 10.802 0 0 0 2.341-11.799l-3.623-8.697 18.232-8.708M135.359 185.394l-2.092 6.477a33.92 33.92 0 0 0 7.666 33.755l10.37 10.945 5.348-25.589-14.781-25.588h-6.511"/>
        <path fill="#146EB4" d="M133.267 191.87l9.307 5.378 1.565-15.396h-8.323l-2.549 10.019"/>
        <path fill="#1B2441" d="M157.233 121c17.91 3.766 28.003-16.131 28.003-16.131s-.547 4.153 1.144 10.301c6.03-7.803 2.087-17.634 2.087-17.634s-4.874-10.74-26.607-5.477c-25.34 6.136-29.563 40.868-29.563 40.868s-1.853 7.562 4.672 19.685c1.843 3.424 1.74 7.642-.63 10.727-5.424 7.061-4.042 15.773-4.042 15.773s.53 4.541 4.418 7.516c3.633 2.779 5.1 8.736 3.642 13.067-3.12 9.269-.458 14.546-.458 14.546s1.696 5.956 10.98 6.32c13.537.531 13.251-10.195 12.031-16.237-.464-2.298.138-4.676 1.708-6.42 1.66-1.844 3.464-4.726 3.578-8.61.095-3.277-1.187-6.744-2.625-9.565-1.862-3.655-1.541-8.008.897-11.31 3.458-4.683 7.92-14 5.422-20.044-4.224-10.214-11.437-13.622-14.657-27.375"/>
        <path fill="#FFFFFE" d="M147.923 240.574h67.745v-40.447h-67.745z"/>
        <path fill="#BAA6B7" d="M147.923 242.259h67.745v-3.37h-67.745z"/>
        <path fill="#146EB4" d="M179.086 216.63a2.707 2.707 0 0 0 2.71 2.702c1.497 0 2.71-1.21 2.71-2.703a2.707 2.707 0 0 0-2.71-2.704 2.707 2.707 0 0 0-2.71 2.704"/>
        <path fill="#0E4E80" d="M264.164 229.781c8.729 26.17-107.042 37.872-107.042 37.872l-2.764-14.79s101.078-49.253 109.806-23.082"/>
        <path fill="#F0AB85" d="M150.127 267.601l-16.604.99-3.144-3.446 1.594-6.244 15.696-2.258 2.458 10.958"/>
        <path fill="#0E4E80" d="M133.523 258.678l-16.894-2.035s-6.545-1.713-12.386-.762v15.295c4.375.505 8.725-.057 8.725-.057l20.555-2.528-.234-.352c-1.89-2.854-1.797-6.804.234-9.561"/>
        <path fill="#FFFFFE" d="M95.653 262.617c1.134-4.323 4.754-6.131 8.675-6.751v15.318c-5.088-.57-10.248-2.569-8.675-8.567"/>
        <path fill="#F0AB85" d="M124.39 259.796v6.583"/>
        <path fill="#FFFFFE" d="M123.545 266.38h1.689v-6.584h-1.69z"/>
        <path fill="#F0AB85" d="M120.219 259.796v6.583"/>
        <path fill="#FFFFFE" d="M119.374 266.38h1.69v-6.584h-1.69z"/>
        <path fill="#146EB4" d="M154.358 250.615l3.097 19.1-7.321 1.404-3.66-18.257 7.884-2.247"/>
        <path fill="#F0AB85" d="M186.108 114.973c-.748 1.94-.301 3.915.996 4.413 1.297.498 2.955-.67 3.703-2.61.747-1.94.301-3.915-.996-4.413-1.297-.498-2.955.67-3.703 2.61"/>
        <path fill="#0E4E80" d="M95.835 229.781c-8.728 26.17 107.043 37.872 107.043 37.872l2.764-14.79S104.563 203.61 95.835 229.78"/>
        <path fill="#F0AB85" d="M209.872 267.601l16.606.99 3.143-3.446-1.594-6.244-15.696-2.258-2.459 10.958"/>
        <path fill="#0E4E80" d="M255.812 255.89c-5.855-.97-12.441.753-12.441.753l-16.893 2.035c2.03 2.757 2.123 6.707.233 9.56l-.233.353 20.553 2.528s4.388.567 8.781.05V255.89"/>
        <path fill="#FFFFFE" d="M264.347 262.617c-1.134-4.323-4.754-6.131-8.676-6.751v15.318c5.088-.57 10.249-2.569 8.676-8.567"/>
        <path fill="#F0AB85" d="M235.61 259.796v6.583"/>
        <path fill="#FFFFFE" d="M234.766 266.38h1.69v-6.584h-1.69z"/>
        <path fill="#F0AB85" d="M239.781 259.796v6.583"/>
        <path fill="#FFFFFE" d="M238.937 266.38h1.689v-6.584h-1.69z"/>
        <path fill="#146EB4" d="M205.642 250.615l-3.097 19.1 7.32 1.404 3.661-18.257-7.884-2.247"/>
    </g>
</svg>
