<svg xmlns="http://www.w3.org/2000/svg" width="330" height="300" viewBox="0 0 330 300">
    <defs>
        <linearGradient id="a" x1="10.337%" x2="89.715%" y1="50%" y2="50%">
            <stop offset="0%" stop-color="#FFF"/>
            <stop offset="100%" stop-color="#231F20"/>
        </linearGradient>
        <linearGradient id="b" x1="10.324%" x2="89.598%" y1="50%" y2="50%">
            <stop offset="0%" stop-color="#FFF33B"/>
            <stop offset="4%" stop-color="#FEE72E"/>
            <stop offset="12%" stop-color="#FED51B"/>
            <stop offset="20%" stop-color="#FDCA10"/>
            <stop offset="28%" stop-color="#FDC70C"/>
            <stop offset="67%" stop-color="#F3903F"/>
            <stop offset="89%" stop-color="#ED683C"/>
            <stop offset="100%" stop-color="#E93E3A"/>
        </linearGradient>
    </defs>
    <g fill="none" fill-rule="nonzero" transform="translate(-2)">
        <path fill="#35A7FF" d="M81.185 197.913l-9.25 20.264h196.184l-7.19-20.264z" opacity=".15" style="mix-blend-mode:multiply"/>
        <path fill="#000" d="M328.705 266.798a4.858 4.858 0 0 0-1.352-.988l-41.236-29.915-12.907-19.658a1.51 1.51 0 0 0-1.137-.671l5.138-8.729-.457-.447c1.194-2.024-.615-3.292-1.352-3.73-.737-.439-2.723-1.409-3.907.606l-.606-.177-.747 1.258-6.266 10.66a1.53 1.53 0 0 0-1.557 1.398 1.539 1.539 0 0 1-1.138 1.352l-6.285 1.613a1.53 1.53 0 0 0-1.1 1.865l.205.812a1.52 1.52 0 0 1-.933 1.8l-9.633 3.972a1.539 1.539 0 0 0-.932 1.865l1.007 3.59h-31.93a4.663 4.663 0 0 0-4.746 4.588c-.012.387.013.774.074 1.157l5.371 33.57a6.92 6.92 0 0 0 6.528 5.745h64.978a4.663 4.663 0 0 0 4.747-4.598c.011-.39-.014-.78-.075-1.165l-1.65-10.258 22.585 21.858.056-.065c.146.209.305.408.476.597 2.937 3.087 9.521 1.585 14.715-3.348 5.194-4.933 7.022-11.48 4.066-14.557z" opacity=".15" style="mix-blend-mode:multiply"/>
        <path fill="#52B3FF" d="M207.067 267.171c-1.405-11.339-2.807-22.675-4.206-34.009a4.028 4.028 0 0 0-3.889-3.46h-83.34a4.028 4.028 0 0 0-3.878 3.46c-1.405 11.34-2.807 22.676-4.206 34.01v.354a3.208 3.208 0 0 0 3.45 3.114h92.674a3.199 3.199 0 0 0 3.441-3.114c-.028-.112-.037-.233-.046-.355zM70.396 202.37c-.392.933-.578 1.353-.932 2.248.651.347.904 1.152.568 1.809a2.34 2.34 0 0 1-1.92 1.343l-.579 1.361c.653.347.903 1.155.56 1.81a2.313 2.313 0 0 1-1.865 1.342l-.578 1.362c.648.35.896 1.154.56 1.809a.56.56 0 0 1-.085.121 4.271 4.271 0 0 0-1.604-1.455 2.872 2.872 0 0 0-3.73.933 42.103 42.103 0 0 0-2.741 4.252.466.466 0 0 1-.644.177l-.4-.224a.485.485 0 0 1-.187-.643l1.119-2.005a2.993 2.993 0 1 0-5.232-2.91l-2.639 4.738a.746.746 0 0 1-1.007.289.476.476 0 0 1-.177-.644l2.005-3.6a1.772 1.772 0 0 0-.681-2.386l-.625-.345a1.753 1.753 0 0 0-2.387.68l-2.154 3.852a.457.457 0 0 1-.634.186l-.215-.112a.476.476 0 0 1-.177-.643l1.38-2.49a1.1 1.1 0 0 0-.429-1.51 2.881 2.881 0 0 0-3.907 1.11l-8.57 15.404a4.82 4.82 0 0 0-.158.308 5.362 5.362 0 0 0-.476 2.35l.15 11.638a1.408 1.408 0 0 0-1.866.56L4.765 286.175l.075.047c-.098.13-.185.267-.261.41-1.604 3.161 1.771 8.095 7.544 11.041 5.595 2.798 11.311 2.798 13.158-.074l.074-.15a1.23 1.23 0 0 0 .112-.186c0-.065.056-.15.093-.215l22.306-44.126c.34-.677.085-1.5-.578-1.866l3.73-.55a1.66 1.66 0 0 1-.093 1.026c-.3.74-.979 1.258-1.772 1.352-.214.541-.326.812-.55 1.352.625.4.833 1.216.476 1.865a2.182 2.182 0 0 1-1.753 1.343l-1.11 2.742c16.132 3.245 32.349 5.968 48.491 8.896a3461.365 3461.365 0 0 0 24.087-57.816c-16.049-3.236-32.265-5.96-48.398-8.897zm-13.69 34.84a.457.457 0 0 1-.186-.616c.125.19.2.408.215.634l-.028-.018zm1.8-3.73a2.182 2.182 0 0 1-.857.997l.988-1.865c.025.31-.036.62-.177.895l.046-.028z" opacity=".15" style="mix-blend-mode:multiply"/>
        <path fill="#FFB583" d="M63.225 227.353a3.059 3.059 0 0 0-4.159 1.184l-2.592 4.663a.476.476 0 0 1-.644.186l-.55-.308a.485.485 0 0 1-.187-.643s8.664-15.853 9.494-17.615c1.137-2.332.149-3.889-1.558-4.84a2.863 2.863 0 0 0-3.73.932 40.733 40.733 0 0 0-2.797 4.243.476.476 0 0 1-.635.187l-.41-.224a.485.485 0 0 1-.186-.643l1.119-2.005a2.995 2.995 0 1 0-5.232-2.92l-2.639 4.747a.737.737 0 0 1-.998.29.466.466 0 0 1-.186-.644l2.005-3.6c.468-.85.164-1.919-.681-2.396l-.615-.345a1.762 1.762 0 0 0-2.397.68l-2.145 3.861a.485.485 0 0 1-.643.187l-.215-.121a.466.466 0 0 1-.177-.644l1.39-2.49a1.1 1.1 0 0 0-.43-1.501 2.881 2.881 0 0 0-3.916 1.11l-8.57 15.396a5.315 5.315 0 0 0-.634 2.658l.159 12.374 14.351 7.982 7.74-1.137a8.393 8.393 0 0 0 6.07-4.206l5.717-10.258a3.059 3.059 0 0 0-1.119-4.14z"/>
        <path fill="#F58A07" d="M45.936 246.954l-15.321-8.523a1.417 1.417 0 0 0-1.912.522l-25.318 43.12 20.516 11.433 22.604-44.63a1.417 1.417 0 0 0-.569-1.922z"/>
        <ellipse cx="13.633" cy="287.814" fill="#FFCB30" rx="6.416" ry="11.731" transform="rotate(-63.03 13.633 287.814)"/>
        <path fill="#FFE8E0" d="M62.73 228.649a1.753 1.753 0 0 0-2.386.68l-.457.821a1.755 1.755 0 0 0 3.068 1.707l.457-.82a1.762 1.762 0 0 0-.681-2.388z"/>
        <path fill="#FFF" d="M47.745 251.943a1.399 1.399 0 0 0-.475-1.809l.56-1.361a2.191 2.191 0 0 0 1.762-1.343 1.399 1.399 0 0 0-.485-1.81l.56-1.36a2.191 2.191 0 0 0 1.78-1.343 1.38 1.38 0 0 0-.485-1.81c.224-.55.336-.82.55-1.361.801-.09 1.492-.602 1.81-1.343a1.39 1.39 0 0 0-.504-1.809l.56-1.361a2.238 2.238 0 0 0 1.865-1.343 1.37 1.37 0 0 0-.513-1.81c.224-.55.335-.82.569-1.36a2.266 2.266 0 0 0 1.865-1.344 1.37 1.37 0 0 0-.532-1.809l.569-1.361a2.275 2.275 0 0 0 1.865-1.343 1.38 1.38 0 0 0-.532-1.865c.224-.541.336-.811.57-1.352a2.275 2.275 0 0 0 1.864-1.343 1.38 1.38 0 0 0-.54-1.819c.233-.54.345-.81.568-1.352a2.294 2.294 0 0 0 1.865-1.343 1.37 1.37 0 0 0-.55-1.865l.578-1.352a2.322 2.322 0 0 0 1.865-1.343 1.361 1.361 0 0 0-.56-1.865l.579-1.352a2.331 2.331 0 0 0 1.912-1.343 1.361 1.361 0 0 0-.57-1.818l.579-1.352a2.34 2.34 0 0 0 1.921-1.343 1.352 1.352 0 0 0-.569-1.818c.383-.933.569-1.343.933-2.238 16.179 2.928 32.396 5.65 48.49 8.896a3392.232 3392.232 0 0 1-24.077 57.816c-16.188-2.937-32.405-5.66-48.538-8.896.448-1.1.672-1.65 1.11-2.751a2.182 2.182 0 0 0 1.781-1.222z"/>
        <path fill="#146EB4" d="M109.898 211.099c-12.216-2.36-24.498-4.42-36.75-6.593a.336.336 0 0 1-.262-.494.606.606 0 0 1 .615-.336c12.254 2.173 24.526 4.234 36.742 6.602a.336.336 0 0 1 .233.485.54.54 0 0 1-.578.336zM108.368 214.726c-12.234-2.34-24.534-4.41-36.806-6.593a.336.336 0 0 1-.252-.494.597.597 0 0 1 .615-.335c12.272 2.182 24.554 4.252 36.798 6.592a.345.345 0 0 1 .233.495.55.55 0 0 1-.588.335zM106.84 218.354c-12.254-2.331-24.564-4.41-36.854-6.593a.336.336 0 0 1-.252-.494.578.578 0 0 1 .616-.336c12.28 2.191 24.58 4.262 36.843 6.593a.336.336 0 0 1 .234.494.55.55 0 0 1-.588.336zM105.31 221.981c-12.282-2.322-24.6-4.401-36.89-6.593a.345.345 0 0 1-.262-.494.578.578 0 0 1 .616-.335c12.29 2.2 24.609 4.27 36.88 6.592a.345.345 0 0 1 .243.495.578.578 0 0 1-.587.335zM103.762 225.609c-12.29-2.257-24.61-4.392-36.919-6.602a.336.336 0 0 1-.252-.485.578.578 0 0 1 .616-.336c12.3 2.2 24.619 4.336 36.91 6.593a.345.345 0 0 1 .242.494.587.587 0 0 1-.597.336zM102.223 229.236c-12.31-2.256-24.628-4.382-36.937-6.602a.336.336 0 0 1-.261-.485.578.578 0 0 1 .615-.335c12.31 2.21 24.628 4.345 36.928 6.593a.345.345 0 0 1 .252.494.587.587 0 0 1-.597.335zM100.666 232.855c-12.31-2.238-24.637-4.365-36.947-6.593a.345.345 0 0 1-.252-.495.578.578 0 0 1 .607-.326c12.309 2.22 24.637 4.355 36.946 6.593a.345.345 0 0 1 .252.494.578.578 0 0 1-.606.327zM99.109 236.482c-12.31-2.229-24.638-4.355-36.947-6.593a.345.345 0 0 1-.252-.494.578.578 0 0 1 .606-.326c12.31 2.228 24.638 4.364 36.947 6.593a.336.336 0 0 1 .252.494.569.569 0 0 1-.606.326zM97.551 240.11c-12.31-2.22-24.637-4.346-36.937-6.593a.336.336 0 0 1-.252-.495.569.569 0 0 1 .597-.326c12.31 2.238 24.637 4.364 36.947 6.593a.336.336 0 0 1 .251.494.569.569 0 0 1-.606.327zM95.994 243.737c-12.31-2.21-24.628-4.336-36.928-6.593a.345.345 0 0 1-.252-.494.569.569 0 0 1 .597-.326c12.3 2.247 24.628 4.373 36.937 6.593a.345.345 0 0 1 .252.494.578.578 0 0 1-.606.326zM83.563 246.078c-8.728-1.51-17.456-3.012-26.11-4.663a.345.345 0 0 1-.243-.494.587.587 0 0 1 .597-.336c8.7 1.65 17.438 3.152 26.167 4.663a.336.336 0 0 1 .27.494.634.634 0 0 1-.68.336z"/>
        <path fill="#FFB583" d="M63.225 227.353a3.059 3.059 0 0 0-4.159 1.184l-2.592 4.663a.476.476 0 0 1-.644.186l-.55-.308-3.301-1.492-4.952 15.2 5.595-.82a8.393 8.393 0 0 0 6.071-4.206l5.716-10.258a3.059 3.059 0 0 0-1.184-4.15z"/>
        <path fill="#FFE8E0" d="M62.73 228.649a1.753 1.753 0 0 0-2.386.68l-.457.821a1.755 1.755 0 0 0 3.068 1.707l.457-.82a1.762 1.762 0 0 0-.681-2.388z"/>
        <path fill="#CBCBD1" d="M220.169 76.834l73.156-.494-4.159-7.31a5.493 5.493 0 0 0-4.765-2.799H54.124a5.502 5.502 0 0 0-4.766 2.798l-4.14 7.33 153.698.569v.074l7.46-.056 13.811.056-.018-.168z"/>
        <path fill="#FFF" d="M54.124 66.26a5.502 5.502 0 0 0-4.766 2.797l-4.14 7.302 153.698.569v.074l7.46-.056h8.393l14.268-10.705-174.913.018zM154.538 168.37l-15.21 46.673h59.803l-12.067-46.672z"/>
        <path fill="#146EB4" d="M139.328 215.053h59.803a3.73 3.73 0 0 1-3.73 3.73h-52.268a3.777 3.777 0 0 1-3.786-3.73h-.019z"/>
        <path fill="#0E4E80" d="M260.1 193.53H79.6a3.115 3.115 0 0 1-3.012-2.322L44.882 79.24a3.926 3.926 0 0 1 3.805-4.933h241.234a3.935 3.935 0 0 1 3.814 4.896L263.167 191.18a3.115 3.115 0 0 1-3.068 2.35z"/>
        <path fill="#0E4E80" d="M289.875 74.307h-32.741L133.966 193.53H260.1a3.115 3.115 0 0 0 3.022-2.35l30.568-111.977a3.935 3.935 0 0 0-3.814-4.896z"/>
        <path fill="#35A7FF" d="M153.008 173.07l-11.218 34.42 51.625-14.557-1.53-5.912-34.727-15.909z" opacity=".15" style="mix-blend-mode:multiply"/>
        <path fill="#E6E7E8" d="M257.6 189.278H82.025L50.729 79.445h237z"/>
        <path fill="#FFF" d="M283.45 95.056l1.79-6.519H53.322l1.855 6.519z"/>
        <path fill="#146EB4" d="M99.258 184.653H85.745L62.218 96.939H75.73zM54.124 91.363h230.333l3.273-11.918h-237zM252.518 184.653l23.527-87.714h-24.889l-23.518 87.714z"/>
        <path fill="#0E4E80" d="M257.61 165.657l.867-3.226h-24.88l-.867 3.226zM239.789 139.332l-.867 3.226h24.88l.867-3.226zM245.99 116.233l-.867 3.227h24.88l.867-3.227z"/>
        <path fill="#D1D3D4" d="M207.067 263.954c-1.405-11.34-2.807-22.676-4.206-34.009a4.028 4.028 0 0 0-3.889-3.46h-83.34a4.028 4.028 0 0 0-3.878 3.46c-1.405 11.34-2.807 22.676-4.206 34.01v.354a3.208 3.208 0 0 0 3.45 3.114h92.674a3.199 3.199 0 0 0 3.441-3.114v-1.53c-.028 1.418-.037 1.296-.046 1.175z"/>
        <path fill="#FFF" d="M203.644 267.414H110.97a3.18 3.18 0 0 1-3.422-3.46c1.399-11.34 2.8-22.676 4.206-34.009a4.028 4.028 0 0 1 3.879-3.46h83.34a4.028 4.028 0 0 1 3.888 3.46c1.399 11.34 2.8 22.676 4.206 34.01a3.18 3.18 0 0 1-3.423 3.459z"/>
        <path fill="#6B79AB" d="M133.808 256.224h3.366a.793.793 0 0 0 .811-.718c.066-1.24.094-1.865.15-3.115a.7.7 0 0 0-.728-.718h-3.32a.811.811 0 0 0-.81.718c-.075 1.25-.113 1.865-.197 3.115a.7.7 0 0 0 .728.718zm8.392-10.902h3.274c.408.006.749-.31.774-.718l.093-3.114a.709.709 0 0 0-.728-.718h-3.235a.765.765 0 0 0-.774.718c-.056 1.25-.084 1.865-.131 3.114a.7.7 0 0 0 .727.718zm-5.968 0h3.273a.774.774 0 0 0 .784-.718l.14-3.114a.69.69 0 0 0-.718-.718h-3.227a.783.783 0 0 0-.793.718c-.074 1.25-.102 1.865-.177 3.114a.7.7 0 0 0 .718.718zm5.194 4.719c.056-1.24.075-1.865.13-3.115a.7.7 0 0 0-.726-.718h-3.292a.783.783 0 0 0-.793.718l-.168 3.115a.7.7 0 0 0 .728.718h3.32a.783.783 0 0 0 .801-.718zm-15.955.718h3.32a.82.82 0 0 0 .82-.718c.084-1.24.13-1.865.215-3.115a.68.68 0 0 0-.7-.718h-3.282a.83.83 0 0 0-.82.718c-.103 1.25-.16 1.865-.262 3.115a.671.671 0 0 0 .709.7v.018zm37.795-10.994h3.227a.7.7 0 0 0 .718-.718l-.075-3.106a.755.755 0 0 0-.755-.718h-3.19a.709.709 0 0 0-.727.718v3.106a.737.737 0 0 0 .802.718zm-33.002 5.595h3.273c.41.002.754-.31.793-.718l.186-3.115a.671.671 0 0 0-.699-.718h-3.236a.802.802 0 0 0-.802.718c-.084 1.25-.13 1.865-.224 3.115a.68.68 0 0 0 .71.68v.038zm5.25 4.718l.177-3.114a.7.7 0 0 0-.718-.718h-3.282a.802.802 0 0 0-.802.718c-.084 1.25-.13 1.865-.215 3.114a.68.68 0 0 0 .718.718h3.348a.793.793 0 0 0 .774-.755v.037zm-7.88 6.183h3.376c.42.012.777-.301.82-.718.085-1.24.122-1.865.206-3.115a.69.69 0 0 0-.718-.718h-3.33a.83.83 0 0 0-.83.718l-.232 3.115a.671.671 0 0 0 .708.68v.038zm.737-11.62c.103-1.249.15-1.864.243-3.114a.671.671 0 0 0-.7-.718h-3.226a.802.802 0 0 0-.812.718l-.28 3.115a.671.671 0 0 0 .7.718h3.273a.811.811 0 0 0 .802-.756v.038zm30.055 11.62h3.357a.727.727 0 0 0 .765-.718v-3.115a.765.765 0 0 0-.765-.755h-3.32a.746.746 0 0 0-.773.718v3.115a.746.746 0 0 0 .736.718v.037zm.765-6.183v-3.114a.737.737 0 0 0-.755-.718h-3.283a.746.746 0 0 0-.765.718v3.114a.727.727 0 0 0 .756.718h3.32a.737.737 0 0 0 .727-.755v.037zm-1.781-4.718a.737.737 0 0 0 .755-.718v-3.115a.727.727 0 0 0-.746-.718h-3.236a.746.746 0 0 0-.755.718v3.115a.727.727 0 0 0 .746.718h3.236zm5.968 0a.727.727 0 0 0 .746-.718c0-1.25 0-1.865-.056-3.115a.746.746 0 0 0-.765-.718h-3.226a.727.727 0 0 0-.746.718v3.115a.737.737 0 0 0 .755.718h3.292zm-17.261 10.864h3.366a.765.765 0 0 0 .793-.718l.056-3.115a.727.727 0 0 0-.755-.718h-3.33a.774.774 0 0 0-.783.718c0 1.25-.065 1.865-.102 3.115a.718.718 0 0 0 .755.718zm6.155 0h3.366a.755.755 0 0 0 .783-.718v-3.115a.737.737 0 0 0-.764-.718h-3.33a.765.765 0 0 0-.773.718v3.115a.727.727 0 0 0 .718.718zm-4.103-10.902h3.273a.755.755 0 0 0 .764-.718v-3.114a.709.709 0 0 0-.736-.718h-3.227a.765.765 0 0 0-.774.718c0 1.25-.046 1.865-.074 3.114a.718.718 0 0 0 .774.718zm-4.934 5.418h3.32a.765.765 0 0 0 .784-.718c0-1.24 0-1.865.084-3.114a.727.727 0 0 0-.747-.718h-3.273a.783.783 0 0 0-.792.718c-.047 1.25-.066 1.865-.112 3.114a.709.709 0 0 0 .736.718zm10.016-.718v-3.114a.727.727 0 0 0-.746-.718h-3.283a.765.765 0 0 0-.774.718c0 1.25 0 1.865-.065 3.114a.718.718 0 0 0 .746.718h3.33c.41.022.762-.289.792-.699v-.019zm31.91.718h3.32a.68.68 0 0 0 .71-.718c-.103-1.24-.16-1.865-.262-3.114a.811.811 0 0 0-.811-.718h-3.283a.68.68 0 0 0-.708.718c.084 1.25.13 1.865.214 3.114.044.417.401.73.82.718zm-3.59-16.505h3.292a.662.662 0 0 0 .681-.718c0-.513-.056-.774-.103-1.287a.783.783 0 0 0-.783-.718h-3.292a.662.662 0 0 0-.68.718c0 .513.046.774.074 1.287a.783.783 0 0 0 .811.736v-.018zm6.379 10.35c-.093-1.249-.15-1.864-.243-3.114a.811.811 0 0 0-.81-.718h-3.227a.671.671 0 0 0-.7.718c.084 1.25.121 1.865.205 3.115a.811.811 0 0 0 .802.718h3.274a.671.671 0 0 0 .699-.7v-.018zm-6.985-4.839h3.199a.671.671 0 0 0 .69-.718c-.093-1.24-.14-1.865-.224-3.105a.793.793 0 0 0-.792-.718h-3.19a.68.68 0 0 0-.69.718l.187 3.105c.03.427.393.753.82.737v-.019zm-1.725 10.994h3.32a.68.68 0 0 0 .718-.718c-.084-1.24-.13-1.865-.205-3.114a.811.811 0 0 0-.811-.718h-3.283a.7.7 0 0 0-.718.718c.075 1.25.103 1.865.168 3.114.039.416.394.73.811.718zm-13.988-.718c0-1.24 0-1.865-.056-3.114a.765.765 0 0 0-.774-.718h-3.282a.737.737 0 0 0-.755.718v3.114a.746.746 0 0 0 .774.718h3.32a.718.718 0 0 0 .736-.699l.037-.019zm21.654-10.257h3.226a.662.662 0 0 0 .68-.718l-.279-3.106a.811.811 0 0 0-.802-.718h-3.18a.653.653 0 0 0-.68.718l.233 3.106a.802.802 0 0 0 .764.718h.038zm.652-5.54h3.908a.643.643 0 0 0 .662-.718c0-.512-.066-.774-.122-1.286a.811.811 0 0 0-.792-.728h-3.88a.662.662 0 0 0-.67.728c.046.512.064.774.102 1.286.04.393.36.698.755.718h.037zm-5.53 10.38l-.195-3.115a.793.793 0 0 0-.793-.718h-3.236a.69.69 0 0 0-.709.718c.066 1.25.094 1.865.159 3.114a.802.802 0 0 0 .793.718h3.273a.68.68 0 0 0 .671-.718h.037zm6.882-3.115c.103 1.25.159 1.865.262 3.114a.82.82 0 0 0 .81.718h3.274a.662.662 0 0 0 .69-.718c-.121-1.25-.177-1.865-.298-3.114a.82.82 0 0 0-.812-.718h-3.235a.671.671 0 0 0-.728.718h.037zm-11.656 8.551c-.065-1.24-.093-1.865-.159-3.115a.783.783 0 0 0-.792-.718h-3.33a.7.7 0 0 0-.727.718c0 1.25.075 1.865.121 3.115.03.413.38.73.793.718h3.32a.7.7 0 0 0 .737-.718h.037zm-1.865-4.719a.7.7 0 0 0 .727-.718c-.065-1.25-.093-1.865-.158-3.114a.774.774 0 0 0-.784-.718h-3.226a.7.7 0 0 0-.728.718c.047 1.25.075 1.865.112 3.114.034.407.375.72.784.718h3.273zm-5.726-11.097h3.292a.69.69 0 0 0 .709-.718c0-.512 0-.774-.056-1.286a.774.774 0 0 0-.765-.728h-3.264a.7.7 0 0 0-.708.728v1.286c.018.389.329.7.718.718h.074zm6.034 0h3.291a.68.68 0 0 0 .69-.718c0-.512-.046-.774-.083-1.286a.774.774 0 0 0-.765-.728h-3.273a.69.69 0 0 0-.69.728l.056 1.286c.021.38.32.687.699.718h.075zm-6.463 5.54h3.227a.7.7 0 0 0 .718-.718c-.056-1.24-.075-1.865-.13-3.106a.765.765 0 0 0-.765-.718h-3.19a.709.709 0 0 0-.718.718l.094 3.106a.755.755 0 0 0 .69.718h.074zm-5.586-5.54h3.292a.7.7 0 0 0 .718-.718v-1.286a.755.755 0 0 0-.755-.728h-3.264a.718.718 0 0 0-.718.728v1.286c.01.396.331.714.727.718zm7.097 21.999h3.366a.709.709 0 0 0 .746-.718l-.14-3.115a.783.783 0 0 0-.81-.718h-3.33a.718.718 0 0 0-.746.718c0 1.25.056 1.865.103 3.115a.765.765 0 0 0 .792.718h.019zm4.336-16.46h3.227a.69.69 0 0 0 .708-.717l-.186-3.106a.765.765 0 0 0-.774-.718h-3.217a.69.69 0 0 0-.7.718l.14 3.106a.765.765 0 0 0 .783.718h.02zm-7.833 10.976h3.32a.709.709 0 0 0 .736-.718c0-1.24-.065-1.865-.111-3.114a.774.774 0 0 0-.784-.718h-3.273a.727.727 0 0 0-.746.718c0 1.25 0 1.865.075 3.114a.765.765 0 0 0 .783.718zm2.798-6.154c0-1.25-.066-1.865-.103-3.115a.765.765 0 0 0-.774-.718h-3.236a.709.709 0 0 0-.727.718c0 1.25 0 1.865.065 3.115a.746.746 0 0 0 .765.718h3.273a.718.718 0 0 0 .774-.7l-.037-.018zm-1.38 10.901l-.094-3.115a.774.774 0 0 0-.793-.718h-3.32a.727.727 0 0 0-.755.718v3.115a.765.765 0 0 0 .793.718h3.366a.718.718 0 0 0 .84-.7l-.038-.018zm12.28 0l-.186-3.115a.811.811 0 0 0-.811-.718h-3.245a.709.709 0 0 0-.737.718l.15 3.115c.038.416.393.73.81.718h3.367a.7.7 0 0 0 .69-.7l-.037-.018zm-5.436 1.865h-6.528a.718.718 0 0 0-.755.718l.093 3.338c.035.415.387.73.802.719h6.65a.718.718 0 0 0 .755-.719c-.056-1.333-.094-2.004-.159-3.338a.793.793 0 0 0-.82-.68l-.038-.038zm6.09 0h-3.376a.709.709 0 0 0-.746.718c.065 1.334.102 2.005.168 3.338.048.419.408.731.83.719h3.413a.7.7 0 0 0 .746-.719c-.084-1.333-.131-2.004-.215-3.338a.802.802 0 0 0-.783-.68l-.038-.038zm-38.3-1.166a.783.783 0 0 0 .803-.718c0-1.24.056-1.865.102-3.114a.727.727 0 0 0-.746-.718h-3.329a.793.793 0 0 0-.802.718l-.14 3.114a.709.709 0 0 0 .746.718h3.367zm-5.78 1.166h-6.23a.811.811 0 0 0-.83.718 401.09 401.09 0 0 0-.224 3.338.7.7 0 0 0 .737.719h6.304c.419.012.777-.301.82-.719.066-1.333.103-2.004.168-3.338a.709.709 0 0 0-.727-.68l-.019-.038zm20.226-23.164h3.291a.709.709 0 0 0 .718-.718v-1.287a.746.746 0 0 0-.736-.727h-3.245a.727.727 0 0 0-.728.727v1.287a.718.718 0 0 0 .737.755l-.037-.037zm8.392 23.164h-25.924a.793.793 0 0 0-.811.718c-.056 1.334-.084 2.005-.15 3.338a.718.718 0 0 0 .756.719h26.288a.737.737 0 0 0 .774-.719c0-1.333 0-2.004-.084-3.338a.765.765 0 0 0-.793-.68l-.056-.038zm20.926-1.865l-.233-3.115a.82.82 0 0 0-.802-.7h-3.33a.69.69 0 0 0-.717.719c.074 1.25.112 1.865.196 3.115.043.417.401.73.82.718h3.367a.68.68 0 0 0 .755-.718l-.056-.019zm-64.456 1.865h-3.376a.84.84 0 0 0-.848.718l-.327 3.338a.671.671 0 0 0 .718.719h3.413a.84.84 0 0 0 .849-.719c.112-1.333.177-2.004.29-3.338a.68.68 0 0 0-.663-.68l-.056-.038zm75.33-22.166h-6.025a.653.653 0 0 0-.671.718c.112 1.24.168 1.865.289 3.105.043.41.39.72.802.718h6.098a.653.653 0 0 0 .672-.718c-.14-1.24-.215-1.865-.345-3.105a.83.83 0 0 0-.765-.68l-.056-.038zm.605 5.548h-3.189a.643.643 0 0 0-.671.718c.121 1.25.177 1.866.298 3.115.064.41.415.714.83.718h3.273a.653.653 0 0 0 .681-.718c-.14-1.25-.214-1.865-.345-3.115a.84.84 0 0 0-.82-.68l-.057-.038zm.588 5.437h-8.328a.671.671 0 0 0-.699.718c.112 1.25.159 1.865.27 3.115.049.418.41.73.83.718h8.393a.653.653 0 0 0 .69-.718c-.14-1.24-.205-1.865-.345-3.115a.858.858 0 0 0-.755-.68l-.056-.038zm-11.19 14.165h-3.404a.7.7 0 0 0-.737.718v.597a.83.83 0 0 0 .84.718h3.422a.68.68 0 0 0 .727-.718l-.046-.597a.83.83 0 0 0-.7-.68l-.102-.038zm9.605-28.908h-3.87a.653.653 0 0 0-.662.727c0 .513.074.774.12 1.287a.811.811 0 0 0 .803.718h3.907a.634.634 0 0 0 .653-.718l-.14-1.287a.83.83 0 0 0-.709-.662l-.102-.065zm-3.926 25.887h-3.376a.671.671 0 0 0-.718.718c0 .307 0 .466.065.783a.83.83 0 0 0 .84.718h3.394a.68.68 0 0 0 .718-.718c0-.317 0-.476-.075-.783a.84.84 0 0 0-.746-.653l-.102-.065zm6.061-5.707h-11.19a.68.68 0 0 0-.718.718l.242 3.114a.83.83 0 0 0 .84.718h11.423a.653.653 0 0 0 .7-.718c-.14-1.24-.206-1.865-.346-3.114a.858.858 0 0 0-.848-.653l-.103-.065zm-5.782 8.7h-3.3a.69.69 0 0 0-.728.718v.597a.84.84 0 0 0 .849.718h3.422a.68.68 0 0 0 .718-.718l-.056-.597a.849.849 0 0 0-.802-.653l-.103-.065zm5.95 0h-3.394a.671.671 0 0 0-.718.718l.055.597c.066.42.433.728.858.718h3.423a.671.671 0 0 0 .708-.718l-.065-.597a.867.867 0 0 0-.764-.653l-.103-.065zm-71.254-2.984h-3.273a.82.82 0 0 0-.84.718l-.28 3.339a.69.69 0 0 0 .728.718h3.422a.83.83 0 0 0 .84-.718l.233-3.339a.69.69 0 0 0-.728-.653l-.102-.065zm-12.123 0h-2.34a.858.858 0 0 0-.858.718c-.15 1.334-.215 2.005-.364 3.339a.662.662 0 0 0 .709.718h2.47c.425.005.79-.3.859-.718.13-1.334.205-2.005.335-3.339a.662.662 0 0 0-.736-.653l-.075-.065zm23.108-17.625h3.227c.408.006.749-.31.774-.718.046-1.24.065-1.865.111-3.105a.69.69 0 0 0-.708-.718h-3.115a.765.765 0 0 0-.765.718c-.065 1.24-.093 1.865-.158 3.105a.69.69 0 0 0 .709.784l-.075-.066zm5.903 0h3.226a.755.755 0 0 0 .765-.718c0-1.24 0-1.865.056-3.105a.7.7 0 0 0-.718-.718h-3.19a.755.755 0 0 0-.755.718c0 1.24-.065 1.865-.102 3.105a.7.7 0 0 0 .792.784l-.074-.066zm-11.246-5.539h3.3c.406 0 .74-.314.765-.718 0-.513 0-.774.066-1.287a.69.69 0 0 0-.69-.727h-3.264a.793.793 0 0 0-.784.727c0 .513 0 .774-.074 1.287a.662.662 0 0 0 .755.783l-.074-.065zm23.052 5.54h3.226a.718.718 0 0 0 .737-.719v-3.105a.727.727 0 0 0-.746-.718h-3.18a.718.718 0 0 0-.737.718v3.105a.727.727 0 0 0 .774.784l-.074-.066zm-23.603 0h3.227c.408.005.75-.311.774-.719.065-1.24.103-1.865.168-3.105a.69.69 0 0 0-.7-.718h-3.189a.783.783 0 0 0-.783.718c-.075 1.24-.121 1.865-.196 3.105a.671.671 0 0 0 .82.784l-.12-.066zm12.384-5.54h3.292a.746.746 0 0 0 .755-.718v-1.287a.709.709 0 0 0-.708-.727h-3.273a.765.765 0 0 0-.756.727v1.287a.7.7 0 0 0 .765.783l-.075-.065zm5.81 0h3.376a.718.718 0 0 0 .736-.718v-1.287a.727.727 0 0 0-.727-.727h-3.264a.746.746 0 0 0-.746.727v1.287a.709.709 0 0 0 .7.783l-.075-.065zm-.494 5.54h3.226a.727.727 0 0 0 .746-.719v-3.105a.718.718 0 0 0-.736-.718h-3.096a.746.746 0 0 0-.756.718c0 1.24 0 1.865-.056 3.105a.718.718 0 0 0 .746.784l-.074-.066zm-11.19-5.54h3.291a.755.755 0 0 0 .756-.718l.046-1.287a.69.69 0 0 0-.7-.727h-3.272a.774.774 0 0 0-.765.727l-.056 1.287a.68.68 0 0 0 .84.783l-.14-.065zm-25.337 16.58h7.758a.83.83 0 0 0 .83-.718c.112-1.24.159-1.865.27-3.114a.671.671 0 0 0-.69-.718h-7.665a.858.858 0 0 0-.839.718c-.13 1.25-.205 1.865-.345 3.114a.662.662 0 0 0 .68.718zm.597-5.436h6.005a.83.83 0 0 0 .82-.718l.29-3.115a.653.653 0 0 0-.681-.718h-5.94a.84.84 0 0 0-.83.718c-.14 1.25-.205 1.865-.345 3.115a.653.653 0 0 0 .68.736v-.018zm.596-5.595h3.227a.83.83 0 0 0 .82-.718c.122-1.24.178-1.865.308-3.106a.653.653 0 0 0-.671-.718h-3.18a.83.83 0 0 0-.82.718c-.14 1.24-.206 1.865-.346 3.106a.634.634 0 0 0 .7.774l-.038-.056zm-1.827 16.515h10.612a.82.82 0 0 0 .84-.718l.25-3.115a.68.68 0 0 0-.708-.718h-10.463a.867.867 0 0 0-.848.718c-.14 1.25-.206 1.865-.345 3.115a.662.662 0 0 0 .662.718zm2.443-21.999h3.292a.811.811 0 0 0 .802-.718c.046-.512.074-.774.13-1.286a.653.653 0 0 0-.662-.728h-3.208a.83.83 0 0 0-.811.728c-.056.512-.084.774-.15 1.286a.643.643 0 0 0 .644.718h-.037zm11.19 5.54h3.227c.41.001.754-.31.792-.718.084-1.24.122-1.865.206-3.106a.662.662 0 0 0-.681-.718h-3.19a.793.793 0 0 0-.792.718c-.103 1.24-.15 1.865-.252 3.106a.671.671 0 0 0 .69.718zm-5.371-5.54h3.292a.811.811 0 0 0 .802-.718c0-.512.056-.774.102-1.286a.662.662 0 0 0-.671-.728h-3.264a.82.82 0 0 0-.802.728c0 .512-.075.774-.121 1.286a.643.643 0 0 0 .662.718zm-.532 5.54h3.227a.802.802 0 0 0 .802-.718c.102-1.24.158-1.865.26-3.106a.653.653 0 0 0-.68-.718h-3.18a.82.82 0 0 0-.811.718c-.112 1.24-.177 1.865-.29 3.106a.653.653 0 0 0 .672.718zm6.341-5.54h3.292a.793.793 0 0 0 .784-.718c0-.512 0-.774.084-1.286a.671.671 0 0 0-.681-.728h-3.264a.811.811 0 0 0-.793.728c0 .512-.056.774-.102 1.286a.662.662 0 0 0 .68.718z"/>
        <path fill="#146EB4" d="M133.808 255.804h3.357a.793.793 0 0 0 .811-.718c.065-1.24.093-1.865.159-3.115a.709.709 0 0 0-.737-.718h-3.32a.802.802 0 0 0-.811.718l-.196 3.115a.7.7 0 0 0 .737.718zm8.392-10.901h3.264c.409.006.75-.31.774-.718l.093-3.115a.709.709 0 0 0-.727-.718h-3.226a.765.765 0 0 0-.774.718c-.056 1.24-.084 1.865-.131 3.115a.7.7 0 0 0 .727.718zm-5.968 0h3.273a.774.774 0 0 0 .83-.69l.14-3.115a.69.69 0 0 0-.718-.718h-3.226a.774.774 0 0 0-.784.718 329.7 329.7 0 0 0-.177 3.115.69.69 0 0 0 .68.69h-.018zm5.194 4.718c.056-1.25.075-1.865.13-3.114a.709.709 0 0 0-.726-.718h-3.292a.783.783 0 0 0-.793.718c-.065 1.25-.102 1.865-.168 3.114a.7.7 0 0 0 .728.718h3.32a.783.783 0 0 0 .82-.718h-.019zm-15.936.718h3.31a.82.82 0 0 0 .82-.718c.085-1.25.131-1.865.224-3.114a.68.68 0 0 0-.708-.718h-3.283a.82.82 0 0 0-.811.718c-.103 1.25-.159 1.865-.261 3.114a.671.671 0 0 0 .727.718h-.018zm37.748-10.994h3.208a.709.709 0 0 0 .727-.718l-.084-3.115a.746.746 0 0 0-.746-.718h-3.16a.727.727 0 0 0-.728.718v3.115a.746.746 0 0 0 .802.718h-.019zm-32.965 5.595h3.264a.802.802 0 0 0 .802-.718l.187-3.115a.671.671 0 0 0-.7-.718h-3.236a.793.793 0 0 0-.792.718 326.03 326.03 0 0 0-.224 3.115.671.671 0 0 0 .718.68l-.019.038zm5.25 4.719l.178-3.115a.7.7 0 0 0-.718-.718H131.7a.811.811 0 0 0-.802.718c-.084 1.25-.13 1.865-.214 3.115a.69.69 0 0 0 .718.718h3.338c.426 0 .777-.331.802-.756l-.018.038zm-7.87 6.182h3.357c.42.012.777-.3.82-.718.085-1.24.122-1.865.206-3.114a.69.69 0 0 0-.718-.718h-3.33a.82.82 0 0 0-.82.718c-.093 1.25-.15 1.865-.242 3.114a.69.69 0 0 0 .746.681l-.019.037zm.737-11.619l.233-3.115a.671.671 0 0 0-.69-.718h-3.236a.802.802 0 0 0-.802.718l-.28 3.115a.671.671 0 0 0 .7.718h3.263a.811.811 0 0 0 .83-.727l-.018.01zm30.018 11.62h3.375a.746.746 0 0 0 .774-.719l-.046-3.114a.755.755 0 0 0-.774-.718h-3.33a.746.746 0 0 0-.764.718v3.114c.04.399.383.698.783.681l-.018.037zm.764-6.183v-3.115a.746.746 0 0 0-.755-.718h-3.283a.755.755 0 0 0-.764.718v3.115a.737.737 0 0 0 .755.718h3.32a.746.746 0 0 0 .746-.756l-.019.038zm-1.78-4.719a.737.737 0 0 0 .755-.718v-3.115a.727.727 0 0 0-.746-.718h-3.236a.727.727 0 0 0-.746.718v3.115c.01.403.342.723.746.718h3.226zm5.958 0a.727.727 0 0 0 .746-.718c0-1.25 0-1.865-.056-3.115a.746.746 0 0 0-.755-.718h-3.236a.718.718 0 0 0-.737.718v3.115c.02.406.358.724.765.718h3.273zm-17.233 10.901h3.357a.765.765 0 0 0 .793-.718l.056-3.114a.737.737 0 0 0-.756-.718h-3.32a.774.774 0 0 0-.792.718l-.093 3.114a.718.718 0 0 0 .774.681l-.019.037zm6.145 0h3.357a.755.755 0 0 0 .784-.718v-3.114a.746.746 0 0 0-.774-.718h-3.32a.755.755 0 0 0-.774.718v3.114c.025.391.355.692.746.681l-.019.037zm-4.103-10.9h3.273a.755.755 0 0 0 .765-.719v-3.115a.718.718 0 0 0-.737-.718h-3.226a.746.746 0 0 0-.765.718c0 1.24-.056 1.866-.084 3.115a.718.718 0 0 0 .793.68l-.019.038zm-4.924 5.436h3.31a.765.765 0 0 0 .784-.718c0-1.25.047-1.865.084-3.115a.718.718 0 0 0-.737-.718h-3.263a.774.774 0 0 0-.784.718c-.046 1.25-.065 1.865-.12 3.115.02.393.352.696.745.68l-.019.038zm9.997-.718v-3.115a.737.737 0 0 0-.746-.718h-3.282a.765.765 0 0 0-.774.718c0 1.25 0 1.865-.066 3.115a.727.727 0 0 0 .746.718h3.348a.746.746 0 0 0 .793-.756l-.019.038zm31.883.718h3.31a.68.68 0 0 0 .71-.718c-.103-1.25-.15-1.865-.253-3.115a.83.83 0 0 0-.82-.718h-3.273a.68.68 0 0 0-.709.718c.084 1.25.13 1.865.214 3.115a.811.811 0 0 0 .802.68l.02.038zm-3.59-16.506h3.292a.662.662 0 0 0 .68-.718c-.046-.513-.065-.774-.102-1.296a.802.802 0 0 0-.783-.718h-3.246a.671.671 0 0 0-.68.718c0 .522.046.783.084 1.296.047.39.38.684.774.68l-.02.038zm6.369 10.342c-.103-1.25-.15-1.865-.252-3.115a.802.802 0 0 0-.802-.718h-3.236a.671.671 0 0 0-.69.718c.084 1.24.122 1.865.205 3.115a.811.811 0 0 0 .802.718h3.274a.671.671 0 0 0 .699-.718zm-6.985-4.84h3.255a.671.671 0 0 0 .69-.718l-.233-3.115a.793.793 0 0 0-.783-.718h-3.18a.69.69 0 0 0-.7.718c.084 1.25.121 1.865.196 3.115a.774.774 0 0 0 .783.69l-.028.028zm-1.725 10.994h3.32a.69.69 0 0 0 .718-.718c-.084-1.25-.13-1.865-.205-3.114a.811.811 0 0 0-.811-.718h-3.274a.7.7 0 0 0-.718.718l.168 3.114a.793.793 0 0 0 .83.69l-.028.028zm-13.988-.718c0-1.25 0-1.865-.065-3.114a.765.765 0 0 0-.774-.718h-3.273a.737.737 0 0 0-.755.718v3.114a.746.746 0 0 0 .764.718h3.32a.737.737 0 0 0 .802-.746l-.019.028zm21.616-10.257h3.227a.662.662 0 0 0 .68-.718l-.28-3.115a.811.811 0 0 0-.801-.718h-3.18a.671.671 0 0 0-.68.718c.092 1.25.139 1.865.242 3.115.06.397.41.685.81.671l-.018.047zm.653-5.54h3.907a.643.643 0 0 0 .662-.718c-.046-.512-.074-.774-.12-1.296a.811.811 0 0 0-.793-.718h-3.87a.662.662 0 0 0-.672.718c0 .522.056.784.103 1.296.06.394.404.681.802.672l-.019.046zm-5.502 10.36a348.83 348.83 0 0 0-.196-3.114.793.793 0 0 0-.792-.718h-3.227a.68.68 0 0 0-.709.718c.066 1.24.094 1.865.159 3.115.034.41.38.724.793.718h3.263a.68.68 0 0 0 .71-.718zm6.882-3.114c.103 1.24.15 1.865.252 3.115a.83.83 0 0 0 .82.718h3.264a.662.662 0 0 0 .69-.718c-.12-1.25-.177-1.865-.298-3.115a.82.82 0 0 0-.811-.718h-3.236a.653.653 0 0 0-.7.69l.02.028zm-11.647 8.551l-.159-3.114a.783.783 0 0 0-.792-.718h-3.273a.7.7 0 0 0-.728.718c0 1.25.075 1.865.121 3.114.035.41.381.725.793.718h3.32a.7.7 0 0 0 .718-.746v.028zm-1.865-4.718a.7.7 0 0 0 .718-.718c-.056-1.25-.084-1.865-.15-3.115a.774.774 0 0 0-.783-.718h-3.263a.7.7 0 0 0-.718.718c0 1.24.065 1.865.111 3.115.03.409.374.724.784.718h3.3zm-5.716-11.097h3.282a.69.69 0 0 0 .709-.718c0-.513 0-.774-.056-1.296a.774.774 0 0 0-.765-.719h-3.264a.709.709 0 0 0-.708.719v1.296c.03.397.366.7.764.69l.038.028zm6.014 0h3.292a.671.671 0 0 0 .69-.718c0-.513-.046-.774-.074-1.296a.793.793 0 0 0-.774-.719H175.5a.68.68 0 0 0-.69.719c0 .522 0 .783.056 1.296.036.379.347.673.727.69l.037.028zm-6.443 5.539h3.226a.69.69 0 0 0 .709-.718c-.056-1.24-.075-1.865-.13-3.115a.765.765 0 0 0-.765-.718h-3.18a.709.709 0 0 0-.718.718l.093 3.115a.755.755 0 0 0 .727.69l.038.028zm-5.54-5.567h3.292a.69.69 0 0 0 .709-.718v-1.296a.765.765 0 0 0-.755-.718h-3.264a.718.718 0 0 0-.718.718v1.296a.746.746 0 0 0 .736.718zm7.097 21.998h3.357a.709.709 0 0 0 .746-.718l-.14-3.115a.783.783 0 0 0-.793-.718h-3.329a.727.727 0 0 0-.746.718c0 1.25.066 1.865.103 3.115.03.405.367.72.774.718h.028zm4.327-16.459h3.226a.68.68 0 0 0 .7-.718c-.075-1.24-.112-1.865-.177-3.115a.793.793 0 0 0-.774-.718h-3.208a.69.69 0 0 0-.7.718l.14 3.115c.025.404.36.719.765.718h.028zm-7.805 10.994h3.31a.718.718 0 0 0 .746-.718c-.047-1.25-.075-1.865-.112-3.114a.774.774 0 0 0-.783-.718h-3.283a.718.718 0 0 0-.736.718c0 1.25.046 1.865.074 3.114.025.4.354.714.756.718h.028zm2.797-6.154c0-1.25-.065-1.865-.102-3.115a.755.755 0 0 0-.774-.718h-3.227a.709.709 0 0 0-.727.718c0 1.24 0 1.865.065 3.115a.746.746 0 0 0 .765.718h3.273a.709.709 0 0 0 .727-.69v-.028zm-1.38 10.901c0-1.24 0-1.865-.084-3.115a.774.774 0 0 0-.793-.718h-3.32a.727.727 0 0 0-.755.718v3.115a.765.765 0 0 0 .793.718h3.357a.718.718 0 0 0 .802-.718zm12.272 0l-.186-3.115a.802.802 0 0 0-.812-.718h-3.32a.709.709 0 0 0-.736.718c.056 1.25.093 1.865.149 3.115.04.416.394.73.811.718h3.357a.7.7 0 0 0 .737-.718zm-5.427 1.865H169a.718.718 0 0 0-.755.718c0 1.334.056 1.996.084 3.33.034.419.39.738.811.727h6.63a.718.718 0 0 0 .756-.728c-.066-1.333-.094-1.995-.159-3.329a.793.793 0 0 0-.84-.7v-.018zm6.08 0h-3.376a.7.7 0 0 0-.737.718l.14 3.33c.044.418.4.734.82.727h3.414a.709.709 0 0 0 .746-.728c-.084-1.333-.13-1.995-.215-3.329a.802.802 0 0 0-.792-.7v-.018zm-38.234-1.166a.774.774 0 0 0 .802-.718l.103-3.114a.709.709 0 0 0-.737-.718h-3.329a.793.793 0 0 0-.802.718l-.14 3.114a.709.709 0 0 0 .746.718h3.357zm-5.837 1.185h-6.22a.811.811 0 0 0-.83.718c-.093 1.333-.14 1.995-.224 3.329a.7.7 0 0 0 .737.727h6.294a.811.811 0 0 0 .83-.727c.056-1.334.094-1.996.159-3.33a.709.709 0 0 0-.746-.717zm20.208-23.164h3.282a.718.718 0 0 0 .727-.718v-1.296a.737.737 0 0 0-.736-.718h-3.264a.727.727 0 0 0-.728.718v1.296a.718.718 0 0 0 .756.718h-.037zm8.392 23.164h-25.905a.793.793 0 0 0-.812.718 397.329 397.329 0 0 1-.149 3.329.727.727 0 0 0 .756.727h26.26a.737.737 0 0 0 .773-.727c0-1.334 0-1.996-.083-3.33a.765.765 0 0 0-.793-.717h-.047zm20.907-1.865l-.233-3.115a.83.83 0 0 0-.83-.718h-3.32a.69.69 0 0 0-.718.718l.196 3.115c.044.417.402.73.82.718h3.358a.69.69 0 0 0 .774-.737l-.047.019zm-64.344 1.865h-3.375a.84.84 0 0 0-.849.718l-.326 3.329a.68.68 0 0 0 .718.727h3.413a.84.84 0 0 0 .848-.727c.112-1.334.168-1.996.29-3.33a.68.68 0 0 0-.719-.717zm75.246-22.176h-6.015a.662.662 0 0 0-.672.718c.112 1.25.168 1.865.29 3.115.043.41.39.72.801.718h6.09a.653.653 0 0 0 .671-.718c-.14-1.24-.214-1.865-.345-3.115a.84.84 0 0 0-.82-.718zm.606 5.595h-3.199a.653.653 0 0 0-.68.718c.12 1.24.186 1.866.307 3.115a.84.84 0 0 0 .83.718h3.264a.653.653 0 0 0 .68-.718c-.14-1.25-.214-1.865-.344-3.115a.84.84 0 0 0-.858-.755v.037zm.587 5.437h-8.318a.671.671 0 0 0-.7.718c.113 1.25.169 1.865.271 3.115a.83.83 0 0 0 .83.718h8.393a.653.653 0 0 0 .68-.718c-.14-1.25-.205-1.865-.344-3.115a.858.858 0 0 0-.812-.755v.037zm-11.125 14.165h-3.403a.7.7 0 0 0-.737.718v.588a.82.82 0 0 0 .84.718h3.412a.69.69 0 0 0 .737-.718l-.047-.588a.83.83 0 0 0-.802-.755v.037zm9.587-28.908h-3.87a.643.643 0 0 0-.653.718c.046.522.074.783.121 1.296a.811.811 0 0 0 .802.718h3.898a.634.634 0 0 0 .653-.718l-.14-1.296a.83.83 0 0 0-.811-.727v.009zm-3.917 25.877h-3.376a.68.68 0 0 0-.718.718c0 .317 0 .476.065.793a.83.83 0 0 0 .84.718h3.394a.68.68 0 0 0 .718-.718l-.074-.793a.849.849 0 0 0-.849-.727v.01zm6.052-5.697h-11.283a.68.68 0 0 0-.71.718c.094 1.25.15 1.865.243 3.114.048.419.41.73.83.718h11.414a.653.653 0 0 0 .7-.718c-.14-1.24-.205-1.865-.345-3.114a.858.858 0 0 0-.849-.728v.01zm-5.772 8.7h-3.404a.69.69 0 0 0-.727.718c0 .233 0 .354.056.588a.82.82 0 0 0 .839.718h3.422a.671.671 0 0 0 .718-.718c0-.234 0-.355-.056-.588a.84.84 0 0 0-.848-.727v.01zm5.95 0h-3.404a.671.671 0 0 0-.719.718c0 .233 0 .354.066.588a.84.84 0 0 0 .858.718h3.413a.662.662 0 0 0 .708-.718c0-.234 0-.355-.065-.588a.858.858 0 0 0-.858-.727v.01zm-71.19-2.984h-3.375a.83.83 0 0 0-.84.718c-.102 1.334-.158 1.996-.27 3.33a.68.68 0 0 0 .727.727h3.413a.83.83 0 0 0 .84-.728l.233-3.329a.69.69 0 0 0-.728-.727v.009zm-12.122 0h-2.378a.858.858 0 0 0-.858.718c-.15 1.334-.215 1.996-.364 3.33a.662.662 0 0 0 .709.727h2.378a.867.867 0 0 0 .867-.728c.13-1.333.196-1.995.336-3.329a.671.671 0 0 0-.7-.727l.01.009zm23.089-17.625h3.217c.408.006.75-.31.774-.718 0-1.24.065-1.865.112-3.114a.709.709 0 0 0-.709-.718h-3.189a.774.774 0 0 0-.765.718c-.065 1.25-.093 1.865-.149 3.114a.68.68 0 0 0 .7.709l.009.01zm5.893 0h3.218a.755.755 0 0 0 .764-.718c0-1.24 0-1.865.056-3.114a.709.709 0 0 0-.718-.718h-3.18a.765.765 0 0 0-.764.718c0 1.25-.056 1.865-.103 3.114a.709.709 0 0 0 .718.709l.01.01zm-11.19-5.539h3.292c.405 0 .74-.314.765-.718 0-.513.046-.774.074-1.296a.69.69 0 0 0-.7-.718h-3.263a.793.793 0 0 0-.774.718c0 .522 0 .783-.075 1.296a.662.662 0 0 0 .625.709l.056.01zm23.024 5.54h3.217a.718.718 0 0 0 .737-.719v-3.114a.746.746 0 0 0-.746-.718h-3.18a.727.727 0 0 0-.737.718v3.096a.727.727 0 0 0 .653.727l.056.01zm-23.583 0h3.226a.774.774 0 0 0 .783-.719c.066-1.24.094-1.865.159-3.114a.69.69 0 0 0-.7-.718h-3.18a.793.793 0 0 0-.783.718 348.83 348.83 0 0 0-.195 3.114.671.671 0 0 0 .662.709l.028.01zm12.384-5.54h3.282a.727.727 0 0 0 .746-.718v-1.296a.709.709 0 0 0-.718-.718h-3.264a.746.746 0 0 0-.746.718v1.296a.7.7 0 0 0 .644.709l.056.01zm5.8 0h3.236c.4 0 .726-.318.736-.718v-1.296a.727.727 0 0 0-.727-.718h-3.264c-.4 0-.726.318-.736.718v1.296c0 .388.311.704.699.709l.056.01zm-.494 5.54h3.217a.727.727 0 0 0 .746-.719v-3.114a.727.727 0 0 0-.728-.718h-3.235a.746.746 0 0 0-.746.718c0 1.25 0 1.865-.056 3.114a.718.718 0 0 0 .746.709l.056.01zm-11.19-5.54h3.291a.755.755 0 0 0 .755-.718l.047-1.296a.7.7 0 0 0-.709-.718h-3.263a.765.765 0 0 0-.756.718l-.065 1.296a.69.69 0 0 0 .7.709v.01zm-25.403 16.534h7.684a.84.84 0 0 0 .83-.718c.112-1.25.159-1.865.27-3.115a.671.671 0 0 0-.69-.718h-7.655a.858.858 0 0 0-.84.718c-.13 1.25-.205 1.865-.345 3.115a.662.662 0 0 0 .718.708l.028.01zm.588-5.437h6.005a.83.83 0 0 0 .821-.718c.121-1.25.177-1.865.29-3.115a.653.653 0 0 0-.682-.718h-5.959a.84.84 0 0 0-.83.718c-.14 1.24-.205 1.866-.344 3.115a.653.653 0 0 0 .67.709l.029.01zm.606-5.595h3.227a.82.82 0 0 0 .81-.718c.122-1.24.187-1.865.309-3.115a.653.653 0 0 0-.662-.718h-3.18a.84.84 0 0 0-.821.718c-.14 1.25-.205 1.865-.345 3.115a.634.634 0 0 0 .625.746l.037-.028zm-1.79 16.459h10.602a.83.83 0 0 0 .84-.718c.093-1.24.149-1.865.242-3.115a.671.671 0 0 0-.709-.718h-10.51a.867.867 0 0 0-.848.718c-.13 1.25-.205 1.865-.345 3.115a.662.662 0 0 0 .7.746l.028-.028zm2.443-21.998h3.282a.811.811 0 0 0 .802-.718c.056-.513.084-.774.13-1.296a.643.643 0 0 0-.652-.718h-3.32a.83.83 0 0 0-.802.718c-.056.522-.084.783-.149 1.296a.643.643 0 0 0 .68.746l.029-.028zm11.134 5.539h3.227a.793.793 0 0 0 .802-.7c.084-1.24.12-1.864.205-3.114a.671.671 0 0 0-.681-.718h-3.254a.811.811 0 0 0-.793.718c-.093 1.25-.15 1.865-.243 3.115a.653.653 0 0 0 .71.727l.027-.028zm-5.353-5.54h3.283c.41.003.754-.309.793-.717.046-.513.065-.774.111-1.296a.662.662 0 0 0-.67-.718h-3.265a.811.811 0 0 0-.792.718c-.056.522-.075.783-.131 1.296a.653.653 0 0 0 .643.746l.028-.028zm-.54 5.54h3.226a.802.802 0 0 0 .802-.718c.103-1.24.159-1.865.261-3.115a.662.662 0 0 0-.68-.718h-3.18a.811.811 0 0 0-.802.718c-.122 1.25-.178 1.865-.299 3.115a.653.653 0 0 0 .644.746l.028-.028zm6.331-5.54h3.292a.793.793 0 0 0 .784-.717l.083-1.296a.671.671 0 0 0-.68-.718h-3.264a.802.802 0 0 0-.783.718c0 .522-.066.783-.103 1.296a.662.662 0 0 0 .643.746l.028-.028z"/>
        <path fill="#0E4E80" d="M289.828 268.458l-5.371-33.57a6.92 6.92 0 0 0-6.528-5.754h-64.978a4.663 4.663 0 0 0-4.747 4.597c-.016.387.01.775.075 1.157l5.371 33.57a6.92 6.92 0 0 0 6.528 5.754h64.987a4.663 4.663 0 0 0 4.747-4.597 6.127 6.127 0 0 0-.084-1.157z"/>
        <path fill="#146EB4" d="M285.137 274.193h-63.476a6.91 6.91 0 0 1-6.528-5.744c-1.79-11.19-3.584-22.38-5.38-33.57a4.719 4.719 0 0 1 4.662-5.754H277.9a6.92 6.92 0 0 1 6.528 5.753l5.371 33.571a4.71 4.71 0 0 1-4.663 5.744z"/>
        <ellipse cx="253.09" cy="251.653" fill="#0E4E80" opacity=".5" rx="25.104" ry="32.331" transform="rotate(-74.73 253.09 251.653)"/>
        <path fill="#FFF" d="M282.368 260.327a2.798 2.798 0 0 1-2.64-2.332c-.81-5.072-1.22-7.609-2.032-12.673a1.921 1.921 0 0 1 1.865-2.34 2.798 2.798 0 0 1 2.639 2.34c.811 5.064 1.222 7.6 2.033 12.673a1.912 1.912 0 0 1-1.865 2.332zM222.174 257.184a6.388 6.388 0 0 1-6.006-5.297 4.765 4.765 0 0 1 1.007-3.925 4.448 4.448 0 0 1 3.46-1.54c2.998.132 5.5 2.332 6.015 5.288a4.775 4.775 0 0 1-1.017 3.926 4.439 4.439 0 0 1-3.46 1.548zm-1.54-9.633a3.33 3.33 0 0 0-2.592 1.147 3.655 3.655 0 0 0-.755 3.012 5.213 5.213 0 0 0 4.887 4.336c.994.021 1.946-.399 2.601-1.147a3.73 3.73 0 0 0 .756-3.012 5.222 5.222 0 0 0-4.896-4.336zM225.4 264.616h-3.889a1.035 1.035 0 0 1-.932-.858c-.205-1.296-.317-1.94-.522-3.235a.709.709 0 0 1 .7-.858h3.888c.486.022.892.378.979.858l.503 3.273a.7.7 0 0 1-.727.82zM222.052 243.653h-3.898a1.035 1.035 0 0 1-.932-.858c-.205-1.296-.308-1.949-.522-3.245a.709.709 0 0 1 .699-.858h3.889c.468.043.85.395.932.858l.513 3.245a.7.7 0 0 1-.68.858z" opacity=".5"/>
        <path fill="#FFB583" d="M265.293 210.884a1.53 1.53 0 0 0-1.622 1.4 1.52 1.52 0 0 1-1.147 1.351l-6.285 1.614a1.548 1.548 0 0 0-1.1 1.865l.214.802a1.53 1.53 0 0 1-.933 1.8l-9.577 3.981a1.53 1.53 0 0 0-.932 1.865l3.366 12.011a2.798 2.798 0 0 0 5.427-1.361l-.56-2.518a1.52 1.52 0 0 1 1.278-1.865l6.463-.933a2.135 2.135 0 0 1 2.406 1.753l.317 1.866a3.227 3.227 0 0 1-2.62 3.73l-3.34.596a2.35 2.35 0 0 0-1.864 2.574l.298 2.546a2.34 2.34 0 0 0 2.36 2.06l17.97-.27 12.122-13.987-12.915-19.658a1.548 1.548 0 0 0-1.175-.69l-8.15-.532z"/>
        <path fill="#FF8F42" d="M257.833 225.777l-5.091.84a5.763 5.763 0 0 0-4.663 6.946l1.343 5.931c.256.066.52.094.783.084h.261l1.65-.876c.613-.673.86-1.602.663-2.49l-.56-2.518a1.52 1.52 0 0 1 1.278-1.865l6.462-.933a2.135 2.135 0 0 1 2.406 1.753l.317 1.866a3.227 3.227 0 0 1-2.62 3.73l-1.567.289a5.791 5.791 0 0 0 3.917-1.558c1.343-1.473 1.147-4.765.68-7.525a4.57 4.57 0 0 0-5.259-3.674z"/>
        <path fill="#0E4E80" d="M278.591 202.697l-.457-.438c1.194-2.024-.615-3.302-1.361-3.73-.746-.43-2.714-1.418-3.908.606l-.596-.187-27.724 47.13a11.256 11.256 0 0 0-1.548 6.425v.615a1.408 1.408 0 0 0 1.865 1.231l.429-.168a11.293 11.293 0 0 0 5.79-4.849l27.51-46.635z"/>
        <path fill="#0E4E80" d="M276.773 198.52c-.728-.458-2.714-1.418-3.908.605l-.596-.186-.746 1.259 6.322 3.73.746-1.26-.457-.437c1.194-1.996-.615-3.274-1.361-3.712z"/>
        <path fill="#E6E6E6" d="M247.995 247.542a1.51 1.51 0 0 1-.531-2.07l2.965-5.027a1.51 1.51 0 1 1 2.602 1.539l-2.956 5.026a1.52 1.52 0 0 1-2.08.532z"/>
        <path fill="#F58A07" d="M251.072 242.348a1.128 1.128 0 1 1 1.548-.401c-.319.535-1.009.713-1.548.4z"/>
        <path fill="#FFB583" d="M252.714 241.76l-.215.27a1.707 1.707 0 0 0 .336 2.444 9.027 9.027 0 0 0 5.865 1.706l3.255-.195-2.648-7.582-1.38.243a8.393 8.393 0 0 0-5.213 3.114z"/>
        <path fill="#F58A07" d="M275.411 245.78l35.343 34.214 19.359-17.336-42.588-30.904a19.919 19.919 0 0 0-12.114 14.025z"/>
        <path fill="#FFCB30" d="M311.295 280.581c2.928 3.077 9.52 1.576 14.715-3.357 5.194-4.933 7.031-11.433 4.103-14.52-2.928-3.086-9.512-1.585-14.706 3.358-5.194 4.942-7.04 11.386-4.112 14.52z"/>
        <path fill="#000" d="M305.336 119.637H257.47a2.443 2.443 0 0 0-2.22 1.763l-12.067 46.411a1.315 1.315 0 0 0 1.306 1.763h47.848a2.443 2.443 0 0 0 2.219-1.763l12.067-46.411a1.315 1.315 0 0 0-1.287-1.763z" opacity=".15" style="mix-blend-mode:multiply"/>
        <path fill="#FFF" d="M309.01 124.234h-47.857a2.434 2.434 0 0 0-2.229 1.763l-12.067 46.412a1.324 1.324 0 0 0 1.306 1.771h47.904a2.462 2.462 0 0 0 2.228-1.771l12.067-46.403a1.324 1.324 0 0 0-1.352-1.772z"/>
        <path fill="#000" d="M259.26 131.35h5.707l1.483-5.707h-5.707z"/>
        <path fill="#231F20" d="M266.254 131.35h5.707l1.483-5.707h-5.707z"/>
        <path fill="#ED1C24" d="M273.248 131.35h5.707l1.492-5.707h-5.707z"/>
        <path fill="#FFF200" d="M280.251 131.35h5.707l1.483-5.707h-5.707z"/>
        <path fill="#00A651" d="M287.245 131.35h5.707l1.483-5.707h-5.707z"/>
        <path fill="#00AEEF" d="M294.239 131.35h5.707l1.483-5.707h-5.707z"/>
        <path fill="#2E3192" d="M301.233 131.35h5.707l1.483-5.707h-5.707z"/>
        <path fill="#EC008C" d="M257.488 138.185h5.707l1.483-5.707h-5.707z"/>
        <path fill="#BE1E2D" d="M264.482 138.185h5.707l1.483-5.707h-5.707z"/>
        <path fill="#EF4136" d="M271.476 138.185h5.707l1.483-5.707h-5.707z"/>
        <path fill="#F15A29" d="M278.47 138.185h5.707l1.483-5.707h-5.707z"/>
        <path fill="#F7941E" d="M285.464 138.185h5.707l1.483-5.707h-5.707z"/>
        <path fill="#FBB040" d="M292.467 138.185h5.698l1.492-5.707h-5.707z"/>
        <path fill="#F9ED32" d="M299.461 138.185h5.707l1.483-5.707h-5.707zM255.707 145.02h5.707l1.483-5.707h-5.707z"/>
        <path fill="#D7DF23" d="M262.701 145.02h5.707l1.483-5.707h-5.707z"/>
        <path fill="#8DC63F" d="M269.695 145.02h5.707l1.492-5.707h-5.707z"/>
        <path fill="#39B54A" d="M276.698 145.02h5.698l1.492-5.707h-5.707z"/>
        <path fill="#009444" d="M283.692 145.02h5.707l1.483-5.707h-5.707z"/>
        <path fill="#006838" d="M290.686 145.02h5.707l1.483-5.707h-5.707z"/>
        <path fill="#2BB673" d="M297.68 145.02h5.707l1.483-5.707h-5.707z"/>
        <path fill="#00A79D" d="M253.935 151.846h5.707l1.483-5.707h-5.707z"/>
        <path fill="#27AAE1" d="M260.93 151.846h5.706l1.483-5.707h-5.707z"/>
        <path fill="#1C75BC" d="M267.923 151.846h5.707l1.483-5.707h-5.707z"/>
        <path fill="#2B3990" d="M274.917 151.846h5.707l1.483-5.707H276.4z"/>
        <path fill="#262262" d="M281.91 151.846h5.708l1.483-5.707h-5.707z"/>
        <path fill="#662D91" d="M288.905 151.846h5.707l1.483-5.707h-5.707z"/>
        <path fill="#92278F" d="M295.908 151.846h5.707l1.483-5.707h-5.707z"/>
        <path fill="#9E1F63" d="M252.154 158.682h5.707l1.483-5.707h-5.707z"/>
        <path fill="#DA1C5C" d="M259.148 158.682h5.707l1.483-5.707h-5.707z"/>
        <path fill="#EE2A7B" d="M266.142 158.682h5.707l1.483-5.707h-5.707z"/>
        <path fill="#C2B59B" d="M273.136 158.682h5.707l1.492-5.707h-5.707z"/>
        <path fill="#9B8579" d="M280.14 158.682h5.706l1.483-5.707h-5.707z"/>
        <path fill="#726658" d="M287.133 158.682h5.707l1.483-5.707h-5.707z"/>
        <path fill="#594A42" d="M294.127 158.682h5.707l1.483-5.707h-5.707z"/>
        <path fill="#C49A6C" d="M250.373 165.517h5.707l1.483-5.707h-5.707z"/>
        <path fill="#A97C50" d="M257.376 165.517h5.707l1.483-5.707h-5.707z"/>
        <path fill="#8B5E3C" d="M264.37 165.517h5.707l1.483-5.707h-5.707z"/>
        <path fill="#603913" d="M271.364 165.517h5.707l1.483-5.707h-5.707z"/>
        <path fill="#3C2415" d="M278.358 165.517h5.707l1.483-5.707h-5.707z"/>
        <path fill="url(#a)" d="M42.352 46.517h5.707l1.483-5.707h-5.707z" transform="translate(243 119)"/>
        <path fill="url(#b)" d="M49.346 46.517h5.707l1.492-5.707h-5.707z" transform="translate(243 119)"/>
        <path fill="#231F20" d="M248.601 172.353h5.707l1.483-5.707h-5.707z"/>
        <path fill="#414042" d="M255.595 172.353h5.707l1.483-5.707h-5.707z"/>
        <path fill="#58595B" d="M262.59 172.353h5.706l1.483-5.707h-5.707z"/>
        <path fill="#939598" d="M269.583 172.353h5.707l1.492-5.707h-5.707z"/>
        <path fill="#BCBEC0" d="M276.586 172.353h5.698l1.492-5.707h-5.707z"/>
        <path fill="#3D0075" d="M283.58 172.353h5.707l1.483-5.707h-5.707z"/>
        <path fill="#57BBFF" d="M290.574 172.353h5.707l1.483-5.707h-5.707z"/>
        <path fill="#000" d="M77.856 141.943H50.953l7.218 26.11H85.074l-7.218-26.11zm-27.23-11.498l-5.315-19.247H18.417l7.218 26.194H52.538l-1.911-6.947zm31.828-.205l-1.865-6.9-5.316-19.248H48.38l7.218 26.157 26.857-.01z" opacity=".15" style="mix-blend-mode:multiply"/>
        <path fill="#E6E7E8" d="M228.44 32.857h-36.583a1.79 1.79 0 0 0-1.79 1.79v23.22a1.79 1.79 0 0 0 .932 1.538v.084h.159c.23.108.482.166.737.168h36.582a1.79 1.79 0 0 0 1.79-1.79v-23.22a1.79 1.79 0 0 0-1.827-1.79z" opacity=".15" style="mix-blend-mode:multiply"/>
        <path fill="#FFF" d="M193.713 29.425h38.215v26.39h-38.215z"/>
        <path fill="#0E4E80" d="M231.2 29.173h-36.592a1.79 1.79 0 0 0-1.79 1.79v23.22c0 .99.801 1.79 1.79 1.79H231.2a1.79 1.79 0 0 0 1.79-1.79v-23.22a1.79 1.79 0 0 0-1.79-1.79zm0 25.01h-36.592v-23.22H231.2v23.22z"/>
        <path fill="#0E4E80" d="M229.018 54.22l-20.347-16.048a.933.933 0 0 0-1.017-.056l-13.503 8.178a.933.933 0 1 0 .933 1.53l12.971-7.862 19.863 15.667c.159.119.351.184.55.186a.933.933 0 0 0 .709-.335.933.933 0 0 0-.159-1.26z"/>
        <path fill="#0E4E80" d="M231.723 43.935l-5.27-3.851a.933.933 0 0 0-1.016 0l-8.392 5.501a.933.933 0 0 0 .485 1.651.933.933 0 0 0 .494-.15l7.88-5.165 4.755 3.478a.933.933 0 0 0 1.064-1.436v-.028z"/>
        <path fill="#FFC53A" d="M218.229 33.099a3.478 3.478 0 1 0 3.478 3.478 3.488 3.488 0 0 0-3.478-3.478zM53.592 171.336l26.894-.019-7.208-26.157-26.904.028z"/>
        <path fill="#CFB814" d="M80.486 171.317l-1.902-6.9-4.029 6.9z"/>
        <path fill="#146EB4" d="M21.028 140.61l26.904-.028-7.218-26.158-26.903.028z"/>
        <path fill="#231F20" d="M47.932 140.582l-1.903-6.901-4.028 6.91z" opacity=".2" style="mix-blend-mode:multiply"/>
        <path fill="#F58A07" d="M50.972 133.504l26.894-.028-7.218-26.158-26.894.028z"/>
        <path fill="#231F20" d="M77.866 133.476l-1.903-6.901-4.028 6.9z" opacity=".2" style="mix-blend-mode:multiply"/>
        <circle cx="78.155" cy="47.161" r="7.33" fill="#FFC53A"/>
        <path fill="#FFF" d="M78.164 39.832a7.33 7.33 0 1 0 0 14.659 7.33 7.33 0 0 0 0-14.66zm0 12.402a5.073 5.073 0 1 1 5.064-5.073 5.082 5.082 0 0 1-5.064 5.073z"/>
        <circle cx="96.246" cy="47.161" r="7.33" fill="#F58A07"/>
        <path fill="#FFF" d="M96.255 39.832a7.33 7.33 0 1 0 0 14.659 7.33 7.33 0 0 0 0-14.66zm0 12.402a5.073 5.073 0 1 1 5.064-5.073 5.082 5.082 0 0 1-5.064 5.073z"/>
        <circle cx="114.338" cy="47.161" r="7.33" fill="#146EB4" transform="rotate(-9.24 114.338 47.161)"/>
        <path fill="#FFF" d="M114.346 39.832a7.33 7.33 0 1 0 0 14.659 7.33 7.33 0 0 0 0-14.66zm0 12.402a5.073 5.073 0 1 1 5.064-5.073 5.082 5.082 0 0 1-5.064 5.073z"/>
        <path fill="#F58A07" d="M216.065 168.902H113.292c-2.35 0-4.83-2.256-5.53-5.045-4.208-16.748-8.42-33.48-12.635-50.197-.7-2.798 1.212-5.045 4.261-5.045h133.165c3.058 0 4.867 2.266 4.047 5.045-4.93 16.748-9.857 33.493-14.78 50.235-.821 2.75-3.395 5.007-5.755 5.007z"/>
        <path fill="#FFC53A" d="M138.368 129.746c-.634-7.097-7.255-12.841-14.78-12.841-7.526 0-12.487 5.744-11.098 12.84a15.443 15.443 0 0 0 1.865 4.775h-.13c2.928 5.092 4.345 7.647 7.068 12.738h-.186a.54.54 0 0 0-.513.672c.186 1.035.28 1.557.457 2.583.06.368.365.646.736.671h.55c.364 2.136.542 3.208.933 5.344.597 3.487 3.534 6.313 6.528 6.313h.82c3.031 0 5.167-2.798 4.766-6.313-.243-2.136-.364-3.208-.616-5.344h.569a.56.56 0 0 0 .54-.671l-.279-2.583a.755.755 0 0 0-.7-.672c1.073-5.026 1.66-7.544 2.929-12.57.504-1.596.688-3.275.54-4.942z"/>
        <path fill="#FFF" d="M130.59 145.99h-.074a.746.746 0 0 1-.625-.727v-15.135h-8.859a891.334 891.334 0 0 1 4.196 15.144.55.55 0 0 1-.428.718.737.737 0 0 1-.765-.569 893.694 893.694 0 0 0-4.486-15.853.606.606 0 0 1 .075-.512.56.56 0 0 1 .457-.224h10.398a.755.755 0 0 1 .522.224.69.69 0 0 1 .214.512c-.093 6.35-.121 9.521-.112 15.853a.532.532 0 0 1-.513.57zM121.265 147.23l.047.075h-.187a.532.532 0 0 0-.513.634c.187 1.063.28 1.595.476 2.658.067.35.362.61.718.634h13.578a.56.56 0 0 0 .54-.671l-.28-2.584a.755.755 0 0 0-.699-.671v-.075h-13.68zM124.38 159.41c4.317-1.4 6.528-2.099 10.976-3.498l-.094-.764a861.028 861.028 0 0 0-11.264 3.58c.12.234.242.467.382.681zM123.084 155.446c0 .308.074.457.13.765 4.663-1.474 6.966-2.22 11.75-3.73l-.093-.765c-4.793 1.51-7.153 2.257-11.787 3.73zM152.738 128.813a3.19 3.19 0 0 1-3.18-3.012c0-1.138-.075-1.716-.121-2.853a2.928 2.928 0 0 1 3.03-3.022 3.17 3.17 0 0 1 3.218 3.022v2.853a2.956 2.956 0 0 1-2.947 3.012z"/>
        <path fill="#AB6400" d="M161.298 128.813a3.059 3.059 0 0 1-3.077-3.012v-2.853a3.068 3.068 0 0 1 3.133-3.022 3.03 3.03 0 0 1 3.115 3.022l-.075 2.834a3.087 3.087 0 0 1-3.096 3.031z"/>
        <path fill="#FFF" d="M169.85 128.813a2.937 2.937 0 0 1-2.975-3.012l.084-2.853a3.19 3.19 0 0 1 3.236-3.022 2.919 2.919 0 0 1 3.012 3.022l-.15 2.853a3.227 3.227 0 0 1-3.207 3.012z"/>
        <path fill="#AB6400" d="M178.4 128.813a2.798 2.798 0 0 1-2.862-3.012c.075-1.138.112-1.716.177-2.853a3.338 3.338 0 0 1 3.348-3.022 2.798 2.798 0 0 1 2.9 3.022c-.102 1.137-.15 1.715-.242 2.853a3.376 3.376 0 0 1-3.32 3.012z"/>
        <path fill="#FFF" d="M186.961 128.813a2.704 2.704 0 0 1-2.797-3.012l.28-2.853a3.478 3.478 0 0 1 3.45-3.022 2.686 2.686 0 0 1 2.798 3.022c-.14 1.137-.215 1.715-.355 2.853a3.516 3.516 0 0 1-3.376 3.012z"/>
        <path fill="#AB6400" d="M195.513 128.813a2.592 2.592 0 0 1-2.649-3.012l.373-2.853a3.637 3.637 0 0 1 3.563-3.022 2.574 2.574 0 0 1 2.685 3.022l-.4 2.834a3.674 3.674 0 0 1-3.572 3.031z"/>
        <path fill="#FFF" d="M204.073 128.813a2.5 2.5 0 0 1-2.555-3.012c.196-1.138.29-1.716.476-2.853a3.805 3.805 0 0 1 3.665-3.022 2.471 2.471 0 0 1 2.583 3.022l-.541 2.853a3.851 3.851 0 0 1-3.628 3.012z"/>
        <path fill="#AB6400" d="M212.624 128.813a2.406 2.406 0 0 1-2.443-3.012c.233-1.138.345-1.716.578-2.853a3.973 3.973 0 0 1 3.73-3.022 2.397 2.397 0 0 1 2.481 3.022l-.653 2.853a4 4 0 0 1-3.693 3.012z"/>
        <path fill="#FFF" d="M214.713 133.056h-64.838v-.662h65.016a5.799 5.799 0 0 0-.178.662zM214.06 135.947h-64.064v-.662h64.242c-.093.26-.121.4-.177.662zM213.398 138.838h-63.271v-.672h63.411a7.11 7.11 0 0 1-.14.672zM212.746 141.738h-62.48v-.672h62.676a3.65 3.65 0 0 0-.196.672zM212.084 144.629h-61.705v-.672h61.891l-.186.672zM211.43 147.52H150.5v-.663h61.108l-.177.662zM210.778 150.41h-60.185v-.662h60.334c-.065.28-.093.401-.149.662zM210.116 153.301h-59.364v-.662h59.523zM209.463 156.201h-58.58v-.671h58.748c-.075.27-.112.4-.168.671z"/>
        <rect width="27.052" height="27.052" x="260.006" y="31.467" fill="#000" opacity=".15" rx="5.418" style="mix-blend-mode:multiply"/>
        <rect width="27.052" height="27.052" x="264.137" y="27.793" fill="#FFC53A" rx="5.418"/>
        <path fill="#FFF" d="M284.13 32.325h-15.349v5.045h2.415v-2.518h5.316V47.73h-2.528v2.583H281.445V47.73h-2.518V34.852h5.203v2.518h2.416v-5.045z"/>
        <circle cx="165.355" cy="44.998" r="13.522" fill="#E6E7E8" opacity=".15" style="mix-blend-mode:multiply"/>
        <circle cx="167.192" cy="41.314" r="13.522" fill="#0E4E80"/>
        <path fill="#FFF" d="M166.784 36.394l2.98-2.98 5.375 5.373-2.98 2.98zM162.576 38.88l-3.33 7.992.486 1.12 4.662-4.663v-.047a.709.709 0 1 1 1.418 0 .7.7 0 0 1-.68.7l-4.664 4.662 1.194.569 8.001-3.33 1.548-4.084-4.513-4.504-4.122 1.586z"/>
        <path fill="#0E4E80" d="M140.289 2.717h53.042v1h-53.042z"/>
        <path fill="#41597C" d="M141.855 3.044a1.306 1.306 0 1 1-2.61 0 1.306 1.306 0 0 1 2.61 0z"/>
        <path fill="#0E4E80" d="M193.144 2.717h53.042v1h-53.042z"/>
        <circle cx="245.925" cy="3.044" r="1.306" fill="#0E4E80"/>
        <path fill="#0E4E80" d="M136.605 49.427l-.932-.074a55.756 55.756 0 0 1 8.616-23.313C156.962 6.783 177.86 2.727 193.163 2.727c16.207 0 38.382 3.926 51.95 22.604a51.606 51.606 0 0 1 9.326 22.642l-.933.084a50.543 50.543 0 0 0-9.157-22.232C230.995 7.483 209.137 3.641 193.153 3.641c-15.078 0-35.669 3.963-48.118 22.893a54.543 54.543 0 0 0-8.43 22.893z"/>
        <path fill="#FFF" d="M191.624 1.235h3.413v3.413h-3.413z"/>
        <path fill="#0E4E80" d="M195.037 1.235v3.422h-3.413V1.235h3.413zm.933-.933h-5.278v5.232h5.222V.302h.056z"/>
        <path fill="#FFF" d="M134.404 47.264h3.413v3.413h-3.413z"/>
        <path fill="#0E4E80" d="M137.827 47.264v3.413h-3.413v-3.413h3.413zm.932-.933h-5.222v5.232h5.222V46.33z"/>
        <path fill="#FFF" d="M252.247 47.264h3.413v3.413h-3.413z"/>
        <path fill="#0E4E80" d="M255.66 47.264v3.413h-3.422v-3.413H255.661zm.924-.933h-5.278v5.232h5.222V46.33h.056z"/>
    </g>
</svg>
