<svg xmlns="http://www.w3.org/2000/svg" width="137" height="125" viewBox="0 0 137 125">
    <defs>
        <linearGradient id="a" x1="10.337%" x2="89.715%" y1="50%" y2="50%">
            <stop offset="0%" stop-color="#FFF"/>
            <stop offset="100%" stop-color="#231F20"/>
        </linearGradient>
        <linearGradient id="b" x1="10.324%" x2="89.598%" y1="50%" y2="50%">
            <stop offset="0%" stop-color="#FFF33B"/>
            <stop offset="4%" stop-color="#FEE72E"/>
            <stop offset="12%" stop-color="#FED51B"/>
            <stop offset="20%" stop-color="#FDCA10"/>
            <stop offset="28%" stop-color="#FDC70C"/>
            <stop offset="67%" stop-color="#F3903F"/>
            <stop offset="89%" stop-color="#ED683C"/>
            <stop offset="100%" stop-color="#E93E3A"/>
        </linearGradient>
    </defs>
    <g fill="none" fill-rule="nonzero" transform="translate(-1)">
        <path fill="#35A7FF" d="M33.746 82.464L29.9 90.907h81.546l-2.988-8.443z" opacity=".15" style="mix-blend-mode:multiply"/>
        <path fill="#000" d="M136.63 111.166a2.02 2.02 0 0 0-.562-.412l-17.14-12.465-5.365-8.19a.628.628 0 0 0-.472-.28l2.135-3.637-.19-.186c.496-.843-.255-1.372-.562-1.555-.306-.182-1.132-.586-1.624.253l-.252-.074-.31.525-2.605 4.44a.636.636 0 0 0-.647.584.64.64 0 0 1-.473.563l-2.612.672a.636.636 0 0 0-.458.777l.086.338a.634.634 0 0 1-.388.75l-4.004 1.656a.641.641 0 0 0-.388.777l.419 1.496H87.946a1.936 1.936 0 0 0-1.382.545c-.37.359-.583.85-.591 1.366-.005.162.005.323.031.482l2.233 13.988a2.878 2.878 0 0 0 2.713 2.393h27.009a1.936 1.936 0 0 0 1.383-.547c.37-.359.583-.852.59-1.368a2.617 2.617 0 0 0-.031-.486l-.686-4.274 9.388 9.108.023-.027c.06.087.127.17.198.248 1.22 1.286 3.957.66 6.116-1.395 2.16-2.055 2.92-4.783 1.69-6.065z" opacity=".15" style="mix-blend-mode:multiply"/>
        <path fill="#52B3FF" d="M86.07 111.321c-.584-4.724-1.167-9.448-1.748-14.17a1.676 1.676 0 0 0-1.617-1.442h-34.64a1.676 1.676 0 0 0-1.613 1.442c-.584 4.725-1.167 9.448-1.748 14.17v.148a1.338 1.338 0 0 0 1.434 1.298h38.521a1.328 1.328 0 0 0 1.43-1.298.904.904 0 0 1-.02-.148zM29.261 84.321c-.163.389-.24.563-.388.936.271.145.377.48.237.754a.973.973 0 0 1-.799.56l-.24.567a.56.56 0 0 1 .233.754.961.961 0 0 1-.776.56l-.24.567c.27.145.373.48.233.753a.233.233 0 0 1-.035.05 1.777 1.777 0 0 0-.667-.605 1.192 1.192 0 0 0-1.55.388 17.548 17.548 0 0 0-1.14 1.772.194.194 0 0 1-.267.074l-.167-.093a.202.202 0 0 1-.078-.268l.466-.836a1.25 1.25 0 0 0-.008-1.258 1.244 1.244 0 0 0-2.167.046l-1.097 1.974a.31.31 0 0 1-.419.12.198.198 0 0 1-.073-.268l.833-1.5a.74.74 0 0 0-.283-.994l-.26-.144a.727.727 0 0 0-.992.283l-.895 1.605a.19.19 0 0 1-.264.078l-.089-.047a.198.198 0 0 1-.074-.268l.574-1.037a.46.46 0 0 0-.178-.63 1.196 1.196 0 0 0-1.624.463l-3.562 6.419c-.024.042-.047.085-.066.128a2.239 2.239 0 0 0-.198.979l.062 4.849a.585.585 0 0 0-.775.233L1.98 119.24l.03.02c-.04.054-.076.11-.108.17-.667 1.318.737 3.373 3.136 4.601 2.326 1.166 4.702 1.166 5.47-.031l.03-.062a.513.513 0 0 0 .047-.078c0-.027.023-.062.039-.09l9.271-18.386a.587.587 0 0 0-.24-.777l1.55-.229a.693.693 0 0 1-.038.427.911.911 0 0 1-.737.564c-.089.225-.135.338-.229.563.26.167.347.507.198.777a.907.907 0 0 1-.729.56l-.46 1.142c6.705 1.352 13.446 2.487 20.155 3.707a1444.173 1444.173 0 0 0 10.012-24.09c-6.67-1.348-13.411-2.483-20.117-3.707zm-5.69 14.516a.19.19 0 0 1-.078-.256c.052.079.083.17.09.264l-.012-.008zm.748-1.554a.909.909 0 0 1-.357.416l.411-.777a.697.697 0 0 1-.073.373l.019-.012z" opacity=".15" style="mix-blend-mode:multiply"/>
        <path fill="#FFB583" d="M26.28 94.73a1.27 1.27 0 0 0-1.728.494l-1.078 1.943a.197.197 0 0 1-.267.077l-.23-.128a.202.202 0 0 1-.077-.268s3.601-6.605 3.946-7.34c.473-.971.062-1.62-.647-2.016a1.188 1.188 0 0 0-1.55.388 16.976 16.976 0 0 0-1.163 1.768.197.197 0 0 1-.264.078l-.17-.093a.202.202 0 0 1-.078-.269l.465-.835a1.25 1.25 0 0 0-.018-1.248 1.244 1.244 0 0 0-2.156.032l-1.097 1.978a.306.306 0 0 1-.415.12.194.194 0 0 1-.078-.268l.834-1.5a.74.74 0 0 0-.283-.998l-.256-.144a.732.732 0 0 0-.996.283l-.892 1.609a.201.201 0 0 1-.267.078l-.09-.05a.194.194 0 0 1-.073-.269l.578-1.037a.46.46 0 0 0-.179-.626 1.196 1.196 0 0 0-1.628.463l-3.562 6.415a2.22 2.22 0 0 0-.264 1.107l.066 5.156 5.966 3.326 3.217-.474a3.489 3.489 0 0 0 2.523-1.752l2.376-4.275a1.276 1.276 0 0 0-.465-1.725z"/>
        <path fill="#F58A07" d="M19.094 102.898l-6.369-3.552a.588.588 0 0 0-.794.218L1.407 117.53l8.528 4.764 9.395-18.596a.591.591 0 0 0-.236-.8z"/>
        <ellipse cx="5.667" cy="119.922" fill="#FFCB30" rx="2.667" ry="4.888" transform="rotate(-63.03 5.667 119.922)"/>
        <path fill="#FFE8E0" d="M26.075 95.27a.727.727 0 0 0-.992.284l-.19.342a.732.732 0 0 0 .283.995c.352.196.796.069.992-.284l.19-.342a.735.735 0 0 0-.283-.995z"/>
        <path fill="#FFF" d="M19.846 104.976a.584.584 0 0 0-.198-.753l.233-.568a.911.911 0 0 0 .732-.56.584.584 0 0 0-.201-.753l.232-.567a.911.911 0 0 0 .74-.56.576.576 0 0 0-.2-.754c.092-.229.139-.341.228-.567a.93.93 0 0 0 .752-.56.58.58 0 0 0-.21-.753l.233-.567a.93.93 0 0 0 .775-.56.572.572 0 0 0-.213-.754c.093-.229.14-.342.237-.567a.942.942 0 0 0 .775-.56.572.572 0 0 0-.221-.753l.236-.568a.946.946 0 0 0 .776-.56.576.576 0 0 0-.221-.776c.093-.226.14-.338.236-.564a.946.946 0 0 0 .775-.56.576.576 0 0 0-.225-.757c.097-.225.144-.338.237-.563a.954.954 0 0 0 .775-.56.572.572 0 0 0-.229-.777l.24-.563a.965.965 0 0 0 .776-.56.569.569 0 0 0-.233-.777l.24-.563a.97.97 0 0 0 .795-.56.568.568 0 0 0-.236-.757l.24-.564a.973.973 0 0 0 .799-.56.564.564 0 0 0-.237-.757c.16-.389.237-.56.388-.933 6.725 1.22 13.466 2.355 20.156 3.707a1415.331 1415.331 0 0 1-10.008 24.09c-6.73-1.224-13.47-2.358-20.176-3.706.186-.459.28-.688.462-1.147.319-.026.6-.22.74-.509z"/>
        <path fill="#146EB4" d="M45.68 87.958c-5.077-.983-10.182-1.842-15.275-2.747a.14.14 0 0 1-.109-.206.252.252 0 0 1 .256-.14c5.093.905 10.194 1.764 15.272 2.75a.14.14 0 0 1 .097.203.225.225 0 0 1-.24.14zM45.045 89.47c-5.086-.976-10.198-1.839-15.3-2.748a.14.14 0 0 1-.104-.206.248.248 0 0 1 .256-.14c5.1.91 10.206 1.772 15.295 2.748a.143.143 0 0 1 .097.205.229.229 0 0 1-.244.14zM44.409 90.98c-5.093-.97-10.21-1.837-15.319-2.746a.14.14 0 0 1-.104-.206.24.24 0 0 1 .256-.14c5.105.913 10.217 1.776 15.314 2.747a.14.14 0 0 1 .097.206.229.229 0 0 1-.244.14zM43.773 92.492c-5.105-.967-10.225-1.834-15.334-2.747a.143.143 0 0 1-.108-.206.24.24 0 0 1 .256-.14c5.108.917 10.229 1.78 15.33 2.747a.143.143 0 0 1 .1.206.24.24 0 0 1-.244.14zM43.13 94.004c-5.109-.94-10.23-1.83-15.346-2.751a.14.14 0 0 1-.104-.202.24.24 0 0 1 .255-.14c5.113.917 10.233 1.807 15.342 2.747a.143.143 0 0 1 .101.206.244.244 0 0 1-.248.14zM42.49 95.515c-5.116-.94-10.237-1.826-15.353-2.75a.14.14 0 0 1-.109-.203.24.24 0 0 1 .256-.14c5.117.921 10.237 1.811 15.35 2.747a.143.143 0 0 1 .104.206.244.244 0 0 1-.248.14zM41.843 97.023c-5.116-.933-10.24-1.819-15.357-2.747a.143.143 0 0 1-.105-.206.24.24 0 0 1 .252-.136c5.117.925 10.24 1.814 15.357 2.747a.143.143 0 0 1 .105.206.24.24 0 0 1-.252.136zM41.196 98.534c-5.117-.928-10.241-1.814-15.358-2.747a.143.143 0 0 1-.104-.206.24.24 0 0 1 .252-.136c5.116.929 10.24 1.819 15.357 2.747a.14.14 0 0 1 .105.206.236.236 0 0 1-.252.136zM40.548 100.046c-5.116-.925-10.24-1.811-15.353-2.747a.14.14 0 0 1-.105-.206.236.236 0 0 1 .248-.136c5.117.932 10.241 1.818 15.358 2.747a.14.14 0 0 1 .104.206.236.236 0 0 1-.252.136zM39.901 101.557c-5.116-.92-10.237-1.807-15.35-2.747a.143.143 0 0 1-.104-.206.236.236 0 0 1 .248-.136c5.113.937 10.237 1.822 15.353 2.747a.143.143 0 0 1 .105.206.24.24 0 0 1-.252.136zM34.734 102.532c-3.628-.629-7.256-1.255-10.853-1.942a.143.143 0 0 1-.1-.206.244.244 0 0 1 .247-.14c3.617.688 7.249 1.313 10.877 1.943a.14.14 0 0 1 .112.206.263.263 0 0 1-.283.14z"/>
        <path fill="#FFB583" d="M26.28 94.73a1.27 1.27 0 0 0-1.728.494l-1.078 1.943a.197.197 0 0 1-.267.077l-.23-.128-1.371-.622-2.059 6.334 2.326-.342a3.489 3.489 0 0 0 2.523-1.753l2.377-4.274a1.276 1.276 0 0 0-.493-1.729z"/>
        <path fill="#FFE8E0" d="M26.075 95.27a.727.727 0 0 0-.992.284l-.19.342a.732.732 0 0 0 .283.995c.352.196.796.069.992-.284l.19-.342a.735.735 0 0 0-.283-.995z"/>
        <path fill="#CBCBD1" d="M91.516 32.014l30.408-.206-1.729-3.046a2.282 2.282 0 0 0-1.98-1.166H22.497a2.286 2.286 0 0 0-1.98 1.166l-1.722 3.054 63.887.237v.031l3.101-.023 5.74.023-.007-.07z"/>
        <path fill="#FFF" d="M22.497 27.608a2.286 2.286 0 0 0-1.98 1.166l-1.722 3.042 63.887.237v.031l3.101-.023h3.489l5.93-4.46-72.705.007zM64.236 70.154l-6.322 19.447H82.77l-5.015-19.447z"/>
        <path fill="#146EB4" d="M57.914 89.605H82.77c0 .859-.694 1.555-1.55 1.555H59.495a1.572 1.572 0 0 1-1.574-1.555h-.007z"/>
        <path fill="#0E4E80" d="M108.114 80.638H33.087a1.295 1.295 0 0 1-1.252-.968l-13.18-46.653a1.639 1.639 0 0 1 .286-1.419 1.63 1.63 0 0 1 1.296-.637H120.51c.504 0 .98.234 1.29.632.31.399.419.918.296 1.408l-12.706 46.657a1.295 1.295 0 0 1-1.275.98z"/>
        <path fill="#0E4E80" d="M120.49 30.961h-13.61L55.686 80.638h52.429c.592 0 1.11-.403 1.255-.98l12.706-46.657c.123-.49.014-1.01-.295-1.408a1.634 1.634 0 0 0-1.29-.632z"/>
        <path fill="#35A7FF" d="M63.6 72.113l-4.663 14.341 21.458-6.065-.635-2.464-14.435-6.628z" opacity=".15" style="mix-blend-mode:multiply"/>
        <path fill="#E6E7E8" d="M107.075 78.866h-72.98L21.086 33.102H119.6z"/>
        <path fill="#FFF" d="M117.82 39.607l.744-2.716h-96.4l.771 2.716z"/>
        <path fill="#146EB4" d="M41.258 76.939H35.64l-9.78-36.548h5.617zM22.497 38.068h95.741l1.36-4.966H21.087zM104.962 76.939l9.78-36.548h-10.346L94.621 76.94z"/>
        <path fill="#0E4E80" d="M107.079 69.024l.36-1.345H97.098l-.361 1.345zM99.671 58.055l-.36 1.344h10.341l.36-1.344zM102.249 48.43l-.36 1.345h10.341l.36-1.344z"/>
        <path fill="#D1D3D4" d="M86.07 109.98c-.584-4.724-1.167-9.447-1.748-14.17a1.676 1.676 0 0 0-1.617-1.441h-34.64a1.676 1.676 0 0 0-1.613 1.441c-.584 4.725-1.167 9.449-1.748 14.17v.149a1.338 1.338 0 0 0 1.434 1.297h38.521a1.328 1.328 0 0 0 1.43-1.297v-.638c-.011.591-.015.54-.02.49z"/>
        <path fill="#FFF" d="M84.647 111.422h-38.52a1.32 1.32 0 0 1-1.423-1.441c.581-4.725 1.164-9.448 1.748-14.17.115-.81.796-1.42 1.612-1.442h34.641c.818.02 1.501.63 1.617 1.441.581 4.725 1.164 9.449 1.748 14.17a1.327 1.327 0 0 1-1.423 1.442z"/>
        <path fill="#6B79AB" d="M55.619 106.76h1.4a.33.33 0 0 0 .336-.3c.028-.516.04-.776.062-1.297a.292.292 0 0 0-.302-.3h-1.38a.338.338 0 0 0-.337.3c-.031.52-.047.777-.081 1.298a.292.292 0 0 0 .302.299zm3.488-4.542h1.36c.17.002.312-.13.323-.3l.038-1.297a.296.296 0 0 0-.302-.3h-1.345a.318.318 0 0 0-.322.3c-.023.52-.035.777-.054 1.298a.292.292 0 0 0 .302.299zm-2.48 0h1.36a.322.322 0 0 0 .326-.3l.058-1.297a.288.288 0 0 0-.299-.3h-1.34a.326.326 0 0 0-.33.3c-.031.52-.043.777-.074 1.298a.292.292 0 0 0 .299.299zm2.159 1.966c.023-.517.03-.777.054-1.298a.292.292 0 0 0-.302-.3h-1.369a.326.326 0 0 0-.33.3l-.069 1.298a.292.292 0 0 0 .302.299h1.38a.326.326 0 0 0 .334-.3zm-6.632.299h1.38a.341.341 0 0 0 .34-.3c.035-.516.055-.776.09-1.297a.284.284 0 0 0-.291-.3h-1.364a.345.345 0 0 0-.341.3l-.109 1.298a.28.28 0 0 0 .295.291v.008zm15.71-4.581h1.34a.29.29 0 0 0 .3-.3l-.032-1.293a.314.314 0 0 0-.314-.3h-1.325a.294.294 0 0 0-.303.3v1.294a.307.307 0 0 0 .334.299zm-13.718 2.331h1.36a.33.33 0 0 0 .33-.299l.077-1.298a.28.28 0 0 0-.29-.299h-1.345a.334.334 0 0 0-.334.3c-.035.52-.054.776-.093 1.297a.284.284 0 0 0 .295.284v.015zm2.182 1.966l.074-1.297a.292.292 0 0 0-.299-.3H54.74a.334.334 0 0 0-.333.3c-.035.52-.055.777-.09 1.297a.284.284 0 0 0 .299.3h1.391a.33.33 0 0 0 .322-.315v.015zm-3.275 2.576h1.403a.334.334 0 0 0 .341-.299c.035-.517.05-.777.085-1.298a.288.288 0 0 0-.298-.299H53.2a.345.345 0 0 0-.345.3l-.097 1.297a.28.28 0 0 0 .295.284v.015zm.306-4.84c.043-.522.062-.778.1-1.299a.28.28 0 0 0-.29-.299h-1.341a.334.334 0 0 0-.337.3l-.117 1.297a.28.28 0 0 0 .291.3h1.36a.338.338 0 0 0 .334-.315v.015zm12.493 4.84h1.395a.302.302 0 0 0 .318-.299v-1.298a.318.318 0 0 0-.318-.314h-1.38a.31.31 0 0 0-.321.299v1.298a.31.31 0 0 0 .306.299v.015zm.318-2.576v-1.297a.307.307 0 0 0-.314-.3H64.49a.31.31 0 0 0-.317.3v1.297a.303.303 0 0 0 .313.3h1.38a.306.306 0 0 0 .303-.315v.015zm-.74-1.966a.306.306 0 0 0 .313-.299v-1.298a.303.303 0 0 0-.31-.299h-1.345a.31.31 0 0 0-.314.3v1.297a.303.303 0 0 0 .31.3h1.345zm2.48 0a.302.302 0 0 0 .31-.299c0-.52 0-.777-.023-1.298a.31.31 0 0 0-.318-.299h-1.341a.302.302 0 0 0-.31.3v1.297a.307.307 0 0 0 .314.3h1.368zm-7.175 4.527h1.4a.318.318 0 0 0 .33-.3l.022-1.297a.303.303 0 0 0-.314-.3H60.79a.322.322 0 0 0-.326.3c0 .52-.027.777-.043 1.298a.3.3 0 0 0 .314.299zm2.559 0h1.399a.314.314 0 0 0 .326-.3v-1.297a.307.307 0 0 0-.318-.3h-1.384a.318.318 0 0 0-.322.3v1.298a.303.303 0 0 0 .299.299zm-1.706-4.542h1.36c.17.002.31-.13.318-.3v-1.297a.296.296 0 0 0-.306-.3h-1.34a.318.318 0 0 0-.323.3c0 .52-.019.777-.03 1.298a.3.3 0 0 0 .321.299zm-2.05 2.257h1.38a.318.318 0 0 0 .325-.299c0-.517 0-.777.035-1.298a.303.303 0 0 0-.31-.299h-1.36a.326.326 0 0 0-.33.3c-.02.52-.027.776-.047 1.297a.296.296 0 0 0 .307.3zm4.163-.299v-1.298a.303.303 0 0 0-.31-.299h-1.365a.318.318 0 0 0-.322.3c0 .52 0 .776-.027 1.297a.3.3 0 0 0 .31.3h1.384c.17.008.317-.121.33-.292v-.008zm13.264.3h1.38a.283.283 0 0 0 .294-.3c-.042-.517-.066-.777-.108-1.298a.338.338 0 0 0-.337-.299h-1.365a.283.283 0 0 0-.294.3c.034.52.054.776.089 1.297a.334.334 0 0 0 .34.3zm-1.493-6.878h1.369a.275.275 0 0 0 .283-.3c0-.213-.024-.322-.043-.536a.326.326 0 0 0-.326-.299h-1.368a.275.275 0 0 0-.283.3c0 .213.02.322.031.536.01.177.16.313.337.307v-.008zm2.652 4.313c-.039-.52-.062-.777-.101-1.298a.338.338 0 0 0-.337-.3h-1.341a.279.279 0 0 0-.291.3l.085 1.298c.02.17.163.298.334.299h1.36a.279.279 0 0 0 .29-.291v-.008zm-2.903-2.017h1.33a.279.279 0 0 0 .286-.299c-.039-.517-.058-.777-.093-1.294a.33.33 0 0 0-.33-.3H75.09a.283.283 0 0 0-.287.3l.077 1.294a.33.33 0 0 0 .342.307v-.008zm-.718 4.581h1.38a.283.283 0 0 0 .299-.299c-.035-.517-.054-.777-.085-1.298a.338.338 0 0 0-.338-.299h-1.364a.29.29 0 0 0-.299.3c.031.52.043.776.07 1.297a.33.33 0 0 0 .337.3zm-5.814-.299c0-.517 0-.777-.023-1.298a.318.318 0 0 0-.322-.299H66.98a.306.306 0 0 0-.314.3v1.297a.311.311 0 0 0 .322.3h1.38a.298.298 0 0 0 .306-.292l.015-.008zm9-4.274h1.342a.275.275 0 0 0 .283-.3l-.117-1.293a.338.338 0 0 0-.333-.3h-1.322a.271.271 0 0 0-.283.3l.097 1.294a.334.334 0 0 0 .318.299h.016zm.272-2.308h1.624a.267.267 0 0 0 .275-.3c0-.213-.027-.322-.05-.535a.338.338 0 0 0-.33-.304h-1.612a.275.275 0 0 0-.28.304c.02.213.028.322.044.536.016.163.15.29.313.299h.016zm-2.299 4.325l-.081-1.298a.33.33 0 0 0-.33-.3h-1.344a.286.286 0 0 0-.295.3l.066 1.298c.018.169.16.298.33.299h1.36a.283.283 0 0 0 .279-.3h.015zm2.861-1.298l.109 1.298c.021.17.165.298.337.299h1.36a.275.275 0 0 0 .287-.3l-.124-1.297a.341.341 0 0 0-.337-.3H78.81a.279.279 0 0 0-.302.3h.015zm-4.845 3.563l-.066-1.298a.326.326 0 0 0-.33-.3H71.9a.29.29 0 0 0-.303.3c0 .52.031.777.05 1.298a.322.322 0 0 0 .33.299h1.38a.29.29 0 0 0 .306-.3h.016zm-.775-1.966a.29.29 0 0 0 .302-.3l-.066-1.297a.322.322 0 0 0-.326-.3h-1.34a.29.29 0 0 0-.303.3c.02.52.031.777.046 1.298.015.17.156.3.326.299h1.36zm-2.38-4.624h1.368a.286.286 0 0 0 .295-.3c0-.213 0-.322-.024-.535a.322.322 0 0 0-.318-.304h-1.356a.29.29 0 0 0-.295.304v.536a.314.314 0 0 0 .299.299h.03zm2.508 0h1.368a.283.283 0 0 0 .287-.3c0-.213-.02-.322-.035-.535a.322.322 0 0 0-.318-.304h-1.36a.287.287 0 0 0-.287.304l.023.536c.009.158.133.286.29.299h.032zm-2.687 2.308h1.341a.29.29 0 0 0 .299-.3c-.023-.516-.031-.776-.054-1.293a.318.318 0 0 0-.318-.3h-1.326a.294.294 0 0 0-.298.3l.038 1.294c.008.157.13.285.287.299h.031zm-2.321-2.308h1.368a.29.29 0 0 0 .298-.3v-.535a.314.314 0 0 0-.314-.304H68.02a.298.298 0 0 0-.299.304v.536a.307.307 0 0 0 .303.299zm2.95 9.166h1.399a.294.294 0 0 0 .31-.3l-.058-1.297a.326.326 0 0 0-.338-.3h-1.383a.298.298 0 0 0-.31.3c0 .52.023.777.042 1.298.01.173.157.306.33.299h.007zm1.802-6.858h1.34a.286.286 0 0 0 .295-.3l-.077-1.293a.318.318 0 0 0-.322-.3h-1.337a.286.286 0 0 0-.29.3l.057 1.294c.01.171.155.303.326.299h.008zm-3.256 4.573h1.38a.294.294 0 0 0 .306-.299c0-.517-.027-.777-.047-1.298a.322.322 0 0 0-.325-.299h-1.36a.302.302 0 0 0-.31.3c0 .52 0 .776.03 1.297.01.171.154.304.326.3zm1.163-2.564c0-.52-.028-.777-.043-1.298a.318.318 0 0 0-.322-.3h-1.345a.294.294 0 0 0-.302.3c0 .52 0 .777.027 1.298a.31.31 0 0 0 .318.299h1.36a.298.298 0 0 0 .322-.291l-.015-.008zm-.574 4.542l-.039-1.298a.322.322 0 0 0-.33-.299h-1.38a.302.302 0 0 0-.313.3v1.297c.01.173.157.306.33.3h1.399a.298.298 0 0 0 .348-.292l-.015-.008zm5.105 0l-.078-1.298a.338.338 0 0 0-.337-.299h-1.349a.294.294 0 0 0-.306.3l.062 1.297a.33.33 0 0 0 .337.3h1.4a.291.291 0 0 0 .286-.292l-.015-.008zm-2.26.777H70.24a.298.298 0 0 0-.314.3l.038 1.39c.015.173.161.304.334.3h2.764a.298.298 0 0 0 .313-.3c-.023-.555-.038-.835-.065-1.39a.33.33 0 0 0-.342-.284l-.015-.016zm2.531 0h-1.403a.294.294 0 0 0-.31.3l.07 1.39c.02.175.17.305.345.3h1.418a.29.29 0 0 0 .31-.3l-.089-1.39a.334.334 0 0 0-.325-.284l-.016-.016zm-15.92-.486a.326.326 0 0 0 .334-.299c0-.517.023-.777.043-1.298a.303.303 0 0 0-.31-.299h-1.384a.33.33 0 0 0-.333.3l-.059 1.297a.296.296 0 0 0 .31.3h1.4zm-2.402.486h-2.59a.337.337 0 0 0-.345.3c-.038.555-.058.835-.093 1.39a.292.292 0 0 0 .307.3h2.62a.334.334 0 0 0 .34-.3c.028-.555.044-.835.07-1.39a.295.295 0 0 0-.302-.284l-.007-.016zm8.407-9.652h1.368a.294.294 0 0 0 .299-.299v-.536a.31.31 0 0 0-.307-.303h-1.348a.303.303 0 0 0-.303.303v.536a.3.3 0 0 0 .306.315l-.015-.016zm3.488 9.652H58.282a.33.33 0 0 0-.337.3c-.024.555-.035.835-.062 1.39a.3.3 0 0 0 .313.3h10.927a.306.306 0 0 0 .322-.3c0-.555 0-.835-.035-1.39a.318.318 0 0 0-.33-.284l-.023-.016zm8.699-.777l-.097-1.298a.341.341 0 0 0-.334-.291h-1.384a.286.286 0 0 0-.298.299c.031.52.047.777.081 1.298a.334.334 0 0 0 .342.299h1.399a.283.283 0 0 0 .314-.3l-.023-.007zm-26.792.777H49.56a.35.35 0 0 0-.352.3l-.136 1.39a.28.28 0 0 0 .299.3h1.418a.35.35 0 0 0 .353-.3c.046-.555.074-.835.12-1.39a.283.283 0 0 0-.275-.284l-.023-.016zm31.311-9.236h-2.504a.271.271 0 0 0-.279.3c.047.516.07.776.12 1.293.018.171.162.3.334.3h2.535a.271.271 0 0 0 .279-.3c-.058-.517-.09-.777-.144-1.294a.345.345 0 0 0-.318-.283l-.023-.016zm.252 2.312h-1.326a.267.267 0 0 0-.279.3l.124 1.297c.027.17.173.297.345.3h1.36a.271.271 0 0 0 .284-.3c-.058-.52-.09-.777-.144-1.298a.35.35 0 0 0-.34-.283l-.024-.016zm.244 2.265H79.31a.279.279 0 0 0-.29.3c.046.52.065.777.112 1.297.02.175.17.305.345.3h3.488a.271.271 0 0 0 .287-.3c-.058-.517-.085-.777-.144-1.298a.357.357 0 0 0-.313-.283l-.024-.016zm-4.651 5.902h-1.415a.29.29 0 0 0-.306.3v.248a.345.345 0 0 0 .349.3h1.422a.283.283 0 0 0 .303-.3l-.02-.248a.345.345 0 0 0-.29-.284l-.043-.016zm3.992-12.045h-1.608a.271.271 0 0 0-.275.303c0 .214.03.323.05.537.02.17.163.298.333.299h1.624a.263.263 0 0 0 .272-.3l-.058-.536a.345.345 0 0 0-.295-.276l-.043-.027zm-1.632 10.786h-1.403a.279.279 0 0 0-.298.3c0 .128 0 .194.027.326a.345.345 0 0 0 .349.3h1.41a.283.283 0 0 0 .3-.3c0-.132 0-.198-.032-.326a.35.35 0 0 0-.31-.272l-.043-.028zm2.52-2.377h-4.651a.283.283 0 0 0-.299.299l.1 1.297a.345.345 0 0 0 .35.3h4.748a.271.271 0 0 0 .29-.3l-.143-1.297a.357.357 0 0 0-.352-.272l-.043-.027zm-2.403 3.625h-1.372a.286.286 0 0 0-.303.299v.249a.35.35 0 0 0 .353.299h1.423a.283.283 0 0 0 .298-.3l-.023-.248a.353.353 0 0 0-.334-.272l-.042-.027zm2.473 0h-1.411a.279.279 0 0 0-.299.299l.024.249c.027.175.18.303.356.299h1.423a.279.279 0 0 0 .294-.3l-.027-.248a.36.36 0 0 0-.318-.272l-.042-.027zm-29.618-1.244h-1.36a.341.341 0 0 0-.35.3l-.116 1.39a.288.288 0 0 0 .303.3h1.422a.345.345 0 0 0 .35-.3l.096-1.39a.288.288 0 0 0-.302-.272l-.043-.028zm-5.039 0h-.973a.357.357 0 0 0-.356.3c-.062.555-.09.835-.152 1.39a.276.276 0 0 0 .295.3h1.027a.357.357 0 0 0 .357-.3c.054-.555.085-.835.14-1.39a.276.276 0 0 0-.307-.272l-.03-.028zm9.605-7.343h1.341c.17.002.312-.13.322-.3.02-.516.027-.777.047-1.293a.288.288 0 0 0-.295-.3h-1.295a.318.318 0 0 0-.317.3c-.028.516-.04.777-.066 1.294a.288.288 0 0 0 .294.326l-.03-.027zm2.454 0h1.34c.17.002.31-.13.319-.3 0-.516 0-.777.023-1.293a.292.292 0 0 0-.298-.3H60.53a.314.314 0 0 0-.314.3c0 .516-.027.777-.043 1.294a.292.292 0 0 0 .33.326l-.031-.027zm-4.675-2.308h1.372c.169 0 .308-.131.318-.3 0-.213 0-.322.027-.536a.288.288 0 0 0-.287-.303h-1.356a.33.33 0 0 0-.326.303c0 .214 0 .323-.03.537a.276.276 0 0 0 .313.326l-.03-.027zm9.582 2.308h1.341a.298.298 0 0 0 .306-.3v-1.293a.303.303 0 0 0-.31-.3h-1.322a.298.298 0 0 0-.306.3v1.294a.303.303 0 0 0 .322.326l-.031-.027zm-9.81 0h1.34c.17.002.312-.13.322-.3l.07-1.293a.288.288 0 0 0-.29-.3h-1.326c-.17 0-.312.13-.326.3-.03.516-.05.777-.081 1.294a.28.28 0 0 0 .34.326l-.05-.027zm5.147-2.308h1.368a.31.31 0 0 0 .314-.3v-.536a.296.296 0 0 0-.294-.303h-1.36a.318.318 0 0 0-.315.303v.537a.292.292 0 0 0 .318.326l-.031-.027zm2.415 0h1.403a.298.298 0 0 0 .306-.3v-.536a.303.303 0 0 0-.302-.303H63.18a.31.31 0 0 0-.31.303v.537a.296.296 0 0 0 .29.326l-.03-.027zm-.206 2.308h1.342a.302.302 0 0 0 .31-.3v-1.293a.3.3 0 0 0-.307-.3h-1.286a.31.31 0 0 0-.314.3c0 .516 0 .777-.024 1.294a.3.3 0 0 0 .31.326l-.03-.027zm-4.651-2.308h1.368a.314.314 0 0 0 .314-.3l.02-.536a.288.288 0 0 0-.291-.303h-1.36a.322.322 0 0 0-.318.303l-.024.537a.284.284 0 0 0 .35.326l-.059-.027zm-10.531 6.908h3.224a.345.345 0 0 0 .345-.299c.047-.517.066-.777.113-1.298a.28.28 0 0 0-.287-.299h-3.186a.357.357 0 0 0-.349.3c-.054.52-.085.776-.143 1.297a.276.276 0 0 0 .283.3zm.248-2.265h2.496a.345.345 0 0 0 .34-.3l.121-1.297a.272.272 0 0 0-.283-.3h-2.469a.35.35 0 0 0-.345.3l-.143 1.298a.272.272 0 0 0 .283.307v-.008zm.248-2.331h1.34a.345.345 0 0 0 .342-.3c.05-.516.074-.777.128-1.293a.272.272 0 0 0-.28-.3h-1.321a.345.345 0 0 0-.341.3c-.058.516-.085.777-.144 1.293a.265.265 0 0 0 .291.323l-.015-.023zm-.76 6.88h4.411a.341.341 0 0 0 .349-.298l.105-1.298a.284.284 0 0 0-.295-.3h-4.35a.36.36 0 0 0-.352.3l-.143 1.298a.276.276 0 0 0 .275.299zm1.015-9.165h1.369c.17 0 .314-.13.333-.3.02-.213.031-.322.054-.535a.272.272 0 0 0-.275-.304h-1.333a.345.345 0 0 0-.337.304c-.024.213-.035.322-.062.536a.269.269 0 0 0 .267.299h-.016zm4.652 2.308h1.341a.33.33 0 0 0 .33-.3c.034-.516.05-.776.085-1.293a.276.276 0 0 0-.283-.3h-1.326a.33.33 0 0 0-.33.3c-.042.517-.061.777-.104 1.294a.28.28 0 0 0 .287.299zm-2.233-2.308h1.368c.171 0 .314-.13.334-.3 0-.213.023-.322.042-.535a.276.276 0 0 0-.279-.304h-1.356a.341.341 0 0 0-.334.304c0 .213-.03.322-.05.536a.269.269 0 0 0 .275.299zm-.22 2.308h1.34a.334.334 0 0 0 .334-.3c.042-.516.066-.776.108-1.293a.272.272 0 0 0-.283-.3h-1.321a.341.341 0 0 0-.338.3c-.046.517-.073.777-.12 1.294a.272.272 0 0 0 .28.299zm2.635-2.308h1.368a.33.33 0 0 0 .326-.3c0-.213 0-.322.035-.535a.28.28 0 0 0-.283-.304h-1.357a.338.338 0 0 0-.33.304c0 .213-.023.322-.042.536a.276.276 0 0 0 .283.299z"/>
        <path fill="#146EB4" d="M55.619 106.585h1.395a.33.33 0 0 0 .337-.3c.028-.516.04-.776.066-1.297a.296.296 0 0 0-.306-.3h-1.38a.334.334 0 0 0-.337.3l-.081 1.298a.292.292 0 0 0 .306.299zm3.488-4.542h1.357c.17.002.311-.13.322-.3l.039-1.297a.296.296 0 0 0-.303-.3h-1.341a.318.318 0 0 0-.322.3c-.023.517-.035.777-.054 1.298a.292.292 0 0 0 .302.299zm-2.48 0h1.36a.322.322 0 0 0 .345-.288l.058-1.297a.288.288 0 0 0-.298-.3H56.75a.322.322 0 0 0-.326.3c-.03.516-.046.777-.074 1.297 0 .158.127.286.283.288h-.007zm2.159 1.966c.023-.52.03-.777.054-1.298a.296.296 0 0 0-.302-.299h-1.369a.326.326 0 0 0-.33.3c-.026.52-.042.776-.069 1.297a.292.292 0 0 0 .302.3h1.38a.326.326 0 0 0 .341-.3h-.007zm-6.625.3h1.376a.341.341 0 0 0 .341-.3c.035-.52.055-.777.093-1.298a.284.284 0 0 0-.294-.299h-1.365a.341.341 0 0 0-.337.3c-.042.52-.066.776-.108 1.297a.28.28 0 0 0 .302.3h-.008zm15.691-4.582h1.333a.294.294 0 0 0 .303-.3l-.035-1.297a.31.31 0 0 0-.31-.299h-1.314c-.166 0-.3.133-.303.3v1.297a.311.311 0 0 0 .334.3h-.008zm-13.702 2.331h1.356a.334.334 0 0 0 .334-.299l.077-1.298a.28.28 0 0 0-.29-.299h-1.345a.33.33 0 0 0-.33.3c-.039.516-.058.777-.093 1.297a.28.28 0 0 0 .299.284l-.008.015zm2.182 1.966l.074-1.297a.292.292 0 0 0-.299-.3h-1.364c-.17.001-.314.13-.334.3-.034.52-.054.777-.089 1.297a.288.288 0 0 0 .299.3h1.387a.334.334 0 0 0 .334-.315l-.008.015zm-3.271 2.577h1.395a.334.334 0 0 0 .341-.3c.035-.516.05-.777.085-1.297a.288.288 0 0 0-.298-.3H53.2a.341.341 0 0 0-.341.3c-.039.52-.062.777-.1 1.297a.288.288 0 0 0 .31.284l-.008.016zm.306-4.842l.097-1.298a.28.28 0 0 0-.287-.299h-1.345a.334.334 0 0 0-.333.3l-.117 1.297a.28.28 0 0 0 .29.3h1.358a.338.338 0 0 0 .345-.304l-.008.004zm12.477 4.842h1.403a.31.31 0 0 0 .322-.3l-.02-1.297a.314.314 0 0 0-.321-.3h-1.384a.31.31 0 0 0-.318.3v1.297c.017.167.16.291.326.284l-.008.016zm.318-2.577v-1.297a.31.31 0 0 0-.314-.3h-1.364a.314.314 0 0 0-.318.3v1.297a.307.307 0 0 0 .314.3h1.38a.31.31 0 0 0 .31-.315l-.008.015zm-.74-1.966a.306.306 0 0 0 .314-.299v-1.298a.303.303 0 0 0-.31-.299H64.08a.302.302 0 0 0-.31.3v1.297a.307.307 0 0 0 .31.3h1.342zm2.476 0a.302.302 0 0 0 .31-.299c0-.52 0-.777-.023-1.298a.31.31 0 0 0-.314-.299h-1.345a.298.298 0 0 0-.306.3v1.297c.008.17.149.302.318.3h1.36zm-7.163 4.543h1.396a.318.318 0 0 0 .33-.3l.023-1.297a.307.307 0 0 0-.314-.3h-1.38a.322.322 0 0 0-.33.3l-.039 1.297a.3.3 0 0 0 .322.284l-.008.016zm2.555 0h1.395a.314.314 0 0 0 .326-.3v-1.297a.311.311 0 0 0-.322-.3h-1.38a.314.314 0 0 0-.322.3v1.297c.01.163.148.289.31.284l-.007.016zm-1.706-4.543h1.36c.17.003.31-.13.319-.299v-1.298a.3.3 0 0 0-.307-.299h-1.34a.31.31 0 0 0-.319.3c0 .516-.023.777-.034 1.297a.3.3 0 0 0 .329.284l-.008.015zm-2.046 2.266h1.376a.318.318 0 0 0 .325-.3c0-.52.02-.777.035-1.297a.3.3 0 0 0-.306-.3H59.61a.322.322 0 0 0-.325.3c-.02.52-.027.777-.05 1.297.008.164.146.29.31.284l-.008.016zm4.155-.3v-1.297a.307.307 0 0 0-.31-.3h-1.365a.318.318 0 0 0-.321.3c0 .52 0 .777-.027 1.297a.303.303 0 0 0 .31.3h1.391a.31.31 0 0 0 .33-.315l-.008.015zm13.252.3h1.376a.283.283 0 0 0 .295-.3l-.105-1.297a.345.345 0 0 0-.34-.3H76.81a.283.283 0 0 0-.295.3c.035.52.054.777.09 1.297a.337.337 0 0 0 .333.284l.007.016zm-1.492-6.878h1.368a.275.275 0 0 0 .283-.299c-.019-.214-.027-.322-.042-.54a.334.334 0 0 0-.326-.3h-1.349a.279.279 0 0 0-.283.3c0 .218.02.326.035.54.02.163.158.285.322.284l-.008.015zm2.648 4.31l-.105-1.298a.334.334 0 0 0-.333-.3h-1.346a.279.279 0 0 0-.286.3c.035.516.05.777.085 1.297.02.17.163.299.333.3h1.36a.279.279 0 0 0 .292-.3zm-2.904-2.017h1.353a.279.279 0 0 0 .287-.3l-.097-1.297a.33.33 0 0 0-.326-.3h-1.321a.286.286 0 0 0-.291.3c.035.52.05.777.081 1.298.018.165.16.29.326.287l-.012.012zm-.717 4.58h1.38a.286.286 0 0 0 .299-.298c-.035-.521-.055-.778-.086-1.298a.338.338 0 0 0-.337-.3h-1.36a.29.29 0 0 0-.299.3l.07 1.298a.33.33 0 0 0 .345.287l-.012.012zm-5.814-.298c0-.521 0-.778-.027-1.298a.318.318 0 0 0-.322-.3h-1.36a.306.306 0 0 0-.314.3v1.298a.31.31 0 0 0 .317.299h1.38a.306.306 0 0 0 .334-.311l-.008.012zm8.985-4.274h1.341a.275.275 0 0 0 .283-.3l-.116-1.297a.338.338 0 0 0-.334-.3h-1.321a.279.279 0 0 0-.283.3c.038.52.058.777.1 1.297a.33.33 0 0 0 .338.28l-.008.02zm.271-2.308h1.624a.267.267 0 0 0 .276-.3c-.02-.213-.031-.322-.05-.54a.338.338 0 0 0-.33-.299h-1.609a.275.275 0 0 0-.279.3c0 .217.023.326.043.54a.33.33 0 0 0 .333.28l-.008.019zm-2.287 4.316c-.03-.52-.046-.777-.081-1.297a.33.33 0 0 0-.33-.3h-1.34a.283.283 0 0 0-.295.3c.027.516.038.777.066 1.297a.326.326 0 0 0 .329.3h1.357a.283.283 0 0 0 .294-.3zm2.86-1.297c.044.516.063.777.106 1.297a.345.345 0 0 0 .34.3h1.357a.275.275 0 0 0 .287-.3l-.124-1.297a.341.341 0 0 0-.337-.3h-1.345a.271.271 0 0 0-.29.288l.007.012zm-4.84 3.563l-.066-1.298a.326.326 0 0 0-.33-.3H71.9a.29.29 0 0 0-.303.3c0 .52.031.777.05 1.298a.326.326 0 0 0 .33.299h1.38a.29.29 0 0 0 .299-.311v.012zm-.776-1.966a.29.29 0 0 0 .299-.3c-.023-.52-.035-.777-.062-1.297a.322.322 0 0 0-.326-.3h-1.356a.29.29 0 0 0-.299.3c0 .516.027.777.047 1.297.012.17.155.302.325.3h1.372zm-2.376-4.624h1.365a.286.286 0 0 0 .294-.3c0-.213 0-.322-.023-.54a.322.322 0 0 0-.318-.299h-1.356a.294.294 0 0 0-.295.3v.54a.31.31 0 0 0 .318.287l.015.012zm2.5 0h1.369a.279.279 0 0 0 .286-.3c0-.213-.019-.322-.03-.54a.33.33 0 0 0-.322-.299h-1.357a.283.283 0 0 0-.287.3c0 .217 0 .326.024.54.015.158.144.28.302.287l.015.012zm-2.678 2.308h1.341a.286.286 0 0 0 .295-.3c-.024-.516-.031-.777-.055-1.297a.318.318 0 0 0-.317-.3h-1.322a.294.294 0 0 0-.299.3l.04 1.298a.314.314 0 0 0 .301.287l.016.012zm-2.302-2.32h1.368a.286.286 0 0 0 .294-.3v-.54a.318.318 0 0 0-.314-.298h-1.356a.299.299 0 0 0-.299.299v.54a.31.31 0 0 0 .307.3zm2.95 9.166h1.395a.294.294 0 0 0 .31-.3l-.058-1.297a.326.326 0 0 0-.33-.3h-1.384a.302.302 0 0 0-.31.3c0 .52.027.777.043 1.298.012.169.153.3.322.299h.011zm1.798-6.858h1.341a.283.283 0 0 0 .29-.3c-.03-.516-.046-.776-.073-1.297a.33.33 0 0 0-.322-.299h-1.333a.286.286 0 0 0-.29.3l.057 1.297c.01.168.15.3.318.3h.012zm-3.245 4.581h1.377a.298.298 0 0 0 .31-.3c-.02-.52-.031-.776-.047-1.297a.322.322 0 0 0-.326-.299h-1.364a.298.298 0 0 0-.306.3c0 .52.02.776.03 1.297.011.167.148.297.315.3h.011zm1.163-2.564c0-.521-.027-.777-.042-1.298a.314.314 0 0 0-.322-.3h-1.341a.294.294 0 0 0-.303.3c0 .517 0 .777.028 1.298a.31.31 0 0 0 .317.299h1.361a.294.294 0 0 0 .302-.288v-.011zm-.573 4.542c0-.517 0-.777-.035-1.298a.322.322 0 0 0-.33-.3h-1.38a.302.302 0 0 0-.314.3v1.298c.01.173.157.306.33.299h1.395a.298.298 0 0 0 .334-.3zm5.1 0l-.077-1.298a.334.334 0 0 0-.337-.3h-1.38a.294.294 0 0 0-.306.3c.023.52.039.777.062 1.298a.33.33 0 0 0 .337.299h1.395a.29.29 0 0 0 .307-.3zm-2.255.777h-2.714a.298.298 0 0 0-.314.3c0 .555.024.83.035 1.386a.33.33 0 0 0 .338.303h2.756a.298.298 0 0 0 .313-.303l-.065-1.387a.33.33 0 0 0-.35-.291v-.008zm2.527 0h-1.403a.29.29 0 0 0-.306.3l.058 1.386a.338.338 0 0 0 .34.303h1.42a.294.294 0 0 0 .31-.303c-.035-.555-.055-.831-.09-1.387a.334.334 0 0 0-.329-.291v-.008zm-15.892-.486a.322.322 0 0 0 .333-.299l.043-1.298a.296.296 0 0 0-.306-.299h-1.384a.33.33 0 0 0-.334.3l-.058 1.297a.296.296 0 0 0 .31.3h1.396zm-2.427.494h-2.585a.337.337 0 0 0-.345.299c-.039.556-.058.831-.093 1.387a.292.292 0 0 0 .306.303h2.617a.338.338 0 0 0 .345-.303c.023-.556.038-.831.065-1.387a.296.296 0 0 0-.31-.3zm8.4-9.652h1.364a.298.298 0 0 0 .303-.3v-.54a.307.307 0 0 0-.307-.298h-1.356c-.166 0-.3.133-.303.299v.54a.3.3 0 0 0 .314.3h-.015zm3.488 9.652H58.29a.33.33 0 0 0-.338.299c-.023.556-.035.831-.062 1.387a.303.303 0 0 0 .314.303H69.12a.306.306 0 0 0 .322-.303c0-.556 0-.831-.035-1.387a.318.318 0 0 0-.33-.3h-.019zm8.69-.777l-.096-1.298a.345.345 0 0 0-.345-.3h-1.38a.286.286 0 0 0-.298.3l.08 1.298a.334.334 0 0 0 .342.299h1.395a.286.286 0 0 0 .322-.307l-.02.008zm-26.745.777H49.6a.35.35 0 0 0-.353.299l-.135 1.387a.284.284 0 0 0 .298.303h1.419a.35.35 0 0 0 .353-.303c.046-.556.07-.831.12-1.387a.284.284 0 0 0-.299-.3zm31.277-9.24h-2.5a.275.275 0 0 0-.28.3c.047.52.07.776.121 1.297.018.17.162.3.333.3h2.531a.271.271 0 0 0 .28-.3c-.059-.517-.09-.777-.144-1.298a.35.35 0 0 0-.341-.299zm.252 2.331h-1.33a.271.271 0 0 0-.283.3c.05.516.078.777.128 1.297a.35.35 0 0 0 .345.3h1.357a.271.271 0 0 0 .283-.3c-.058-.52-.09-.777-.143-1.298a.35.35 0 0 0-.357-.314v.015zm.244 2.266h-3.457a.279.279 0 0 0-.291.299c.046.52.07.777.112 1.297.024.173.172.301.345.3h3.489a.271.271 0 0 0 .283-.3c-.058-.52-.085-.777-.144-1.297a.357.357 0 0 0-.337-.315v.016zm-4.624 5.902h-1.415a.29.29 0 0 0-.306.299v.245a.341.341 0 0 0 .349.299h1.418a.286.286 0 0 0 .307-.3l-.02-.244a.345.345 0 0 0-.333-.315v.016zm3.985-12.045h-1.609a.267.267 0 0 0-.271.299c.019.217.03.326.05.54.02.17.163.298.333.299h1.62a.263.263 0 0 0 .272-.3l-.058-.54a.345.345 0 0 0-.337-.302v.004zm-1.628 10.782h-1.404a.283.283 0 0 0-.298.299c0 .132 0 .198.027.33a.345.345 0 0 0 .349.3h1.41a.283.283 0 0 0 .3-.3l-.032-.33a.353.353 0 0 0-.352-.303v.004zm2.515-2.374h-4.69a.283.283 0 0 0-.295.299c.04.52.063.777.101 1.298.02.174.17.304.345.299h4.745a.271.271 0 0 0 .29-.3c-.058-.516-.085-.776-.143-1.297a.357.357 0 0 0-.353-.303v.004zm-2.4 3.625H79.21a.286.286 0 0 0-.302.3c0 .096 0 .147.023.244a.341.341 0 0 0 .349.3H80.7a.279.279 0 0 0 .299-.3c0-.097 0-.148-.023-.245a.35.35 0 0 0-.353-.303v.004zm2.474 0h-1.415a.279.279 0 0 0-.298.3c0 .096 0 .147.027.244a.35.35 0 0 0 .356.3h1.419a.275.275 0 0 0 .295-.3c0-.097 0-.148-.028-.245a.357.357 0 0 0-.356-.303v.004zm-29.59-1.243h-1.404a.345.345 0 0 0-.349.299c-.042.555-.066.831-.112 1.387a.284.284 0 0 0 .302.303h1.419a.345.345 0 0 0 .349-.303l.097-1.387a.288.288 0 0 0-.303-.303v.004zm-5.04 0h-.988a.357.357 0 0 0-.357.299c-.062.555-.089.831-.15 1.387a.276.276 0 0 0 .294.303h.988a.36.36 0 0 0 .36-.303c.055-.556.082-.832.14-1.387a.28.28 0 0 0-.29-.303l.003.004zm9.598-7.344h1.337c.17.002.311-.13.322-.3 0-.516.027-.776.046-1.297a.296.296 0 0 0-.294-.3H58.15a.322.322 0 0 0-.318.3c-.027.52-.039.777-.062 1.298a.284.284 0 0 0 .29.295l.005.004zm2.45 0h1.337c.169.002.31-.13.318-.3 0-.516 0-.776.023-1.297a.296.296 0 0 0-.299-.3h-1.321a.318.318 0 0 0-.318.3c0 .52-.024.777-.043 1.298a.296.296 0 0 0 .299.295l.003.004zm-4.652-2.308h1.368c.169 0 .308-.13.318-.3 0-.213.02-.322.031-.54a.288.288 0 0 0-.29-.298h-1.357a.33.33 0 0 0-.322.299c0 .217 0 .326-.03.54a.276.276 0 0 0 .259.295l.023.004zm9.57 2.308h1.338a.298.298 0 0 0 .306-.3v-1.297a.31.31 0 0 0-.31-.3h-1.322a.302.302 0 0 0-.306.3v1.29c-.001.156.116.287.271.303l.023.004zm-9.803 0h1.342a.322.322 0 0 0 .325-.3l.066-1.297a.288.288 0 0 0-.29-.3H55.75a.33.33 0 0 0-.326.3c-.035.52-.05.777-.081 1.298a.28.28 0 0 0 .275.295l.011.004zm5.148-2.308h1.364a.302.302 0 0 0 .31-.3v-.54a.296.296 0 0 0-.298-.298h-1.357a.31.31 0 0 0-.31.299v.54a.291.291 0 0 0 .268.295l.023.004zm2.411 0h1.345a.307.307 0 0 0 .306-.3v-.54a.303.303 0 0 0-.302-.298H63.18a.307.307 0 0 0-.306.299v.54c0 .161.13.293.29.295l.024.004zm-.205 2.308h1.337a.302.302 0 0 0 .31-.3v-1.297a.303.303 0 0 0-.302-.3h-1.345a.31.31 0 0 0-.31.3c0 .52 0 .777-.024 1.298a.3.3 0 0 0 .31.295l.024.004zm-4.652-2.308H59.7a.314.314 0 0 0 .314-.3l.02-.54a.292.292 0 0 0-.295-.298h-1.356a.318.318 0 0 0-.314.299l-.028.54a.288.288 0 0 0 .291.295v.004zm-10.558 6.889h3.193a.35.35 0 0 0 .345-.3c.047-.52.066-.776.113-1.297a.28.28 0 0 0-.287-.3h-3.182a.357.357 0 0 0-.35.3c-.053.52-.084.777-.143 1.298a.276.276 0 0 0 .299.295l.012.004zm.244-2.265h2.496a.345.345 0 0 0 .341-.3c.05-.52.074-.777.12-1.297a.272.272 0 0 0-.283-.3h-2.477a.35.35 0 0 0-.345.3c-.058.517-.085.777-.143 1.298a.272.272 0 0 0 .28.295l.01.004zm.252-2.332h1.34a.341.341 0 0 0 .338-.299c.05-.517.078-.777.128-1.298a.272.272 0 0 0-.275-.299h-1.322a.35.35 0 0 0-.341.3c-.058.52-.085.777-.144 1.297a.265.265 0 0 0 .26.311l.016-.012zm-.745 6.858h4.408a.345.345 0 0 0 .348-.299c.04-.517.063-.777.101-1.298a.28.28 0 0 0-.294-.299h-4.369a.36.36 0 0 0-.352.3c-.055.52-.086.777-.144 1.297a.276.276 0 0 0 .29.311l.012-.012zm1.016-9.166h1.364c.171 0 .314-.129.334-.299.023-.213.035-.322.054-.54a.269.269 0 0 0-.271-.299h-1.38a.345.345 0 0 0-.334.3c-.023.217-.034.326-.062.54a.269.269 0 0 0 .283.31l.012-.012zm4.628 2.308h1.341a.33.33 0 0 0 .334-.291c.035-.517.05-.777.085-1.298a.28.28 0 0 0-.283-.299h-1.353a.338.338 0 0 0-.33.3c-.038.52-.061.776-.1 1.297a.272.272 0 0 0 .294.303l.012-.012zm-2.225-2.308h1.365a.33.33 0 0 0 .33-.299c.018-.213.026-.322.046-.54a.276.276 0 0 0-.28-.299H51.05a.338.338 0 0 0-.33.3c-.023.217-.03.326-.054.54a.272.272 0 0 0 .268.31l.011-.012zm-.225 2.308h1.342a.334.334 0 0 0 .333-.299c.043-.517.066-.777.108-1.298a.276.276 0 0 0-.283-.299h-1.321c-.17.001-.314.13-.334.3-.05.52-.073.777-.124 1.297a.272.272 0 0 0 .268.311l.011-.012zm2.632-2.308h1.369a.33.33 0 0 0 .325-.299l.035-.54a.28.28 0 0 0-.283-.299H53.44a.334.334 0 0 0-.325.3c0 .217-.027.326-.043.54a.276.276 0 0 0 .268.31l.011-.012z"/>
        <path fill="#0E4E80" d="M120.47 111.858l-2.232-13.988a2.878 2.878 0 0 0-2.713-2.398h-27.01a1.936 1.936 0 0 0-1.383.547c-.37.36-.582.852-.59 1.369-.006.161.004.323.032.482l2.232 13.988a2.878 2.878 0 0 0 2.714 2.397h27.013a1.936 1.936 0 0 0 1.383-.547c.37-.36.582-.852.59-1.369a2.559 2.559 0 0 0-.035-.481z"/>
        <path fill="#146EB4" d="M118.521 114.247H92.136a2.875 2.875 0 0 1-2.713-2.393c-.744-4.663-1.49-9.325-2.237-13.988a1.97 1.97 0 0 1 .39-1.67 1.96 1.96 0 0 1 1.548-.727h26.39a2.878 2.878 0 0 1 2.712 2.397l2.233 13.988a1.966 1.966 0 0 1-.39 1.668 1.956 1.956 0 0 1-1.548.725z"/>
        <ellipse cx="105.2" cy="104.855" fill="#0E4E80" opacity=".5" rx="10.435" ry="13.471" transform="rotate(-74.73 105.2 104.855)"/>
        <path fill="#FFF" d="M117.37 108.47a1.164 1.164 0 0 1-1.097-.972c-.337-2.114-.508-3.17-.845-5.28a.802.802 0 0 1 .775-.976c.55.024 1.008.431 1.097.976.337 2.11.508 3.166.845 5.28a.798.798 0 0 1-.775.971zM92.35 107.16a2.657 2.657 0 0 1-2.497-2.207c-.11-.58.043-1.18.419-1.636.36-.417.887-.653 1.438-.64a2.657 2.657 0 0 1 2.5 2.202 1.993 1.993 0 0 1-.423 1.636c-.359.42-.886.656-1.438.645zm-.64-4.014a1.382 1.382 0 0 0-1.078.478c-.285.351-.4.81-.314 1.255a2.169 2.169 0 0 0 2.031 1.807c.413.009.81-.166 1.082-.478.281-.353.396-.81.314-1.255a2.172 2.172 0 0 0-2.035-1.807zM93.69 110.257h-1.616a.43.43 0 0 1-.388-.358c-.085-.54-.131-.808-.217-1.348a.296.296 0 0 1 .291-.357h1.616c.203.01.371.157.407.357l.21 1.364a.292.292 0 0 1-.303.342zM92.299 101.522h-1.62a.43.43 0 0 1-.388-.357c-.085-.54-.128-.812-.217-1.352a.296.296 0 0 1 .29-.358h1.617a.435.435 0 0 1 .388.358l.213 1.352a.292.292 0 0 1-.283.357z" opacity=".5"/>
        <path fill="#FFB583" d="M110.273 87.869a.636.636 0 0 0-.675.582.633.633 0 0 1-.477.564l-2.612.672a.645.645 0 0 0-.458.777l.09.334a.638.638 0 0 1-.388.75l-3.98 1.66a.638.638 0 0 0-.388.776l1.399 5.005a1.163 1.163 0 1 0 2.256-.567l-.233-1.05a.635.635 0 0 1 .531-.777l2.686-.388a.888.888 0 0 1 1 .73l.132.777c.127.73-.36 1.426-1.089 1.555l-1.388.248a.979.979 0 0 0-.775 1.073l.124 1.06c.06.496.483.867.98.86l7.47-.114 5.04-5.828-5.37-8.19a.643.643 0 0 0-.488-.288l-3.387-.221z"/>
        <path fill="#FF8F42" d="M107.172 94.074l-2.117.35a2.395 2.395 0 0 0-1.59 1.029 2.406 2.406 0 0 0-.348 1.865l.558 2.471c.107.028.216.04.326.035h.108l.687-.365c.254-.28.357-.667.275-1.037l-.233-1.05a.635.635 0 0 1 .531-.777l2.686-.388a.888.888 0 0 1 1 .73l.132.777c.127.73-.36 1.426-1.089 1.555l-.651.12a2.404 2.404 0 0 0 1.628-.649c.558-.614.477-1.985.283-3.135a1.9 1.9 0 0 0-2.186-1.531z"/>
        <path fill="#0E4E80" d="M115.8 84.457l-.19-.183c.496-.843-.256-1.375-.566-1.554-.31-.179-1.128-.59-1.624.253l-.248-.078-11.524 19.637a4.699 4.699 0 0 0-.643 2.678v.256a.587.587 0 0 0 .775.513l.178-.07a4.697 4.697 0 0 0 2.407-2.02L115.8 84.456z"/>
        <path fill="#0E4E80" d="M115.044 82.716c-.302-.19-1.128-.59-1.624.253l-.248-.078-.31.525 2.628 1.554.31-.525-.19-.182c.496-.832-.256-1.364-.566-1.547z"/>
        <path fill="#E6E6E6" d="M103.082 103.142a.63.63 0 0 1-.22-.862l1.232-2.094a.628.628 0 1 1 1.081.64l-1.228 2.095a.631.631 0 0 1-.865.221z"/>
        <path fill="#F58A07" d="M104.361 100.978a.47.47 0 0 1 .477-.81.47.47 0 0 1-.477.81z"/>
        <path fill="#FFB583" d="M105.044 100.733l-.09.113a.712.712 0 0 0 .14 1.018 3.746 3.746 0 0 0 2.438.711l1.353-.081-1.1-3.16-.575.102a3.487 3.487 0 0 0-2.166 1.297z"/>
        <path fill="#F58A07" d="M114.478 102.408l14.69 14.256 8.048-7.223-17.703-12.877a8.294 8.294 0 0 0-5.035 5.844z"/>
        <path fill="#FFCB30" d="M129.394 116.909c1.217 1.282 3.957.656 6.116-1.399 2.16-2.055 2.923-4.764 1.706-6.05-1.217-1.286-3.954-.66-6.113 1.4-2.159 2.058-2.927 4.743-1.71 6.049z"/>
        <path fill="#000" d="M126.917 49.849H107.02a1.016 1.016 0 0 0-.922.734l-5.016 19.338a.549.549 0 0 0 .543.735h19.888c.433-.023.803-.318.923-.735l5.016-19.338a.549.549 0 0 0-.535-.734z" opacity=".15" style="mix-blend-mode:multiply"/>
        <path fill="#FFF" d="M128.444 51.764h-19.892c-.435.02-.807.316-.927.735l-5.016 19.338a.553.553 0 0 0 .543.738h19.912c.434-.024.805-.32.926-.738l5.016-19.334a.553.553 0 0 0-.562-.739z"/>
        <path fill="#000" d="M107.765 54.729h2.372l.616-2.378h-2.372z"/>
        <path fill="#231F20" d="M110.672 54.729h2.372l.616-2.378h-2.372z"/>
        <path fill="#ED1C24" d="M113.579 54.729h2.372l.62-2.378H114.2z"/>
        <path fill="#FFF200" d="M116.49 54.729h2.372l.616-2.378h-2.372z"/>
        <path fill="#00A651" d="M119.397 54.729h2.372l.617-2.378h-2.373z"/>
        <path fill="#00AEEF" d="M122.304 54.729h2.372l.617-2.378h-2.373z"/>
        <path fill="#2E3192" d="M125.211 54.729h2.372l.617-2.378h-2.372z"/>
        <path fill="#EC008C" d="M107.028 57.577h2.372l.617-2.378h-2.372z"/>
        <path fill="#BE1E2D" d="M109.935 57.577h2.373l.616-2.378h-2.372z"/>
        <path fill="#EF4136" d="M112.842 57.577h2.373l.616-2.378h-2.372z"/>
        <path fill="#F15A29" d="M115.75 57.577h2.372l.616-2.378h-2.372z"/>
        <path fill="#F7941E" d="M118.657 57.577h2.372l.616-2.378h-2.372z"/>
        <path fill="#FBB040" d="M121.568 57.577h2.368l.62-2.378h-2.372z"/>
        <path fill="#F9ED32" d="M124.475 57.577h2.372l.616-2.378h-2.372zM106.288 60.425h2.372l.616-2.378h-2.372z"/>
        <path fill="#D7DF23" d="M109.195 60.425h2.372l.616-2.378h-2.372z"/>
        <path fill="#8DC63F" d="M112.102 60.425h2.372l.62-2.378h-2.372z"/>
        <path fill="#39B54A" d="M115.013 60.425h2.368l.62-2.378h-2.372z"/>
        <path fill="#009444" d="M117.92 60.425h2.372l.617-2.378h-2.373z"/>
        <path fill="#006838" d="M120.827 60.425h2.373l.616-2.378h-2.372z"/>
        <path fill="#2BB673" d="M123.734 60.425h2.373l.616-2.378h-2.372z"/>
        <path fill="#00A79D" d="M105.551 63.27h2.373l.616-2.379h-2.372z"/>
        <path fill="#27AAE1" d="M108.459 63.27h2.372l.616-2.379h-2.372z"/>
        <path fill="#1C75BC" d="M111.366 63.27h2.372l.616-2.379h-2.372z"/>
        <path fill="#2B3990" d="M114.273 63.27h2.372l.616-2.379h-2.372z"/>
        <path fill="#262262" d="M117.18 63.27h2.372l.616-2.379h-2.372z"/>
        <path fill="#662D91" d="M120.087 63.27h2.372l.616-2.379h-2.372z"/>
        <path fill="#92278F" d="M122.998 63.27h2.372l.616-2.379h-2.372z"/>
        <path fill="#9E1F63" d="M104.811 66.117h2.372l.617-2.378h-2.373z"/>
        <path fill="#DA1C5C" d="M107.718 66.117h2.372l.617-2.378h-2.373z"/>
        <path fill="#EE2A7B" d="M110.625 66.117h2.372l.617-2.378h-2.372z"/>
        <path fill="#C2B59B" d="M113.532 66.117h2.373l.62-2.378h-2.372z"/>
        <path fill="#9B8579" d="M116.443 66.117h2.373l.616-2.378h-2.372z"/>
        <path fill="#726658" d="M119.35 66.117h2.373l.616-2.378h-2.372z"/>
        <path fill="#594A42" d="M122.258 66.117h2.372l.616-2.378h-2.372z"/>
        <path fill="#C49A6C" d="M104.07 68.965h2.373l.616-2.377h-2.372z"/>
        <path fill="#A97C50" d="M106.982 68.965h2.372l.616-2.377h-2.372z"/>
        <path fill="#8B5E3C" d="M109.889 68.965h2.372l.616-2.377h-2.372z"/>
        <path fill="#603913" d="M112.796 68.965h2.372l.616-2.377h-2.372z"/>
        <path fill="#3C2415" d="M115.703 68.965h2.372l.617-2.377h-2.373z"/>
        <path fill="url(#a)" d="M17.604 19.382h2.372l.617-2.378H18.22z" transform="translate(101.006 49.583)"/>
        <path fill="url(#b)" d="M20.511 19.382h2.372l.62-2.378h-2.372z" transform="translate(101.006 49.583)"/>
        <path fill="#231F20" d="M103.334 71.814h2.372l.617-2.378h-2.372z"/>
        <path fill="#414042" d="M106.241 71.814h2.373l.616-2.378h-2.372z"/>
        <path fill="#58595B" d="M109.148 71.814h2.373l.616-2.378h-2.372z"/>
        <path fill="#939598" d="M112.056 71.814h2.372l.62-2.378h-2.372z"/>
        <path fill="#BCBEC0" d="M114.967 71.814h2.368l.62-2.378h-2.372z"/>
        <path fill="#3D0075" d="M117.874 71.814h2.372l.616-2.378h-2.372z"/>
        <path fill="#57BBFF" d="M120.78 71.814h2.373l.616-2.378h-2.372z"/>
        <path fill="#000" d="M32.362 59.143H21.179l3 10.88H35.363l-3.001-10.88zm-11.318-4.79l-2.21-8.02H7.655l3 10.914h11.183l-.794-2.895zm13.229-.086l-.775-2.876-2.21-8.02H20.11l3 10.9 11.164-.004z" opacity=".15" style="mix-blend-mode:multiply"/>
        <path fill="#E6E7E8" d="M94.954 13.69H79.748a.745.745 0 0 0-.744.746v9.675a.746.746 0 0 0 .387.641v.035h.066c.096.045.2.07.306.07H94.97a.743.743 0 0 0 .744-.746v-9.675a.747.747 0 0 0-.76-.746z" opacity=".15" style="mix-blend-mode:multiply"/>
        <path fill="#FFF" d="M80.519 12.26h15.884v10.996H80.519z"/>
        <path fill="#0E4E80" d="M96.101 12.155h-15.21a.745.745 0 0 0-.744.746v9.675c0 .412.333.746.744.746h15.21a.743.743 0 0 0 .745-.746v-9.675a.747.747 0 0 0-.745-.746zm0 10.421h-15.21v-9.675h15.21v9.675z"/>
        <path fill="#0E4E80" d="M95.194 22.592l-8.457-6.687a.387.387 0 0 0-.423-.023l-5.613 3.407a.388.388 0 1 0 .388.637l5.392-3.275 8.256 6.528c.066.05.146.077.229.077a.387.387 0 0 0 .294-.14.39.39 0 0 0-.066-.524z"/>
        <path fill="#0E4E80" d="M96.318 18.306l-2.19-1.605a.387.387 0 0 0-.422 0l-3.489 2.293a.39.39 0 0 0 .202.688.387.387 0 0 0 .205-.063l3.276-2.152 1.977 1.45a.387.387 0 0 0 .441-.6v-.01z"/>
        <path fill="#FFC53A" d="M90.71 13.791c-.799 0-1.446.65-1.446 1.45 0 .8.647 1.449 1.446 1.449.798 0 1.445-.649 1.445-1.45a1.451 1.451 0 0 0-1.445-1.449zM22.276 71.39l11.179-.008-2.996-10.899-11.183.012z"/>
        <path fill="#CFB814" d="M33.455 71.382l-.79-2.875-1.675 2.875z"/>
        <path fill="#146EB4" d="M8.74 58.587l11.183-.011-3-10.9-11.182.012z"/>
        <path fill="#231F20" d="M19.923 58.576l-.79-2.876-1.675 2.88z" opacity=".2" style="mix-blend-mode:multiply"/>
        <path fill="#F58A07" d="M21.187 55.627l11.179-.012-3-10.899-11.18.012z"/>
        <path fill="#231F20" d="M32.366 55.615l-.79-2.875-1.675 2.875z" opacity=".2" style="mix-blend-mode:multiply"/>
        <ellipse cx="32.486" cy="19.651" fill="#FFC53A" rx="3.047" ry="3.054"/>
        <path fill="#FFF" d="M32.49 16.597a3.05 3.05 0 0 0-3.047 3.054 3.05 3.05 0 0 0 3.047 3.054 3.05 3.05 0 0 0 3.047-3.054 3.05 3.05 0 0 0-3.047-3.054zm0 5.167a2.109 2.109 0 0 1-1.951-1.302c-.328-.79-.148-1.7.455-2.305a2.105 2.105 0 0 1 2.298-.46 2.114 2.114 0 0 1-.802 4.067z"/>
        <ellipse cx="40.006" cy="19.651" fill="#F58A07" rx="3.047" ry="3.054"/>
        <path fill="#FFF" d="M40.01 16.597a3.05 3.05 0 0 0-3.047 3.054 3.05 3.05 0 0 0 3.047 3.054 3.05 3.05 0 0 0 3.046-3.054 3.05 3.05 0 0 0-3.046-3.054zm0 5.167a2.109 2.109 0 0 1-1.951-1.302c-.328-.79-.148-1.7.454-2.305a2.105 2.105 0 0 1 2.299-.46 2.114 2.114 0 0 1-.802 4.067z"/>
        <ellipse cx="47.526" cy="19.651" fill="#146EB4" rx="3.047" ry="3.054" transform="rotate(-9.24 47.526 19.65)"/>
        <path fill="#FFF" d="M47.53 16.597a3.05 3.05 0 0 0-3.047 3.054 3.05 3.05 0 0 0 3.046 3.054 3.05 3.05 0 0 0 3.047-3.054 3.05 3.05 0 0 0-3.047-3.054zm0 5.167a2.109 2.109 0 0 1-1.952-1.302c-.327-.79-.148-1.7.455-2.305a2.105 2.105 0 0 1 2.298-.46 2.114 2.114 0 0 1-.802 4.067z"/>
        <path fill="#F58A07" d="M89.81 70.376H47.091c-.976 0-2.008-.94-2.298-2.102-1.75-6.979-3.5-13.95-5.252-20.916-.291-1.165.503-2.102 1.771-2.102h55.351c1.272 0 2.024.944 1.683 2.102-2.05 6.979-4.097 13.956-6.144 20.931-.341 1.147-1.411 2.087-2.392 2.087z"/>
        <path fill="#FFC53A" d="M57.514 54.06c-.263-2.956-3.015-5.35-6.143-5.35-3.128 0-5.19 2.394-4.613 5.35.146.702.408 1.375.775 1.99h-.054a164.442 164.442 0 0 1 2.938 5.308h-.077a.225.225 0 0 0-.214.28c.078.43.117.648.19 1.076.025.153.152.269.306.28h.23c.15.89.224 1.336.387 2.226.248 1.453 1.469 2.63 2.713 2.63h.341c1.26 0 2.148-1.165 1.98-2.63-.1-.89-.15-1.337-.255-2.227h.237a.232.232 0 0 0 .224-.28l-.116-1.076a.314.314 0 0 0-.29-.28c.445-2.094.69-3.143 1.216-5.237.21-.665.287-1.365.225-2.06z"/>
        <path fill="#FFF" d="M54.282 60.83h-.031a.31.31 0 0 1-.26-.304V54.22h-3.682a372.094 372.094 0 0 1 1.744 6.31.23.23 0 0 1-.179.3.306.306 0 0 1-.317-.238 373.075 373.075 0 0 0-1.865-6.605.253.253 0 0 1 .031-.214.232.232 0 0 1 .19-.093h4.322a.314.314 0 0 1 .306.307 341.57 341.57 0 0 0-.046 6.605.222.222 0 0 1-.213.237zM50.405 61.346l.02.031h-.078a.22.22 0 0 0-.213.264c.078.443.116.665.198 1.108.028.146.15.254.298.264h5.644a.232.232 0 0 0 .225-.28l-.117-1.076a.314.314 0 0 0-.29-.28v-.031h-5.687zM51.7 66.42c1.795-.582 2.713-.874 4.562-1.457l-.038-.318a357.27 357.27 0 0 0-4.683 1.492c.05.097.1.194.16.283zM51.161 64.77c0 .127.031.19.055.318 1.938-.614 2.895-.925 4.883-1.554l-.038-.32c-1.993.63-2.973.941-4.9 1.555zM63.487 53.672a1.327 1.327 0 0 1-1.321-1.255c0-.474-.031-.715-.05-1.189a1.222 1.222 0 0 1 1.259-1.259 1.32 1.32 0 0 1 1.337 1.26v1.188a1.233 1.233 0 0 1-1.225 1.255z"/>
        <path fill="#AB6400" d="M67.046 53.672a1.273 1.273 0 0 1-1.28-1.255v-1.189a1.28 1.28 0 0 1 1.303-1.259 1.258 1.258 0 0 1 1.295 1.26l-.031 1.18a1.284 1.284 0 0 1-1.287 1.263z"/>
        <path fill="#FFF" d="M70.6 53.672a1.22 1.22 0 0 1-1.236-1.255l.035-1.189a1.327 1.327 0 0 1 1.345-1.259 1.212 1.212 0 0 1 1.252 1.26l-.062 1.188a1.343 1.343 0 0 1-1.334 1.255z"/>
        <path fill="#AB6400" d="M74.155 53.672a1.161 1.161 0 0 1-1.19-1.255c.03-.474.046-.715.073-1.189a1.389 1.389 0 0 1 1.392-1.259 1.161 1.161 0 0 1 1.205 1.26c-.042.473-.062.714-.1 1.188a1.404 1.404 0 0 1-1.38 1.255z"/>
        <path fill="#FFF" d="M77.713 53.672a1.123 1.123 0 0 1-1.163-1.255l.116-1.189c.096-.72.71-1.26 1.435-1.259a1.115 1.115 0 0 1 1.162 1.26l-.147 1.188a1.463 1.463 0 0 1-1.403 1.255z"/>
        <path fill="#AB6400" d="M81.267 53.672a1.076 1.076 0 0 1-1.1-1.255l.155-1.189a1.513 1.513 0 0 1 1.48-1.259 1.069 1.069 0 0 1 1.117 1.26l-.167 1.18a1.528 1.528 0 0 1-1.485 1.263z"/>
        <path fill="#FFF" d="M84.826 53.672a1.038 1.038 0 0 1-1.062-1.255c.081-.474.12-.715.197-1.189a1.582 1.582 0 0 1 1.524-1.259 1.026 1.026 0 0 1 1.073 1.26l-.225 1.188a1.602 1.602 0 0 1-1.507 1.255z"/>
        <path fill="#AB6400" d="M88.38 53.672a.999.999 0 0 1-1.015-1.255c.096-.474.143-.715.24-1.189.177-.72.81-1.235 1.55-1.259a.995.995 0 0 1 1.031 1.26l-.271 1.188a1.664 1.664 0 0 1-1.535 1.255z"/>
        <path fill="#FFF" d="M89.248 55.44h-26.95v-.276h27.024a2.42 2.42 0 0 0-.074.276zM88.977 56.645h-26.63v-.276h26.704c-.04.108-.05.167-.074.276zM88.702 57.849h-26.3v-.28H88.76c-.02.117-.031.171-.058.28zM88.43 59.057H62.46v-.28h26.052a1.524 1.524 0 0 0-.082.28zM88.155 60.262H62.507v-.28h25.726l-.078.28zM87.884 61.466H62.557v-.275h25.4l-.073.275zM87.613 62.671H62.596v-.276h25.079c-.028.117-.04.167-.062.276zM87.337 63.875H62.662V63.6h24.741zM87.066 65.084h-24.35v-.28h24.42c-.031.113-.047.167-.07.28z"/>
        <rect width="11.245" height="11.272" x="108.075" y="13.111" fill="#000" opacity=".15" rx="2.257" style="mix-blend-mode:multiply"/>
        <rect width="11.245" height="11.272" x="109.792" y="11.58" fill="#FFC53A" rx="2.257"/>
        <path fill="#FFF" d="M118.102 13.469h-6.379v2.102h1.003v-1.05h2.21v5.367h-1.05v1.076H116.985v-1.076h-1.047v-5.366h2.163v1.049h1.004V13.469z"/>
        <ellipse cx="68.732" cy="18.749" fill="#E6E7E8" opacity=".15" rx="5.62" ry="5.634" style="mix-blend-mode:multiply"/>
        <ellipse cx="69.495" cy="17.214" fill="#0E4E80" rx="5.62" ry="5.634"/>
        <path fill="#FFF" d="M69.323 15.163l1.239-1.24 2.24 2.24-1.24 1.239zM67.577 16.2l-1.384 3.33.202.466 1.938-1.942v-.02a.295.295 0 1 1 .589 0 .291.291 0 0 1-.283.292L66.7 20.268l.496.237 3.326-1.387.643-1.702-1.876-1.876-1.713.66z"/>
        <path fill="#0E4E80" d="M58.313 1.132h22.048v1H58.313z"/>
        <path fill="#41597C" d="M58.964 1.268a.543.543 0 1 1-1.087.002.543.543 0 0 1 1.087-.002z"/>
        <path fill="#0E4E80" d="M80.283 1.132h22.048v1H80.283z"/>
        <ellipse cx="102.222" cy="1.268" fill="#0E4E80" rx="1" ry="1"/>
        <path fill="#0E4E80" d="M56.782 20.595l-.388-.031a23.266 23.266 0 0 1 3.582-9.714C65.243 2.826 73.93 1.136 80.29 1.136c6.736 0 15.954 1.636 21.594 9.419a21.53 21.53 0 0 1 3.876 9.434l-.388.035a21.087 21.087 0 0 0-3.806-9.263c-5.55-7.643-14.637-9.244-21.28-9.244-6.268 0-14.827 1.651-20.001 9.539a22.76 22.76 0 0 0-3.504 9.539z"/>
        <path fill="#FFF" d="M79.651.514h1.419v1.422h-1.419z"/>
        <path fill="#0E4E80" d="M81.07.514V1.94H79.65V.514h1.419zm.387-.388h-2.194v2.18h2.171V.126h.023z"/>
        <path fill="#FFF" d="M55.867 19.693h1.419v1.422h-1.419z"/>
        <path fill="#0E4E80" d="M57.29 19.693v1.422h-1.42v-1.422h1.42zm.387-.388h-2.17v2.18h2.17v-2.18z"/>
        <path fill="#FFF" d="M104.85 19.693h1.419v1.422h-1.419z"/>
        <path fill="#0E4E80" d="M106.268 19.693v1.422h-1.422v-1.422h1.422zm.384-.388h-2.194v2.18h2.171v-2.18h.023z"/>
    </g>
</svg>
