<svg xmlns="http://www.w3.org/2000/svg" xmlns:xlink="http://www.w3.org/1999/xlink" width="394" height="404" viewBox="0 0 394 404">
    <defs>
        <path id="a" d="M68.175 26.996a17.469 17.469 0 0 1-5.347-2.098c-3.449-2.066-4.623-6.641-2.367-9.97.076-.116.16-.229.245-.341 1.89-2.497 2.227-5.838.68-8.56l-.954-1.675c-2.32-4.077-7.694-5.186-11.437-2.36L47.46 3.158c-2.5 1.885-3.51 5.089-2.762 8.128.032.137.064.273.088.41.752 3.952-2.134 7.686-6.118 8.217-1.91.257-.624-3.698-2.513-4.076-10.096-2.457-16.174-3.686-18.234-3.686-3.089 0-4.01 4.246-5.283 10.118L8.916 40.33c.152.072.305.128.462.16.261.053.535.053.816-.007 1.97-.527 3.907-.58 5.76-.201a12.732 12.732 0 0 1 7.566 4.804l1.098 1.455A12.613 12.613 0 0 1 26.909 56.7a12.611 12.611 0 0 1-6.122 8.422l-1.6.913a12.613 12.613 0 0 1-8.788 1.387c-.91-.187.502-5.14-.349-5.526-.888-.402-.364-.38-1.134-.974-.77-.594-3.494-2.384-3.67-2.371L.18 82.678a6.517 6.517 0 0 0 5.065 7.694l16.105 3.32 1.873 1.122c3.45 2.067 4.623 6.637 2.372 9.97-.08.117-.161.233-.25.346-1.889 2.492-2.23 5.825-.683 8.546l.96 1.685c2.316 4.076 7.695 5.186 11.434 2.36l1.548-1.17c2.496-1.886 3.505-5.086 2.753-8.12a5.1 5.1 0 0 1-.092-.415c-.752-3.952 2.134-7.686 6.122-8.217l2.163-.293 16.346 3.373a6.27 6.27 0 0 0 7.405-4.873l12.554-60.891a6.27 6.27 0 0 0-4.872-7.405l-12.808-2.714z"/>
        <path id="b" d="M85.003 25.69l-12.808-2.714a17.469 17.469 0 0 1-5.347-2.098c-3.449-2.066-4.623-6.641-2.367-9.97.076-.116.16-.229.245-.341 1.89-2.497 2.227-5.838.68-8.56L64.451.332c-2.32-4.076-7.694-5.185-11.437-2.36L51.48-.861c-2.5 1.885-3.51 5.089-2.762 8.128.032.137.064.273.088.41.752 3.952-2.134 7.686-6.118 8.217-1.91.257-3.851.197-5.74-.18l-12.595-2.53a6.51 6.51 0 0 0-7.695 5.066L12.936 36.31c.152.072.305.128.462.16.261.053.535.053.816-.007.052-.012.109-.025.16-.04a12.253 12.253 0 0 1 5.6-.161 12.732 12.732 0 0 1 7.566 4.804l1.098 1.455a12.613 12.613 0 0 1 2.291 10.158 12.611 12.611 0 0 1-6.122 8.422l-1.6.913a12.613 12.613 0 0 1-8.788 1.387 12.674 12.674 0 0 1-5.154-2.364c-.048-.036-.096-.072-.144-.104a1.861 1.861 0 0 0-.676-.29 2.056 2.056 0 0 0-.522-.032L4.2 78.658a6.517 6.517 0 0 0 5.065 7.694l16.105 3.32 1.873 1.122c3.45 2.067 4.623 6.637 2.372 9.97-.08.117-.161.233-.25.346-1.889 2.492-2.23 5.825-.683 8.546l.96 1.685c2.316 4.076 7.695 5.186 11.434 2.36l1.548-1.17c2.496-1.886 3.505-5.086 2.753-8.12a5.1 5.1 0 0 1-.092-.415c-.752-3.952 2.135-7.686 6.122-8.217l2.163-.293 16.346 3.373a6.27 6.27 0 0 0 7.405-4.873l12.554-60.891a6.27 6.27 0 0 0-4.872-7.405"/>
        <path id="d" d="M96.124 26.017c-4.696 0-4.704 4.463-7.293 6.224-.12.076-.237.156-.357.229-3.45 2.07-7.952.66-9.833-2.895l-.527-.997L75.167 9.11a6.27 6.27 0 0 0-7.135-5.262L8.894 8.4C1.171 9.974-.309 14.15.65 19.983l9.964 61.785a6.267 6.267 0 0 0 7.135 5.258c15.562-2.346 23.668-3.595 24.318-3.748a69.727 69.727 0 0 1-2.317-3.741c-2.874-4.253-6.76-5.633-4.06-9.846l1.034-1.616c1.961-3.055 6.503-7.383 10.093-7.926 3.594-.547 7.656-.387 10.434 1.953l1.475 1.238c3.823 3.224 4.63 10.63 3.14 15.542-.085.33-.097.494-.093.655l21.237-3.158c3.554-.542 6.557-2.466 5.464-8.304-.729-3.892-1.622-8.597-2.68-14.114v-2.949c.744-3.96 3.227-6.544 7.134-5.576.153.04 3.05.805 3.196.845 2.99.937 6.741-1.11 8.76-3.498l1.185-1.411c3.023-3.59 1.33-10.906-2.617-13.439-2.632-1.688-5.075-2.327-7.328-1.916z"/>
        <path id="e" d="M102.386 28.227l-1.628-1.046c-2.633-1.688-5.982-1.531-8.57.23-.121.076-.238.156-.358.229-3.45 2.07-7.952.659-9.833-2.895l-.527-.997L78.523 4.28a6.27 6.27 0 0 0-7.135-5.262L9.918 8.332a6.265 6.265 0 0 0-5.259 7.131l9.31 61.474a6.267 6.267 0 0 0 7.136 5.259l18.516-2.802a1.822 1.822 0 0 0-.2-.47c-.025-.04-.053-.09-.085-.13-2.874-4.252-2.99-9.72-.29-13.933l1.034-1.616a12.63 12.63 0 0 1 8.735-5.664 12.612 12.612 0 0 1 10.022 2.826l1.476 1.238c3.823 3.224 5.33 8.478 3.839 13.391-.016.048-.028.1-.04.153a1.844 1.844 0 0 0-.053.502l18.275-2.77a6.518 6.518 0 0 0 5.464-7.417l-2.316-15.26.213-1.113c.744-3.96 4.64-6.637 8.547-5.668.152.04.301.084.446.124a7.773 7.773 0 0 0 8.261-2.404l1.186-1.41c3.023-3.59 2.199-9.014-1.749-11.546"/>
        <path id="g" d="M72.077 43.073c2.397-1.305 5.013-1.582 8.036-1.115 3.524.545 5.802 2.76 7.364 4.93.505-3.528.644-3.234 1.612-9.102.318-1.925.91-7.049.948-9.252.028-1.658.028-3.668 0-6.03.892-3.345-2.582-.342-5.927-1.234L26.754 1.002c-5.61-1.588-8.585 1.737-9.477 5.082L11.03 29.768c.39.109 5.13-1.234 7.043-1.234 3.071 0 6.777 1.472 9.024 5.147 2.248 3.676 2.65 7.528 1.717 11.038-.932 3.51-4.418 8.723-7.67 10.335l-1.652.82a12.632 12.632 0 0 1-8.852.889c-1.842-.49-.27-4.359-1.004-6.119-.838-2.01-4.148-2.037-4.177-2.042-.02-.003-1.646 6.575-4.881 19.734-.93 3.473 1.408 6.675 4.881 7.6 10.95 3.257 17.446 5.116 19.488 5.576 1.003-1.088 1.417-2.033 2.15-3.199-1.037-1.471-.837-3.778-.343-5.559.74-2.666 2.982-5.82 7.002-7.352s6.03-.688 8.04-.688c2.01 0 5.559 2.778 7.17 6.03l.87 2.01c2.22 4.483 1.294 10.52-2.03 14.424-.214.27-.29.418-.35.567l17.86 4.752c3.478.924 8.848 2.329 10.856-6.52l1.26-15.249a1.81 1.81 0 0 0-.442.004c-2.046.394-4.008.33-5.845-.16-1.975-.526-3.186-3.81-3.632-9.851-2.022-3.015-2.37-1.94-2.196-7.709.174-5.769 4.364-8.633 6.76-9.939z"/>
        <path id="h" d="M72.672 40.159c2.75-1.359 6.65-1.137 9.609-.345a12.663 12.663 0 0 1 5.009 2.65c.265.209.707.45.84.51l4.446-18.054a6.27 6.27 0 0 0-4.446-7.67L28.054 1.258a6.273 6.273 0 0 0-7.67 4.446L15.05 25.748c.39.109.635.125.88.093 2.066-.382 4.048-.314 5.901.18 2.931.78 5.464 2.581 7.136 5.074l1.073 1.608a12.617 12.617 0 0 1-4.876 18.331l-1.652.82a12.632 12.632 0 0 1-8.852.889 12.723 12.723 0 0 1-5.013-2.657c-.334-.262-.555-.37-.792-.435-.035-.008-1.501 5.292-4.398 15.9a6.506 6.506 0 0 0 4.615 7.963l17.865 4.756a1.94 1.94 0 0 0 0-.507c-.969-5.197 1.11-10.259 5.266-13.04l1.596-1.07A12.62 12.62 0 0 1 52.13 68.53l.857 1.73c2.219 4.481 1.507 9.9-1.817 13.804-.213.27-.29.418-.35.567l17.86 4.751a6.512 6.512 0 0 0 7.969-4.619l4.804-18.054a1.81 1.81 0 0 0-.443.004c-2.046.394-4.008.33-5.845-.16a12.627 12.627 0 0 1-7.24-5.17L66.9 59.85a12.626 12.626 0 0 1-1.712-10.271c.936-3.51 2.58-6.988 5.836-8.6l1.648-.82z"/>
        <path id="j" d="M31.363.014a6.27 6.27 0 0 0-6.666 5.84l-1.06 16.06a7.378 7.378 0 0 1-.58 2.42c-1.576 3.703-5.945 5.488-9.555 3.703-.141-.068-.278-.145-.418-.22a7.754 7.754 0 0 0-8.58.578l-1.466 1.122c-3.719 2.854-4.08 8.333-.768 11.65l1.302 1.306a7.766 7.766 0 0 0 8.43 1.705c.149-.06.298-.113.446-.165 3.811-1.295 7.912 1.049 8.985 4.92.225.808.31 1.649.258 2.48l-1.074 16.238a6.507 6.507 0 0 0 6.066 6.922l18.444 1.218c-.008-.157 3.113-3.43 3.916-3.43-.803-2.01-4.905-7.344-1.367-10.877l1.367-1.359a12.632 12.632 0 0 1 9.748-3.662c3.622.241 6.971 2.03 9.182 4.912l1.17 1.528c3.047 3.968 3.393 9.427.884 13.897a2.15 2.15 0 0 0-.237.62l18.685 1.237a6.268 6.268 0 0 0 6.67-5.84l4.096-62.038A6.267 6.267 0 0 0 93.4 4.114L31.363.014z"/>
        <path id="k" d="M96.696-.424l-62.037-4.1a6.27 6.27 0 0 0-6.665 5.84l-1.062 16.06a7.378 7.378 0 0 1-.579 2.42c-1.576 3.703-5.945 5.488-9.555 3.703-.141-.068-.278-.145-.418-.221a7.754 7.754 0 0 0-8.58.579l-1.466 1.121c-3.719 2.855-4.08 8.334-.768 11.65l1.302 1.307a7.766 7.766 0 0 0 8.43 1.705c.149-.06.298-.113.446-.165 3.811-1.295 7.912 1.049 8.985 4.92.225.808.31 1.648.258 2.48l-1.074 16.238a6.507 6.507 0 0 0 6.066 6.922l18.444 1.218a1.903 1.903 0 0 0-.092-.494l-.056-.15c-1.902-4.767-.84-10.13 2.697-13.663l1.367-1.359a12.632 12.632 0 0 1 9.748-3.662c3.622.241 6.971 2.03 9.182 4.912l1.17 1.528c3.047 3.968 3.393 9.427.884 13.897a1.863 1.863 0 0 0-.237.62l18.685 1.237a6.268 6.268 0 0 0 6.67-5.84l4.096-62.038a6.267 6.267 0 0 0-5.841-6.665"/>
        <path id="m" d="M71.553 31.187c4.02-4.02 8.04-2.753 9.58-2.208L73.67 11.087c-1.407-3.308-8.896-2.32-12.204-.91L49.62 15.15a17.482 17.482 0 0 1-5.588 1.319c-4.012.265-7.582-2.822-7.63-6.842 0-.14 0-.282.008-.422.132-3.128-1.492-6.066-4.318-7.421L30.355.952c-4.229-2.03-9.278.12-10.741 4.578l-.599 1.822c-.98 2.978.012 6.19 2.364 8.265.104.092.205.185.305.281 2.87 2.818 2.625 7.534-.35 10.243l-.522.479a13.204 13.204 0 0 1-3.646 2.36L4.499 34.458a6.267 6.267 0 0 0-3.309 8.22l24.378 57.194a6.269 6.269 0 0 0 8.22 3.312l13.347-5.688c1.33-.571 2.746-.909 4.185-1.001 4.012-.27 7.586 2.818 7.63 6.842 0 .137 0 .277-.008.418-.129 3.132 1.491 6.066 4.317 7.421l1.741.836c4.225 2.03 9.274-.12 10.742-4.583l.603-1.84c.977-2.972-.016-6.172-2.364-8.238-.105-.096-.21-.189-.31-.29-2.87-2.817-2.625-7.533.346-10.242a12.83 12.83 0 0 1 3.622-2.328l13.118-5.588a6.513 6.513 0 0 0 3.437-8.546L86.97 53.413a1.958 1.958 0 0 0-1.214.611c-1.319 1.556-2.883 2.706-4.623 3.45a12.704 12.704 0 0 1-8.949.357l5.399-3.807c-3.45-1.134-8.04-4.747-10.05-8.767-2.01-4.02 0-10.05 4.02-14.07z"/>
        <path id="n" d="M65.555 34.905l.8-1.664a12.622 12.622 0 0 1 6.428-6.147 12.715 12.715 0 0 1 5.584-.993c.06.004.12.004.18.004a1.884 1.884 0 0 0 1.227-.466l-7.22-16.933A6.509 6.509 0 0 0 64.01 5.27l-11.847 4.973a17.482 17.482 0 0 1-5.588 1.319c-4.012.265-7.582-2.822-7.63-6.842 0-.141 0-.282.008-.422.133-3.128-1.491-6.067-4.317-7.421L32.9-3.957c-4.23-2.03-9.278.121-10.742 4.58l-.599 1.82c-.98 2.98.012 6.191 2.364 8.265.105.093.205.185.306.282 2.87 2.818 2.625 7.533-.35 10.243l-.523.478a13.204 13.204 0 0 1-3.646 2.36l-12.667 5.48a6.267 6.267 0 0 0-3.308 8.22l24.377 57.193a6.269 6.269 0 0 0 8.221 3.313l13.347-5.688c1.33-.571 2.745-.909 4.184-1.001 4.012-.27 7.586 2.818 7.63 6.842 0 .136 0 .277-.008.418-.128 3.131 1.492 6.066 4.318 7.42l1.74.837c4.226 2.03 9.275-.12 10.742-4.583l.603-1.841c.977-2.97-.016-6.17-2.364-8.237-.104-.097-.209-.19-.31-.29-2.87-2.818-2.624-7.533.347-10.243a12.83 12.83 0 0 1 3.622-2.327L93.3 73.996a6.513 6.513 0 0 0 3.437-8.547l-7.224-16.944a1.958 1.958 0 0 0-1.214.61c-.036.041-.072.085-.109.121a12.197 12.197 0 0 1-4.514 3.33 12.704 12.704 0 0 1-8.949.357l-1.736-.567a12.621 12.621 0 0 1-7.437-17.451"/>
        <path id="p" d="M105.552 53.475c-1.785-2.54-4.924-3.823-7.951-3.132-.117.024-.23.044-.346.068-4.08.74-15.945-.378-16.355-4.506a6.733 6.733 0 0 1 .153-2.215L84.9 27.83a6.515 6.515 0 0 0-4.796-7.863l-6.09-7.048c-1.808-.844-3.246-1.35-6.098-1.749.18 1.563-.676 6.466-1.926 9.585-1.25 3.119-4.047 7.825-10.98 7.825-6.933 0-7.835-4.873-11.365-5.725-3.53-.856-4.827 6.427-6.511 3.207l-.897-1.709c-2.32-4.43-1.724-9.86 1.512-13.84.24-.322.33-.523.386-.716-.835-4.084-3.72-6.795-8.656-8.133C22.077-.344 16.702-2.044 14.395 9.37L.465 68.97c-.815 3.365 1.26 7.59 4.625 8.406L67.916 93.11c7.076 1.524 9.255-1.147 10.736-10.49l2.248-8.698c.177-.727 1.287-6.165 1.697-6.788 2.219-3.433 7.45-2.722 10.726-.278.117.085.237.181.35.274 2.4 2.014 5.83 2.267 8.611.808l1.532-.804c4.156-2.175 6.177-8.732 3.48-12.567l-1.744-1.093z"/>
        <path id="q" d="M106.495 52.827l-1.06-1.511c-1.786-2.541-4.925-3.823-7.953-3.132-.116.024-.229.044-.345.068-4.08.74-7.787-2.239-8.197-6.367a6.733 6.733 0 0 1 .153-2.215l3.847-15.86a6.515 6.515 0 0 0-4.796-7.863L70.17 11.59c-.04.2-.052.422-.016.659.008.052.016.108.028.157 1.058 5.017-.896 10.118-4.984 12.992l-1.588 1.114a12.616 12.616 0 0 1-18.436-4.47l-.897-1.709c-2.32-4.43-1.724-9.86 1.512-13.84.032-.041.068-.085.096-.13.145-.192.233-.393.29-.586L27.96 1.359a6.265 6.265 0 0 0-7.566 4.615L5.745 66.394a6.269 6.269 0 0 0 4.615 7.57L70.781 88.61a6.271 6.271 0 0 0 7.57-4.611l3.9-16.097a6.5 6.5 0 0 1 .88-2.042v-.004c2.219-3.429 6.842-4.406 10.118-1.962.117.085.238.181.35.274 2.4 2.014 5.83 2.267 8.611.808l1.532-.804c4.156-2.175 5.45-7.51 2.753-11.345"/>
        <path id="s" d="M63.293 32.87c1.421-3.601 3.844-7.99 6.704-9.141 4.02-1.619 8.01-1.415 9.855-.949.325.068.474.076.619.072L76.775 6.424c-.732-3.522-4.519-6.762-8.04-6.03l-19.742 4.02c.049.193 5.671 8.04 0 19.315l-.956 1.684a12.625 12.625 0 0 1-8.414 6.135 12.634 12.634 0 0 1-10.163-2.28L27.99 28.16a12.583 12.583 0 0 1-4.631-13.182c.08-.418.076-.639.044-.836l-15.174-1.12C.64 14.977-.105 19.26.626 22.781L4.96 43.184c.39-.076 2.523-1.385 5.486-3.395 2.963-2.01 7.781-2.496 10.754-1.206 2.972 1.29 6.789 4.256 7.578 9.77.788 5.514-1.213 9.94-4.092 12.493-2.878 2.552-9.248 2.552-11.57 1.67-.434-.097-3.596-1.061-3.849-1.005-.032.005 1.7 8.056 5.197 24.151.703 3.389 3.35 5.297 6.736 4.593l63.268-13.332c3.389-.704 6.377-6.18 4.367-10.2-1.34-2.68-3.578-7.414-6.712-14.204a2.14 2.14 0 0 0-.394.201c-1.653 1.275-3.434 2.095-5.299 2.477a12.59 12.59 0 0 1-8.788-1.375l-1.604-.909a12.609 12.609 0 0 1-6.13-8.418c-.74-3.55.092-7.256 2.275-10.154l1.11-1.471z"/>
        <path id="t" d="M65.838 29.244l1.11-1.471a12.602 12.602 0 0 1 7.517-4.764 12.789 12.789 0 0 1 5.668.125 2.012 2.012 0 0 0 .62.072L77.041 5.321A6.51 6.51 0 0 0 69.344.268l-18.11 3.759c.048.192.128.397.269.598.028.049.06.089.092.13 3.104 4.083 3.518 9.527 1.053 13.876l-.956 1.685a12.625 12.625 0 0 1-8.414 6.134 12.634 12.634 0 0 1-10.163-2.28l-1.471-1.109A12.583 12.583 0 0 1 27.013 9.88c.016-.06.028-.12.04-.177.04-.241.036-.463.004-.66l-18.11 3.755a6.514 6.514 0 0 0-5.054 7.699l3.76 18.118c.04-.008.08-.012.124-.02.265-.056.522-.173.764-.342l.104-.08a12.37 12.37 0 0 1 5.11-2.372 12.637 12.637 0 0 1 8.811 1.395l1.604.908a12.607 12.607 0 0 1 6.135 8.414 12.622 12.622 0 0 1-2.28 10.159l-1.045 1.387a12.861 12.861 0 0 1-7.638 4.864 12.37 12.37 0 0 1-5.587-.137 2.457 2.457 0 0 0-.165-.04 1.86 1.86 0 0 0-.788 0 1.36 1.36 0 0 0-.137.032l3.811 18.352a6.265 6.265 0 0 0 7.405 4.864l60.88-12.63a6.267 6.267 0 0 0 4.864-7.41l-3.848-18.536a2.14 2.14 0 0 0-.394.2c-.048.037-.1.073-.148.11a12.565 12.565 0 0 1-5.15 2.367 12.59 12.59 0 0 1-8.788-1.375l-1.604-.908a12.609 12.609 0 0 1-6.13-8.418c-.74-3.55.092-7.256 2.275-10.155"/>
    </defs>
    <g fill="none" fill-rule="evenodd">
        <path fill="#0E4E80" d="M250.008 224.598c-.834-3.43-2.264-5.07-5.138-6.305-.13-.054-1.639 6.189-1.763 6.127-3.605-1.78 1.106-5.938 0-8.27-1.106-2.33 1.367-6.037 2.473-7.488.737-.967 5.38-4.883 13.925-11.748 2.601-2.284 2.601-5.878-.665-10.588-2.177-3.14-16.736-16.902-43.675-41.286a6.265 6.265 0 0 0-8.845-.578c-29.825 22.165-45.85 34.381-48.072 36.646-3.333 3.398-3.39 8.606-1.104 11.21l14.934 16.344c1.653-4.407 6.561-10.94 11.56-10.939l1.921-.001c3.631.004 7.373 1.272 9.811 4.855 1.234 1.813 2.492 3.916 1.853 8.63-.203 1.496-2.807 8.68-13.177 9.961 1.497 2.06 6.797 7.961 15.899 17.702 2.375 2.703 7.395 3.2 10.097.83l10.307-9.131 2.38-1.834c3.738-1.509 7.34-1.279 8.633 2.54-.74-1.26.092.293.135.443.822 3.019 4.232 6.504 7.33 6.91l1.831.242c4.65.61 9.349-3.745 9.35-8.435v-5.837z"/>
        <path fill="#146EB4" d="M249.724 226.559v-1.935c-.001-3.128-1.942-5.861-4.816-7.096a6.803 6.803 0 0 1-.386-.178c-3.605-1.78-4.843-6.335-2.867-9.835l.553-.982 14.803-12.988a6.27 6.27 0 0 0 .579-8.844l-41.01-46.73a6.265 6.265 0 0 0-8.845-.58L161.008 178.4a6.263 6.263 0 0 0-.579 8.844l12.352 14.076a1.92 1.92 0 0 0 .347-.563c2.027-4.715 6.573-7.76 11.572-7.76l1.921-.001a12.63 12.63 0 0 1 9.485 4.3 12.608 12.608 0 0 1 3.028 9.958l-.253 1.915c-.647 4.956-4.256 9.06-9.194 10.452a1.91 1.91 0 0 0-.155.05c-.17.059-.319.138-.45.226l12.19 13.893a6.514 6.514 0 0 0 9.19.6l11.606-10.187 1.047-.42c3.737-1.509 8.094.323 9.387 4.142.045.145.092.293.135.443a7.761 7.761 0 0 0 6.48 5.652l1.83.242c4.65.61 8.775-3.013 8.777-7.703"/>
        <g transform="translate(90.908 4.167)">
            <use fill="#4C7FB5" xlink:href="#a"/>
            <mask id="c" fill="#fff">
                <use xlink:href="#b"/>
            </mask>
            <use fill="#6EB4FF" xlink:href="#b"/>
            <g mask="url(#c)">
                <path fill="#146EB4" d="M33.895 69.248l-13.174.53-3.425 45.83 30.862 7.26L63.132 79.92l-15.01-7.324z"/>
                <path fill="#0E4E80" d="M32.85 68.422l-2.681 9.591 6.83-.361-1.994-6.268zM48.336 71.917l-1.07 10.268-5.764-3.26 3.469-4.302z"/>
                <path fill="#FEC6BC" d="M33.718 69.996l4.908 11.79 8.39-8.663z"/>
                <path fill="#FED7D0" d="M37.312 78.629l1.315 3.16 7.067-7.3c-1.958 1.583-5.532 3.095-8.382 4.14M56.024 56.878s1.492-.225.929 2.372c-.563 2.592-3.562 5.575-3.562 5.575l-.619 1.79a1.48 1.48 0 0 1-1.736.956l-.873-.205 2.328-12.539 3.533 2.05zM33.449 51.564s-1.234-.864-1.89 1.709c-.651 2.573.704 6.577.704 6.577l-.245 1.877c-.1.756.385 1.46 1.125 1.632l.877.205 3.505-12.257-4.076.257z"/>
                <path fill="#FED7D0" d="M39.26 75.292c-4.712-1.11-7.659-5.87-6.55-10.58l3.896-16.56a4.61 4.61 0 0 1 5.528-3.424l8.18 1.925c2.46.583 4.004 3.067 3.425 5.528L49.84 68.743c-1.11 4.708-5.87 7.658-10.58 6.549"/>
                <path fill="#FEC6BC" d="M39.479 65.829l.41-1.737 2.396-4.209 2.629-11.172-3.168-4.052c-2.332-.341-4.595 1.158-5.142 3.494L32.71 64.71c-1.045 4.442 1.516 8.925 5.76 10.352l1.452-6.167 2.098-2.468-2.54-.6z"/>
                <path fill="#1C1F45" d="M55.585 44.33c.008.02.044.009.068.013 1.74.354 2.822 2.11 2.416 3.843l-2.046 8.691s-1.918-.132-2.348 1.709c-1.194 5.077-2.436 7.758-2.436 7.758l-.864.133 1.628-6.922c-2.147-3.466-1.5-9.017-1.5-9.017s-.542-.129-9.04-2.13c-6.405-1.508-8.157-4.527-8.073-7.494.145-4.696 4.917-7.815 9.375-6.336 4.566 1.52 10.504 4.442 12.82 9.753"/>
                <path fill="#1C1F45" d="M39.226 47.542s-2.078 5.062-4.1 6.883l-1.717 7.3-.591-.374s1.021-5.551 1.427-8.088c.402-2.537.446-9.648 1.729-10.83 1.282-1.182 3.453 4.056 3.252 5.11M46.162 62.957a2.718 2.718 0 0 1-2.022-3.264 2.72 2.72 0 0 1 3.269-2.023 2.714 2.714 0 0 1 2.018 3.265 2.72 2.72 0 0 1-3.265 2.022m-8.011-1.886a2.725 2.725 0 0 1-2.023-3.268 2.718 2.718 0 0 1 3.265-2.022 2.716 2.716 0 1 1-1.242 5.29m9.443-4.209a3.548 3.548 0 0 0-4.073 2.083c-.426-.35-.852-.438-1.21-.406a3.545 3.545 0 0 0-2.725-3.558 3.545 3.545 0 0 0-4.262 2.633 3.544 3.544 0 0 0 2.638 4.257 3.544 3.544 0 0 0 4.209-2.456c.176-.08.582-.16 1.065.402l.052-.044a3.544 3.544 0 0 0 2.686 3.988 3.544 3.544 0 0 0 1.62-6.898"/>
                <path fill="#146EB4" d="M20.721 69.778c-4.946-1.446-11.256 5.01-18.93 19.369A6.145 6.145 0 0 0 .046 94.03a7.101 7.101 0 0 0 5.564 6.291l24.55 5.825 1.81-7.674-17.62-6.641 6.649-5.628c4.76-9.505 4.668-14.98-.278-16.426zM64.32 79.986c3.63 1.884 6.582 9.46 8.857 22.726a6.136 6.136 0 0 1-.62 5.145 7.092 7.092 0 0 1-7.782 3.152L40.2 105.277l1.805-7.679 18.882 1.283-6.03-5.677c2.68-10.695 5.834-15.101 9.464-13.218z"/>
            </g>
        </g>
        <g transform="translate(20.793 251.133)">
            <use fill="#0E4E80" xlink:href="#d"/>
            <mask id="f" fill="#fff">
                <use xlink:href="#e"/>
            </mask>
            <use fill="#146EB4" xlink:href="#e"/>
            <path fill="#1C1F45" d="M49.22 14.392s.52 2.93 1.939 12.96c1.423 10.03 7.995 17.761 7.995 17.761L45.531 53.17l-15.393-3.714s4.024-9.319 2.448-19.324C31.01 20.125 30.648 17.17 30.648 17.17s-1.346-6.038 7.425-8.221c2.806-.7 6.678 1.114 6.678 1.114s3.835-.495 4.47 4.33" mask="url(#f)"/>
            <path fill="#FED7D0" d="M26.746 48.888s-6.54 5.053-6.694 13.013c-.152 7.964-2.054 25.19-2.054 25.19l27.24 1.68.116-5.48S28.583 78.75 28.326 78.69c-.258-.06 1.752-14.264 1.752-14.264l1.456 5.452 1.33-18.58-6.118-2.409zM62.427 43.549s7.73 2.919 10.207 10.484c2.476 7.57 9.339 23.485 9.339 23.485l-25.556 9.58-1.716-5.206s14.709-9.254 14.938-9.383c.23-.132-5.853-13.13-5.853-13.13l.205 5.641-6.71-17.379 5.146-4.092zM56.535 42.96s-7.667.704-9.001-8.667l-4.567 1.234-4.736.153c1.472 9.358-6.066 10.922-6.066 10.922l2.577 2.653 10.223.101.004.02.064-.02h.069l-.004-.02 9.748-3.088 1.689-3.288z" mask="url(#f)"/>
            <path fill="#FEC6BC" d="M48.797 38.442c-.571-1.098-1.021-2.457-1.262-4.15l-4.571 1.235-4.732.153c1.467 9.358-6.07 10.922-6.07 10.922s12.06-1.33 16.635-8.16" mask="url(#f)"/>
            <path fill="#FED7D0" d="M33.899 22.903l-1.617.298a1.897 1.897 0 0 0-1.483 1.367 1.91 1.91 0 0 0 .237 1.52l1.371 2.126c.109.169.19.354.237.547l.418 1.587c.157.595.591 1.078 1.17 1.295l1.79.663-1.372-9.178-.751-.225zM48.183 20.218l1.632-.189a1.894 1.894 0 0 1 2.034 2.392l-.688 2.436a1.977 1.977 0 0 0-.068.595l.068 1.636a1.902 1.902 0 0 1-.743 1.584l-1.516 1.158-1.375-9.182.656-.43z" mask="url(#f)"/>
            <path fill="#FED7D0" d="M43.674 37.358l-1.001.153c-3.811.57-5.476-2.243-7.968-5.897l-1.821-12.149a3.676 3.676 0 0 1 3.083-4.165l7.622-1.141a3.678 3.678 0 0 1 4.165 3.079l1.817 12.152c-1.11 4.197-2.082 7.397-5.897 7.968" mask="url(#f)"/>
            <path fill="#FEC6BC" d="M40.537 29.962l.104-6.083-.695-4.67-.663-4.407-3.317.499a3.676 3.676 0 0 0-1.93.92 3.69 3.69 0 0 0-1.15 3.244l1.818 12.149c2.335 3.429 3.943 6.11 7.276 5.966.23-.012.462-.036.691-.069l.551-.084-1.061-7.107-1.624-.358z" mask="url(#f)"/>
            <path fill="#FFC53A" d="M64.182 65.428s-4.072-16.125-1.668-21.893c0 0-3.47-1.102-6.637-.632 0 0-.056 3.011-10.778 6.453-11.256-.153-12.189-3.015-12.189-3.015-3.167.478-6.166 2.548-6.166 2.548 3.988 4.808 4.816 21.423 4.816 21.423l5.157 13-3.85 4.744 17.627-2.637 17.628-2.64-5.07-3.406 1.13-13.945z" mask="url(#f)"/>
            <path fill="#FFC53A" d="M37.702 40.828s6.191 1.68 11.936-1.785c0 0 4.217 4.591 8.406 3.8L45.895 52.49 33.61 49.612l-.7-3.272s4.828-2.368 4.792-5.512" mask="url(#f)"/>
            <path fill="#FED7D0" d="M68.589 69.871c.671 1.52 1.114 2.597 1.05 2.638-.226.128-14.94 9.382-14.94 9.382l1.717 5.206 25.556-9.58s-1.757-4.072-3.811-9.077l-9.572 1.431zM28.557 75.858l-9.572 1.432c-.498 5.39-.989 9.8-.989 9.8l27.24 1.68.117-5.478s-16.772-4.543-17.029-4.603c-.072-.017.036-1.178.233-2.83" mask="url(#f)"/>
            <path fill="#FFF" d="M52.381 89.493a1.127 1.127 0 0 1-.949 1.282 1.125 1.125 0 1 1-.333-2.227c.615-.096 1.19.33 1.282.945" mask="url(#f)"/>
            <path fill="#1C1F45" d="M32.677 29.385S36.28 19.06 43.76 15.894c0 0 1.842 6.942 5.391 9.04-.225-2.134.197-3.93.784-5.997l-.116-.784-2.67-4.957s-5.455-1.403-6.215-1.258c-.76.14-4.824 1.387-4.824 1.387l-5.475 3.47s-.04 6.85 2.042 12.59" mask="url(#f)"/>
            <path fill="#F58A07" d="M44.957 43.702a18.753 18.753 0 0 0 7.12-2.597c-1.472-1.005-2.436-2.062-2.436-2.062-5.749 3.465-11.94 1.785-11.94 1.785.012.924-.398 1.78-.977 2.524 1.926.479 4.784.865 8.233.35" mask="url(#f)"/>
        </g>
        <g transform="translate(292.324 117.815)">
            <use fill="#4C7FB5" xlink:href="#g"/>
            <mask id="i" fill="#fff">
                <use xlink:href="#h"/>
            </mask>
            <use fill="#6EB4FF" xlink:href="#h"/>
            <g mask="url(#i)">
                <path fill="#FED7D0" d="M16.093 100.453l-4.201-2.023-2.376 2.465-2.774 4.848a3.736 3.736 0 0 0 .181 3.988l2.324 3.324 2.022 1.375c.321.213.76.097.928-.253a1.058 1.058 0 0 0-.285-1.282l-1.093-.893-.141-2.589 1.515-3.152.8.193-1.11 2.758a.758.758 0 0 0 .375.961c.374.177.82.02 1-.35l1.661-3.437a1.44 1.44 0 0 0 .096-.29l.829-3.899.249-1.744z"/>
                <path fill="#FFF" d="M10.157 98.965l6.456 2.565.712-1.914-6.654-1.918z"/>
                <path fill="#F58A07" d="M21.809 74.689L10.15 97.583l7.787 2.79 21-24.365-7.155-34.195s-3.128 2.243-3.78 4.253c-.65 2.01-6.194 28.623-6.194 28.623z"/>
                <path fill="#414042" d="M-16.863 181.263a9.074 9.074 0 0 0-4.052 3.719l-1.25 2.179a1.511 1.511 0 0 0 .796 2.17l1.821.664a7.154 7.154 0 0 0 4.197.209l7.96-2.01a5.447 5.447 0 0 0 2.367-1.287l1.444-1.334.691-.117 1.25-4.703-10.866-1.512-4.358 2.022z"/>
                <path fill="#D1D3D4" d="M-4.547 185.118a5.439 5.439 0 0 1-2.368 1.283l-7.96 2.01a7.121 7.121 0 0 1-4.197-.21l-1.82-.658a1.5 1.5 0 0 1-.93-.985l-.341.603a1.507 1.507 0 0 0 .792 2.17l1.821.664a7.155 7.155 0 0 0 4.197.209l7.96-2.01a5.424 5.424 0 0 0 2.367-1.287l1.448-1.334.691-.117.474-1.789-.691.113-1.443 1.338z"/>
                <path fill="#232324" d="M-16.558 181.122l1.198.591a6.958 6.958 0 0 0 6.311-.064l2.923-1.52-6.376-.888-4.056 1.881z"/>
                <path fill="#414042" d="M37.822 200.614a9.115 9.115 0 0 0-1.668-5.238l-2.778-3.924-10.183-4.088-1.25 4.703.543.442.59 1.878c.27.872.76 1.66 1.416 2.291l5.905 5.7a7.114 7.114 0 0 0 3.747 1.906l1.91.33c.92.16 1.768-.551 1.768-1.488v-2.512z"/>
                <path fill="#D1D3D4" d="M37.822 202.435c-.333.31-.8.475-1.294.39l-1.906-.33a7.228 7.228 0 0 1-3.75-1.905l-5.906-5.7a5.462 5.462 0 0 1-1.415-2.292l-.59-1.877-.54-.446-.478 1.793.543.442.59 1.877c.27.872.76 1.66 1.416 2.292l5.905 5.7a7.143 7.143 0 0 0 3.747 1.905l1.91.33c.92.16 1.768-.55 1.768-1.487v-.692z"/>
                <path fill="#232324" d="M27.401 189.052l1.781 2.77a6.976 6.976 0 0 0 5.443 3.196l1.33.084-2.58-3.65-5.974-2.4z"/>
                <path fill="#BD531E" d="M43.165 141.583l6.923-43.722-30.81-8.2-15.626 41.406a22.18 22.18 0 0 0-.422 1.23l-16.63 46.958 11.762 3.127 19.61-45.96 8.844-20.43 3.658.972-2.392 22.15-5.97 49.588 11.763 3.132 9.041-48.973c.097-.422.177-.852.25-1.278"/>
                <path fill="#231F20" d="M43.165 141.583l6.923-43.722-30.81-8.2-1.157 3.075 8.695 23.256 1.656.442 2.002.53-2.392 22.15-5.97 49.588 11.763 3.132 9.041-48.973c.097-.422.177-.852.25-1.278"/>
                <path fill="#3C436B" d="M23.043 91.43l-2.709-.723a.43.43 0 0 0-.523.306l-.446 1.68c-.06.23.077.458.306.519l2.705.723c.23.06.462-.076.523-.301l.446-1.68a.425.425 0 0 0-.302-.523M28.025 92.756l-3.252-.865a.426.426 0 0 0-.519.302l-.45 1.68a.43.43 0 0 0 .302.523l3.252.864c.229.06.462-.076.522-.301l.447-1.68a.425.425 0 0 0-.302-.523M40.61 96.104l-4.334-1.153a.427.427 0 0 0-.523.305l-.446 1.68a.423.423 0 0 0 .302.52l4.333 1.153c.23.06.462-.076.523-.302l.446-1.68a.425.425 0 0 0-.302-.523M47.013 97.81l-4.334-1.154a.423.423 0 0 0-.519.302l-.446 1.68a.422.422 0 0 0 .302.523l4.333 1.154a.43.43 0 0 0 .523-.302l.442-1.68a.422.422 0 0 0-.301-.523"/>
                <path fill="#FFF" d="M33.174 95.259l-3.168-.84a.275.275 0 0 0-.337.192l-.005.017a.279.279 0 0 0 .197.341l3.164.84a.279.279 0 0 0 .342-.197l.004-.012a.279.279 0 0 0-.197-.341"/>
                <path fill="#FED7D0" d="M53.773 41.465l1.121-6.074-3.57-3.534.004-.012-.012.004-.012-.012v.012l-4.856 1.294-2.046 5.826a1.25 1.25 0 0 1-1.266.828l-4.173 1.165-2.288 4.945 9.259 6.11v.009l.012-.004.012.008v-.008l11.075-.696 1.025-5.648-3.598-2.866a1.249 1.249 0 0 1-.687-1.347"/>
                <path fill="#FEC6BC" d="M53.773 41.465l1.121-6.074-3.57-3.534.004-.012-.012.004-.012-.012v.012l-4.856 1.294-1.017 2.89 8.933 15.422 3.208-2.171.486-3.606-3.598-2.866a1.249 1.249 0 0 1-.687-1.347"/>
                <path fill="#DBBAB4" d="M55.504 15.99c-4.607-1.226-9.355 1.572-10.6 6.252-2.425 9.121 1.483 9.463 6.09 10.689 4.607 1.226 8.068 3.256 10.6-6.251 1.243-4.676-1.483-9.464-6.09-10.69"/>
                <path fill="#FEC6BC" d="M61.605 30.151a1.759 1.759 0 0 0-1.648-1.403l-.065-.004c-1.29.41-2.782 5.813-2.782 5.813l.483.129a1.761 1.761 0 0 0 1.745-.503l2.138-2.577a1.14 1.14 0 0 0 .233-.944l-.104-.511zM45.325 24.869l-.057-.029a1.757 1.757 0 0 0-2.126.394l-.346.394c-.23.254-.326.6-.265.937l.574 3.3a1.754 1.754 0 0 0 1.267 1.299l.478.133s1.395-5.431.475-6.428"/>
                <path fill="#FED7D0" d="M60.584 23.316l-5.921-1.576-1.23-.33-5.922-1.571-2.432 7.16a5.332 5.332 0 0 0-.213.856l-.615 3.903a5.155 5.155 0 0 0 .928 3.843l1.962 2.686c.326.446.8.772 1.335.912l.209.053 1.234.33.201.055c.539.141 1.11.097 1.616-.128l3.04-1.355a5.167 5.167 0 0 0 2.713-2.87l1.407-3.695c.104-.273.185-.558.245-.848l1.443-7.425z"/>
                <path fill="#FEC6BC" d="M60.584 23.316l-5.921-1.576-.8-.213-4.752 17.841.808.213.201.056c.539.141 1.11.097 1.616-.128l3.04-1.355a5.167 5.167 0 0 0 2.713-2.87l1.407-3.695c.104-.273.185-.558.245-.848l1.443-7.425z"/>
                <path fill="#FAA191" d="M49.8 33.262l.78.671 1.073-.193.109-.418-1.85-.49z"/>
                <path fill="#1C1F45" d="M52.356 36.774a1.117 1.117 0 0 1-1.367.792l-2.396-.636a1.123 1.123 0 0 1-.792-1.37l.285-1.066 4.555 1.21-.285 1.07zm5.684-4.318l-2.11 3.618-1.6.856-.306-1.901-3.204-1.017.004-.016-.169-.036-.165-.053-.004.016-3.28-.707-1.214 1.491-.96-1.535-.033-4.185c-.004-.217-.31-.25-.354-.036l-.583 2.818c-.136.659-.1 1.346.105 1.99l.446 1.419c.157.498.414.96.756 1.358l1.451 1.713a3.97 3.97 0 0 0 1.994 1.262l.683.181a3.93 3.93 0 0 0 2.356-.104l2.11-.76c.491-.181.945-.454 1.331-.808l1.098-1.01a3.959 3.959 0 0 0 1.073-1.672l.897-2.737c.068-.201-.218-.33-.322-.145z"/>
                <path fill="#33201F" d="M50.534 28.488a.379.379 0 0 1-.466.274l-3.188-.849a.386.386 0 0 1-.273-.47l.51-1.922a.392.392 0 0 1 .474-.273l3.184.848c.201.053.33.266.274.47l-.515 1.922zm.39-2.942l-3.188-.849a.956.956 0 0 0-1.17.68l-.51 1.921a.956.956 0 0 0 .68 1.17l3.183.848a.96.96 0 0 0 1.17-.679l.514-1.922a.958.958 0 0 0-.679-1.17z"/>
                <path fill="#33201F" d="M57.463 30.333a.383.383 0 0 1-.47.274l-3.184-.848a.393.393 0 0 1-.278-.47l.515-1.922a.389.389 0 0 1 .474-.274l3.184.849a.383.383 0 0 1 .27.47l-.511 1.921zm.39-2.942l-3.188-.848a.954.954 0 0 0-1.17.675l-.197.744-1.897-.503-.145.55 1.894.503-.165.628a.96.96 0 0 0 .68 1.173l3.183.845a.954.954 0 0 0 1.17-.676l.51-1.921a.952.952 0 0 0-.675-1.17z"/>
                <path fill="#FFF" d="M39.192 95.176l-5.981-1.592a.878.878 0 0 0-1.074.62l-.2.755a.874.874 0 0 0 .622 1.07l5.982 1.591a.869.869 0 0 0 1.07-.619l.2-.751a.873.873 0 0 0-.619-1.074"/>
                <path fill="#E6E7E8" d="M65.39 50.206L54.98 43.75c-.209-.133-.088-.318-.253-.137-1.15 1.27-11.955-.145-12.647-3.184-.036-.153-.056-.297-.217-.281l-5.258 1.085c-1.865-.133-2.11 1.013-3.003 2.653-2.263 4.161-4.056 10.597-2.766 15.288 1.805 6.545-9.081 30.311-9.081 30.311l28.88 7.687 16.229-43.847c.494-1.23-.35-2.416-1.476-3.12"/>
                <path fill="#FFC53A" d="M45.434 42.959l-3.352 3.111.96 2.879L30.697 81.08l2.255 4.084 5.242-2.175 6.778-33.53 2.661-1.91z"/>
                <path fill="#231F20" d="M21.756 89.484L42.857 95.1 28.393 66.538c-1.572 9.326-6.637 22.946-6.637 22.946"/>
                <path fill="#F58A07" d="M68.8 51.739l-14.073-8.125-.889 3.341L35.21 76.687l4.656-31.766 2.001-4.776-5.535.032c-1.496.008-4.547.893-4.933 2.336L22.728 81.6l-12.551 20.217a2.082 2.082 0 0 0 .518 3.063l7.936 4.301a2.078 2.078 0 0 0 2.798-.559l5.069-7.103-.7 8.888a2.083 2.083 0 0 0 1.693 2.207l21.97 3.9a2.081 2.081 0 0 0 2.456-1.833l2.492-24.647L70.244 56.35a3.566 3.566 0 0 0-1.443-4.611"/>
                <path fill="#CC7306" d="M41.866 40.146a.7.7 0 0 0-.945-.82l-1.451.599-7.397 13.845a.874.874 0 0 0 .35 1.174l4.104 2.271-1.664.78c-.495.233-.8.744-.768 1.294l1.114 17.395L39.807 45.3l2.059-5.154zM58.036 45.524l-1.25-1.91a1.859 1.859 0 0 0-2.07-.767l-.877 4.104L35.99 75.437l13.58-11.236a1.27 1.27 0 0 0 .16-1.792L48.369 60.8l6.979 1.137a1.21 1.21 0 0 0 1.395-1.09l1.294-15.324z"/>
                <path fill="#FFF" d="M45.434 42.959l2.3 6.03a.55.55 0 0 0 .828.257l6.271-4.31-.048-3.195a.85.85 0 0 0-1.057-.816l-8.294 2.034z"/>
                <path fill="#FFF" d="M39.864 44.922l1.33 2.311c.197.338.676.37.913.06l3.328-4.333-2.701-3.023a.642.642 0 0 0-1.077.205l-1.793 4.78z"/>
                <path fill="#BD531E" d="M33.502 80.254c-.39-.104-.828.258-.977.812-.145.555.052 1.09.442 1.194.39.1.828-.261.977-.816.145-.555-.052-1.085-.442-1.19M31.25 87.003c-.39-.105-.828.257-.972.812-.15.555.048 1.085.442 1.19.39.104.824-.258.973-.812.144-.555-.053-1.086-.443-1.19M28.651 93.918c-.39-.105-.828.257-.972.812-.15.555.048 1.09.438 1.194.394.1.828-.261.977-.816.144-.555-.053-1.086-.443-1.19"/>
                <path fill="#333" d="M45.458 98.888c.458 1.455 6.54 8.04 6.54 8.04l.419-1.584-6.119-7.36-.84.904z"/>
                <path fill="#FED7D0" d="M47.715 102.09c1.17 1.475 2.802 3.425 4.282 4.836l.008-.012.908-3.309-3.887-2.577-1.31 1.061z"/>
                <path fill="#FFF" d="M48.108 100.613l4.607 4.487.808-1.38-4.342-3.923z"/>
                <path fill="#F58A07" d="M75.789 51.023a6.852 6.852 0 0 0-2.408-6.806l-.977-.788c-6.517 1.696-9.52 13.407-9.52 13.407l2.509 21.651L52.569 91.59l5.005 5.161s12.346-8.06 16.659-13.354c1.118-1.363 1.085-3.345 1.262-5.097.768-7.526.294-27.276.294-27.276"/>
            </g>
        </g>
        <g transform="translate(.458 140.249)">
            <use fill="#CC9D2F" xlink:href="#j"/>
            <mask id="l" fill="#fff">
                <use xlink:href="#k"/>
            </mask>
            <use fill="#FFC53A" xlink:href="#k"/>
            <g mask="url(#l)">
                <path fill="#011F35" d="M56.172 37.946s6.106-2.774 12.269.977l1.68-5.278-8.145-2.818-9.732.442.96 2.062 2.968 4.615z"/>
                <path fill="#FED7D0" d="M44.96 44.353s-6.988 3.204-8.797 10.384c-1.813 7.18-7.155 22.38-7.155 22.38l24.321 7.251 1.258-4.94s-14.239-7.638-14.46-7.747c-.22-.108 4.583-12.55 4.583-12.55l.177 5.238 5.11-16.55-5.038-3.466zM78.405 47.019s6.388 4.269 7.04 11.642c.65 7.377 3.525 23.236 3.525 23.236L63.804 85.2l-.458-5.077s15.272-5.287 15.501-5.359c.238-.068-2.536-13.117-2.536-13.117l-1.005 5.15-2.424-17.158 5.523-2.621zM73.192 45.244s-7.095-.969-6.332-9.744l-4.397.16-4.322-.856c-.635 8.784-7.795 8.623-7.795 8.623l1.777 2.943 9.242 2.24v.02l.06-.005.065.012v-.02l9.479-.744 2.223-2.629z"/>
                <path fill="#FEC6BC" d="M67.13 39.528c-.285-1.113-.41-2.44-.269-4.028l-4.402.16-4.317-.855c-.64 8.783-7.795 8.623-7.795 8.623s11.204 1.326 16.784-3.9"/>
                <path fill="#FED7D0" d="M55.062 20.951l-1.527-.068a1.761 1.761 0 0 0-1.737 2.348l.796 2.219c.06.172.097.357.1.542l.045 1.528c.016.57.313 1.101.788 1.415l1.483.977.688-8.599-.636-.362zM72.222 22.318l1.516.177c.675.072 1.242.53 1.463 1.17.161.47.12.984-.12 1.418l-1.134 2.067a1.734 1.734 0 0 0-.189.522l-.281 1.5a1.775 1.775 0 0 1-1.005 1.274l-1.62.732.687-8.607.683-.253zM62.718 37.471l-.937-.076c-3.574-.286-6.267-3.441-5.982-7.015l.909-11.389a3.416 3.416 0 0 1 3.666-3.124l7.14.571a3.416 3.416 0 0 1 3.127 3.667l-.908 11.388c-.282 3.57-3.441 6.26-7.015 5.978"/>
                <path fill="#FEC6BC" d="M63.154 20.249l.33-4.133-3.112-.25c-1.866-.148-3.514 1.263-3.667 3.128l-.904 11.389c-.286 3.57 2.408 6.726 5.978 7.015l.518.036.68-8.526-1.4-.668 1.227-3.614.35-4.377z"/>
                <path fill="#1C1F45" d="M48.027 33.867l8.145 4.08.635-19.436s3.602 2.199 11.538 1.467l.33-4.153.82 4.024c.743-.096.353-.305 1.137-.458l-2.19 19.533 8.743-2.444c-3.257-.756-1.267-5.077-.266-7.976 1.005-2.902.113-7.043.113-7.043-1.367-5.62-4.78-10.81-12.61-11.437-6.172-.603-9.942 2.135-12.286 6.046-1.395 2.34-2.13 5.017-2.24 7.74-.04 1.02-.011 2.013.194 2.584.989 2.774 1.097 7.722-2.063 7.473"/>
                <path fill="#146EB4" d="M75.394 67.205s-.297-15.46 3.096-20.18c0 0-2.919-1.725-5.886-1.97 0 0-.68 2.717-11.115 3.582-10.167-2.505-10.408-5.299-10.408-5.299-2.97-.225-6.123 1.013-6.123 1.013 2.601 5.198-.14 20.422-.14 20.422l1.941 12.864-4.486 3.482 16.522 1.318 16.523 1.315-3.876-4.153 3.952-12.394z"/>
                <path fill="#0E4E80" d="M72.603 45.056s-.675 2.69-10.97 3.57l-2.694 33.82 16.382 1.307-3.88-4.153 3.952-12.394s-.298-15.46 3.095-20.18c0 0-2.918-1.725-5.885-1.97"/>
                <path fill="#FED7D0" d="M78.453 72.156c.285 1.52.462 2.593.398 2.609-.234.072-15.506 5.359-15.506 5.359l.459 5.077 25.165-3.304s-.736-4.06-1.548-9.025l-8.968-.716zM40.932 69.168l-8.97-.715c-1.587 4.776-2.954 8.667-2.954 8.667l24.321 7.248 1.255-4.94s-14.24-7.639-14.456-7.747c-.065-.032.281-1.061.804-2.513"/>
                <path fill="#FFF" d="M61.995 57.046a1.05 1.05 0 1 1-2.094-.169 1.049 1.049 0 0 1 1.13-.961c.578.044 1.009.547.964 1.13M61.212 66.872a1.046 1.046 0 0 1-1.13.96 1.048 1.048 0 1 1 .165-2.09 1.05 1.05 0 0 1 .965 1.13M60.43 76.698a1.046 1.046 0 0 1-1.13.96 1.044 1.044 0 0 1-.965-1.125 1.05 1.05 0 1 1 2.094.165M59.646 86.524a1.044 1.044 0 0 1-1.13.961 1.044 1.044 0 0 1-.965-1.125 1.05 1.05 0 1 1 2.094.165"/>
            </g>
        </g>
        <g transform="translate(149.355 290.818)">
            <use fill="#B36505" xlink:href="#m"/>
            <mask id="o" fill="#fff">
                <use xlink:href="#n"/>
            </mask>
            <use fill="#F58A07" xlink:href="#n"/>
            <g mask="url(#o)">
                <path fill="#385FA8" d="M41.556 71.219c.286 2.4 5.327 29.603 5.327 29.603l7.996 31.252 8.944-3.083-6.874-31.164-11.702-36.445s-3.98 7.44-3.69 9.837"/>
                <path fill="#F1F2F2" d="M43.826 56.69l-2.167 3.251a.98.98 0 0 0 .072 1.186l2.641 3.128 1.552-5.174-2.098-2.392z"/>
                <path fill="#FED7D0" d="M51.316 48.65l-3.035-5.826-5.307-.623-.004-.012-.012.008h-.012l.004.012-3.22 4.261 2.098 6.223c7.53 17.005 9.825 9.934 9.825 9.934v.008l.012-.012h.013l-.005-.008 8.824-7.835-3.798-4.19-3.928-1.261a1.325 1.325 0 0 1-1.455-.68"/>
                <path fill="#FEC6BC" d="M51.316 48.65l-3.035-5.826-5.307-.623-.004-.012-.012.008h-.012l.004.012-3.22 4.261 1.041 3.092 17.58 7.067 1.266-3.916-2.621-2.002-4.225-1.382a1.325 1.325 0 0 1-1.455-.68M50.474 34.04a1.873 1.873 0 0 0-2.3-.097l-.056.04c-.816 1.186 1.471 6.694 1.471 6.694l.49-.21a1.871 1.871 0 0 0 1.13-1.563l.11-3.558a1.186 1.186 0 0 0-.423-.945l-.422-.361zM33.373 40.268l-.064.012a1.877 1.877 0 0 0-1.528 1.724l-.032.56c-.024.361.12.715.39.956l2.645 2.384c.535.438 1.27.539 1.91.27l.486-.21s-2.388-5.459-3.807-5.696"/>
                <path fill="#FED7D0" d="M45.147 28.98l-5.994 2.552-1.25.535-5.99 2.552 2.645 7.598c.104.298.229.583.382.856l2.042 3.675a5.474 5.474 0 0 0 3.292 2.613l3.401.965c.571.16 1.178.12 1.72-.109l.206-.092 1.25-.531.21-.089a2.58 2.58 0 0 0 1.265-1.161l1.66-3.12a5.488 5.488 0 0 0 .399-4.189l-1.239-4.016a5.245 5.245 0 0 0-.353-.868l-3.646-7.172z"/>
                <path fill="#FEC6BC" d="M45.147 28.98l-5.994 2.552-.812.35 7.698 18.058.812-.346.21-.089a2.58 2.58 0 0 0 1.265-1.161l1.66-3.12a5.488 5.488 0 0 0 .399-4.189l-1.239-4.016a5.245 5.245 0 0 0-.353-.868l-3.646-7.172z"/>
                <path fill="#1C1F45" d="M49.981 40.509a.298.298 0 0 0-.18.33l.401 1.93c.105.494.02 1.016-.237 1.47l-2.283 4.02c-.13.226-.33.407-.571.511l-1.086.462-.012.004-1.09.467c-.24.1-.51.124-.759.06l-4.482-1.142a2.087 2.087 0 0 1-1.226-.848l-1.114-1.624a.304.304 0 0 0-.362-.1c-.157.068-.233.245-.165.39l1.005 2.17c.226.49.64.873 1.158 1.07l5.42 2.046c.28.104.602.096.888-.024l1.503-.64.008-.003 1.508-.648c.285-.12.51-.345.63-.619l2.276-5.326c.217-.51.23-1.074.032-1.576l-.868-2.227c-.06-.153-.237-.221-.394-.153"/>
                <path fill="#FAA191" d="M42.616 44.374l1.09.053.776-.86-.181-.427-1.87.8z"/>
                <path fill="#1C1F45" d="M40.655 22.024c-1.495 0-3.316.294-5.443 1.154-3.678 1.484-6.098 3.522-7.55 5.09a3.583 3.583 0 0 0-.3 4.494l3.637 5.194 3.256 3.397-.804-4.905-.9-2.102 5.552-1.045a4.648 4.648 0 0 0 1.809-.76l4.872-3.405 1.009 2.36 2.999 4.655-.772-7.228-1.198-2.802a6.712 6.712 0 0 0-6.167-4.097"/>
                <path fill="#1C1F45" d="M38.392 31.482c-7.184 2.938-10.536.032-11.638-1.34-.14.897.056 1.838.607 2.622L31 37.954l3.256 3.397-.804-4.905-.9-2.098 5.552-1.045a4.71 4.71 0 0 0 1.809-.76l4.872-3.41 1.009 2.365 2.999 4.65-.772-7.223-1.174-2.758c-.949 1.238-3.18 3.156-8.454 5.315M46.454 43.872a1.91 1.91 0 0 0-1.628-.073l-.897.386-.233.1-.896.379a1.884 1.884 0 0 0-1.078 1.226l-.305 1.073c-.052.173.124.334.297.261l2.754-1.177.197-.08 2.758-1.175c.169-.076.18-.313.016-.398l-.985-.522z"/>
                <path fill="#002C4A" d="M76.584 167.813l17.922 42.054 12.237-5.214-17.46-44.176-20.847-56.542-13.013 7.224z"/>
                <path fill="#223A66" d="M85.794 113.44c-1.95-2.85-8.904-13.86-8.904-13.86L56.163 110.26l14.604 23.172 17.48 33.675 19.292 37.17 13.849-5.906-17.68-38.094-11.554-24.892s-4.41-19.095-6.36-21.945"/>
                <path fill="#146EB4" d="M42.909 67.63a8.313 8.313 0 0 0-.95 4.58c.467 5.865 2.441 20.984 10.582 34.793 10.375 17.591 8.824-8.82 8.824-8.82L44.866 63.956l-1.957 3.675z"/>
                <path fill="#1599FB" d="M43.19 67.105l1.52-.784-1.034 4.14 4.048 12.278-.418-20.036-2.557-.04z"/>
                <path fill="#FFC53A" d="M45.594 58.703a8.916 8.916 0 0 0 .1 7.807s-.848 17.696 3.044 22.73c3.887 5.029.414-30.549.414-30.549l-3.148-.856-.41.868z"/>
                <path fill="#FFF" d="M53.298 47.868a.568.568 0 0 0-.876.008l-6.589 8.076c-.31.334-.378.824-.169 1.226l2.915 5.657 5.72-13.785-1-1.182z"/>
                <path fill="#146EB4" d="M55.668 49.858c-4.864 3.61-7.51 14.497-7.51 14.497-1.531 4.868-.679 16.783-.679 16.783l2.577 16.575a45.074 45.074 0 0 0 4.458 13.692l7.646 14.83a2.694 2.694 0 0 0 3.626 1.162l23.047-10.344a2.603 2.603 0 0 0 1.061-3.61L79.462 98.36l-3.517-31.38c-.53-2.143-.1-9.685-6.862-12.784l-13.415-4.338z"/>
                <path fill="#223A66" d="M47.828 83.389c.104 1.551.346 3.2.768 4.944l-.768-4.944z"/>
                <path fill="#1599FB" d="M47.479 81.14l.35 2.25c-.789-11.826 6.689-17.808 6.689-17.808l-4.716-2.87 6.404-.76 1.375-11.481-3.727-1.79C43.073 60.08 47.48 81.14 47.48 81.14"/>
                <path fill="#146EB4" d="M76.814 60.992c-3.88-6.91-9.692-3.754-9.692-3.754-5.673 3.835-1.512 9.9-1.512 9.9l14.488 19.944 7.269 31.477 9.893-1.688s-4.14-25.25-6.03-32.02a19.615 19.615 0 0 0-2.207-5.057c-4.169-6.766-12.209-18.802-12.209-18.802"/>
            </g>
        </g>
        <g transform="translate(285.092 267.314)">
            <use fill="#CC9D2F" xlink:href="#p"/>
            <mask id="r" fill="#fff">
                <use xlink:href="#q"/>
            </mask>
            <use fill="#FFC53A" xlink:href="#q"/>
            <g mask="url(#r)">
                <path fill="#146EB4" d="M72.578 77.183s5.355 4.104 4.876 8.293c-.478 4.19-3.682 5.89-7.521 4.852-3.84-1.04-7.984-7.855-7.984-7.855l-6.802-4.876 4.631-16.169 12.8 15.755z"/>
                <path fill="#FFF" d="M71.848 81.968c-1.672 3.787-6.155 1.52-6.661-.004-.503-1.52 5.358-5.27 5.358-5.27s2.975 1.484 1.303 5.274"/>
                <path fill="#003A61" d="M27.421 161.749l.23-28.108 15.935 3.863-.286 27.26"/>
                <path fill="#003A61" d="M.57 158.589l12.222-50.182 32.586 7.895-1.765 23.642-18.52-2.983-1.27-.31-7.988 27.26"/>
                <path fill="#231F20" d="M1.778 153.634l11.015-45.23 32.586 7.9z"/>
                <path fill="#FFF" d="M25.82 112.849l6.516 1.58c.507.12.82.635.696 1.141l-.197.824a.95.95 0 0 1-1.146.696l-6.517-1.58a.944.944 0 0 1-.695-1.142l.197-.824a.95.95 0 0 1 1.146-.695M25.826 109.677l6.516 1.58c.507.124.82.635.696 1.145l-.197.82a.953.953 0 0 1-1.146.7l-6.517-1.584a.942.942 0 0 1-.695-1.142l.197-.82a.95.95 0 0 1 1.146-.7"/>
                <path fill="#FED7D0" d="M39.49 50.896l1.7-6.035 6.6-2.922.005-.012.012.008h.016l-.004.012 4.494 4.257-.506 7.566c-.113.683-.077 1.387.12 2.396l4.76 4.209-1.306 5.387-13.62 1.165v.008l-.012-.008-.016.004.004-.012-11.57-7.268 1.403-5.797 6.609-1.025c.691.036 1.097-1.274 1.31-1.933"/>
                <path fill="#FEC6BC" d="M54.688 58.61l-2.762-2.445c-.197-1.009-.233-1.712-.12-2.396l.506-7.565-4.49-4.257v-.013l-.012.005-.012-.013-.004.017-6.601 2.918-.752 2.665v.008l11.248 13.998 2.999-2.922z"/>
                <path fill="#E6E7E8" d="M24.163 53.361l13.238-.76c.265-.016.25-.257.314.004.434 1.801 11.44 6.038 13.672 3.51.112-.129.213-.254.353-.157l4.443 3.75c1.837.84 1.479 2.055 1.479 4.077 0 5.126-1.62 12.177-5.274 15.972-5.098 5.294-7.035 33.523-7.035 33.523l-31.441-7.622 7.236-50.094c.165-1.427 1.58-2.119 3.015-2.203"/>
                <path fill="#F58A07" d="M46.89 56.784l1.58 4.695-2.4 2.24-4.877 36.948-4.257 2.717-3.863-4.783 10.894-35.393-1.536-3.192z"/>
                <path fill="#231F20" d="M45.355 113.28l-22.97-5.571 28.521-19.686c-3.328 9.684-5.551 25.257-5.551 25.257"/>
                <path fill="#146EB4" d="M20.127 53.055l17.588-.45-.884 3.634 2.347 37.913 11.996-32.619.567-5.576 5.25 2.89c1.415.784 3.86 3.197 3.481 4.772L48.51 105.28l1.48 25.716a2.247 2.247 0 0 1-2.08 2.645l-9.768-.012a2.25 2.25 0 0 1-2.372-1.974l-1.145-9.378-3.936 8.812a2.248 2.248 0 0 1-2.75 1.226l-22.91-7.654a2.25 2.25 0 0 1-1.387-3.015l10.372-24.728 2.352-40.224a3.87 3.87 0 0 1 3.762-3.638"/>
                <path fill="#0E4E80" d="M51.74 55.956a.757.757 0 0 1 1.322-.29l1.07 1.32-.125 16.992a.945.945 0 0 1-.937.936l-5.081.037 1.182 1.6a1.45 1.45 0 0 1 .056 1.628L39.177 94.15l11.855-32.232.708-5.962zM33.577 52.71l2.179-1.17a2.018 2.018 0 0 1 2.368.341l-1.29 4.358 2.243 36.321-7.1-17.708a1.374 1.374 0 0 1 .772-1.79l2.123-.823-7.22-2.529a1.307 1.307 0 0 1-.764-1.757l6.69-15.244z"/>
                <path fill="#FFF" d="M46.89 56.784l-5.307 4.55a.6.6 0 0 1-.92-.184l-3.735-7.34 2.267-4.033 7.694 7.007z"/>
                <path fill="#FFF" d="M51.174 61.535l-2.46 1.507a.596.596 0 0 1-.9-.414l-.925-5.845 4.852-.828-.567 5.58z"/>
                <path fill="#223A66" d="M38.956 98.425c.426.105.65.68.506 1.279-.149.603-.611 1.005-1.033.904-.426-.1-.655-.675-.507-1.274.145-.607.607-1.01 1.034-.909M37.607 106.01c.426.1.651.675.506 1.274-.148.607-.61 1.01-1.033.905-.426-.1-.655-.672-.506-1.275.144-.603.607-1.005 1.033-.904M36.502 113.933c.426.1.655.67.506 1.274-.144.603-.607 1.005-1.033.904-.426-.1-.651-.675-.506-1.274.144-.607.61-1.009 1.033-.904"/>
                <path fill="#FED7D0" d="M4.565 119.7l1.387 4.088c.036.1.06.205.069.317l.361 4.113a.814.814 0 1 1-1.616.197l-.498-3.18-.848.261.333 3.77 1.564 2.333 1.512.229c.526.076.928.506.976 1.033a.691.691 0 0 1-.727.748l-2.641-.157-4-1.81a4.043 4.043 0 0 1-2.376-3.61l-.105-6.045.849-3.61 5.025-.439.735 1.761z"/>
                <path fill="#FFF" d="M5.24 118.938l-7.513.406-.064-2.211 7.49.33z"/>
                <path fill="#146EB4" d="M13.516 58.484a7.416 7.416 0 0 1 5.809-5.23l1.335-.241c5.326 4.98 2.126 17.672 2.126 17.672L10.84 93.028l-5.38 24.792-8.373.458s1.97-17.957 2.802-25.153a20.519 20.519 0 0 1 1.44-5.5c3.159-7.557 12.188-29.14 12.188-29.14"/>
                <path fill="#A7A9AC" d="M65.001 58.15a1.655 1.655 0 0 1 1.757-.49l8.104 2.589a.66.66 0 0 1 .386.322v.008h.004v.004c.004 0 .004.004.004.004v.008h.004v.008h.004v.012h.005v.008l.004.004v.008h.004v.008l.004.004v.008h.004v.012h.004v.008h.004v.008c.004 0 .004.004.004.004v.008h.004v.008l.004.004v.012h.004v.008c0 .004 0 .004.004.004v.008h.004v.008h.004v.008h.004V60.764s0 .004.004.004v.008h.004v.008c0 .004 0 .004.004.004v.008h.004v.012h.004v.008h.004v.012h.004v.008h.004v.012h.004v.008h.004v.012h.004v.008c.004 0 .004 0 .004.004v.004l.004.004v.008h.004v.012h.004v.008h.004v.012h.004v.008l.004.004v.008h.004v.008l.004.005v.004c0 .004 0 .004.004.004v.008h.004v.012h.004v.008l.004.004v.008h.004v.008c.004 0 .004.004.004.004v.008h.004v.008l.004.004v.008h.004v.008c.004 0 .004 0 .004.004v.008h.004v.008a.668.668 0 0 1-.1.776l-14.102 14.93c-.37.39-.925.555-1.448.43l-7.987-1.937a.547.547 0 0 1-.398-.37v-.004s0-.004-.004-.004v-.004-.004h-.004v-.004-.008h-.004v-.008h-.004v-.004-.008h-.004v-.008c-.004 0-.004 0-.004-.004v-.004c0-.004 0-.004-.005-.004v-.008h-.004v-.004-.008h-.004v-.004c-.004 0-.004 0-.004-.004V74.8h-.004v-.008c-.004 0-.004-.004-.004-.004v-.004c0-.004-.004-.004-.004-.004v-.008h-.004v-.012h-.004v-.008s-.004 0-.004-.004v-.004-.008h-.004v-.008l-.004-.004v-.008h-.004v-.008l-.004-.004v-.004c0-.004 0-.004-.004-.004v-.008h-.004v-.004-.008h-.004v-.008l-.004-.004v-.008h-.004v-.008h-.004v-.008h-.004v-.004-.004l-.004-.004v-.008h-.004v-.008l-.004-.004V74.6h-.004v-.004-.004l-.004-.004v-.008h-.004v-.008s-.004 0-.004-.004v-.008h-.004v-.008l-.004-.004v-.008h-.004v-.012l-.004-.004v-.008h-.004v-.004-.004c0-.004-.004-.004-.004-.004v-.008h-.004v-.004-.004l-.004-.004v-.004h-.004v-.008s0-.004-.004-.004v-.008h-.004v-.004-.004l-.004-.004v-.008h-.004v-.004-.008h-.004v-.008c-.004 0-.004 0-.004-.004v-.004c0-.004-.004-.004-.004-.004V74.399a.552.552 0 0 1 .108-.534l13.68-15.714z"/>
                <path fill="#E6E7E8" d="M65.204 58.657a1.662 1.662 0 0 1 1.756-.49l8.109 2.588c.466.153.619.74.277 1.098l-14.098 14.93c-.374.39-.925.555-1.447.43l-7.992-1.937a.553.553 0 0 1-.286-.9l13.68-15.719z"/>
                <path fill="#FED7D0" d="M65.588 65.515a1.21 1.21 0 0 1 1.665-.04l3.597 3.272c.262.238.419.567.435.917l.205 3.968a1.46 1.46 0 0 1-.077.554l-1.049 3.023.125.117a2.815 2.815 0 0 1 .056 4.052 2.81 2.81 0 0 1-3.968.004l-.249-.24s-4.523-4.527-3.168-6.24c1.359-1.713 2.3-2.545 2.3-2.545l-2.396-2.733a1.208 1.208 0 0 1 .056-1.653l2.468-2.456z"/>
                <path fill="#FEC6BC" d="M66.66 70.116a.14.14 0 0 1 0 .201c-.032.04-.084.048-.133.04a.116.116 0 0 1-.064-.036l-2.89-2.798v-.004l.2-.193 2.887 2.79zM68.034 68.483a.14.14 0 0 1 0 .201c-.032.04-.084.048-.133.04a.116.116 0 0 1-.064-.036l-2.754-2.665.197-.201 2.754 2.661zM60.661 41.23a2.125 2.125 0 0 0-2.03-1.648h-.072c-1.552.527-3.208 7.091-3.208 7.091l.587.145a2.13 2.13 0 0 0 2.09-.655l2.517-3.172c.257-.322.35-.74.257-1.146l-.14-.615zM40.86 35.29l-.069-.032a2.116 2.116 0 0 0-2.557.535l-.41.482a1.36 1.36 0 0 0-.293 1.138l.784 3.972c.197.76.792 1.355 1.56 1.536l.582.144s1.536-6.597.402-7.774"/>
                <path fill="#FED7D0" d="M59.246 33.006l-7.192-1.745-1.5-.362-7.191-1.745-2.746 8.716a6.184 6.184 0 0 0-.233 1.041l-.64 4.732a6.214 6.214 0 0 0 1.23 4.615l2.441 3.187c.41.531.985.909 1.64 1.07l.245.056 1.5.366.25.06a2.953 2.953 0 0 0 1.945-.2l3.63-1.717a6.202 6.202 0 0 0 3.204-3.542l1.6-4.494a6.1 6.1 0 0 0 .27-1.034l1.547-9.004z"/>
                <path fill="#FEC6BC" d="M59.246 33.006l-7.192-1.745-.977-.233-5.25 21.668.973.24.25.061a2.953 2.953 0 0 0 1.945-.2l3.63-1.717a6.202 6.202 0 0 0 3.204-3.542l1.6-4.494a6.1 6.1 0 0 0 .27-1.034l1.547-9.004z"/>
                <path fill="#FAA191" d="M46.49 45.309l.96.784 1.29-.257.12-.507-2.246-.547z"/>
                <path fill="#382812" d="M59.88 23.623c-1.359-1.017-3.216-1.982-5.74-2.645-4.354-1.146-7.94-.937-10.332-.49a4.068 4.068 0 0 0-3.325 3.887l-.213 7.2.66 5.302 2.592-5.013.611-2.52 5.765 2.817c.675.33 1.411.51 2.163.535l6.75.205-.688 2.838-.422 6.271 4.197-7.103.82-3.369a7.631 7.631 0 0 0-2.838-7.915"/>
                <path fill="#24200C" d="M51.398 30.697c-8.538-2.199-9.62-7.12-9.692-9.121a4.075 4.075 0 0 0-1.222 2.798l-.217 7.2.663 5.302 2.593-5.013.611-2.52L49.9 32.16c.675.33 1.41.51 2.163.534l6.75.205-.688 2.838-.426 6.272 4.2-7.104.805-3.308c-1.7.482-5.037.715-11.305-.9"/>
            </g>
        </g>
        <g transform="translate(231.216 10.315)">
            <use fill="#B36505" xlink:href="#s"/>
            <mask id="u" fill="#fff">
                <use xlink:href="#t"/>
            </mask>
            <use fill="#F58A07" xlink:href="#t"/>
            <g mask="url(#u)">
                <path fill="#1C1F45" d="M49.536 16.222l7.911 7.043 1.81 16.583-15.92 3.304-5.841-17.881 5.893-8.575z"/>
                <path fill="#146EB4" d="M41.379 46.847s-1.142-3.356 4.06-6.396c2.71-1.575 10.279-4.615 13.925-3.758 10.653 2.504 6.11 40.779 6.11 40.779l-16.24 3.224-5.709-17.624s-11.437-7.409-2.146-16.225"/>
                <path fill="#FED7D0" d="M63.104 146.241l-11.767-35.4 14.882-6.28 6.22 39.429"/>
                <path fill="#FEC6BC" d="M60.199 137.502l-4.459-13.418 14.296 4.67.144.933z"/>
                <path fill="#FED7D0" d="M71.505 144.576l-11.77-35.4 14.886-6.283 7.019 36.84"/>
                <path fill="#B78C53" d="M48.527 80.837l.684-.137 16.51-3.276.68-.132c1.205 2.255 2.279 2.44 4.474 3.754 11.96 7.176 6.577 22.914 7.582 32.68l1.161 12.594c.057.583-.217 1.073-.639 1.158l-20.988 4.164c-.423.08-.865-.273-1.034-.832l-3.577-11.843c-3.144-10.388-4.784-21.266-4.829-31.983l-.024-6.147z"/>
                <path fill="#BBE0ED" d="M65.93 74.91l.47 2.383-17.84 3.538-.47-2.38z"/>
                <path fill="#FED7D0" d="M56.442 46.961c-1.878-2.786-.402-5.294.313-6.48.567-.94 1.5-1.624 2.577-1.833 7.634-1.512 10.661 24.076 10.89 26.588 1.255 13.737-2.376 29.121-2.376 29.121l-4.836-.112C62.886 86.815 62.934 66 62.934 66s-3.196-14.146-6.492-19.039"/>
                <path fill="#FED7D0" d="M61.294 101.098c.04-1.399.358-2.774.937-4.048l.78-2.806 4.844.084a.213.213 0 0 1 .225.125c.314.68 1.612 3.57 1.717 4.607.124 1.178.317 2.09.317 2.09l.692 4.354a.501.501 0 0 1-.342.559.507.507 0 0 1-.64-.33l-1.177-3.738-.286.128 1.407 4.386a.576.576 0 0 1-.297.704.588.588 0 0 1-.8-.29l-1.833-4.18-.109.196a.21.21 0 0 0-.016.177l1.608 4.555a.695.695 0 1 1-1.302.49l-1.77-4.41c-.04-.112-.176-.164-.285-.112a.213.213 0 0 0-.112.261l1.226 3.678a.694.694 0 0 1-.515.9.688.688 0 0 1-.78-.421l-2.227-6.722-.257 1.894a.532.532 0 0 1-1.061-.085l.056-2.046zM45.14 39.604a1.17 1.17 0 0 0 .212-.824l-.74-5.793 3.554-3.148v-.012l.012.004.008-.012.004.016 4.515 1.476 1.624 5.604c.117.41.442.707.84.808-2.179 1.427-5.27 3.807-6.13 6.3-1.363 3.963-4.044 2.717-3.823-.427a22.702 22.702 0 0 0-.077-3.992"/>
                <path fill="#FEC6BC" d="M45.14 39.604a1.17 1.17 0 0 0 .212-.824l-.74-5.793 3.554-3.148v-.012l.012.004.008-.012.004.016 4.515 1.476.804 2.782-7.759 11.819c-.382-.507-.607-1.315-.534-2.316a22.702 22.702 0 0 0-.077-3.992M38.253 26.229c.193-.74.869-1.25 1.628-1.238h.06c1.199.458 2.32 5.636 2.32 5.636l-.462.092a1.664 1.664 0 0 1-1.62-.562l-1.881-2.545a1.054 1.054 0 0 1-.173-.905l.128-.478zM53.894 22.099l.052-.024a1.666 1.666 0 0 1 1.99.486l.305.39c.201.25.274.579.201.897l-.72 3.083a1.66 1.66 0 0 1-1.253 1.162l-.467.096s-1.029-5.198-.108-6.09"/>
                <path fill="#FED7D0" d="M39.572 19.834l5.669-1.174 1.181-.25 5.669-1.173 1.925 6.886c.073.27.125.543.157.82l.374 3.715a4.846 4.846 0 0 1-1.081 3.578l-1.99 2.428c-.334.41-.796.687-1.31.796l-.198.036-1.182.25-.197.04a2.299 2.299 0 0 1-1.515-.206l-2.794-1.435a4.895 4.895 0 0 1-2.416-2.854l-1.134-3.558a5.247 5.247 0 0 1-.18-.812l-.978-7.087z"/>
                <path fill="#FEC6BC" d="M39.572 19.834l5.669-1.174.771-.16 3.542 17.084-.768.161-.197.04a2.299 2.299 0 0 1-1.515-.205l-2.794-1.435a4.895 4.895 0 0 1-2.416-2.854l-1.134-3.558a5.247 5.247 0 0 1-.18-.812l-.978-7.087z"/>
                <path fill="#FAA191" d="M49.108 29.205l-.768.587-1-.234-.089-.398 1.773-.37z"/>
                <path fill="#1C1F45" d="M36.608 23.241s-1.13-9.52 5.319-11.971c6.452-2.449 11.702 2.227 14.363 6.62l1.026 2.553c1.64 4.069 3.208 15.297 1.885 19.47l-1.64 4.011a.183.183 0 0 1-.35-.028c-.506-2.36-2.693-15.557-2.693-15.557l-1.013-3.614a10.155 10.155 0 0 0-1.15-2.621l-1.95-3.148a1.24 1.24 0 0 0-1.636-.442l-.704.382a6.69 6.69 0 0 1-3.738.776l-.82-.065a1.232 1.232 0 0 0-1.323 1.05l-.68 4.647c-.043.301-.06.607-.04.908l.278 4.776s3.634 12.836 4.108 15.196c.04.177-.176.29-.305.164l-3.116-3.035c-4.068-4.804-5.628-12.936-5.744-17.318l-.077-2.754z"/>
                <path fill="#FEC6BC" d="M56.45 24.368c.285.587-.499 3.843-.499 3.843l-.808-3.895s1.025-.535 1.307.052M40.161 27.423l.808 3.899s-2.018-2.677-1.99-3.329c.029-.655 1.182-.57 1.182-.57"/>
            </g>
        </g>
        <path fill="#FFF" d="M207.662 196.765c.021-2.931.455-5.077 1.303-6.438.848-1.361 2.54-3.015 5.073-4.963 1.486-1.214 2.674-2.523 3.564-3.925.89-1.403 1.335-2.974 1.335-4.711 0-1.927-.508-3.434-1.523-4.523-1.016-1.089-2.466-1.633-4.35-1.633-1.55 0-2.863.46-3.942 1.382-1.078.921-1.627 2.272-1.648 4.051h-8.92l-.063-.188c-.062-4.02 1.262-7.098 3.973-9.234 2.712-2.135 6.245-3.203 10.6-3.203 4.69 0 8.37 1.188 11.04 3.564 2.669 2.377 4.004 5.606 4.004 9.69 0 2.658-.78 5.119-2.34 7.38a20.903 20.903 0 0 1-5.857 5.684c-1.278.985-2.115 1.974-2.513 2.968-.398.995-.597 2.361-.597 4.099h-9.139zm9.202 13.002h-9.233v-7.851h9.233v7.851z"/>
    </g>
</svg>
