<svg xmlns="http://www.w3.org/2000/svg" xmlns:xlink="http://www.w3.org/1999/xlink" width="164" height="125" viewBox="0 0 164 125">
    <defs>
        <path id="a" d="M14.17 7.176a7.025 7.025 0 1 0-14.048 0 7.025 7.025 0 1 0 14.049 0"/>
        <path id="c" d="M.306 7.783c.902-5.059 5.73-8.43 10.787-7.529 5.058.9 8.427 5.73 7.528 10.79-.9 5.058-5.73 8.428-10.787 7.528-5.058-.9-8.427-5.73-7.528-10.79"/>
        <path id="e" d="M21.48 10.731C21.48 4.84 16.706.062 10.815.062S.147 4.84.147 10.732c0 5.892 4.776 10.669 10.667 10.669 5.89 0 10.667-4.777 10.667-10.67"/>
        <path id="g" d="M21.48 10.731c0 5.893-4.775 10.67-10.666 10.67S.147 16.624.147 10.73C.147 4.84 4.923.062 10.814.062"/>
        <path id="i" d="M17.082 8.572a8.512 8.512 0 1 0-17.021 0 8.512 8.512 0 1 0 17.02 0"/>
        <path id="k" d="M30.41 15.282C30.41 6.911 23.626.124 15.256.124 6.886.124.101 6.911.101 15.282c0 8.372 6.785 15.159 15.155 15.159S30.41 23.654 30.41 15.282"/>
        <path id="m" d="M.166 6.208a7.203 7.203 0 1 1 14.245 2.14A7.202 7.202 0 1 1 .166 6.208"/>
        <path id="o" d="M.107.748L.115.546S.47.336.906.12C.47.336.116.546.116.546L.106.748zM2.275.69L2.316.56V.558c.015-.042.028-.085.043-.13l.005-.01c.013-.041.028-.083.045-.125l.008-.021c.016-.049.036-.099.056-.15-.08.207-.147.396-.198.57zm.2-.575l.001-.001-.001.001zM2.478.11z"/>
        <path id="q" d="M22.94 11.566C22.94 5.243 17.817.117 11.493.117 5.172.117.048 5.243.048 11.567c0 6.323 5.124 11.449 11.445 11.449 6.324 0 11.447-5.126 11.447-11.45"/>
    </defs>
    <g fill="none" fill-rule="evenodd">
        <path fill="#EC967C" d="M117.206 76.148c-.102-.096-2.367.913-2.243 1.366.123.454.843.227 1.626 0 .782-.226 1.482-.658 1.916-.555.431.102.995 2.059 3.792 1.235 2.798-.824-1.32-2.472-2.68-2.575-1.36-.103-1.175-.185-1.175-.185l-1.236.714"/>
        <path fill="#F0B3BD" d="M119.533 74.452c-.47-.134-1.564-.295-2.264-.172-.7.124-3.564 3.4-2.966 3.75.597.35 2.355-1.964 2.828-2.088.474-.123 2.033-1.044 2.033-1.044l.369-.446"/>
        <path fill="#FFCD89" d="M119.106 66.665L115.852 77.1v1.79l1.493-1.499 3.582-10.325-1.82-.401"/>
        <path fill="#911F1E" d="M115.852 78.101v.79l.697-.7c-.219-.03-.461-.062-.697-.09M119.106 66.665L115.852 77.1l1.493.291 3.582-10.325-1.82-.401"/>
        <path fill="#F0B3BD" d="M122.815 76.354c-1.373-.494-1.702-1.675-3.404-1.923-1.704-.247-3.625 2.198-2.775 2.335.852.137 2.06-1.044 2.307-.769.247.275.165 2.197 3.57 1.84 2.246-.235.302-1.483.302-1.483"/>
        <path fill="#0E4E80" d="M130.805 74.898c-.659.06-8.181.535-8.567.891 0 0-.494 2.554 0 3.148l11.643.356s-1.428-1.722-1.977-2.197c-.548-.475-1.099-2.198-1.099-2.198"/>
        <path fill="#146EB4" d="M16.294 124.65l10.138-44.282-2.514-.238-9.094 44.52h1.47M152.866 124.726l-10.139-44.282 2.514-.238 9.095 44.52h-1.47M138.214 124.726l-10.137-44.282 2.514-.238 9.095 44.52h-1.472M31.038 124.586l10.11-44.158-2.507-.237-9.069 44.395h1.466"/>
        <path fill="#146EB4" d="M24.095 81.223h128.752c.157 0 .286-.196.286-.439v-1.308c0-.242-.129-.439-.286-.439H24.095c-.158 0-.285.197-.285.44v1.307c0 .243.127.44.285.44"/>
        <path fill="#F58A07" d="M122.84 42.958a3.736 3.736 0 1 0-7.473 0 3.736 3.736 0 0 0 7.472 0M32.491 38.626a3.198 3.198 0 1 0-6.396 0 3.198 3.198 0 0 0 6.396 0M55.648 42.958a2.474 2.474 0 1 0-4.949 0 2.474 2.474 0 0 0 4.949 0M6.529 13.964a3.198 3.198 0 1 0-6.396 0 3.198 3.198 0 0 0 6.396 0"/>
        <path fill="#FFF" d="M13.752 30.88a1.63 1.63 0 1 0-3.26 0 1.63 1.63 0 0 0 3.26 0"/>
        <path fill="#F58A07" d="M62.094 66.747a1.63 1.63 0 1 0-3.259 0 1.63 1.63 0 0 0 3.26 0"/>
        <path fill="#E6E7E8" d="M137.86 8.55a1.63 1.63 0 1 0-3.26 0 1.63 1.63 0 0 0 3.26 0"/>
        <path fill="#F58A07" d="M92.968 40.615a1.63 1.63 0 1 0-3.26 0 1.63 1.63 0 0 0 3.26 0"/>
        <path fill="#0E4E80" d="M101.55 60.207L93.897 18.74l31.921 5.038-.102.65-31.004-4.891 7.485 40.55-.647.12"/>
        <path fill="#0E4E80" d="M11.565 36.807l26.61 22.654 34.44-11.173L51.167 15.87 11.565 36.807m26.464 23.395L10.398 36.679l40.988-21.671 21.755 32.881 20.896-28.944.535.386-21.454 29.717-.125-.189-34.964 11.343"/>
        <path fill="#F58A07" d="M29.236 39.034l-18.56-1.908-7.56-22.509.43-1.306 7.741 23.05 18.08 1.86 23.374 4.24-1.118-27.186.823-.033 1.16 28.213z"/>
        <path fill="#F58A07" d="M28.76 38.687L3.048 14.263l.567-.598 26.213 24.9z"/>
        <path fill="#F58A07" d="M60.174 67.203l-7.32-23.884-22.89-4.153 8.518 20.508-.76.316-9.099-21.904 24.871 4.511 7.262 23.694 40.682-5.64 16.767-17.355L90.87 40.99l3.065-22.183.268-.068 42.97-10.852-11.065 16.446-.684-.46 9.864-14.66L94.675 19.47l-2.87 20.772 28.197 2.378-18.169 18.808-.142.02-41.517 5.755"/>
        <path fill="#F58A07" d="M101.779 61.275l-29.69-12.807 19.18-8.272 27.868 2.351-.069.822-27.662-2.334-17.237 7.433 27.936 12.05-.326.757"/>
        <path fill="#F58A07" d="M91.52 40.985l-.365-.739 34.701-17.134.364.74-34.7 17.133"/>
        <g transform="translate(118.892 16.306)">
            <mask id="b" fill="#fff">
                <use xlink:href="#a"/>
            </mask>
            <path fill="#FFC53A" d="M14.17 7.176a7.025 7.025 0 1 0-14.048 0 7.025 7.025 0 1 0 14.049 0" mask="url(#b)"/>
            <path fill="#FFEED8" d="M2.427 13.054s-3.051 3.313-3.53 7.919c0 0-.492 3.64 2.848 5.179l1.79-2.262-.291-6.495s-.102-3.336-.114-3.393c-.01-.057-.703-.948-.703-.948" mask="url(#b)"/>
            <path fill="#F0B3BD" d="M8.707 8.934s-.443 1.244-.38 2.439l-1.163 1.608-1.25-.4-.284-.33s.49-1.202.507-2.204c.015-1.003 2.59-1.327 2.59-1.327l-.02.214" mask="url(#b)"/>
            <path fill="#146EB4" d="M5.409 11.656s-2.67 1.128-2.982 1.398c-.312.27-1.16 3.715-.898 7.233.26 3.517 1.8 5.933 1.8 5.933s3.767.93 8.53.011c0 0-.165-4.742-.165-6.96 0 0-1.593-2.372-.67-4.408.796-1.752 1.92-1.256 1.92-1.256l-3.65-1.61-1.852 1.176-1.145-.628-.366-.162-.522-.727" mask="url(#b)"/>
            <path fill="#0E4E80" d="M5.931 12.383s-.596.679-.102 2.098c0 0 2.735-.243 3.916-2.27 0 0-.929-1.323-1.41-1.464 0 0-.463 1.311-2.404 1.636" mask="url(#b)"/>
            <path fill="#0E4E80" d="M6.045 10.845s-.839.57-1.214 1.318c-.374.747-.485 1.568-.31 2.128 0 0 1.104-1.749 1.41-1.908 0 0-.146-.47.114-1.538" mask="url(#b)"/>
            <path fill="#FFEED8" d="M10.864 25.631s1.119-1.296 1.662-2.4c.542-1.106.867-2.248.867-2.248l-1.699-1.712c-2.118-1.396-.97-6.763 1.25-5.664 0 0 1.694 1.22 2.718 2.705 1.021 1.484 1.9 3.531 2.021 4.49.12.959.083 2.647-1.252 4.296-1.333 1.648-2.257 2.218-2.82 2.286-1.276.156-1.869-.185-1.869-.185.054-.647-.19-1.186-.878-1.568" mask="url(#b)"/>
            <path fill="#FFCD89" d="M6.1259999999999994 10.269v-.007.007m.001-.01v-.006.007m2.264-.008c.11-.735.313-1.304.316-1.318-.003.014-.206.583-.316 1.318m-2.264-.002v-.004.004m0-.012c.002 0 .002-.001.002-.002 0 0 0 .002-.002.002m.008-.178v-.003.003m.002-.006v-.007.007m0-.007v-.006.006m0-.007v-.005.005m0-.006v-.004.004m0-.006v-.004.004m0-.005l.002-.017-.002.017m.002-.017V10v.006m0-.006l.001-.006L6.14 10m.001-.006l.002-.022-.002.022m.002-.023c.048-.317.356-.563.743-.749-.387.186-.695.432-.743.75m.743-.75c.003 0 .005-.002.007-.003l-.007.003m.008-.003l.027-.013-.027.013m.028-.013a.075.075 0 0 1 .005-.003l-.005.003m.014-.007l.006-.003-.006.003m.006-.003l.015-.006-.015.006m.015-.007l.013-.006-.013.006m.015-.006l.021-.01-.021.01M7 9.17l.005-.002L7 9.17m.007-.003a.066.066 0 0 0 .005-.002l-.005.002m.007-.003l.013-.006a.106.106 0 0 1-.013.006m.014-.007c.002 0 .004 0 .005-.002l-.005.002m.009-.003l.003-.001-.003.001m.006-.002l.005-.002c-.001 0-.003 0-.005.002m.007-.003l.006-.003a.027.027 0 0 0-.006.003m.023-.01l.005-.002-.005.002m.007-.002l.004-.002c-.001 0-.003 0-.004.002m.008-.004h.003-.003m.006-.002l.004-.002-.004.002m.01-.005h.004-.004m.008-.002l.002-.001h-.002m.005-.002h.004-.004m.007-.002l.003-.001h-.003m.007-.002h0m.024-.01h0m.007-.002h0m.006-.003h0m.024-.008l.003-.002-.003.002m.006-.003l.003-.001-.003.001m.008-.003h0m.076-.027h0m.031-.012h0m.007-.002h0m.007-.002h.001-.001m.031-.01h0M7.371 9.029h.003-.003m.007-.002h.001-.001m.024-.008h0m.007-.002l.002-.001h-.002m.025-.008h.003-.003m.128-.039h.002-.002m.045-.013h.001-.001m.006-.002h0m.038-.011h0m.007-.001h0m.018-.006h0m.007-.001h.001-.001m.006-.002h.002-.002m.036-.01h.004-.004m.009-.002h.001-.001m.005-.002h0m.024-.006h0m.007-.002h0m.006-.001l.004-.001h-.004m.007-.001l.005-.001-.005.001m.007-.002l.006-.001-.006.001m.01-.002l.003-.001H7.8m.006-.001h.003-.003m.007-.002h.003-.003m.006-.002h.004-.004m.007-.001l.003-.001h-.003m.011-.002h.002-.002m.012-.003l.003-.001H7.85m.007 0l.003-.002-.003.001m.006-.001l.005-.002-.005.002m.008-.002l.005-.002-.005.002m.009-.002l.003-.001h-.003m.006 0l.003-.002-.003.001m.007-.002h.003-.003m.006-.001l.005-.001h-.005m.007 0l.013-.004-.013.003m.015-.003l.005-.002-.005.002m.006-.002l.007-.001-.007.001m.035-.008l.013-.003c-.005 0-.008.002-.013.003M7.989 8.857" mask="url(#b)"/>
            <path fill="#EFA1AE" d="M6.526 10.658a2.37 2.37 0 0 1-.442-.035 5.17 5.17 0 0 0 .042-.353v-.008l.001-.002v-.007-.003-.004-.008c.002 0 .002-.001.002-.002.003-.06.006-.118.006-.176v-.003l.002-.003v-.007-.006-.001-.005-.001-.004-.002-.004-.001l.002-.017V10l.001-.006.002-.022c.048-.318.356-.564.743-.75.003 0 .005-.002.007-.003h.001l.027-.013h.001l.005-.003h.002a.026.026 0 0 0 .007-.004l.006-.003.015-.006.013-.007h.002l.021-.01A.026.026 0 0 1 7 9.172H7l.005-.003h.002l.005-.003h.002a.106.106 0 0 0 .013-.007h.001l.005-.003h.004l.003-.002.003-.001.005-.002.002-.001a.027.027 0 0 1 .006-.003.026.026 0 0 0 .007-.003h.002a.024.024 0 0 1 .006-.003h.002l.005-.003h.002l.004-.002.004-.002h.003l.003-.002.004-.002.006-.003h.004l.004-.002.002-.001.003-.002h.004c.001-.001.001-.002.003-.002l.003-.001.004-.002h.001l.018-.008.005-.001.002-.001.005-.002h.002l.004-.003h.002l.022-.008.003-.002h.003l.003-.002.005-.002h.002l.036-.014.027-.009.006-.002a.064.064 0 0 1 .005-.002h.002l.03-.012h.001a.06.06 0 0 0 .005-.002h.002l.005-.002h.001a.064.064 0 0 1 .005-.002l.02-.006.005-.002h.002c.001-.002.003-.002.006-.003l.005-.002h.003l.004-.002h.001a.231.231 0 0 1 .019-.006l.004-.002h.002l.005-.002.002-.001a.387.387 0 0 0 .023-.008h.003l.012-.004.037-.012.076-.023h.002l.043-.013h.001l.005-.002h.002l.005-.002a.794.794 0 0 0 .031-.009h.002l.005-.001h.001l.017-.006h.002l.005-.001h.001l.005-.002h.002l.034-.01h.004l.005-.002h.001l.004-.002h.001l.023-.006h.002l.005-.002h.001l.005-.001.004-.001.003-.001.005-.001h.002l.006-.002.004-.001.003-.001.003-.001h.003l.004-.002h.003l.003-.002h.004l.003-.001.003-.001.008-.002h.002l.005-.002.005-.001.003-.001h.004l.003-.002h.003l.005-.002h.003l.005-.002h.004l.003-.001h.003l.003-.002h.004l.003-.001.003-.001.005-.001h.002l.013-.004h.002l.005-.002h.001l.007-.001a.86.86 0 0 1 .026-.006l.002-.001.013-.003a.16.16 0 0 0 .013-.004h.002a8.44 8.44 0 0 1 .57-.112l.163.026-.015.163c-.003.014-.206.583-.316 1.318a4.71 4.71 0 0 1-1.865.406" mask="url(#b)"/>
            <path fill="#F0B3BD" d="M6.38 2.446c-.167-.014-1.642.265-2.5 1.156-.858.891-1.414 3.817-1.414 3.817s.38.126.738.065c0 0-.04 1.316.56 2.075.604.76 2.508 1.708 4.4-.561 1.89-2.27 1.337-4.01 1.337-4.01L8.496 2.97 6.38 2.446" mask="url(#b)"/>
            <path fill="#1C1F45" d="M7.732 7.677S7.15 9.104 8.994 9.591c0 0-.09-.333.331-.807.424-.474 2.847-1.745 1.852-4.364-.824-2.163-2.756-2.154-3.704-2.476-.708-.24-1.828-1.077-2.67-.603-1.07.604-.493 1.733-.5 1.9 0 0 2.274-1.326 3.749-.155.945.752-.95.753-1.25 2.251-.297 1.498.146 1.64.146 1.64l.688-.117.096.817" mask="url(#b)"/>
            <path fill="#865412" d="M3.168 7.686s.11-.316.829-.226c.717.091 1.702.578 1.94.097 0 0 .034 1.362-1.154 1.239s-.903-.649-1.53-.5l-.085-.61" mask="url(#b)"/>
            <path fill="#865412" d="M3.384 8.796s-.975-.679-.18-1.168c0 0 .113.97.18 1.168" mask="url(#b)"/>
            <path fill="#1C1F45" d="M5.938 7.557c-.24.48-1.224-.006-1.941-.097-.519-.065-.72.082-.793.168-.795.49.18 1.168.18 1.168a4.194 4.194 0 0 1-.094-.507c.578-.12.33.386 1.493.507 1.188.123 1.155-1.24 1.155-1.24" mask="url(#b)"/>
            <path fill="#F0B3BD" d="M6.935 7.115s.235-1.513 1.034-1.192c.8.321.028 2.958-1.094 1.874s.06-.682.06-.682" mask="url(#b)"/>
        </g>
        <g transform="translate(91.707 50.419)">
            <mask id="d" fill="#fff">
                <use xlink:href="#c"/>
            </mask>
            <path fill="#F58A07" d="M.306 7.783c.902-5.059 5.73-8.43 10.787-7.529 5.058.9 8.427 5.73 7.528 10.79-.9 5.058-5.73 8.428-10.787 7.528-5.058-.9-8.427-5.73-7.528-10.79" mask="url(#d)"/>
            <path fill="#1C1F45" d="M6.16 7.276c-.743-.129-2.222-1.935-.96-3.788 1.262-1.853 2.927-.743 4.29-.093.557.266 1.285.232 2.007.199 1.04-.048 2.067-.096 2.535.76.793 1.448-.552 5.15-.936 6.218-.382 1.067 2.343.802 3.524 2.705 1.183 1.903.066 5.23.066 5.23s-2.082.924-2.306.863c-.224-.062-4.79-2.972-4.79-2.972l-5.094-.973s-.34-3.356 2.457-5.474c2.797-2.118.538-3.866.538-3.866l-1.33 1.19" mask="url(#d)"/>
            <path fill="#FAFAFA" d="M7.83 13.84s-2.587.6-3.304 1.012c-.719.411-2.49 5.421-3.132 5.484-.643.063-5.457.507-5.457.507l.053 1.262s6.696.56 7.452-.082c.756-.641 2.926-3.983 2.926-3.983s.433-1.176.456-1.3c.022-.125 1.007-2.9 1.007-2.9" mask="url(#d)"/>
            <path fill="#F0B3BD" d="M8.501 11.167s.407 1.57-.67 2.672c-.24.246-.867.449-1.056.666-4.228 4.806 3.628 2.721 3.628 2.721l.947-2.542c-.488-.528-.8-1.484-.674-2.295l-.441-1.911-1.734.69" mask="url(#d)"/>
            <path fill="#031722" d="M8.572 12.039c.004-.26-.031-.48-.062-.628l.033-.022c.023.156.042.384.03.65" mask="url(#d)"/>
            <path fill="#F0B3BD" d="M8.773 12.422c-.082 0-.158-.002-.229-.006.02-.132.028-.259.028-.377a3.38 3.38 0 0 0-.03-.65l.266-.17 1.12-.598.203-.08c.018-.005.038-.01.06-.014l.348 1.516c-.63.306-1.285.379-1.766.379" mask="url(#d)"/>
            <path fill="#F0B3BD" d="M6.898 5.678S5.633 7.867 5.742 9.451c0 0 .35.143.753.076 0 0-.78 4.526 4.207 1.79l1.299-2.393s.74-1.95.046-2.589-1.577-1.15-1.577-1.15l-2.736.112-.836.381" mask="url(#d)"/>
            <path fill="#FAFAFA" d="M11.35 14.684s3.252.823 3.8 1.512c.551.688 3.87 5.754 4.116 7.555.246 1.8-7.428-.074-7.428-.074s-.078-.72-.745-1.078c0 0 5.048-.098 4.598-.725-.45-.626-2.65-3.032-3.259-2.787-.606.246-.095 3.024-2.255 5.416-1.45 1.605-5.697.004-6.015-.888 0 0 .91-.632.96-1.99.048-1.356.017-2.079.017-2.079s-1.304-.8-1.312-2.023c0 0 1.196-2.104 2.397-3.27 0 0 1.068-.31 1.607-.414-2.407 1.943-1.834 6.742 3.519.845" mask="url(#d)"/>
            <path fill="#1C1F45" d="M11.35 14.684c-.79-.215-2.298-2.389-1.01-4.838 1.287-2.45 1.204-4.993 1.204-4.993l1.557 1.362-.494 3.817-.519 2.91-.738 1.742" mask="url(#d)"/>
            <path fill="#1C1F45" d="M6.4 5.18c.56.871 2.182 3.441 5.093 3.569 2.912.127.467-3.95.467-3.95L8.597 4.2 6.4 5.18" mask="url(#d)"/>
            <path fill="#F0B3BD" d="M9.98 8.444s.202-.574.762-.524c.56.05.605 1.83-.577 1.808l-.91-.605.726-.679" mask="url(#d)"/>
        </g>
        <g transform="translate(27.288 49.1)">
            <mask id="f" fill="#fff">
                <use xlink:href="#e"/>
            </mask>
            <path fill="#FFC53A" d="M23.828 12.65c0-7.516-6.091-13.608-13.604-13.608C2.71-.958-3.381 5.134-3.381 12.65c0 7.515 6.09 13.607 13.605 13.607 7.513 0 13.604-6.092 13.604-13.607" mask="url(#f)"/>
        </g>
        <g transform="translate(27.288 49.1)">
            <mask id="h" fill="#fff">
                <use xlink:href="#g"/>
            </mask>
            <path fill="#F0B3BD" d="M9.905 14.013s.287 1.846-1.148 3.158l.876 1.71 3.5-1.291s-.89-3.167.175-5.341c1.067-2.174-3.403 1.764-3.403 1.764" mask="url(#h)"/>
            <path fill="#FAA337" d="M12.788 15.148" mask="url(#h)"/>
            <path fill="#ED8E9D" d="M10.758 15.602c-.43 0-.747-.08-.96-.17.159-.61.136-1.128.117-1.33-.005-.057-.01-.09-.01-.09s.572-.503 1.257-1.05l1.972-.312c-.255.659-.33 1.343-.345 1.968-.006.18-.005.357 0 .53-.847.34-1.519.454-2.031.454" mask="url(#h)"/>
            <path fill="#146EB4" d="M22.854 23.762c-3.208-4.835-9.122-6.999-9.122-6.999l-.824-.29c-.585 1.945-4.771 2.812-3.564 0 0 0-1.564.24-3.86 1.51-2.297 1.272-5.912 4.219-6.64 6.39-1.465 4.367 3.622 9.103 3.622 9.103.77 0 .886-1.121.886-1.121-2.505-6.297 1.48-9.648 1.76-9.906l-1.645 9.406c6.807 2.42 11.528-.369 11.528-.369-.117-1.148-.086-8.456.2-8.983.336-.618 2.588.126 3.766 2.217 1.717 3.048-4.414 7.723-4.414 7.723-.208 1.599.392 1.948.392 1.948s11.134-5.777 7.915-10.629" mask="url(#h)"/>
            <path fill="#F0B3BD" d="M8.123 5.392S6.076 7.23 5.627 10.75c0 0 .338.126.924.207 0 0-.153 2.194 1.46 3.062 1.613.868 4.132 1.33 5.81-2.84l.555-1.799-1.42-1.895s-3.77-1.243-3.848-1.29c-.079-.046-.985-.803-.985-.803" mask="url(#h)"/>
            <path fill="#1C1F45" d="M6.765 7.222s-2.617-3.22.527-4.848c2.168-1.122 3.158.955 4.505 1.54 1.347.583 3.044.176 3.903 2.349.859 2.172-1.316 5.266-1.74 6.063-.422.798-.201 1.364-.201 1.364s-1.533-1.071-.856-2.662c.678-1.591-.23-1.96-.23-1.96S7.49 8.693 7.84 5.684a8.513 8.513 0 0 0-1.075 1.537" mask="url(#h)"/>
            <path fill="#F0B3BD" d="M12.096 8.94s.438-.522 1.17-.367c.73.154.226 2.692-1.439 2.3l.27-1.933" mask="url(#h)"/>
            <path fill="#1599FB" d="M13.642 16.731l-.734-.258c-.585 1.945-4.771 2.812-3.564 0 0 0-.168.026-.474.105 0 .001-1.057 1.705.734 2.4 1.792.693 3.788-1.303 4.038-2.247" mask="url(#h)"/>
        </g>
        <g transform="translate(2.41 28.171)">
            <mask id="j" fill="#fff">
                <use xlink:href="#i"/>
            </mask>
            <path fill="#146EB4" d="M17.082 8.572a8.512 8.512 0 1 0-17.021 0 8.512 8.512 0 1 0 17.02 0" mask="url(#j)"/>
            <path fill="#1C1F45" d="M4.535 6.407c.014-.116.366-1.854 0-3.215C4.169 1.83 5.027.797 6.781.938c1.753.14 3.227 2.019 5.611 2.3 2.385.282 2.103 4.132 1.587 4.977-.517.845-1.925 3.721-.704 5.969 1.22 2.247 3.75 8.955-4.18 7.526-7.93-1.43.905-3.978.905-3.978l-2.217-4.168-4.206.895s2.027-2.195 1.544-4.196c-.483-2.001-.735-2.572-.586-3.856" mask="url(#j)"/>
            <path fill="#F8BB29" d="M5.12 13.423s-7.355 3.948-9.95 6.393c0 0 .908.876 2.723.626 0 0 4.443-2.66 6.665-3.192l.25-2.035.313-1.792" mask="url(#j)"/>
            <path fill="#F0B3BD" d="M7.217 10.77s.063 1.597-.25 2.035c-.313.438-.97.501-.97.501l-.563 2.504 3.661.407 2.284-1.565-.156-1.628-1.064-.626s-.845.751-1.064.22c-.219-.533 0-2.191 0-2.191l-1.878.344" mask="url(#j)"/>
            <path fill="#FFC53A" d="M5.12 13.423S3.01 16.1 3.127 16.663c.118.563.4 1.526 1.807 1.737 0 0 .822 2.324-.516 3.78 0 0 1.854 2.394 6.266.164 0 0-.516-.47-.375-1.198.14-.727 1.243-4.835 1.69-5.14 0 0 .409 3.288 1.878 4.733 0 0 1.568.466 1.666-.72 0 0-1.949-7.206-2.935-7.816-.985-.61-2.448.195-2.448.195s.008 3.091-2.715 3.091c-2.722 0-1.033-2.286-1.033-2.286s-.516-.061-1.29.22" mask="url(#j)"/>
            <path fill="#031726" d="M9.095 10.426" mask="url(#j)"/>
            <path fill="#EC94A2" d="M7.21 11.606c.023-.445.008-.832.007-.835l1.878-.344c-.002.013-.045.342-.073.75-.703.293-1.486.396-1.811.429" mask="url(#j)"/>
            <path fill="#F0B3BD" d="M10.941 6.49c.037-.266.563-4.382-3.661-3.584-2.634.498-2.378 7.418-.583 7.971 1.133.35 3.578.399 4.244-4.387" mask="url(#j)"/>
            <path fill="#F0B3BD" d="M10.588 7.012s.512-.545.919 0c.406.546-.708 2-1.2 1.617-.49-.383.281-1.617.281-1.617" mask="url(#j)"/>
            <path fill="#1C1F45" d="M5.434 2.886s.636 4.512 5.388 3.9c4.752-.613 1.655-2.327 1.655-2.327S10.129 2.886 10 2.804c-.128-.082-2.663-.48-2.663-.48l-1.903.562" mask="url(#j)"/>
        </g>
        <g transform="translate(36.02 .156)">
            <mask id="l" fill="#fff">
                <use xlink:href="#k"/>
            </mask>
            <path fill="#F58A07" d="M30.41 15.282C30.41 6.911 23.626.124 15.256.124 6.886.124.101 6.911.101 15.282c0 8.372 6.785 15.159 15.155 15.159S30.41 23.654 30.41 15.282" mask="url(#l)"/>
            <path fill="#F0B3BD" d="M15.678 17.932s.374 2.407-1.497 4.118l1.528 1.498 3.979-1.658s-.963-3.423.428-6.257c1.39-2.834-4.438 2.3-4.438 2.3" mask="url(#l)"/>
            <path fill="#FAA337" d="M19.365000000000002 19.411c-.018-.985.094-2.146.522-3.256-.428 1.11-.54 2.271-.521 3.256M15.68 17.929h.001m.002-.001" mask="url(#l)"/>
            <path fill="#ED9EAB" d="M16.755 20.003c-.541 0-.939-.103-1.217-.22a5.022 5.022 0 0 0 .14-1.85v-.001l.003-.002v-.001h.001l.002-.001c.071-.063.786-.689 1.634-1.366l2.57-.407c-.43 1.11-.54 2.271-.523 3.256-1.105.445-1.961.592-2.61.592" mask="url(#l)"/>
            <path fill="#E6E7E8" d="M20.668 21.518l-1.39-.461-.123 1.16.03-.495c-4.145 2.123-4.304.168-4.304.168l.193-.645s-2.166.207-5.16 1.864C6.92 24.767 5.512 31.211 4.52 34.027c-.77 2.189-4.068 8.294-4.068 8.294-.138 1.322 1.805 1.244 1.805 1.244 2.832-3.051 4.603-5.857 5.575-8.19l-.549 5.82c8.875 3.155 15.03-.482 15.03-.482-.152-1.497-.112-11.025.26-11.71.439-.808 3.375.162 4.911 2.889 2.239 3.974-5.755 10.07-5.755 10.07-.271 2.084.511 2.538.511 2.538s14.516-7.53 10.32-13.857c-4.183-6.304-11.893-9.125-11.893-9.125z" mask="url(#l)"/>
            <path fill="#1599FB" d="M19.415 20.003l1.413 1.35s-2.298 2.495-4.941 3.08l-.506-1.866s3.75-2.04 4.034-2.564M15.474 20.003s-.271 1.91-.093 2.564l-1.024 1.61s-.3-1.04-.176-1.96c.124-.918 1.293-2.214 1.293-2.214" mask="url(#l)"/>
            <path fill="#031C3D" d="M9.116 10.329c-.012.178-.01.65.28 1.014.231.288.596.452 1.083.485.488.035.872-.077 1.14-.331.34-.321.406-.786.419-.964l-2.922-.204zm1.352 1.658c-.534-.037-.937-.22-1.197-.546-.408-.511-.31-1.18-.306-1.21l.011-.071 3.223.224.001.074c0 .028.005.705-.47 1.155-.303.286-.727.412-1.262.374z" mask="url(#l)"/>
            <path fill="#F0B3BD" d="M13.355 6.693s-2.668 2.395-3.255 6.985c0 0 .441.164 1.206.27 0 0-.2 2.861 1.903 3.993 2.103 1.131 5.387 1.733 7.575-3.704l.723-2.344-1.85-2.472s-4.916-1.62-5.018-1.68c-.102-.06-1.284-1.048-1.284-1.048" mask="url(#l)"/>
            <path fill="#1C1F45" d="M11.585 9.08s-3.412-4.199.687-6.322c2.825-1.463 4.117 1.246 5.873 2.007 1.757.761 3.969.23 5.088 3.063 1.12 2.833-1.715 6.866-2.267 7.906-.551 1.04-.264 1.778-.264 1.778s-1.998-1.397-1.115-3.471-.3-2.556-.3-2.556-6.758-.488-6.301-4.41a11.1 11.1 0 0 0-1.401 2.004" mask="url(#l)"/>
            <path fill="#865412" d="M11.302 14.266s.424-.807 1.453-.31c1.03.498 1.362 1.453 2.137 1.414.774-.04 1.123-.268 1.123-.268s-.446 2.005-2.113 1.676c-1.666-.33-2.408-1.161-2.408-1.161s-.423-.637-.192-1.35" mask="url(#l)"/>
            <path fill="#865412" d="M11.636 15.502s-.22 1.262-.749.826c-.528-.436-.473-1.846.415-2.062.888-.216.334 1.236.334 1.236" mask="url(#l)"/>
            <path fill="#1C1F45" d="M15.517 15.467s2.106-1.583 2.67-4.239l.783-.065-.529 1.001s-.906 4.408-.087 6.122c0 0-1.302 2.366-4.397 2.089-3.733-.335-2.665-5.73-2.665-5.73l1.066.329 2.183.75.976-.257" mask="url(#l)"/>
            <path fill="#031C3D" d="M11.61 10.503c-.011.178-.01.65.282 1.014.23.288.594.452 1.082.485.488.035.872-.077 1.14-.331.34-.321.406-.786.419-.964l-2.922-.204zm1.353 1.658c-.534-.037-.937-.22-1.197-.546-.408-.511-.31-1.18-.306-1.209l.011-.072 3.223.224.001.074c0 .028.004.705-.47 1.155-.303.286-.727.412-1.262.374z" mask="url(#l)"/>
            <path fill="#0E4E80" d="M14.892 15.37c-.775.04-1.107-.916-2.137-1.413-1.03-.498-1.453.31-1.453.31-.888.215-.943 1.625-.415 2.061.39.322.612-.28.702-.618.246.225.985.806 2.313 1.068 1.667.33 2.113-1.676 2.113-1.676s-.349.229-1.123.268" mask="url(#l)"/>
            <path fill="#6C7173" d="M14.585 10.63s2.28.412 3.95.688" mask="url(#l)"/>
            <path fill="#031C3D" d="M18.522 11.397c-1.652-.273-3.928-.684-3.951-.688l.028-.157c.023.004 2.356.421 4.006.694l-.083.151" mask="url(#l)"/>
            <path fill="#6C7173" d="M10.898 10.373l.758.053" mask="url(#l)"/>
            <path fill="#031C3D" d="M11.65 10.506l-.758-.053.011-.16.758.054-.01.159" mask="url(#l)"/>
            <path fill="#F0B3BD" d="M18.535 11.318s.57-.68 1.524-.478c.954.201.296 3.51-1.874 2.998l.35-2.52" mask="url(#l)"/>
        </g>
        <g transform="translate(63.886 43.455)">
            <mask id="n" fill="#fff">
                <use xlink:href="#m"/>
            </mask>
            <path fill="#146EB4" d="M.166 6.208a7.203 7.203 0 1 1 14.245 2.14A7.202 7.202 0 1 1 .166 6.208" mask="url(#n)"/>
            <g mask="url(#n)">
                <path fill="#F0B3BD" d="M6.87 9.445l-.057 1.611c-.692.345-2.12.71-2.083.775.038.064 3.748.912 3.745.82-.003-.094.433-1.483.433-1.483s-.293-.584.32-2.147c.497-1.267-2.358.424-2.358.424"/>
                <path fill="#EC97A5" d="M7.084 10.378c-.085 0-.173-.004-.26-.013l.021-.618.009-.202s.354-.21.79-.426c.467-.23 1.025-.468 1.351-.468a.53.53 0 0 1 .086.006c.173.032.244.163.135.45v.001l-.001.006-.002.001c0 .002 0 .004-.002.006-.08.207-.146.396-.197.57-.402.32-1.114.687-1.93.687"/>
                <path fill="#F0B3BD" d="M5.763 4.234s-.71 1.026-.796 3.093l.514.124S5.35 9.503 6.527 9.847c1.178.344 2.523.002 3.08-1.423C10.165 7 10.8 5.925 10.8 5.925S9.508 4.452 9.453 4.421c-.056-.032-1.99-.766-1.99-.766l-1.7.579"/>
                <path fill="#1C1F45" d="M8.198 4.393s-2.849 2.112-3.84-.923c-.99-3.035 2.916-1.169 3.796-.764.881.405 2.926-.17 3.32 2.413.391 2.584-1.755 2.63-2.177 4.07 0 0-.478-.172.005-1.487.618-1.685.145-.51.145-.51S8.043 5.8 8.198 4.392"/>
                <path fill="#D07402" d="M3.872 11.439c-.534.432-6.05 4.14-6.05 4.14l2.69 1.684 3.615-3.189-.255-2.635"/>
                <path fill="#F0B3BD" d="M9.17 6.856s.425-.646.722-.205c.298.441-.233 1.76-.719 1.155l-.003-.95"/>
                <path fill="#F58A07" d="M8.892 11.268s3.374.123 3.901.998c.527.875 2.898 5.347 1.633 5.925-1.266.578-4.798.789-5.693 1.505l-1.092-.877s3.94-1.769 3.954-2.233c.015-.464-.632-1.083-.632-1.083l-2.951 4.683s-2.982 1.972-3.046 1.935c-.066-.037-3.938-1.47-3.938-1.47s1.633-7.719 2.31-8.78c.675-1.06 3.458-.715 3.458-.715s-1.374 1 .471 1.13c1.173.084 1.625-1.018 1.625-1.018"/>
                <path fill="#FFF" d="M6.565 12.675c-.557-.136-.868-.351-.922-.64-.093-.485.578-.965.608-.986l.094.133c-.172.122-.603.506-.542.822.04.218.317.395.802.512 2.133.52 2.643-1.172 2.664-1.244l.156.045c-.004.017-.438 1.46-2.066 1.46-.237 0-.5-.031-.794-.102z"/>
            </g>
        </g>
        <g transform="translate(72.596 50.089)">
            <mask id="p" fill="#fff">
                <use xlink:href="#o"/>
            </mask>
            <path fill="#FFCD89" d="M.107.748h2.37v-.64H.108z" mask="url(#p)"/>
        </g>
        <g transform="translate(82.81 7.572)">
            <mask id="r" fill="#fff">
                <use xlink:href="#q"/>
            </mask>
            <path fill="#146EB4" d="M22.94 11.566C22.94 5.243 17.817.117 11.493.117 5.172.117.048 5.243.048 11.567c0 6.323 5.124 11.449 11.445 11.449 6.324 0 11.447-5.126 11.447-11.45" mask="url(#r)"/>
            <path fill="#031C3D" d="M6.356 9.809c-.015.106-.026.334.12.523.169.219.493.33.968.33.47 0 .792-.11.954-.326.143-.19.125-.422.105-.527H6.356zm1.088 1.015c-.53 0-.9-.133-1.1-.395-.245-.32-.138-.707-.134-.723l.018-.06H8.63l.018.058c.005.016.124.406-.117.727-.194.26-.56.393-1.087.393z" mask="url(#r)"/>
            <path fill="#F0B3BD" d="M10.19 14.047s.438 1.702-.125 2.259c-.564.557-2.005.526-2.569.804-.563.279-2.35 3.156-3.445 4.177-1.095 1.021-2.568 2.568-2.63 3.063-.063.495 3.602 6.33 5.888 7.258l.298-.64s-2.742-4.978-2.68-6.525l2.1-1.64 1.753-.99 5.074-.526s1.065-2.537 1.096-2.66c.031-.125-1.798-2.754-1.798-2.754l-.927-3.064-2.035 1.238" mask="url(#r)"/>
            <path fill="#78CEFF" d="M8.531 16.679c-.455.135-.764.298-1.035.431-.563.279-2.35 3.156-3.445 4.177-1.095 1.021-2.568 2.568-2.63 3.063a.353.353 0 0 0 .019.12c1.01-.12 2.504-.22 3.527-.058l2.06-1.609 1.753-.99 1.1-.114c-3.206.04-3.244-2.047-1.349-5.02" mask="url(#r)"/>
            <path fill="#FCB710" d="M8.531 16.679c-.455.135-.764.298-1.035.431-.563.279-2.35 3.156-3.445 4.177-1.095 1.021-2.568 2.568-2.63 3.063a.353.353 0 0 0 .019.12c1.01-.12 2.504-.22 3.527-.058l2.06-1.609 1.753-.99 1.1-.114c-3.206.04-3.244-2.047-1.349-5.02" mask="url(#r)"/>
            <path fill="#B6AA99" d="M10.19 14.048" mask="url(#r)"/>
            <path fill="#EFB264" d="M10.332 14.9V14.9v.001m0-.009v-.002.002m0-.007c-.002-.001-.002-.003-.002-.004 0 .001 0 .003.002.004m-.002-.007l-.002-.023.002.023m-.002-.024c-.042-.422-.13-.769-.138-.803v-.002l2.035-1.239.573 1.894-.343-1.13-2.156 1.042c.01.075.021.155.03.238" mask="url(#r)"/>
            <path fill="#F7D5A0" d="M20.61 37.263s-3.507-5.29-4.164-9.127c0 0-.962-3.573-1.425-4.95-.462-1.378-.994-3.553.705-4.572 1.837-1.102 2.6 2.608 2.694 4.348.094 1.74.03 4.215.03 4.215s2.411 7.394 2.537 9.932l-.376.154" mask="url(#r)"/>
            <path fill="#B6AA99" d="M10.324 15.71h-.002c.038-.232.036-.49.016-.733l.004.034v.011l.008.132c.007.188 0 .38-.026.557m.014-.735v-.007.007m0-.008v-.006.006" mask="url(#r)"/>
            <path fill="#EA97A5" d="M11.576 15.98a7.809 7.809 0 0 1-1.252-.27 3.1 3.1 0 0 0 .026-.556c.481-.028 1.526-.125 2.448-.45l.064.209c-.37.562-.838.885-1.286 1.067m-1.234-.964v-.001m0-.004l-.004-.034v-.001-.007-.001-.006a31.546 31.546 0 0 0-.005-.054c.004.034.005.069.009.103m-.009-.104l-.001-.007.001.007m-.001-.008v-.008.008m0-.01v-.005.005m-.002-.009v-.003.003m-.002-.026v-.001" mask="url(#r)"/>
            <path fill="#B08E60" d="M10.342 15.022v-.006.006m0-.007v-.004.004" mask="url(#r)"/>
            <path fill="#E8953F" d="M10.35 15.154a3.486 3.486 0 0 0-.008-.132v-.006-.001-.004c-.004-.034-.005-.069-.009-.103l-.001-.008V14.9v-.008-.002-.005c-.002-.001-.002-.003-.002-.004v-.003l-.002-.023v-.001c-.008-.083-.02-.163-.03-.238l2.157-1.043.343 1.131c-.922.326-1.967.423-2.448.451" mask="url(#r)"/>
            <path fill="#F7D5A0" d="M9.3 6.34s-2.202 1.879-2.316 5.265l1.021-.007s-.416 2.191 1.322 3.342c1.74 1.15 4.913-.36 4.913-.36s1.758-3.398 1.754-3.766c-.001-.367-1.301-2.871-1.423-2.956-.12-.084-4.25-1.32-4.25-1.32l-1.02-.198" mask="url(#r)"/>
            <path fill="#F0B3BD" d="M9.3 6.34s-2.202 1.879-2.316 5.265l1.021-.007s-.416 2.191 1.322 3.342c1.74 1.15 4.913-.36 4.913-.36s1.758-3.398 1.754-3.766c-.001-.367-1.301-2.871-1.423-2.956-.12-.084-4.25-1.32-4.25-1.32l-1.02-.198" mask="url(#r)"/>
            <path fill="#FFC53A" d="M9.686 16.554s-.547 1.009-.242 1.96c.306.952-.877 1.344.878 1.344.847 0 4.628-3.769 4.628-3.769l2.122 2.494-.964.917s-1.733 1.601-.703 4.572c0 0-1.058 2.042-.729 3.527.328 1.485 1.363 2.762 1.363 2.762s-3.274 2.593-7.752.301c0 0 .634-1.067.751-2.39.117-1.323-.962-3.388-.962-3.388S5.3 23.85 5.68 22.007c.153-.738 1.223-1.393 1.504-2.623.282-1.23.824-2.445.824-2.445.02-.19 1.662-.609 1.679-.385" mask="url(#r)"/>
            <path fill="#FFC53A" d="M18.45 27.177s.064-2.476-.03-4.215c-.094-1.74-.9-5.651-2.737-4.55-1.699 1.02-1.124 3.396-.662 4.773.463 1.378 1.425 4.95 1.425 4.95.025.142.054.286.086.431.474-.274 1.22-.662 2.064-.935l-.145-.454" mask="url(#r)"/>
            <path fill="#FEDF82" d="M10.322 15.71s-.315.248-.979.792c0 0-1.141 1.915 0 4.447l.979-1.091s-.598-2.374 0-4.147M13.029 15.965s-.997 3-2.707 3.893v1.206s2.488-1.048 3.2-2.98c.711-1.93-.493-2.119-.493-2.119" mask="url(#r)"/>
            <path fill="#1C1F45" d="M7.585 8.85c-.018-.085-2.824-3.128.028-5.867 2.854-2.738 3.543 1.48 5.347 2.185 1.805.706 3.983.45 4.222 2.313.24 1.862-.445 3.08.03 4.137.474 1.057 2.448 5.813-3.183 7.187-5.368 1.309-5.18-3.058-5.18-3.058s.582 1.585 2.382 1.521c0 0-1.043-.454-1.219-1.085 0 0 3.534.607 3.569-4.197l.033-1.824s-4.515-.297-4.788-3.33c-.478.525-.878 1.228-1.24 2.019" mask="url(#r)"/>
            <path fill="#DDBA88" d="M11.126 17.27" mask="url(#r)"/>
            <path fill="#05326A" d="M10.579 17.438c-.23 0-.508-.058-.806-.243-.807-.5-.924-1.448-.924-1.448s.38 1.035 1.475 1.399a2.522 2.522 0 0 0 .907.122c-.006.005-.263.17-.652.17" mask="url(#r)"/>
            <path fill="#05326A" d="M11.231 17.268s-.263-.114-.547-.308l.547.308" mask="url(#r)"/>
            <path fill="#031C3D" d="M8.177 9.809c-.015.106-.027.334.12.523.168.219.493.33.967.33.471 0 .793-.11.954-.326.143-.19.125-.422.106-.527H8.177zm1.087 1.015c-.529 0-.9-.133-1.099-.395-.245-.32-.138-.707-.135-.723l.018-.06h2.402l.019.058c.004.016.123.406-.117.727-.195.26-.56.393-1.088.393z" mask="url(#r)"/>
            <path fill="#031C3D" d="M6.289 9.809h1.82v-.162H6.29zM13.764 10.315l-3.386-.507.025-.16 3.385.507-.024.16" mask="url(#r)"/>
            <path fill="#F0B3BD" d="M13.5 10.345s.358-.806 1.104-.35c.748.457.313 2.494-1.333 2.369-1.644-.125.229-2.019.229-2.019" mask="url(#r)"/>
        </g>
        <path fill="#F0B3BD" d="M142.34 55.09c.725 3.955 2.186 7.982 0 8.777 0 0 .987 1.875 5.778-1.61l1.428-6.092-3.06-2.54-3.375.92-.771.545"/>
        <path fill="#146EB4" d="M141.94 62.257s4.548-2.385 6.92-2.126c2.37.258 7.248 1.053 7.248 1.053l-5.562 18.747-1.687 6.635s-5.684-2.307-6.891-4.394c0 0-1.429-10.993-1.758-13.064-.33-2.07 1.73-6.851 1.73-6.851"/>
        <path fill="#F7D5A0" d="M147.41 86.566c.306.108.642.09.894.072.667-.047.751-.094-1.85 2.164-3.458 3.001-11.286 2.741-16.4 2.481-2.867-.145-4.88-.291-4.794.137 1.405 6.984-1.528 12.898-1.725 21.962-.01.453 1.662 1.69.547 3.175-2.655 3.53-1.89 4.23-2.608 4.542-1.24.538-2.137.285-2.692-.422-.554-.708-.038-.174.458-.726.494-.552 1.408-6.14 1.68-9.153.328-3.651-2.046-23.159-.542-25.203 1.656-2.251 19.492-2.67 20.904-1.987 1.41.684 6.127 2.958 6.127 2.958"/>
        <path fill="#CF9BA4" d="M120.241 121.389a1.786 1.786 0 0 1-1.46-.712c-.17-.217-.238-.318-.238-.368 0-.115.352.025.697-.358.494-.552 1.408-6.14 1.68-9.153.021-.242.031-.555.031-.927-.001-3.865-1.077-14.207-1.077-20.128 0-2.103.137-3.648.504-4.148.583-.794 3.178-1.36 6.356-1.73.048.3.147.88.302 1.611-2.668.368-4.752.89-5.267 1.591-1.505 2.045.871 21.553.542 25.204-.262 2.908-1.122 8.211-1.627 9.076a2.494 2.494 0 0 1-.443.042"/>
        <path fill="#0E4E80" d="M123.535 113.382c.212.016 1.379 1.266 1.354 2.224-.021.786-.31 5.207-.31 5.288 0 .027-.229.192-.356 0-.125-.191.061-3.134-.354-3.26-.64-.191-.926 3.524-1.463 3.692-.535.168-2.53.354-3.578.032-1.047-.323-1.412-.576-1.122-.943.291-.367 1.293-.4 1.534-.464.238-.064.914.432 1.794.4.878-.032 2.255-6.987 2.5-6.969"/>
        <path fill="#F0B3BD" d="M147.371 81.66c1.11.392 4.063 5.5.473 8.615-3.456 3-11.284 2.74-16.398 2.48-2.866-.145-4.881-.29-4.794.138 1.404 6.984-1.53 12.898-1.727 21.962-.01.453 1.663 1.69.547 3.174-2.652 3.53-1.89 4.23-2.608 4.543-1.239.538-2.137.285-2.692-.423-.554-.707-.038-.174.458-.726.496-.551 1.409-6.139 1.68-9.152.33-3.651-2.046-23.16-.541-25.204 1.657-2.25 19.493-2.67 20.904-1.986 1.412.683 4.698-3.421 4.698-3.421"/>
        <path fill="#115C96" d="M126.7 83.64s.823 5.818 2.855 8.52l18.622 1.053 2.742-10.657-4.838 1.758-4.113-2.142s-11.9.67-15.268 1.467"/>
        <path fill="#0E4E80" d="M124.925 114.855c.213.015 1.38 1.265 1.355 2.223-.022.787-.31 5.208-.31 5.29 0 .026-.23.19-.354 0-.127-.193.06-3.136-.356-3.26-.64-.193-.926 3.522-1.462 3.69-.537.169-2.532.355-3.578.032-1.048-.322-1.414-.575-1.122-.942.291-.368 1.293-.4 1.532-.465.239-.063.916.433 1.794.4.878-.031 2.256-6.987 2.501-6.968"/>
        <path fill="#F0B3BD" d="M142.699 56.85a55.725 55.725 0 0 1-.36-1.76l.772-.545 1.392-.38a71.433 71.433 0 0 0-.427 2.136c-.48.21-.95.4-1.377.55"/>
        <path fill="#F0B3BD" d="M137.793 40.132s-3.576 4.975-3.69 8.822c0 0 .813.429 1.798.361 0 0-.853 10.357 9.717 5.323l3.703-5.462s2.25-4.526.73-6.232c-1.523-1.706-3.528-3.148-3.528-3.148l-6.626-.385-2.104.72"/>
        <path fill="#1C1F45" d="M137.239 40.96s1.476 2.528 4.037 4.6c1.815 1.468 5.05 1.3 5.05 1.3s-3.261 11.394-2.713 14.822c1.29 8.043 8.113 8.669 8.113 8.669l7.46-9.74s3.49-2.035-1.16-5.026c-2.435-1.567-4.78-2.07-4.606-4.98.173-2.908 1.894-8.32-4.025-11.244-5.92-2.923-9.253-7.55-12.72-5.69-3.468 1.859-4.262 7.053-1.097 10.247 0 0 1.231-2.31 1.661-2.958"/>
        <path fill="#F0B3BD" d="M144.688 47.246s.62-1.337 1.96-1.083c1.34.255 1.02 4.556-1.82 4.224l-2.052-1.677 1.912-1.464"/>
        <path fill="#8B9AB5" d="M126.7 83.64l.01-.003-.01.002m.02-.004l.027-.007-.028.007m.035-.008h0"/>
        <path fill="#0E4E80" d="M145.53 91.84s-10.39-.203-13.973-.203c-.485 0-.844.004-1.038.012-.445.02-.874.044-1.238.117-1.832-2.833-2.581-8.127-2.581-8.127a.214.214 0 0 1 .01-.002l.01-.002.027-.007.007-.001h.002c.153-.036.323-.07.505-.105.816 2.191 5.854 6.621 13.853 6.7a52.462 52.462 0 0 0 4.126-.123c.158 1.107.29 1.74.29 1.74M157.716 122.716l-7.17-32.147 2.514-.238 6.126 32.385h-1.47M127.89 122.716l6.73-29.878-2.515-.238-5.687 30.116h1.471"/>
        <path fill="#0E4E80" d="M131.674 105.182h22.874v-1.939h-22.874z"/>
        <path fill="#CF7406" d="M163.26 59.07a1.356 1.356 0 0 0-1.04-.113c-2.447-.2-8.235-.473-9.313-.186-1.71.455-6.01 8.584-7.242 14.258-2.066 9.515-.135 18.81-.135 18.81s-13.38-.26-15.011-.19c-1.46.063-2.727.187-2.201 1.854.352 1.12 2.54 2.115 6.603 2.446 6.065.494 10.493.991 13.714.991 4.429 0 6.544-.635 7.345-1.95 1.168-1.918.819-3.39.415-5.095-.392-1.657-.93-3.926-.484-8.062.868-8.067 7.817-20.785 7.887-20.912a1.364 1.364 0 0 0-.538-1.851z"/>
        <path fill="#E0B962" d="M163.73000000000002 61.048l.068-.127-.068.127"/>
        <path fill="#FAA337" d="M128.214 92.611c.089-.503.5-.732 1.067-.845-.566.113-.978.342-1.067.845"/>
        <path fill="#02151A" d="M129.281 91.766c.364-.073.793-.098 1.238-.117-.445.02-.874.044-1.238.117"/>
        <path fill="#F58A07" d="M129.926 94.894c-.913-.405-1.449-.885-1.608-1.39a2.316 2.316 0 0 1-.12-.682c0-.075.004-.145.016-.21.089-.504.5-.733 1.067-.846.364-.073.793-.098 1.238-.117.194-.008.553-.012 1.038-.012 3.583 0 13.973.203 13.973.203s-.82-3.944-.82-9.324c0-2.88.235-6.17.955-9.487 1.232-5.674 5.532-13.803 7.242-14.258.335-.09 1.122-.124 2.124-.124 2.224 0 5.501.173 7.188.31a1.368 1.368 0 0 1 1.041.113 1.361 1.361 0 0 1 .538 1.851l-.068.127c-4.226.234-8.277 2.998-11.15 7.488-3.516 5.493-1.361 21.098-1.58 24.064-.063.853-1.811 1.133-4.283 1.133-2.362 0-5.384-.256-8.226-.511-2.843-.256-5.508-.511-7.153-.511-.98 0-1.599.09-1.683.324-.187.528-.018 1.21.27 1.86"/>
        <path fill="#146EB4" d="M141.94 62.257c-2.964 1.202-16.866 12.79-14.649 15.134 2.218 2.345 16.421 1.693 16.421 1.693l.513-4.407s-7.502-.306-6.843-.855c.66-.55 7.596-3.11 7.596-3.11l-3.038-8.455"/>
    </g>
</svg>
