<svg xmlns="http://www.w3.org/2000/svg" xmlns:xlink="http://www.w3.org/1999/xlink" width="331" height="252" viewBox="0 0 331 252">
    <defs>
        <path id="a" d="M28.575 14.466c0-7.822-6.342-14.163-14.163-14.163C6.588.303.246 6.643.246 14.466S6.588 28.63 14.412 28.63c7.82 0 14.163-6.341 14.163-14.164"/>
        <path id="c" d="M.618 15.69C2.435 5.492 12.173-1.303 22.368.512c10.2 1.815 16.994 11.553 15.18 21.751s-11.555 16.993-21.75 15.178C5.597 35.626-1.197 25.888.617 15.69"/>
        <path id="e" d="M43.315 21.634c0-11.879-9.63-21.509-21.509-21.509-11.88 0-21.51 9.63-21.51 21.51 0 11.879 9.63 21.509 21.51 21.509 11.879 0 21.51-9.63 21.51-21.51"/>
        <path id="g" d="M43.315 21.634c0 11.88-9.63 21.51-21.509 21.51-11.88 0-21.51-9.63-21.51-21.51C.297 9.755 9.927.125 21.807.125"/>
        <path id="i" d="M34.445 17.28c0-9.477-7.683-17.16-17.16-17.16C7.805.12.122 7.802.122 17.28c0 9.478 7.683 17.162 17.161 17.162 9.478 0 17.161-7.684 17.161-17.162"/>
        <path id="k" d="M61.322 30.81C61.322 13.931 47.641.25 30.763.25 13.886.25.205 13.932.205 30.81c0 16.877 13.681 30.558 30.558 30.558 16.878 0 30.56-13.681 30.56-30.559"/>
        <path id="m" d="M.334 12.516C1.525 4.584 8.92-.88 16.854.31 24.787 1.5 30.252 8.897 29.06 16.83c-1.19 7.933-8.585 13.398-16.518 12.207C4.609 27.846-.856 20.45.334 12.516"/>
        <path id="o" d="M.216 1.507L.233 1.1S.947.677 1.827.242C.947.677.233 1.1.233 1.1l-.017.407zm4.372-.113c.027-.087.053-.175.083-.266v-.003c.03-.085.057-.172.086-.26l.01-.023c.027-.082.057-.166.09-.25l.017-.044c.033-.098.073-.199.113-.301-.163.416-.296.798-.399 1.147zM4.99.234c.003 0 .003-.001.003-.002 0 0 0 .002-.003.003zM4.997.22V.218.22z"/>
        <path id="q" d="M46.26 23.318C46.26 10.57 35.926.236 23.175.236 10.43.236.096 10.57.096 23.318.096 36.065 10.43 46.4 23.176 46.4c12.75 0 23.083-10.335 23.083-23.082"/>
    </defs>
    <g fill="none" fill-rule="evenodd">
        <path fill="#EC967C" d="M236.642 153.514c-.206-.193-4.774 1.841-4.525 2.755.249.914 1.7.457 3.279 0 1.578-.457 2.99-1.327 3.864-1.12.87.206 2.006 4.151 7.647 2.49 5.642-1.66-2.664-4.983-5.405-5.19-2.74-.208-2.369-.374-2.369-.374l-2.491 1.439"/>
        <path fill="#F0B3BD" d="M241.333 150.094c-.947-.27-3.153-.594-4.565-.345-1.412.25-7.186 6.852-5.98 7.558 1.202.706 4.747-3.958 5.7-4.208.958-.249 4.1-2.104 4.1-2.104l.745-.9"/>
        <path fill="#FFCD89" d="M240.472 134.396l-6.561 21.037v3.61l3.01-3.022 7.222-20.816-3.67-.809"/>
        <path fill="#911F1E" d="M233.91 157.452v1.591l1.406-1.411a78.77 78.77 0 0 0-1.405-.18M240.472 134.396l-6.561 21.038 3.01.587 7.222-20.816-3.67-.809"/>
        <path fill="#F0B3BD" d="M247.95 153.93c-2.767-.997-3.431-3.378-6.863-3.876-3.435-.499-7.31 4.43-5.595 4.706 1.718.277 4.153-2.104 4.651-1.55.499.554.332 4.43 7.2 3.71 4.528-.475.608-2.99.608-2.99"/>
        <path fill="#0E4E80" d="M264.064 150.995c-1.33.12-16.499 1.078-17.276 1.796 0 0-.997 5.148 0 6.345l23.478.718s-2.88-3.472-3.987-4.43c-1.106-.957-2.215-4.429-2.215-4.429"/>
        <path fill="#131F1D" d="M7.266 125.31599999999999l.001-.003v-.291.294"/>
        <path fill="#956B1E" d="M9.051 198.933h-.008.008m.36 0h.002-.003m.09 0h.003-.004m.09-.001h.004-.004m.09 0h.005-.006m.089-.001h.008-.008m.088 0h.011-.01m.085-.001h.018-.018m.089-.001h.02-.02m.088 0l.024-.001h-.024m.088 0l.026-.001h-.026m.09 0l.028-.001h-.029m.086 0l.038-.001h-.038m.086 0l.043-.001h-.043m.088 0l.045-.001h-.045m.174-.002l.059-.001h-.06m.085 0l.07-.002-.07.001m.173-.002l.082-.002-.082.002m7.662-.328l.16-.01-.16.01m.165-.01l.07-.005-.07.004m.087-.005l.059-.004-.059.004m.086-.006c.017 0 .033-.002.05-.003l-.05.003m.085-.005l.039-.003-.039.003m.094-.007h.017-.017M19.31 198.546c.015 0 .03-.002.044-.003l-.043.003m.18-.012h.008-.008m.08-.005l.01-.001h-.01m.24-.015l.006-.001h-.007m1.805-.18c-.01-.01-.109-.108-.262-.29.153.182.253.28.262.29"/>
        <path fill="#9B8866" d="M21.352 198.042a9.42 9.42 0 0 1-2.053-4.68h.001a9.431 9.431 0 0 0 2.052 4.68"/>
        <path fill="#146EB4" d="M33.153 251.296l20.443-89.274-5.069-.48-18.338 89.754h2.964M308.549 251.448l-20.446-89.273 5.07-.48 18.339 89.753h-2.963M279.004 251.448l-20.442-89.273 5.07-.48 18.339 89.753h-2.967M62.885 251.166l20.385-89.023-5.055-.477-18.286 89.5h2.956"/>
        <path fill="#146EB4" d="M48.885 163.746H308.51c.317 0 .577-.396.577-.886v-2.635c0-.49-.26-.886-.577-.886H48.885c-.319 0-.577.397-.577.886v2.635c0 .49.258.886.577.886"/>
        <path fill="#F58A07" d="M248 86.603a7.533 7.533 0 1 0-15.066 0 7.533 7.533 0 0 0 15.066 0M65.815 77.87a6.448 6.448 0 1 0-12.897 0 6.448 6.448 0 0 0 12.897 0M112.51 86.603a4.989 4.989 0 1 0-9.978 0 4.989 4.989 0 0 0 9.977 0M13.462 28.151a6.448 6.448 0 1 0-12.896 0 6.448 6.448 0 0 0 12.896 0"/>
        <path fill="#FFF" d="M28.028 62.255a3.286 3.286 0 1 0-6.572 0 3.286 3.286 0 0 0 6.572 0"/>
        <path fill="#F58A07" d="M125.51 134.562a3.286 3.286 0 1 0-6.572 0 3.286 3.286 0 0 0 6.571 0"/>
        <path fill="#E6E7E8" d="M278.29 17.237a3.286 3.286 0 1 0-6.572 0 3.286 3.286 0 0 0 6.571 0"/>
        <path fill="#F58A07" d="M187.765 81.88a3.286 3.286 0 1 0-6.573.002 3.286 3.286 0 0 0 6.573-.001"/>
        <path fill="#0E4E80" d="M205.07 121.377L189.638 37.78l64.37 10.156-.207 1.313-62.518-9.863 15.093 81.75-1.306.241"/>
        <path fill="#0E4E80" d="M23.617 74.203l53.66 45.671 69.448-22.524-43.253-65.357-79.855 42.21m53.364 47.164L21.264 73.944l82.652-43.689 43.868 66.29 42.137-58.351 1.08.778-43.263 59.908-.253-.38-70.504 22.867"/>
        <path fill="#F58A07" d="M59.25 78.693l-37.427-3.848L6.58 29.47l.868-2.635 15.61 46.468 36.457 3.75 47.134 8.549-2.255-54.806 1.66-.068 2.34 56.879z"/>
        <path fill="#F58A07" d="M58.29 77.992L6.442 28.754l1.144-1.204 52.858 50.198z"/>
        <path fill="#F58A07" d="M121.637 135.482L106.875 87.33l-46.156-8.372 17.176 41.343-1.533.637L58.015 76.78l50.152 9.096 14.643 47.766 82.034-11.37 33.81-34.988-55.119-4.65 6.18-44.72.541-.136L276.904 15.9l-22.312 33.156-1.379-.927 19.89-29.556-81.897 20.678-5.787 41.876 56.86 4.796-36.637 37.916-.286.04-83.719 11.603"/>
        <path fill="#F58A07" d="M205.532 123.53l-59.867-25.818 38.674-16.676 56.196 4.74-.14 1.655-55.78-4.705-34.757 14.986 56.332 24.293-.658 1.525"/>
        <path fill="#F58A07" d="M184.844 82.626l-.734-1.49 69.973-34.541.735 1.49-69.974 34.54"/>
        <g transform="translate(240.04 32.873)">
            <mask id="b" fill="#fff">
                <use xlink:href="#a"/>
            </mask>
            <path fill="#FFC53A" d="M28.575 14.466c0-7.822-6.342-14.163-14.163-14.163C6.588.303.246 6.643.246 14.466S6.588 28.63 14.412 28.63c7.82 0 14.163-6.341 14.163-14.164" mask="url(#b)"/>
            <path fill="#FFEED8" d="M4.894 26.317s-6.153 6.68-7.117 15.964c0 0-.993 7.338 5.741 10.44l3.612-4.56-.588-13.092s-.206-6.726-.23-6.84c-.02-.115-1.418-1.912-1.418-1.912" mask="url(#b)"/>
            <path fill="#F0B3BD" d="M17.558 18.011s-.894 2.508-.767 4.917l-2.346 3.241-2.521-.806-.572-.665s.99-2.423 1.023-4.444c.03-2.021 5.223-2.674 5.223-2.674l-.04.431" mask="url(#b)"/>
            <path fill="#146EB4" d="M10.907 23.498s-5.382 2.275-6.013 2.82c-.628.543-2.34 7.489-1.81 14.58.524 7.092 3.63 11.962 3.63 11.962s7.595 1.876 17.2.022c0 0-.333-9.56-.333-14.032 0 0-3.212-4.782-1.352-8.886 1.605-3.533 3.87-2.533 3.87-2.533l-7.358-3.245-3.734 2.37-2.31-1.265-.737-.327-1.053-1.466" mask="url(#b)"/>
            <path fill="#0E4E80" d="M11.96 24.964s-1.203 1.369-.206 4.23c0 0 5.515-.49 7.897-4.578 0 0-1.874-2.665-2.844-2.95 0 0-.933 2.643-4.847 3.298" mask="url(#b)"/>
            <path fill="#0E4E80" d="M12.19 21.863s-1.692 1.15-2.45 2.657c-.753 1.507-.976 3.162-.624 4.292 0 0 2.226-3.527 2.844-3.848 0 0-.296-.947.23-3.1" mask="url(#b)"/>
            <path fill="#FFEED8" d="M21.907 51.673s2.256-2.614 3.352-4.841c1.093-2.227 1.748-4.531 1.748-4.531L23.58 38.85C19.31 36.037 21.625 25.215 26.1 27.43c0 0 3.418 2.462 5.481 5.453 2.06 2.992 3.834 7.12 4.077 9.053.242 1.932.166 5.336-2.525 8.66-2.688 3.324-4.552 4.472-5.688 4.61-2.571.313-3.767-.375-3.767-.375.11-1.302-.382-2.39-1.771-3.159" mask="url(#b)"/>
            <path fill="#FFCD89" d="M12.352 20.703v-.015.015m.003-.02v-.012.012m4.565-.016c.223-1.48.631-2.629.638-2.655-.007.026-.415 1.175-.638 2.655m-4.565-.004v-.007.007m0-.022c.004-.002.004-.003.004-.005 0 .002 0 .003-.004.005m.017-.36v-.005.005m.003-.013v-.014.014m0-.014v-.011.01m0-.013v-.008.008m0-.011v-.009.009m0-.012v-.009.01m0-.012c0-.011.004-.023.004-.034 0 .011-.004.023-.004.034m.004-.035v-.01.01m0-.012c0-.003 0-.007.003-.01-.003.003-.003.007-.003.01m.003-.01c0-.016.003-.031.003-.046 0 .015-.003.03-.003.046m.003-.047c.097-.64.718-1.135 1.499-1.51-.781.375-1.402.87-1.499 1.51m1.499-1.51c.006-.002.01-.005.013-.007-.003.002-.007.005-.013.007m.016-.007l.053-.026-.053.026m.057-.027l.01-.005-.01.005m.026-.012l.014-.006-.014.006m.014-.007l.03-.012-.03.012m.119-.052a.134.134 0 0 0 .01-.005l-.01.005m.014-.006l.01-.005-.01.005m.013-.006l.026-.012a.213.213 0 0 1-.026.012m.046-.02c.004 0 .007-.002.007-.003l-.007.003m.014-.005l.01-.004c-.004 0-.007.002-.01.004m.013-.006l.013-.005a.054.054 0 0 0-.013.005M14.262 18.425l.01-.004-.01.004m.014-.006l.01-.003c-.004 0-.007.002-.01.003m.016-.006l.007-.003-.007.003m.014-.005l.006-.003c-.003 0-.006.002-.006.003m.02-.01l.006-.001-.006.002m.016-.006l.004-.001-.004.001m.01-.005l.007-.002-.007.002m.013-.005c.004 0 .004-.001.007-.002l-.007.002m.014-.006h0m.05-.018l.003-.002-.003.002m.013-.006h0m.013-.004l.003-.002s-.003 0-.003.002m.047-.018l.006-.003-.006.003m.013-.005l.007-.003-.007.003m.017-.006l.003-.002-.003.002m.152-.056h0m.064-.022h0m.013-.004l.003-.001h-.003m.013-.004h.003-.003m.053-.017v-.001m.01-.003l.004-.001h-.004M14.864 18.204l.006-.002-.006.002m.013-.005h.003-.003m.05-.017h0m.013-.004h0m.05-.016l.007-.001-.007.001m.259-.08h.003-.003m.09-.026h.003-.003m.013-.004h0M15.43 18.03h0m.013-.004h0m.036-.01h0m.014-.004h.003-.003m.013-.003l.003-.001-.003.001m.073-.02l.007-.002-.007.001m.017-.003l.003-.001-.003.001m.01-.004h0m.05-.012l.003-.002-.004.002m.014-.004h0m.013-.003l.007-.002c-.004 0-.007.001-.007.002m.013-.004l.01-.002-.01.002m.014-.003c.003-.001.006-.003.013-.004-.007.001-.01.003-.013.004m.02-.005l.006-.002a.028.028 0 0 0-.006.002m.013-.004l.007-.001h-.007m.013-.002l.007-.001h-.007m.013-.003l.007-.001h-.007m.014-.002l.006-.002-.006.002m.023-.006h.003-.003m.023-.006c.004 0 .007-.001.007-.002 0 0-.003.002-.007.002m.014-.003l.006-.002-.006.002m.013-.003l.01-.003c-.004 0-.007.002-.01.003M15.887 17.909l.007-.001-.007.001m.013-.003l.007-.001-.007.001m.014-.003l.006-.002-.006.002m.013-.003l.01-.003-.01.003m.013-.004l.027-.006-.027.006m.03-.007l.01-.003-.01.003m.027-.006l.013-.003c-.007 0-.01.002-.013.003M16.053 17.869l.027-.006-.027.006M16.11 17.856" mask="url(#b)"/>
            <path fill="#EFA1AE" d="M13.16 21.486a4.78 4.78 0 0 1-.89-.07c.036-.237.062-.475.082-.712v-.001-.015c0-.002.003-.003.003-.005v-.012-.008-.007-.015c.004-.002.004-.003.004-.005.006-.12.013-.238.013-.355v-.005c0-.003.003-.005.003-.008v-.014-.011-.003-.008-.003-.009-.003-.009-.002c0-.011.004-.023.004-.034v-.011-.002c0-.003 0-.007.003-.01 0-.016.003-.031.003-.046.097-.64.718-1.136 1.499-1.511.006-.002.01-.005.013-.007h.003l.053-.026h.004c.003-.003.006-.004.01-.006.003 0 .003-.001.003-.002a.052.052 0 0 0 .013-.005l.014-.006v-.001l.03-.012v-.001a.207.207 0 0 0 .026-.012h.003a.555.555 0 0 1 .044-.02.052.052 0 0 1 .013-.006l.003-.001.01-.005h.004c.003-.003.006-.004.01-.006l.003-.001a.213.213 0 0 0 .026-.012c.004 0 .004 0 .004-.002.003 0 .006-.002.01-.004l.006-.002c.004 0 .007-.002.007-.003.003 0 .003-.002.007-.002l.01-.004.003-.002a.054.054 0 0 1 .013-.005.052.052 0 0 0 .014-.006l.003-.002a.047.047 0 0 1 .013-.004l.003-.002.01-.004.004-.002.01-.003.006-.003.007-.003.007-.002.006-.003.014-.006.006-.002.01-.004.004-.001.006-.004.007-.002.006-.003c.004 0 .004-.001.007-.002s.007-.002.007-.004h.003l.037-.015a.12.12 0 0 1 .01-.003l.003-.002.01-.004h.003l.01-.004.003-.002c.017-.005.03-.011.044-.016l.006-.003c.004 0 .007-.002.007-.002l.007-.003a.11.11 0 0 1 .01-.003l.003-.002.073-.027.053-.018.013-.005a.13.13 0 0 1 .01-.004h.004l.06-.022h.003a.12.12 0 0 0 .01-.004l.003-.001.01-.004h.003l.01-.005.04-.012v-.001l.01-.003.004-.001a.065.065 0 0 1 .013-.004l.01-.004.006-.002.007-.003h.003a.466.466 0 0 1 .037-.013.12.12 0 0 0 .01-.004h.003l.01-.004h.004c.016-.006.033-.01.046-.016l.007-.001.023-.008.076-.024.153-.047h.003l.087-.026h.003l.01-.004h.003l.01-.003a1.602 1.602 0 0 0 .077-.022h.003l.033-.01h.004l.01-.004h.003l.01-.003.003-.001.07-.02h.007l.01-.003.003-.001c.003 0 .003-.002.007-.003h.003c.017-.005.03-.009.046-.012l.004-.002c.003 0 .006 0 .01-.002h.003c.003-.002.007-.003.01-.003l.007-.002.006-.002.01-.002.004-.001c.003-.001.006-.003.013-.004l.007-.001.006-.002.007-.002.007-.001.006-.002.007-.001.006-.003.007-.001.007-.002.006-.002.017-.004h.003l.01-.003a.108.108 0 0 0 .01-.003c.004 0 .007-.001.007-.002l.007-.001.006-.002.007-.001.01-.003.006-.002a.108.108 0 0 0 .01-.002c.004 0 .004-.001.007-.002l.007-.001.006-.002.007-.001c.003-.001.003-.002.007-.002l.006-.002.007-.001.01-.003h.003l.027-.007h.003l.01-.004h.003a.082.082 0 0 1 .014-.003l.013-.003.04-.01h.003l.027-.007a.322.322 0 0 0 .026-.007h.004c.468-.109.877-.182 1.15-.226l.328.053-.03.328c-.007.027-.415 1.176-.638 2.656a9.5 9.5 0 0 1-3.76.819" mask="url(#b)"/>
            <path fill="#F0B3BD" d="M12.864 4.932c-.336-.03-3.31.534-5.04 2.33-1.731 1.797-2.85 7.694-2.85 7.694s.764.255 1.488.131c0 0-.083 2.654 1.13 4.184 1.215 1.531 5.056 3.443 8.87-1.131 3.81-4.575 2.697-8.083 2.697-8.083l-2.026-4.071-4.27-1.054" mask="url(#b)"/>
            <path fill="#1C1F45" d="M15.591 15.477s-1.172 2.877 2.545 3.86c0 0-.183-.673.668-1.629.854-.955 5.74-3.517 3.734-8.797-1.66-4.361-5.558-4.343-7.468-4.991-1.429-.485-3.688-2.172-5.386-1.216-2.156 1.217-.993 3.493-1.006 3.828 0 0 4.584-2.672 7.558-.31 1.907 1.515-1.914 1.518-2.518 4.537-.602 3.02.292 3.305.292 3.305l1.389-.234.192 1.647" mask="url(#b)"/>
            <path fill="#865412" d="M6.389 15.496s.222-.639 1.67-.456c1.446.184 3.433 1.164 3.914.195 0 0 .067 2.746-2.328 2.498-2.396-.248-1.821-1.308-3.084-1.007l-.172-1.23" mask="url(#b)"/>
            <path fill="#865412" d="M6.824 17.733s-1.967-1.368-.362-2.354c0 0 .226 1.955.362 2.354" mask="url(#b)"/>
            <path fill="#1C1F45" d="M11.973 15.235c-.481.969-2.468-.011-3.913-.195-1.047-.132-1.452.164-1.598.339-1.605.986.362 2.354.362 2.354-.053-.162-.126-.582-.19-1.023 1.167-.24.665.78 3.01 1.023 2.396.247 2.33-2.498 2.33-2.498" mask="url(#b)"/>
            <path fill="#F0B3BD" d="M13.983 14.343s.475-3.05 2.087-2.402c1.611.647.056 5.963-2.206 3.778-2.263-2.185.12-1.376.12-1.376" mask="url(#b)"/>
        </g>
        <g transform="translate(185.223 101.644)">
            <mask id="d" fill="#fff">
                <use xlink:href="#c"/>
            </mask>
            <path fill="#F58A07" d="M.618 15.69C2.435 5.492 12.173-1.303 22.368.512c10.2 1.815 16.994 11.553 15.18 21.751s-11.555 16.993-21.75 15.178C5.597 35.626-1.197 25.888.617 15.69" mask="url(#d)"/>
            <path fill="#1C1F45" d="M12.422 14.667c-1.498-.258-4.482-3.899-1.937-7.635 2.545-3.736 5.904-1.497 8.651-.188 1.123.536 2.592.469 4.047.401 2.1-.097 4.17-.194 5.113 1.532 1.598 2.919-1.113 10.383-1.887 12.535-.771 2.152 4.724 1.618 7.106 5.455 2.385 3.836.133 10.542.133 10.542s-4.2 1.864-4.651 1.74c-.452-.123-9.658-5.992-9.658-5.992l-10.273-1.96S8.38 24.33 14.02 20.06c5.641-4.269 1.086-7.794 1.086-7.794l-2.684 2.4" mask="url(#d)"/>
            <path fill="#FAFAFA" d="M15.79 27.9s-5.219 1.212-6.664 2.04c-1.448.83-5.02 10.93-6.315 11.057-1.296.127-11.004 1.022-11.004 1.022l.107 2.545S5.415 45.694 6.94 44.4c1.525-1.294 5.9-8.03 5.9-8.03s.874-2.372.92-2.623c.044-.251 2.03-5.846 2.03-5.846" mask="url(#d)"/>
            <path fill="#F0B3BD" d="M17.143 22.513s.82 3.163-1.352 5.387c-.485.495-1.748.905-2.13 1.342-8.525 9.689 7.316 5.486 7.316 5.486l1.91-5.125c-.983-1.065-1.615-2.993-1.359-4.626l-.89-3.853-3.495 1.389" mask="url(#d)"/>
            <path fill="#031722" d="M17.286 24.27a5.815 5.815 0 0 0-.127-1.266l.067-.045c.046.315.086.775.06 1.311" mask="url(#d)"/>
            <path fill="#F0B3BD" d="M17.691 25.043c-.166 0-.319-.005-.462-.012.04-.266.057-.522.057-.76a6.81 6.81 0 0 0-.06-1.312l.535-.341 2.259-1.207.409-.162.12-.026.703 3.055c-1.272.617-2.59.765-3.561.765" mask="url(#d)"/>
            <path fill="#F0B3BD" d="M13.91 11.447s-2.551 4.412-2.332 7.607c0 0 .708.288 1.518.152 0 0-1.571 9.125 8.485 3.61l2.618-4.825s1.492-3.931.093-5.219c-1.398-1.288-3.179-2.318-3.179-2.318l-5.518.224-1.685.77" mask="url(#d)"/>
            <path fill="#FAFAFA" d="M22.887 29.603s6.558 1.66 7.664 3.047c1.11 1.388 7.801 11.601 8.3 15.232.495 3.63-14.98-.15-14.98-.15s-.157-1.452-1.502-2.173c0 0 10.18-.198 9.272-1.46-.907-1.263-5.345-6.113-6.571-5.619-1.223.495-.193 6.097-4.548 10.918-2.924 3.237-11.489.008-12.13-1.79 0 0 1.837-1.275 1.937-4.01.096-2.736.033-4.193.033-4.193s-2.628-1.614-2.644-4.078c0 0 2.412-4.242 4.833-6.592 0 0 2.153-.627 3.24-.835-4.854 3.916-3.698 13.591 7.096 1.703" mask="url(#d)"/>
            <path fill="#1C1F45" d="M22.887 29.603c-1.591-.433-4.635-4.815-2.037-9.754 2.595-4.938 2.43-10.065 2.43-10.065l3.139 2.745-.997 7.695-1.047 5.869-1.488 3.51" mask="url(#d)"/>
            <path fill="#1C1F45" d="M12.907 10.444c1.13 1.756 4.399 6.937 10.27 7.194 5.87.257.94-7.964.94-7.964l-6.781-1.207-4.429 1.977" mask="url(#d)"/>
            <path fill="#F0B3BD" d="M20.126 17.024s.406-1.159 1.535-1.058c1.13.101 1.22 3.688-1.163 3.647l-1.834-1.221 1.462-1.368" mask="url(#d)"/>
        </g>
        <g transform="translate(55.323 98.986)">
            <mask id="f" fill="#fff">
                <use xlink:href="#e"/>
            </mask>
            <path fill="#FFC53A" d="M48.049 25.502c0-15.151-12.283-27.433-27.433-27.433-15.152 0-27.434 12.282-27.434 27.433 0 15.15 12.282 27.433 27.434 27.433 15.15 0 27.433-12.283 27.433-27.433" mask="url(#f)"/>
        </g>
        <g transform="translate(55.323 98.986)">
            <mask id="h" fill="#fff">
                <use xlink:href="#g"/>
            </mask>
            <path fill="#F0B3BD" d="M19.973 28.25s.579 3.721-2.316 6.367l1.768 3.446 7.06-2.603s-1.799-6.383.351-10.766c2.15-4.382-6.863 3.556-6.863 3.556" mask="url(#h)"/>
            <path fill="#FAA337" d="M25.787 30.54" mask="url(#h)"/>
            <path fill="#ED8E9D" d="M21.693 31.453c-.865 0-1.505-.16-1.937-.343a8.052 8.052 0 0 0 .238-2.679c-.01-.117-.02-.181-.02-.181s1.152-1.016 2.535-2.12l3.975-.628c-.514 1.329-.666 2.707-.696 3.968-.01.363-.01.72 0 1.07-1.707.686-3.062.913-4.095.913" mask="url(#h)"/>
            <path fill="#146EB4" d="M46.084 47.904c-6.469-9.748-18.394-14.11-18.394-14.11l-1.661-.584c-1.18 3.92-9.622 5.67-7.186 0 0 0-3.155.482-7.786 3.045-4.63 2.563-11.92 8.504-13.39 12.882-2.952 8.803 7.305 18.35 7.305 18.35 1.554 0 1.787-2.26 1.787-2.26-5.05-12.694 2.983-19.45 3.549-19.97L6.991 64.22c13.726 4.879 23.247-.744 23.247-.744-.237-2.315-.174-17.048.402-18.11.678-1.247 5.22.253 7.595 4.469 3.462 6.145-8.902 15.57-8.902 15.57-.42 3.224.791 3.927.791 3.927s22.452-11.645 15.96-21.428" mask="url(#h)"/>
            <path fill="#F0B3BD" d="M16.38 10.87s-4.127 3.704-5.033 10.802c0 0 .681.253 1.863.418 0 0-.308 4.423 2.944 6.172 3.253 1.75 8.332 2.68 11.717-5.726l1.117-3.626-2.861-3.821s-7.603-2.505-7.762-2.599c-.158-.093-1.985-1.62-1.985-1.62" mask="url(#h)"/>
            <path fill="#1C1F45" d="M13.642 14.56s-5.277-6.492 1.063-9.774c4.37-2.262 6.368 1.926 9.084 3.103 2.717 1.177 6.138.356 7.87 4.736 1.731 4.38-2.654 10.618-3.507 12.225-.853 1.607-.408 2.75-.408 2.75s-3.09-2.16-1.724-5.368c1.365-3.207-.466-3.952-.466-3.952s-10.451-.754-9.745-6.819a17.163 17.163 0 0 0-2.167 3.1" mask="url(#h)"/>
            <path fill="#F0B3BD" d="M24.392 18.023s.882-1.052 2.358-.74c1.475.311.456 5.427-2.9 4.636l.542-3.896" mask="url(#h)"/>
            <path fill="#1599FB" d="M27.508 33.73l-1.48-.52c-1.18 3.92-9.62 5.67-7.185 0 0 0-.34.052-.957.211-.001.003-2.13 3.438 1.481 4.837 3.613 1.398 7.638-2.625 8.141-4.528" mask="url(#h)"/>
        </g>
        <g transform="translate(5.157 56.793)">
            <mask id="j" fill="#fff">
                <use xlink:href="#i"/>
            </mask>
            <path fill="#146EB4" d="M34.445 17.28c0-9.477-7.683-17.16-17.16-17.16C7.805.12.122 7.802.122 17.28c0 9.478 7.683 17.162 17.161 17.162 9.478 0 17.161-7.684 17.161-17.162" mask="url(#j)"/>
            <path fill="#1C1F45" d="M9.145 12.916c.027-.234.738-3.737 0-6.482s.992-4.827 4.528-4.543c3.536.284 6.508 4.07 11.316 4.638 4.808.568 4.24 8.329 3.199 10.032-1.041 1.704-3.88 7.502-1.42 12.033 2.46 4.53 7.563 18.054-8.428 15.173-15.99-2.881 1.825-8.018 1.825-8.018l-4.47-8.403-8.483 1.804s4.088-4.426 3.115-8.46c-.974-4.034-1.483-5.185-1.182-7.774" mask="url(#j)"/>
            <path fill="#F8BB29" d="M10.326 27.061S-4.507 35.021-9.739 39.95c0 0 1.83 1.767 5.49 1.262 0 0 8.96-5.363 13.44-6.436l.504-4.101.631-3.613" mask="url(#j)"/>
            <path fill="#F0B3BD" d="M14.554 21.714s.126 3.218-.505 4.101c-.63.884-1.956 1.01-1.956 1.01l-1.136 5.048 7.383.82 4.606-3.155-.315-3.28-2.146-1.263s-1.703 1.514-2.145.442c-.442-1.073 0-4.417 0-4.417l-3.786.694" mask="url(#j)"/>
            <path fill="#FFC53A" d="M10.326 27.061s-4.259 5.395-4.022 6.531c.237 1.136.804 3.076 3.644 3.502 0 0 1.656 4.685-1.041 7.62 0 0 3.738 4.826 12.635.33 0 0-1.041-.946-.757-2.413.284-1.467 2.508-9.749 3.407-10.364 0 0 .827 6.63 3.79 9.544 0 0 3.16.938 3.358-1.452 0 0-3.93-14.528-5.917-15.758-1.988-1.23-4.938.394-4.938.394s.016 6.23-5.474 6.23-2.083-4.608-2.083-4.608-1.04-.123-2.602.444" mask="url(#j)"/>
            <path fill="#031726" d="M18.339999999999996 21.020999999999997" mask="url(#j)"/>
            <path fill="#EC94A2" d="M14.54 23.397c.044-.896.014-1.677.014-1.683l3.786-.694c-.004.027-.09.69-.147 1.513-1.418.59-2.997.799-3.653.864" mask="url(#j)"/>
            <path fill="#F0B3BD" d="M22.063 13.084c.074-.536 1.135-8.834-7.383-7.225-5.31 1.004-4.795 14.955-1.175 16.07 2.284.704 7.214.803 8.558-8.845" mask="url(#j)"/>
            <path fill="#F0B3BD" d="M21.351 14.137s1.032-1.1 1.852 0c.82 1.1-1.427 4.032-2.417 3.26-.99-.772.565-3.26.565-3.26" mask="url(#j)"/>
            <path fill="#1C1F45" d="M10.957 5.819s1.283 9.095 10.866 7.86c9.583-1.235 3.336-4.69 3.336-4.69s-4.735-3.171-4.994-3.336c-.259-.165-5.37-.97-5.37-.97L10.957 5.82" mask="url(#j)"/>
        </g>
        <g transform="translate(72.93 .315)">
            <mask id="l" fill="#fff">
                <use xlink:href="#k"/>
            </mask>
            <path fill="#F58A07" d="M61.322 30.81C61.322 13.931 47.641.25 30.763.25 13.886.25.205 13.932.205 30.81c0 16.877 13.681 30.558 30.558 30.558 16.878 0 30.56-13.681 30.56-30.559" mask="url(#l)"/>
            <path fill="#F0B3BD" d="M31.614 36.152s.755 4.851-3.018 8.301l3.08 3.019L39.7 44.13s-1.94-6.9.863-12.614-8.949 4.636-8.949 4.636" mask="url(#l)"/>
            <path fill="#FAA337" d="M31.332 39.88h-.001c.536-2.05.288-3.699.284-3.728.004.03.253 1.678-.283 3.729m7.718-.749c-.037-1.984.188-4.325 1.053-6.563-.864 2.238-1.089 4.578-1.053 6.563m-7.43-2.984v-.001m.006-.005" mask="url(#l)"/>
            <path fill="#ED9EAB" d="M33.785 40.326c-1.09 0-1.892-.207-2.453-.445.536-2.05.287-3.7.283-3.729v-.001l.005-.003v-.001l.002-.002.004-.003a100.76 100.76 0 0 1 3.295-2.753l5.182-.82c-.865 2.238-1.09 4.579-1.053 6.563-2.23.897-3.956 1.194-5.265 1.194" mask="url(#l)"/>
            <path fill="#E6E7E8" d="M41.676 43.38l-2.803-.93-.248 2.341.06-1c-8.356 4.28-8.678.339-8.678.339l.39-1.3s-4.37.417-10.407 3.759-8.874 16.332-10.873 22.01C7.563 73.01.914 85.319.914 85.319c-.28 2.664 3.639 2.509 3.639 2.509 5.712-6.153 9.283-11.808 11.241-16.512L14.69 83.049c17.896 6.36 30.308-.97 30.308-.97-.309-3.02-.227-22.228.525-23.61.883-1.627 6.805.328 9.901 5.825 4.514 8.012-11.605 20.3-11.605 20.3-.547 4.202 1.032 5.119 1.032 5.119S74.12 74.53 65.658 61.776c-8.435-12.709-23.982-18.395-23.982-18.395z" mask="url(#l)"/>
            <path fill="#1599FB" d="M39.15 40.326l2.85 2.72s-4.635 5.032-9.965 6.21l-1.02-3.76s7.564-4.113 8.135-5.17M31.204 40.326s-.548 3.85-.19 5.17l-2.063 3.244s-.605-2.097-.355-3.949c.25-1.852 2.608-4.465 2.608-4.465" mask="url(#l)"/>
            <path fill="#031C3D" d="M18.381 20.823c-.023.36-.02 1.31.567 2.044.466.581 1.2.91 2.183.98.985.068 1.758-.157 2.3-.67.684-.646.817-1.584.843-1.943l-5.893-.41zm2.728 3.343c-1.078-.075-1.89-.445-2.414-1.1-.823-1.032-.626-2.382-.617-2.438l.023-.146 6.498.453.002.147c.001.058.01 1.422-.95 2.329-.609.577-1.464.83-2.542.755z" mask="url(#l)"/>
            <path fill="#F0B3BD" d="M26.93 13.493s-5.38 4.83-6.563 14.083c0 0 .89.33 2.43.545 0 0-.402 5.766 3.839 8.047 4.24 2.281 10.863 3.494 15.275-7.465l1.457-4.728-3.73-4.981s-9.913-3.267-10.12-3.389c-.205-.121-2.588-2.112-2.588-2.112" mask="url(#l)"/>
            <path fill="#1C1F45" d="M23.36 18.304S16.48 9.84 24.748 5.56c5.697-2.95 8.302 2.51 11.843 4.045 3.542 1.535 8.002.464 10.26 6.175 2.258 5.71-3.46 13.843-4.572 15.938-1.112 2.096-.532 3.585-.532 3.585s-4.029-2.816-2.248-6.998c1.78-4.181-.607-5.153-.607-5.153s-13.626-.982-12.706-8.89c-1.086 1.222-2.014 2.58-2.824 4.04" mask="url(#l)"/>
            <path fill="#865412" d="M22.79 28.76s.855-1.626 2.93-.623c2.077 1.003 2.747 2.928 4.309 2.849 1.561-.079 2.264-.54 2.264-.54s-.899 4.042-4.26 3.378c-3.36-.663-4.856-2.34-4.856-2.34s-.852-1.284-.386-2.724" mask="url(#l)"/>
            <path fill="#865412" d="M23.464 31.252s-.445 2.545-1.51 1.666c-1.066-.88-.954-3.722.837-4.158 1.79-.434.673 2.492.673 2.492" mask="url(#l)"/>
            <path fill="#1C1F45" d="M31.29 31.182s4.246-3.192 5.384-8.545l1.578-.132-1.066 2.018s-1.827 8.887-.176 12.342c0 0-2.625 4.77-8.865 4.21-7.53-.674-5.375-11.55-5.375-11.55l2.15.662 4.402 1.514 1.967-.519" mask="url(#l)"/>
            <path fill="#031C3D" d="M23.413 21.174c-.024.36-.021 1.31.566 2.044.466.581 1.2.91 2.183.979.985.069 1.758-.156 2.3-.668.684-.648.817-1.585.843-1.944l-5.892-.41zm2.727 3.343c-1.078-.075-1.89-.445-2.413-1.101-.824-1.031-.627-2.38-.618-2.438l.023-.145 6.498.453.002.147c.001.058.01 1.422-.95 2.329-.609.577-1.464.83-2.542.755z" mask="url(#l)"/>
            <path fill="#0E4E80" d="M30.029 30.986c-1.562.079-2.232-1.846-4.308-2.85-2.076-1.002-2.93.624-2.93.624-1.79.436-1.903 3.279-.838 4.158.786.648 1.235-.566 1.416-1.248.496.455 1.986 1.626 4.665 2.154 3.36.664 4.259-3.378 4.259-3.378s-.703.461-2.264.54" mask="url(#l)"/>
            <path fill="#6C7173" d="M29.41 21.431s4.597.83 7.965 1.387" mask="url(#l)"/>
            <path fill="#031C3D" d="M37.35 22.976c-3.332-.55-7.922-1.378-7.968-1.387l.057-.316c.046.008 4.75.85 8.079 1.4l-.169.303" mask="url(#l)"/>
            <path fill="#6C7173" d="M21.975 20.913l1.529.107" mask="url(#l)"/>
            <path fill="#031C3D" d="M23.493 21.18l-1.53-.107.023-.32 1.529.106-.022.32" mask="url(#l)"/>
            <path fill="#F0B3BD" d="M37.375 22.818s1.151-1.371 3.075-.965c1.923.406.595 7.077-3.78 6.045l.705-5.08" mask="url(#l)"/>
        </g>
        <g transform="translate(129.121 87.606)">
            <mask id="n" fill="#fff">
                <use xlink:href="#m"/>
            </mask>
            <path fill="#146EB4" d="M.334 12.516C1.525 4.584 8.92-.88 16.854.31 24.787 1.5 30.252 8.897 29.06 16.83c-1.19 7.933-8.585 13.398-16.518 12.207C4.609 27.846-.856 20.45.334 12.516" mask="url(#n)"/>
            <g mask="url(#n)">
                <path fill="#F0B3BD" d="M13.854 19.04l-.116 3.25c-1.396.695-4.276 1.431-4.2 1.56.077.13 7.558 1.84 7.552 1.653-.007-.188.873-2.989.873-2.989s-.59-1.176.645-4.327c1.003-2.554-4.754.854-4.754.854"/>
                <path fill="#EC97A5" d="M14.285 20.922c-.172 0-.348-.008-.525-.025l.044-1.248.016-.407s.715-.423 1.595-.859c.94-.464 2.066-.943 2.724-.943.063 0 .12.004.173.012.349.066.492.33.272.908v.002c0 .004-.003.007-.003.011 0 .001 0 .002-.003.003 0 .004 0 .008-.004.012-.162.417-.295.799-.398 1.148-.81.647-2.246 1.386-3.89 1.386"/>
                <path fill="#F0B3BD" d="M11.62 8.536s-1.431 2.069-1.604 6.235l1.037.25s-.266 4.137 2.11 4.831c2.375.694 5.086.003 6.209-2.868 1.126-2.872 2.408-5.038 2.408-5.038s-2.608-2.97-2.717-3.034c-.113-.064-4.014-1.543-4.014-1.543l-3.428 1.167"/>
                <path fill="#1C1F45" d="M16.531 8.856s-5.744 4.259-7.744-1.86C6.79.877 14.667 4.64 16.442 5.456c1.777.815 5.9-.345 6.694 4.864.79 5.21-3.538 5.301-4.389 8.206 0 0-.963-.348.01-2.999 1.246-3.397.292-1.027.292-1.027s-2.83-2.807-2.518-5.644"/>
                <path fill="#D07402" d="M7.807 23.06c-1.076.873-12.2 8.346-12.2 8.346l5.427 3.396 7.288-6.429-.515-5.313"/>
                <path fill="#F0B3BD" d="M18.491 13.822s.857-1.303 1.455-.413c.602.889-.468 3.55-1.448 2.329l-.007-1.916"/>
                <path fill="#F58A07" d="M17.93 22.716s6.804.248 7.867 2.012c1.063 1.763 5.844 10.779 3.292 11.945-2.551 1.166-9.674 1.59-11.478 3.034l-2.203-1.769s7.944-3.565 7.974-4.5c.03-.936-1.276-2.184-1.276-2.184l-5.95 9.441s-6.013 3.976-6.143 3.9c-.133-.074-7.94-2.961-7.94-2.961S5.364 26.072 6.73 23.933c1.362-2.14 6.973-1.442 6.973-1.442s-2.77 2.015.95 2.278c2.366.168 3.276-2.053 3.276-2.053"/>
                <path fill="#FFF" d="M13.239 25.552c-1.123-.273-1.751-.707-1.86-1.291-.187-.976 1.166-1.945 1.225-1.985l.19.268c-.346.244-1.216 1.018-1.093 1.656.083.44.64.797 1.618 1.033 4.302 1.046 5.328-2.363 5.372-2.508l.315.09c-.01.034-.883 2.943-4.166 2.943-.478 0-1.01-.063-1.601-.206z"/>
            </g>
        </g>
        <g transform="translate(146.685 100.98)">
            <mask id="p" fill="#fff">
                <use xlink:href="#o"/>
            </mask>
            <path fill="#FFCD89" d="M.216 1.507h4.78V.217H.217z" mask="url(#p)"/>
        </g>
        <g transform="translate(167.283 15.265)">
            <mask id="r" fill="#fff">
                <use xlink:href="#q"/>
            </mask>
            <path fill="#146EB4" d="M46.26 23.318C46.26 10.57 35.926.236 23.175.236 10.43.236.096 10.57.096 23.318.096 36.065 10.43 46.4 23.176 46.4c12.75 0 23.083-10.335 23.083-23.082" mask="url(#r)"/>
            <path fill="#031C3D" d="M12.817 19.774c-.03.214-.053.675.243 1.056.339.44.993.663 1.95.663.95 0 1.598-.22 1.924-.656.289-.384.252-.85.212-1.063h-4.329zm2.193 2.046c-1.066 0-1.814-.268-2.216-.795-.495-.645-.279-1.426-.272-1.459l.036-.118h4.844l.037.114c.01.034.249.82-.236 1.467-.392.525-1.13.791-2.193.791z" mask="url(#r)"/>
            <path fill="#F0B3BD" d="M20.548 28.319s.884 3.43-.252 4.553c-1.137 1.123-4.044 1.06-5.18 1.622-1.136.561-4.737 6.362-6.947 8.421-2.209 2.058-5.179 5.177-5.305 6.175-.126.998 7.266 12.76 11.874 14.632l.6-1.291S9.812 52.396 9.938 49.277l4.232-3.306 3.535-1.996 10.233-1.06s2.146-5.115 2.21-5.365c.062-.249-3.625-5.551-3.625-5.551l-1.87-6.175-4.104 2.495" mask="url(#r)"/>
            <path fill="#78CEFF" d="M17.203 33.624c-.917.274-1.542.601-2.087.87-1.136.561-4.737 6.362-6.947 8.421-2.209 2.058-5.179 5.177-5.305 6.175a.712.712 0 0 0 .04.242c2.036-.244 5.05-.442 7.113-.117l4.152-3.244 3.535-1.996 2.22-.23c-6.466.08-6.542-4.127-2.721-10.121" mask="url(#r)"/>
            <path fill="#FCB710" d="M17.203 33.624c-.917.274-1.542.601-2.087.87-1.136.561-4.737 6.362-6.947 8.421-2.209 2.058-5.179 5.177-5.305 6.175a.712.712 0 0 0 .04.242c2.036-.244 5.05-.442 7.113-.117l4.152-3.244 3.535-1.996 2.22-.23c-6.466.08-6.542-4.127-2.721-10.121" mask="url(#r)"/>
            <path fill="#B6AA99" d="M20.548 28.325v-.002.002m0-.003v-.003.003" mask="url(#r)"/>
            <path fill="#EFB264" d="M20.837 30.055v-.002.002m-.003-.016v-.003.003m0-.018v-.004.004m0-.015c-.003-.003-.003-.005-.003-.007 0 .002 0 .004.003.007m-.003-.014c0-.016-.004-.032-.004-.047 0 .015.004.031.004.047m-.004-.049c-.086-.85-.262-1.549-.279-1.618v-.002-.001-.003l4.103-2.495 1.156 3.818-.69-2.28-4.35 2.101c.02.152.044.313.06.48" mask="url(#r)"/>
            <path fill="#F7D5A0" d="M41.561 75.123s-7.073-10.667-8.398-18.401c0 0-1.94-7.203-2.874-9.98-.93-2.778-2.003-7.163 1.422-9.217 3.704-2.222 5.242 5.26 5.432 8.766.19 3.507.063 8.497.063 8.497s4.86 14.908 5.113 20.023l-.758.312" mask="url(#r)"/>
            <path fill="#B6AA99" d="M20.817 31.673h-.003c.076-.47.073-.99.033-1.48.003.023.003.046.007.07v.021c.006.088.013.177.016.267.014.38 0 .766-.053 1.122m.03-1.481v-.015.015m0-.017v-.012.012" mask="url(#r)"/>
            <path fill="#EA97A5" d="M23.342 32.216a15.75 15.75 0 0 1-2.525-.543c.053-.356.067-.743.053-1.122.97-.057 3.077-.253 4.937-.909l.13.422c-.748 1.133-1.691 1.784-2.595 2.152m-2.488-1.944v-.002.002m0-.01c-.004-.023-.004-.046-.007-.068v-.002-.015-.002-.012a63.589 63.589 0 0 0-.01-.108c.007.069.01.138.017.207m-.017-.21c0-.003 0-.008-.003-.013.003.005.003.01.003.014m-.003-.017v-.015.015m0-.02v-.01.01M20.83 30v-.007.007m-.004-.054v-.002.002" mask="url(#r)"/>
            <path fill="#B08E60" d="M20.854000000000003 30.282999999999998v-.01.01m0-.013v-.008.008" mask="url(#r)"/>
            <path fill="#E8953F" d="M20.87 30.551a7.026 7.026 0 0 0-.016-.267v-.012-.002-.008c-.007-.07-.01-.138-.017-.207v-.002c0-.004 0-.01-.003-.014v-.003-.015-.004-.011c-.003-.003-.003-.005-.003-.007v-.007c0-.016-.004-.032-.004-.047v-.002c-.016-.167-.04-.328-.06-.48l4.35-2.1.69 2.28c-1.86.655-3.966.851-4.937.908" mask="url(#r)"/>
            <path fill="#F7D5A0" d="M18.754 12.781s-4.442 3.788-4.67 10.615l2.059-.015s-.84 4.418 2.664 6.737c3.509 2.32 9.907-.725 9.907-.725s3.545-6.85 3.538-7.591c-.003-.74-2.624-5.789-2.87-5.96-.242-.17-8.568-2.662-8.568-2.662l-2.06-.399" mask="url(#r)"/>
            <path fill="#F0B3BD" d="M18.754 12.781s-4.442 3.788-4.67 10.615l2.059-.015s-.84 4.418 2.664 6.737c3.509 2.32 9.907-.725 9.907-.725s3.545-6.85 3.538-7.591c-.003-.74-2.624-5.789-2.87-5.96-.242-.17-8.568-2.662-8.568-2.662l-2.06-.399" mask="url(#r)"/>
            <path fill="#FFC53A" d="M19.532 33.372s-1.103 2.035-.489 3.953c.618 1.918-1.767 2.708 1.771 2.708 1.708 0 9.332-7.597 9.332-7.597l4.28 5.028-1.944 1.849s-3.495 3.227-1.419 9.216c0 0-2.133 4.117-1.468 7.11.66 2.995 2.747 5.568 2.747 5.568s-6.601 5.228-15.631.608c0 0 1.279-2.152 1.515-4.818.236-2.667-1.94-6.83-1.94-6.83s-5.602-2.088-4.834-5.802c.309-1.488 2.465-2.807 3.033-5.286.568-2.48 1.661-4.93 1.661-4.93.04-.382 3.352-1.227 3.386-.777" mask="url(#r)"/>
            <path fill="#FFC53A" d="M37.206 54.788s.126-4.99-.063-8.497c-.19-3.507-1.814-11.393-5.518-9.171-3.426 2.054-2.266 6.844-1.336 9.621.934 2.778 2.874 9.98 2.874 9.98.05.286.11.576.173.869.956-.554 2.461-1.335 4.162-1.886a960.42 960.42 0 0 1-.292-.916" mask="url(#r)"/>
            <path fill="#FEDF82" d="M20.814 31.673s-.635.498-1.973 1.595c0 0-2.303 3.861 0 8.964l1.973-2.2s-1.206-4.784 0-8.359M26.272 32.185s-2.01 6.048-5.458 7.848v2.432s5.017-2.114 6.452-6.006c1.435-3.892-.994-4.274-.994-4.274" mask="url(#r)"/>
            <path fill="#1C1F45" d="M15.296 17.843c-.037-.172-5.695-6.307.056-11.828 5.754-5.522 7.143 2.982 10.78 4.404 3.642 1.422 8.034.908 8.516 4.662.482 3.754-.897 6.21.06 8.34.956 2.131 4.937 11.72-6.419 14.489-10.824 2.639-10.445-6.165-10.445-6.165s1.173 3.197 4.804 3.068c0 0-2.103-.915-2.459-2.188 0 0 7.127 1.225 7.196-8.462l.067-3.677s-9.103-.599-9.655-6.715c-.963 1.062-1.77 2.478-2.501 4.072" mask="url(#r)"/>
            <path fill="#DDBA88" d="M22.435 34.817" mask="url(#r)"/>
            <path fill="#05326A" d="M21.332 35.155c-.465 0-1.023-.117-1.624-.49-1.628-1.008-1.864-2.92-1.864-2.92s.767 2.087 2.973 2.82a5.086 5.086 0 0 0 1.83.248c-.012.009-.53.342-1.315.342" mask="url(#r)"/>
            <path fill="#05326A" d="M22.648 34.813s-.532-.23-1.103-.622l1.103.622" mask="url(#r)"/>
            <path fill="#031C3D" d="M16.488 19.774c-.03.214-.053.675.243 1.056.339.44.993.663 1.95.663.95 0 1.598-.22 1.924-.656.289-.384.252-.85.212-1.063h-4.329zm2.193 2.046c-1.066 0-1.814-.268-2.216-.795-.495-.645-.279-1.426-.272-1.459l.036-.118h4.844l.037.114c.01.034.249.82-.236 1.467-.392.525-1.13.791-2.193.791z" mask="url(#r)"/>
            <path fill="#031C3D" d="M12.681 19.774h3.671v-.326h-3.67zM27.754 20.796l-6.827-1.024.05-.322 6.827 1.022-.05.324" mask="url(#r)"/>
            <path fill="#F0B3BD" d="M27.223 20.855s.72-1.625 2.226-.705c1.508.92.63 5.028-2.688 4.776-3.316-.252.462-4.07.462-4.07" mask="url(#r)"/>
        </g>
        <path fill="#F0B3BD" d="M287.323 111.062c1.461 7.974 4.408 16.092 0 17.694 0 0 1.99 3.78 11.65-3.247l2.881-12.28-6.173-5.123-6.804 1.857-1.554 1.099"/>
        <path fill="#146EB4" d="M286.515 125.51s9.173-4.808 13.954-4.287c4.78.522 14.618 2.124 14.618 2.124L303.87 161.14l-3.402 13.376s-11.462-4.651-13.897-8.86c0 0-2.88-22.16-3.545-26.334-.664-4.175 3.488-13.814 3.488-13.814"/>
        <path fill="#F7D5A0" d="M297.545 174.517c.618.217 1.296.181 1.804.145 1.346-.095 1.515-.19-3.73 4.363-6.974 6.05-22.758 5.526-33.07 5.002-5.781-.294-9.84-.587-9.668.276 2.834 14.08-3.08 26.003-3.479 44.275-.02.914 3.353 3.408 1.103 6.4-5.352 7.118-3.81 8.529-5.259 9.159-2.498 1.084-4.309.573-5.428-.853-1.117-1.427-.077-.35.923-1.463.997-1.112 2.84-12.376 3.389-18.452.661-7.36-4.126-46.688-1.093-50.81 3.339-4.537 39.306-5.382 42.153-4.005a11861.73 11861.73 0 0 0 12.355 5.963"/>
        <path fill="#CF9BA4" d="M242.761 244.72c-1.256 0-2.236-.536-2.943-1.436-.343-.437-.482-.64-.482-.741 0-.231.71.05 1.405-.722.997-1.112 2.84-12.376 3.389-18.452.043-.488.063-1.118.063-1.869-.003-7.793-2.173-28.642-2.173-40.579 0-4.238.276-7.354 1.017-8.362 1.176-1.6 6.409-2.74 12.817-3.486.097.605.296 1.772.608 3.247-5.379.74-9.581 1.795-10.621 3.208-3.033 4.122 1.757 43.45 1.093 50.81-.528 5.862-2.262 16.555-3.28 18.298a5.03 5.03 0 0 1-.893.083"/>
        <path fill="#0E4E80" d="M249.402 228.578c.429.032 2.781 2.552 2.731 4.483-.043 1.586-.624 10.498-.624 10.662 0 .054-.462.387-.718 0-.252-.386.123-6.32-.714-6.572-1.29-.386-1.867 7.103-2.95 7.442-1.08.34-5.103.715-7.216.064-2.11-.65-2.847-1.16-2.263-1.9.588-.741 2.608-.807 3.093-.936.482-.129 1.844.872 3.618.807 1.771-.064 4.548-14.087 5.043-14.05"/>
        <path fill="#F0B3BD" d="M297.469 164.626c2.236.79 8.193 11.089.953 17.368-6.97 6.05-22.754 5.526-33.066 5.002-5.78-.294-9.844-.588-9.668.276 2.83 14.08-3.083 26.002-3.482 44.275-.02.913 3.353 3.407 1.103 6.4-5.348 7.117-3.81 8.528-5.259 9.158-2.498 1.084-4.309.574-5.428-.853-1.117-1.426-.077-.35.923-1.462 1-1.113 2.84-12.377 3.389-18.452.664-7.36-4.126-46.688-1.093-50.81 3.342-4.538 39.309-5.383 42.153-4.005 2.847 1.378 9.475-6.897 9.475-6.897"/>
        <path fill="#115C96" d="M255.784 168.617s1.662 11.73 5.758 17.176l37.551 2.124 5.529-21.484-9.754 3.544-8.296-4.32s-23.997 1.354-30.788 2.96"/>
        <path fill="#0E4E80" d="M252.206 231.547c.429.032 2.784 2.552 2.731 4.482-.043 1.587-.624 10.499-.624 10.663 0 .054-.462.387-.715 0-.255-.387.123-6.32-.717-6.572-1.29-.386-1.867 7.103-2.947 7.442-1.083.339-5.106.714-7.216.064-2.113-.65-2.85-1.16-2.262-1.9.588-.741 2.608-.807 3.09-.936.481-.13 1.846.871 3.617.807 1.771-.065 4.548-14.087 5.043-14.05"/>
        <path fill="#F0B3BD" d="M288.047 114.61a112.32 112.32 0 0 1-.724-3.548l1.554-1.1 2.808-.765c-.31 1.438-.602 2.89-.86 4.306a40.99 40.99 0 0 1-2.778 1.107"/>
        <path fill="#F0B3BD" d="M278.153 80.906s-7.21 10.03-7.442 17.786c0 0 1.642.864 3.628.728 0 0-1.72 20.878 19.595 10.73l7.465-11.012s4.538-9.123 1.472-12.562c-3.07-3.44-7.113-6.347-7.113-6.347l-13.362-.776-4.243 1.453"/>
        <path fill="#1C1F45" d="M277.037 82.576s2.977 5.096 8.14 9.272c3.66 2.961 10.182 2.623 10.182 2.623s-6.575 22.97-5.468 29.88c2.601 16.214 16.359 17.477 16.359 17.477l15.043-19.637s7.036-4.101-2.34-10.133c-4.91-3.157-9.637-4.173-9.288-10.037.349-5.863 3.82-16.775-8.116-22.669C289.612 73.46 282.89 64.131 275.9 67.88c-6.994 3.749-8.595 14.22-2.213 20.66 0 0 2.482-4.657 3.349-5.964"/>
        <path fill="#F0B3BD" d="M292.057 95.248s1.25-2.696 3.953-2.183c2.701.513 2.057 9.184-3.67 8.515l-4.137-3.381 3.854-2.95"/>
        <path fill="#8B9AB5" d="M255.824 168.607l.057-.013-.057.013m.07-.016h0"/>
        <path fill="#0E4E80" d="M293.755 185.15s-20.95-.41-28.177-.41c-.976 0-1.7.008-2.093.025-.897.039-1.76.089-2.495.235-3.694-5.711-5.206-16.383-5.206-16.383a.427.427 0 0 0 .04-.01l.057-.013.013-.003h.003c.31-.071.652-.141 1.02-.211 1.645 4.418 11.804 13.35 27.934 13.506a105.802 105.802 0 0 0 8.319-.246c.319 2.23.585 3.51.585 3.51M318.33 247.396l-14.46-64.809 5.07-.479 12.353 65.288h-2.964M258.183 247.396l13.572-60.234-5.07-.48-11.469 60.714h2.967"/>
        <path fill="#0E4E80" d="M265.814 212.047h46.127v-3.908h-46.127z"/>
        <path fill="#CF7406" d="M329.509 119.084a2.736 2.736 0 0 0-2.1-.227c-4.934-.401-16.605-.953-18.777-.375-3.449.917-12.12 17.306-14.605 28.744-4.166 19.183-.272 37.923-.272 37.923s-26.98-.526-30.27-.384c-2.943.127-5.498.376-4.438 3.737.71 2.256 5.123 4.264 13.316 4.931 12.229.996 21.159 1.998 27.654 1.998 8.93 0 13.196-1.28 14.81-3.93 2.356-3.868 1.652-6.837.838-10.273-.79-3.34-1.874-7.914-.977-16.252 1.751-16.264 15.764-41.902 15.904-42.16a2.75 2.75 0 0 0-1.083-3.732z"/>
        <path fill="#E0B962" d="M330.45599999999996 123.07199999999999c.083-.154.13-.241.136-.255-.007.014-.057.103-.136.255"/>
        <path fill="#FAA337" d="M258.838 186.705c.179-1.015 1.01-1.477 2.152-1.705-1.142.228-1.973.69-2.152 1.705"/>
        <path fill="#02151A" d="M260.99 185c.735-.146 1.598-.196 2.495-.235-.897.039-1.76.089-2.495.235"/>
        <path fill="#F58A07" d="M262.29 191.307c-1.841-.817-2.92-1.785-3.243-2.805-.166-.532-.243-.985-.243-1.373 0-.151.01-.292.034-.424.179-1.015 1.01-1.477 2.152-1.705.735-.146 1.598-.196 2.495-.235a58.883 58.883 0 0 1 2.093-.024c7.226 0 28.177.408 28.177.408s-1.652-7.95-1.652-18.797c0-5.804.472-12.438 1.924-19.126 2.485-11.438 11.156-27.827 14.605-28.744.674-.18 2.262-.25 4.282-.25 4.485 0 11.093.348 14.495.625a2.73 2.73 0 0 1 2.1.228 2.744 2.744 0 0 1 1.083 3.732l-.136.255c-8.522.474-16.691 6.044-22.485 15.096-7.09 11.075-2.745 42.534-3.187 48.514-.126 1.72-3.65 2.283-8.634 2.283-4.764 0-10.857-.515-16.588-1.03-5.734-.515-11.106-1.03-14.425-1.03-1.974 0-3.223.182-3.392.654-.38 1.065-.037 2.438.544 3.748"/>
        <path fill="#146EB4" d="M286.515 125.51c-5.976 2.423-34.01 25.785-29.538 30.51 4.472 4.727 33.113 3.413 33.113 3.413l1.033-8.885s-15.126-.616-13.797-1.723c1.329-1.108 15.316-6.27 15.316-6.27l-6.127-17.046"/>
    </g>
</svg>
