<svg xmlns="http://www.w3.org/2000/svg" xmlns:xlink="http://www.w3.org/1999/xlink" width="343" height="291" viewBox="0 0 343 291">
    <defs>
        <path id="a" d="M29.412 65.655a58.555 58.555 0 0 0-26.787-9.359 23.827 23.827 0 0 1 .644-12.11c.31-.963.497-1.554.497-1.554l.01-.03L.228 23.268c-.187-1.25-.177-4.036 1.2-5.634.711-.827 1.71-1.246 2.976-1.246l4.811-.267-.449-.294c.092-.378.398-1.832-.027-2.95l-.053-.136-.128.07c-.015.008-1.224.67-2.139.67-.175 0-.338-.024-.481-.082a.756.756 0 0 1-.454-.513c-.152-.494-.141-.891.032-1.18.204-.34.577-.417.58-.418l.338-.065-.298-.17c-.015-.01-1.497-.869-1.606-1.68-.027-.21.042-.394.212-.564.172-.172.316-.308.436-.421.62-.586.633-.632.44-1.645l-.012-.062c-.168-.882-.106-2.562.56-3.366a1.16 1.16 0 0 1 .925-.45h.137l-.01-.137C7.214 2.655 7.12.941 9.118.553c.335-.065.64-.093.92-.093 1.408 0 2.093.698 2.101.707l.103.106.09-.116c.009-.01.707-.882 1.542-.882.196 0 .4.048.604.167 1.128.655 1.427 1.222 1.43 1.227l.058.115.115-.059c.018-.009.26-.13.576-.13.25 0 .547.076.815.344.243.243.333.943.054 1.651-.18.457-.777 1.527-2.422 1.584l-.157.005.038.152c.092.381.14.763.14 1.137 0 1.109.242 1.805.456 2.42.168.482.314.9.314 1.43 0 .892-.85 1.622-1.6 2.265-.244.21-.474.407-.673.605-.78.78-.353 2.149-.227 2.496l-.213.216 4.899-.272 2.007-5.21c.062-.023.123-.044.184-.063l.06-.02.02-.058c.14-.381.088-1.078.018-1.709l-.015-.134-.848.142h-.002c-.017 0-.09-.034-.192-.217l-.046-.084-.874.2a.04.04 0 0 1-.01.001c-.092 0-.272-.252-.373-.692-.105-.459-.045-.77.044-.79l.902-.205.013-.086c.02-.136.058-.174.077-.178l1.298-.38.022-.062c.038-.108.094-.175.17-.206a.297.297 0 0 1 .11-.019c.117 0 .227.055.228.056l.151.077.034-.165c.033-.166.098-.272.195-.315a.318.318 0 0 1 .133-.026c.138 0 .287.065.345.099l.164.094.027-.186c.038-.26.129-.429.27-.498.058-.03.123-.04.186-.04.186 0 .364.094.366.095l.114.063.06-.115c.114-.215.256-.336.434-.368a.596.596 0 0 1 .1-.008c.372 0 .748.33.751.333l.053.047 3.777-1.104.085-.054.008-.085.003-.047c0-.12.25-.383.487-.419a.304.304 0 0 1 .047-.003c.097 0 .158.053.195.171l.193.62.056-.647a.257.257 0 0 1 .044-.106 115.44 115.44 0 0 1 7.424 2.403l-5.139.857-.16 2.447.275-.139.021-.01c.447 1.307 3.834 11.367 3.192 13.87-.25.97-2.521 1.481-6.394 1.481a63.69 63.69 0 0 1-4.572-.185l-.087-.006-.038.08c-.323.699-.604 1.34-.836 1.904-3.058 7.476-3.738 16.465-3.745 16.555l-.001.02.948 4.183.025.052c.079.098 7.892 9.888 11.806 15.077l-2.46 3.74zm-1.175-49.59l-.475-6.554.045.005.285.028-.068-.19c-.117-.33-.259-.81-.27-1.233l-.005-.124h-.043a7.432 7.432 0 0 0-.356-.648l-.045-.073-3.696.616.004.112c.054 1.485-.421 2.58-.628 2.982l-.038.073.052.065c.057.071.114.145.17.225l-1.114 4.416 6.182.3z"/>
        <path id="c" d="M.161 23.695V81.13c11.86 0 22.901 3.559 32.13 9.65l31.557-47.974 13.24-24.015L52.39.14 9.43 6.3.161 23.695"/>
    </defs>
    <g fill="none" fill-rule="evenodd">
        <path fill="#D3D3CF" d="M24.676 241.342c-8.14 0-14.737-1.2-14.737-2.68 0-1.48 6.598-2.68 14.737-2.68s14.737 1.2 14.737 2.68c0 1.48-6.598 2.68-14.737 2.68"/>
        <path fill="#72C3FF" d="M6.37 174.797c-3.729-4.223-6.203-9.933-5.21-15.478.991-5.546 6.219-10.435 11.814-9.777-3.108-4.855-6.314-10.003-6.609-15.76-.294-5.758 3.516-12.157 9.269-12.54 2.442-.164 4.8.958 6.473 2.729 1.707 1.857 2.717 4.282 2.515 6.707-1.212-1.617.404-3.637 2.021-4.042 1.01-.202 2.02 0 2.829.607 1.617 1.414 2.627 3.435 2.223 5.456-1.212 4.85-4.648 9.295-2.223 14.347 3.84 7.68 7.275 15.157 9.01 23.493.34 1.353.657 2.715.935 4.084.28 1.37.52 2.746.72 4.13.534 3.692.76 7.594-.701 11.026-1.741 4.087-5.69 7.046-6.92 11.315-1.952 6.772 3.552 14.546.259 20.777-2.386 4.512-8.793 5.331-12.978 3.012-5.966-3.307-6.114-11.142-4.593-17.005 1.437-5.54 4.605-10.31 3.727-16.351-.306-2.099-1.054-3.917-2.077-5.563-2.647-4.264-7.129-7.368-10.484-11.167"/>
        <path fill="#FFF" d="M25.63 214.949c-.042-.09-1.043-2.25-1.246-6.46-.186-3.873.31-10.277 3.731-18.794 4.67-11.627-1.475-23.25-5.963-31.738-1.829-3.46-3.409-6.447-3.88-8.723-1.608-7.777 2.931-17.117 2.977-17.21l.28.137c-.046.093-4.539 9.339-2.952 17.01.462 2.232 2.032 5.202 3.85 8.64 4.516 8.542 10.7 20.24 5.977 32-3.4 8.465-3.893 14.821-3.709 18.663.2 4.149 1.206 6.32 1.217 6.341l-.282.134"/>
        <path fill="#FFF" d="M28.414 189.771l-.31-.036c.611-5.225-.532-13.062-9.444-20.729-5.342-4.595-11.016-6.973-11.072-6.997l.119-.287c.057.024 5.777 2.42 11.156 7.048 4.976 4.281 10.672 11.4 9.551 21.001M20.594 154.966c-3.734-12.43 6.127-19.827 6.227-19.9l.183.25c-.098.072-9.782 7.345-6.113 19.56l-.297.09"/>
        <path fill="#FFF" d="M27.311 192.719l-.31-.021c.336-4.915-.434-11.662-6.004-15.89-3.336-2.533-6.866-2.966-6.901-2.97l.036-.309c.036.004 3.638.444 7.042 3.022 5.69 4.311 6.478 11.172 6.137 16.168M21.864 130.126a.461.461 0 1 0 .001.923.461.461 0 0 0-.001-.923zm0 1.233a.773.773 0 0 1 0-1.544.773.773 0 0 1 0 1.544zM28.23 133.865a.461.461 0 1 0 0 .923.461.461 0 0 0 0-.923zm0 1.232a.773.773 0 0 1 0-1.543.773.773 0 0 1 0 1.543z"/>
        <path fill="#145F9A" d="M16.97 65.863c-.11-.563-.549-.95-.98-.867l-5.023.978c-.431.084-.692.608-.583 1.171.11.563 1.384 5.241 1.816 5.157l5.022-.978c.432-.084-.143-4.899-.252-5.461"/>
        <path fill="#F58A07" d="M25.706 110.26l-6.702 1.304-8.512-43.719 6.702-1.305 8.512 43.72"/>
        <path fill="#C26D06" d="M23.495 110.69l2.211-.43-8.512-43.72-2.211.43 8.512 43.72"/>
        <path fill="#F2C9A3" d="M19.004 111.564l4.38 4.58 2.322-5.885-1.476-1.926-.704 2.326-1.559-2.102-.907 2.582-1.505-2.02-.551 2.445"/>
        <path fill="#145F9A" d="M21.18 113.84l2.204 2.304 1.166-2.955c-1.919-.756-3.06.298-3.37.65"/>
        <path fill="#FFFFFE" d="M17.953 68.812c.074.378-.102.73-.392.786l-6.229 1.213c-.29.057-.585-.204-.659-.582-.073-.378.102-.73.392-.787l6.23-1.212c.29-.057.585.204.658.582M17.563 66.81c.074.377-.102.73-.392.786l-6.229 1.213c-.29.056-.585-.204-.658-.582-.074-.378.102-.73.392-.787l6.229-1.213c.29-.056.585.204.658.582M18.31 70.647c.074.378-.102.73-.391.787l-6.23 1.213c-.29.056-.585-.205-.658-.582-.074-.379.102-.73.392-.787l6.229-1.213c.29-.056.585.204.658.582"/>
        <path fill="#DDD9DF" d="M342.11 275.466c-17.232-1.727-30.685-16.272-30.685-33.96 0-17.686 13.453-32.23 30.685-33.957v67.917"/>
        <path fill="#D3D3CF" d="M272.247 234.551c-10.92 0-19.771-1.578-19.771-3.525 0-1.947 8.852-3.525 19.77-3.525 10.919 0 19.77 1.578 19.77 3.525 0 1.947-8.851 3.525-19.77 3.525"/>
        <path fill="#F4F4F1" d="M289.493 228.776a3.111 3.111 0 0 1-3.34 2.86l-30.057-2.327a3.11 3.11 0 0 1-2.86-3.341l4.177-53.957a3.11 3.11 0 0 1 3.341-2.86l30.056 2.328a3.11 3.11 0 0 1 2.861 3.34l-4.178 53.957"/>
        <path fill="#FFCB30" d="M286.206 225.745l-29.59-2.291 3.948-50.965 29.586 2.291-3.944 50.965"/>
        <path fill="#3B3A39" d="M276.777 171.925a.804.804 0 1 1-1.603-.124.804.804 0 0 1 1.603.124"/>
        <path fill="#1B1A19" d="M276.038 171.061a.804.804 0 0 0-.864.74.796.796 0 0 0 .206.596.698.698 0 0 1-.128-.447.715.715 0 0 1 1.425.11.698.698 0 0 1-.196.423.795.795 0 0 0 .296-.558.803.803 0 0 0-.74-.864"/>
        <path fill="#F4F4F1" d="M276.285 171.872a.311.311 0 1 1-.62-.048.311.311 0 0 1 .62.048"/>
        <path fill="#8B8E8D" d="M273.765 227.895c-.02.265-.17.47-.335.457l-5.788-.449c-.164-.012-.28-.237-.26-.502.02-.265.17-.469.335-.456l5.787.448c.165.013.281.238.26.502"/>
        <path fill="#A0A2A1" d="M273.781 227.683c-.02.264-.17.468-.335.455l-5.787-.447c-.164-.013-.281-.238-.26-.503.02-.265.17-.47.334-.457l5.788.449c.164.012.28.238.26.503"/>
        <path fill="#146EB4" d="M23.852 115.288l-1.56-.245c4.962-31.614 21.11-60.602 45.473-81.623 12.067-10.413 25.708-18.543 40.544-24.167C123.666 3.432 139.855.48 156.426.48c25.305 0 49.995 7.007 71.4 20.266a136.317 136.317 0 0 1 49.09 52.854l-1.4.73a134.739 134.739 0 0 0-48.521-52.242C205.84 8.985 181.437 2.06 156.426 2.06c-16.38 0-32.38 2.918-47.558 8.67-14.662 5.558-28.145 13.595-40.072 23.887-24.08 20.777-40.04 49.427-44.944 80.672"/>
        <path fill="#146EB4" d="M282.17 67.996l-2.311 1.651-11.998 8.569 12.986 7.095 2.517 1.375-1.194-18.69zm-1.396 2.936l.83 12.994-10.776-5.889 9.946-7.105z"/>
        <path fill="#3A8FD1" d="M27.137 217.11c-2.488-2.83-2.525-7.159-1.218-10.693 1.306-3.534 3.731-6.516 5.876-9.614 2.144-3.099 4.093-6.551 4.214-10.317.223-6.986-5.686-12.51-8.115-19.063a20.887 20.887 0 0 1-1.179-5.124c-1.487-14.848 6.597-31.42 20.945-36.471 1.818-.808 4.243.404 4.243 2.223.202 4.042-3.637 7.275-3.637 11.518 0 .405.202 1.213.404 1.415 7.275 4.042 8.69 11.317 1.212 16.167-.606.606-.808 1.414-1.23 2.161-.503 1.288-.562 2.667-.343 4.033.218 1.366.715 2.721 1.323 3.963 1.217 2.482 2.874 4.76 3.774 7.374 2.458 7.144-1.231 14.904-5.616 21.056-4.385 6.152-9.734 12.072-11.165 19.49-.459 2.376-.507 4.885-1.578 7.055-1.07 2.17-3.664 3.885-5.886 2.928l-.442-1.957"/>
        <path fill="#FFF" d="M33.344 194.993l-.2-.24c10.11-8.383 7.103-20.94 4.195-33.084-.25-1.046-.501-2.093-.743-3.136-3.084-13.272 7.616-23.356 7.725-23.456l.21.228c-.106.1-10.674 10.065-7.632 23.158.242 1.042.492 2.088.743 3.134 2.93 12.236 5.96 24.889-4.298 33.396"/>
        <path fill="#F58A07" d="M4.934 216.095h41.674l-11.201 22.312c0 1.63-20.607 1.63-20.607 0l-9.866-22.312"/>
        <path fill="#FFF" d="M37.99 163.09l-.31-.028c.39-4.45 1.739-10.42 5.954-13.599 2.537-1.912 4.88-1.898 4.97-1.898l-.004.31h-.002c-.198 0-9.288.145-10.608 15.214"/>
        <path fill="#1C1F45" d="M50.32 146.596a.485.485 0 1 0 .001.97.485.485 0 0 0 0-.97zm0 1.28a.796.796 0 1 1 .001-1.593.796.796 0 0 1 0 1.592zM45.71 132.47a.825.825 0 0 0 0 1.65.826.826 0 0 0 0-1.65zm0 1.96c-.627 0-1.136-.51-1.136-1.135 0-.626.51-1.136 1.135-1.136a1.137 1.137 0 0 1 0 2.272z"/>
        <path fill="#F58A07" d="M155.324 72.13c-32.251 0-58.49 26.24-58.49 58.49 0 32.252 26.239 58.49 58.49 58.49 32.252 0 58.49-26.238 58.49-58.49 0-32.25-26.238-58.49-58.49-58.49m0 174.417C91.402 246.547 39.4 194.543 39.4 130.62c0-63.922 52.003-115.926 115.925-115.926S271.25 66.699 271.25 130.62c0 63.922-52.004 115.926-115.926 115.926"/>
        <path fill="#1C1F45" d="M60.775 99.243l29.28 5.021-3.215 6.167-18.423 3.42-9.716-7.124 2.074-7.484"/>
        <path fill="#E1604E" d="M64.471 97.138l-.866 5.21 22.163 4.804 2.898-10.671-24.195.657"/>
        <path fill="#F8C73D" d="M75.938 78.663s-9.88-.132-11.93.92c-2.051 1.05-7.576 18.21-7.163 19.147.413.937 35.653 9.441 36.798 8.102 1.145-1.34.533-20.484-.494-21.659-1.028-1.175-14.167-6.063-17.211-6.51"/>
        <path fill="#0F1229" d="M87.229 100.531l-.032-.004a.107.107 0 0 1-.07-.134c1.013-3.277 2.766-12.746 2.783-12.841a.106.106 0 0 1 .124-.086c.058.01.096.066.086.125-.018.095-1.773 9.576-2.79 12.865a.107.107 0 0 1-.101.075M63.92 95.12l-.034-.005a.107.107 0 0 1-.067-.136c1.31-3.856 2.255-12.155 2.265-12.238.006-.059.06-.1.117-.094.059.006.1.059.095.117-.01.084-.959 8.406-2.275 12.284a.107.107 0 0 1-.101.073"/>
        <path fill="#F0B3BD" d="M66.278 100.012l-.055-1.903a.246.246 0 0 1 .224-.253l.654-.057a.248.248 0 0 0 .206-.15l.225-.54a.247.247 0 0 1 .28-.145l.5.108a.247.247 0 0 0 .23-.068l.41-.423a.246.246 0 0 1 .345-.008l.504.469c.065.06.156.08.24.055l.382-.117a.247.247 0 0 1 .302.147l.819 2.105a.247.247 0 0 1-.149.323l-.305.106a.247.247 0 0 1-.297-.112c-.12-.215-.447-.14-.461.106l-.005.083a.248.248 0 0 1-.186.225l-2.646.66-.052.008c-.158.005-.926 0-1.148-.535a.232.232 0 0 1-.017-.084M83.115 103.662l.839-1.71a.247.247 0 0 0-.1-.323l-.57-.322a.247.247 0 0 1-.126-.222l.018-.584a.247.247 0 0 0-.194-.249l-.501-.108a.246.246 0 0 1-.18-.158l-.199-.554a.246.246 0 0 0-.31-.15l-.654.217a.246.246 0 0 1-.241-.049l-.299-.264a.247.247 0 0 0-.335.009l-1.618 1.577c-.1.097-.1.259.002.355l.234.223c.087.083.22.091.316.02.199-.145.465.058.376.288l-.03.078a.247.247 0 0 0 .077.281l2.134 1.698.045.028c.142.07.843.383 1.266-.012l.05-.07"/>
        <path fill="#0F1229" d="M66.372 97.493l-.038-.007-5.485-2.063a.106.106 0 0 1-.062-.137.107.107 0 0 1 .137-.063l5.485 2.063c.056.02.084.082.063.137a.107.107 0 0 1-.1.07M89.336 101.925h-.004l-4.785-.177a.107.107 0 0 1-.102-.11c.002-.06.048-.097.11-.103l4.785.177a.107.107 0 0 1-.004.213"/>
        <path fill="#F0B3BD" d="M75.305 74.278s-2.277 6.665 2.592 7.72c4.428.96 5.549-4.955 5.549-4.955s1.232-3.545-2.112-4.7c-3.344-1.157-5.97.662-6.029 1.935"/>
        <path fill="#1C1F45" d="M82.961 73.59s-1.541 1.884-.678 3.198a2.86 2.86 0 0 1 .214 2.802l-.023.049s2.154-1.058 3.135-3.937c.98-2.879.043-5.027-1.137-5.063 0 0 .04-2.367-2.887-2.78-2.927-.411-5.254-1.161-6.793.897-1.538 2.058-.153 4.453-.153 4.453s-.382 2.448.145 4.764l.228-2.906s4.088-3.567 7.949-1.478"/>
        <path fill="#F0B3BD" d="M83.312 77.397l-.838 2.242s1.825-.514 2.054-1.698c.076-.395-.013-.641-.166-.795-.326-.327-.889-.182-1.05.25M75.173 74.936l-.363 3.041s-1.375-1.252-1.093-2.425c.281-1.173 1.456-.616 1.456-.616"/>
        <path fill="#E5E6E3" d="M84.59 93.7l-16.394-3.554a1.335 1.335 0 0 0-1.588 1.022l-2.346 10.82a1.335 1.335 0 0 0 1.022 1.589l16.395 3.554a1.336 1.336 0 0 0 1.588-1.022l2.346-10.82A1.335 1.335 0 0 0 84.59 93.7"/>
        <path fill="#6D6374" d="M82.531 107.977l-18.373-3.983a.323.323 0 1 1 .137-.632l18.373 3.983a.323.323 0 1 1-.137.632"/>
        <path fill="#95869E" d="M79.871 107.045a.138.138 0 1 1-.27-.059.138.138 0 0 1 .27.059M78.16 106.815l1.087.236.058-.27-1.087-.236-.058.27"/>
        <path fill="#305293" d="M55.626 93.527l21.861 20.743c-2.383 1.206-3.977 3.112-4.979 5.542l-23.36-18.891a4.919 4.919 0 1 1 6.478-7.394"/>
        <path fill="#1C1F45" d="M69.704 115.012l-1.891 1.003 2.817 2.278c1.123-.61 3.308-1.78 3.606-1.825.403-.062-4.532-1.456-4.532-1.456"/>
        <path fill="#1C1F45" d="M77.487 114.27l3.681 3.271a.662.662 0 0 1 .052.938c-1.525 1.69-6.565 7.124-8.698 7.549 0 0-1.465-.847-.416-2.774 1.05-1.927.65-4.007.65-4.007s1.178-4.768 4.731-4.977"/>
        <path fill="#2E446F" d="M72.522 126.028c2.133-.425 7.173-5.86 8.698-7.549a.662.662 0 0 0 .088-.762c-.845.28-4.579 1.83-8.786 8.31"/>
        <path fill="#305293" d="M93.642 103.575l-29.341 6.88c1.45 2.244 1.864 4.693 1.504 7.297l29.7-4.525a4.92 4.92 0 1 0-1.863-9.652"/>
        <path fill="#1C1F45" d="M64.301 110.455l-4.828.968a.661.661 0 0 0-.518.783c.464 2.228 2.074 9.463 3.701 10.906 0 0 1.692.008 1.759-2.185.067-2.194 1.46-3.788 1.46-3.788s1.389-4.71-1.574-6.684"/>
        <path fill="#2E446F" d="M62.656 123.112c-1.627-1.443-3.237-8.678-3.701-10.906a.662.662 0 0 1 .309-.703c.588.67 3.029 3.891 3.392 11.609"/>
        <path fill="#E1604E" d="M57.868 94.227c-.718 2.405-1.15 4.216-1.023 4.503.116.263 2.985 1.125 7.075 2.198l-6.052-6.7M83.247 105.445c5.617 1.15 10.004 1.845 10.396 1.387.28-.328.455-1.724.545-3.662l-10.941 2.275"/>
        <path fill="#0F1229" d="M65.425 110.298a.107.107 0 0 1-.024-.21l5.263-1.234a.106.106 0 1 1 .049.207l-5.263 1.234-.025.003"/>
        <path fill="#146EB4" d="M96.834 130.62c0-5.515.784-10.848 2.218-15.911l-55.29-15.635A115.634 115.634 0 0 0 39.4 130.62c0 36.6 17.053 69.287 43.627 90.548l35.827-44.87c-13.408-10.728-22.019-27.212-22.019-45.678"/>
        <path fill="#55A9EB" d="M146.2 246.189l4.522-57.276c-11.998-.94-22.986-5.508-31.869-12.615l-35.827 44.87c17.607 14.088 39.392 23.16 63.173 25.02"/>
        <path fill="#146EB4" d="M213.77 132.391c-.942 31.434-26.788 56.72-58.446 56.72-1.55 0-3.082-.08-4.602-.198l-4.523 57.276c3.012.235 6.054.358 9.125.358 62.748 0 114.005-50.112 115.868-112.416l-57.422-1.74"/>
        <path fill="#FFC53A" d="M271.192 134.13c.035-1.166.058-2.335.058-3.51 0-40.415-20.794-76.059-52.24-96.814L187.454 81.78c15.865 10.472 26.361 28.45 26.361 48.84 0 .595-.027 1.182-.044 1.771l57.422 1.74"/>
        <path fill="#4FA1E0" d="M187.453 81.78l31.558-47.974c-18.29-12.072-40.18-19.111-63.687-19.111V72.13c11.86 0 22.9 3.559 32.129 9.65"/>
        <path fill="#D3D3CF" d="M75.708 254.252c-11.031 0-19.975-1.363-19.975-3.045 0-.64 1.296-1.234 3.51-1.724a5.355 5.355 0 0 0-.155 1.307H92.5c0-.454-.051-.875-.146-1.266 2.103.482 3.328 1.06 3.328 1.683 0 1.682-8.943 3.045-19.974 3.045"/>
        <path fill="#145F9A" d="M84.094 244.485c-6.505 0-7.263-5.436-7.263-5.436l-1.037.293-1.037-.293s-.758 5.436-7.263 5.436c0 0-8.406.5-8.406 6.305H92.5c0-5.804-8.406-6.305-8.406-6.305"/>
        <path fill="#797E9F" d="M80.931 243.955c-3.607-1.367-4.1-4.906-4.1-4.906s.495 3.54 4.106 4.906h-.006m-7.716-1.754h-.001c1.302-1.48 1.54-3.135 1.543-3.152-.002.017-.239 1.673-1.542 3.152"/>
        <path fill="#273574" d="M80.364 243.965a15.418 15.418 0 0 1-7.149-1.764c1.303-1.48 1.54-3.135 1.542-3.152l1.037.293 1.037-.293s.493 3.539 4.1 4.906c-.191.007-.38.01-.567.01"/>
        <path fill="#305293" d="M97.303 213.663c0 11.801-9.567 21.368-21.368 21.368-11.802 0-21.368-9.567-21.368-21.368 0-11.801 9.566-21.368 21.368-21.368 11.801 0 21.368 9.567 21.368 21.368"/>
        <path fill="#3A8FD1" d="M97.303 213.663c0 11.801-9.567 21.368-21.368 21.368-11.802 0-21.368-9.567-21.368-21.368 0-11.801 9.566-21.368 21.368-21.368 11.801 0 21.368 9.567 21.368 21.368"/>
        <path fill="#145F9A" d="M75.935 239.946v-1.653c13.58 0 24.63-11.05 24.63-24.63 0-13.581-11.05-24.63-24.63-24.63v-1.653c14.492 0 26.282 11.79 26.282 26.283 0 14.492-11.79 26.283-26.282 26.283"/>
        <path fill="#FFFFFE" d="M88.905 219.032H77.45V205.71h10.574c.038.17.077.34.113.514.937 4.434 1.191 8.71.768 12.81m-14.485 0H62.463c-.424-4.1-.17-8.376.767-12.81.037-.173.075-.344.113-.514H74.42v13.323m19.844-16.353h-3.87a52.855 52.855 0 0 0-2.273-6.564 21.294 21.294 0 0 0-4.478-2.381c.892 1.686 2.4 4.848 3.6 8.945H77.45v-10.325c-.501-.035-1.005-.06-1.515-.06s-1.014.025-1.515.06v10.325H64.125a49.192 49.192 0 0 1 3.468-8.694 21.367 21.367 0 0 0-4.563 2.649 52.878 52.878 0 0 0-2.055 6.045h-3.37a21.241 21.241 0 0 0-1.502 3.03h4.141c-.95 4.55-1.21 9.016-.79 13.323h-4.207c.27 1.043.618 2.055 1.036 3.03h3.582a39.22 39.22 0 0 0 2.248 7.89 21.368 21.368 0 0 0 4.83 3.095c-1.963-3.485-3.309-7.152-4.036-10.985H74.42v12.91c.5.035 1.005.06 1.515.06s1.014-.025 1.515-.06v-12.91h11.01c-.749 3.946-2.154 7.715-4.211 11.291a21.35 21.35 0 0 0 4.75-2.787 39.188 39.188 0 0 0 2.504-8.504h4.084c.417-.975.765-1.987 1.035-3.03h-4.708c.42-4.307.16-8.773-.79-13.323h4.643a21.241 21.241 0 0 0-1.503-3.03"/>
        <path fill="#C4C4C1" d="M75.898 235.031h-.012.012m-.037 0h-.014.014m-.036 0h-.015.015m-.037 0h-.015.015m-.037 0h-.015.015m-.038-.001H75.7h.014m-.04 0h-.01.01m-.041-.001h-.005.005m-.08-.001h-.005.004m-.037-.001h-.006.006m-.037-.001h-.007.007m-.04 0h-.004.005m-.04-.002h-.002.003"/>
        <path fill="#827888" d="M97.30300000000001 213.663v-.031.031m0-.044v-.018.018m0-.035v-.013.013m0-.033v-.007.007"/>
        <path fill="#6280B3" d="M75.96 235.031c.5 0 .997-.025 1.49-.06v-12.91h11.01c-.749 3.947-2.154 7.716-4.211 11.292a21.305 21.305 0 0 1-8.29 1.678m-.05 0h-.173l-.023-.001h-.05l-.031-.001h-.005l-.076-.001h-.004l-.033-.001h-.006l-.031-.001h-.044l-.034-.002h-.003c-6.355-.157-12.02-3.091-15.832-7.633.475-.134.969-.279 1.483-.434.314 1.011.67 2.01 1.066 2.996a21.368 21.368 0 0 0 4.83 3.094 36.382 36.382 0 0 1-3.039-7.003 95.02 95.02 0 0 0 9.935-3.982h.58v12.91c.493.034.988.058 1.49.06m8.746-1.855A21.392 21.392 0 0 0 89 230.566a39.188 39.188 0 0 0 2.503-8.504h4.084c.417-.975.765-1.987 1.035-3.03h-4.708c.267-2.748.259-5.56-.03-8.418a68.023 68.023 0 0 0 4.247-3.93 21.321 21.321 0 0 1 1.171 6.86v.119a21.288 21.288 0 0 1-5.259 14.04l-.005.006a21.434 21.434 0 0 1-7.383 5.468m4.25-14.145h-9.177a79.365 79.365 0 0 0 9.312-6.123 38.561 38.561 0 0 1-.135 6.123"/>
        <path fill="#C7C6C1" d="M75.935 235.031h-.026c-.502 0-.997-.025-1.49-.06v-12.91h-.58a88.713 88.713 0 0 0 5.89-3.029h9.176c.206-2 .252-4.042.135-6.123a71.788 71.788 0 0 0 2.844-2.295c.289 2.857.297 5.67.03 8.418h4.708a21.186 21.186 0 0 1-1.035 3.03h-4.084A39.188 39.188 0 0 1 89 230.566a21.392 21.392 0 0 1-4.75 2.787h-.001c2.057-3.576 3.462-7.345 4.212-11.291H77.45v12.91c-.493.034-.99.058-1.49.06h-.025m-8.992-1.985a21.368 21.368 0 0 1-4.83-3.094 39.177 39.177 0 0 1-1.066-2.996c.897-.27 1.853-.574 2.857-.913a36.382 36.382 0 0 0 3.039 7.003"/>
        <path fill="#145F9A" d="M78.363 188.4a2.336 2.336 0 1 1-4.672 0 2.336 2.336 0 0 1 4.672 0"/>
        <path fill="#146EB4" d="M77.297 188.4a1.27 1.27 0 1 1-2.54 0 1.27 1.27 0 0 1 2.54 0"/>
        <path fill="#145F9A" d="M78.363 239.049a2.336 2.336 0 1 1-4.672 0 2.336 2.336 0 0 1 4.672 0"/>
        <path fill="#FFF" d="M77.297 239.049a1.27 1.27 0 1 1-2.54 0 1.27 1.27 0 0 1 2.54 0"/>
        <path fill="#1C1F45" d="M59.088 250.79c0 1.942 33.412 1.942 33.412 0 0-.468-.06-.899-.16-1.3 0 1.439-33.092 1.439-33.092 0-.1.401-.16.832-.16 1.3"/>
        <path fill="#D3D3CF" d="M250.97 251.816c-21.86 0-39.583-1.963-39.583-4.385 0-2.421 17.722-4.384 39.584-4.384 21.86 0 39.583 1.963 39.583 4.384 0 2.422-17.722 4.385-39.583 4.385"/>
        <path fill="#CC7306" d="M300.672 168.336c6.376 5.922 35.403-23.455 29.025-29.377 0 0-3.534-3.183-5.502-3.183-1.967 0-9.991-.152-15.82 4.39-5.83 4.542-11.963 21.5-11.963 21.5s2.6 5.923 4.26 6.67"/>
        <path fill="#F8C73D" d="M298.073 148.767c0 7.759 6.288 14.047 14.047 14.047s14.05-6.288 14.05-14.047c0-7.757-6.291-14.046-14.05-14.046-7.76 0-14.047 6.29-14.047 14.046"/>
        <path fill="#FFFFFE" d="M319.414 158.147a.823.823 0 0 1-.571-1.418c3.066-2.949 3.1-7.234 3.1-7.277a.825.825 0 0 1 1.65 0c0 .204-.042 5.035-3.607 8.465a.825.825 0 0 1-.572.23"/>
        <path fill="#0E4E80" d="M253.245 232.208L241.73 173.01l44.236-47.49-2.318-3.255-46.566 49.3 11.647 60.01 4.516.633"/>
        <path fill="#082F4D" d="M280.863 125.212l-5.17 5.475h5.46l1.778-1.909-2.068-3.566M239.38 183.408l3.535-4.31-.22-1.133-4.439-.35 1.124 5.793"/>
        <path fill="#FFFFFE" d="M266 239.653c0 .318.257.577.577.577h7.636a.578.578 0 0 0 .578-.577v-5.765a.577.577 0 0 0-.578-.575h-7.636a.575.575 0 0 0-.576.575v5.765"/>
        <path fill="#0E4E80" d="M250.988 234.202c18.813 0 34.065 4.39 34.065 12.257 0 3.187-68.13 3.187-68.13 0 0-7.866 15.25-12.257 34.065-12.257"/>
        <path fill="#082F4D" d="M250.988 239.106c3.42 0 2.738-2.595 1.463-4.894-.485-.006-.973-.01-1.463-.01-4.153 0-8.132.214-11.812.633 1.899 1.257 6.953 4.271 11.812 4.271"/>
        <path fill="#F58A07" d="M279.799 129.423a7.214 7.214 0 0 0 10.203-.189 7.214 7.214 0 1 0-10.39-10.012 7.213 7.213 0 0 0 .187 10.2"/>
        <path fill="#082F4D" d="M282.388 126.739a3.483 3.483 0 0 0 4.926-.093 3.478 3.478 0 0 0-.091-4.925 3.484 3.484 0 0 0-4.835 5.018"/>
        <path fill="#F58A07" d="M232.25 172.263a7.216 7.216 0 1 0 14.432-.001 7.216 7.216 0 0 0-14.431.001"/>
        <path fill="#082F4D" d="M235.98 172.263a3.484 3.484 0 1 0 6.97 0 3.484 3.484 0 0 0-6.97 0"/>
        <path fill="#F58A07" d="M243.775 231.89a7.214 7.214 0 1 0 14.427 0 7.214 7.214 0 1 0-14.427 0"/>
        <path fill="#082F4D" d="M247.503 231.89a3.486 3.486 0 1 0 6.971 0 3.486 3.486 0 0 0-6.97 0M287.57 134.422l7.664-7.952-3.25-3.132-7.663 7.952 3.25 3.132"/>
        <path fill="#F58A07" d="M329.794 139.06c-14.036-13.53-27.072-22.304-39.751-9.625-11.655 11.656-2.956 25.84 11.08 39.369-9.435-9.096 19.236-38.84 28.671-29.745"/>
        <path fill="#FFFFFE" d="M284.826 121.72a2.395 2.395 0 0 1 2.397 2.4 2.399 2.399 0 1 1-2.397-2.398M239.466 169.817a2.399 2.399 0 1 1 0 4.798 2.398 2.398 0 1 1 0-4.798M250.988 229.492a2.4 2.4 0 1 1 0 4.799 2.4 2.4 0 0 1 0-4.8"/>
        <path fill="#F58A07" d="M209 78.073l-35.615 47.366a13.62 13.62 0 0 1-10.062 5.37 13.619 13.619 0 0 1-10.623-4.152l-11.551-11.99a18.8 18.8 0 0 0-13.527-5.802h-.122a18.798 18.798 0 0 0-13.476 5.632l-17.107 19.18c.129 2.477.41 4.915.84 7.303l20.044-22.752a13.528 13.528 0 0 1 9.788-4.053 13.532 13.532 0 0 1 9.736 4.175l11.551 11.99a18.928 18.928 0 0 0 14.759 5.77 18.924 18.924 0 0 0 13.98-7.461l35.616-47.366-4.23-3.21"/>
        <path fill="#F58A07" d="M202.537 76.616l14.222 10.198v-13.95l-14.222 3.752"/>
        <path fill="#D3D3CF" d="M155.324 246.547h-.083.157-.074M155.439 246.546h.004-.004"/>
        <path fill="#CA5142" d="M155.439 246.546h.005-.005"/>
        <path fill="#D3D3CF" d="M155.37 189.11h.023-.023"/>
        <path fill="#CA5142" d="M155.324 189.11h.047-.047m.053 0H155.403h-.026"/>
        <path fill="#D3D3CF" d="M155.416 189.11h.025-.025"/>
        <path fill="#CA5142" d="M155.415 189.11h.003-.003m.018 0h.015-.015"/>
        <path fill="#D3D3CF" d="M155.462 189.11h.025-.025"/>
        <path fill="#CA5142" d="M155.46 189.11h.005-.005m.022 0h.007-.007"/>
        <path fill="#D3D3CF" d="M155.508 189.11h.028-.028"/>
        <path fill="#CA5142" d="M155.506 189.11h.005-.005"/>
        <path fill="#D3D3CF" d="M155.553 189.11h.032-.032"/>
        <path fill="#CA5142" d="M155.552 189.11h.006-.006m.031 0h.002-.002"/>
        <path fill="#D3D3CF" d="M155.598 189.11h.035-.035"/>
        <path fill="#CA5142" d="M155.596 189.11h.008-.008m.033 0h.008-.008"/>
        <path fill="#D3D3CF" d="M155.643 189.11h.036-.037"/>
        <path fill="#CA5142" d="M155.64 189.11h.012-.012m.035 0h.006-.006"/>
        <path fill="#D3D3CF" d="M155.688 189.11h.04-.04m.044 0l.042-.001H155.732m.044 0a58.138 58.138 0 0 0 21.342-4.215l.001.004a58.096 58.096 0 0 1-20.175 4.19h-.003l-.044.002h-.046l-.002.001-.041.001h-.007l-.038.001h-.01l-.036.001h-.01l-.037.001h-.008l-.037.001h-.011l-.035.002h-.059l-.033.001h-.013l-.033.001h-.016l-.029.001h-.017l-.03.001h-.063l-.03.001h-.018l-.028.001h-.018a.833.833 0 0 0-.048.001h-.047l-.026.001h-.067l-.026.001h-.068l-.026.001h-.108"/>
        <path fill="#CA5142" d="M155.686 189.11h.012-.012m.037 0h.022-.022m.048-.001h.02-.02m.049 0h.017-.017m.045 0l.02-.001h-.02m.045 0h.022-.022m.047 0h.02-.02m.048-.001h.02-.02m.045 0h.02-.02m.048-.001h.02-.02m.046 0l.02-.001h-.02m.048 0h.018-.018m.046-.001h.018-.018m.048-.001h.017-.017m.047-.001h.016-.016m.046 0h.017-.017m.046-.002h.016-.016m.049 0h.013-.013m.046-.001h.013-.013m.047-.001h.012-.012m.047-.001h.01-.01m.048-.001h.008-.008m.045-.001h.01-.01m.047-.002h.009-.01m.048 0h.007-.007m.048-.002h.002-.002m.046-.001h.002-.002m.046-.001h.003-.003"/>
        <path fill="#D3D3CF" d="M150.722 188.913l-.072-.006.072.006m-.1-.008l-.045-.004.046.004m-.077-.007c-.014 0-.027-.002-.041-.003l.041.003m-.074-.006l-.04-.003.04.003m-.074-.006l-.037-.003.037.003m-.073-.006l-.037-.003.037.003m-.073-.006l-.036-.003.036.003m-.072-.006c-.011-.002-.024-.003-.036-.003l.036.003M150.035 188.855a1.289 1.289 0 0 0-.035-.003c.012 0 .023.001.035.003m-.072-.007l-.037-.003.037.003m-.071-.007c-.013 0-.025-.002-.038-.003.012.001.025.003.038.003m-.073-.006l-.039-.004.04.004m-.144-.014l-.052-.005.052.005m-.07-.007l-.062-.006.061.006m-.073-.007l-.147-.014.147.014m-.151-.015a5.03 5.03 0 0 1-.068-.007l.068.007m-.079-.008l-.061-.006.061.006m-.078-.008l-.057-.006.057.006m-.07-.007l-.06-.007.06.007m-.074-.008l-.06-.007.06.007m-.073-.008a3.783 3.783 0 0 1-.06-.007l.06.007m-.073-.008l-.061-.007.06.007m-.07-.008l-.066-.007.066.007m-.072-.008l-.07-.008.07.008m-.071-.008a58.04 58.04 0 0 0 0 0"/>
        <path fill="#234388" d="M155.324 246.547h-.083a116.888 116.888 0 0 1-9.042-.358l4.523-57.276c1.52.119 3.051.198 4.602.198H155.604l.025-.001H155.745l.026-.001h.094l.02-.001H155.976l.028-.001h.065l.028-.001h.046l.02-.001h.046l.028-.001h.018l.03-.001h.017l.03-.001h.063l.03-.002h.061l.033-.001h.013l.034-.001h.012l.035-.001h.01l.038-.001h.008l.037-.001h.01l.037-.002h.054l.04-.002h.003l.044-.001h.002l.044-.001h.003a58.096 58.096 0 0 0 20.175-4.191l.528 2.882h23.496c.873 0 1.446.911 1.069 1.699l-6.768 14.103c0 .667-.54 1.207-1.207 1.207h5.344a.778.778 0 1 1 0 1.556h-5.587l-.557 33.764c-.833.29-1.671.572-2.513.844l-.57-34.608h-20.56l-.012.314a.9.9 0 0 1-.893.866l-.342.001 6.51 37.338a115.683 115.683 0 0 1-11.57 1.396 1880.72 1880.72 0 0 0-4.448-11.596c-.012 3.343-.012 7.433-.006 11.822-1.193.037-2.389.06-3.59.06h-.119m14.97-53.455l-.117 3.113.52-1.086-.403-2.027"/>
        <path fill="#E6E7E8" d="M176.94 290.725c-17.104 0-42.05-.22-45.767-.22-5.576 0-5.749-2.786-5.749-2.786 0-3.521 14.032-3.37 19.325-3.692 3.334-.205 12.481-.565 20.734-.565 4.847 0 9.387.123 12.257.477 7.757.954 21.784.657 22.276 3.78.493 3.123-3.938 2.293-6.933 2.785-.998.164-7.589.221-16.142.221"/>
        <path fill="#1C1F45" d="M154.052 280.948v4.73c0 .787.637 1.425 1.423 1.425h2.556l.209-.328a.614.614 0 0 1 1.048.022l.177.306h7.815c.54 0 .794-.67.387-1.026l-5.837-5.129h-7.778M165.362 276.218l-.577 4.696c-.096.78.458 1.49 1.239 1.585l2.537.313.247-.304a.614.614 0 0 1 1.038.152l.138.325 7.756.954a.587.587 0 0 0 .51-.973l-5.167-5.8-7.721-.948"/>
        <path fill="#0E4E80" d="M171.216 202.952l7.63 43.762-5.77 30.451-7.789-.928s2.404-29.62 2.404-30.1c0-.481-9.563-25.045-9.563-25.045l3.409-14.285 9.679-3.855"/>
        <path fill="#146EB4" d="M145.33 202.952s-1.873 15.2 1.109 29.24c2.98 14.04 7.404 48.756 7.404 48.756h8.078s-.336-58.612 0-58.95c.337-.336 4.534-1.977 7.098-5.221 3.629-4.594 2.197-13.825 2.197-13.825h-25.887"/>
        <path fill="#E5E6E3" d="M158.715 206.43h6.11v-3.06h-6.11z"/>
        <path fill="#0F1229" d="M158.128 206.2h-12.2a.18.18 0 0 1 0-.36h12.2a.18.18 0 0 1 0 .36M158.128 203.967h-12.2a.18.18 0 1 1 0-.36h12.2a.18.18 0 0 1 0 .36M170.84 206.2h-5.618a.18.18 0 1 1 0-.36h5.618a.18.18 0 0 1 0 .36M170.84 203.967h-5.618a.18.18 0 1 1 0-.36h5.618a.18.18 0 0 1 0 .36"/>
        <path fill="#F0B3BD" d="M178.826 175.095l3.825 20.868s.98 3.3-.714 4.013c-1.694.714-8.05 0-8.05 0l-.476 1.027h-1.52s-1.462-3.286-.702-4.207c.76-.922 3.175-1.19 3.175-1.19l-3.67-18.438 8.132-2.073"/>
        <path fill="#F58A07" d="M160.353 159.828s-18.793-.955-19.84 0c-1.046.955-9.34 16.2-9.34 16.2s.523 1.12 3.138 1.793c2.616.672 11.452 2.017 11.452 2.017l-1.881 22.695a.886.886 0 0 0 .886.959l26.864-.117a.9.9 0 0 0 .893-.866l.944-24.987 7.995-3.587s-4.932-11.732-5.978-12.256c-1.046-.522-15.133-1.851-15.133-1.851"/>
        <path fill="#1C1F45" d="M134.311 177.797c.591.152 1.5.339 2.553.536-.007-.358-.36-.718-1.603-.856-2.81-.314-4.088-1.473-4.088-1.473s.523 1.12 3.138 1.793"/>
        <path fill="#F0B3BD" d="M167.92 146.62s-.567 2.483-.709 4.257c-.142 1.774-.426 3.831-2.838 4.612-2.412.78-2.058.568-2.058.568-.08 1.71.869 2.664 1.55 4.093l-3.718 2.789-5.352-3.36s3.192-1.962 2.27-4.09c-.922-2.129-2.27-8-2.27-8s1.66-3.146 4.677-3.746c2.712-.54 6.702 1.366 8.448 2.877"/>
        <path fill="#1C1F45" d="M161.467 151.903s.488-.953 1.697-.837c1.209.116 2.115-.232 2.72 1.256 0 0 .255.395.464.348 0 0-1.185.542-2.138.004-.953-.538-.976.178-1.952.238-.977.06-1.395-.312-1.395-.312s.65-.255.604-.697"/>
        <path fill="#1C1F45" d="M170.193 144.118s.094-2.435-1.966-3.184c-2.06-.749-3.98-.655-3.98-.655s-3.09-1.686-5.71-1.124c-2.622.562-3.933 3.09-3.933 3.09s-2.2 2.06-2.107 4.213c.094 2.154 1.92 3.465 1.92 3.465s-.843 1.264-.188 2.387c.174.298.335.629.477.954a10.734 10.734 0 0 0 2.474 3.487l.022.021.585-3.853s-1.826-.281-1.779-2.669c.047-2.388 1.077-2.107 1.686-1.873.232.09.448.406.625.761.076 1.058.262 1.732.397 2.101.007.102.049.22.156.354l.046.141c.045.715-1.639 3.028-.046 4.4 1.72 1.481 5.401.908 7.074 0s1.057-3.68 1.057-3.68c-.209 1.579-1.87 1.768-2.443 1.634-.574-.134-1.386-.535-2.008-.136-.503.324-1.73-.014-2.175-.154a.288.288 0 0 1-.199-.219v-.002c.133-.931-.484-2.15-.687-2.665-.175-.443-.34-2.014-.4-2.636.171-.403.435-.749.842-.906l-.093-2.022s3.51.535 4.905.488c1.394-.046 3.056.684 3.056.684l-.102 1.153s4.46-1.964 2.494-3.555"/>
        <path fill="#0F1229" d="M146.172 178.643l-.027-.002a.178.178 0 0 1-.149-.203c1.68-10.79-.9-14.98-.926-15.02a.178.178 0 0 1 .3-.193c.11.171 2.683 4.32.978 15.268a.178.178 0 0 1-.176.15M173.412 175.977l-.016-.001a.178.178 0 0 1-.162-.193l.953-10.953a.178.178 0 1 1 .354.031l-.952 10.953a.178.178 0 0 1-.177.163M155.793 164.545l-2.013-4.29a.178.178 0 1 1 .322-.151l1.854 3.948 2.777-1.507a.177.177 0 0 1 .24.072.177.177 0 0 1-.07.241l-3.11 1.687M163.712 164.569l-2.488-1.477a.179.179 0 0 1 .182-.307l2.093 1.244.99-3.353a.178.178 0 0 1 .342.1l-1.12 3.793M160.026 164.14l-.043.002a.527.527 0 1 0 .043-.002zm0 1.409a.884.884 0 0 1-.88-.81.884.884 0 0 1 .808-.952.88.88 0 0 1 .951.808.884.884 0 0 1-.807.951l-.072.003zM160.027 166.534l-.044.001a.523.523 0 0 0-.298.926.528.528 0 0 0 .681-.802.522.522 0 0 0-.34-.125zm-.003 1.408a.873.873 0 0 1-.569-.21.875.875 0 0 1-.308-.6.877.877 0 0 1 .206-.643.877.877 0 0 1 1.244-.101.884.884 0 0 1-.499 1.551l-.074.003z"/>
        <path fill="#F0B3BD" d="M135.26 177.477s1 21.196 1.9 22.596c.9 1.4 26.3 0 26.3 0s2.025 1.064 3.214.622c1.19-.442 1.61-.512 1.61-.512l.584.82.736-.076-.392-1.973h.392l.429 2.05h.864l-.259-2.093h.26l.302 2.092h.691l.26-3.302s-1.112-1.61-1.457-1.61c-.346 0-1.339.191-1.964-.059-.921-.37-.901-.103-1.506.286-.605.389-4.409.562-4.409.562l-17.595-2.29.763-14.911s-3.53-2.892-10.722-2.202"/>
        <path fill="#95869E" d="M128.973 287.198h-.836l-1.416-85.781h3.667l-1.415 85.78"/>
        <path fill="#1C1F45" d="M130.388 201.417h-3.667l.078 4.068 3.559-2.488.03-1.58"/>
        <path fill="#95869E" d="M195.335 287.198h-.836l-1.416-85.781h3.667l-1.415 85.78"/>
        <path fill="#1C1F45" d="M196.75 201.417h-3.667l.078 4.068 3.559-2.488.03-1.58"/>
        <path fill="#95869E" d="M202.324 202.195h-79.407a.778.778 0 1 1 0-1.557h79.407a.779.779 0 0 1 0 1.557"/>
        <path fill="#1C1F45" d="M165.424 200.638h25.69c.666 0 1.206-.54 1.206-1.206h-28.102c0 .667.54 1.206 1.206 1.206"/>
        <path fill="#CBC2C2" d="M168.73 200.638h28.25c.667 0 1.207-.54 1.207-1.206H170.15c-.233.533-.514 1.206-1.42 1.206"/>
        <path fill="#FFFFFE" d="M173.387 200.313h1.058a.238.238 0 0 0 0-.477h-1.058a.238.238 0 1 0 0 .477M172.277 200.074a.239.239 0 1 0 .478 0 .239.239 0 0 0-.478 0M203.886 183.63h-24.93c-.788 0-1.505.452-1.846 1.162l-7.025 14.64h28.102l6.768-14.103a1.185 1.185 0 0 0-1.07-1.699"/>
        <path fill="#1C1F45" d="M178.997 183.63h-.747c-.787 0-1.505.452-1.845 1.162l-7.026 14.64h.747l7.026-14.64a2.046 2.046 0 0 1 1.845-1.162"/>
        <path fill="#FFCB30" d="M180.548 105.225c0-9.901-8.026-17.928-17.928-17.928-9.9 0-17.927 8.027-17.927 17.928 0 7.003 4.018 13.064 9.872 16.015v7.93l5.662 3.803h4.787l5.662-3.802v-7.931c5.853-2.95 9.872-9.012 9.872-16.015"/>
        <path fill="#F58A07" d="M158.327 121.24h-1.532v-18.486l4.112 4.111 2.626-3.639 2.213 3.575 6.231-10.177 1.306.8-7.53 12.298-2.318-3.743-2.338 3.242-2.77-2.77v14.789M154.565 129.033v.138l5.662 3.802h4.787l5.662-3.802v-.138h-16.111"/>
        <path fill="#146EB4" d="M154.565 122.788h16.11v-1.548h-16.11zM154.565 125.91h16.11v-1.547h-16.11zM154.565 129.033h16.11v-1.548h-16.11z"/>
        <path fill="#F58A07" d="M173.838 94.455v5.493l-4.425-2.289 4.425-3.204"/>
        <path fill="#FFFFFE" d="M163.454 88.85v4.466s-11.667 0-16.26 11.081c0 0 1.225-12.9 16.26-15.546"/>
        <path fill="#CF7406" d="M161.948 132.973h3.066l5.662-3.802v-.138h-5.404l-3.94 3.94h.616"/>
        <path fill="#CFA731" d="M244.603 132.973h-.51v-1.857l-1.456 1.857h-4.316a.364.364 0 0 1-.127-.707l2.377-.883 1.256-1.753v.003c.062-.324.186-.65.293-.918.18-.452.243-1.78.19-2.263l-2.089-19.004-.24-6.894c-.186-1.53-1.068-9.067-.823-11.688.274-2.922 2.466-2.648 3.015-4.75.548-2.1-3.106-9.078-3.106-9.078s-6.792 7.176-8.353 7.176a.398.398 0 0 1-.1-.012c-.999-.26-4.993-5.117-6.969-7.581-.047.073-.095.145-.137.224l-.43-.45c.052-.099.108-.188.165-.278-.443-.557-.717-.907-.717-.907s-1.229-.873-1.898-1.86l-3.864 2.674.387-7.967-6.344-4.835 7.697-2.094 2.638-7.528 4.37 6.673 7.975.183-4.996 6.218 2.29 7.641-6.01-2.28c.247.637-.324 1.603-.324 1.603l.83.745c.206-.085.344-.122.362-.127l.343.498c-.003.001-.076.03-.197.085l5.472 4.91 7.445-9.89c.94-.551 2.251-.94 3.549-1.215 1.508-2.297-.078-3.534-.078-3.534-2.27-1.904-1.93-4.393-1.706-5.306-.098-.945.013-1.635.013-1.635-1.104-2.366-.036-2.927 1.029-2.989a116.55 116.55 0 0 1 15.005 20.933 1.59 1.59 0 0 1-.211.301c.87 2.092 1.916 4.741 2.128 5.873.064.34-.078.824-.353 1.388h.003l-.042.082a8.775 8.775 0 0 1-.279.512l-.091.155-.118.192-.006.009.755.322c.556.237.815.88.578 1.437l-2.48 5.815a1.089 1.089 0 0 1-1.371.599c.43 3.407-2.808 10.033-2.808 10.033l-2.773 7.193s3.137 2.063 4.254 5.02c.835 2.213 1.948 5.974 2.228 7.505.093.504.275.988.544 1.425.098.159.183.288.254.403a.978.978 0 0 1 .733.735c.074.328.046.587.046.587l1.021 1.552-.425.28-1.02-1.551-.198 2.351-3.606 2.371a.365.365 0 0 1-.494-.52l1.501-2.044.19-2.27.003.004a8.209 8.209 0 0 1-.087-.691 5.344 5.344 0 0 0-1.153-2.897c-1.879-2.344-5.637-8.075-7.474-10.7.02.138.033.275.057.41l.046.242c.052.257.11.53.175.819.653 2.883-1.422 12.936-1.758 15.395-.054.39-.025 1.622.084 2 .069.242.169.578.312 1.044.013.042.018.08.028.121.222.26.314.627.18.984-.119.315-.284.516-.284.516v1.858m6.317-32.492l1.3.35a8.844 8.844 0 0 0-1.3-.35m1.732-24.265l-.945 3.92 2.666 1.136c.08-.261.107-.471.06-.61-.211-.618-1.058-2.695-1.78-4.446m-29.33-6.73l-.163.112c.048.046.09.085.125.114a.126.126 0 0 0 .198-.145l-.01-.025-.15-.057"/>
        <path fill="#FFFFFE" d="M223.126 51.6l4.37 6.673 7.974.183-4.996 6.218 2.29 7.641-7.458-2.83-6.558 4.54.386-7.968-6.344-4.835 7.697-2.094 2.639-7.528"/>
        <path fill="#E0A8B2" d="M254.203 100.831l-2.774 7.193s3.137 2.063 4.254 5.02c.836 2.213 1.948 5.974 2.229 7.505.092.504.274.988.544 1.425.39.634.574.788.49 1.502-.132 1.117-1.046 2.43-1.896 1.773-.432-.334-.608-1.249-.677-2.068a5.344 5.344 0 0 0-1.153-2.897c-2.364-2.95-7.71-11.273-8.45-12.001-.952-.94 2.098-8.89 2.098-8.89l5.335 1.438"/>
        <path fill="#F0B3BD" d="M241.963 100.554l.242 6.894 2.088 19.004c.054.484-.01 1.81-.19 2.263-.27.682-.666 1.749.18 2.192 1.137.596 2.85.116 2.38-1.413a59.225 59.225 0 0 1-.313-1.044c-.109-.378-.137-1.61-.084-2 .337-2.46 2.41-12.512 1.759-15.395a33.725 33.725 0 0 1-.221-1.06c-.41-2.275-.102-4.621.818-6.743l1.931-4.455s-8.047-1.453-8.59 1.757M257.05 71.523s2.988 6.76 3.364 8.764c.376 2.003-6.26 8.888-6.26 8.888l-1.752-1.565s4.397-5.821 4.014-6.948c-.383-1.127-2.888-7.111-2.888-7.111s1.975-4.422 3.522-2.028"/>
        <path fill="#1C1F45" d="M256.416 81.297c-.036.035-.07.07-.102.104-.13.37-.354.826-.631 1.321.08.573.733.799.733.799l1.738 1.046c.79-1.021 1.5-2.05 1.91-2.892-1.696.13-3.648-.378-3.648-.378"/>
        <path fill="#D0CEDD" d="M256.944 90.777l-8.752-3.732a1.096 1.096 0 0 1-.578-1.437l2.48-5.816c.237-.556.88-.815 1.437-.578l8.752 3.733c.557.237.816.88.578 1.437l-2.48 5.815a1.095 1.095 0 0 1-1.437.578"/>
        <path fill="#FFFFFE" d="M255.594 85.574a1.474 1.474 0 1 1-2.712-1.156 1.474 1.474 0 0 1 2.712 1.156"/>
        <path fill="#F0B3BD" d="M242.555 57.447s-1.23 3.289 1.601 5.663c0 0 1.644 1.279 0 3.654l5.115-.822.548-6.576-7.264-1.919"/>
        <path fill="#146EB4" d="M248.906 66.033s-5.572.274-8.22 1.827c0 0 2.557 5.625.365 7.178 0 0 3.653 6.979 3.105 9.08-.548 2.1-2.74 1.826-3.014 4.748-.274 2.923.855 11.965.855 11.965s8.187-1.461 12.206 0c0 0 3.927-8.037 2.557-10.96s-3.745-6.941-3.745-6.941l2.558-10.595s1.37-6.576-6.667-6.302"/>
        <path fill="#2A3052" d="M242.463 56.169s-.59 3.653 2.15 5.663c2.74 2.009-1.37 8.311-.457 11.05.913 2.741 4.293 1.737 4.293 1.737s1.004 2.557 3.47 2.374c2.466-.183 3.014-2.557 3.014-2.557s1.279 1.46 3.014.274c1.736-1.188 0-3.654 0-3.654s2.284 0 2.101-1.826c-.183-1.827-7.033-2.923-7.398-9.408-.365-6.485-3.562-7.58-4.75-7.215-1.187.365-2.922.73-2.922.73s-4.39-1.187-2.515 2.832"/>
        <path fill="#0F1229" d="M251.942 82.882h-.016c-2.51-.408-6.281-.004-6.32 0a.097.097 0 0 1-.11-.089.1.1 0 0 1 .09-.11c.037-.004 3.836-.41 6.372.001a.1.1 0 0 1 .082.114.1.1 0 0 1-.098.084"/>
        <path fill="#F0B3BD" d="M240.685 67.86l-7.445 9.89-6.81-6.112-1.92 1.572s6.746 8.643 8.087 8.992c1.341.35 8.454-7.164 8.454-7.164s1.532 2.6.946-2.472c-.586-5.072-1.312-4.706-1.312-4.706"/>
        <path fill="#305293" d="M225.492 74.845l-.43-.45c.9-1.707 2.493-2.122 2.56-2.139l.343.498c-.013.004-1.716.657-2.473 2.09"/>
        <path fill="#305293" d="M226.898 73.53a.698.698 0 1 1-1.397 0 .698.698 0 0 1 1.397 0"/>
        <path fill="#FFFFFE" d="M226.694 73.53a.494.494 0 1 1-.989 0 .494.494 0 0 1 .989 0"/>
        <path fill="#F0B3BD" d="M226.43 71.638s.65-1.1.264-1.726c-.387-.627-1.283-2.257-1.283-2.257s-.395.322-.35.716c.038.323.308.971.405 1.196a.126.126 0 0 1-.198.145c-.237-.205-.885-.827-1.218-1.753-.412-1.146 0-1.576 0-1.576s.018-.502-.573-.358c-.592.143-.592 1.576-.376 2.22 0 0-.932.682-.914 2.007.018 1.326 2.323 2.958 2.323 2.958s1.954-.956 1.92-1.572"/>
        <path fill="#305293" d="M245.936 129.26a.996.996 0 0 0-.955.717c-.147.502-.386 1.062-.699.93-.545-.23-.471-1.277-.471-1.277l-1.256 1.753-2.377.883a.365.365 0 0 0 .126.707h4.316l1.457-1.857v1.857h.51v-1.858s.165-.201.283-.516a.994.994 0 0 0-.934-1.339"/>
        <path fill="#1C1F45" d="M257.927 122.506a.995.995 0 0 0-.404 1.124c.152.5.26 1.1-.073 1.16-.583.108-.992-.922-.992-.922l-.19 2.27-1.501 2.044a.365.365 0 0 0 .494.52l3.606-2.37.197-2.352 1.02 1.55.426-.28-1.021-1.551s.028-.26-.046-.587a.994.994 0 0 0-1.516-.606"/>
        <path fill="#FFFFFE" d="M225.306 69.485l1.592.604-1.193-2.725h-1.371l.972 2.121"/>
        <path fill="#CA5142" d="M83.29 106.002l.114-.524c.387.079.768.155 1.142.23l-1.256.294"/>
        <path fill="#161737" d="M63.785 101.269l-.55-.522.61.161-.06.36"/>
        <path fill="#CA5142" d="M64.31 101.767l-.525-.498.06-.361.616.161-.151.698"/>
        <path fill="#CF7406" d="M48.645 100.455l-2.874-.813a4.806 4.806 0 0 1 .863-6.121 4.8 4.8 0 0 1 3.22-1.229c.322 0 .644.032.96.095a4.92 4.92 0 0 0-2.169 8.067m8.897-5.108l-1.776-1.686c1.723-5.636 4.617-13.323 5.905-13.983 1.077-.552 4.353-.774 7.21-.86-2.112.128-4.08.358-4.874.765-1.524.782-4.966 10.46-6.465 15.764m15.04-16.667l-.006-.037a6.68 6.68 0 0 1-.07-.684l-.081.003.073-.036-.007-.032-.023-.022c-.132-.126-1.28-1.264-1.033-2.294.102-.425.33-.642.698-.663l.098-.006.002-.098c.026-.928.125-1.579.126-1.585l.006-.037-.02-.033c-.013-.024-1.332-2.357.148-4.335.766-1.026 1.737-1.333 2.896-1.333.339 0 .693.026 1.063.069-.626.19-1.181.56-1.66 1.2-1.538 2.058-.153 4.453-.153 4.453s-.102.65-.128 1.597c-.318.019-.659.183-.794.746-.256 1.067.857 2.199 1.061 2.396l.006.022c.011.23.034.46.07.688-.591 0-1.382.005-2.272.021"/>
        <path fill="#CFA731" d="M84.546 105.708c-.374-.075-.755-.151-1.142-.23l1.143.23m-1.128-.298l2.194-10.122A1.335 1.335 0 0 0 84.59 93.7l-16.395-3.554a1.331 1.331 0 0 0-1.588 1.022l-1.242 5.726-4.442-1.67a.107.107 0 0 0-.137.062.106.106 0 0 0 .062.137l4.472 1.681-.86 3.965a629.577 629.577 0 0 1-1.226-.322c.224.06.452.12.685.18l-6.052-6.7c-.117.39-.226.764-.326 1.119 1.499-5.304 4.941-14.982 6.465-15.764.794-.407 2.762-.637 4.875-.765 1.399-.042 2.697-.052 3.589-.052h.124l-.013-.086c.89-.016 1.68-.02 2.271-.02.232 1.494 1.021 2.9 3.044 3.339.332.072.646.105.942.105 1.008 0 1.81-.386 2.445-.945 4.387 1.589 8.842 3.448 9.4 4.085.701.804 1.307 11.523 1.012 17.923l-.022.439.126-.016c.182-.022.364-.034.544-.035l-8.925 1.856m1.136-3.875c-.062.006-.108.043-.11.102a.107.107 0 0 0 .102.11l4.785.178h.004a.107.107 0 0 0 .004-.213l-4.785-.177m5.46-14.07a.106.106 0 0 0-.105.087c-.017.095-1.77 9.564-2.783 12.841a.107.107 0 0 0 .07.134l.032.004c.045 0 .087-.03.102-.075 1.016-3.29 2.771-12.77 2.789-12.865a.107.107 0 0 0-.105-.127M66.19 82.646a.108.108 0 0 0-.107.095c-.01.083-.956 8.382-2.265 12.238a.107.107 0 0 0 .067.136l.034.006a.107.107 0 0 0 .1-.073c1.317-3.878 2.266-12.2 2.276-12.284a.107.107 0 0 0-.095-.117h-.01"/>
        <path fill="#0E1223" d="M87.229 100.531l-.032-.004a.107.107 0 0 1-.07-.134c1.013-3.277 2.766-12.746 2.783-12.841a.106.106 0 0 1 .124-.086c.058.01.096.066.086.125-.018.095-1.773 9.576-2.79 12.865a.107.107 0 0 1-.101.075M63.92 95.12l-.034-.005a.107.107 0 0 1-.067-.136c1.31-3.856 2.255-12.155 2.265-12.238a.108.108 0 0 1 .117-.094c.059.006.1.059.095.117-.01.084-.959 8.406-2.275 12.284a.107.107 0 0 1-.101.073M65.32 97.104l-4.47-1.681a.106.106 0 0 1-.063-.137.107.107 0 0 1 .137-.063l4.442 1.671-.045.21M89.336 101.925h-.004l-4.785-.177a.107.107 0 0 1-.102-.11c.002-.06.048-.097.11-.103l4.785.177a.107.107 0 0 1-.004.213"/>
        <path fill="#CE979E" d="M78.839 82.103c-.296 0-.61-.033-.942-.105-2.023-.439-2.812-1.845-3.044-3.34a6.737 6.737 0 0 1-.07-.688l.001.003.002-.018.024.022.363-3.041c.588-.465 2.722-2.003 5.18-2.003.848 0 1.733.183 2.608.656 0 0-1.541 1.885-.678 3.199.067.101.127.206.18.314-.12.201-.249.397-.387.586l-.02.044-.001.031c-.003.05-.006.1-.017.157-.214 1.106-1.96 1.61-1.978 1.616l.026.094-.09-.045c-.16.284-.333.549-.515.786l-.09.117.14.048c.577.2 1.164.408 1.753.622-.635.559-1.437.945-2.445.945"/>
        <path fill="#161737" d="M74.784 77.973v-.003l-.006-.022.008.007-.002.018m7.679-.871a2.952 2.952 0 0 0-.18-.314c-.863-1.314.678-3.199.678-3.199a5.406 5.406 0 0 0-2.608-.656c-2.458 0-4.592 1.538-5.18 2.003-.004-.002-.28-.132-.597-.132-.021 0-.043 0-.065.002.026-.947.128-1.597.128-1.597s-1.385-2.395.153-4.453c.479-.64 1.034-1.01 1.66-1.2.488.055 1.002.138 1.543.226.385.062.782.126 1.19.183 2.796.395 2.797 2.579 2.796 2.672l-.002.105.105.003c.335.01.659.217.911.582.52.751.827 2.286.127 4.34a7.612 7.612 0 0 1-.66 1.435"/>
        <path fill="#CE979E" d="M74.81 77.977l-.024-.022-.008-.007c-.204-.197-1.317-1.33-1.061-2.396.135-.563.476-.727.794-.746l.065-.002c.317 0 .593.13.597.132l-.363 3.041"/>
        <path fill="#BEBEBA" d="M80.016 106.77l-.298-.064-13.224-2.867-2.184-2.072 1.01-4.663.046-.21 1.242-5.726a1.336 1.336 0 0 1 1.588-1.022L84.59 93.7c.72.156 1.178.868 1.022 1.588l-2.194 10.122-.172.035.157.032-.114.525-3.274.768"/>
        <path fill="#5C5360" d="M78.55 107.114l-11.152-2.417-.904-.858 13.224 2.867.298.064-.746.175.035-.164-1.087-.236-.058.27.865.187-.476.112"/>
        <path fill="#7E7387" d="M79.025 107.002l-.865-.187.058-.27 1.087.236-.035.164-.245.057"/>
        <path fill="#234388" d="M68.99 106.208l-20.345-5.753a4.92 4.92 0 0 1 2.169-8.068c.86.173 1.68.58 2.353 1.218l2.045 1.94.373-1.287.18-.598 1.777 1.686c-.517 1.833-.803 3.144-.697 3.384.11.249 2.668 1.029 6.39 2.017l5.756 5.461M93.53 113.037c-.158-.012-.316-.02-.475-.024l-17.98-5.084 3.474-.815.476-.112.245-.057.746-.175 3.274-.768 1.256-.294h.001c3.834.761 6.94 1.267 8.333 1.267.417 0 .68-.046.763-.143.244-.286.409-1.382.506-2.941a4.81 4.81 0 0 1-.619 9.146"/>
        <path fill="#CA5142" d="M63.92 100.928l-.685-.181c-3.722-.988-6.28-1.768-6.39-2.017-.106-.24.18-1.551.697-3.384.1-.355.21-.729.326-1.119l6.052 6.7M92.88 106.975c-1.393 0-4.5-.506-8.333-1.267a254.92 254.92 0 0 1-1.143-.23l-.157-.033.172-.035 8.925-1.856h.04c.615 0 1.212.118 1.765.337-.097 1.559-.262 2.655-.506 2.941-.083.097-.346.143-.763.143"/>
        <path d="M45.77 99.642l-.297-.084a5.02 5.02 0 0 1 1.018-6.196 5.014 5.014 0 0 1 3.363-1.283c.472 0 .945.066 1.402.197a4.9 4.9 0 0 0-.442.111 4.883 4.883 0 0 0-.96-.095 4.8 4.8 0 0 0-4.81 4.932c.024.867.278 1.7.727 2.418m9.995-5.982l-.14-.133a3.183 3.183 0 0 0-.033-.03c1.684-5.485 4.591-13.297 5.98-14.01 1.622-.831 7.978-.932 10.774-.935a6.938 6.938 0 0 1-.052-.552c-.277-.27-1.328-1.388-1.067-2.473.14-.584.492-.771.795-.816.026-.77.1-1.338.12-1.483-.16-.302-1.284-2.579.179-4.536.819-1.095 1.838-1.42 3.048-1.42.533 0 1.103.063 1.709.15a3.826 3.826 0 0 0-.627.134 9.416 9.416 0 0 0-1.063-.069c-1.159 0-2.13.307-2.896 1.333-1.48 1.978-.16 4.311-.147 4.335l.019.033-.006.037c0 .006-.1.657-.126 1.585l-.002.098-.098.006c-.368.021-.596.238-.698.663-.247 1.03.901 2.168 1.033 2.294l.023.022.007.032-.073.036.081-.003c.012.23.035.46.07.684l.006.037c-1.142.021-2.447.062-3.7.138-2.858.086-6.134.308-7.211.86-1.288.66-4.182 8.347-5.905 13.983"/>
        <path fill="#CFA834" d="M91.674 103.605l.022-.44c.295-6.399-.31-17.118-1.013-17.922-.557-.637-5.012-2.496-9.4-4.085.06-.053.119-.108.176-.164 4.367 1.585 8.794 3.433 9.385 4.11.848.97 1.322 12.506 1.065 18.071l-.01.189a4.977 4.977 0 0 1 1.213.03l-.768.16c-.18.001-.362.013-.544.035l-.126.016M68.882 78.817a89.434 89.434 0 0 1 3.7-.138l.013.086h-.124c-.892 0-2.19.01-3.59.052"/>
        <path fill="#CE99A5" d="M81.284 81.158c-.59-.214-1.176-.422-1.753-.622l-.14-.048.09-.117c.182-.237.355-.502.515-.786l.09.045-.026-.094c.018-.005 1.764-.51 1.978-1.616.011-.057.014-.107.017-.157l.002-.031.02-.044c.137-.19.266-.385.386-.586.039.078.074.157.105.237a7.664 7.664 0 0 1-.301.45 1.302 1.302 0 0 1-.02.172c-.221 1.146-1.799 1.68-2.087 1.768a6.992 6.992 0 0 1-.422.654c.567.197 1.144.402 1.721.611-.057.056-.115.11-.175.164"/>
        <path fill="#171839" d="M82.568 77.34a2.835 2.835 0 0 0-.105-.238c.267-.45.488-.93.66-1.434.7-2.055.393-3.59-.128-4.34-.252-.366-.576-.573-.91-.583l-.106-.003.002-.105c.001-.093 0-2.277-2.796-2.672-.408-.057-.805-.121-1.19-.183-.54-.088-1.055-.171-1.543-.226.202-.062.41-.105.627-.133.307.044.624.095.95.148.383.062.78.126 1.186.183 2.637.372 2.94 2.318 2.975 2.785.367.046.712.28.98.667.55.793.88 2.4.154 4.53a7.806 7.806 0 0 1-.756 1.603"/>
        <path fill="#25458A" d="M55.212 95.545l-2.045-1.94a4.774 4.774 0 0 0-2.353-1.218 4.9 4.9 0 0 1 .442-.111c.751.215 1.46.607 2.058 1.174l1.789 1.697.277-.95.213-.7.033.03.14.133-.181.598-.373 1.287M94.077 113.095a7.834 7.834 0 0 0-.547-.058 4.806 4.806 0 0 0 2.938-2.135 4.81 4.81 0 0 0-2.32-7.011c.006-.074.01-.148.014-.223a5.024 5.024 0 0 1-.085 9.427"/>
        <path fill="#CA5245" d="M94.149 103.89a4.785 4.785 0 0 0-1.765-.336h-.04l.768-.16c.362.053.714.146 1.05.274l-.013.223"/>
        <path fill="#A9463A" d="M96.007 113.847l-1.601-.452.583-.09c.109.038.216.079.322.124.246.107.482.25.696.418"/>
        <path fill="#234388" d="M94.406 113.395l-.673-.19c.116-.033.23-.07.344-.11.31.044.616.111.912.21l-.583.09"/>
        <path fill="#263A73" d="M93.312 113.085l-.257-.072c.159.005.317.012.475.024a5.08 5.08 0 0 1-.218.048"/>
        <path fill="#253A78" d="M93.733 113.205l-.421-.12a5.08 5.08 0 0 0 .218-.048c.184.013.366.032.547.058-.113.04-.228.077-.344.11"/>
        <path fill="#E1604E" d="M64.471 97.138l-.866 5.21 22.163 4.804 2.898-10.671-24.195.657"/>
        <path fill="#FFCB30" d="M75.938 78.664s-9.88-.133-11.93.918c-2.051 1.052-7.576 18.211-7.163 19.148.413.937 35.653 9.441 36.798 8.102 1.145-1.34.533-20.483-.494-21.659-1.028-1.175-14.167-6.063-17.21-6.51"/>
        <path fill="#0F1229" d="M87.229 100.532l-.032-.005a.107.107 0 0 1-.07-.134c1.013-3.277 2.766-12.746 2.783-12.841a.106.106 0 0 1 .124-.086c.058.01.096.066.086.125-.018.095-1.773 9.576-2.79 12.865a.107.107 0 0 1-.101.076M63.92 95.12l-.034-.005a.106.106 0 0 1-.067-.135c1.31-3.857 2.255-12.156 2.265-12.24.006-.058.06-.099.117-.093.059.006.1.059.094.117-.009.084-.958 8.406-2.274 12.284a.107.107 0 0 1-.101.073"/>
        <path fill="#F0B3BD" d="M66.278 100.012l-.055-1.903a.246.246 0 0 1 .224-.253l.654-.057a.248.248 0 0 0 .206-.15l.225-.54a.247.247 0 0 1 .28-.145l.5.108a.247.247 0 0 0 .23-.068l.41-.423a.246.246 0 0 1 .345-.008l.504.469c.065.06.156.08.24.055l.382-.117a.247.247 0 0 1 .302.147l.819 2.105a.247.247 0 0 1-.149.323l-.305.106a.247.247 0 0 1-.297-.112.247.247 0 0 0-.461.106l-.005.082a.247.247 0 0 1-.186.225l-2.646.662-.052.007c-.158.005-.926 0-1.148-.535a.232.232 0 0 1-.017-.084M83.115 103.662l.839-1.71a.246.246 0 0 0-.1-.323l-.57-.322a.247.247 0 0 1-.126-.222l.018-.584a.247.247 0 0 0-.194-.249l-.501-.108a.248.248 0 0 1-.18-.157l-.199-.555a.246.246 0 0 0-.31-.15l-.654.217a.246.246 0 0 1-.241-.049l-.299-.264a.247.247 0 0 0-.335.009l-1.618 1.577c-.1.097-.1.259.002.355l.234.223c.087.083.22.091.316.02.199-.145.465.058.376.288l-.03.078a.247.247 0 0 0 .077.281l2.134 1.698.045.028c.142.07.843.383 1.266-.012l.05-.07"/>
        <path fill="#0F1229" d="M66.372 97.493l-.038-.007-5.485-2.063a.106.106 0 1 1 .075-.2l5.485 2.063a.106.106 0 0 1-.037.207M89.336 101.925h-.004l-4.785-.177a.106.106 0 0 1-.102-.11c.002-.06.048-.097.11-.103l4.785.177a.106.106 0 0 1-.004.213"/>
        <path fill="#F0B3BD" d="M75.305 74.278s-2.277 6.664 2.592 7.72c4.428.96 5.549-4.955 5.549-4.955s1.232-3.545-2.112-4.701c-3.344-1.156-5.97.663-6.029 1.936"/>
        <path fill="#1C1F45" d="M82.961 73.59s-1.541 1.884-.678 3.198a2.86 2.86 0 0 1 .214 2.802l-.023.049s2.154-1.058 3.135-3.937c.98-2.879.043-5.027-1.137-5.063 0 0 .04-2.367-2.887-2.779-2.927-.413-5.254-1.162-6.793.896-1.538 2.058-.153 4.453-.153 4.453s-.382 2.448.145 4.764l.228-2.906s4.088-3.567 7.949-1.478"/>
        <path fill="#F0B3BD" d="M83.312 77.397l-.838 2.242s1.825-.514 2.054-1.698c.076-.395-.013-.641-.166-.795-.326-.327-.889-.182-1.05.25M75.173 74.936l-.363 3.041s-1.375-1.252-1.093-2.425c.281-1.173 1.456-.616 1.456-.616"/>
        <path fill="#DCDCDC" d="M84.59 93.7l-16.394-3.554a1.335 1.335 0 0 0-1.588 1.022l-2.346 10.82a1.336 1.336 0 0 0 1.022 1.589l16.395 3.554a1.336 1.336 0 0 0 1.588-1.022l2.346-10.82A1.335 1.335 0 0 0 84.59 93.7"/>
        <path fill="#6D6374" d="M82.531 107.977l-18.373-3.983a.323.323 0 1 1 .137-.632l18.373 3.983a.323.323 0 1 1-.137.632"/>
        <path fill="#95869E" d="M79.871 107.045a.138.138 0 1 1 0 0M78.16 106.815l1.087.236.058-.27-1.087-.236-.058.27"/>
        <path fill="#0E4E80" d="M55.626 93.527l21.861 20.743c-2.383 1.206-3.977 3.111-4.979 5.542l-23.36-18.891a4.92 4.92 0 1 1 6.478-7.394"/>
        <path fill="#1C1F45" d="M69.704 115.012l-1.89 1.003 2.816 2.278c1.123-.609 3.309-1.78 3.606-1.826.403-.061-4.532-1.455-4.532-1.455"/>
        <path fill="#1C1F45" d="M77.487 114.27l3.681 3.271a.662.662 0 0 1 .052.938c-1.525 1.69-6.565 7.124-8.698 7.549 0 0-1.465-.847-.416-2.774 1.05-1.927.65-4.007.65-4.007s1.178-4.768 4.731-4.977"/>
        <path fill="#2E446F" d="M72.522 126.028c2.133-.425 7.173-5.86 8.698-7.549a.662.662 0 0 0 .088-.762c-.845.28-4.579 1.83-8.786 8.31"/>
        <path fill="#0E4E80" d="M93.642 103.575l-29.341 6.88c1.45 2.244 1.864 4.693 1.504 7.297l29.7-4.525a4.92 4.92 0 1 0-1.863-9.652"/>
        <path fill="#1C1F45" d="M64.301 110.455l-4.828.968a.661.661 0 0 0-.518.783c.464 2.228 2.074 9.463 3.701 10.906 0 0 1.692.008 1.759-2.185.067-2.194 1.46-3.788 1.46-3.788s1.389-4.71-1.574-6.684"/>
        <path fill="#2E446F" d="M62.656 123.112c-1.627-1.443-3.237-8.678-3.701-10.906a.662.662 0 0 1 .309-.703c.588.67 3.029 3.891 3.392 11.609"/>
        <path fill="#FFC53A" d="M57.868 94.227c-.718 2.405-1.15 4.216-1.023 4.503.116.263 2.985 1.125 7.075 2.198l-6.052-6.7M83.247 105.445c5.617 1.15 10.004 1.845 10.396 1.387.28-.328.455-1.724.545-3.661l-10.941 2.274"/>
        <path fill="#0F1229" d="M65.425 110.298a.107.107 0 0 1-.024-.21l5.263-1.234a.107.107 0 0 1 .048.207l-5.262 1.234-.025.003"/>
        <path fill="#FFFFFE" d="M95.964 43.043a.275.275 0 1 1 0-.55.275.275 0 0 1 0 .55M100.082 43.043h-2.75a.274.274 0 1 1 0-.55h2.75a.275.275 0 0 1 0 .55M106.915 43.043h-5.47a.275.275 0 0 1 0-.55h5.47a.275.275 0 0 1 0 .55M95.964 44.658a.275.275 0 1 1 0-.55.275.275 0 0 1 0 .55M105.005 44.658h-7.673a.274.274 0 1 1 0-.55h7.673a.274.274 0 1 1 0 .55M120.328 44.658h-13.96a.274.274 0 1 1 0-.55h13.96a.274.274 0 1 1 0 .55M95.964 46.273a.275.275 0 1 1 0-.55.275.275 0 0 1 0 .55M100.082 46.273h-2.75a.274.274 0 1 1 0-.549h2.75a.274.274 0 1 1 0 .549M95.964 47.888a.275.275 0 1 1 0-.55.275.275 0 0 1 0 .55M98.692 47.888h-1.36a.275.275 0 0 1 0-.549h1.36a.274.274 0 1 1 0 .55M105.005 47.888h-4.949a.275.275 0 0 1 0-.549h4.949a.274.274 0 1 1 0 .55M95.964 49.503a.275.275 0 1 1 0-.55.275.275 0 0 1 0 .55M101.732 49.503H98.98a.274.274 0 1 1 0-.549h2.75a.274.274 0 1 1 0 .55M109.808 49.503h-6.713a.274.274 0 1 1 0-.549h6.713a.275.275 0 0 1 0 .55M95.964 51.118a.275.275 0 1 1 0-.549.275.275 0 0 1 0 .55M123.163 51.118H98.98a.274.274 0 1 1 0-.548h24.182a.275.275 0 0 1 0 .548M127.502 51.118h-2.79a.274.274 0 1 1 0-.548h2.79a.274.274 0 1 1 0 .548"/>
        <path fill="#FFFFFE" d="M127.502 51.073h-2.79a.274.274 0 1 1 0-.55h2.79a.274.274 0 1 1 0 .55M95.964 52.734a.275.275 0 1 1 0-.55.275.275 0 0 1 0 .55M134.409 52.734h-33.533a.274.274 0 1 1 0-.55h33.533a.275.275 0 0 1 0 .55M95.964 54.349a.275.275 0 1 1 0-.55.275.275 0 0 1 0 .55M120.901 54.349h-20.025a.274.274 0 1 1 0-.55H120.9a.275.275 0 1 1 0 .55M127.502 54.349h-5.173a.274.274 0 1 1 0-.55h5.173a.274.274 0 1 1 0 .55M95.964 55.964a.275.275 0 1 1 0-.55.275.275 0 0 1 0 .55M100.327 55.964H98.98a.274.274 0 1 1 0-.549h1.346a.274.274 0 1 1 0 .549M95.964 57.558a.275.275 0 1 1 0-.55.275.275 0 0 1 0 .55M101.732 57.558H98.98a.274.274 0 1 1 0-.55h2.75a.274.274 0 1 1 0 .55M109.808 57.558h-6.713a.274.274 0 1 1 0-.55h6.713a.275.275 0 0 1 0 .55M95.964 59.173a.275.275 0 1 1 0-.55.275.275 0 0 1 0 .55M123.163 59.173H98.98a.274.274 0 1 1 0-.549h24.182a.275.275 0 0 1 0 .549M127.502 59.173h-2.79a.274.274 0 1 1 0-.549h2.79a.274.274 0 1 1 0 .549"/>
        <path fill="#FFFFFE" d="M127.502 59.127h-2.79a.274.274 0 1 1 0-.549h2.79a.274.274 0 1 1 0 .55M95.964 60.788a.275.275 0 1 1 0-.55.275.275 0 0 1 0 .55M134.409 60.788h-33.533a.275.275 0 0 1 0-.549h33.533a.274.274 0 1 1 0 .55M95.964 62.403a.275.275 0 1 1 0-.55.275.275 0 0 1 0 .55M106.467 62.403h-5.591a.274.274 0 1 1 0-.549h5.591a.274.274 0 1 1 0 .55M120.901 62.403h-12.808a.274.274 0 1 1 0-.549H120.9a.275.275 0 1 1 0 .55M127.502 62.403h-5.173a.274.274 0 1 1 0-.549h5.173a.274.274 0 1 1 0 .55M95.964 64.018a.275.275 0 1 1 0-.55.275.275 0 0 1 0 .55M100.327 64.018H98.98a.275.275 0 0 1 0-.548h1.346a.274.274 0 1 1 0 .548M95.964 65.612a.275.275 0 1 1 0-.55.275.275 0 0 1 0 .55M101.732 65.612H98.98a.274.274 0 1 1 0-.549h2.75a.274.274 0 1 1 0 .55M109.808 65.612h-6.713a.274.274 0 1 1 0-.549h6.713a.275.275 0 0 1 0 .55M95.964 67.227a.275.275 0 1 1 0-.549.275.275 0 0 1 0 .55M123.163 67.227H98.98a.274.274 0 1 1 0-.548h24.182a.275.275 0 0 1 0 .548M127.502 67.227h-2.79a.274.274 0 1 1 0-.548h2.79a.274.274 0 1 1 0 .548"/>
        <path fill="#FFFFFE" d="M127.502 67.182h-2.79a.274.274 0 1 1 0-.55h2.79a.274.274 0 1 1 0 .55M95.964 68.842a.275.275 0 1 1 0-.549.275.275 0 0 1 0 .55M134.409 68.842h-33.533a.274.274 0 1 1 0-.548h33.533a.274.274 0 1 1 0 .548M95.964 70.458a.275.275 0 1 1 0-.55.275.275 0 0 1 0 .55M120.901 70.458h-20.025a.274.274 0 1 1 0-.55H120.9a.275.275 0 1 1 0 .55M127.502 70.458h-5.173a.274.274 0 1 1 0-.55h5.173a.274.274 0 1 1 0 .55M134.409 70.458h-5.174a.274.274 0 1 1 0-.55h5.174a.274.274 0 1 1 0 .55M95.964 72.073a.274.274 0 1 1 0-.55.274.274 0 0 1 0 .55M100.327 72.073H98.98a.274.274 0 1 1 0-.549h1.346a.274.274 0 1 1 0 .549"/>
        <g transform="translate(158.005 15.947)">
            <mask id="b" fill="#fff">
                <use xlink:href="#a"/>
            </mask>
            <path fill="#6989B8" d="M.126 65.655h36.45V.275H.126z" mask="url(#b)"/>
        </g>
        <g transform="translate(155.074 -8.844)">
            <mask id="d" fill="#fff">
                <use xlink:href="#c"/>
            </mask>
            <path fill="#D3D5DB" d="M40.17 30.81a115.167 115.167 0 0 0-8.355-2.723l.033-.042.053-.063.08.023c2.679.765 5.364 1.64 7.98 2.599l.455.166-.246.04m-8.385-2.732l-.337-.095a.425.425 0 0 1 .337.095" mask="url(#d)"/>
            <path fill="#CA5245" d="M40.16 30.813a115.017 115.017 0 0 0-8.348-2.723l.003-.003c2.827.804 5.62 1.715 8.355 2.724l-.01.002m-8.369-2.73l-.352-.099h.01l.336.094.006.006" mask="url(#d)"/>
            <path fill="#6B8AB9" d="M32.29 90.78A58.128 58.128 0 0 0 5.23 81.349c-.856-4.08-.635-8.33.64-12.294l.487-1.522-3.538-19.276c-.193-1.294-.179-4.174 1.258-5.843.763-.885 1.827-1.334 3.163-1.334l4.084-.227.015-.055c.005-.016.424-1.569.052-2.745-.352.178-1.32.63-2.13.63-.206 0-.402-.03-.575-.1a1.009 1.009 0 0 1-.603-.675c-.175-.568-.155-1.036.06-1.39.137-.227.327-.36.483-.437-.45-.293-1.408-.997-1.506-1.728-.038-.288.058-.55.284-.777.175-.175.32-.312.442-.427.537-.506.537-.506.364-1.41l-.012-.063c-.182-.957-.112-2.7.614-3.577.27-.325.603-.505.995-.537.018-.454.222-1.946 2.105-2.313.358-.07.686-.098.983-.098 1.21 0 1.918.482 2.17.693.23-.253.882-.878 1.653-.878.236 0 .482.058.731.203.93.54 1.328 1.025 1.468 1.23.122-.045.336-.107.588-.107.306 0 .667.09.99.414.356.355.404 1.183.111 1.925-.193.49-.817 1.615-2.496 1.737.075.351.113.703.113 1.047 0 1.066.235 1.741.442 2.337.17.483.328.94.328 1.513 0 1.01-.897 1.78-1.69 2.46-.24.205-.466.4-.657.591-.684.685-.257 1.986-.16 2.25l4.259-.236 1.99-5.165.053-.02.187-.066c.09-.322.051-.895-.001-1.401l-.574.095a.262.262 0 0 1-.058.007c-.123 0-.244-.089-.36-.267l-.689.158a.308.308 0 0 1-.07.008c-.304 0-.522-.466-.619-.891-.104-.456-.105-1.017.237-1.095l.735-.168c.043-.171.126-.272.249-.3l1.169-.342a.533.533 0 0 1 .293-.296.544.544 0 0 1 .2-.036c.075 0 .145.013.203.029a.574.574 0 0 1 .303-.355.576.576 0 0 1 .236-.048c.118 0 .23.03.317.061.067-.259.193-.435.377-.526a.666.666 0 0 1 .298-.066c.148 0 .285.04.377.075.144-.222.33-.355.554-.396a.824.824 0 0 1 .144-.012c.377 0 .732.246.865.351l3.56-1.04c.042-.282.38-.588.701-.637l.018-.003.352.1.015.014.006-.008c2.828.804 5.613 1.713 8.349 2.723l-5.638.94-.026.486h.003l-.008.158-.085 1.154.018-.01.133-.078.05.146c.162.465 3.95 11.418 3.246 14.156-.176.683-1.35 1.674-6.678 1.674-1.248 0-2.722-.054-4.465-.18a46.022 46.022 0 0 0-.794 1.814c-2.976 7.274-3.69 15.994-3.726 16.458l.934 4.118c.428.536 8.003 10.035 11.819 15.096L32.29 90.78M11.53 37.688l.052.137c.425 1.118.12 2.571.027 2.95l.45.293-4.812.268c-1.266 0-2.264.419-2.977 1.245-1.376 1.598-1.386 4.384-1.199 5.635l3.548 19.333-.01.03s-.188.592-.497 1.554a23.827 23.827 0 0 0-.643 12.11 58.555 58.555 0 0 1 26.786 9.36l2.46-3.74c-3.915-5.19-11.728-14.979-11.807-15.077l-.025-.052-.948-4.183.001-.02c.007-.09.688-9.079 3.745-16.554.232-.565.513-1.206.837-1.905l.037-.08.088.006a63.69 63.69 0 0 0 4.572.186c3.872 0 6.143-.511 6.393-1.482.642-2.503-2.744-12.562-3.192-13.87l-.021.01-.275.14.16-2.448 5.14-.857a115.44 115.44 0 0 0-7.425-2.403.257.257 0 0 0-.044.107l-.056.647-.193-.62c-.037-.118-.097-.172-.195-.172-.015 0-.03 0-.047.003-.236.036-.487.299-.487.42l-.003.046-.008.086-.085.053-3.777 1.104-.053-.047c-.003-.003-.38-.333-.75-.333a.596.596 0 0 0-.1.009c-.178.032-.32.152-.435.368l-.06.114-.114-.062c-.002-.001-.18-.096-.366-.096a.413.413 0 0 0-.187.04c-.14.07-.23.237-.269.498l-.027.186-.164-.094a.785.785 0 0 0-.345-.099.318.318 0 0 0-.133.026c-.097.044-.162.15-.195.315l-.034.166-.15-.078c-.002 0-.112-.055-.23-.055a.297.297 0 0 0-.11.019c-.075.03-.13.097-.169.206l-.021.062-1.299.38c-.019.004-.057.042-.077.177l-.013.086-.902.206c-.089.02-.149.33-.044.789.1.44.28.692.373.692a.04.04 0 0 0 .01 0l.874-.2.046.083c.102.184.175.217.192.217h.002l.848-.142.015.134c.07.631.122 1.328-.017 1.71l-.021.058-.06.02c-.06.019-.122.04-.184.062l-2.007 5.21-4.899.273.213-.217c-.126-.347-.552-1.715.227-2.495.199-.199.429-.396.673-.605.75-.644 1.6-1.373 1.6-2.266 0-.53-.146-.947-.314-1.43-.214-.614-.456-1.31-.456-2.42 0-.373-.048-.756-.14-1.136l-.038-.152.157-.006c1.645-.057 2.241-1.126 2.422-1.583.279-.708.189-1.409-.054-1.652a1.12 1.12 0 0 0-.815-.343c-.316 0-.558.12-.576.13l-.115.058-.058-.115c-.003-.005-.302-.572-1.43-1.227a1.184 1.184 0 0 0-.604-.166c-.835 0-1.533.871-1.541.882l-.091.116-.103-.107c-.008-.008-.693-.706-2.102-.706-.278 0-.584.027-.92.092-1.998.389-1.903 2.103-1.899 2.176l.01.136h-.137a1.16 1.16 0 0 0-.925.45c-.666.805-.728 2.485-.56 3.367l.012.061c.193 1.013.18 1.06-.44 1.645-.12.113-.264.249-.436.421-.17.17-.24.355-.212.564.109.812 1.591 1.671 1.607 1.68l.297.17-.338.066c-.003 0-.376.077-.58.417-.173.29-.183.686-.032 1.18a.756.756 0 0 0 .454.514c.143.057.307.081.481.081.915 0 2.124-.661 2.139-.67l.129-.07m19.55 3.325l-6.182-.301 1.114-4.416a3.978 3.978 0 0 0-.17-.225l-.052-.064.038-.074c.207-.402.683-1.496.628-2.982l-.004-.112 3.696-.616.045.073c.175.284.3.53.356.649h.043l.005.124c.012.423.153.903.27 1.232l.068.19-.285-.028-.045-.004.475 6.554m-1.06-8.51l-3.305.551a6.452 6.452 0 0 1-.623 2.922c.055.07.11.145.163.225l.032.047-1.065 4.224 5.583.272-.477-6.577.157.022.078.01c-.103-.32-.206-.723-.22-1.094a6.939 6.939 0 0 0-.323-.602" mask="url(#d)"/>
            <path fill="#0E4E80" d="M23.406 66.01l.945 4.165S37.87 87.11 38.374 88.397c.503 1.288-4.115 25.255-4.115 25.255-1.327.202-4.227-.355-6.978-.84 0 0-1.21-15.677.688-22.474L15.505 79.704l.722-13.694h7.179" mask="url(#d)"/>
            <path fill="#146EB4" d="M7.83 66.01l-.496 1.553a23.909 23.909 0 0 0 2.105 19.36l2.663 4.568s-1.035 15.544-5.092 27.328c2.704 1.643 5.233 2.506 7.432 1.89l7.401-26.085c.184-.452.3-.93.34-1.416.62-7.825-3.902-14.572-3.902-14.572s5.984-2.408 5.125-12.626c0 0-15.36-.215-15.575 0" mask="url(#d)"/>
            <path fill="#F0B3BD" d="M32.286 33.303s-.477-1.017-.477-1.82l3.9-.626-.151 2.037s-3.14.726-3.272.41" mask="url(#d)"/>
            <path fill="#F0B3BD" d="M35.943 26.464l-.25 4.597-3.882.481s-.433-.964-1.044-1.575-.259-1.27-.259-1.27.6-.493.835.153c.235.647.235 1.011.693.953.458-.06.388-2.666.388-2.666l3.52-.673" mask="url(#d)"/>
            <path fill="#E1604E" d="M26.33 39.348h5.955l-.476-6.564c1.342.189 2.867.003 4.023-.663 0 0 3.944 11.349 3.242 14.082-.662 2.577-13.166 1.212-13.166 1.212l.423-8.067" mask="url(#d)"/>
            <path fill="#E1604E" d="M8.583 39.677l14.23-.79 9.472.461s-3.439 5.98-5.143 10.146c-3.085 7.543-3.736 16.516-3.736 16.516H7.831L4.287 46.704c-.198-1.325-.425-7.027 4.296-7.027" mask="url(#d)"/>
            <path fill="#F0B3BD" d="M18.254 26.628s1.184 1.302 1.184 3.257c0 1.954.77 2.606.77 3.85 0 1.243-1.48 2.131-2.31 2.96-.829.83-.17 2.436-.17 2.436l-2.02 2.065-2.903-1.895s.474-1.717 0-2.96c-.473-1.244-2.783-4.206-2.013-6.515.77-2.31 4.412-6.248 7.462-3.198" mask="url(#d)"/>
            <path fill="#1C1F45" d="M13.456 32.135s-.77.012-.77 1.22.949 1.682 1.244 1.682c.297 0-1.125 1.303-1.125 1.303s-2.783 1.54-3.257 0c-.474-1.54.71-1.76.71-1.76s-2.457-1.409-1.42-2.445c1.036-1.036 1.065-.77.828-2.013-.237-1.244-.036-3.968 1.61-3.968 0 0-.129-1.895 2.003-2.31 2.132-.414 3.139.651 3.139.651s1.125-1.434 2.31-.747c1.184.688 1.48 1.28 1.48 1.28s.859-.443 1.54.237c.68.682.178 3.731-3.02 3.435-3.198-.296-3.306-.888-3.306-.888s1.266 1.5.285 2.481c-.98.98-1.599 1.783-1.599 2.138 0 .356-.652-.296-.652-.296" mask="url(#d)"/>
            <path fill="#0F1229" d="M32.68 44.959a.128.128 0 0 1-.128-.123l-.18-4.84a.128.128 0 0 1 .123-.132c.071-.01.13.052.132.123l.18 4.84a.128.128 0 0 1-.123.132h-.005" mask="url(#d)"/>
            <path fill="#305293" d="M23.978 31.703l-1.37.313c-.452.103-.847-1.626-.396-1.729l1.37-.313.396 1.729" mask="url(#d)"/>
            <path fill="#146EB4" d="M59.183 26.206L23.72 32.117c-.468.107-.994-2.19-.525-2.298L57.702 19.73c3.013-.69 4.494 5.787 1.48 6.476" mask="url(#d)"/>
            <path fill="#0E4E80" d="M60.063 22.435c.294 1.282-.207 2.49-1.118 2.7-.911.207-1.887-.663-2.18-1.945-.294-1.283.207-2.491 1.118-2.7.911-.208 1.887.663 2.18 1.945" mask="url(#d)"/>
            <path fill="#E5E6E3" d="M58.95 21.643l-1.247 2.132s-.828-1.407-.037-2.345c.528-.624 1.285.213 1.285.213" mask="url(#d)"/>
            <path fill="#F0B3BD" d="M35.943 26.397s0 1.548-.833 1.756c0 0-.406.143-.312-.339.094-.482.2-.87.2-1.187 0-.317.798-.872.945-.23" mask="url(#d)"/>
            <path fill="#F0B3BD" d="M35.086 26.51s0 1.627-.876 1.845c0 0-.427.151-.328-.356.099-.506.21-.913.21-1.247 0-.334.839-.916.994-.242" mask="url(#d)"/>
            <path fill="#F0B3BD" d="M34.157 26.616s0 1.626-.875 1.845c0 0-.427.15-.328-.356.098-.506.21-.914.21-1.247 0-.334.838-.917.993-.242" mask="url(#d)"/>
            <path fill="#F0B3BD" d="M33.182 26.886s0 1.627-.876 1.845c0 0-.427.151-.328-.355.099-.507.21-.915.21-1.248 0-.334.839-.917.994-.242M27.198 34.619s.858-1.386.72-3.403l-.04-1.41a.603.603 0 0 0-.023-.148c-.072-.259-.274-1.203.62-1.383 0 0-.979-.873-1.483.08 0 0-.861-.477-1.01.535 0 0-.714-.417-.863.327 0 0-.565-.297-.714.328 0 0-.142.385-.072 1.549.037.628.348 2.277.013 2.699l2.852.826" mask="url(#d)"/>
            <path fill="#E1604E" d="M8.875 50.286l9.275 4.37a3.515 3.515 0 0 0 4.907-2.32l4.435-17.595c-.937-1.388-2.083-1.471-3.316-1.007l-5.27 13.68-6.69-6.207a3.373 3.373 0 0 0-2.163-.902c-1.009-.038-2.428.149-3.88 1.128-.925.623-1.222 1.696-1.211 2.842.024 2.583 1.575 4.91 3.913 6.011" mask="url(#d)"/>
            <path fill="#0F1229" d="M18.957 47.636l-6.327-5.87a.127.127 0 1 1 .174-.187l6.05 5.614 3.04-7.89a.128.128 0 0 1 .238.091l-3.175 8.242" mask="url(#d)"/>
            <path fill="#0F1229" d="M19.648 55.12c-.53 0-1.059-.116-1.552-.349l-9.276-4.37a7.028 7.028 0 0 1-1.759-1.18.128.128 0 0 1-.007-.18.127.127 0 0 1 .18-.008 6.782 6.782 0 0 0 1.695 1.138l9.275 4.37c.92.433 1.974.432 2.893-.003a3.375 3.375 0 0 0 1.836-2.234l3.115-12.354a.128.128 0 1 1 .247.062L23.18 52.366a3.63 3.63 0 0 1-1.974 2.403 3.64 3.64 0 0 1-1.558.351M14.267 67.26H8.331a.127.127 0 1 1 0-.256h5.936a.128.128 0 0 1 0 .255" mask="url(#d)"/>
            <path fill="#E5E6E3" d="M18.281 67.396c0 .516-.587.934-1.31.934-.724 0-1.31-.418-1.31-.934s.586-.934 1.31-.934c.723 0 1.31.418 1.31.934" mask="url(#d)"/>
            <path fill="#0F1229" d="M22.852 67.37h-3.623a.128.128 0 1 1 0-.255h3.623a.128.128 0 1 1 0 .256" mask="url(#d)"/>
        </g>
        <path fill="#0E4E80" d="M83.181 43.268H70.103a2.176 2.176 0 0 0-2.176 2.175v10.018c0 1.202.974 2.176 2.176 2.176h4.845l1.658 3.668 1.72-3.668h4.855a2.176 2.176 0 0 0 2.176-2.176V45.443a2.176 2.176 0 0 0-2.176-2.175"/>
        <path fill="#FFFFFE" d="M74.463 50.408a1.165 1.165 0 1 1-2.329 0 1.165 1.165 0 0 1 2.33 0M77.807 50.408a1.165 1.165 0 1 1-2.33 0 1.165 1.165 0 0 1 2.33 0M81.15 50.408a1.165 1.165 0 1 1-2.33 0 1.165 1.165 0 0 1 2.33 0"/>
    </g>
</svg>
