<svg xmlns="http://www.w3.org/2000/svg" xmlns:xlink="http://www.w3.org/1999/xlink" width="251" height="284" viewBox="0 0 251 284">
    <defs>
        <path id="a" d="M52.728 0h62.931l-5.033 66.712-60.245 35.849L.02 51.144"/>
    </defs>
    <g fill="none" fill-rule="evenodd">
        <g transform="translate(-24 -16)">
            <mask id="b" fill="#fff">
                <use xlink:href="#a"/>
            </mask>
            <path fill="#F58A07" d="M69.404 54.403l-8.281-2.065 1.024-15.542-4.162-.058s-3.437 16.957-3.22 17.98c.218 1.024 11.916 7.166 11.916 7.166l2.723-7.48" mask="url(#b)"/>
            <path fill="#1C1F45" d="M103.885 102.546l4.098-2.407a.883.883 0 0 1 1.24.541l.556 1.886-.811 1.09 1.195.213 2.167 7.34-.8.804s-2.586-4.877-5.726-5.28l-1.92-4.187M72.406 79.605l-1.245 1.908a6.06 6.06 0 0 1-1.94 1.875c-3.705 2.24-11.922 8.467-12.58 9.205-.79.886-4.228 21.55-4.228 21.55 1.007.558 3.506.976 5.862 1.408 0 0 5.652-12.253 6.153-18.29l14.828-6.846 1.875-9.221-8.725-1.589" mask="url(#b)"/>
            <path fill="#305293" d="M84.761 110.736s10.558.684 21.085-3.224c.725-2.328-.508-3.733-2.306-5.353-8.762 3.222-15.202 1.375-15.202 1.375-.322-1.318-.592-5.143-.537-6.421.28-6.563 1.607-11.572-2.049-17.524-.545-.887-.397-.605-.856-1.357-3.358-.278-10.095 1.08-13.76 1.9 0 0 1.38 9.588 6.277 11.516 0 0 1.447 15.886 7.348 19.088" mask="url(#b)"/>
            <path fill="#F58A07" d="M82.163 53.596l-13.52.856L66.12 55s-.852 4.934.724 9.918c1.775 5.613 2.957 12.103 3.351 14.426a.94.94 0 0 0 1.038.775l14.103-1.682a.603.603 0 0 0 .53-.56l1.14-18.129c.039-1.273-.39-6.683-4.843-6.152" mask="url(#b)"/>
            <path fill="#F0B3BD" d="M71.567 42.362s-.97 1.364-.751 3.21c.22 1.845-.433 2.546-.294 3.721.14 1.174 1.638 1.846 2.513 2.536.876.69.434 2.281.434 2.281a3.345 3.345 0 0 0 4.246-.042l.42-.352s-.64-1.568-.333-2.796c.307-1.227 2.154-4.284 1.167-6.378-.986-2.094-4.866-5.403-7.402-2.18" mask="url(#b)"/>
            <path fill="#1C1F45" d="M76.714 47.023s.728-.075.864 1.065c.136 1.141-.705 1.695-.984 1.729-.28.033 1.208 1.103 1.208 1.103s2.8 1.141 3.074-.366c.274-1.508-.869-1.582-.869-1.582s2.161-1.607 1.066-2.469c-1.094-.862-1.092-.607-1.008-1.808.083-1.201-.412-3.75-1.966-3.566 0 0-.091-1.804-2.15-1.955-2.059-.152-2.889.968-2.889.968s-1.223-1.228-2.264-.445c-1.04.783-1.253 1.375-1.253 1.375s-.86-.323-1.426.397c-.567.72.252 3.544 3.236 2.904 2.985-.64 3.02-1.211 3.02-1.211s-1.025 1.56.01 2.375 1.71 1.503 1.75 1.839c.04.335.581-.353.581-.353" mask="url(#b)"/>
            <path fill="#F0B3BD" d="M61.67 37.843s.363-1.1.265-1.921l-4.063-.164.402 2.065s3.298.36 3.395.02" mask="url(#b)"/>
            <path fill="#F0B3BD" d="M57.096 31.291l.816 4.673 4.029.019s.325-1.04.875-1.74c.551-.7.11-1.33.11-1.33s-.673-.432-.834.258c-.162.69-.118 1.063-.594 1.059-.476-.004-.721-2.68-.721-2.68l-3.681-.259" mask="url(#b)"/>
            <path fill="#F0B3BD" d="M57.088 31.222s.188 1.584 1.066 1.695c0 0 .432.097.277-.384-.154-.482-.31-.866-.349-1.19-.038-.325-.922-.795-.994-.121" mask="url(#b)"/>
            <path fill="#F0B3BD" d="M57.978 31.233s.199 1.664 1.121 1.782c0 0 .455.102.292-.405-.163-.506-.326-.91-.367-1.25-.04-.342-.97-.836-1.046-.127" mask="url(#b)"/>
            <path fill="#F0B3BD" d="M58.94 31.228s.199 1.664 1.121 1.782c0 0 .455.102.292-.404-.163-.507-.326-.91-.367-1.251-.04-.342-.969-.836-1.045-.127" mask="url(#b)"/>
            <path fill="#F0B3BD" d="M59.971 31.386s.199 1.664 1.121 1.781c0 0 .455.102.292-.404-.163-.506-.326-.91-.367-1.251-.04-.341-.97-.835-1.046-.126" mask="url(#b)"/>
            <path fill="#F8C73D" d="M64.53 16.306c-6.721.076-12.103 5.61-11.983 12.345a12.088 12.088 0 0 0 12.35 11.906 12.067 12.067 0 0 0 7.704-2.958c.399-.346.816-.669 1.26-.955l2.562-1.652a7.747 7.747 0 0 1 4.11-1.236l2.5-.028-.123-11.002-2.5.028a7.741 7.741 0 0 1-4.137-1.143l-1.469-.901a35.594 35.594 0 0 1-2.84-1.96 12.063 12.063 0 0 0-7.435-2.444" mask="url(#b)"/>
            <path fill="#0E4E80" d="M83.033 33.728l-.123-11.002 4.48-.05c.47-.006.915.204 1.21.569l3.45 4.258c.214.386.22.854.013 1.245l-3.352 4.333a1.537 1.537 0 0 1-1.198.597l-4.48.05" mask="url(#b)"/>
            <path fill="#FFF" d="M84.906 24.17l.092 8.17-.26.003-.093-8.171.261-.003M86.673 24.15l.091 8.17-.26.003-.092-8.17.26-.004" mask="url(#b)"/>
            <path fill="#FFFFFE" d="M62.948 28.6c0 .073.005.149.015.227.075.629.494 1.297 1.445 1.287.94-.01 1.556-.89 1.94-1.795a3.542 3.542 0 0 0-1.048-1.04c-.44-.283-.826-.388-1.15-.313-.63.146-1.212.745-1.202 1.634zm.324 5.561c.001.112.019.223.052.332.174.568.756 1.022 1.415 1.105.354.044 1.015.01 1.46-.723.405-.664.643-1.83.732-2.989-1.45.293-2.545.63-2.982 1.013-.45.394-.682.832-.677 1.262zM63.12 22.81c.004.34.157.757.7 1.15.344.25 1.18.562 3.055.886-.076-.944-.287-2.118-.835-2.897-.525-.747-1.192-.74-1.544-.668-.651.131-1.218.66-1.348 1.256-.018.083-.029.174-.028.273zm19.152 7.53c-.125.005-9.616.462-14.964 1.473-.086 1.248-.342 2.513-.793 3.254-.405.664-1.068.99-1.82.896-.799-.1-1.506-.66-1.722-1.361-.12-.394-.185-1.173.734-1.98.484-.425 1.682-.793 3.248-1.108.024-.484.022-.957-.005-1.382a3.746 3.746 0 0 0-.374-1.414c-.437.913-1.121 1.752-2.163 1.764-1.195.013-1.725-.86-1.815-1.611-.108-.908.37-2.01 1.47-2.264.424-.098.905.023 1.432.361.392.25.732.57 1.008.939.271-.766.382-1.454.394-1.531.004-.063.028-.527-.003-1.155-1.567-.268-2.777-.587-3.295-.962-.907-.658-.9-1.41-.815-1.8.161-.744.833-1.377 1.634-1.54.748-.15 1.447.147 1.918.818.618.878.839 2.17.912 3.172 1.507.244 3.618.493 6.564.726 4.286.339 8.35.48 8.39.481l-.012.368c-.502-.017-9.54-.336-14.921-1.2a11.12 11.12 0 0 1-.005 1.124l-.001.014a9.19 9.19 0 0 1-.505 1.867 4.11 4.11 0 0 1 .555 1.82c.026.415.03.87.01 1.333 5.349-1.01 14.422-1.447 14.927-1.47l.017.367z" mask="url(#b)"/>
            <path fill="#0F1229" d="M79.886 80.283a.121.121 0 0 1-.014-.243l5.602-.668a.12.12 0 0 1 .135.106.121.121 0 0 1-.106.135l-5.603.669h-.014" mask="url(#b)"/>
            <path fill="#E5E6E3" d="M76.128 80.863c.058.487.659.816 1.341.734.683-.081 1.19-.542 1.132-1.03-.058-.486-.659-.815-1.342-.733-.682.081-1.189.542-1.13 1.029" mask="url(#b)"/>
            <path fill="#0F1229" d="M71.797 81.354a.121.121 0 0 1-.014-.242l3.42-.408a.12.12 0 0 1 .134.106.121.121 0 0 1-.106.135l-3.42.408-.014.001" mask="url(#b)"/>
            <path fill="#F0B3BD" d="M81.923 35.714l3.381-1.763-1.071-3.884a.846.846 0 0 0-.244-.46l-2.686-2.704a.406.406 0 0 0-.587.56l1.718 1.958c.03.034.03.087 0 .12l-.108.12a.09.09 0 0 1-.135 0l-1.399-1.767-1.374-1.287c-.135-.15-.536-.213-.67-.065 0 0-.326.368.14.769l1.028 1.04 1.48 1.896a.091.091 0 0 1-.139.118l-1.796-1.936a.45.45 0 0 0-.666.607l1.582 1.77c.028.032.03.08.006.114l-.034.047a.091.091 0 0 1-.14.011l-1.344-1.386a.347.347 0 0 0-.53.446l1.352 1.858.417 1.41c.133.449.363.862.675 1.21l1.144 1.198" mask="url(#b)"/>
            <path fill="#F58A07" d="M87.006 59.748s6.518-3.069 8.772-4.96c2.254-1.89-10.172-21.344-10.172-21.344l-4.201 2.264 6.745 15.887-9.553 2.227 8.41 5.926" mask="url(#b)"/>
            <path fill="#0F1229" d="M78.373 61.922a.12.12 0 0 1-.12-.107.12.12 0 0 1 .105-.135l4.938-.589a.12.12 0 0 1 .135.106.121.121 0 0 1-.106.135l-4.938.589-.014.001" mask="url(#b)"/>
        </g>
        <path fill="#C9BBD1" d="M60.846 215.502h51.269v-.565H60.846z"/>
        <path fill="#6EBBF5" d="M185.972 234.199s-24.728-15.538-18.94-47.368c5.787-31.83 12.96-26.987 16.785-28.183 3.824-1.196 4.023 0 6.195-14.352 2.172-14.352 16.037-20.571 21.776-19.136 5.737 1.435 5.737 3.017 13.387-1.601s22.71-3.183 25.34 1.84c2.63 5.023-11.836 16.375-15.36 27.563-3.525 11.187-4.96 8.556-2.33 18.363s-.838 18.3-12.673 30.14c-11.832 11.84-21.753 19.853-22.948 31.574-1.195 11.72-9.315 5.698-11.232 1.16"/>
        <path fill="#405796" d="M190.02 229.739h-.389c-.036-2.586-.018-6.162.178-10.432l.382-.048a50.78 50.78 0 0 0-.286-1.842c.316-5.642.947-12.324 2.143-19.449 1.517-9.029 3.699-17.387 6.506-24.938a.72.72 0 0 1 0 .033h.39c0-.15-.044-.404-.118-.757a104.869 104.869 0 0 1 2.302-5.584c5.095-11.394 11.808-20.613 19.949-27.399l.248.299c-5.615 4.68-10.214 10.263-13.979 16.278a4.244 4.244 0 0 1-.316-.043l-.076.382a3.3 3.3 0 0 0 .166.025c-5.998 9.695-9.854 20.485-12.334 30.426a7.99 7.99 0 0 1-.278.025l.025.388.153-.013a149.066 149.066 0 0 0-2.253 10.934c-.423 2.517-.775 4.98-1.067 7.36-.177.048-.276.077-.285.08l.11.373.124-.035c-1.235 10.253-1.365 18.948-1.295 23.937"/>
        <path fill="#405796" d="M189.94 219.12c-.016-.121-1.353-10.343-5.235-18.762.027-.22.057-.438.089-.656l.022-.016-.017-.021.002-.014c3.091 6.458 4.65 14.129 5.238 17.58.194 1.132.282 1.81.286 1.84l-.382.05h-.004M184.705 199.689l.006-.038.016.021-.022.017M194.552 186.962l-.025-.388c.006 0 .102-.007.278-.025 1.068-.111 5.073-.646 9.631-2.75 4.89-2.255 11.438-6.83 14.864-15.814l.363.139c-2.264 5.935-5.87 9.972-9.48 12.696a5.804 5.804 0 0 1-.261-.135l-.193.338c.005.003.04.023.105.057a30.575 30.575 0 0 1-5.248 3.08c-4.822 2.22-9.036 2.71-9.88 2.79a7.87 7.87 0 0 1-.154.012"/>
        <path fill="#405796" d="M217.18 182.967c-3.714 0-6.687-1.452-7.27-1.758a4.217 4.217 0 0 1-.105-.056l.192-.338c.007.004.097.055.261.135.832.414 3.566 1.63 6.916 1.63 1.61 0 3.361-.28 5.11-1.063l.16.355c-1.805.807-3.609 1.095-5.265 1.095M191.362 205.838l-.109-.373.284-.08a61.31 61.31 0 0 1 7.789-1.576l-.046.051.289.261c.006-.006.126-.14.334-.384a35.45 35.45 0 0 1 4.118-.265c.777 0 1.538.034 2.266.112l-.041.386a21.227 21.227 0 0 0-2.233-.11c-5.395 0-11.578 1.676-12.527 1.943l-.124.035"/>
        <path fill="#405796" d="M199.453 204.1l-.288-.261.045-.051c.392-.443 3.224-3.696 5.434-7.686l.34.188c-1.929 3.483-4.327 6.408-5.197 7.425a20.23 20.23 0 0 1-.334.384M198.926 172.977h-.388l-.001-.033c-.012-.24-.142-.81-.318-1.584-.387-1.705-1.02-4.49-1.33-7.793l.198-.07a7.798 7.798 0 0 0-.258-.639c-.272-3.533-.143-7.59 1.042-11.524l.372.112c-2.366 7.856-.46 16.245.355 19.828.084.369.156.685.21.946.075.354.118.607.118.757"/>
        <path fill="#405796" d="M196.72 163.577c-1.083-3.06-3.696-4.189-4.952-4.731-.398-.172-.661-.286-.788-.413l.275-.275c.074.075.362.2.667.33 1.216.526 3.655 1.58 4.906 4.32.093.204.18.417.258.64l-.197.07-.17.06M208.42 156.33c-.56 0-.966-.041-1.178-.07a3.297 3.297 0 0 1-.166-.025l.076-.382c.008.002.118.022.317.043.218.023.543.047.956.047 2.03 0 6.186-.572 10.22-4.61l.276.276c-4.128 4.129-8.395 4.721-10.502 4.721"/>
        <path fill="#F8C73D" d="M130.947 159.655c2.515-6.187 5.627-12.175 7.258-18.653 1.554-6.176 1.704-12.527 1.207-18.894-.619-7.928 8.243-12.944 14.694-8.3 6.697 4.82 12.355 11.243 16.605 18.344 3.973 6.636 6.836 13.829 8.948 21.277.295 1.039.573 2.083.84 3.131.902 2.045-3.099 9.568.771 11.486 7.265 3.601 10.303 6.365 8.51 14.318-2.084 9.24-6.495 15.301-5.02 25.051 1.474 9.75-2.329 23.777-8.419 23.738-.233-.002 1.968 1.682 4.257 3.366 2.472 1.82 5.047 3.638 4.77 3.333-.22 1.496-1.43 2.92-2.939 3.346-2.127.602-4.442-.37-6.056-1.883-1.614-1.512-2.68-3.502-3.794-5.413a83.818 83.818 0 0 0-16.136-19.885c-5.756-5.207-12.224-9.603-17.784-15.02-5.56-5.416-10.293-12.162-11.307-19.86-.872-6.622 1.08-13.294 3.595-19.482"/>
        <path fill="#776746" d="M173.732 229.67h-.062a207.72 207.72 0 0 0-2.948-24.585h.394a208.202 208.202 0 0 1 2.942 24.564l-.326.02m-7.87-46.7h-.406l-.027-.09c.13-.017.26-.036.388-.058l.044.148m-7.46-21.466h-.415l-.383-1.03h.415l.383 1.03m-5.737-17h-.404c-1.853-6.696-3.084-13.514-3.018-20.467l.388.004c-.066 6.944 1.173 13.763 3.034 20.462M144.445 161.372h-.39c.02-.343.046-.687.081-1.03h.392c-.037.343-.064.687-.083 1.03M137.422 161.32h-.396a13.136 13.136 0 0 1-.064-.373l.385-.059c.022.144.047.289.075.432M170.574 163.523c-.104-.077-.21-.152-.317-.226 1.473-2.347 2.807-4.796 3.335-7.487.708-3.61-.51-8.29-4.164-9.851l.153-.358c3.84 1.642 5.13 6.524 4.392 10.284-.542 2.763-1.901 5.254-3.399 7.638M167.807 162.214a10.657 10.657 0 0 0-.474-.165c-1.024-2.898-1.198-6.114-.433-9.077l.376.097c-.772 2.99-.562 6.245.53 9.145M172.156 201.217v-.659a57.687 57.687 0 0 1 1.851-2.313c.846-1.02 1.722-2.076 2.474-3.185 2.209-3.256 2.788-6.68 1.55-9.157l.348-.174c1.302 2.605.712 6.175-1.577 9.55-.762 1.123-1.644 2.186-2.496 3.214-.73.88-1.475 1.78-2.15 2.724"/>
        <path fill="#0E4E80" d="M31.994 187.367l6.083 34.905-4.6 24.289-6.21-.741s1.917-23.625 1.917-24.008c0-.384-7.623-19.976-7.623-19.976l2.717-11.394 7.716-3.075"/>
        <path fill="#146EB4" d="M11.383 187.367s-1.492 12.124.884 23.322c2.377 11.2 5.903 38.89 5.903 38.89h6.44s-.269-46.752 0-47.02c.268-.268 3.614-1.577 5.657-4.165 2.893-3.664 1.752-11.027 1.752-11.027H11.383"/>
        <path fill="#E5E6E3" d="M22.106 190.081h4.871v-2.441h-4.87z"/>
        <path fill="#0F1229" d="M21.608 189.838h-9.725a.144.144 0 0 1 0-.287h9.725a.144.144 0 0 1 0 .287M21.608 188.2h-9.725a.144.144 0 0 1 0-.287h9.725a.144.144 0 0 1 0 .288M31.639 189.838H27.16a.144.144 0 0 1 0-.287h4.478a.144.144 0 0 1 0 .287M31.639 188.2H27.16a.144.144 0 0 1 0-.287h4.478a.144.144 0 0 1 0 .288"/>
        <path fill="#F0B3BD" d="M38.137 164.983l3.05 16.644s.782 2.632-.57 3.201c-1.35.57-6.416 0-6.416 0l-.38.82H32.61s-1.166-2.622-.56-3.357c.606-.735 2.53-.948 2.53-.948l-2.925-14.707 6.482-1.653"/>
        <path fill="#F58A07" d="M23.269 152.764s-14.981-.761-15.815 0c-.834.762-7.446 12.921-7.446 12.921s.417.894 2.502 1.43c2.085.537 9.128 1.61 9.128 1.61l-1.499 18.102a.706.706 0 0 0 .706.764l21.415-.093a.718.718 0 0 0 .712-.69l.752-19.93 6.374-2.862s-3.932-9.357-4.766-9.775c-.834-.417-12.063-1.477-12.063-1.477"/>
        <path fill="#1C1F45" d="M2.51 167.232c.471.121 1.196.27 2.035.428-.006-.286-.287-.573-1.279-.683-2.239-.25-3.258-1.175-3.258-1.175s.417.894 2.502 1.43"/>
        <path fill="#F0B3BD" d="M29.296 142.238s-.453 1.981-.566 3.396c-.113 1.414-.339 3.056-2.262 3.678-1.923.623-1.64.453-1.64.453-.064 1.364.692 2.125 1.235 3.265l-2.964 2.224-4.267-2.68s2.545-1.564 1.81-3.262c-.735-1.697-1.81-6.381-1.81-6.381s1.325-2.509 3.73-2.988c2.16-.43 5.342 1.09 6.734 2.295"/>
        <path fill="#1C1F45" d="M24.225 146.55s.389-.76 1.352-.668c.964.093 1.686-.185 2.168 1.002 0 0 .204.315.371.277 0 0-.945.433-1.705.004-.76-.43-.778.142-1.556.19-.779.047-1.112-.249-1.112-.249s.519-.204.482-.556"/>
        <path fill="#1C1F45" d="M31.304 140.37s.075-1.942-1.568-2.54c-1.641-.597-3.172-.522-3.172-.522s-2.462-1.344-4.552-.896c-2.09.448-3.135 2.464-3.135 2.464s-1.754 1.643-1.68 3.36c.075 1.718 1.53 2.764 1.53 2.764s-.671 1.008-.148 1.904c.138.238.266.501.38.76a8.564 8.564 0 0 0 1.971 2.783l.018.016.467-3.073s-1.456-.225-1.418-2.129c.037-1.904.858-1.68 1.343-1.494.185.072.357.324.499.607.06.844.208 1.382.316 1.676a.508.508 0 0 0 .125.282l.036.113c.036.57-1.306 2.415-.036 3.509 1.371 1.182 4.305.724 5.638 0 1.334-.724.843-2.934.843-2.934-.166 1.258-1.49 1.409-1.948 1.302-.457-.106-1.104-.427-1.6-.108-.401.258-1.378-.011-1.734-.123a.23.23 0 0 1-.158-.175v-.001c.106-.743-.386-1.716-.548-2.126-.14-.353-.27-1.606-.319-2.102.137-.322.347-.598.671-.723l-.074-1.613s2.798.426 3.91.39c1.112-.038 2.436.545 2.436.545l-.081.92s3.555-1.567 1.988-2.836"/>
        <path fill="#0F1229" d="M12.095 167.791l-.022-.002a.142.142 0 0 1-.118-.162c1.342-8.625-.718-11.947-.739-11.98a.142.142 0 0 1 .043-.196.142.142 0 0 1 .196.043c.088.136 2.14 3.445.78 12.177a.142.142 0 0 1-.14.12M33.707 165.814l-.013-.001a.142.142 0 0 1-.129-.154l.76-8.736a.145.145 0 0 1 .153-.13.142.142 0 0 1 .13.154l-.76 8.737a.142.142 0 0 1-.141.13M19.633 156.597l-1.606-3.423a.142.142 0 1 1 .257-.12l1.478 3.15L21.975 155a.142.142 0 1 1 .136.25l-2.478 1.346M26.069 156.726l-1.983-1.179a.142.142 0 1 1 .144-.244l1.67.992.789-2.675a.142.142 0 0 1 .272.08l-.892 3.026M23.083 156.259l-.035.001a.42.42 0 0 0 .068.837.416.416 0 0 0 .384-.453.42.42 0 0 0-.417-.385zm-.002 1.123a.698.698 0 0 1-.454-.167.705.705 0 0 1 .398-1.238.704.704 0 0 1 .758.644.698.698 0 0 1-.165.513.698.698 0 0 1-.479.246l-.058.002zM23.082 158.17h-.034a.42.42 0 0 0-.384.453c.02.23.224.4.453.384a.42.42 0 0 0-.035-.838zm0 1.123a.705.705 0 0 1-.057-1.406.705.705 0 0 1 .114 1.403l-.057.003z"/>
        <path fill="#F0B3BD" d="M3.282 166.978s.797 16.907 1.514 18.023c.717 1.117 20.966 0 20.966 0s1.613.849 2.561.496c.948-.352 1.283-.408 1.283-.408l.466.654.586-.06-.312-1.574h.312l.343 1.634h.689l-.207-1.669h.207l.24 1.67h.552l.207-2.635s-.886-1.284-1.162-1.284c-.275 0-1.067.153-1.565-.047-.734-.294-.718-.082-1.2.228-.483.31-3.515.449-3.515.449l-14.026-1.828.608-11.892s-2.813-2.307-8.547-1.757"/>
        <path fill="#9F999A" d="M27.433 185.326H47.91c.531 0 .962-.43.962-.962H26.47c0 .531.43.962.962.962"/>
        <path fill="#FFFEFE" d="M30.018 185.326h22.52c.53 0 .961-.43.961-.962H31.15c-.186.425-.409.962-1.131.962"/>
        <path fill="#B6B8B5" d="M33.755 185.29h.843a.19.19 0 0 0 0-.38h-.843a.19.19 0 0 0 0 .38M32.746 185.1a.19.19 0 1 0 .38 0 .19.19 0 0 0-.38 0"/>
        <path fill="#FFFEFE" d="M58.054 171.807H38.18c-.628 0-1.2.36-1.471.926l-5.6 11.678h22.4l5.396-11.25a.946.946 0 0 0-.852-1.354"/>
        <path fill="#CBC2C2" d="M38.23 171.807h-.595c-.628 0-1.2.36-1.471.926l-5.6 11.678h.595l5.6-11.678a1.631 1.631 0 0 1 1.471-.926"/>
        <path fill="#83A1C8" d="M73.315 265.148h-35.96l-5.973-76.69H80.28l-6.965 76.69"/>
        <path fill="#FFFFFE" d="M32.473 187.08h46.67v-6.265h-46.67z"/>
        <path fill="#F8C73D" d="M27.835 191.115h55.55v-5.66h-55.55zM67.474 223.03c0 7.032-5.698 12.734-12.726 12.734-7.03 0-12.726-5.702-12.726-12.735 0-7.03 5.697-12.732 12.726-12.732 7.028 0 12.726 5.701 12.726 12.732"/>
        <path fill="#CF7406" d="M166.071 163.072s7.082 1.787 7.496 7.494c.414 5.707-3.41 9.555-5.453 10.343-2.043.79-2.921.79-2.921.79s-3.888-15.493.878-18.627"/>
        <path fill="#FFFFFE" d="M167 162.526l.61.51-1.529.158c-1.26 5.758-1.1 12.025 0 18.626H62.483c5.633 0 5.633-19.294 0-19.294H167z"/>
        <path fill="#C9BBD1" d="M66.575 173.452c.01-.184.019-.368.025-.553h98.517l.015.553H66.575M66.575 169.077h98.788a51.86 51.86 0 0 0-.03.553h-98.69c-.02-.186-.043-.37-.068-.553M66.596 171.54a24.734 24.734 0 0 0-.02-.552H165.1c-.004.184-.003.369-.004.553h-98.5M66.376 175.083h98.753c.01.184.021.368.034.552h-98.86c.027-.182.051-.366.073-.552M165.314 167.446H66.159c-.041-.187-.083-.372-.13-.552h99.346c-.02.184-.043.367-.061.552M165.706 165.535H65.718a9.548 9.548 0 0 0-.234-.552h100.31c-.03.184-.06.367-.088.552M65.46 178.904h100.094l.07.553H65.212c.088-.176.17-.36.25-.553M66.169 176.994h99.247l.057.552H66.03c.048-.18.095-.364.139-.552"/>
        <path fill="#B36505" d="M165.993 180.987a69.148 69.148 0 0 1-.112-.76 9.112 9.112 0 0 0 4.72-7.989 9.113 9.113 0 0 0-4.653-7.952c.042-.223.086-.446.133-.668 3.988.869 6.983 4.429 6.983 8.675 0 4.278-3.039 7.859-7.07 8.694"/>
        <path fill="#E4E4DF" d="M164.037 181.101h-.884a9.045 9.045 0 0 0 2.574-.945c.036.254.073.507.112.76a8.873 8.873 0 0 1-1.802.185m1.757-16.885a9.052 9.052 0 0 0-2.162-.871h.405c.648 0 1.28.07 1.89.202-.047.223-.091.445-.133.669"/>
        <path fill="#F58A07" d="M61.392 181.045h102.774c4.892 0 8.873-3.982 8.873-8.878 0-4.895-3.98-8.878-8.873-8.878H61.392v-1.855h102.774c5.924 0 10.727 4.805 10.727 10.733 0 5.928-4.803 10.733-10.727 10.733H61.392v-1.855"/>
        <path fill="#95869E" d="M51.025 161.459h60.798V143.69H51.025z"/>
        <path fill="#FFFFFE" d="M112.954 160.48h48.429v-15.97h-48.429z"/>
        <path fill="#C9BBD1" d="M112.954 146.878h48.429v-.458h-48.429zM112.954 148.515h48.429v-.457h-48.429zM112.954 150.154h48.429v-.458h-48.429zM112.954 151.791h48.429v-.457h-48.429zM112.954 153.702h48.429v-.457h-48.429zM112.954 155.34h48.429v-.457h-48.429zM112.954 156.978h48.429v-.458h-48.429zM112.954 158.616h48.429v-.458h-48.429z"/>
        <path fill="#E2E2DE" d="M115.258 160.48h-2.576v-15.97h.257v15.97h2.32"/>
        <path fill="#E4E4DF" d="M115.273 160.48h-2.319v-15.97h2.32v2.057h-2.32v.457h2.32v1.196h-2.32v.457h2.32v1.196h-2.32v.457h2.32v1.196h-2.32v.457h2.32v1.196h-2.32v.457h2.32v1.196h-2.32v.457h2.32v1.195h-2.32v.458h2.32v1.195h-2.32v.458h2.32v1.885"/>
        <path fill="#B2A6BA" d="M112.954 146.878h2.32v-.458h-2.32zM112.954 148.515h2.32v-.457h-2.32zM112.954 150.154h2.32v-.458h-2.32zM112.954 151.791h2.32v-.457h-2.32zM112.954 153.702h2.32v-.457h-2.32zM112.954 155.34h2.32v-.457h-2.32zM112.954 156.978h2.32v-.458h-2.32zM112.954 158.616h2.32v-.458h-2.32z"/>
        <path fill="#60526A" d="M162.284 159.923h-48.886v-14.697h48.886v-1.535h-50.42v17.768h50.42v-1.536"/>
        <path fill="#F8C73D" d="M71.355 183h98.914v22.115H71.355a3.962 3.962 0 0 1-3.961-3.963v-14.19a3.962 3.962 0 0 1 3.96-3.963"/>
        <path fill="#CFA731" d="M112.627 190.142l-41.96-7.049c.275-.06.558-.094.85-.094h31.885v1.421l.573-.414v1.373l2.077-1.5 2.077 1.5V183h22.869-14.527a3.846 3.846 0 0 0-3.844 3.847v3.296"/>
        <path fill="#FFFFFE" d="M113.773 203.97h58.337V184.09h-58.337z"/>
        <path fill="#C9BBD1" d="M113.773 187.117h58.337v-.57h-58.337zM113.773 189.301h58.337v-.57h-58.337zM113.773 191.212h58.337v-.57h-58.337zM113.773 193.395h58.337v-.569h-58.337zM113.773 195.306h58.337v-.569h-58.337zM113.773 197.49h58.337v-.57h-58.337zM113.773 199.4h58.337v-.568h-58.337zM113.773 201.585h58.337v-.57h-58.337z"/>
        <path fill="#E4E4DF" d="M116.882 203.203h-.356a1.938 1.938 0 0 1-1.897-1.553h2.253v1.553zm-2.29-2.123h2.29v-1.488h-2.29v1.488zm0-2.057h2.29v-1.488h-2.29v1.488zm0-2.058h2.29v-1.488h-2.29v1.488zm0-2.057h2.29v-1.488h-2.29v1.488zm0-2.057h2.29v-1.488h-2.29v1.488zm0-2.058h2.29v-1.488h-2.29v1.488zm0-2.057h2.29v-1.488h-2.29v1.488zm2.29-2.057h-2.284a1.937 1.937 0 0 1 1.928-1.77h.356v1.77z"/>
        <path fill="#B2A6BA" d="M116.882 187.117h-2.29v-.403c0-.056.002-.111.006-.166h2.284v.57M114.591 189.301h2.291v-.57h-2.29zM114.591 191.212h2.291v-.57h-2.29zM114.591 193.395h2.291v-.569h-2.29zM114.591 195.306h2.291v-.569h-2.29zM114.591 197.49h2.291v-.57h-2.29zM114.591 199.4h2.291v-.568h-2.29zM116.882 201.585h-2.253a1.955 1.955 0 0 1-.038-.382v-.188h2.291v.57"/>
        <path fill="#F8C73D" d="M173.5 203.204h-56.974a1.937 1.937 0 0 1-1.934-1.935v-14.423c0-1.067.867-1.936 1.934-1.936H173.5V183h-56.973a3.846 3.846 0 0 0-3.844 3.846v14.423a3.846 3.846 0 0 0 3.844 3.846H173.5v-1.911"/>
        <path fill="#146EB4" d="M160.781 227.07h-81.11v-21.96h81.11c6.06 0 10.974 4.916 10.974 10.98s-4.913 10.98-10.974 10.98"/>
        <path fill="#CFA731" d="M161.43 205.134h-.001.002m-.034-.002h-.002.002m-.034-.002h-.002.002m-.034-.002h-.003.003m-.017-.001h-.002.002m-.017-.001h-.003.003m-.017 0h-.002.002m-.017-.002h-.002.002m-.118-.005h-.001m-.012 0h-.006.006m-.018-.001h-.005.005m-.017 0l-.005-.001h.005m-.016 0h-.007.007m-.017 0l-.007-.001h.007m-.017 0h-.008.008m-.017-.001h-.008.008m-.017 0h-.01.01m-.017-.001h-.01.01m-.018 0h-.008.008m-.017 0l-.009-.001h.009m-.018 0h-.008.008m-.017 0h-.009.009m-.017-.001h-.009.009m-.018 0h-.01.01m-.017 0h-.01.01m-.017 0l-.01-.001h.01m-.018 0h-.009.01m-.018 0h-.01.01m-.018 0h-.008.008m-.018 0h-.007.007m-.017 0h-.008.008m-.017 0h-.01.01m-.018 0h-.013.013m-.017 0h-.018.018"/>
        <path fill="#0E4E80" d="M171.817 215.458h-58.281a10.92 10.92 0 0 0-1.4-4.77c1.7-1.134 3.458-1.87 4.921-1.989 2.555-.205 5.463-2.107 7.372-3.589h36.582l.01.001H161.063a.09.09 0 0 0 .008.001H161.115l.01.001h.035a.08.08 0 0 0 .007.001H161.185l.008.001a.112.112 0 0 1 .017 0 .121.121 0 0 1 .017.001h.01a.06.06 0 0 1 .007 0h.01l.006.001h.017l.012.001H161.308l.116.006h.002l.015.001h.019l.015.002h.019l.015.002H161.528l.033.003h.001l.016.001h.016l.002.001c5.51.363 9.909 4.797 10.222 10.324"/>
        <path fill="#FFFFFE" d="M60.846 225.94h45.224l6.045-5.907v-8.204l-6.728-5.627h-44.54v19.738"/>
        <path fill="#C9BBD1" d="M60.846 209.224h48.129v-.565H60.846zM60.846 211.408h50.657v-.565H60.846zM60.846 213.319h51.269v-.566H60.846z"/>
        <path fill="#E4E4DF" d="M102.4 224.997h-.904a9.27 9.27 0 0 0 3.549-1.543h2.411a9.022 9.022 0 0 1-5.056 1.543m5.808-2.108h-2.448a9.36 9.36 0 0 0 1.366-1.478h2.495a9.155 9.155 0 0 1-1.413 1.478m1.811-2.043h-2.505c.296-.466.55-.96.761-1.477h2.52a9.071 9.071 0 0 1-.776 1.477m.987-2.043h-2.522c.158-.476.28-.97.36-1.477h2.523a9.002 9.002 0 0 1-.36 1.477m.43-2.043h-2.522a9.471 9.471 0 0 0 .025-1.477h2.515a9.15 9.15 0 0 1-.017 1.477m-.04-2.042h-2.51a9.27 9.27 0 0 0-.266-1.348l.12-.13h2.333c.147.477.256.97.323 1.478m-.518-2.043h-1.584c.361-.355.737-.693 1.122-1.013.174.326.328.664.462 1.013"/>
        <path fill="#B2A6BA" d="M111.194 213.319h-2.332c.18-.193.365-.381.553-.566H111c.071.186.136.374.195.566"/>
        <path fill="#1C1F45" d="M59.755 225.172h42.758c5.005 0 9.076-4.074 9.076-9.082 0-5.008-4.071-9.082-9.076-9.082H59.755v-1.898h42.758c6.06 0 10.973 4.916 10.973 10.98s-4.913 10.98-10.973 10.98H59.755v-1.898"/>
        <path fill="#D6D5D0" d="M107.498 180.93h.574v-1.51h-.574v1.51zm0-2.062h.574v-1.444h-.574v1.444zm0-1.997h.574v-1.444h-.574v1.444zm0-1.996h.574v-1.445h-.574v1.445zm0-1.998h.574v-1.444h-.574v1.444zm0-1.996h.574v-1.445h-.574v1.445zm0-1.997h.574v-1.445h-.574v1.445z"/>
        <path fill="#A89DAF" d="M107.498 173.452h.574v-.553h-.574zM107.498 169.63h.574v-.553h-.574zM107.498 171.54h.574v-.552h-.574zM107.498 175.635h.574v-.552h-.574zM108.106 167.446h-.574v-.552h-3.58 4.154v.552M107.498 179.457h.574v-.553h-.574zM107.498 177.546h.574v-.552h-.574z"/>
        <path fill="#CA5142" d="M107.502 182.943h.573v-1.855h-.573v1.855zm-1.967 0h-.22l.11-.079.11.08z"/>
        <path fill="#AE8C34" d="M108.106 185.38l-2.078-1.501-2.077 1.5v-1.373l1.395-1.007h.219l1.967 1.421V183h.574v2.38"/>
        <path fill="#4D5482" d="M103.406 166.894v17.318l2.077-1.5 2.077 1.5v-17.318h-4.154"/>
        <path fill="#40476D" d="M107.56 167.697c0-.351-1.039-.527-2.077-.527-1.039 0-2.077.176-2.077.527v-.803h4.154v.803"/>
        <path fill="#146EB4" d="M102.452 28.061L9.294 85.401c-1.237.761-1.053 2.614.31 3.117l98.065 36.217 97.636-36.059c1.536-.567 1.744-2.656.349-3.515l-92.77-57.1a9.95 9.95 0 0 0-10.432 0"/>
        <path fill="#0E4E80" d="M205.988 86.36l-90.426-26.526a25.692 25.692 0 0 0-14.37-.027L9.558 86.309c-1.053.304-1.106 1.776-.078 2.156l98.183 36.26 98.395-36.338c.965-.356.918-1.738-.07-2.028"/>
        <path fill="#146EB4" d="M146.25 140.57l-.243-.18a17.808 17.808 0 0 0-19.48-1.196l-7.785 4.444a20.757 20.757 0 0 1-21.732-.71l-.537-.355a25.68 25.68 0 0 0-27.902-.268c-5.244 3.322-12.09-.448-12.09-6.659V97.233a7.352 7.352 0 0 1 4.301-6.69 112.987 112.987 0 0 1 93.753 0 7.352 7.352 0 0 1 4.3 6.69v37.02c0 6.485-7.39 10.195-12.585 6.318"/>
        <path fill="#0E4E80" d="M176.317 125.961a2.252 2.252 0 0 1-2.252-2.253V87.8a2.252 2.252 0 1 1 4.504 0v35.908a2.252 2.252 0 0 1-2.252 2.253"/>
        <path fill="#F58A07" d="M174.765 126.493l-4.246 11.357 5.891 6.154 6.087-6.154-4.77-11.357h-2.962"/>
        <path fill="#0E4E80" d="M180.93 125.287c0 2.5-2.025 4.526-4.523 4.526a4.525 4.525 0 0 1-4.524-4.526c0-2.5 2.025-4.526 4.524-4.526a4.525 4.525 0 0 1 4.523 4.526"/>
        <path fill="#FFFFFE" d="M178.569 125.198a2.252 2.252 0 1 1-4.505.001 2.252 2.252 0 0 1 4.505-.001"/>
        <path fill="#D6D5D0" d="M84.764 224.931c-.554 0-1.247-.5-1.973-1.289h3.316c-.238.362-.467.688-.69.962a.812.812 0 0 1-.653.327m15.62-.101c-.928 0-1.75-.375-2.216-1.188h5.207c-.914.768-2.01 1.188-2.991 1.188m3.573-1.753h-6.031c-.127-.413-.183-.905-.15-1.478h7.125a5.514 5.514 0 0 1-.944 1.478m-17.486 0h-4.167c-.36-.443-.72-.944-1.07-1.478h6.155c-.32.51-.625 1.013-.918 1.478m18.638-2.043h-7.292c.034-.562.033-1.051-.002-1.477h7.565c-.019.124-.035.249-.048.373-.04.388-.115.756-.223 1.104m-17.36 0h-6.875c-.295-.48-.58-.978-.843-1.477h8.737c-.354.47-.694.972-1.02 1.477m17.742-2.043h-7.745c-.118-.671-.338-1.145-.64-1.477h8.87c-.206.489-.37.983-.485 1.477m-16.275 0h-9.473a21.543 21.543 0 0 1-.667-1.477h11.712c-.555.37-1.078.885-1.572 1.477m17.019-2.043H96.19c-.39-.121-.836-.16-1.32-.16-.727 0-1.54.088-2.383.122a2.75 2.75 0 0 0-.361.038H78.858a9.575 9.575 0 0 1-.422-1.477h28.654c-.322.482-.61.976-.856 1.477m1.254-2.042h-29.12a2.82 2.82 0 0 1-.003-.15c.008-.477.05-.92.117-1.328h30.083l.037.13c-.397.433-.77.883-1.114 1.348m.892-2.043H78.593a8.27 8.27 0 0 1 .489-1.478h28.61c.27.469.501.962.688 1.478m-1.043-2.043H79.36c.231-.42.411-.642.411-.642l-.894-.836h27.218c.463.448.88.943 1.242 1.478m-1.882-2.043H78.274l-1.877-1.756h25.568a9.288 9.288 0 0 1 3.49 1.756"/>
        <path fill="#A89DAF" d="M106.128 209.224H78.91l-.603-.565h27.18c.223.178.436.367.64.565M107.735 211.408h-28.61c.095-.217.191-.405.279-.565h27.976c.125.184.243.372.355.565M108.663 213.319H78.579c.032-.197.07-.385.111-.566h29.788c.067.186.129.375.185.566"/>
        <path fill="#BDBDB8" d="M108.679 213.558a10.183 10.183 0 0 0-.037-.13h.157l-.12.13m.673-.695h-.895a9.295 9.295 0 0 0-.689-1.478h2.442c.093.152.181.307.265.465-.385.32-.761.659-1.123 1.013m.484-2.043h-2.423a9.356 9.356 0 0 0-1.241-1.478h2.339a9.16 9.16 0 0 1 1.325 1.478m-2.02-2.043h-2.285a9.288 9.288 0 0 0-3.49-1.756h.415c2.003 0 3.857.652 5.36 1.756"/>
        <path fill="#948B9B" d="M108.568 209.224h-2.34a9.324 9.324 0 0 0-.64-.565h2.285c.24.177.473.365.695.565M110.295 211.408h-2.442a9.439 9.439 0 0 0-.355-.565h2.422c.132.183.257.372.375.565M108.932 213.319h-.158a9.372 9.372 0 0 0-.185-.566h.896a18.01 18.01 0 0 0-.553.566"/>
        <path fill="#CFA731" d="M116.342 204.895H74.39l-1.812-1.696h40.578a3.84 3.84 0 0 0 3.187 1.696"/>
        <path fill="#CFA731" d="M124.322 204.895h-7.907a3.84 3.84 0 0 1-3.188-1.696h13.1c-.24.225-.979.9-2.005 1.696"/>
        <path fill="#0E4E80" d="M112.053 210.688a10.969 10.969 0 0 0-9.556-5.578H81.035h43.311c-1.91 1.482-4.817 3.384-7.372 3.59-1.463.117-3.221.854-4.921 1.988"/>
        <path fill="#161737" d="M110.516 211.836a9.136 9.136 0 0 0-2.659-3.072 9.023 9.023 0 0 0-5.36-1.756H76.516l-2.028-1.898h28.01c4.099 0 7.672 2.248 9.557 5.578a18.18 18.18 0 0 0-1.538 1.148"/>
        <path fill="#1C1F45" d="M79.411 194.467l37.578-1.64-2.324 8.497-21.879 9.18-13.934-6.214.56-9.823"/>
        <path fill="#E1604E" d="M83.49 190.853l.326 6.683h28.714l.724-13.991-29.764 7.308"/>
        <path fill="#F58A07" d="M92.61 165.002s-12.261 2.487-14.517 4.34c-2.255 1.852-4.489 24.58-3.726 25.63.762 1.048 46.65 2.12 47.708.154 1.058-1.965-4.835-25.504-6.422-26.684-1.586-1.179-19.156-3.705-23.043-3.44"/>
        <path fill="#0F1229" d="M112.544 189.013h-.012a.135.135 0 0 1-.123-.147c.375-4.33.004-16.524 0-16.646a.136.136 0 0 1 .13-.14c.087 0 .138.057.14.131.004.123.375 12.333 0 16.679a.135.135 0 0 1-.135.123M82.196 188.414l-.015-.001a.135.135 0 0 1-.12-.15c.587-5.126-.47-15.655-.48-15.761a.135.135 0 1 1 .269-.027c.01.106 1.069 10.664.48 15.819a.135.135 0 0 1-.134.12"/>
        <path fill="#F0B3BD" d="M86.534 193.844l-.58-2.342a.312.312 0 0 1 .211-.373l.793-.247a.312.312 0 0 0 .214-.241l.135-.727a.313.313 0 0 1 .307-.256h.648a.312.312 0 0 0 .265-.147l.395-.632a.312.312 0 0 1 .424-.104l.75.445a.312.312 0 0 0 .312.004l.441-.246a.312.312 0 0 1 .413.1l1.579 2.387a.313.313 0 0 1-.098.44l-.35.213a.312.312 0 0 1-.396-.06c-.207-.233-.59-.053-.543.255l.016.104a.313.313 0 0 1-.17.329l-3.096 1.528-.063.023c-.194.049-1.146.248-1.564-.354a.3.3 0 0 1-.043-.1M108.128 193.844l.579-2.342a.312.312 0 0 0-.21-.373l-.793-.247a.311.311 0 0 1-.215-.241l-.135-.727a.312.312 0 0 0-.306-.256h-.649a.312.312 0 0 1-.264-.147l-.396-.632a.312.312 0 0 0-.424-.104l-.75.445a.313.313 0 0 1-.312.004l-.44-.246a.312.312 0 0 0-.414.1l-1.578 2.387a.313.313 0 0 0 .098.44l.349.213a.313.313 0 0 0 .397-.06c.206-.233.59-.053.542.255l-.016.104a.312.312 0 0 0 .17.329l3.096 1.528.064.023c.194.049 1.145.248 1.563-.354a.3.3 0 0 0 .044-.1"/>
        <path fill="#0F1229" d="M85.782 190.903l-.02-.002-7.34-1.082a.135.135 0 0 1-.114-.153.134.134 0 0 1 .153-.114l7.341 1.082a.135.135 0 0 1-.02.269M109.543 191.159a.135.135 0 0 1-.024-.268l5.968-1.066a.135.135 0 1 1 .047.266l-5.967 1.065-.024.003"/>
        <path fill="#F0B3BD" d="M90.646 159.78s-1.03 8.863 5.278 8.863c5.737 0 5.537-7.625 5.537-7.625s.574-4.719-3.875-5.253c-4.448-.534-7.208 2.422-6.94 4.015"/>
        <path fill="#1C1F45" d="M99.951 156.712s-1.401 2.747.02 4.142c.906.89 1.306 2.175 1.016 3.412l-.016.067s2.382-1.888 2.823-5.716c.441-3.827-1.294-6.236-2.764-5.964 0 0-.585-2.94-4.318-2.666-3.733.275-6.814-.028-8.166 2.933-1.351 2.961 1.005 5.554 1.005 5.554s.184 3.134 1.458 5.86l-.498-3.659s4.102-5.514 9.44-3.963"/>
        <path fill="#F0B3BD" d="M101.386 161.331l-.436 3s2.12-1.126 2.087-2.654c-.011-.509-.188-.79-.419-.939-.491-.317-1.148.014-1.232.593M90.583 160.655l.367 3.864s-2.037-1.182-2.003-2.71c.034-1.527 1.636-1.154 1.636-1.154"/>
        <path fill="#E5E6E3" d="M107.24 181.361H86c-.934 0-1.691.758-1.691 1.692v14.027c0 .934.757 1.692 1.69 1.692h21.242c.934 0 1.69-.758 1.69-1.692v-14.027c0-.934-.756-1.692-1.69-1.692"/>
        <path fill="#6D6374" d="M108.522 199.378H84.718a.41.41 0 1 1 0-.82h23.804a.41.41 0 0 1 0 .82"/>
        <path fill="#95869E" d="M105.12 199.006a.175.175 0 1 1-.35 0 .175.175 0 0 1 .35 0M102.86 199.18h1.409v-.348h-1.409z"/>
        <path fill="#2E446F" d="M101.223 224.583c2.526-1.098 7.305-9.18 8.739-11.68a.839.839 0 0 0-.096-.969c-.97.576-5.174 3.496-8.643 12.65M88.067 223.486c-2.4-1.35-6.334-9.876-7.505-12.51a.839.839 0 0 1 .193-.952c.907.67 4.792 4.004 7.312 13.462"/>
        <path fill="#F58A07" d="M74.424 189.005c-.243 3.17-.291 5.528-.058 5.85.215.294 3.996.59 9.345.821l-9.287-6.671M108.862 196.123c7.26-.084 12.875-.401 13.237-1.074.259-.481.101-2.256-.308-4.68l-12.929 5.754"/>
        <path fill="#0F1229" d="M87.99 206.956a.135.135 0 0 1-.058-.257l6.182-2.941a.135.135 0 0 1 .116.244l-6.182 2.94-.058.014"/>
        <path fill="#0E4E80" d="M193.356 18.94l-23.11 5.498.514 7.34 22.596-12.837"/>
        <path fill="#082F4D" d="M173.922 26.914l-3.13 4.865 22.595-12.838-19.465 7.973"/>
        <path fill="#146EB4" d="M193.258 18.94l-9.95 20.704-9.515-12.73 19.465-7.973"/>
        <path fill="#146EB4" d="M170.27 24.438l-7.663-.335 30.772-5.162-23.11 5.497"/>
        <path fill="#F58A07" d="M165.872 34.221l-.055-.267 1.337-.272.054.267-1.336.272zm-3.203.667l-.057-.267c.444-.095.89-.188 1.335-.281l.055.267-1.333.281zm-3.196.705l-.06-.267c.443-.101.887-.201 1.331-.3l.06.267c-.444.098-.888.198-1.33.3zm-3.18.765l-.067-.264c.44-.112.883-.222 1.326-.33l.064.266c-.442.107-.883.217-1.323.328zm-3.158.85l-.075-.261c.437-.126.876-.248 1.316-.368l.072.264c-.439.119-.877.24-1.313.366zm-3.125.961l-.085-.26a81.19 81.19 0 0 1 1.302-.416l.081.261c-.434.135-.867.273-1.298.415zm-3.079 1.094l-.097-.255c.425-.163.852-.321 1.282-.476l.092.257c-.428.154-.853.312-1.277.474zm-3.017 1.25l-.112-.248c.416-.187.834-.368 1.255-.545l.105.252a56.26 56.26 0 0 0-1.248.542zm-2.934 1.43l-.128-.24c.4-.211.809-.42 1.218-.623l.12.245c-.406.201-.814.409-1.21.619zm-2.828 1.627l-.145-.232c.382-.239.776-.477 1.17-.706l.138.235c-.393.229-.784.465-1.163.703zm-2.693 1.84l-.164-.219c.361-.27.735-.54 1.111-.8l.155.224c-.373.259-.744.526-1.102.795zm-2.512 2.079l-.184-.202c.331-.303.678-.607 1.03-.903l.175.209c-.349.294-.693.595-1.021.896zm-2.28 2.328l-.205-.18c.297-.34.609-.68.926-1.01l.197.189c-.315.327-.624.664-.918 1zm-1.983 2.582l-.227-.152c.25-.374.517-.75.794-1.12l.218.165c-.274.364-.538.736-.785 1.107zm-4.428 1.378c-.453-.015-.91-.024-1.36-.025v-.273c.453.001.914.01 1.37.026l-.01.272zm-4.62.092l-.02-.272c.45-.035.91-.062 1.366-.082l.011.273c-.452.02-.909.046-1.357.08zm-3.237.394l-.045-.27c.445-.074.9-.142 1.355-.2l.034.27c-.45.058-.903.126-1.344.2zm14.349.175a54.67 54.67 0 0 0-1.345-.206l.038-.27c.452.063.902.132 1.352.206l-.045.27zm-17.531.526l-.073-.263c.436-.12.883-.232 1.329-.334l.06.266a31.25 31.25 0 0 0-1.316.331zm20.736.1a74.522 74.522 0 0 0-1.331-.283l.054-.268a59.623 59.623 0 0 1 1.337.285l-.06.266zm-6.87.165l-.247-.117c.176-.376.367-.753.568-1.121a49.15 49.15 0 0 0-1.247-.11l.02-.272c.452.034.91.075 1.363.121l-.02.193.178.098c-.218.396-.425.802-.616 1.208zm10.023.671c-.412-.13-.85-.258-1.304-.381l.071-.263c.458.124.9.253 1.315.384l-.082.26zm-26.976.102l-.102-.254c.419-.168.85-.329 1.284-.479l.09.258c-.43.149-.858.308-1.272.475zm30.008 1.075c-.395-.188-.813-.37-1.242-.542l.101-.253c.434.173.857.358 1.258.548l-.117.247zm-32.95.316l-.132-.239c.395-.218.805-.43 1.217-.63l.119.246a26.33 26.33 0 0 0-1.204.623zm18.762.879l-.264-.073a19.286 19.286 0 0 1 .416-1.31l.257.092a18.941 18.941 0 0 0-.41 1.29zm16.974.463a14.088 14.088 0 0 0-1.12-.757l.143-.233a14.64 14.64 0 0 1 1.14.771l-.163.219zm-38.482.407l-.16-.22c.37-.271.75-.533 1.128-.78l.149.23c-.374.243-.75.502-1.117.77zm40.822 1.824c-.28-.343-.585-.68-.908-.998l.192-.194c.33.326.641.669.928 1.02l-.212.172zm-43.33.252l-.186-.2c.334-.312.68-.618 1.025-.91l.176.208c-.342.29-.684.592-1.015.902zm23.466.25l-.273-.02c.035-.456.087-.916.157-1.366l.27.042c-.07.443-.121.895-.154 1.345zM99.68 63.57l-.207-.177c.3-.349.607-.692.916-1.02l.199.187c-.306.325-.612.665-.908 1.01zm47.247.158a10.295 10.295 0 0 0-.592-1.209l.237-.136c.232.405.436.823.608 1.241l-.253.104zm-21.73 1.018a17.577 17.577 0 0 1-.106-1.372l.273-.01c.017.452.052.906.103 1.35l-.27.032zm-27.509 1.404l-.224-.155c.26-.375.532-.749.805-1.11l.217.166c-.27.357-.54.727-.798 1.1zm49.913.714a8.125 8.125 0 0 0-.14-1.335l.268-.05a8.811 8.811 0 0 1 .145 1.378l-.273.007zm-21.698 1.104a15.79 15.79 0 0 1-.374-1.325l.266-.063c.103.44.227.879.366 1.302l-.258.086zm-29.943.948l-.238-.134c.225-.4.458-.797.694-1.181l.232.143c-.234.38-.465.775-.688 1.172zm51.378 1.204l-.257-.09c.15-.426.27-.862.355-1.297l.268.053a9.58 9.58 0 0 1-.366 1.334zm-20.065.849a14.094 14.094 0 0 1-.653-1.212l.246-.118c.195.409.411.81.641 1.189l-.234.14zm-32.78.86l-.25-.112c.188-.416.385-.833.585-1.239l.244.121c-.199.403-.394.817-.58 1.23zm51.252 1.188l-.215-.168c.276-.355.53-.73.756-1.114l.235.138c-.231.395-.492.78-.776 1.144zm-16.42.538a12.445 12.445 0 0 1-.936-1.013l.21-.174c.288.348.595.681.915.99l-.19.197zm-36.04 1.306l-.257-.09c.15-.43.31-.862.474-1.285l.255.1c-.164.42-.323.848-.472 1.275zm50.037.402l-.15-.228c.37-.244.73-.518 1.068-.816l.18.205a9.98 9.98 0 0 1-1.098.84zm-11.33.236a11.727 11.727 0 0 1-1.178-.718l.155-.224c.366.254.753.49 1.151.701l-.128.241zm8.3 1.084l-.066-.265c.437-.11.868-.249 1.28-.414l.1.254c-.422.17-.865.312-1.314.425zm-5.2.05a12.296 12.296 0 0 1-1.328-.369l.087-.258c.424.144.862.265 1.3.36l-.059.268zm2.526.274c-.205 0-.41-.005-.614-.016l.015-.272c.449.023.903.02 1.347-.01l.018.273c-.252.017-.51.025-.766.025zM92.33 77.981l-.264-.07c.118-.443.243-.887.371-1.317l.262.078c-.128.428-.252.868-.37 1.31zm-.724 3.184l-.268-.052c.086-.447.179-.898.276-1.34l.267.06c-.097.438-.19.887-.275 1.332zm-.514 3.226l-.271-.035c.058-.452.122-.904.19-1.355l.27.042c-.069.448-.132.898-.19 1.348zm-.325 3.251l-.272-.02c.033-.454.07-.909.114-1.363l.271.026c-.042.452-.08.904-.113 1.357zm-.159 3.265l-.273-.007c.012-.455.028-.911.048-1.366l.272.012c-.02.453-.035.907-.047 1.361zm-.288 3.275c-.006-.433-.01-.865-.01-1.298v-.07h.273v.07c0 .431.004.862.01 1.293l-.273.005zm.109 3.278a98.76 98.76 0 0 1-.059-1.365l.273-.01c.016.454.036.908.058 1.361l-.272.014zm.212 3.273c-.036-.454-.07-.908-.1-1.363l.272-.018c.03.453.064.906.1 1.36l-.272.021zm.31 3.265a108.2 108.2 0 0 1-.14-1.36l.271-.026c.044.452.091.904.141 1.356l-.271.03zm.409 3.254c-.064-.451-.124-.903-.182-1.355l.27-.034c.058.45.119.9.182 1.35l-.27.039zm.505 3.24c-.077-.449-.151-.898-.222-1.348l.269-.043c.071.45.145.897.221 1.345l-.268.046zm.6 3.224c-.09-.446-.177-.893-.262-1.34l.269-.051c.084.446.17.892.26 1.338l-.267.053zm.696 3.205c-.103-.443-.204-.888-.302-1.333l.267-.058c.097.444.198.887.3 1.33l-.265.061zm.79 3.183c-.117-.44-.23-.881-.341-1.323l.264-.067c.11.441.224.881.34 1.32l-.264.07zm.882 3.16c-.129-.438-.255-.876-.379-1.314l.263-.074c.123.437.25.874.378 1.31l-.262.077zm.976 3.13c-.142-.433-.282-.867-.418-1.301l.26-.082c.136.433.275.866.417 1.298l-.26.085zm1.067 3.1a105.99 105.99 0 0 1-.456-1.287l.258-.09c.149.43.3.858.454 1.285l-.256.093zm1.158 3.07a118.16 118.16 0 0 1-.494-1.275l.255-.097c.162.424.326.848.493 1.27l-.254.101zm1.248 3.031c-.18-.418-.356-.838-.53-1.259l.251-.104c.174.42.35.838.53 1.256l-.25.107zm1.338 2.995c-.192-.414-.382-.828-.569-1.243l.25-.112c.186.414.375.827.566 1.24l-.247.115zm1.426 2.952a98.022 98.022 0 0 1-.605-1.225l.245-.12c.2.41.4.817.604 1.223l-.244.122zm1.514 2.91c-.217-.402-.43-.804-.641-1.207l.24-.127c.212.403.425.804.64 1.203l-.24.13zm1.218 2.196l-.295-.522.238-.133.294.52-.237.135z"/>
        <path fill="#146EB4" d="M184.013 273.184a26.635 26.635 0 0 1-24.918-17.24l-5.781-15.323c-1.996-5.29 1.91-10.943 7.561-10.943h46.275c5.65 0 9.557 5.653 7.563 10.943l-5.782 15.324a26.635 26.635 0 0 1-24.918 17.239"/>
        <path fill="#0E4E80" d="M196.649 229.678h-35.774c-5.65 0-9.557 5.653-7.561 10.943l5.605 14.859c2.322-4.663 5.275-8.022 7.812-9.338 2.217-1.15 4.071 0 5.888 1.15 2.725 1.724 5.368 3.448 9.03-2.586 4.75-7.828 12.013-13.083 15-15.028"/>
        <path fill="#1C1F45" d="M18.287 249.605v3.774c0 .626.508 1.135 1.134 1.135h2.038l.166-.262c.197-.31.653-.3.836.017l.141.245h6.23a.468.468 0 0 0 .308-.82l-4.652-4.089h-6.201M27.213 245.783l-.46 3.746a1.136 1.136 0 0 0 .987 1.265l2.023.249.197-.24a.489.489 0 0 1 .827.12l.11.26 6.183.76a.468.468 0 0 0 .406-.776l-4.119-4.626-6.154-.758"/>
        <path fill="#83A1C8" d="M39.84 270.237h29.492v-8.894H39.839z"/>
        <path fill="#1C1F45" d="M39.84 270.237h1.499v-8.894h-1.5zM43.932 270.237h1.5v-8.894h-1.5zM48.024 270.237h1.501v-8.894h-1.501zM51.843 270.237h1.5v-8.894h-1.5zM55.936 270.237h1.5v-8.894h-1.5z"/>
        <path fill="#C9BBD1" d="M60.846 223.419h49.017v-.565H60.846z"/>
        <path fill="#1C1F45" d="M60.028 270.237h1.5v-8.894h-1.5zM63.847 270.237h1.501v-8.894h-1.5zM67.94 270.237h1.502v-8.894h-1.503z"/>
        <path fill="#146EB4" d="M44.596 262.435h53.03v13.886h-53.03a6.94 6.94 0 0 1-6.94-6.942 6.942 6.942 0 0 1 6.94-6.944"/>
        <path fill="#FFFFFE" d="M166.418 275.437H94.67l-3.815-3.726v-5.179l4.246-3.551h71.316v12.456"/>
        <path fill="#C9BBD1" d="M93.039 264.976h73.58v-.357h-73.58zM91.402 266.341h75.175v-.357H91.402zM90.856 267.703h75.562v-.355H90.856zM90.856 269.071h75.562v-.358H90.856zM90.856 270.163h75.562v-.358H90.856zM90.856 271.525h75.562v-.355H90.856zM91.402 272.89h75.175v-.355H91.402zM92.493 273.985h74.14v-.358h-74.14z"/>
        <path fill="#E4E4DF" d="M97.7 275.055h-.57a5.696 5.696 0 0 1-3.19-.972h1.521c.658.47 1.418.808 2.24.972m-2.691-1.33h-1.545c-.331-.276-.63-.59-.892-.933h1.575c.253.34.542.655.862.933m-1.107-1.288h-1.581a5.754 5.754 0 0 1-.49-.934h1.59c.133.328.294.639.48.934m-.611-1.289h-1.592a1.972 1.972 0 0 1-.024-.076l1.539-.175c.024.085.05.167.077.251"/>
        <path fill="#B2A6BA" d="M93.398 271.525h-1.59a5.908 5.908 0 0 1-.133-.355h1.591c.04.12.085.238.132.355M94.046 272.89h-1.575a5.314 5.314 0 0 1-.25-.355h1.58c.078.12.16.24.245.355M95.308 273.985h-1.522a5.71 5.71 0 0 1-.474-.358h1.544c.145.126.296.246.452.358"/>
        <path fill="#1C1F45" d="M167.153 275.096h-70.19a5.735 5.735 0 0 1-5.728-5.73 5.737 5.737 0 0 1 5.728-5.733h70.19v-1.198h-70.19a6.929 6.929 0 0 0-6.925 6.93c0 3.828 3.1 6.929 6.925 6.929h70.19v-1.198"/>
        <path fill="#D6D5D0" d="M93.261 270.832a5.958 5.958 0 0 1-.15-.683h6.094l-5.944.683m9.053-1.04h-9.248a5.906 5.906 0 0 1-.016-.931h17.393l-8.13.93m11.238-1.288H93.082a5.9 5.9 0 0 1 .192-.933h28.406l-8.129.933m11.238-1.288H93.39c.117-.325.263-.639.434-.934h39.093l-8.13.934m11.241-1.291h-41.98c.229-.336.492-.65.784-.931h49.322l-8.126.93m11.238-1.288h-52.03a5.88 5.88 0 0 1 2.203-1.108h59.487l-9.66 1.108"/>
        <path fill="#A89DAF" d="M143.998 264.976H94.676a5.51 5.51 0 0 1 .404-.357h52.03l-3.112.357M132.95 266.341H93.857c.07-.12.145-.24.224-.357h41.98l-3.111.357M121.718 267.703H93.312c.035-.12.074-.237.116-.355h31.399l-3.109.355M110.432 269.071H93.039c.007-.12.018-.24.032-.358h20.47l-3.11.358M107.302 215.502H78.648a4.09 4.09 0 0 1-.069-.565H107.7c-.138.187-.27.375-.398.565M105.97 217.413H97.1a2.012 2.012 0 0 0-.915-.565h10.043a10.76 10.76 0 0 0-.258.565m-15.189 0H79.07c-.078-.192-.15-.381-.217-.565H92.12c-.466.081-.912.28-1.339.565M105.582 219.324h-7.565a6.09 6.09 0 0 0-.07-.565h7.745c-.044.188-.081.377-.11.565m-16.612 0h-8.737c-.1-.189-.196-.377-.29-.565h9.474c-.152.182-.3.37-.447.565M105.06 221.508h-7.124l.013-.17c.011-.135.02-.267.029-.395h7.292c-.06.195-.13.383-.21.565m-17.51 0h-6.156a23.283 23.283 0 0 1-.36-.565h6.875a58.51 58.51 0 0 0-.36.565M99.178 270.163h-6.094a5.87 5.87 0 0 1-.045-.358h9.247l-3.108.358"/>
        <path fill="#BDBDB8" d="M91.675 271.006a5.59 5.59 0 0 1-.204-.857h1.593c.037.232.087.459.15.683l-1.54.174m1.345-1.214h-1.592a5.703 5.703 0 0 1-.011-.931h1.587a5.906 5.906 0 0 0 .016.93m.016-1.288h-1.584c.043-.32.111-.63.205-.933h1.57a5.9 5.9 0 0 0-.19.933m.307-1.288H91.78c.124-.328.278-.639.458-.934h1.541c-.17.295-.317.609-.435.934m.659-1.291h-1.529c.245-.339.525-.653.836-.931h1.477a5.921 5.921 0 0 0-.784.93m1.188-1.288h-1.442a5.698 5.698 0 0 1 3.382-1.108h.262a5.88 5.88 0 0 0-2.202 1.108"/>
        <path fill="#948B9B" d="M94.788 264.976h-1.476a5.89 5.89 0 0 1 .439-.357h1.441a5.51 5.51 0 0 0-.404.357M93.761 266.341h-1.54c.074-.123.153-.24.236-.357h1.528a7.074 7.074 0 0 0-.224.357M93.246 267.703h-1.571c.037-.12.078-.237.123-.355h1.565a5.927 5.927 0 0 0-.117.355M92.989 269.071h-1.587c.008-.12.02-.24.036-.358h1.583a5.669 5.669 0 0 0-.032.358M93.039 270.163h-1.593a5.869 5.869 0 0 1-.044-.358h1.592c.011.12.026.24.045.358"/>
        <path fill="#0E4E80" d="M90.343 271.07l-42.592-7.72c.083-.304.164-.607.24-.91l19.236-.002h12.451c.038 0 .077 0 .115-.003h.037v.003h16.857a6.927 6.927 0 0 0-6.344 8.631"/>
        <path fill="#161737" d="M90.862 271.19l-.611-.113a6.927 6.927 0 0 1 6.344-8.631h59.67c.103 0 .205-.003.307-.008l10.58-.003-10.44 1.198H96.963a5.698 5.698 0 0 0-3.821 1.466 5.822 5.822 0 0 0-1.072 1.289 5.697 5.697 0 0 0-.835 2.978 5.703 5.703 0 0 0 .272 1.747l-.645.076"/>
        <path fill="#F58A07" d="M74.398 226.948h79.737v17.768H74.398a2.913 2.913 0 0 1-2.912-2.913V229.86a2.913 2.913 0 0 1 2.912-2.913"/>
        <path fill="#FFFFFE" d="M161.239 244.01h-22.913v-15.97h22.913c-3.852 0-3.852 15.97 0 15.97"/>
        <path fill="#C9BBD1" d="M158.464 238.215h-20.138v.457h20.188a21.32 21.32 0 0 1-.05-.457m-.104-1.653h-20.034v.458h20.05a23.122 23.122 0 0 1-.016-.458m.764 4.959h-20.798v.457h20.969a7.928 7.928 0 0 1-.17-.457m-.427-1.653h-20.372v.457h20.467c-.033-.15-.065-.301-.095-.457m.529-9.917h-20.9v.457h20.74c.05-.158.104-.31.16-.457m-.733 3.305h-20.168v.458h20.121c.014-.154.03-.306.047-.458m.261-1.652h-20.429v.457h20.341c.028-.155.057-.308.088-.457m-.385 3.305h-20.044v.458h20.03c.003-.153.008-.305.014-.458"/>
        <path fill="#E4E4DF" d="M140.713 243.282h-.287a1.556 1.556 0 0 1-1.524-1.248h1.81v1.248zm-1.841-1.706h1.84v-1.195h-1.84v1.195zm0-1.653h1.84v-1.195h-1.84v1.195zm0-1.653h1.84v-1.195h-1.84v1.195zm0-1.652h1.84v-1.196h-1.84v1.196zm0-1.653h1.84v-1.196h-1.84v1.196zm1.84-1.653h-1.84v-.411l1.84-.493v.904z"/>
        <path fill="#B2A6BA" d="M140.713 241.948h-1.81c-.02-.099-.031-.201-.031-.306v-.15h1.84v.456zm-1.841-1.652h1.84v-.458h-1.84v.458zm0-1.653h1.84v-.458h-1.84v.458zm0-1.653h1.84v-.457h-1.84v.457zm0-1.653h1.84v-.457h-1.84v.457zm0-1.653h1.84v-.457h-1.84v.457z"/>
        <path fill="#F58A07" d="M160.816 243.18h-20.493a1.556 1.556 0 0 1-1.553-1.554v-11.588c0-.857.696-1.554 1.553-1.554h20.493v-1.536h-20.493a3.09 3.09 0 0 0-3.088 3.09v11.588a3.09 3.09 0 0 0 3.088 3.09h20.493v-1.536"/>
        <path fill="#D3D3CF" d="M160.598 226.998H76.67v-.002l84.113-.048-.185.05"/>
        <path fill="#6989B8" d="M76.671 226.95h-2.184l2.184-.002v.001"/>
        <path fill="#F58A07" d="M137.224 233.21l-62.737-6.262h79.738-13.912a3.09 3.09 0 0 0-3.089 3.09v3.172"/>
        <path fill="#D6D5D0" d="M140.509 232.408v-.29h1.086l-1.086.29m2.794-.748h-2.794v-1.196h7.257l-4.463 1.196m6.17-1.653h-8.964v-1.421h14.269l-5.305 1.421"/>
        <path fill="#A89DAF" d="M141.595 232.061h-1.086v-.457h2.794l-1.708.457m6.171-1.653h-7.257v-.457h8.964l-1.707.457"/>
        <path fill="#BDBDB8" d="M138.872 232.901v-.784h1.84v.291l-1.84.493zm0-1.241h1.84v-1.196h-1.84v1.196zm1.84-1.653h-1.835a1.556 1.556 0 0 1 1.549-1.421h.287v1.421z"/>
        <path fill="#948B9B" d="M138.872 232.061h1.84v-.457h-1.84v.457zm1.84-1.653h-1.84v-.324c0-.045.002-.09.005-.133h1.836v.457z"/>
        <path fill="#F58A07" d="M137.235 233.21v-3.172a3.09 3.09 0 0 1 3.088-3.09h20.288l-5.732 1.536h-14.556a1.556 1.556 0 0 0-1.553 1.554v2.761l-1.535.411"/>
        <path fill="#95869E" d="M79.943 244.692h76.528a5.388 5.388 0 0 1 5.386 5.39v6.83a5.388 5.388 0 0 1-5.386 5.39H79.943v-17.61"/>
        <path fill="#FFFFFE" d="M43.659 261.613h38.335l1.928-1.52v-12.664l-2.063-1.646h-38.2c6.83 0 6.83 15.83 0 15.83"/>
        <path fill="#C9BBD1" d="M48.842 252.608h35.176v.453H48.867a13.875 13.875 0 0 0-.025-.453M48.57 250.97h35.395v.453H48.652a11.989 11.989 0 0 0-.083-.453M47.205 247.694h36.696v.454H47.49a6.563 6.563 0 0 0-.285-.454M48.024 249.332h35.859v.454H48.18c-.049-.154-.1-.306-.156-.454M48.872 254.246H84.03v.453H48.842c.013-.15.022-.302.03-.453M47.508 259.16H84.02v.452H47.205c.106-.144.207-.294.303-.453M48.192 257.521H83.95v.454H48.024c.059-.148.116-.3.168-.454M48.659 255.884H84v.453H48.57c.033-.15.063-.301.09-.453"/>
        <path fill="#305293" d="M81.766 246.33c-.981 4.596-.969 9.48 0 14.642 0 0 2.217-.074 2.217-1.712s.185-9.098.185-9.098l-.535-2.142-1.867-1.69"/>
        <path fill="#1C1F45" d="M42.567 260.779h37.075a3.777 3.777 0 0 0 3.773-3.773v-7.018a3.777 3.777 0 0 0-3.773-3.774H42.567v-1.522h37.075a5.295 5.295 0 0 1 5.293 5.296v7.018a5.295 5.295 0 0 1-5.293 5.296H42.567v-1.523"/>
        <path fill="#7E7387" d="M132.819 256.143c-2.139 0-4.29-.243-6.417-.74l-45.913-10.711 76.017.042-5.147 4.476a28.257 28.257 0 0 1-18.54 6.933"/>
        <path fill="#C9BBD1" d="M60.846 217.413h51.269v-.565H60.846zM60.846 219.324h51.269v-.565H60.846zM60.846 221.508h50.657v-.565H60.846z"/>
        <path fill="#B2A6BA" d="M111.428 215.502h-2.514a9.168 9.168 0 0 0-.052-.565h2.51c.024.187.043.375.056.565M111.386 217.413h-2.524a9.38 9.38 0 0 0 .072-.565h2.523c-.018.19-.042.379-.07.565M110.836 219.324h-2.52c.076-.185.146-.374.21-.565h2.522a8.99 8.99 0 0 1-.212.565M109.72 221.508h-2.495a9.37 9.37 0 0 0 .388-.565h2.506a9.105 9.105 0 0 1-.398.565M107.454 223.419h-2.411c.247-.177.486-.366.715-.565h2.448c-.24.2-.492.39-.752.565"/>
        <path fill="#1C1F45" d="M25.387 246.443c-1.723-5.577-3.85-10.571-7.373-13.564.83-1.504 2-2.196 3.686-1.651 2.713 3.837 3.453 9.316 3.687 15.215"/>
        <path fill="#305293" d="M21.7 231.228c-1.686-.545-2.855.147-3.686 1.651 0 0 1.872.536 3.686-1.651"/>
        <path fill="#E1604E" d="M45.822 244.617c-9.892-12.746-21.198-.98-21.198-.98s-11.306-11.766-21.198.98c-8.57 11.043 2.748 30.725 5.926 35.786.684 1.092 1.626 2.05 2.849 2.61 3.61 1.643 7.495-.295 9.941-2.02a4.291 4.291 0 0 1 4.964 0c2.446 1.725 6.33 3.663 9.941 2.02 1.223-.56 2.165-1.518 2.849-2.61 3.178-5.061 14.497-24.743 5.926-35.786"/>
        <path fill="#F5CBC0" d="M34.1 283.749c-2.663 0-5.228-1.379-7.02-2.643a4.3 4.3 0 0 0-2.482-.791 4.3 4.3 0 0 0-2.481.791c-1.314.926-3.043 1.914-4.922 2.375 1.879-.461 3.608-1.45 4.922-2.375a4.3 4.3 0 0 1 2.481-.791 4.3 4.3 0 0 1 2.482.791c1.792 1.264 4.357 2.643 7.02 2.643.971 0 1.956-.183 2.921-.623 1.223-.56 2.165-1.517 2.85-2.61-.685 1.093-1.627 2.05-2.85 2.61-.965.44-1.95.623-2.922.623"/>
        <path fill="#213F81" d="M42.567 275.994c1.796-3.355 3.903-7.873 5.221-12.647-1.318 4.774-3.425 9.292-5.22 12.647m5.46-13.556l.001-.003v.003"/>
        <path fill="#27386A" d="M47.751 263.344"/>
        <path fill="#F6CBC1" d="M47.624999999999986 247.73799999999997"/>
        <path fill="#C597A3" d="M49.12 254.699a24.993 24.993 0 0 1 0 0M48.57 259.612a30.118 30.118 0 0 1 0 0M49.115 256.337"/>
        <path fill="#141432" d="M47.112 246.258"/>
        <path fill="#DF5042" d="M34.089 283.71c-2.663 0-5.228-1.379-7.02-2.643a4.3 4.3 0 0 0-2.482-.791 4.3 4.3 0 0 0-2.481.791c-1.314.926-3.043 1.914-4.921 2.375a8.78 8.78 0 0 1-1.926.265c-.057.003-.115.003-.173.003a7.02 7.02 0 0 1-2.922-.623c-.038-.019-.076-.035-.113-.054-1.168-.565-2.072-1.5-2.736-2.555a76.803 76.803 0 0 1-4.67-8.676c2.878.863 5.602 1.248 8.175 1.248 22.064 0 32.966-28.358 32.966-28.358a13.838 13.838 0 0 1 1.133 1.706 14.259 14.259 0 0 1 .876 1.861 15.284 15.284 0 0 1 .53 1.638 17.044 17.044 0 0 1 .349 1.639 19.258 19.258 0 0 1 .194 1.638 21.56 21.56 0 0 1 .063 1.638 24.995 24.995 0 0 1-.052 1.638 27.836 27.836 0 0 1-.154 1.638 32.375 32.375 0 0 1-.243 1.638 38.509 38.509 0 0 1-.592 2.76l-.001.002c-.077.303-.158.606-.24.91-1.319 4.774-3.426 9.292-5.221 12.646a75.022 75.022 0 0 1-2.569 4.434c-.684 1.091-1.626 2.05-2.849 2.61-.965.439-1.95.622-2.921.622"/>
        <path fill="#EC9985" d="M6.906 254.268a2.26 2.26 0 0 1-2.17-2.887c1.976-6.85 8.399-8.715 8.672-8.791a2.257 2.257 0 0 1 2.781 1.57 2.26 2.26 0 0 1-1.556 2.78c-.211.063-4.3 1.333-5.56 5.694a2.26 2.26 0 0 1-2.167 1.634"/>
        <path fill="#A89DAF" d="M103.47 223.419h-5.207a2.778 2.778 0 0 1-.242-.565h6.03a5.56 5.56 0 0 1-.58.565m-17.269 0h-3.316a11.986 11.986 0 0 1-.487-.565h4.167c-.124.195-.245.384-.364.565"/>
        <path fill="#0E4E80" d="M71.4 188.818l32.616 19.814c-2.626 2.134-4.087 4.92-4.675 8.199l-33.975-17.12c-3.42-1.724-4.49-6.098-2.253-9.207a6.226 6.226 0 0 1 8.286-1.686"/>
        <path fill="#1C1F45" d="M94.564 211.662l-2.07 1.75 4.096 2.064c1.225-1.056 3.616-3.092 3.972-3.228.482-.184-5.998-.586-5.998-.586"/>
        <path fill="#0E4E80" d="M121.225 190.974l-34.461 16.393c2.395 2.39 3.566 5.31 3.817 8.631l35.54-13.574c3.577-1.366 5.086-5.609 3.176-8.93a6.226 6.226 0 0 0-8.072-2.52"/>
        <path fill="#1C1F45" d="M104.105 208.659l5.433 3.063a.839.839 0 0 1 .315 1.147c-1.433 2.5-6.213 10.582-8.739 11.68 0 0-2.039-.655-1.258-3.322.781-2.668-.27-5.136-.27-5.136s.178-6.219 4.52-7.432M86.708 207.294l-5.716 2.494a.838.838 0 0 0-.43 1.11c1.171 2.633 5.105 11.159 7.506 12.509 0 0 2.095-.445 1.59-3.178-.506-2.733.79-5.082.79-5.082s.455-6.204-3.74-7.853"/>
    </g>
</svg>
