<svg xmlns="http://www.w3.org/2000/svg" xmlns:xlink="http://www.w3.org/1999/xlink" width="380" height="218" viewBox="0 0 380 218">
    <defs>
        <path id="a" d="M.348 18.09C-2.6 30.907 27.628 32.554 40.085 32.694c3.454.038 6.89-.29 10.275-.976 10.534-2.136 33.591-7.746 30.357-15.372-4.172-9.84-16.706-2.98-16.706-2.98s1.573-7.428-19.753-12.334C22.93-3.874 23.016 12.475 23.016 12.475S4.054 1.988.348 18.09"/>
        <path id="c" d="M112.953 35.761H2.906s-5.968-7.548 0-12.628c3.293-2.803 7.182-2.513 10.007-1.69 1.84.538 3.676-.704 4.08-2.578.67-3.104 2.732-7.165 8.655-9.565 5.828-2.36 9.514 1.244 11.648 4.948.701 1.219 2.57 1.036 2.992-.304 1.848-5.848 8.286-13.6 29.44-13.6 26.905 0 23.915 14.302 21.51 20.246-.416 1.032.466 2.101 1.555 1.868 4.15-.887 11.854-2.037 15.308.675 4.852 3.808 4.852 12.628 4.852 12.628"/>
        <path id="e" d="M23.522 5.8l1.72-5.277L.707 3.662 23.522 5.8"/>
        <path id="g" d="M.707.035l19.786 6.233-2.95 7.606L.708.034"/>
        <path id="i" d="M31.584 6.618L14.248.846 5.92.725.016 2.739l31.568 3.879"/>
        <path id="k" d="M.505 4.437L4.077.249l33.11 2.729L9.9 7.189.505 4.437"/>
        <path id="m" d="M17.325.218l14.48 43.721-16.814 5.223L.509 5.439 17.325.219"/>
        <path id="o" d="M14.038.69L.313 44.41l16.06 5.222 13.725-43.72L14.038.69"/>
    </defs>
    <g fill="none" fill-rule="evenodd">
        <path fill="#FFC53A" d="M200.189 179.095c-9.438-6.5-11.818-19.419-5.317-28.854 6.5-9.436 19.42-11.816 28.857-5.316 9.437 6.5 11.818 19.418 5.317 28.854-6.5 9.436-19.42 11.816-28.857 5.316zm63.1 6.329c-.068-1.24-3.318-4.708-7.633-7.794a46.118 46.118 0 0 0 2.643-13.213c4.592-.661 9.366-1.838 10.344-3.917 1.984-4.216-1.78-16.32-3.25-17.638-.941-.845-5.85-.988-11.196-.066a46.12 46.12 0 0 0-7.21-11.232c2.788-3.72 5.347-7.946 4.566-10.112-1.58-4.385-12.801-10.282-14.773-10.175-1.236.067-4.685 3.296-7.765 7.59a46.052 46.052 0 0 0-13.317-3.096c-.674-4.434-1.84-8.905-3.844-9.847-4.218-1.984-16.323 1.78-17.641 3.249-.785.875-.965 5.18-.245 10.08a46.115 46.115 0 0 0-12.178 7.501c-3.419-2.442-7.038-4.445-8.99-3.744-4.384 1.58-10.282 12.8-10.176 14.772.061 1.11 2.677 4.01 6.325 6.823a46.094 46.094 0 0 0-3.303 14.5c-3.91.7-7.538 1.819-8.376 3.6-1.984 4.217 1.78 16.32 3.25 17.64.81.725 4.554.932 8.985.39a46.11 46.11 0 0 0 8.212 12.58c-2.26 3.25-4.022 6.592-3.357 8.438 1.58 4.385 12.8 10.282 14.773 10.176 1.114-.06 4.026-2.69 6.843-6.351a46.145 46.145 0 0 0 14.388 2.792c.693 4.11 1.833 8.036 3.694 8.911 4.22 1.985 16.324-1.779 17.642-3.249.789-.879.967-5.223.234-10.152a46.076 46.076 0 0 0 11.586-7.864c3.589 2.631 7.527 4.922 9.592 4.179 4.385-1.58 10.284-12.8 10.177-14.771z"/>
        <path fill="#FFFFFE" d="M220.832 134.257a28.766 28.766 0 0 0-13.486-.711c-7.588 1.398-14.178 5.666-18.556 12.02-4.377 6.353-6.017 14.032-4.62 21.62 1.398 7.586 5.668 14.176 12.023 18.553 6.354 4.376 14.032 6.016 21.62 4.619 7.59-1.398 14.18-5.667 18.556-12.021 4.378-6.353 6.019-14.03 4.621-21.619-1.398-7.586-5.667-14.176-12.022-18.552a28.947 28.947 0 0 0-8.136-3.91zm-16.749 56.216a29.78 29.78 0 0 1-8.378-4.026c-6.545-4.507-10.942-11.292-12.381-19.106-1.44-7.814.25-15.72 4.757-22.263 4.508-6.544 11.294-10.94 19.11-12.38 7.814-1.438 15.722.25 22.265 4.758 6.544 4.508 10.94 11.293 12.381 19.107 1.44 7.813-.25 15.72-4.758 22.263-4.508 6.543-11.294 10.94-19.108 12.38-4.7.865-9.437.598-13.888-.733z"/>
        <path fill="#FFFFFE" d="M251.575 178.66c-.148-.128-.294-.26-.436-.395a42.285 42.285 0 0 1-4.369 8.125c-13.242 19.221-39.655 24.087-58.879 10.846-12.587-8.67-19.017-22.985-18.24-37.232a8.097 8.097 0 0 1-.537-.24c-.862 14.5 5.652 29.1 18.465 37.925 19.473 13.412 46.23 8.485 59.644-10.987a42.892 42.892 0 0 0 4.352-8.042M209.666 119.759c9.049-.51 18.324 1.852 26.347 7.379.158.107.306.224.461.334.048-.188.106-.375.163-.561-.106-.074-.205-.153-.311-.226-8.095-5.576-17.447-7.971-26.578-7.482-.023.186-.05.371-.082.556"/>
        <path fill="#75BDF3" d="M172.142 76.959c8.016 6.308 9.4 17.92 3.091 25.935-6.31 8.016-17.923 9.4-25.939 3.091-8.017-6.308-9.4-17.92-3.092-25.935 6.31-8.016 17.923-9.4 25.94-3.091zm-55.704-9.192c-.01 1.105 2.682 4.37 6.34 7.356a41.052 41.052 0 0 0-3.095 11.59c-4.118.327-8.426 1.103-9.411 2.894-2.002 3.635.658 14.602 1.89 15.856.787.803 5.14 1.208 9.942.691a41.066 41.066 0 0 0 5.77 10.386c-2.686 3.149-5.199 6.758-4.629 8.727 1.156 3.985 10.792 9.858 12.55 9.875 1.102.01 4.35-2.663 7.328-6.304a41.01 41.01 0 0 0 11.657 3.503c.348 3.979 1.131 8.017 2.858 8.967 3.635 2.001 14.602-.657 15.858-1.89.747-.732 1.15-4.547.787-8.94a41.05 41.05 0 0 0 11.244-5.976c2.9 2.362 6.001 4.347 7.775 3.834 3.985-1.156 9.86-10.79 9.876-12.548.01-.99-2.15-3.715-5.233-6.42a41.062 41.062 0 0 0 3.755-12.697c3.514-.4 6.8-1.19 7.645-2.724 2.001-3.634-.658-14.601-1.89-15.855-.677-.69-3.992-1.087-7.96-.855a41.038 41.038 0 0 0-6.585-11.64c2.193-2.762 3.947-5.63 3.46-7.309-1.155-3.985-10.79-9.86-12.549-9.875-.992-.01-3.729 2.162-6.44 5.255a41.089 41.089 0 0 0-12.625-3.295c-.382-3.69-1.173-7.242-2.778-8.127-3.634-2-14.602.659-15.857 1.89-.751.737-1.154 4.587-.782 9.006a41.038 41.038 0 0 0-10.739 6.332c-3.039-2.54-6.407-4.799-8.285-4.255-3.985 1.156-9.86 10.79-9.877 12.548z"/>
        <path fill="#FFFFFE" d="M151.806 116.086a25.603 25.603 0 0 0 11.94 1.394c6.821-.813 12.918-4.233 17.166-9.63 4.249-5.398 6.14-12.126 5.328-18.946-.813-6.821-4.234-12.916-9.631-17.164-5.399-4.248-12.128-6.139-18.949-5.327-6.822.812-12.918 4.233-17.166 9.63-4.248 5.398-6.14 12.126-5.327 18.946.812 6.82 4.233 12.916 9.63 17.165a25.788 25.788 0 0 0 7.009 3.932zm18.06-49a26.55 26.55 0 0 1 7.216 4.051c5.56 4.375 9.082 10.653 9.918 17.676.838 7.024-1.11 13.953-5.486 19.511-4.374 5.557-10.652 9.08-17.677 9.917-7.025.836-13.955-1.111-19.513-5.485-5.56-4.375-9.081-10.652-9.92-17.676-.836-7.023 1.113-13.952 5.488-19.511 4.374-5.558 10.653-9.08 17.677-9.917a26.36 26.36 0 0 1 12.296 1.435z"/>
        <path fill="#FFFFFE" d="M126.235 74.578c.124.123.246.247.364.376a37.655 37.655 0 0 1 4.341-6.972c12.853-16.328 36.595-19.157 52.925-6.306 10.693 8.415 15.595 21.496 14.1 34.11l.004.002c.156.075.308.156.459.242 1.586-12.834-3.376-26.174-14.26-34.74-16.543-13.017-40.593-10.151-53.613 6.39a38.15 38.15 0 0 0-4.32 6.898"/>
        <g transform="translate(212.568 58.933)">
            <mask id="b" fill="#fff">
                <use xlink:href="#a"/>
            </mask>
            <path fill="#72C3FF" d="M.348 18.09C-2.6 30.907 27.628 32.554 40.085 32.694c3.454.038 6.89-.29 10.275-.976 10.534-2.136 33.591-7.746 30.357-15.372-4.172-9.84-16.706-2.98-16.706-2.98s1.573-7.428-19.753-12.334C22.93-3.874 23.016 12.475 23.016 12.475S4.054 1.988.348 18.09" mask="url(#b)"/>
        </g>
        <path fill="#167DCC" d="M280.199 94.55s-4.572-60.214 35.072-79.866c56.115 51.452 5.358 106.495 5.358 106.495L280.2 94.55"/>
        <path fill="#FFF" d="M315.37 14.58c.196.179.384.358.577.537l-12.51 70.046 38.065-22.82c.046.492.086.983.12 1.472l-38.493 23.078-3.61 20.213-1.205-.793 7.197-40.293-18.548-17.825c.168-.45.34-.897.516-1.345l18.312 17.6 8.837-49.484c.249-.128.49-.262.742-.386"/>
        <path fill="#F58A07" d="M295.625 89.812s31.667-53.902 79.146-49.878c20.153 46.805-28.639 77.212-28.639 77.212l-51.969 8.555 1.462-35.889"/>
        <path fill="#FFFFFE" d="M329.433 54.14l6.26 25.96 37.62-40.027c.332.028.664.05.998.084.08.184.148.366.226.55l-20.15 21.438 24.8.805c-.001.236-.01.468-.015.703l-.02.622-25.974-.844-33.577 35.728 43.478 2.8c-.37.426-.74.847-1.11 1.257l-43.545-2.805-23.843 25.369-.878.144.144-1.3 40.76-43.368-6.338-26.283c.385-.28.774-.557 1.164-.833"/>
        <path fill="#1A9DFF" d="M306.752 113.387s47.153-17.424 69.525 7.858c-9.09 30.26-31.951 42.33-54.05 46.53-26.605 5.054-53.952-3.9-72.938-23.208l-12.78-12.997 70.243-18.183"/>
        <path fill="#FFF" d="M376.14 120.826c-.077.253-.158.503-.235.755l-65.487 18.613 30.167 21.52c-.474.21-.949.413-1.427.612l-30.373-21.667-48.817 12.947-1.695-1.45 75.873-20.085 13.844-24.536c.476.052.951.11 1.426.172l-13.456 23.848 39.675-11.277c.167.183.339.359.504.545v.003"/>
        <g transform="translate(28.294 16.135)">
            <mask id="d" fill="#fff">
                <use xlink:href="#c"/>
            </mask>
            <path fill="#6EBBF5" d="M112.953 35.761H2.906s-5.968-7.548 0-12.628c3.293-2.803 7.182-2.513 10.007-1.69 1.84.538 3.676-.704 4.08-2.578.67-3.104 2.732-7.165 8.655-9.565 5.828-2.36 9.514 1.244 11.648 4.948.701 1.219 2.57 1.036 2.992-.304 1.848-5.848 8.286-13.6 29.44-13.6 26.905 0 23.915 14.302 21.51 20.246-.416 1.032.466 2.101 1.555 1.868 4.15-.887 11.854-2.037 15.308.675 4.852 3.808 4.852 12.628 4.852 12.628" mask="url(#d)"/>
        </g>
        <path fill="#1A9DFF" d="M266.579 9.568l2.754 5.415-5.784-1.32-19.785-6.233 22.815 2.138"/>
        <path fill="#167DCC" d="M269.55 15.068l-9.826-.61 2.408-1.225 7.418 1.835"/>
        <g transform="translate(243.038 3.803)">
            <mask id="f" fill="#fff">
                <use xlink:href="#e"/>
            </mask>
            <path d="M23.522 5.8l1.72-5.277L.707 3.662 23.522 5.8" mask="url(#f)"/>
        </g>
        <g transform="translate(243.038 7.43)">
            <mask id="h" fill="#fff">
                <use xlink:href="#g"/>
            </mask>
            <path d="M.707.035l19.786 6.233-2.95 7.606L.708.034" mask="url(#h)"/>
        </g>
        <path fill="#FFF" d="M267.35 20.537a.462.462 0 0 0 .094-.76c-.608-.529-1.262-1-1.945-1.401a.46.46 0 0 0-.632.164.46.46 0 0 0 .164.633c.633.371 1.241.81 1.806 1.301.146.127.35.147.513.063M255.124 32.88c-1.295-.597-2.886-.747-4.256-.4a.462.462 0 0 1-.226-.896 7.461 7.461 0 0 1 4.87.457.462.462 0 0 1-.388.84zM247.402 38.067a.461.461 0 0 1-.56-.337c-.328-1.313-.197-2.587.379-3.684.209-.398.474-.763.788-1.087a.462.462 0 1 1 .663.644 3.75 3.75 0 0 0-.633.872c-.475.906-.577 1.926-.3 3.032a.46.46 0 0 1-.337.56zM271.938 26.95a.463.463 0 0 1-.587-.287 14.89 14.89 0 0 0-.803-1.899 14.11 14.11 0 0 0-1.3-2.085.461.461 0 1 1 .739-.556c.52.69.986 1.438 1.384 2.223.33.647.617 1.325.854 2.017a.461.461 0 0 1-.287.587zM260.555 37.87c-.993-1.54-1.9-2.66-2.854-3.521a.463.463 0 0 1 .619-.686c1.017.917 1.974 2.096 3.013 3.707.138.214.076.5-.138.64l-.041.022a.462.462 0 0 1-.599-.161zM251.901 43.203c-.374-.191-.74-.403-1.085-.628a9.872 9.872 0 0 1-2.613-2.496.462.462 0 0 1 .751-.54 8.937 8.937 0 0 0 2.365 2.26c.32.209.658.405 1.003.582a.46.46 0 1 1-.42.822zM271.715 34.033a.463.463 0 0 1-.376-.536 14 14 0 0 0 .042-4.5.462.462 0 1 1 .914-.136 14.925 14.925 0 0 1-.045 4.796.458.458 0 0 1-.535.376zM259.781 44.985c-1.644.14-3.253.014-4.786-.374a.463.463 0 0 1 .227-.897c1.432.364 2.94.481 4.481.35a.463.463 0 0 1 .248.872.456.456 0 0 1-.17.049zM268.57 40.39a.461.461 0 0 1-.009-.652 11.762 11.762 0 0 0 1.686-2.192c.29-.49.548-1.006.767-1.539a.462.462 0 0 1 .855.351 12.76 12.76 0 0 1-.827 1.66 12.696 12.696 0 0 1-1.819 2.364.462.462 0 0 1-.653.009zM264.784 44.33a.462.462 0 0 1-.618-.21l-.173-.348c-.489.19-.988.356-1.495.497a.462.462 0 1 1-.247-.89c.447-.124.887-.269 1.319-.435-.48-.92-1.01-1.875-1.607-2.903a.461.461 0 1 1 .8-.464 71.706 71.706 0 0 1 1.661 3.008c.672-.308 1.32-.67 1.925-1.074a.463.463 0 0 1 .514.769c-.637.424-1.316.803-2.019 1.128.052.102.101.203.151.304a.462.462 0 0 1-.205.616l-.006.003zM267.629 51.197a.462.462 0 0 1-.565-.329 33.792 33.792 0 0 0-1.5-4.35.462.462 0 0 1 .852-.358 34.664 34.664 0 0 1 1.54 4.47.462.462 0 0 1-.327.567zM268.352 58.707a.464.464 0 0 1-.43-.494l.015-.208a21.343 21.343 0 0 0-.227-4.344.462.462 0 0 1 .913-.139c.236 1.54.314 3.064.236 4.533l-.013.224a.46.46 0 0 1-.494.428zM265.762 65.571a.46.46 0 0 1-.173-.629 16.55 16.55 0 0 0 1.676-4.207.463.463 0 0 1 .898.223 17.479 17.479 0 0 1-1.771 4.44.461.461 0 0 1-.63.173zM260.514 70.65a.463.463 0 0 1 .163-.632c1.245-.735 2.385-1.724 3.39-2.938a.463.463 0 0 1 .713.589c-1.073 1.297-2.296 2.355-3.634 3.145a.462.462 0 0 1-.633-.163zM258.318 72.14a.463.463 0 0 0-.337-.857c-.71.202-1.44.325-2.172.366a.461.461 0 1 0 .05.922 10.8 10.8 0 0 0 2.375-.399.594.594 0 0 0 .084-.033"/>
        <g transform="translate(150.901 -2)">
            <mask id="j" fill="#fff">
                <use xlink:href="#i"/>
            </mask>
            <path d="M31.584 6.618L14.248.846 5.92.725.016 2.739l31.568 3.879" mask="url(#j)"/>
        </g>
        <path fill="#69B9F5" d="M182.47 4.78l-30.858-2.124-.71-1.754"/>
        <path fill="#1A9DFF" d="M151.627 7.598l.05.054 2.08 4.344 28.559-7.467-30.69 3.069"/>
        <g transform="translate(145.097 1.627)">
            <mask id="l" fill="#fff">
                <use xlink:href="#k"/>
            </mask>
            <path d="M.505 4.437L4.077.249l33.11 2.729L9.9 7.189.505 4.437" mask="url(#l)"/>
        </g>
        <path fill="#FFF" d="M90.462 76.737c.9-.516 1.777-1.107 2.607-1.753a.436.436 0 0 1 .534.687 23.31 23.31 0 0 1-3.734 2.38.43.43 0 0 1-.585-.189.433.433 0 0 1 .187-.585c.334-.172.664-.352.99-.54M136.803 4.642a79.57 79.57 0 0 1 4.374-.113.435.435 0 1 1 0 .87c-1.56 0-2.975.038-4.326.112a.436.436 0 0 1-.048-.87M129.38 5.977a.436.436 0 0 1 .109-.819 48.047 48.047 0 0 1 4.346-.627.434.434 0 1 1 .086.866c-1.485.148-2.921.355-4.266.616a.431.431 0 0 1-.274-.036M97.212 70.001a.428.428 0 0 1 .606-.104c.197.138.244.41.105.606a24.254 24.254 0 0 1-2.871 3.368.436.436 0 0 1-.615-.008.435.435 0 0 1 .008-.615 23.508 23.508 0 0 0 2.767-3.247M98.891 68.81a.434.434 0 0 1-.17-.591 22.514 22.514 0 0 0 1.705-3.908.435.435 0 1 1 .827.27 23.29 23.29 0 0 1-1.771 4.058.435.435 0 0 1-.572.181l-.019-.01M101.914 61.926a.435.435 0 0 1-.336-.515c.279-1.33.463-2.718.561-4.247a.435.435 0 0 1 .868.055c-.1 1.572-.29 3.001-.578 4.37a.434.434 0 0 1-.515.337M106.419 23.319a33.477 33.477 0 0 0-1.835 3.882.436.436 0 1 1-.808-.32 34.21 34.21 0 0 1 1.881-3.983c.116-.21.363-.308.592-.17.21.115.286.38.17.59M103.415 29.755a31.83 31.83 0 0 0-.983 4.175.434.434 0 1 1-.858-.14c.235-1.436.574-2.88 1.009-4.29a.435.435 0 1 1 .832.255M110.013 17.577a35.438 35.438 0 0 0-2.567 3.446.435.435 0 0 1-.728-.476 36.338 36.338 0 0 1 2.629-3.53.435.435 0 0 1 .666.56M116.759 11.894a.434.434 0 1 1-.491-.719 34.286 34.286 0 0 1 3.788-2.247.436.436 0 0 1 .395.776 33.494 33.494 0 0 0-3.692 2.19M102.312 48.187a.437.437 0 0 1-.464-.404l-.04-.55a208.773 208.773 0 0 1-.24-3.801.435.435 0 1 1 .87-.044c.064 1.261.152 2.523.24 3.785l.038.55a.435.435 0 0 1-.404.464M111.746 16.167a.434.434 0 1 1-.622-.609 36.194 36.194 0 0 1 3.263-2.955.435.435 0 0 1 .543.68 35.158 35.158 0 0 0-3.184 2.884M101.977 50.23a.434.434 0 0 1 .46.41c.098 1.705.142 3.096.139 4.376a.435.435 0 0 1-.871-.003 71.563 71.563 0 0 0-.136-4.324.435.435 0 0 1 .408-.46M87.12 78.55a.435.435 0 0 1 .32.808c-1.285.51-2.656.952-4.19 1.349a.434.434 0 0 1-.53-.312.436.436 0 0 1 .312-.531 34.533 34.533 0 0 0 4.088-1.315M102.164 36.447c.239.02.419.228.4.47a44.917 44.917 0 0 0-.117 4.304.435.435 0 0 1-.87.016 45.25 45.25 0 0 1 .119-4.39.434.434 0 0 1 .468-.4M125.582 6.417c.489-.151.98-.292 1.473-.423a.435.435 0 1 1 .223.842c-.482.127-.96.264-1.438.412-.884.275-1.77.594-2.632.95a.433.433 0 0 1-.567-.236.434.434 0 0 1 .235-.568 31.95 31.95 0 0 1 2.706-.977"/>
        <path fill="#FFC53A" d="M84.723 102.152s19.603-47.36-7.18-73.685c-58.86 26.672-32.467 84.48-32.467 84.48l39.647-10.795"/>
        <path fill="#FFFFFE" d="M76.87 29.311c-.204.093-.404.188-.607.282L67.84 89.395 43.17 60.931c-.167.386-.329.77-.486 1.157l24.948 28.784-2.43 17.257 1.181-.322 4.845-34.4L90.9 63.93a77.14 77.14 0 0 0-.061-1.22l-19.422 9.357 5.95-42.249c-.167-.168-.326-.34-.496-.507"/>
        <path fill="#1A9DFF" d="M74.625 100.84S60.992 37.949 22.942 32.82c-28.625 32.428 2.694 69.846 2.694 69.846l39.656 20.632 9.333-22.456"/>
        <path fill="#FFF" d="M55.96 56.801L44.048 76.086 24.285 33.86c-.276-.065-.55-.135-.828-.196-.113.128-.216.256-.327.384l10.585 22.616-20.214-5.904c-.062.19-.116.38-.175.57l-.148.508 21.173 6.183L51.99 95.71l-35.808-9.23c.185.442.372.878.562 1.307l35.865 9.244 12.527 26.762.67.349.227-1.088-21.414-45.75L56.678 57.78a82.319 82.319 0 0 0-.719-.979"/>
        <path fill="#167DCC" d="M60.442 109.385S24.748 82.872.021 97.353c-.567 22.848 10.425 37.683 24.033 47.28 21.187 14.939 48.838 17.18 72.547 6.696l29.191-12.91-65.35-29.034"/>
        <path fill="#FFF" d="M.845 98.668l47.9 32.317-30.02 9.387c.327.294.657.584.989.87l30.225-9.451 23.558 16.14-.47-1.675-41.274-28.093-4.681-23.449a55.253 55.253 0 0 0-1.196-.236l4.55 22.79L1.407 97.69c-.183.102-.368.2-.551.307-.006.226-.007.448-.01.672z"/>
        <path fill="#FFFFFE" d="M145.469 123.893c-8.068-.06-16.176-2.681-22.992-8.046-.133-.105-.258-.217-.39-.323-.052.165-.114.326-.176.49.09.07.173.147.264.217 6.876 5.412 15.05 8.07 23.189 8.15.032-.163.066-.326.105-.488"/>
        <path fill="#4F9EDB" d="M117.889 167.366c-3.235 6.569-11.183 9.272-17.753 6.038s-9.273-11.18-6.039-17.75 11.183-9.272 17.752-6.038c6.57 3.234 9.274 11.181 6.04 17.75zm-1.854-40.478c-.777.157-2.668 2.533-4.22 5.547a29.475 29.475 0 0 0-8.6-.444c-.844-2.842-2.032-5.75-3.437-6.176-2.85-.863-10.155 2.64-10.852 3.691-.446.674-.082 3.79.997 7.084a29.471 29.471 0 0 0-6.433 5.6c-2.611-1.417-5.52-2.642-6.818-1.948-2.626 1.405-5.314 9.047-5.063 10.284.157.775 2.519 2.656 5.52 4.204a29.435 29.435 0 0 0-.722 8.707c-2.742.838-5.46 1.99-5.87 3.344-.864 2.85 2.64 10.154 3.691 10.851.627.415 3.366.13 6.397-.78a29.467 29.467 0 0 0 5.873 7.002c-1.226 2.388-2.158 4.862-1.533 6.03 1.406 2.626 9.048 5.313 10.285 5.062.697-.14 2.288-2.064 3.727-4.631a29.447 29.447 0 0 0 9.477.743c.806 2.406 1.849 4.596 3.053 4.96 2.85.864 10.156-2.64 10.853-3.691.384-.579.167-2.965-.587-5.716a29.454 29.454 0 0 0 7.192-6.359c2.266 1.127 4.542 1.931 5.648 1.34 2.627-1.406 5.314-9.047 5.063-10.284-.141-.699-2.074-2.295-4.65-3.737.653-3.117.778-6.274.43-9.356 2.536-.819 4.912-1.903 5.293-3.162.863-2.85-2.64-10.154-3.692-10.85-.63-.418-3.393-.127-6.441.794a29.424 29.424 0 0 0-6.049-6.595c1.332-2.513 2.415-5.215 1.752-6.452-1.405-2.626-9.047-5.313-10.284-5.062z"/>
        <path fill="#FFFFFE" d="M87.104 158.735a18.368 18.368 0 0 0 .801 8.591 18.337 18.337 0 0 0 9.324 10.616 18.344 18.344 0 0 0 14.099.914 18.335 18.335 0 0 0 10.616-9.322 18.335 18.335 0 0 0 .915-14.097 18.333 18.333 0 0 0-9.323-10.615 18.342 18.342 0 0 0-14.099-.915 18.34 18.34 0 0 0-10.617 9.321 18.494 18.494 0 0 0-1.716 5.507zm37.102 5.372a19.038 19.038 0 0 1-1.768 5.67 18.884 18.884 0 0 1-10.933 9.6 18.883 18.883 0 0 1-14.52-.942 18.881 18.881 0 0 1-9.6-10.932 18.88 18.88 0 0 1 .942-14.517 18.885 18.885 0 0 1 10.932-9.6 18.889 18.889 0 0 1 14.52.942 18.884 18.884 0 0 1 9.601 10.931 18.922 18.922 0 0 1 .826 8.848z"/>
        <path fill="#FFFFFE" d="M112.424 134.384c-.068.106-.137.21-.21.312 1.88.459 3.738 1.12 5.543 2.009 13.384 6.588 18.912 22.834 12.323 36.215-4.315 8.762-12.77 14.156-21.851 14.986v.004c-.03.12-.065.24-.102.358 9.249-.8 17.876-6.274 22.268-15.193 6.674-13.554 1.075-30.012-12.482-36.686a27.395 27.395 0 0 0-5.49-2.005M79.287 166.607a26.905 26.905 0 0 1 2.22-17.341c.055-.11.115-.214.17-.322-.124-.013-.247-.032-.37-.052-.037.074-.078.144-.115.218a27.254 27.254 0 0 0-2.264 17.496c.12-.003.24-.002.36.001"/>
        <path fill="#FFB48C" d="M238.045 142.51l-44.558-39.328h-77.41v34.645l9.678.622 8.115 3.434 45.57 27.151 11.831 7.184c1.548 1.35 4.189.474 5.417-.93l1.202-1.382c1.226-1.406 1.197-3.436-.35-4.786l-10.23-8.915 1.307-1.464 13.692 11.932c2.209 1.926 5.082 1.568 6.83-.437l1.715-1.967c1.75-2.005 1.709-4.9-.499-6.825l-13.59-11.843 1.146-1.287 17.875 15.58c2.422 2.109 5.571 1.719 7.486-.479l1.88-2.155c1.915-2.198 1.872-5.372-.548-7.48l-17.764-15.482 1.39-1.557 19.801 17.255c2.497 2.177 5.909 1.59 8.085-.906l2.135-2.45c2.175-2.495 2.293-5.955-.206-8.13"/>
        <path fill="#FFA185" d="M250.647 145.503l-1.56-38.076h-18.728l-31.245-10.61s-39.017-.367-39.728 0c0 0-.523 3.645-.504 5.464l.659 3.247c2.581 4.863 6.62 5.972 9.933 5.935l23.365-.31c1.392-.016 7.034-.51 8.043-1.317l39.372 35.667h10.393M166.874 165.459c-1.472 2.11-4.609 2.468-7.007.795-2.401-1.671-3.155-4.738-1.685-6.848l5.189-7.45c1.471-2.111 4.336-2.074 6.735-.402 2.401 1.67 3.428 4.346 1.958 6.456l-5.19 7.449M157 157.97c-1.752 2.513-5.118 3.196-7.52 1.526-2.398-1.673-2.923-5.066-1.171-7.579l6.184-8.877c1.75-2.514 4.792-2.732 7.191-1.061 2.402 1.669 3.25 4.6 1.498 7.115L157 157.971M145.679 150.953c-1.559 2.048-4.708 2.274-7.037.503-2.327-1.773-2.951-4.868-1.392-6.914l5.495-7.224c1.559-2.048 4.42-1.892 6.748-.122 2.328 1.772 3.24 4.486 1.682 6.534l-5.496 7.223M176.834 171.526c-1.214 1.742-3.805 2.034-5.784.656-1.984-1.381-2.605-3.91-1.39-5.655l4.284-6.149c1.212-1.743 3.578-1.713 5.56-.332 1.98 1.38 2.828 3.587 1.614 5.33l-4.284 6.15"/>
        <path fill="#3A8FD1" d="M283.031 90.581l-49.424 16.067 13.807 42.466 66.718-21.69V113.17c0-16.138-15.752-27.579-31.1-22.589"/>
        <path fill="#146EB4" d="M312.06 103.908c-15.313 4.732-71.198 23.883-71.198 23.883l6.827 20.999 66.638-21.665s1.901-21.15-2.267-23.217"/>
        <g transform="translate(232.156 100.28)">
            <mask id="n" fill="#fff">
                <use xlink:href="#m"/>
            </mask>
            <path fill="#FFF" d="M17.325.218l14.48 43.721-16.814 5.223L.509 5.439 17.325.219" mask="url(#n)"/>
        </g>
        <path fill="#146EB4" d="M252.23 136.689a2.805 2.805 0 0 1 3.535 1.798 2.803 2.803 0 0 1-1.801 3.531 2.8 2.8 0 0 1-3.533-1.797 2.804 2.804 0 0 1 1.8-3.532"/>
        <path fill="#F5992A" d="M142.191 102.976l-13.808 42.464-66.717-21.688v-14.088c0-16.22 15.832-27.719 31.26-22.704l49.265 16.016z"/>
        <path fill="#F58A07" d="M63.396 101.732c6.402 1.38 71.845 23.598 71.845 23.598l-6.829 20.996-66.636-21.664s-.738-21.655 1.62-22.93"/>
        <g transform="translate(111.725 96.654)">
            <mask id="p" fill="#fff">
                <use xlink:href="#o"/>
            </mask>
            <path fill="#FFF" d="M14.038.69L.313 44.41l16.06 5.222 13.725-43.72L14.038.69" mask="url(#p)"/>
        </g>
    </g>
</svg>
