<svg xmlns="http://www.w3.org/2000/svg" width="404" height="85" viewBox="0 0 404 85">
    <g fill="none" fill-rule="evenodd">
        <g fill-rule="nonzero">
            <path fill="#145F9A" d="M39.31 16.929L20.927 35.185c-1.911 1.885-1.72 5.043.2 6.92L47.544 68.41l-9.71 9.801L1.364 41.97c-2.074-2.06-1.585-4.93.14-6.644L36.023 1.044c3.556-2.468 7.587 0 7.587 1.708l-3.726 12.576a1.963 1.963 0 0 1-.573 1.6z"/>
            <path fill="#156FB4" d="M44.228 16.929l-18.39 18.256c-1.91 1.885-1.719 5.043.201 6.92L52.456 68.41l-9.71 9.801L6.276 41.97c-2.073-2.06-1.585-4.93.14-6.644l33.93-33.722c1.14-1.128 3.09-.447 3.263 1.15l1.192 12.57a1.963 1.963 0 0 1-.573 1.606z"/>
            <path fill="#CF7506" d="M37.175 32.179c-.06.06-2.038 2.036-2.966 2.957-2.499 2.483-2.101 4.691-.14 6.644.311.308 3.021 3.066 3.953 3.992l4.381 4.353c1.9 1.887 1.828 3.476-.152 5.449l-3.14 3.113-9.834 9.77c-2.098 2.14-3.284 3.348-3.557 3.622-.41.412-3.157 3.175-5.052 5.205-1.896 2.03-.447 6.857 3.226 6.857l7.192-.497c1.285.136 2.655-.293 3.566-1.205l26.625-26.453c1.91-2.315 1.66-4.728-.718-7.091l-2.506-2.485-4.64-4.627c-1.75-1.738-1.76-4.755.14-6.643l.976-.98 1.36-1.357a1.89 1.89 0 0 0 .556-1.578l2.111-12.567c-.395-2.621-4.712-3.227-6.38-1.568L40.112 29.262c-.008.007-.617.614-.625.62l-2.312 2.297z"/>
            <path fill="#F58A07" d="M40.93 32.463c-.06.06-2.04 2.036-2.967 2.958-2.499 2.483-2.101 4.691-.14 6.643.311.309 3.021 3.067 3.953 3.992l4.381 4.354c1.9 1.886 1.828 3.476-.151 5.448l-3.14 3.113-9.835 9.771-5.365 5.324c-.231.225-2.92 2.893-5.231 5.19-1.32 1.31-.668 4.689 1.191 4.885l11.214.043c1.285.136 2.655-.552 3.567-1.464L65.03 56.27c1.91-2.315 1.66-4.727-.718-7.09l-2.509-2.485-4.64-4.627c-1.75-1.739-1.76-4.756.14-6.643l.976-.98 1.36-1.357c.422-.412.629-.995.56-1.578l-1.581-12.528c-.198-1.567-2.048-2.131-3.172-1.014L43.866 29.547l-.625.62-2.312 2.296z"/>
        </g>
        <path fill="#146FB4" d="M82.23 25.172v9.99h17.496v7.02H82.23v13.77h-8.748v-37.8h28.566v7.02H82.23zm24.624 1.728h8.424v29.052h-8.424V26.9zm4.212-4.05c-1.548 0-2.808-.45-3.78-1.35-.972-.9-1.458-2.016-1.458-3.348 0-1.332.486-2.448 1.458-3.348.972-.9 2.232-1.35 3.78-1.35 1.548 0 2.808.432 3.78 1.296.972.864 1.458 1.944 1.458 3.24 0 1.404-.486 2.565-1.458 3.483-.972.918-2.232 1.377-3.78 1.377zm20.088 7.884c1.008-1.404 2.367-2.466 4.077-3.186 1.71-.72 3.681-1.08 5.913-1.08v7.776c-.936-.072-1.566-.108-1.89-.108-2.412 0-4.302.675-5.67 2.025-1.368 1.35-2.052 3.375-2.052 6.075v13.716h-8.424V26.9h8.046v3.834zm24.894 25.65c-2.412 0-4.77-.297-7.074-.891-2.304-.594-4.14-1.341-5.508-2.241l2.808-6.048c1.296.828 2.862 1.503 4.698 2.025 1.836.522 3.636.783 5.4.783 3.564 0 5.346-.882 5.346-2.646 0-.828-.486-1.422-1.458-1.782-.972-.36-2.466-.666-4.482-.918-2.376-.36-4.338-.774-5.886-1.242a9.132 9.132 0 0 1-4.023-2.484c-1.134-1.188-1.701-2.88-1.701-5.076 0-1.836.531-3.465 1.593-4.887 1.062-1.422 2.61-2.529 4.644-3.321 2.034-.792 4.437-1.188 7.209-1.188 2.052 0 4.095.225 6.129.675 2.034.45 3.717 1.071 5.049 1.863L165.984 35c-2.556-1.44-5.346-2.16-8.37-2.16-1.8 0-3.15.252-4.05.756-.9.504-1.35 1.152-1.35 1.944 0 .9.486 1.53 1.458 1.89.972.36 2.52.702 4.644 1.026 2.376.396 4.32.819 5.832 1.269 1.512.45 2.826 1.269 3.942 2.457s1.674 2.844 1.674 4.968c0 1.8-.54 3.402-1.62 4.806s-2.655 2.493-4.725 3.267-4.527 1.161-7.371 1.161zm37.638-1.836c-.828.612-1.845 1.071-3.051 1.377a15.425 15.425 0 0 1-3.807.459c-3.456 0-6.129-.882-8.019-2.646-1.89-1.764-2.835-4.356-2.835-7.776V34.028h-4.482v-6.48h4.482v-7.074h8.424v7.074h7.236v6.48h-7.236v11.826c0 1.224.315 2.169.945 2.835.63.666 1.521.999 2.673.999 1.332 0 2.466-.36 3.402-1.08l2.268 5.94zm33.048 2.052c-2.988 0-5.877-.405-8.667-1.215s-5.031-1.863-6.723-3.159l2.97-6.588c1.62 1.188 3.546 2.142 5.778 2.862 2.232.72 4.464 1.08 6.696 1.08 2.484 0 4.32-.369 5.508-1.107 1.188-.738 1.782-1.719 1.782-2.943 0-.9-.351-1.647-1.053-2.241-.702-.594-1.602-1.071-2.7-1.431-1.098-.36-2.583-.756-4.455-1.188-2.88-.684-5.238-1.368-7.074-2.052-1.836-.684-3.411-1.782-4.725-3.294-1.314-1.512-1.971-3.528-1.971-6.048 0-2.196.594-4.185 1.782-5.967 1.188-1.782 2.979-3.195 5.373-4.239s5.319-1.566 8.775-1.566c2.412 0 4.77.288 7.074.864 2.304.576 4.32 1.404 6.048 2.484l-2.7 6.642c-3.492-1.98-6.984-2.97-10.476-2.97-2.448 0-4.257.396-5.427 1.188-1.17.792-1.755 1.836-1.755 3.132s.675 2.259 2.025 2.889c1.35.63 3.411 1.251 6.183 1.863 2.88.684 5.238 1.368 7.074 2.052a11.714 11.714 0 0 1 4.725 3.24c1.314 1.476 1.971 3.474 1.971 5.994 0 2.16-.603 4.131-1.809 5.913s-3.015 3.195-5.427 4.239c-2.412 1.044-5.346 1.566-8.802 1.566zm35.262-.216c-3.06 0-5.805-.639-8.235-1.917-2.43-1.278-4.329-3.051-5.697-5.319-1.368-2.268-2.052-4.842-2.052-7.722 0-2.88.684-5.454 2.052-7.722 1.368-2.268 3.267-4.041 5.697-5.319 2.43-1.278 5.175-1.917 8.235-1.917 3.06 0 5.796.639 8.208 1.917s4.302 3.051 5.67 5.319c1.368 2.268 2.052 4.842 2.052 7.722 0 2.88-.684 5.454-2.052 7.722-1.368 2.268-3.258 4.041-5.67 5.319-2.412 1.278-5.148 1.917-8.208 1.917zm0-6.912c2.16 0 3.933-.729 5.319-2.187 1.386-1.458 2.079-3.411 2.079-5.859s-.693-4.401-2.079-5.859c-1.386-1.458-3.159-2.187-5.319-2.187s-3.942.729-5.346 2.187c-1.404 1.458-2.106 3.411-2.106 5.859s.702 4.401 2.106 5.859c1.404 1.458 3.186 2.187 5.346 2.187zM312.81 26.9v29.052h-7.992v-3.456a11.172 11.172 0 0 1-3.996 2.889c-1.548.666-3.222.999-5.022.999-3.816 0-6.84-1.098-9.072-3.294-2.232-2.196-3.348-5.454-3.348-9.774V26.9h8.424v15.174c0 4.68 1.962 7.02 5.886 7.02 2.016 0 3.636-.657 4.86-1.971 1.224-1.314 1.836-3.267 1.836-5.859V26.9h8.424zm15.876 3.834c1.008-1.404 2.367-2.466 4.077-3.186 1.71-.72 3.681-1.08 5.913-1.08v7.776c-.936-.072-1.566-.108-1.89-.108-2.412 0-4.302.675-5.67 2.025-1.368 1.35-2.052 3.375-2.052 6.075v13.716h-8.424V26.9h8.046v3.834zm28.782 25.65c-3.096 0-5.877-.639-8.343-1.917s-4.392-3.051-5.778-5.319c-1.386-2.268-2.079-4.842-2.079-7.722 0-2.88.693-5.454 2.079-7.722 1.386-2.268 3.312-4.041 5.778-5.319 2.466-1.278 5.247-1.917 8.343-1.917 3.06 0 5.733.639 8.019 1.917 2.286 1.278 3.951 3.105 4.995 5.481l-6.534 3.51c-1.512-2.664-3.69-3.996-6.534-3.996-2.196 0-4.014.72-5.454 2.16-1.44 1.44-2.16 3.402-2.16 5.886s.72 4.446 2.16 5.886c1.44 1.44 3.258 2.16 5.454 2.16 2.88 0 5.058-1.332 6.534-3.996l6.534 3.564c-1.044 2.304-2.709 4.104-4.995 5.4-2.286 1.296-4.959 1.944-8.019 1.944zm45.954-14.85c0 .108-.054.864-.162 2.268h-21.978c.396 1.8 1.332 3.222 2.808 4.266 1.476 1.044 3.312 1.566 5.508 1.566 1.512 0 2.853-.225 4.023-.675 1.17-.45 2.259-1.161 3.267-2.133l4.482 4.86c-2.736 3.132-6.732 4.698-11.988 4.698-3.276 0-6.174-.639-8.694-1.917-2.52-1.278-4.464-3.051-5.832-5.319-1.368-2.268-2.052-4.842-2.052-7.722 0-2.844.675-5.409 2.025-7.695 1.35-2.286 3.204-4.068 5.562-5.346 2.358-1.278 4.995-1.917 7.911-1.917 2.844 0 5.418.612 7.722 1.836 2.304 1.224 4.113 2.979 5.427 5.265 1.314 2.286 1.971 4.941 1.971 7.965zm-15.066-8.694c-1.908 0-3.51.54-4.806 1.62-1.296 1.08-2.088 2.556-2.376 4.428h14.31c-.288-1.836-1.08-3.303-2.376-4.401-1.296-1.098-2.88-1.647-4.752-1.647z"/>
        <text fill="#F58A07" font-family="Gotham-MediumItalic, Gotham" font-size="18" font-style="italic" font-weight="500" letter-spacing=".4" transform="translate(73 12.952)">
            <tspan x="0" y="67.048">talent, technology, without border</tspan> <tspan x="322.642" y="67.048">s</tspan>
        </text>
    </g>
</svg>
