<svg xmlns="http://www.w3.org/2000/svg" width="175" height="56" viewBox="0 0 175 56">
    <g fill="none" fill-rule="evenodd">
        <g fill-rule="nonzero">
            <path fill="#145F9A" d="M26.109 11.257l-12.21 12.14c-1.27 1.252-1.142 3.352.133 4.6l17.546 17.491-6.45 6.518-24.222-24.1c-1.377-1.37-1.053-3.277.093-4.417L23.925.694c2.361-1.64 5.039 0 5.039 1.136l-2.475 8.362c.042.394-.098.785-.38 1.065z"/>
            <path fill="#156FB4" d="M29.375 11.257L17.16 23.397c-1.269 1.252-1.142 3.352.133 4.6L34.84 45.488l-6.45 6.518-24.221-24.1c-1.377-1.37-1.053-3.277.093-4.417L26.797 1.066c.756-.75 2.053-.297 2.167.764l.792 8.359c.042.395-.098.787-.381 1.068z"/>
            <path fill="#CF7506" d="M24.69 21.397c-.04.04-1.353 1.353-1.97 1.966-1.659 1.651-1.395 3.12-.092 4.418.206.205 2.006 2.039 2.625 2.654l2.91 2.895c1.261 1.255 1.214 2.312-.1 3.623l-2.086 2.07-6.532 6.497-3.027 3.006c-.153.15.227-.23-1.309 1.297-1.61 1.6-1.544 5.058.836 5.374l4.701.42c.854.092 1.764-.194 2.37-.8l17.683-17.59c1.268-1.54 1.102-3.144-.478-4.715l-1.664-1.652-3.082-3.077c-1.162-1.156-1.169-3.162.093-4.417l.649-.651.903-.903c.28-.274.416-.662.37-1.05l1.402-8.356c-.263-1.743-3.13-2.145-4.238-1.042l-8.013 8.093-.415.413-1.535 1.527z"/>
            <path fill="#F58A07" d="M27.184 21.586c-.04.04-1.354 1.354-1.97 1.967-1.66 1.65-1.396 3.119-.093 4.417.207.205 2.007 2.04 2.625 2.654l2.91 2.895c1.262 1.255 1.214 2.312-.1 3.623l-2.086 2.07-6.531 6.497-3.564 3.54c-.154.15-1.939 1.924-3.474 3.45-.877.873-.347 2.367.888 2.498l7.35.78c.855.09 1.764-.367 2.37-.973l17.683-17.588c1.269-1.539 1.103-3.143-.477-4.715l-1.666-1.652-3.082-3.076c-1.162-1.156-1.17-3.163.093-4.418l.648-.651.903-.903c.28-.273.418-.66.372-1.05l-1.05-8.33c-.131-1.041-1.36-1.416-2.107-.673l-7.692 7.699-.414.413-1.536 1.526z"/>
        </g>
        <path fill="#146EB4" d="M61 35.662V20.067h9.83v3.119h-6.745v2.851h6.15v3.12h-6.15v6.505H61zm11.495 0v-11.14h2.887v11.14h-2.887zm-.096-14.058c0-.475.144-.861.43-1.158.287-.297.672-.446 1.157-.446.47 0 .852.149 1.146.446.294.297.441.683.441 1.158 0 .475-.147.861-.44 1.158-.295.298-.677.446-1.147.446-.485 0-.87-.148-1.157-.446-.286-.297-.43-.683-.43-1.158zm12.704 6.037a12.355 12.355 0 0 0-1.036-.356c-.309-.09-.544-.134-.705-.134-.25 0-.496.049-.738.145-.243.097-.46.22-.65.368a2.064 2.064 0 0 0-.463.49c-.118.178-.177.341-.177.49v7.018h-2.909v-11.14h2.91v.38c.646-.372 1.417-.558 2.313-.558.22 0 .53.03.926.09.397.059.83.155 1.3.289l-.771 2.918zm7.605.401a3.835 3.835 0 0 0-.837-.78 1.792 1.792 0 0 0-1.036-.334c-.353 0-.606.082-.76.246-.155.163-.232.319-.232.467 0 .208.158.383.474.524.316.141.687.278 1.113.412.396.134.8.282 1.212.446.411.163.786.378 1.124.646.338.267.613.601.826 1.002.213.401.32.914.32 1.537 0 .565-.11 1.066-.33 1.504a3.31 3.31 0 0 1-.904 1.114 4.188 4.188 0 0 1-1.323.702c-.5.163-1.035.245-1.608.245-.838 0-1.624-.2-2.359-.602-.734-.4-1.476-1.032-2.225-1.893l1.961-2.028c.411.565.86.996 1.344 1.293.485.297.933.445 1.345.445.411 0 .716-.056.914-.167.199-.111.298-.249.298-.412 0-.282-.173-.501-.518-.657a11.906 11.906 0 0 0-1.201-.457c-.382-.119-.772-.26-1.168-.423a4.365 4.365 0 0 1-1.08-.635 3.053 3.053 0 0 1-.794-.98c-.205-.394-.308-.888-.308-1.482 0-1.099.364-1.942 1.09-2.529.728-.586 1.665-.88 2.81-.88.397 0 .78.03 1.147.09.367.059.723.167 1.069.323.345.156.69.375 1.035.657.346.282.695.646 1.047 1.091l-2.05 2.006-.396-.49zm4.876-.78h-.86v-2.784h.86V21.87h2.91v2.607h1.652v2.785h-1.653v4.032c0 .446.03.85.088 1.214.059.364.199.56.419.59.03 0 .084.008.165.023s.184.015.309 0 .257-.052.397-.112c.14-.059.29-.148.451-.267l.397 2.763a2.33 2.33 0 0 1-.97.233c-.338.008-.61.012-.815.012-.661 0-1.205-.12-1.631-.357a2.806 2.806 0 0 1-1.025-.969 4.072 4.072 0 0 1-.54-1.415 8.83 8.83 0 0 1-.154-1.67v-4.077zm20.953-3.03c-.338-.43-.727-.723-1.168-.88a4.476 4.476 0 0 0-1.498-.233c-.676 0-1.205.115-1.587.345-.382.23-.573.516-.573.858 0 .193.095.375.286.546.191.17.43.33.716.479.287.148.603.293.948.434.345.141.68.271 1.003.39h-.022c.426.149.91.345 1.454.59a7.257 7.257 0 0 1 1.532.936 5.2 5.2 0 0 1 1.212 1.381c.33.542.496 1.185.496 1.927 0 .773-.143 1.456-.43 2.05a4.205 4.205 0 0 1-1.19 1.493 5.358 5.358 0 0 1-1.785.913 7.573 7.573 0 0 1-2.215.312 6.725 6.725 0 0 1-3.162-.791c-1.007-.527-2.017-1.363-3.03-2.506l2.534-2.094c.543.772 1.12 1.336 1.73 1.693.61.356 1.26.534 1.95.534.735 0 1.337-.122 1.807-.367s.706-.56.706-.947c0-.282-.1-.531-.298-.746a3.279 3.279 0 0 0-.75-.59 5.84 5.84 0 0 0-1.013-.469 65.33 65.33 0 0 0-1.09-.378l-.442-.178c-.5-.179-.991-.372-1.476-.58a5.064 5.064 0 0 1-1.311-.813 3.864 3.864 0 0 1-.948-1.236c-.243-.49-.364-1.1-.364-1.827 0-.58.1-1.14.298-1.682.198-.542.51-1.017.936-1.426.426-.408.97-.739 1.631-.991.661-.253 1.462-.379 2.402-.379 1.058 0 2.061.223 3.009.668.947.446 1.899 1.248 2.854 2.406l-2.513 1.76-.639-.601zm11.46 5.905c0-.446-.04-.854-.121-1.226-.08-.371-.21-.69-.386-.958a1.914 1.914 0 0 0-.694-.635c-.286-.156-.635-.234-1.047-.234-.793 0-1.359.283-1.697.847-.338.564-.507 1.292-.507 2.183 0 .431.04.832.122 1.203.08.372.209.695.385.97.177.274.404.49.684.645.279.156.617.234 1.013.234.808 0 1.385-.286 1.73-.857.346-.572.518-1.296.518-2.172zm2.975.022c0 .787-.106 1.522-.32 2.205a5.087 5.087 0 0 1-.969 1.794 4.471 4.471 0 0 1-1.63 1.203c-.654.29-1.422.434-2.304.434-.867 0-1.623-.148-2.27-.445a4.5 4.5 0 0 1-1.608-1.215 5.3 5.3 0 0 1-.97-1.815 7.358 7.358 0 0 1-.33-2.228c0-.802.11-1.548.33-2.239.22-.69.543-1.292.97-1.804a4.39 4.39 0 0 1 1.608-1.204c.647-.29 1.403-.434 2.27-.434.882 0 1.65.149 2.303.446a4.524 4.524 0 0 1 1.631 1.225c.434.52.757 1.129.97 1.827.213.698.32 1.448.32 2.25zm4.48-5.637v6.862c0 .55.18.958.54 1.225.36.268.782.401 1.267.401.544 0 .98-.092 1.311-.278.33-.186.599-.427.805-.724v-7.486h2.909v11.14h-2.843v-.312c-.676.297-1.506.445-2.49.445-.618 0-1.194-.089-1.73-.267a4.002 4.002 0 0 1-1.4-.791 3.691 3.691 0 0 1-.937-1.292c-.227-.513-.341-1.11-.341-1.794v-7.129h2.909zm15.768 3.12a12.355 12.355 0 0 0-1.035-.357c-.309-.09-.544-.134-.706-.134-.25 0-.496.049-.738.145-.242.097-.46.22-.65.368a2.064 2.064 0 0 0-.463.49c-.117.178-.176.341-.176.49v7.018h-2.91v-11.14h2.91v.38c.646-.372 1.418-.558 2.314-.558.22 0 .529.03.925.09.397.059.83.155 1.3.289l-.77 2.918zm10.138 6.37c-.5.52-1.069.937-1.708 1.249-.639.311-1.443.467-2.413.467-.911 0-1.693-.16-2.347-.479a4.698 4.698 0 0 1-1.62-1.27 5.276 5.276 0 0 1-.948-1.815 7.301 7.301 0 0 1-.308-2.117c0-.787.11-1.526.33-2.216.22-.69.551-1.292.992-1.805.44-.512.984-.913 1.63-1.203.647-.29 1.397-.434 2.249-.434.896 0 1.719.215 2.468.646.75.43 1.455 1.01 2.116 1.738l-2.006 1.96a7.342 7.342 0 0 0-1.267-1.147c-.419-.29-.841-.435-1.267-.435-.426 0-.786.078-1.08.234a2.125 2.125 0 0 0-.727.624c-.191.26-.327.56-.408.902-.08.342-.121.706-.121 1.092 0 .386.044.757.132 1.114.088.356.228.672.419.947.19.274.437.497.738.668.301.17.658.256 1.069.256.426 0 .87-.13 1.333-.39.463-.26.937-.672 1.422-1.236l1.807 1.983-.485.668zm11.201-.278a5.228 5.228 0 0 1-1.796 1.326c-.683.304-1.502.457-2.457.457-.896 0-1.675-.153-2.336-.457a4.72 4.72 0 0 1-1.653-1.236 5.286 5.286 0 0 1-.992-1.783 6.715 6.715 0 0 1-.33-2.116c0-.98.132-1.83.396-2.55.265-.721.628-1.32 1.091-1.794.463-.476 1-.828 1.609-1.059.61-.23 1.26-.345 1.95-.345 1.646 0 2.884.568 3.714 1.704.83 1.137 1.245 2.789 1.245 4.957h-6.986c.147.624.426 1.103.837 1.437.412.334.926.501 1.543.501.426 0 .867-.118 1.322-.356.456-.238.926-.631 1.41-1.18L175 33.221l-.44.512zm-4.192-6.772c-.538 0-.957.11-1.256.329-.3.219-.523.533-.673.94h3.88a1.75 1.75 0 0 0-.672-.918c-.33-.234-.755-.351-1.279-.351z"/>
    </g>
</svg>
