<svg xmlns="http://www.w3.org/2000/svg" width="50" height="64" viewBox="0 0 50 64">
    <g fill="none" fill-rule="nonzero">
        <path fill="#145F9A" d="M29.606 12.832L15.76 26.672c-1.438 1.428-1.295 3.822.152 5.244l19.895 19.94-7.313 7.43L1.027 31.813c-1.562-1.562-1.193-3.737.106-5.036L27.13.791c2.678-1.87 5.714 0 5.714 1.295l-2.806 9.533c.047.449-.111.895-.431 1.213z"/>
        <path fill="#156FB4" d="M33.31 12.832l-13.85 13.84c-1.44 1.428-1.295 3.822.15 5.244l19.896 19.94-7.312 7.43L4.727 31.813c-1.562-1.562-1.194-3.737.105-5.036L30.386 1.215c.858-.855 2.328-.339 2.457.871l.898 9.53c.048.45-.11.897-.432 1.216z"/>
        <path fill="#CF7506" d="M27.998 24.392c-.045.045-1.535 1.543-2.234 2.242-1.882 1.882-1.583 3.556-.106 5.036.235.234 2.276 2.324 2.977 3.026l3.3 3.3c1.43 1.43 1.377 2.635-.114 4.13l-2.365 2.36-7.406 7.406-3.433 3.427c-.174.17.257-.263-1.484 1.478-1.825 1.825-1.751 5.767.948 6.127l5.33.48c.969.103 2-.222 2.687-.913L46.15 42.438c1.438-1.755 1.25-3.583-.541-5.375l-1.887-1.883-3.495-3.507c-1.318-1.318-1.326-3.605.105-5.036l.736-.743 1.023-1.029c.318-.312.473-.754.42-1.196l1.59-9.526c-.298-1.987-3.55-2.446-4.805-1.188l-9.087 9.226c-.005.005-.464.466-.47.47l-1.741 1.741z"/>
        <path fill="#F58A07" d="M30.825 24.608c-.045.045-1.535 1.543-2.234 2.242-1.882 1.882-1.582 3.556-.105 5.036.234.233 2.275 2.324 2.977 3.026l3.3 3.3c1.43 1.43 1.376 2.635-.115 4.13l-2.365 2.36-7.406 7.406-4.041 4.035c-.174.17-2.199 2.194-3.94 3.934-.994.994-.393 2.698 1.008 2.847l8.335.889c.968.104 2-.418 2.686-1.11l20.052-20.049c1.439-1.755 1.25-3.583-.541-5.375l-1.89-1.883-3.494-3.508c-1.317-1.317-1.325-3.605.106-5.035l.735-.743 1.024-1.029c.318-.312.473-.754.421-1.196l-1.19-9.497c-.15-1.187-1.542-1.615-2.389-.768l-8.722 8.777-.47.47-1.742 1.74z"/>
    </g>
</svg>
