<svg xmlns="http://www.w3.org/2000/svg" width="404" height="85" viewBox="0 0 404 85">
    <g fill="none" fill-rule="nonzero">
        <path fill="#FFF" d="M0 0h404v85H0z"/>
        <path fill="#145F9A" d="M39.31 16.929L20.927 35.185c-1.911 1.885-1.72 5.043.2 6.92L47.544 68.41l-9.71 9.801L1.364 41.97c-2.074-2.06-1.585-4.93.14-6.644L36.023 1.044c3.556-2.468 7.587 0 7.587 1.708l-3.726 12.576a1.963 1.963 0 0 1-.573 1.6z"/>
        <path fill="#156FB4" d="M44.228 16.929l-18.39 18.256c-1.91 1.885-1.719 5.043.201 6.92L52.456 68.41l-9.71 9.801L6.276 41.97c-2.073-2.06-1.585-4.93.14-6.644l33.93-33.722c1.14-1.128 3.09-.447 3.263 1.15l1.192 12.57a1.963 1.963 0 0 1-.573 1.606z"/>
        <path fill="#CF7506" d="M37.175 32.179c-.06.06-2.038 2.036-2.966 2.957-2.499 2.483-2.101 4.691-.14 6.644.311.308 3.021 3.066 3.953 3.992l4.381 4.353c1.9 1.887 1.828 3.476-.152 5.449l-3.14 3.113-9.834 9.77c-2.098 2.14-3.284 3.348-3.557 3.622-.41.412-3.157 3.175-5.052 5.205-1.896 2.03-.447 6.857 3.226 6.857l7.192-.497c1.285.136 2.655-.293 3.566-1.205l26.625-26.453c1.91-2.315 1.66-4.728-.718-7.091l-2.506-2.485-4.64-4.627c-1.75-1.738-1.76-4.755.14-6.643l.976-.98 1.36-1.357a1.89 1.89 0 0 0 .556-1.578l2.111-12.567c-.395-2.621-4.712-3.227-6.38-1.568L40.112 29.262c-.008.007-.617.614-.625.62l-2.312 2.297z"/>
        <path fill="#F58A07" d="M40.93 32.463c-.06.06-2.04 2.036-2.967 2.958-2.499 2.483-2.101 4.691-.14 6.643.311.309 3.021 3.067 3.953 3.992l4.381 4.354c1.9 1.886 1.828 3.476-.151 5.448l-3.14 3.113-9.835 9.771-5.365 5.324c-.231.225-2.92 2.893-5.231 5.19-1.32 1.31-.668 4.689 1.191 4.885l11.214.043c1.285.136 2.655-.552 3.567-1.464L65.03 56.27c1.91-2.315 1.66-4.727-.718-7.09l-2.509-2.485-4.64-4.627c-1.75-1.739-1.76-4.756.14-6.643l.976-.98 1.36-1.357c.422-.412.629-.995.56-1.578l-1.581-12.528c-.198-1.567-2.048-2.131-3.172-1.014L43.866 29.547l-.625.62-2.312 2.296z"/>
        <g>
            <path fill="#146FB4" d="M82.23 25.172v9.99h17.496v7.02H82.23v13.77h-8.748v-37.8h28.566v7.02H82.23zm24.624 1.728h8.424v29.052h-8.424V26.9zm4.212-4.05c-1.548 0-2.808-.45-3.78-1.35-.972-.9-1.458-2.016-1.458-3.348 0-1.332.486-2.448 1.458-3.348.972-.9 2.232-1.35 3.78-1.35 1.548 0 2.808.432 3.78 1.296.972.864 1.458 1.944 1.458 3.24 0 1.404-.486 2.565-1.458 3.483-.972.918-2.232 1.377-3.78 1.377zm20.088 7.884c1.008-1.404 2.367-2.466 4.077-3.186 1.71-.72 3.681-1.08 5.913-1.08v7.776c-.936-.072-1.566-.108-1.89-.108-2.412 0-4.302.675-5.67 2.025-1.368 1.35-2.052 3.375-2.052 6.075v13.716h-8.424V26.9h8.046v3.834zm24.894 25.65c-2.412 0-4.77-.297-7.074-.891-2.304-.594-4.14-1.341-5.508-2.241l2.808-6.048c1.296.828 2.862 1.503 4.698 2.025 1.836.522 3.636.783 5.4.783 3.564 0 5.346-.882 5.346-2.646 0-.828-.486-1.422-1.458-1.782-.972-.36-2.466-.666-4.482-.918-2.376-.36-4.338-.774-5.886-1.242a9.132 9.132 0 0 1-4.023-2.484c-1.134-1.188-1.701-2.88-1.701-5.076 0-1.836.531-3.465 1.593-4.887 1.062-1.422 2.61-2.529 4.644-3.321 2.034-.792 4.437-1.188 7.209-1.188 2.052 0 4.095.225 6.129.675 2.034.45 3.717 1.071 5.049 1.863L165.984 35c-2.556-1.44-5.346-2.16-8.37-2.16-1.8 0-3.15.252-4.05.756-.9.504-1.35 1.152-1.35 1.944 0 .9.486 1.53 1.458 1.89.972.36 2.52.702 4.644 1.026 2.376.396 4.32.819 5.832 1.269 1.512.45 2.826 1.269 3.942 2.457s1.674 2.844 1.674 4.968c0 1.8-.54 3.402-1.62 4.806s-2.655 2.493-4.725 3.267-4.527 1.161-7.371 1.161zm37.638-1.836c-.828.612-1.845 1.071-3.051 1.377a15.425 15.425 0 0 1-3.807.459c-3.456 0-6.129-.882-8.019-2.646-1.89-1.764-2.835-4.356-2.835-7.776V34.028h-4.482v-6.48h4.482v-7.074h8.424v7.074h7.236v6.48h-7.236v11.826c0 1.224.315 2.169.945 2.835.63.666 1.521.999 2.673.999 1.332 0 2.466-.36 3.402-1.08l2.268 5.94zm33.048 2.052c-2.988 0-5.877-.405-8.667-1.215s-5.031-1.863-6.723-3.159l2.97-6.588c1.62 1.188 3.546 2.142 5.778 2.862 2.232.72 4.464 1.08 6.696 1.08 2.484 0 4.32-.369 5.508-1.107 1.188-.738 1.782-1.719 1.782-2.943 0-.9-.351-1.647-1.053-2.241-.702-.594-1.602-1.071-2.7-1.431-1.098-.36-2.583-.756-4.455-1.188-2.88-.684-5.238-1.368-7.074-2.052-1.836-.684-3.411-1.782-4.725-3.294-1.314-1.512-1.971-3.528-1.971-6.048 0-2.196.594-4.185 1.782-5.967 1.188-1.782 2.979-3.195 5.373-4.239s5.319-1.566 8.775-1.566c2.412 0 4.77.288 7.074.864 2.304.576 4.32 1.404 6.048 2.484l-2.7 6.642c-3.492-1.98-6.984-2.97-10.476-2.97-2.448 0-4.257.396-5.427 1.188-1.17.792-1.755 1.836-1.755 3.132s.675 2.259 2.025 2.889c1.35.63 3.411 1.251 6.183 1.863 2.88.684 5.238 1.368 7.074 2.052a11.714 11.714 0 0 1 4.725 3.24c1.314 1.476 1.971 3.474 1.971 5.994 0 2.16-.603 4.131-1.809 5.913s-3.015 3.195-5.427 4.239c-2.412 1.044-5.346 1.566-8.802 1.566zm35.262-.216c-3.06 0-5.805-.639-8.235-1.917-2.43-1.278-4.329-3.051-5.697-5.319-1.368-2.268-2.052-4.842-2.052-7.722 0-2.88.684-5.454 2.052-7.722 1.368-2.268 3.267-4.041 5.697-5.319 2.43-1.278 5.175-1.917 8.235-1.917 3.06 0 5.796.639 8.208 1.917s4.302 3.051 5.67 5.319c1.368 2.268 2.052 4.842 2.052 7.722 0 2.88-.684 5.454-2.052 7.722-1.368 2.268-3.258 4.041-5.67 5.319-2.412 1.278-5.148 1.917-8.208 1.917zm0-6.912c2.16 0 3.933-.729 5.319-2.187 1.386-1.458 2.079-3.411 2.079-5.859s-.693-4.401-2.079-5.859c-1.386-1.458-3.159-2.187-5.319-2.187s-3.942.729-5.346 2.187c-1.404 1.458-2.106 3.411-2.106 5.859s.702 4.401 2.106 5.859c1.404 1.458 3.186 2.187 5.346 2.187zM312.81 26.9v29.052h-7.992v-3.456a11.172 11.172 0 0 1-3.996 2.889c-1.548.666-3.222.999-5.022.999-3.816 0-6.84-1.098-9.072-3.294-2.232-2.196-3.348-5.454-3.348-9.774V26.9h8.424v15.174c0 4.68 1.962 7.02 5.886 7.02 2.016 0 3.636-.657 4.86-1.971 1.224-1.314 1.836-3.267 1.836-5.859V26.9h8.424zm15.876 3.834c1.008-1.404 2.367-2.466 4.077-3.186 1.71-.72 3.681-1.08 5.913-1.08v7.776c-.936-.072-1.566-.108-1.89-.108-2.412 0-4.302.675-5.67 2.025-1.368 1.35-2.052 3.375-2.052 6.075v13.716h-8.424V26.9h8.046v3.834zm28.782 25.65c-3.096 0-5.877-.639-8.343-1.917s-4.392-3.051-5.778-5.319c-1.386-2.268-2.079-4.842-2.079-7.722 0-2.88.693-5.454 2.079-7.722 1.386-2.268 3.312-4.041 5.778-5.319 2.466-1.278 5.247-1.917 8.343-1.917 3.06 0 5.733.639 8.019 1.917 2.286 1.278 3.951 3.105 4.995 5.481l-6.534 3.51c-1.512-2.664-3.69-3.996-6.534-3.996-2.196 0-4.014.72-5.454 2.16-1.44 1.44-2.16 3.402-2.16 5.886s.72 4.446 2.16 5.886c1.44 1.44 3.258 2.16 5.454 2.16 2.88 0 5.058-1.332 6.534-3.996l6.534 3.564c-1.044 2.304-2.709 4.104-4.995 5.4-2.286 1.296-4.959 1.944-8.019 1.944zm45.954-14.85c0 .108-.054.864-.162 2.268h-21.978c.396 1.8 1.332 3.222 2.808 4.266 1.476 1.044 3.312 1.566 5.508 1.566 1.512 0 2.853-.225 4.023-.675 1.17-.45 2.259-1.161 3.267-2.133l4.482 4.86c-2.736 3.132-6.732 4.698-11.988 4.698-3.276 0-6.174-.639-8.694-1.917-2.52-1.278-4.464-3.051-5.832-5.319-1.368-2.268-2.052-4.842-2.052-7.722 0-2.844.675-5.409 2.025-7.695 1.35-2.286 3.204-4.068 5.562-5.346 2.358-1.278 4.995-1.917 7.911-1.917 2.844 0 5.418.612 7.722 1.836 2.304 1.224 4.113 2.979 5.427 5.265 1.314 2.286 1.971 4.941 1.971 7.965zm-15.066-8.694c-1.908 0-3.51.54-4.806 1.62-1.296 1.08-2.088 2.556-2.376 4.428h14.31c-.288-1.836-1.08-3.303-2.376-4.401-1.296-1.098-2.88-1.647-4.752-1.647z"/>
            <path fill="#F58A07" d="M75.528 80.114c-1.53 0-2.376-.756-2.376-1.872 0-.36.054-.738.162-1.098l1.278-4.824h-1.206l.504-1.872h1.206l.702-2.61h2.178l-.702 2.61h2.538l-.504 1.872H76.77l-1.224 4.59c-.036.18-.072.396-.072.54 0 .486.342.738.954.738.432 0 .918-.108 1.386-.306l-.504 1.89c-.522.234-1.116.342-1.782.342zm7.312.036c-1.62 0-2.862-1.026-2.862-2.592 0-.954.342-1.71.9-2.286.756-.738 1.908-1.152 3.258-1.152 1.116 0 2.106.216 2.952.468l.054-.162c.054-.234.108-.504.108-.792 0-.882-.612-1.44-2.106-1.44-.954 0-1.836.216-2.592.522l-.36-1.764a9.22 9.22 0 0 1 3.384-.63c2.484 0 3.798 1.08 3.798 2.934 0 .468-.09.918-.198 1.386l-1.422 5.31h-2.106l.324-1.26c-.81.9-1.854 1.458-3.132 1.458zm.864-1.566c1.314 0 2.574-.99 2.934-2.268l.126-.432a7.735 7.735 0 0 0-2.304-.36c-.792 0-1.422.234-1.836.63a1.59 1.59 0 0 0-.468 1.152c0 .756.594 1.278 1.548 1.278zm7.168 1.368l3.528-13.14h2.178l-3.528 13.14h-2.178zm15.106-3.996h-6.912c0 1.44.846 2.43 2.466 2.43.918 0 1.62-.306 2.43-.918l1.044 1.386c-.882.738-2.052 1.314-3.69 1.314-2.646 0-4.32-1.602-4.32-4.158 0-1.512.648-3.042 1.746-4.14.972-.972 2.304-1.62 3.852-1.62 2.448 0 3.798 1.62 3.798 3.69 0 .666-.144 1.368-.414 2.016zm-5.742-2.988a3.975 3.975 0 0 0-.936 1.548h4.932a2.2 2.2 0 0 0 .09-.666c0-.99-.576-1.818-1.89-1.818-.864 0-1.62.36-2.196.936zm7.258 6.984l2.538-9.504h2.178l-.324 1.206c.756-.738 1.674-1.404 2.898-1.404 1.746 0 2.88 1.098 2.88 2.844 0 .504-.144 1.116-.288 1.674l-1.368 5.184h-2.178l1.404-5.274c.09-.306.144-.684.144-.954 0-.954-.612-1.494-1.656-1.494-1.224 0-2.232.972-2.61 2.376l-1.422 5.346h-2.196zm14.944.162c-1.53 0-2.376-.756-2.376-1.872 0-.36.054-.738.162-1.098l1.278-4.824h-1.206l.504-1.872h1.206l.702-2.61h2.178l-.702 2.61h2.538l-.504 1.872h-2.538l-1.224 4.59c-.036.18-.072.396-.072.54 0 .486.342.738.954.738.432 0 .918-.108 1.386-.306l-.504 1.89c-.522.234-1.116.342-1.782.342zm3.424 2.448l-.162-.918c1.296-.18 1.908-.774 2.07-1.692h-.936l.666-2.484h2.394l-.558 2.106c-.54 2.052-1.62 2.844-3.474 2.988zm15.812-2.448c-1.53 0-2.376-.756-2.376-1.872 0-.36.054-.738.162-1.098l1.278-4.824h-1.206l.504-1.872h1.206l.702-2.61h2.178l-.702 2.61h2.538l-.504 1.872h-2.538l-1.224 4.59c-.036.18-.072.396-.072.54 0 .486.342.738.954.738.432 0 .918-.108 1.386-.306l-.504 1.89c-.522.234-1.116.342-1.782.342zm13.828-4.158h-6.912c0 1.44.846 2.43 2.466 2.43.918 0 1.62-.306 2.43-.918l1.044 1.386c-.882.738-2.052 1.314-3.69 1.314-2.646 0-4.32-1.602-4.32-4.158 0-1.512.648-3.042 1.746-4.14.972-.972 2.304-1.62 3.852-1.62 2.448 0 3.798 1.62 3.798 3.69 0 .666-.144 1.368-.414 2.016zm-5.742-2.988a3.975 3.975 0 0 0-.936 1.548h4.932a2.2 2.2 0 0 0 .09-.666c0-.99-.576-1.818-1.89-1.818-.864 0-1.62.36-2.196.936zm12.316 7.2c-2.448 0-4.356-1.638-4.356-4.23 0-1.566.648-2.988 1.674-4.014 1.026-1.026 2.43-1.674 3.942-1.674 2.034 0 3.204 1.008 3.852 2.16l-1.692 1.152c-.504-.81-1.116-1.422-2.34-1.422-.756 0-1.512.36-2.088.936a4.122 4.122 0 0 0-1.17 2.844c0 1.476 1.026 2.376 2.25 2.376.954 0 1.674-.396 2.43-1.062l1.152 1.422c-.99.9-2.052 1.512-3.654 1.512zm5.44-.216l3.51-13.14h2.178l-1.296 4.842c.756-.738 1.674-1.404 2.898-1.404 1.746 0 2.88 1.098 2.88 2.844 0 .504-.144 1.116-.288 1.674l-1.368 5.184h-2.178l1.404-5.274c.09-.306.144-.684.144-.954 0-.954-.612-1.494-1.656-1.494-1.224 0-2.232.972-2.61 2.376l-1.422 5.346h-2.196zm11.524 0l2.538-9.504h2.178l-.324 1.206c.756-.738 1.674-1.404 2.898-1.404 1.746 0 2.88 1.098 2.88 2.844 0 .504-.144 1.116-.288 1.674l-1.368 5.184h-2.178l1.404-5.274c.09-.306.144-.684.144-.954 0-.954-.612-1.494-1.656-1.494-1.224 0-2.232.972-2.61 2.376l-1.422 5.346h-2.196zm17.77-9.702c2.718 0 4.464 1.836 4.464 4.356 0 1.458-.63 2.88-1.674 3.906-.99 1.008-2.358 1.656-3.87 1.656-2.718 0-4.464-1.836-4.464-4.338 0-1.476.63-2.88 1.674-3.924.99-1.008 2.358-1.656 3.87-1.656zm-.954 8.028c.81 0 1.566-.36 2.106-.918.738-.72 1.152-1.782 1.152-2.7 0-1.62-.99-2.52-2.43-2.52-.81 0-1.548.378-2.106.918-.738.72-1.152 1.782-1.152 2.7 0 1.62.99 2.52 2.43 2.52zm6.844 1.674l3.528-13.14h2.178l-3.528 13.14H202.7zm11.686-9.702c2.718 0 4.464 1.836 4.464 4.356 0 1.458-.63 2.88-1.674 3.906-.99 1.008-2.358 1.656-3.87 1.656-2.718 0-4.464-1.836-4.464-4.338 0-1.476.63-2.88 1.674-3.924.99-1.008 2.358-1.656 3.87-1.656zm-.954 8.028c.81 0 1.566-.36 2.106-.918.738-.72 1.152-1.782 1.152-2.7 0-1.62-.99-2.52-2.43-2.52-.81 0-1.548.378-2.106.918-.738.72-1.152 1.782-1.152 2.7 0 1.62.99 2.52 2.43 2.52zm11.056 4.59c-1.854 0-3.654-.54-4.878-1.458l1.206-1.512c1.008.756 2.268 1.206 3.546 1.206 1.026 0 1.782-.306 2.322-.846.468-.468.756-1.098.99-1.926l.162-.576c-.99.918-1.926 1.44-3.258 1.44-1.872 0-3.654-1.224-3.654-3.438 0-1.584.666-2.97 1.656-3.96.972-.972 2.286-1.548 3.6-1.548 1.8 0 2.61.936 3.132 1.908l.45-1.71h2.178l-2.088 7.848c-.468 1.728-.882 2.52-1.62 3.24-.882.882-2.052 1.332-3.744 1.332zm.9-5.454c.882 0 1.728-.378 2.34-.99.612-.612.972-1.368.972-2.196 0-1.206-.9-2.124-2.304-2.124-.846 0-1.62.36-2.214.936a3.31 3.31 0 0 0-.99 2.34c0 1.35.972 2.034 2.196 2.034zm10.084 2.574l-1.386-9.54h2.232l.792 7.038 4.194-7.038h2.376l-6.138 9.774c-1.278 1.944-2.376 2.664-3.906 2.664-.918 0-1.566-.234-2.16-.648l1.152-1.602c.324.234.828.414 1.224.414.576 0 1.008-.234 1.62-1.062zm5.566 2.574l-.162-.918c1.296-.18 1.908-.774 2.07-1.692h-.936l.666-2.484h2.394l-.558 2.106c-.54 2.052-1.62 2.844-3.474 2.988zm14.462-2.538l-.522-9.576h2.214l.18 6.48 3.852-6.516h1.854l.36 6.534 3.708-6.498h2.196l-5.688 9.576h-1.962l-.378-6.498-3.888 6.498H255.5zm13.792-.072l2.556-9.504h2.178l-2.556 9.504h-2.178zm2.862-10.962l.558-2.07h2.358l-.576 2.07h-2.34zm5.998 11.124c-1.53 0-2.376-.756-2.376-1.872 0-.36.054-.738.162-1.098l1.278-4.824h-1.206l.504-1.872h1.206l.702-2.61h2.178l-.702 2.61h2.538l-.504 1.872h-2.538l-1.224 4.59c-.036.18-.072.396-.072.54 0 .486.342.738.954.738.432 0 .918-.108 1.386-.306l-.504 1.89c-.522.234-1.116.342-1.782.342zm4.324-.162l3.51-13.14h2.178l-1.296 4.842c.756-.738 1.674-1.404 2.898-1.404 1.746 0 2.88 1.098 2.88 2.844 0 .504-.144 1.116-.288 1.674l-1.368 5.184h-2.178l1.404-5.274c.09-.306.144-.684.144-.954 0-.954-.612-1.494-1.656-1.494-1.224 0-2.232.972-2.61 2.376l-1.422 5.346h-2.196zm17.788-9.702c2.718 0 4.464 1.836 4.464 4.356 0 1.458-.63 2.88-1.674 3.906-.99 1.008-2.358 1.656-3.87 1.656-2.718 0-4.464-1.836-4.464-4.338 0-1.476.63-2.88 1.674-3.924.99-1.008 2.358-1.656 3.87-1.656zm-.954 8.028c.81 0 1.566-.36 2.106-.918.738-.72 1.152-1.782 1.152-2.7 0-1.62-.99-2.52-2.43-2.52-.81 0-1.548.378-2.106.918-.738.72-1.152 1.782-1.152 2.7 0 1.62.99 2.52 2.43 2.52zm10.39 1.872c-1.764 0-2.898-1.098-2.898-2.844 0-.504.144-1.116.288-1.674l1.386-5.184h2.178l-1.422 5.274a4.483 4.483 0 0 0-.126.954c0 .954.612 1.494 1.638 1.494 1.224 0 2.232-.972 2.61-2.376l1.44-5.346h2.178l-2.538 9.504h-2.178l.324-1.224c-.756.756-1.674 1.422-2.88 1.422zm11.29-.036c-1.53 0-2.376-.756-2.376-1.872 0-.36.054-.738.162-1.098l1.278-4.824h-1.206l.504-1.872h1.206l.702-2.61h2.178l-.702 2.61h2.538l-.504 1.872h-2.538l-1.224 4.59c-.036.18-.072.396-.072.54 0 .486.342.738.954.738.432 0 .918-.108 1.386-.306l-.504 1.89c-.522.234-1.116.342-1.782.342zm15.974.036c-1.674 0-2.646-.828-3.222-1.89l-.45 1.692h-2.178l3.51-13.14h2.178l-1.314 4.896c.864-.864 1.8-1.458 3.042-1.458 2.124 0 3.708 1.548 3.708 4.068 0 1.746-.684 3.24-1.728 4.284-.972.972-2.25 1.548-3.546 1.548zm-.27-1.872c.792 0 1.566-.342 2.124-.918.72-.702 1.152-1.728 1.152-2.898 0-1.44-.9-2.34-2.25-2.34-.828 0-1.62.36-2.25.99-.72.72-1.17 1.71-1.17 2.772 0 1.386.99 2.394 2.394 2.394zm13.108-8.028c2.718 0 4.464 1.836 4.464 4.356 0 1.458-.63 2.88-1.674 3.906-.99 1.008-2.358 1.656-3.87 1.656-2.718 0-4.464-1.836-4.464-4.338 0-1.476.63-2.88 1.674-3.924.99-1.008 2.358-1.656 3.87-1.656zm-.954 8.028c.81 0 1.566-.36 2.106-.918.738-.72 1.152-1.782 1.152-2.7 0-1.62-.99-2.52-2.43-2.52-.81 0-1.548.378-2.106.918-.738.72-1.152 1.782-1.152 2.7 0 1.62.99 2.52 2.43 2.52zm6.718 1.674l2.538-9.504h2.178l-.558 2.142c1.044-1.512 2.286-2.43 3.978-2.322l-.612 2.304h-.126c-1.908 0-3.564 1.224-4.266 3.852l-.936 3.528h-2.196zm14.836 0l.342-1.26c-.846.864-1.8 1.458-3.042 1.458-2.106 0-3.708-1.548-3.708-4.068 0-1.746.684-3.24 1.728-4.284.972-.972 2.25-1.548 3.564-1.548 1.674 0 2.628.828 3.204 1.89l1.422-5.328h2.178l-3.51 13.14h-2.178zm-1.872-1.674c.81 0 1.62-.36 2.232-.99.72-.72 1.188-1.71 1.188-2.772 0-1.386-.99-2.394-2.412-2.394-.792 0-1.548.342-2.124.918-.702.702-1.152 1.728-1.152 2.898 0 1.44.9 2.34 2.268 2.34zm16.87-2.322h-6.912c0 1.44.846 2.43 2.466 2.43.918 0 1.62-.306 2.43-.918l1.044 1.386c-.882.738-2.052 1.314-3.69 1.314-2.646 0-4.32-1.602-4.32-4.158 0-1.512.648-3.042 1.746-4.14.972-.972 2.304-1.62 3.852-1.62 2.448 0 3.798 1.62 3.798 3.69 0 .666-.144 1.368-.414 2.016zm-5.742-2.988a3.975 3.975 0 0 0-.936 1.548h4.932a2.2 2.2 0 0 0 .09-.666c0-.99-.576-1.818-1.89-1.818-.864 0-1.62.36-2.196.936zm7.258 6.984l2.538-9.504h2.178l-.558 2.142c1.044-1.512 2.286-2.43 3.978-2.322l-.612 2.304h-.126c-1.908 0-3.564 1.224-4.266 3.852l-.936 3.528h-2.196zm11.632.216c-1.44 0-3.096-.558-4.212-1.71l1.314-1.332c1.008 1.008 2.106 1.332 3.078 1.332.846 0 1.512-.432 1.512-1.134 0-.468-.432-.792-1.386-1.188-1.584-.648-2.736-1.26-2.736-2.718 0-1.782 1.44-3.168 3.726-3.168 1.494 0 2.88.666 3.654 1.35l-1.206 1.404c-.864-.684-1.728-1.044-2.61-1.044-.936 0-1.458.468-1.458 1.08 0 .486.432.792 1.512 1.242 1.44.612 2.61 1.278 2.61 2.664 0 1.962-1.62 3.222-3.798 3.222z"/>
        </g>
    </g>
</svg>
