<svg xmlns="http://www.w3.org/2000/svg" width="432" height="100" viewBox="0 0 432 100">
    <g fill="none" fill-rule="evenodd">
        <g fill-rule="nonzero">
            <path fill="#145F9A" d="M45.327 19.52L24.13 40.57c-2.203 2.174-1.983 5.815.23 7.979L54.823 78.88 43.625 90.182 1.573 48.392c-2.391-2.376-1.827-5.684.162-7.66l39.8-39.528c4.1-2.846 8.749 0 8.749 1.97l-4.296 14.5a2.263 2.263 0 0 1-.661 1.846z"/>
            <path fill="#156FB4" d="M50.997 19.52L29.793 40.57c-2.203 2.174-1.982 5.815.232 7.979l30.46 30.332L49.29 90.182 7.238 48.392c-2.392-2.376-1.829-5.684.16-7.66L46.522 1.848c1.313-1.3 3.563-.515 3.762 1.326l1.374 14.494a2.263 2.263 0 0 1-.66 1.852z"/>
            <path fill="#CF7506" d="M42.865 37.104c-.07.069-2.35 2.347-3.42 3.41-2.881 2.863-2.423 5.41-.162 7.66.36.356 3.484 3.536 4.558 4.603l5.052 5.02c2.19 2.176 2.108 4.009-.175 6.283l-3.62 3.59-11.34 11.266-5.255 5.212c-.266.26.394-.4-2.272 2.249-2.794 2.776-2.68 8.772 1.45 9.32l8.162.73c1.483.157 3.063-.338 4.113-1.39l30.7-30.502c2.203-2.67 1.914-5.451-.828-8.176l-2.89-2.865-5.35-5.335c-2.017-2.005-2.03-5.484.162-7.66l1.125-1.13 1.568-1.565a2.18 2.18 0 0 0 .642-1.82l2.434-14.49c-.456-3.023-5.433-3.721-7.357-1.808l-13.91 14.035c-.01.008-.712.708-.721.716l-2.666 2.647z"/>
            <path fill="#F58A07" d="M47.194 37.432c-.07.07-2.35 2.348-3.42 3.41-2.881 2.863-2.423 5.41-.162 7.66.36.356 3.484 3.537 4.558 4.604l5.052 5.02c2.19 2.175 2.107 4.008-.175 6.282l-3.62 3.59-11.34 11.266-6.187 6.138c-.266.26-3.366 3.337-6.031 5.984-1.522 1.512-.603 4.104 1.542 4.33l12.761 1.353c1.483.157 3.062-.636 4.113-1.688l30.7-30.498c2.203-2.67 1.914-5.451-.829-8.176l-2.892-2.865-5.35-5.335c-2.018-2.005-2.03-5.484.161-7.66l1.126-1.13 1.567-1.565a2.18 2.18 0 0 0 .646-1.82L67.59 21.887c-.228-1.807-2.36-2.457-3.657-1.169L50.58 34.07l-.72.716-2.666 2.647z"/>
        </g>
        <path fill="#F58A07" d="M95.745 96.296l2.93-10.852H94.54l.575-2.11h10.53l-.574 2.11h-4.116l-2.93 10.852h-2.28zm11.42.204c-1.668 0-2.947-1.056-2.947-2.667 0-.981.352-1.759.927-2.352.778-.759 1.965-1.185 3.356-1.185 1.149 0 2.169.223 3.04.482l.056-.167c.055-.24.11-.518.11-.815 0-.907-.63-1.481-2.168-1.481-.983 0-1.891.222-2.67.537l-.37-1.815a9.506 9.506 0 0 1 3.485-.648c2.558 0 3.912 1.111 3.912 3.018 0 .482-.093.945-.204 1.426l-1.465 5.463h-2.17l.335-1.296c-.835.926-1.91 1.5-3.226 1.5zm.89-1.611c1.354 0 2.652-1.019 3.023-2.333l.13-.445a7.976 7.976 0 0 0-2.374-.37c-.816 0-1.464.24-1.89.648a1.634 1.634 0 0 0-.483 1.185c0 .778.612 1.315 1.595 1.315zm6.972 1.407l3.633-13.518h2.244l-3.634 13.518h-2.243zm15.147-4.11h-7.12c0 1.48.872 2.5 2.54 2.5.946 0 1.669-.316 2.503-.945l1.075 1.426c-.908.759-2.113 1.352-3.8 1.352-2.726 0-4.45-1.649-4.45-4.278 0-1.556.668-3.13 1.799-4.26 1-1 2.373-1.666 3.967-1.666 2.521 0 3.912 1.666 3.912 3.796 0 .685-.148 1.408-.426 2.074zm-5.915-3.075c-.426.426-.76.982-.964 1.593h5.08c.056-.167.093-.408.093-.685 0-1.019-.593-1.87-1.947-1.87-.89 0-1.668.37-2.262.962zm7.064 7.185l2.614-9.777h2.243l-.333 1.24c.778-.759 1.724-1.444 2.985-1.444 1.798 0 2.966 1.13 2.966 2.926 0 .518-.148 1.148-.297 1.722l-1.409 5.333h-2.243l1.446-5.426c.093-.314.148-.703.148-.981 0-.982-.63-1.537-1.705-1.537-1.26 0-2.3 1-2.688 2.444l-1.465 5.5h-2.262zm14.98.167c-1.576 0-2.447-.778-2.447-1.926 0-.37.056-.76.167-1.13l1.316-4.963h-1.242l.52-1.925h1.241l.723-2.686h2.244l-.723 2.686h2.614l-.52 1.925h-2.614l-1.26 4.723a3.283 3.283 0 0 0-.074.555c0 .5.352.76.982.76.445 0 .946-.112 1.428-.315l-.52 1.944c-.537.24-1.149.352-1.835.352zm3.115 2.518l-.167-.944c1.335-.185 1.965-.796 2.132-1.74h-.964l.686-2.556h2.466l-.575 2.166c-.556 2.112-1.669 2.926-3.578 3.074zm9.492-2.685l2.93-10.852h-4.135l.575-2.11h10.53l-.574 2.11h-4.116l-2.93 10.852h-2.28zm18.318-4.11h-7.12c0 1.48.872 2.5 2.54 2.5.946 0 1.669-.316 2.503-.945l1.075 1.426c-.908.759-2.113 1.352-3.8 1.352-2.726 0-4.45-1.649-4.45-4.278 0-1.556.668-3.13 1.799-4.26 1-1 2.373-1.666 3.967-1.666 2.522 0 3.912 1.666 3.912 3.796 0 .685-.148 1.408-.426 2.074zm-5.915-3.075c-.426.426-.76.982-.964 1.593h5.08c.056-.167.093-.408.093-.685 0-1.019-.593-1.87-1.947-1.87-.89 0-1.668.37-2.262.962zm12.274 7.408c-2.522 0-4.487-1.686-4.487-4.352 0-1.611.668-3.074 1.724-4.13 1.057-1.056 2.503-1.722 4.06-1.722 2.096 0 3.3 1.037 3.968 2.222l-1.743 1.185c-.519-.833-1.15-1.463-2.41-1.463-.778 0-1.557.37-2.15.963a4.239 4.239 0 0 0-1.206 2.926c0 1.519 1.057 2.445 2.318 2.445.983 0 1.724-.408 2.503-1.093l1.186 1.463c-1.02.926-2.113 1.556-3.763 1.556zm5.19-.223l3.616-13.518h2.244l-1.335 4.981c.778-.759 1.724-1.444 2.985-1.444 1.798 0 2.966 1.13 2.966 2.926 0 .518-.148 1.148-.297 1.722l-1.409 5.333h-2.243l1.446-5.426c.093-.314.148-.703.148-.981 0-.982-.63-1.537-1.705-1.537-1.261 0-2.3 1-2.689 2.444l-1.464 5.5h-2.262zm11.459 0l2.614-9.777h2.243l-.334 1.24c.779-.759 1.724-1.444 2.985-1.444 1.799 0 2.967 1.13 2.967 2.926 0 .518-.149 1.148-.297 1.722l-1.41 5.333h-2.242l1.446-5.426c.092-.314.148-.703.148-.981 0-.982-.63-1.537-1.706-1.537-1.26 0-2.299 1-2.688 2.444l-1.465 5.5h-2.261zm17.89-9.981c2.8 0 4.598 1.889 4.598 4.481 0 1.5-.649 2.963-1.724 4.019-1.02 1.037-2.429 1.704-3.986 1.704-2.8 0-4.598-1.89-4.598-4.463 0-1.519.65-2.963 1.724-4.037 1.02-1.038 2.43-1.704 3.986-1.704zm-.982 8.26c.834 0 1.613-.371 2.169-.945.76-.741 1.187-1.834 1.187-2.778 0-1.667-1.02-2.593-2.503-2.593-.835 0-1.595.39-2.17.945-.76.74-1.186 1.833-1.186 2.777 0 1.667 1.02 2.593 2.503 2.593zm6.637 1.721l3.634-13.518h2.243l-3.634 13.518h-2.243zm11.625-9.981c2.8 0 4.597 1.889 4.597 4.481 0 1.5-.648 2.963-1.724 4.019-1.02 1.037-2.428 1.704-3.986 1.704-2.8 0-4.598-1.89-4.598-4.463 0-1.519.65-2.963 1.725-4.037 1.02-1.038 2.428-1.704 3.986-1.704zm-.983 8.26c.834 0 1.613-.371 2.17-.945.76-.741 1.186-1.834 1.186-2.778 0-1.667-1.02-2.593-2.503-2.593-.834 0-1.595.39-2.17.945-.76.74-1.186 1.833-1.186 2.777 0 1.667 1.02 2.593 2.503 2.593zm10.976 4.721c-1.91 0-3.764-.555-5.025-1.5l1.242-1.555c1.039.778 2.336 1.24 3.653 1.24 1.057 0 1.835-.314 2.391-.87.482-.481.78-1.13 1.02-1.981l.167-.593c-1.02.944-1.984 1.482-3.356 1.482-1.928 0-3.763-1.26-3.763-3.538 0-1.63.686-3.055 1.705-4.074 1.001-1 2.355-1.592 3.708-1.592 1.854 0 2.689.963 3.226 1.963l.464-1.76h2.243l-2.15 8.075c-.483 1.777-.909 2.592-1.67 3.333-.908.907-2.113 1.37-3.855 1.37zm.927-5.61c.908 0 1.78-.39 2.41-1.02.63-.629 1-1.407 1-2.259 0-1.24-.926-2.185-2.372-2.185-.872 0-1.669.37-2.28.963a3.404 3.404 0 0 0-1.02 2.408c0 1.388 1 2.092 2.262 2.092zm9.974 2.647l-1.428-9.814h2.3l.815 7.24 4.32-7.24h2.447l-6.322 10.055c-1.316 2-2.447 2.74-4.023 2.74-.946 0-1.613-.24-2.225-.666L253.371 97c.333.24.853.426 1.26.426.594 0 1.039-.24 1.669-1.093zm6.897 2.648l-.167-.944c1.335-.185 1.965-.796 2.132-1.74h-.964l.686-2.556h2.466l-.575 2.166c-.556 2.112-1.669 2.926-3.578 3.074zm9.807-2.592l-1.02-13.056h2.374l.537 9.611 5.73-9.648h1.927l.63 9.648 5.674-9.61h2.595l-8.027 13.055h-2.095l-.668-9.204-5.599 9.204h-2.058zm17.038-.093l2.633-9.777h2.243l-2.632 9.777h-2.244zm2.948-11.277l.575-2.13h2.429l-.594 2.13h-2.41zm5.766 11.444c-1.576 0-2.447-.778-2.447-1.926 0-.37.056-.76.167-1.13l1.316-4.963h-1.242l.519-1.925h1.242l.723-2.686h2.244l-.723 2.686h2.614l-.52 1.925h-2.614l-1.26 4.723a3.283 3.283 0 0 0-.074.555c0 .5.352.76.982.76.445 0 .946-.112 1.428-.315l-.52 1.944c-.537.24-1.149.352-1.835.352zm4.042-.167l3.615-13.518h2.243l-1.334 4.981c.778-.759 1.724-1.444 2.984-1.444 1.799 0 2.967 1.13 2.967 2.926 0 .518-.148 1.148-.297 1.722l-1.409 5.333h-2.243l1.446-5.426c.093-.314.148-.703.148-.981 0-.982-.63-1.537-1.705-1.537-1.261 0-2.3 1-2.689 2.444l-1.464 5.5h-2.262zm17.91-9.981c2.799 0 4.597 1.889 4.597 4.481 0 1.5-.649 2.963-1.724 4.019-1.02 1.037-2.429 1.704-3.986 1.704-2.8 0-4.598-1.89-4.598-4.463 0-1.519.649-2.963 1.724-4.037 1.02-1.038 2.429-1.704 3.986-1.704zm-.983 8.26c.834 0 1.613-.371 2.169-.945.76-.741 1.186-1.834 1.186-2.778 0-1.667-1.02-2.593-2.502-2.593-.835 0-1.595.39-2.17.945-.76.74-1.186 1.833-1.186 2.777 0 1.667 1.02 2.593 2.503 2.593zm10.29 1.925c-1.818 0-2.986-1.13-2.986-2.926 0-.518.149-1.148.297-1.722l1.428-5.333h2.243l-1.465 5.425c-.074.297-.13.704-.13.982 0 .981.63 1.537 1.688 1.537 1.26 0 2.299-1 2.688-2.444l1.483-5.5h2.243l-2.614 9.777h-2.243l.334-1.259c-.779.778-1.725 1.463-2.967 1.463zm11.216-.037c-1.576 0-2.447-.778-2.447-1.926 0-.37.055-.76.167-1.13l1.316-4.963h-1.242l.519-1.925h1.242l.723-2.686h2.243l-.723 2.686h2.614l-.519 1.925h-2.614l-1.26 4.723a3.283 3.283 0 0 0-.075.555c0 .5.353.76.983.76.445 0 .945-.112 1.427-.315l-.519 1.944c-.537.24-1.15.352-1.835.352zm9.863-.167l3.486-12.963h4.968c2.855 0 4.246 1.334 4.246 3.111 0 1.778-1.242 2.926-2.967 3.297 1.15.444 2.021 1.259 2.021 2.648 0 2.296-2.02 3.907-5.525 3.907h-6.229zm2.781-2.018h3.764c1.798 0 2.929-.76 2.929-2.019 0-.981-.871-1.537-2.28-1.537h-3.467l-.946 3.556zm1.483-5.482h3.208c1.817 0 2.929-.703 2.929-1.981 0-.908-.705-1.463-2.15-1.463h-3.078l-.909 3.444zm15.221-2.481c2.8 0 4.598 1.889 4.598 4.481 0 1.5-.649 2.963-1.724 4.019-1.02 1.037-2.429 1.704-3.986 1.704-2.8 0-4.598-1.89-4.598-4.463 0-1.519.65-2.963 1.724-4.037 1.02-1.038 2.43-1.704 3.986-1.704zm-.982 8.26c.834 0 1.613-.371 2.169-.945.76-.741 1.187-1.834 1.187-2.778 0-1.667-1.02-2.593-2.503-2.593-.835 0-1.595.39-2.17.945-.76.74-1.186 1.833-1.186 2.777 0 1.667 1.02 2.593 2.503 2.593zm6.507 1.721l2.614-9.777h2.244l-.575 2.203c1.075-1.555 2.355-2.5 4.097-2.389l-.63 2.37h-.13c-1.965 0-3.67 1.26-4.394 3.964l-.964 3.63h-2.262zm14.962 0l.352-1.296c-.871.889-1.854 1.5-3.133 1.5-2.17 0-3.82-1.593-3.82-4.185 0-1.796.705-3.334 1.78-4.408 1.002-1 2.318-1.592 3.671-1.592 1.725 0 2.707.852 3.3 1.944l1.465-5.481h2.244l-3.616 13.518h-2.243zm-1.928-1.722c.834 0 1.668-.37 2.299-1.018.741-.741 1.223-1.76 1.223-2.852 0-1.426-1.02-2.463-2.484-2.463-.816 0-1.594.352-2.188.944-.723.722-1.186 1.778-1.186 2.982 0 1.481.927 2.407 2.336 2.407zm16.964-2.389h-7.12c0 1.482.872 2.5 2.54 2.5.946 0 1.669-.315 2.503-.944l1.076 1.426c-.909.759-2.114 1.352-3.801 1.352-2.725 0-4.45-1.649-4.45-4.278 0-1.556.668-3.13 1.799-4.26 1-1 2.373-1.666 3.967-1.666 2.522 0 3.912 1.666 3.912 3.796 0 .685-.148 1.408-.426 2.074zm-5.914-3.074c-.427.426-.76.982-.965 1.593h5.08c.056-.167.093-.408.093-.685 0-1.019-.593-1.87-1.947-1.87-.89 0-1.668.37-2.261.962zm7.063 7.185l2.614-9.777h2.244l-.575 2.203c1.075-1.555 2.354-2.5 4.097-2.389l-.63 2.37h-.13c-1.965 0-3.67 1.26-4.394 3.964l-.964 3.63h-2.262zm11.57.223c-1.484 0-3.19-.575-4.34-1.76l1.354-1.37c1.038 1.037 2.17 1.37 3.17 1.37.872 0 1.558-.444 1.558-1.166 0-.482-.445-.815-1.428-1.223-1.631-.666-2.818-1.296-2.818-2.796 0-1.833 1.483-3.26 3.838-3.26 1.539 0 2.966.686 3.764 1.39l-1.243 1.444c-.89-.704-1.78-1.074-2.688-1.074-.964 0-1.502.482-1.502 1.111 0 .5.445.815 1.558 1.278 1.483.63 2.688 1.315 2.688 2.74 0 2.02-1.669 3.316-3.912 3.316z"/>
        <path fill="#146EB4" fill-rule="nonzero" d="M89.848 26.067h31.518v9.573h-20.5v6.655h18.655v9.112h-18.654v14.077H89.848zM125.748 24.378h11.224v7.884h-11.224v-7.884zm.23 10.648h10.763v30.458H125.98V35.026zM142.66 35.026h10.763v6.143a12.465 12.465 0 0 1 3.562-4.966 8.745 8.745 0 0 1 6.073-1.69v11.263h-.897a8.307 8.307 0 0 0-6.483 2.56 11.355 11.355 0 0 0-2.255 7.678v9.47H142.66V35.026zM178.92 66.15a25.652 25.652 0 0 1-7.688-1.101 22.663 22.663 0 0 1-6.868-3.404l3.998-6.476a21.792 21.792 0 0 0 5.381 2.56 17.34 17.34 0 0 0 5.125.87c1.794 0 2.716-.538 2.716-1.638 0-.614-.435-1.075-1.255-1.408a32.21 32.21 0 0 0-3.665-1.203 35.725 35.725 0 0 1-4.228-1.305 14.15 14.15 0 0 1-3.434-1.869 7.675 7.675 0 0 1-3.151-6.552v-.205a9.64 9.64 0 0 1 .922-4.3 9.037 9.037 0 0 1 2.563-3.148 12.203 12.203 0 0 1 3.869-1.945 16.34 16.34 0 0 1 4.869-.666c2.252 0 4.494.31 6.662.922a22.127 22.127 0 0 1 5.92 2.56l-3.665 6.756a26.717 26.717 0 0 0-4.792-2.047 14.288 14.288 0 0 0-4.228-.768 3.309 3.309 0 0 0-1.87.435 1.203 1.203 0 0 0-.615 1.024v.128c0 .589.41 1.075 1.255 1.433 1.216.482 2.456.9 3.716 1.254 1.486.435 2.895.87 4.228 1.382a14.15 14.15 0 0 1 3.433 1.869 7.675 7.675 0 0 1 3.152 6.45 10.228 10.228 0 0 1-.897 4.428 9.293 9.293 0 0 1-2.562 3.174 11.177 11.177 0 0 1-3.946 1.945 18.597 18.597 0 0 1-4.946.845zM207.952 66.098a11.438 11.438 0 0 1-7.687-2.303 9.668 9.668 0 0 1-2.717-7.679V43.728h-3.613v-8.6h3.613V27.45h10.942v7.678h7.098v8.6h-7.098v10.238a3.095 3.095 0 0 0 .743 2.33 3 3 0 0 0 2.204.716 7.952 7.952 0 0 0 2.075-.281 14.155 14.155 0 0 0 1.974-.743v8.395a14.565 14.565 0 0 1-3.332 1.28 17.034 17.034 0 0 1-4.202.435zM252.19 66.15a30.55 30.55 0 0 1-10.07-1.639 24.837 24.837 0 0 1-8.43-4.914l6.098-7.294a20.103 20.103 0 0 0 12.812 4.735 6.566 6.566 0 0 0 3.357-.691 2.252 2.252 0 0 0 1.153-1.997v-.128a2.02 2.02 0 0 0-.282-1.1 3.074 3.074 0 0 0-1.025-.922 10.666 10.666 0 0 0-2.05-.87c-.845-.282-1.947-.563-3.28-.87a68.464 68.464 0 0 1-5.868-1.613 18.28 18.28 0 0 1-4.715-2.227 9.595 9.595 0 0 1-4.305-8.523 11.813 11.813 0 0 1 1.051-5.119 11.186 11.186 0 0 1 3.024-3.993 14.278 14.278 0 0 1 4.817-2.56 20.522 20.522 0 0 1 6.38-.92 28.217 28.217 0 0 1 9.046 1.33 22.865 22.865 0 0 1 7.2 3.916l-5.483 7.679a22.174 22.174 0 0 0-5.535-2.918 17.263 17.263 0 0 0-5.51-.972 4.72 4.72 0 0 0-2.946.742 2.15 2.15 0 0 0-1 1.791c-.011.414.096.823.308 1.178.272.402.643.728 1.076.947.665.344 1.36.627 2.076.844a66.49 66.49 0 0 0 3.357.87 46.448 46.448 0 0 1 6.124 1.716 17.689 17.689 0 0 1 4.664 2.38 9.524 9.524 0 0 1 2.921 3.404 10.484 10.484 0 0 1 1.025 4.735v.128a12.018 12.018 0 0 1-1.179 5.375 11.776 11.776 0 0 1-3.228 4.044 14.459 14.459 0 0 1-5.125 2.56c-2.098.61-4.273.911-6.458.896zM288.372 66.226a17.955 17.955 0 0 1-6.739-1.254 16.248 16.248 0 0 1-5.33-3.404 15.348 15.348 0 0 1-4.715-11.185c-.012-2.12.415-4.221 1.256-6.169a15.869 15.869 0 0 1 3.536-5.119 16.71 16.71 0 0 1 5.355-3.43 18.444 18.444 0 0 1 13.505 0 16.991 16.991 0 0 1 5.304 3.405 14.947 14.947 0 0 1 3.51 5.119 15.47 15.47 0 0 1 1.23 6.143c.013 2.12-.415 4.22-1.255 6.168a15.869 15.869 0 0 1-3.536 5.12 16.71 16.71 0 0 1-5.356 3.429 17.597 17.597 0 0 1-6.765 1.177zm.18-9.01a6.31 6.31 0 0 0 2.562-.537 5.407 5.407 0 0 0 1.999-1.433 6.935 6.935 0 0 0 1.281-2.15 7.926 7.926 0 0 0 .436-2.56 7.517 7.517 0 0 0-.462-2.559 6.479 6.479 0 0 0-3.433-3.609 5.72 5.72 0 0 0-2.563-.563c-.88.002-1.75.176-2.562.512a5.765 5.765 0 0 0-1.999 1.459 6.474 6.474 0 0 0-1.281 2.15 7.926 7.926 0 0 0-.436 2.56c.004.873.16 1.739.461 2.559a6.68 6.68 0 0 0 1.359 2.15 6.816 6.816 0 0 0 2.05 1.459c.809.38 1.693.573 2.588.563zM319.993 66.15a9.846 9.846 0 0 1-7.687-2.97 11.637 11.637 0 0 1-2.768-8.216V35.026h10.788v16.483a5.626 5.626 0 0 0 1.153 3.84 4 4 0 0 0 3.126 1.305 4.205 4.205 0 0 0 3.152-1.306 5.396 5.396 0 0 0 1.23-3.839V35.026h10.814v30.458h-10.788v-4.172a14.292 14.292 0 0 1-3.613 3.379 9.464 9.464 0 0 1-5.407 1.459zM345.54 35.026h10.763v6.143a12.465 12.465 0 0 1 3.562-4.966 8.72 8.72 0 0 1 6.073-1.69v11.263h-.897a8.307 8.307 0 0 0-6.483 2.56 11.355 11.355 0 0 0-2.255 7.678v9.47h-10.762V35.026zM384.388 66.226a16.025 16.025 0 0 1-11.429-4.684 16.166 16.166 0 0 1-4.535-11.16 15.52 15.52 0 0 1 1.23-6.116 16.123 16.123 0 0 1 3.33-5.12 15.888 15.888 0 0 1 5.126-3.43 16.801 16.801 0 0 1 6.61-1.253 15.39 15.39 0 0 1 7.893 1.843 15.085 15.085 0 0 1 5.125 4.965l-7.252 5.4a9.553 9.553 0 0 0-2.434-2.354 5.899 5.899 0 0 0-3.28-.845 5.771 5.771 0 0 0-2.383.512 5.61 5.61 0 0 0-1.896 1.485 7.676 7.676 0 0 0-1.23 2.124 7.415 7.415 0 0 0-.461 2.56c-.008.932.148 1.86.46 2.738a7.19 7.19 0 0 0 1.23 2.176 5.64 5.64 0 0 0 4.408 2.022 5.822 5.822 0 0 0 3.229-.845 12.064 12.064 0 0 0 2.562-2.329l7.15 5.12a16.853 16.853 0 0 1-5.356 5.118 15.902 15.902 0 0 1-8.097 2.073zM416.854 66.226a17.545 17.545 0 0 1-6.585-1.177 15.377 15.377 0 0 1-5.125-3.2 14.358 14.358 0 0 1-3.383-4.99 16.952 16.952 0 0 1-1.204-6.476 17.08 17.08 0 0 1 1.127-6.22 15.175 15.175 0 0 1 3.178-5.119 14.632 14.632 0 0 1 4.894-3.404 15.39 15.39 0 0 1 6.201-1.254 16.237 16.237 0 0 1 6.842 1.356 13.682 13.682 0 0 1 4.792 3.635 15.044 15.044 0 0 1 2.819 5.298c.625 2.075.936 4.232.922 6.399v2.15h-20.5a6.32 6.32 0 0 0 2.332 3.788 7.13 7.13 0 0 0 4.254 1.229 8.285 8.285 0 0 0 3.51-.717 11.3 11.3 0 0 0 3.255-2.38l5.92 4.914a16.575 16.575 0 0 1-5.433 4.505 16.775 16.775 0 0 1-7.816 1.663zm4.408-18.48a6.958 6.958 0 0 0-1.692-4.018 4.769 4.769 0 0 0-3.613-1.51 4.564 4.564 0 0 0-3.51 1.51 7.981 7.981 0 0 0-1.794 4.019h10.609z"/>
    </g>
</svg>
