<svg xmlns="http://www.w3.org/2000/svg" xmlns:xlink="http://www.w3.org/1999/xlink" width="301" height="249" viewBox="0 0 301 249">
    <defs>
        <path id="a" d="M21.279 5.347l1.455-4.84L.31 3.85l20.968 1.496"/>
        <path id="c" d="M.31.6L18.596 5.89l-2.53 6.987L.311.601"/>
        <path id="e" d="M2.513.09S-.379 6.221.078 9.813c.321 2.523 1.449 3.19 2.314 3.406.864.216 1.78-.172 2.277-.912C7.039 8.775 2.513.09 2.513.09"/>
        <linearGradient id="f" x1="172.197%" x2=".902%" y1="66.744%" y2="50%">
            <stop offset="0%" stop-color="#6CB7F0"/>
            <stop offset="53.53%" stop-color="#5B9ACB"/>
            <stop offset="100%" stop-color="#146EB4"/>
        </linearGradient>
        <path id="h" d="M.557.626A.52.52 0 1 0 1.6.625.52.52 0 0 0 .557.626"/>
        <linearGradient id="i" x1="0%" x2="99.981%" y1="50%" y2="50%">
            <stop offset="0%" stop-color="#B0DCDF"/>
            <stop offset="100%" stop-color="#D4EBDE"/>
        </linearGradient>
    </defs>
    <g fill="none" fill-rule="evenodd">
        <path fill="#F58A07" d="M260.308 161.65a64.254 64.254 0 0 0-.449-3.682l-.522.079a63.26 63.26 0 0 1 .445 3.652l.526-.049M131.992 175.984c.159 1.222.355 2.455.584 3.664l.519-.098a64.26 64.26 0 0 1-.58-3.634l-.523.068M135.59 190.367a65.36 65.36 0 0 0 1.41 3.436l.483-.214a64.298 64.298 0 0 1-1.4-3.408l-.494.186M142.38 203.54a65.31 65.31 0 0 0 2.153 3.023l.421-.319a64.735 64.735 0 0 1-2.136-2.998l-.439.294M133.373 183.278c.3 1.2.638 2.403 1.006 3.577l.504-.157a63.764 63.764 0 0 1-.997-3.548l-.513.128M146.856 209.456a64.648 64.648 0 0 0 2.483 2.756l.383-.364a64.062 64.062 0 0 1-2.464-2.734l-.402.342M138.606 197.15a64.747 64.747 0 0 0 1.796 3.25l.454-.268a65.034 65.034 0 0 1-1.78-3.224l-.47.242M151.976 214.82c.9.841 1.835 1.666 2.78 2.452l.339-.405c-.938-.78-1.866-1.599-2.759-2.432l-.36.385M181.196 229.9c-1.19-.281-2.386-.6-3.557-.95l-.151.506c1.181.353 2.387.675 3.585.958l.123-.514M194.91 103.656l-.009-.528c-1.236.02-2.485.076-3.71.167l.038.527a63.478 63.478 0 0 1 3.68-.166M259.199 154.317a64.544 64.544 0 0 0-.874-3.612l-.51.138c.323 1.182.614 2.388.866 3.583l.518-.11M173.963 228.294l.18-.496a63.75 63.75 0 0 1-3.423-1.353l-.208.485c1.132.486 2.293.945 3.451 1.364M209.653 104.58a65.655 65.655 0 0 0-3.65-.676l-.081.521c1.21.189 2.427.414 3.62.67l.111-.516M188.38 231.71l.062-.524a65.746 65.746 0 0 1-3.643-.54l-.092.52c1.213.214 2.45.398 3.673.544M173.312 107.803l-.188-.493a64.608 64.608 0 0 0-3.431 1.418l.215.482c1.116-.5 2.261-.972 3.404-1.407M160.716 221.678l.29-.442a63.18 63.18 0 0 1-3.018-2.1l-.315.425a64.728 64.728 0 0 0 3.043 2.117M195.784 232.17l.003-.527a64.423 64.423 0 0 1-3.679-.124l-.033.527c1.232.077 2.48.118 3.709.124M167.144 225.368l.237-.472a63.878 63.878 0 0 1-3.244-1.74l-.263.458a64.39 64.39 0 0 0 3.27 1.754M187.565 104.199l-.07-.523a64.236 64.236 0 0 0-3.666.595l.1.518c1.2-.23 2.424-.429 3.636-.59M180.333 105.589l-.13-.512a64.092 64.092 0 0 0-3.571 1.014l.158.504a63.759 63.759 0 0 1 3.543-1.006M202.269 103.96l.052-.526a66.423 66.423 0 0 0-3.705-.26l-.023.528c1.224.051 2.46.138 3.676.258M250.94 133.736a64.962 64.962 0 0 0-2.043-3.1l-.433.304c.702 1 1.384 2.034 2.026 3.073l.45-.277M246.681 127.66a65.227 65.227 0 0 0-2.382-2.844l-.395.35a64.96 64.96 0 0 1 2.363 2.821l.414-.327M257.244 147.15a64.918 64.918 0 0 0-1.284-3.485l-.49.196a63.327 63.327 0 0 1 1.273 3.457l.501-.168M254.477 140.26a64.982 64.982 0 0 0-1.675-3.313l-.465.25a64.233 64.233 0 0 1 1.662 3.287l.478-.225M241.759 122.113a64.718 64.718 0 0 0-2.69-2.553l-.353.393a64.073 64.073 0 0 1 2.668 2.532l.375-.372M203.194 231.78l-.058-.526a64.441 64.441 0 0 1-3.67.3l.028.528a64.847 64.847 0 0 0 3.7-.303M223.683 109.333a64.622 64.622 0 0 0-3.398-1.49l-.198.49c1.13.456 2.263.953 3.37 1.477l.226-.477M236.238 117.166a65.719 65.719 0 0 0-2.964-2.227l-.306.432a63.807 63.807 0 0 1 2.94 2.208l.33-.413M230.188 112.887a64.059 64.059 0 0 0-3.198-1.87l-.253.463a64.03 64.03 0 0 1 3.171 1.855l.28-.448M216.805 106.551a64.724 64.724 0 0 0-3.548-1.088l-.14.509c1.178.324 2.362.688 3.518 1.08l.17-.5M37.926 42.685l-.395-.516a80.243 80.243 0 0 0-3.55 2.878l.423.493a79.806 79.806 0 0 1 3.522-2.855M15.073 70.407l-.583-.288a79.638 79.638 0 0 0-1.905 4.143l.599.255a79.376 79.376 0 0 1 1.89-4.11M19.549 62.543l-.546-.353a80.455 80.455 0 0 0-2.371 3.9l.565.321a79.434 79.434 0 0 1 2.352-3.868M24.9 55.24l-.503-.414a80.294 80.294 0 0 0-2.803 3.605l.525.384a79.85 79.85 0 0 1 2.78-3.575M53.481 33.412l-.267-.593a78.95 78.95 0 0 0-4.118 1.995l.3.577a78.958 78.958 0 0 1 4.085-1.979M45.435 37.601l-.334-.558a79.392 79.392 0 0 0-3.859 2.454l.365.539a79.426 79.426 0 0 1 3.828-2.435M8.977 87.415l-.633-.147a79.13 79.13 0 0 0-.905 4.476l.64.111a78.73 78.73 0 0 1 .898-4.44M6.81 114.498c.174 1.507.394 3.027.653 4.52l.641-.112a79.09 79.09 0 0 1-.648-4.482l-.646.074M11.535 78.727l-.612-.22a79.05 79.05 0 0 0-1.417 4.344l.624.183a78.289 78.289 0 0 1 1.405-4.307M6.935 105.382h-.65c0 1.52.045 3.057.132 4.565l.65-.037a80.654 80.654 0 0 1-.132-4.528M61.963 30.178l-.197-.62a79.4 79.4 0 0 0-4.323 1.507l.231.608a78.503 78.503 0 0 1 4.289-1.495M8.376 123.494a79.01 79.01 0 0 0 1.17 4.415l.624-.185a78.425 78.425 0 0 1-1.161-4.379l-.633.149M7.44 96.34l-.646-.074c-.17 1.505-.3 3.036-.385 4.551l.65.036c.084-1.503.212-3.021.38-4.513M164.544 102.362l.65-.024a80.24 80.24 0 0 0-.298-4.557l-.647.061c.14 1.497.24 3.017.295 4.52M164.339 93.248a80.056 80.056 0 0 0-.818-4.493l-.637.135a78.76 78.76 0 0 1 .812 4.456l.643-.098M162.443 84.316a79.074 79.074 0 0 0-1.332-4.37l-.616.209c.48 1.423.924 2.881 1.321 4.333l.627-.172M163.498 118.46c.212.044.424.087.636.136.146-.861.281-1.724.397-2.583l-.645-.088a79.612 79.612 0 0 1-.388 2.536M164.364 111.419l.649.05c.116-1.508.19-3.043.22-4.563l-.65-.013a81.105 81.105 0 0 1-.219 4.526M155.621 67.383a79.841 79.841 0 0 0-2.301-3.952l-.553.344c.797 1.28 1.565 2.6 2.283 3.92l.571-.312M145.11 52.465a80.408 80.408 0 0 0-3.137-3.322l-.46.46a79.966 79.966 0 0 1 3.112 3.295l.486-.433M159.525 75.654a79.386 79.386 0 0 0-1.833-4.193l-.588.278a77.562 77.562 0 0 1 1.817 4.158l.604-.243M138.65 46.007a80.203 80.203 0 0 0-3.495-2.941l-.405.509a79.35 79.35 0 0 1 3.467 2.917l.434-.485M150.794 59.62a80.545 80.545 0 0 0-2.74-3.659l-.51.404a79.616 79.616 0 0 1 2.718 3.63l.532-.374M131.498 40.33a80.47 80.47 0 0 0-3.807-2.52l-.343.552a79.167 79.167 0 0 1 3.776 2.5l.374-.531M131.277 169.652l.376.53a80.195 80.195 0 0 0 3.653-2.746l-.405-.508a79.342 79.342 0 0 1-3.624 2.724M93.31 26.879c1.497.142 3.01.33 4.498.557l.098-.642a79.43 79.43 0 0 0-4.535-.562l-.061.647M97.952 183.165l.1.643a79.036 79.036 0 0 0 4.497-.831l-.137-.636a77.53 77.53 0 0 1-4.46.824M10.97 132.25a80.04 80.04 0 0 0 1.677 4.258l.598-.256a78.728 78.728 0 0 1-1.662-4.223l-.612.22M102.401 27.616l-.135.635a78.68 78.68 0 0 1 4.403 1.072l.173-.627a78.307 78.307 0 0 0-4.441-1.08M79.815 184.532c1.51.112 3.046.181 4.565.207l.011-.65a79.594 79.594 0 0 1-4.529-.205l-.047.648M84.242 25.887l.012.65a80.52 80.52 0 0 1 4.534.042l.024-.65a81.796 81.796 0 0 0-4.57-.042M123.59 174.456l.313.57a80.207 80.207 0 0 0 3.944-2.31l-.344-.552a78.615 78.615 0 0 1-3.913 2.292M119.678 33.445l-.278.588c1.355.64 2.713 1.33 4.036 2.05l.31-.57a79.117 79.117 0 0 0-4.068-2.068M75.132 26.577l.086.645a78.87 78.87 0 0 1 4.508-.471l-.048-.649a80.733 80.733 0 0 0-4.546.475M111.212 30.03l-.208.617a78.12 78.12 0 0 1 4.25 1.573l.244-.603a79.995 79.995 0 0 0-4.286-1.586M106.817 181.262l.174.626a79.746 79.746 0 0 0 4.37-1.345l-.21-.616a79.583 79.583 0 0 1-4.334 1.335M115.402 178.344l.244.602a79.436 79.436 0 0 0 4.185-1.84l-.279-.588a78.897 78.897 0 0 1-4.15 1.826M88.925 184.039l.026.65c1.515-.06 3.05-.164 4.563-.31l-.062-.648c-1.501.145-3.024.249-4.527.308M24.526 155.954a79.557 79.557 0 0 0 3.016 3.434l.477-.443a79.541 79.541 0 0 1-2.992-3.406l-.5.415M30.748 162.643a80.92 80.92 0 0 0 3.386 3.067l.424-.494a79.663 79.663 0 0 1-3.36-3.042l-.45.47M30.6 48.123a80.492 80.492 0 0 0-3.197 3.263l.477.442a79.62 79.62 0 0 1 3.172-3.237l-.452-.468M14.567 140.66a80.11 80.11 0 0 0 2.156 4.034l.565-.324a78.484 78.484 0 0 1-2.139-4l-.582.29M19.108 148.596a80.081 80.081 0 0 0 2.603 3.757l.525-.386a78.31 78.31 0 0 1-2.583-3.726l-.545.355M37.69 168.576a80.716 80.716 0 0 0 3.714 2.66l.363-.54a79.872 79.872 0 0 1-3.683-2.637l-.394.517M66.162 28.308l.16.63c1.456-.37 2.944-.7 4.424-.986l-.124-.639a79.496 79.496 0 0 0-4.46.995M61.898 181.106c1.451.457 2.93.875 4.398 1.244l.158-.63a77.977 77.977 0 0 1-4.36-1.233l-.196.62M45.261 173.677a80.246 80.246 0 0 0 3.992 2.214l.3-.577a78.932 78.932 0 0 1-3.96-2.197l-.332.56M53.363 177.872a80.29 80.29 0 0 0 4.217 1.74l.23-.608a78.437 78.437 0 0 1-4.181-1.726l-.266.594M70.758 183.337c1.489.285 3.007.528 4.511.727l.085-.645a79.686 79.686 0 0 1-4.474-.72l-.122.638M178.756 96.084l.206.616a17.203 17.203 0 0 0 4.146-2.047l-.364-.54a16.512 16.512 0 0 1-3.988 1.971M186.067 91.153l.494.422a17.222 17.222 0 0 0 2.513-3.88l-.588-.278a16.607 16.607 0 0 1-2.419 3.736M173.48 96.941h-3.632v.65h3.633c.315 0 .627-.008.937-.025l-.034-.65c-.299.017-.6.025-.903.025M190.053 80.378c0 .938-.08 1.877-.236 2.794l.642.108c.162-.952.244-1.929.244-2.902v-1.687h-.65v1.687M190.053 74.14h.65v-4.551h-.65z"/>
        <path fill="#4F9EDB" d="M196.782 189.657c-11.91.85-22.253-8.111-23.103-20.015-.85-11.903 8.115-22.242 20.025-23.092 11.91-.85 22.255 8.112 23.106 20.015.85 11.904-8.117 22.242-20.028 23.092zm55.473-35.888c-.861-.965-5.763-1.672-11.284-1.377a48.019 48.019 0 0 0-6.448-12.467c3.307-3.524 6.427-7.587 5.87-9.913-1.13-4.721-12.07-12.12-14.125-12.236-1.314-.075-5.402 3-9.153 7.227a48.067 48.067 0 0 0-13.178-4.447c-.153-4.84-.82-9.941-2.865-11.196-4.138-2.54-17.109-.04-18.644 1.33-.961.858-1.668 5.728-1.38 11.224a48.032 48.032 0 0 0-12.853 6.142c-3.434-3.169-7.293-6.047-9.537-5.51-4.724 1.128-12.126 12.063-12.242 14.117-.07 1.221 2.586 4.841 6.36 8.357a48.032 48.032 0 0 0-5.03 14.023c-4.37.238-8.62.96-9.75 2.801-2.541 4.137-.04 17.1 1.33 18.635.772.864 4.79 1.521 9.588 1.437a47.99 47.99 0 0 0 6.749 13.944c-2.728 3.113-4.952 6.382-4.474 8.376 1.129 4.72 12.07 12.119 14.124 12.235 1.13.064 4.312-2.202 7.566-5.524 4.59 2.399 9.6 4.07 14.87 4.892.276 4.114 1.017 7.979 2.76 9.048 4.138 2.54 17.11.04 18.644-1.33.867-.774 1.526-4.806 1.437-9.618a48.095 48.095 0 0 0 13.527-7.084c3.238 2.893 6.72 5.345 8.806 4.846 4.724-1.128 12.126-12.063 12.243-14.117.07-1.228-2.613-4.878-6.417-8.41a47.956 47.956 0 0 0 4.312-13.933c4.632-.193 9.328-.89 10.524-2.838 2.542-4.138.04-17.1-1.33-18.634z"/>
        <path fill="#FFFFFE" d="M193.256 137.842c-16.427 1.172-28.836 15.482-27.664 31.898 1.173 16.416 15.49 28.819 31.916 27.647 16.425-1.171 28.834-15.48 27.662-31.897-1.173-16.416-15.489-28.819-31.914-27.648zm4.349 60.911c-17.179 1.226-32.153-11.746-33.379-28.915-1.226-17.17 11.753-32.136 28.931-33.361 17.179-1.226 32.153 11.746 33.38 28.915 1.226 17.17-11.754 32.136-28.932 33.361z"/>
        <path fill="#FFFFFE" d="M238.302 155.635c-.205-.009-.408-.021-.612-.039a43.99 43.99 0 0 1 1.732 9.451c1.732 24.249-16.597 45.385-40.86 47.116-15.885 1.133-30.434-6.331-39.074-18.426a9.192 9.192 0 0 1-.593.153c8.736 12.357 23.538 19.997 39.708 18.844 24.578-1.753 43.145-23.164 41.391-47.727a44.668 44.668 0 0 0-1.692-9.372M166.037 135.342c7.032-6.299 16.118-10.41 26.245-11.133.198-.013.394-.015.592-.027-.084-.184-.157-.373-.233-.562-.134.008-.266.009-.4.018-10.216.729-19.387 4.862-26.498 11.198.102.167.2.335.294.506"/>
        <path fill="#146EB4" d="M85.56 131.684c-14.314 0-25.918-11.598-25.918-25.905S71.246 79.874 85.56 79.874c14.314 0 25.919 11.598 25.919 25.905s-11.605 25.905-25.92 25.905zM154.96 93.5c-.947-1.226-6.748-2.49-13.375-2.608a57.582 57.582 0 0 0-6.646-15.459c4.255-3.932 8.332-8.524 7.865-11.353-.948-5.742-13.398-15.522-15.846-15.836-1.565-.202-6.716 3.127-11.563 7.862a57.646 57.646 0 0 0-15.377-6.443c.23-5.801-.131-11.957-2.47-13.632-4.732-3.39-20.455-1.507-22.408 0-1.223.944-2.484 6.707-2.61 13.304a57.585 57.585 0 0 0-15.894 6.249C52.8 51.5 48.431 47.73 45.703 48.18c-5.745.947-15.531 13.391-15.846 15.836-.187 1.456 2.68 6.01 6.892 10.538a57.573 57.573 0 0 0-7.212 16.34c-5.246-.09-10.39.413-11.899 2.517-3.392 4.73-1.508 20.444 0 22.396.849 1.1 5.596 2.229 11.341 2.537a57.566 57.566 0 0 0 6.88 17.25c-3.527 3.49-6.465 7.208-6.065 9.633.948 5.742 13.398 15.523 15.845 15.837 1.346.174 5.344-2.265 9.52-5.962a57.623 57.623 0 0 0 17.363 7.12c-.021 4.943.534 9.628 2.527 11.055 4.733 3.39 20.456 1.507 22.409 0 1.102-.85 2.235-5.617 2.54-11.378a57.675 57.675 0 0 0 16.78-7.318c3.626 3.736 7.58 6.965 10.116 6.547 5.745-.948 15.53-13.392 15.845-15.837.188-1.463-2.708-6.056-6.954-10.604a57.491 57.491 0 0 0 6.345-16.294c5.556.165 11.231-.268 12.829-2.496 3.392-4.73 1.507-20.445 0-22.397z"/>
        <path fill="#FFFFFE" d="M85.767 69.424c-19.742 0-35.803 16.052-35.803 35.783 0 19.73 16.06 35.783 35.803 35.783 19.742 0 35.802-16.052 35.802-35.783s-16.06-35.783-35.802-35.783zm0 73.207c-20.647 0-37.445-16.788-37.445-37.424S65.12 67.782 85.767 67.782c20.647 0 37.445 16.789 37.445 37.425 0 20.636-16.798 37.424-37.445 37.424z"/>
        <path fill="#FFFFFE" d="M138.115 94.542c-.244-.028-.487-.06-.728-.098a52.763 52.763 0 0 1 1.264 11.45c0 29.143-23.724 52.854-52.884 52.854-19.093 0-35.854-10.167-45.152-25.367l-.006.002c-.237.052-.476.095-.716.131 9.391 15.521 26.44 25.92 45.874 25.92 29.54 0 53.57-24.018 53.57-53.54 0-3.896-.429-7.691-1.222-11.352M53.433 64.112c8.947-6.932 20.163-11.074 32.334-11.074.238 0 .473.015.71.018-.084-.228-.156-.46-.229-.693-.161 0-.32-.012-.481-.012-12.279 0-23.597 4.16-32.642 11.131.107.207.21.417.308.63"/>
        <path fill="#EE9E35" d="M183.243 61.736l14.373.35s-.964-4.4-.454-7.742c.193-1.263.996-2.362 2.1-3.007 14.346-8.38 11.192-18.537 11.192-18.537s-1.15-12.81-19.22-14.487c-19.264-1.79-18.527 15.381-18.527 15.381s-1.115 9.517 8.74 16.238c1.41.962 2.276 2.539 2.442 4.236.417 4.264-.646 7.568-.646 7.568"/>
        <path fill="#6EBBF5" d="M197.617 62.052l-.126 5.145c-.047 1.929-1.345 3.475-2.885 3.438l-8.752-.214c-1.54-.037-2.762-1.646-2.715-3.573l.126-5.146 14.352.35"/>
        <path fill="#146EB4" d="M193.7 70.613l-1.046 2.326-5.443-.132-1.133-2.38 7.622.186"/>
        <path fill="#FFFFFE" d="M197.419 39.037c-1.154 1.616-2.934 2.035-4.759 1.833l.076-3.133a2.168 2.168 0 0 1 .68-1.535c.759-.712 2.095-1.449 3.703-.586 1.01.665 1.083 2.323.3 3.421zm-8.887.772c-1.373-.493-3.307-1.477-3.456-2.862-.036-.338.12-.68.38-.9 2.485-2.117 3.1 1.827 3.074 2.319.038.475.021.96.002 1.443zm9.722-.585c2.284-4.013-3.04-6.161-5.65-3.438-.473.493-.696 1.171-.727 1.854-.053 1.207-.082 3.09-.082 3.09-.759-.15-1.602-.373-2.24-.578.06-1.165.076-2.371-.236-3.383-1.389-4.495-7.203-1.189-3.947 2.08.763.765 1.9 1.352 3.132 1.786l-.337 21.144.981.024.208-12.996c.035-2.248.07-4.496.107-6.744.005-.353.026-.728.047-1.112.729.2 1.458.347 2.154.442l-.498 20.46.982.024.497-20.382c.197.013.401.031.586.035 1.867.042 4.04-.578 5.023-2.306z"/>
        <path fill="#FACB57" d="M172.936 14.36a.76.76 0 0 0 .026-1.075l-7.08-7.429a.76.76 0 0 0-1.101 1.048l7.08 7.43a.76.76 0 0 0 1.075.026M204.969 15.142a.76.76 0 0 1 .026-1.075l7.434-7.076a.76.76 0 0 1 1.049 1.1l-7.434 7.077a.761.761 0 0 1-1.075-.026M191.314 12.145a.76.76 0 0 0 .78-.741l.249-10.257a.76.76 0 1 0-1.52-.037l-.25 10.257a.76.76 0 0 0 .74.778"/>
        <path fill="#146EB4" d="M278.6 29.559l2.648 4.88-5.333-1.088-18.284-5.288 20.968 1.496"/>
        <path fill="#6EBBF5" d="M281.248 34.439l-9.022-.362 2.18-1.163 6.842 1.525"/>
        <g transform="translate(277.32 57.211)">
            <mask id="b" fill="#fff">
                <use xlink:href="#a"/>
            </mask>
            <path d="M21.279 5.347l1.455-4.84L.31 3.85l20.968 1.496" mask="url(#b)"/>
        </g>
        <g transform="translate(277.32 60.462)">
            <mask id="d" fill="#fff">
                <use xlink:href="#c"/>
            </mask>
            <path d="M-19.69-32.4l18.285 5.289-2.53 6.987-15.754-12.275" mask="url(#d)"/>
        </g>
        <path fill="#F58A07" d="M279.385 39.447a.418.418 0 0 0 .068-.695c-.57-.47-1.18-.886-1.815-1.238a.422.422 0 1 0-.41.736c.59.326 1.156.713 1.685 1.15a.427.427 0 0 0 .472.047M268.551 50.822c-1.201-.519-2.664-.623-3.911-.28a.427.427 0 0 1-.523-.295.42.42 0 0 1 .294-.518 6.887 6.887 0 0 1 4.476.32.422.422 0 1 1-.336.773zm-6.962 4.962a.425.425 0 0 1-.522-.296c-.33-1.19-.24-2.354.262-3.364.182-.367.419-.705.698-1.006a.425.425 0 0 1 .6-.021.419.419 0 0 1 .023.596 3.445 3.445 0 0 0-.56.806c-.416.834-.485 1.766-.206 2.768a.418.418 0 0 1-.295.517zm21.618-10.78a.427.427 0 0 1-.545-.25 13.614 13.614 0 0 0-.78-1.713 12.955 12.955 0 0 0-1.24-1.875.423.423 0 0 1 .665-.52c.493.618.937 1.29 1.321 1.997.317.583.595 1.195.83 1.82a.42.42 0 0 1-.25.542zm-9.91 10.282c-.947-1.384-1.804-2.386-2.7-3.152a.42.42 0 0 1-.045-.594.427.427 0 0 1 .598-.043c.953.816 1.857 1.87 2.848 3.318a.42.42 0 0 1-.15.607.425.425 0 0 1-.551-.136zm-7.535 5.382a11.067 11.067 0 0 1-1.01-.551 9.081 9.081 0 0 1-2.453-2.222.42.42 0 0 1 .082-.59.426.426 0 0 1 .594.083 8.239 8.239 0 0 0 2.22 2.012c.299.184.613.355.934.51a.42.42 0 1 1-.367.758zm17.972-8.944a.423.423 0 0 1-.356-.48c.2-1.335.18-2.715-.065-4.101a.419.419 0 0 1 .344-.486c.231-.04.45.115.49.344.26 1.475.284 2.945.07 4.37a.42.42 0 0 1-.483.353zM272.67 61.788c-1.505.16-2.984.078-4.397-.245a.422.422 0 1 1 .187-.821 12.47 12.47 0 0 0 4.116.229.42.42 0 1 1 .094.837zm7.946-4.127a.418.418 0 0 1-.024-.595 10.73 10.73 0 0 0 1.496-2.03c.255-.451.479-.928.667-1.417a.422.422 0 0 1 .546-.241c.22.083.329.327.246.544a11.381 11.381 0 0 1-.72 1.528c-.441.78-.985 1.518-1.614 2.19a.425.425 0 0 1-.598.02zm-3.259 3.616a.427.427 0 0 1-.572-.18 36.74 36.74 0 0 0-.167-.315c-.443.184-.897.346-1.359.484a.426.426 0 0 1-.528-.282.418.418 0 0 1 .281-.525c.407-.122.807-.262 1.2-.422a67.7 67.7 0 0 0-1.54-2.613.417.417 0 0 1 .14-.579c.195-.12.46-.059.581.14a65.785 65.785 0 0 1 1.593 2.708c.61-.294 1.194-.636 1.74-1.016a.423.423 0 0 1 .49.69c-.575.399-1.188.758-1.826 1.068.05.09.098.182.146.274a.418.418 0 0 1-.174.564c0 .002-.003.002-.005.004zm2.543 6.318a.425.425 0 0 1-.526-.288 30.752 30.752 0 0 0-1.475-3.935.422.422 0 1 1 .773-.343 31.432 31.432 0 0 1 1.516 4.044.418.418 0 0 1-.288.522zm.758 6.735a.424.424 0 0 1-.404-.441l.007-.19a19.337 19.337 0 0 0-.308-3.953.418.418 0 0 1 .343-.487c.23-.04.451.113.492.343.25 1.396.358 2.784.32 4.124l-.007.204a.42.42 0 0 1-.443.4zm-1.996 6.45a.42.42 0 0 1-.174-.57 14.955 14.955 0 0 0 1.44-3.866.423.423 0 0 1 .828.184 15.756 15.756 0 0 1-1.521 4.082.425.425 0 0 1-.573.17zm-4.71 4.825a.42.42 0 0 1 .134-.58c1.125-.695 2.148-1.618 3.041-2.744a.427.427 0 0 1 .595-.07c.184.146.216.41.072.593-.954 1.203-2.05 2.191-3.259 2.937a.427.427 0 0 1-.584-.137zM272.148 86.835a.418.418 0 0 0 .202-.495.425.425 0 0 0-.53-.279 9.1 9.1 0 0 1-1.985.376.42.42 0 1 0 .068.84 9.987 9.987 0 0 0 2.17-.41.461.461 0 0 0 .075-.032"/>
        <path fill="#146EB4" d="M300.969 247.27l-36.616-113.768h-2.86l36.616 113.769h2.86M274.996 247.27L238.38 133.503h-2.86l36.616 113.769h2.86"/>
        <path fill="#146EB4" d="M277.367 174.031v2.327l-26.914-.015-.46-2.326 27.374.014M271.802 158.909v2.327l-26.912-.015-.46-2.327 27.372.015M267.202 143.787v2.327l-26.913-.015-.46-2.327 27.373.015M282.269 189.348v2.327l-26.914-.015-.46-2.326 27.374.014M286.869 204.665v2.327l-26.913-.016-.46-2.327 27.373.016M291.628 220.577l1.088 2.327-26.913-.014-.46-2.327 26.285.014M296.674 236.49l1.087 2.328-26.912-.015-.46-2.327 26.285.015"/>
        <path fill="#0E4E80" d="M201.135 247.27l36.616-113.768h-2.86L198.275 247.27h2.86M227.108 247.27l36.615-113.768h-2.86L224.247 247.27h2.86"/>
        <path fill="#0E4E80" d="M221.877 174.031v2.327l26.913-.015.46-2.326-27.373.014M227.441 158.909v2.327l26.913-.015.46-2.327-27.373.015M232.042 143.787v2.327l26.913-.015.459-2.327-27.372.015M216.975 189.348v2.327l26.913-.015.46-2.326-27.373.014M212.375 204.665v2.327l26.913-.016.46-2.327-27.373.016M207.615 220.577l-1.087 2.327 26.913-.014.46-2.327-26.286.014M202.57 236.49l-1.088 2.328 26.914-.015.46-2.327-26.286.015"/>
        <path fill="#EC967C" d="M228.457 89.954s9.761-6.402 12.129-9.577c2.367-3.175 3.8-18.777-.819-10.26-4.618 8.519-13.063 18.474-13.063 18.474l1.753 1.363M228.457 89.954v1.855c0 .635-.167 1.258-.487 1.808l-1.266 2.181-1.17-6.33 1.17-.877 1.753 1.363M239.324 57.124l1.497 4.037 4.201-1.858-3.75-5.555-1.948 3.376"/>
        <path fill="#F0AB85" d="M238.403 58.448c-.486.222-.964.367-1.289.293-2.367-1.331-3.45-7.514-3.45-7.514l1.752-2.01 3.663.372 1.94 3.549c.518.946.508 2.104-.025 3.115a6.4 6.4 0 0 1-2.591 2.195"/>
        <path fill="#1B2441" d="M239.646 51.862c-.454-.534-1.062-1.98-1.633-1.574-.417.297-1.937 1.121-2.459 1.377-1.244.61-3.7 1.21-4.63-.682-.464-.946.054-2.212.517-2.74.454-.517 1.104-.822 1.788-.904 1.604-.193 3.94-.028 4.593-.528 1.098-.843 2.666-.725 3.156.319.525 1.115.764 3.061.738 4.384a6.487 6.487 0 0 1-.444 2.234l-1.626-1.886"/>
        <path fill="#F0AB85" d="M240.975 51.38c-.398-.11-.894.192-1.11.671-.214.48-.066.957.332 1.066.397.11.893-.192 1.108-.672.215-.48.067-.957-.33-1.065"/>
        <path fill="#21837F" d="M209.007 96.685l.779.426v-.426h-.78"/>
        <path fill="#1B2441" d="M220.082 98.453s-4.22-2.217-10.296-1.342c-.087-.413-.78-.426-.78-.426l8.19-2.2 2.886 3.968M215.39 92.908c-.025-.048-2.275-4.757 2.299-7.628 4.562-2.862 8.139 3.298 8.175 3.361l-.634.444c-.13-.227-3.232-5.554-7.173-3.081-3.938 2.471-2.092 6.342-2.011 6.504l-.657.4"/>
        <path fill="#FFC53A" d="M246.048 58.458c8.6 5.186 6.577 28.696 6.577 28.696h-14.313s-1.926-18.484 2.436-27.157c.975-1.938 3.443-2.66 5.3-1.54"/>
        <path fill="#1B2441" d="M227.849 95.57l-1.59-6.481a1.16 1.16 0 0 0-1.546-.805l-8.547 3.317a1.416 1.416 0 0 0-.564 2.241l4.475 5.235s2.139.198 4.626-.956c2.487-1.155 3.146-2.55 3.146-2.55M259.63 140.085s-.01 2.496-5.025 3.993c-1.028.308-.695.612-.888 1.044h5.772l2.26-2.54.703.604 1.63-1.6s-.762-2.315-2.002-2.336l-2.45.835"/>
        <path fill="#F0AB85" d="M258.693 137.923l.938 2.162a2.264 2.264 0 0 0 2.345-.713l.104-.122-.758-2.221-2.629.894"/>
        <path fill="#0E4E80" d="M246.11 113.643c.002.27 12.789 24.756 12.789 24.756l2.423-1.37s-4.233-19.684-9.004-27.823a9.836 9.836 0 0 1-1.295-3.957c-.846-8.11-1.42-11.302-1.42-11.302l-5.067 18.408 1.575 1.288"/>
        <path fill="#F0AB85" d="M242.953 74.143s-2.997 4.806-6.504 7.143c-3.51 2.337-16.372 3.377-16.372 3.377l-1.74 1.961c-.282.32-.732.432-1.132.283l-.37-.137a1.492 1.492 0 0 1-.694-2.265l.758-1.062c.286-.402.73-.663 1.22-.718l3.517-.4s9.485-2.845 11.694-5.123c2.209-2.279 5.18-9.165 5.18-9.165l4.443 6.106"/>
        <path fill="#1B2441" d="M241.206 141.075s-1.609 1.491-5.276 2.426c-.808.205-1.679-.07-1.679 1.262h4.45l3.703-.64v.64h2s.557-3.268-.61-3.688h-2.588"/>
        <path fill="#F0AB85" d="M241.6 138.728l-.394 2.347c.73.505 1.688.538 2.45.083l.137-.083-.2-2.347H241.6"/>
        <path fill="#146EB4" d="M238.312 87.154l3.106 52.083h2.534s4.853-12.93 3.126-23.121c-.418-2.472-.16-5.004.845-7.3 4.474-10.215 4.702-21.662 4.702-21.662h-14.313"/>
        <g transform="translate(206.379 99.17)">
            <mask id="g" fill="#fff">
                <use xlink:href="#e"/>
            </mask>
            <path fill="url(#f)" d="M2.513.09S-.379 6.221.078 9.813c.321 2.523 1.449 3.19 2.314 3.406.864.216 1.78-.172 2.277-.912C7.039 8.775 2.513.09 2.513.09" mask="url(#g)"/>
        </g>
        <path fill="#146EB4" d="M22.633 174.013L.391 248.503h2.567l22.241-74.49h-2.566M45.934 174.013l-22.241 74.49h2.566l22.242-74.49h-2.567"/>
        <path fill="#146EB4" d="M18.616 188.631v2.25l24.144-.014.413-2.25-24.557.014M14.346 204.02l-.975 2.25 24.144-.014.413-2.25-23.582.013M9.82 219.408l-.977 2.25 24.145-.014.413-2.25-23.582.014M5.58 234.454l-.976 2.25 24.145-.014.413-2.25-23.582.014"/>
        <path fill="#0E4E80" d="M108.422 174.013l22.242 74.49h2.567l-22.242-74.49h-2.567M85.12 174.013l22.243 74.49h2.566l-22.241-74.49H85.12"/>
        <path fill="#13374D" d="M86.36 174.013l.373 2.042 24.145.015v-2.057H86.36"/>
        <path fill="#0E4E80" d="M115.006 188.631v2.25l-24.145-.014-.413-2.25 24.558.014M119.276 204.02l.975 2.25-24.145-.014-.412-2.25 23.582.013M123.803 219.408l.975 2.25-24.145-.014-.412-2.25 23.582.014M128.042 234.454l.976 2.25-24.145-.014-.413-2.25 23.582.014M12.108 176.07h105.895v-3.714H12.108z"/>
        <path fill="#13374D" d="M21.609 167.518s-.886.75-.724 1.708c.162.957.393 3.199.393 3.199h.91l-.028-2.09c.003-.137 1.954 2.09 2.284 2.09h4.82s.32-1.41-2.51-1.863c-2.83-.454-5.145-3.044-5.145-3.044"/>
        <path fill="#EC967C" d="M14.695 165.925l-.129 1.995c-.026.42.09.834.33 1.18.264.382.71.905 1.449 1.506-1.398.449-2.668-1.118-3.335-2.158a2.487 2.487 0 0 1-.362-1.71l.235-1.57 1.812.757"/>
        <path fill="#1B2441" d="M12.622 167.022s-1.23.11-1.433 1.045c-.204.934-.786 2.824-.786 2.824l.671.535.945-1.875s2.034 2.739 2.357 2.874h5.261s0-1.74-3.292-1.819c-3.035-.073-3.723-3.584-3.723-3.584"/>
        <path fill="#EC967C" d="M34.646 74.775l-5.842 15.26-3.683-2.74L33.35 73.43l1.296 1.346"/>
        <path fill="#EC967C" d="M33.922 70.16a2.379 2.379 0 0 0-.528 1.612l-.257 2.203.3.34 1.034.918c-.037-.456-.088 0-.088 0l1.663-2.892s2.01-1.288-.525-3.19c-.243-.18-.583-.22-.834-.052-.631.423-.765 1.061-.765 1.061"/>
        <path fill="#0E4E80" d="M15.748 101.056c4.197-5.627 7.056-11.021 7.056-11.021l-3.17-3.606-3.886 4.528v10.099"/>
        <path fill="#EC967C" d="M12.622 167.195l1.86.323c.385-2.306 6.172-13.24 6.642-18.92.522-6.306 1.989-13.325 1.989-13.325l-6.224-1.85s-1.576 0 .155 12.85c-3.892 5.106-4.935 16.69-4.422 20.922"/>
        <path fill="#F0AB85" d="M17.205 128.75s1.462 8.79 3.496 18.191c-2.125 5.677 1.112 21.519 1.172 21.462.244-.229 1.362 1.148 1.362 1.148s2.36-13.981 2.882-20.286c.522-6.305.652-13.992.652-13.992l-9.564-6.524M40.785 74.038l-5.843 15.26-3.683-2.74 8.23-13.866 1.296 1.346"/>
        <path fill="#F0AB85" d="M40.061 69.423a2.371 2.371 0 0 0-.528 1.612l-.258 2.202.3.342 1.034.917c-.036-.457-.088 0-.088 0l1.662-2.893s2.011-1.287-.524-3.188c-.242-.182-.582-.222-.834-.054a1.864 1.864 0 0 0-.764 1.062"/>
        <path fill="#EC967C" d="M24.113 93.038h-3.767l1.504-4.423 2.944 1.808-.681 2.615"/>
        <path fill="#55A9EB" d="M28.114 97.795c-.019-.112-.044-.205-.066-.307 3.728-4.807 6.894-8.19 6.894-8.19l-3.169-3.606-7.204 6.836-2.113.009s-2.855-1.883-5.35.687c-.91.939-1.517 3.486-.908 6.178 1.677 7.422.365 11.348.365 11.348l9.715 3.62.373-10.98v-.016c.03-.884.324-1.725.789-2.477.534-.866.874-1.92.674-3.102"/>
        <path fill="#F0AB85" d="M24.436 80.664l-6.175 2.16.608 4.608c.009.065.026.128.039.191.118.022.237.044.355.073l.057.016c.018.005.037.007.056.012 1.425.35 2.434 1.527 2.886 2.888a7.277 7.277 0 0 0 2.673-.035c.605-.124 1.152-.314 1.404-.604 1.303-2.842-1.903-9.309-1.903-9.309"/>
        <path fill="#1B2441" d="M24.293 84.585c-1.662.812-1.27 9.374-1.558 15.206-.154 3.138-2.51 5.703-5.613 6.198-2.202.35-4.618.416-6.075-.414.964-.788 6.158-8.427 4.494-18.542-.22-1.33-.246-5.038 1.998-7.05 2.492-2.235 7.633.681 7.633.681s1.405 2.805-.879 3.92"/>
        <path fill="#FFC53A" d="M26.476 110.524s1.293 6.58 1.293 10.494c0 2.15-.528 15.697-.528 15.697s-9.23.667-11.022.667c-.445-11.1-2.977-11.442-2.977-16.62 0-2.25 1.155-4.793 2.04-6.413.637-1.165 1.036-1.977 1.28-3.6l.06-.21 9.854-.015"/>
        <path fill="#17324A" d="M98.314 169.633l7.64-.009c1.013.106 2.147.395 2.337 1.273 0 0 .133.584.11 1.164-.27.317-10.4-.042-10.4-.042l-.044-.037c-1.072-1.29.357-2.349.357-2.349"/>
        <path fill="#6EBBF5" d="M108.401 172.06l-10.4-.041.09.404h10.325l-.015-.362"/>
        <path fill="#FFFFFE" d="M101.338 169.624l.688.005-.214.935h-.667l.193-.94M102.813 169.624l.688.005-.214.935h-.667l.193-.94"/>
        <path fill="#F0AB85" d="M97.79 167.09l.524 2.543a2.48 2.48 0 0 0 2.048.05l.116-.052.368-2.54H97.79"/>
        <path fill="#1B2441" d="M80.46 169.633l7.64-.009c1.013.106 2.147.395 2.337 1.273 0 0 .133.584.11 1.164-.27.317-10.4-.042-10.4-.042l-.043-.037c-1.074-1.29.356-2.349.356-2.349"/>
        <path fill="#6EBBF5" d="M90.547 172.06l-10.4-.041.09.404h10.325l-.015-.362"/>
        <path fill="#FFFFFE" d="M83.484 169.624l.688.005-.214.935h-.668l.194-.94M84.959 169.624l.687.005-.214.935h-.667l.194-.94"/>
        <path fill="#F0AB85" d="M80.792 167.09l-.332 2.543a2.48 2.48 0 0 0 2.048.05l.116-.052 1.224-2.54h-3.056M92.192 81.567l-6.291 4.1 1.941 4.968c.028.07.065.136.095.204.139-.009.277-.016.417-.016l.068.002.065-.002c1.684 0 3.132 1.035 4.01 2.428a8.377 8.377 0 0 0 2.97-.77c.64-.304 1.197-.666 1.399-1.059.673-3.524-4.674-9.855-4.674-9.855M100.193 82.852s.771 7.298-.78 11.945c.72.625 3.364 3.457 4.195-.214.832-3.67-.933-13.016-.933-13.016l-2.482 1.285"/>
        <path fill="#1B2441" d="M96.42 82.336l-1.48.95.527 1.106 1.588-.7-.636-1.356"/>
        <path fill="#1B2441" d="M95.547 83.664c.149.337.16.66.024.718-.135.06-.365-.166-.513-.503-.149-.339-.16-.66-.024-.72.135-.059.365.167.513.505"/>
        <path fill="#0E4E80" d="M114.279 76.953c0-.014.004-.028.005-.042-.278-.633-.77-1.64-1.432-2.567-1.07-1.497-1.374-2.245-1.374-2.245l-15.285 9.998.99 1.867 17.096-6.314a4.694 4.694 0 0 1 0-.697"/>
        <path fill="#EC967C" d="M90.803 93.254l-.55 3.431h4.864l.35-4.204-4.664.773"/>
        <path fill="#F0AB85" d="M103.364 101.768s5.745-1.829 7.545-4.287c1.8-2.459-1.247-15.914-1.247-15.914l.394-2.421a2.255 2.255 0 0 0-2.207-2.617l-1.534-.013a.877.877 0 0 0-.81 1.234l2.019 4.54s1.515 10.191-.607 10.964c-2.53.902-5.396 1.119-5.396 1.119l1.843 7.395"/>
        <path fill="#17324A" d="M92.571 93.254l-1.477-3.275.96-.603a1.805 1.805 0 0 0 .749-2.11l-1.052-3.088s2.993-.366 2.903-3.154c0-1.434-1.977-1.442-1.977-1.442s-.59 1.283-2.423 1.435c-.787-.1-2.948.19-4.406 2.733-.98 1.711-.55 4.39.303 6.4.765 1.801 2.718 2.808 4.652 3.104h1.768"/>
        <path fill="#3A8FD1" d="M86.73 120.77s.305 6.984 1.816 14.554c.445 2.23.278 4.539-.448 6.693-3.43 10.185-8.239 25.5-8.239 25.5h4.278s9.693-18.1 12.19-27.078c2.498-8.98 2.926-11.83 2.926-11.83l-2.972-7.838h-9.55"/>
        <path fill="#F0AB85" d="M90.299 88.454c-.177.515.18 1.198.795 1.525.615.326 1.256.173 1.433-.344.175-.516-.18-1.198-.796-1.525-.615-.327-1.256-.173-1.432.344"/>
        <path fill="#F58A07" d="M100.678 120.77H86.73v-17.885a7.591 7.591 0 0 1 6.887-7.556l9.7-1.173s1.14 1.744 4.318 5.799c-3.82 2.36-8.24 3.445-8.24 3.445l1.283 17.37"/>
        <path fill="#55A9EB" d="M86.73 120.77s1.97 7.127 9.239 15.114c1.214 1.205 2.962 3.715 2.713 7.263l-1.5 24.37h4.34s5.289-20.237 4.148-30.214c-1.141-9.976-4.992-16.532-4.992-16.532H86.73"/>
        <path fill="#4F9EDB" d="M111.937 75.296c.75 1.555 1.769 2.619 2.274 2.375.506-.244.307-1.702-.443-3.258-.75-1.555-1.768-2.618-2.274-2.375-.505.244-.307 1.702.443 3.258"/>
        <path fill="#F0AB85" d="M99.59 79.875l.13.062c.454.218.977.25 1.455.09l.086-.028a2.597 2.597 0 0 0 1.654-1.676.482.482 0 0 0-.558-.617l-.966.202c-.377.08-.706.304-.917.625l-.884 1.342M152.992 170.027l4.362 8.212-4.806-.231-.339-8.246.783.265"/>
        <path fill="#FFFFFE" d="M146.14 166.388l4.03-.006 1.671 26.033h-7.222l1.522-26.027"/>
        <path fill="#13374D" d="M138.742 242.807s-.996.783-.813 1.78c.183.997.441 3.332.441 3.332h1.024l-.031-2.178c.002-.142 2.196 2.178 2.567 2.178h5.42s.36-1.469-2.823-1.94c-3.182-.473-5.785-3.172-5.785-3.172"/>
        <path fill="#F0AB85" d="M141.091 241.813l.735 1.91c.18.525.533.971 1 1.27.517.331 1.326.793 2.53 1.148-1.472 1.256-3.815-.055-5.156-.983a3.28 3.28 0 0 1-1.31-1.897l-.307-1.448h2.508"/>
        <path fill="#13374D" d="M149.065 242.807s-.995.783-.813 1.78c.183.997.441 3.332.441 3.332h1.024l-.031-2.178c.003-.142 2.196 2.178 2.568 2.178h5.418s.36-1.469-2.821-1.94c-3.183-.473-5.786-3.172-5.786-3.172"/>
        <path fill="#F0AB85" d="M151.414 241.813l.735 1.91c.18.525.533.971 1 1.27a9.61 9.61 0 0 0 2.53 1.148c-1.472 1.256-3.815-.055-5.156-.983a3.274 3.274 0 0 1-1.31-1.897l-.307-1.448h2.508"/>
        <path fill="#0E4E80" d="M143.05 192.415s-.677 3.89 3.216 23.014c-3.151 9.967 1.896 26.644 1.896 26.644h3.68l2.503-49.658H143.05"/>
        <path fill="#F58A07" d="M149.728 166.388l1.307 31.585 4.331-1.853s-1.951-5.929-1.766-14.166c-.662-5.957 2.719-2.819-1.424-14.288-1.542-1.284-2.448-1.278-2.448-1.278"/>
        <path fill="#EC967C" d="M150.294 163.125l-.508 2.663a1.696 1.696 0 0 1-2.566 1.12l-1.777-1.114 3.174-7.17 1.677 4.5"/>
        <path fill="#146EB4" d="M139.51 192.415s-4.82 3.89-.927 23.014c-3.151 9.967-.37 26.644-.37 26.644h3.302l9.29-49.658H139.51"/>
        <path fill="#F58A07" d="M146.14 163.711s-4.068 2.285-5.332 4.326c-1.205 1.944-1.622 6.37-1.739 10.31-.158 5.412-2.773 19.626-2.773 19.626h10.907l.272-30.944-1.334-3.318"/>
        <path fill="#1B2441" d="M154.17 155.137c-2.466-.625-4.84 1.903-4.84 1.903l-1.855 9.989-2.854-4.396s-.163-5.974 2.596-9.929c1.975-2.396 5.767-1.708 7.685.622.931 1.133 1.126 2.697 1.036 4.136-.121 1.933-.67 13.026-.67 13.026l-5.65-4.183s.135-1.129.676-3.18c.93-3.53 5.533-7.568 3.876-7.988"/>
        <path fill="#F0AB85" d="M148.592 156.886c.364-.147.836.098 1.053.55.217.45.097.936-.267 1.084-.365.148-.837-.097-1.053-.549-.218-.45-.097-.937.267-1.085"/>
        <path fill="#F0AB85" d="M151.24 163.594c.457.169.907.263 1.205.156 2.146-1.554 2.921-7.762 2.921-7.762l-1.699-1.804-3.384.743-1.666 3.697a3.4 3.4 0 0 0 .138 3.07c.631.855 1.486 1.532 2.484 1.9"/>
        <path fill="#1B2441" d="M154.736 155.008c-.177 1.878-5.405 2.032-5.405 2.032l-.273-2.542 3.05-1.677 2.412 1.45s.243.423.216.737"/>
        <path fill="#1B2441" d="M154.621 155.372c-.173.7.535 1.917.535 1.917l.416-.751-.011-.65-.41-.508s-.355-.706-.53-.008"/>
        <path fill="#F0AB85" d="M141.92 168.037c-5.277.615-2.784 14.223-1.65 19.81a2.365 2.365 0 0 0 3.024 1.79c4.592-1.446 11.3-7.457 11.3-7.457l-1.064-1.338-8.91 2.08s3.418-15.6-2.7-14.885"/>
        <path fill="#FFFFFE" d="M152.478 177.647l-1.723 10.66a.508.508 0 0 0 .501.59h6.823a.51.51 0 0 0 .502-.429l1.693-10.66a.508.508 0 0 0-.502-.588h-6.792c-.25 0-.462.181-.502.427"/>
        <path fill="#F0AB85" d="M160.05 182.367c.043-.375.007-.61-.118-1.385-.163-1.008-.12-2.588-1.15-1.8-.975 1.22-1.087 2.518-1.087 2.518-.199.717.24 1.712.65 2.252l.709 1.543s1.221-1.422.997-3.128"/>
        <g transform="translate(155.03 180.736)">
            <mask id="j" fill="#fff">
                <use xlink:href="#h"/>
            </mask>
            <path fill="url(#i)" d="M.557.626A.52.52 0 1 0 1.6.625.52.52 0 0 0 .557.626" mask="url(#j)"/>
        </g>
    </g>
</svg>
