<svg xmlns="http://www.w3.org/2000/svg" width="239" height="248" viewBox="0 0 239 248">
    <g fill="none" fill-rule="nonzero">
        <path fill="#0E4E80" d="M37.29 49.253H13.82a.852.852 0 0 1-.844-.845v-15.33c0-.46.384-.844.845-.844h23.454c.46 0 .845.384.845.845v15.329a.83.83 0 0 1-.83.845z"/>
        <path fill="#EBEBED" d="M14.143 29.607h22.825v17.02H14.143z"/>
        <path fill="#6EBBF5" d="M23.359 33.616v-1.182c0-.4-.323-.722-.722-.722h-8.924c-.4 0-.722.322-.722.722v18.201c0 .4.323.722.722.722h23.701c.399 0 .721-.323.721-.722V35.06c0-.4-.322-.722-.722-.722H24.096a.725.725 0 0 1-.737-.722z"/>
        <path fill="#F58A07" d="M35.032 31.159v.783h-1.904v-.783h1.904zm.384-.384h-2.688v1.551h2.688v-1.551z"/>
        <path fill="#F7F9FA" d="M174.006 0h23.316v30.873h-23.316z"/>
        <path fill="#F58A07" d="M194.542 1.696V2.77h-2.626V1.696h2.626zm.538-.538h-3.702v2.135h3.702V1.158z"/>
        <path fill="#D1C8CE" d="M176.322 6.949h18.616v1h-18.616zM176.322 8.107h18.616v1h-18.616zM176.322 10.423h18.616v1h-18.616zM176.322 11.581h18.616v1h-18.616zM176.322 13.898h18.616v1h-18.616zM176.322 15.056h18.616v1h-18.616zM176.322 16.214h18.616v1h-18.616zM176.322 18.53h18.616v1h-18.616z"/>
        <g>
            <path fill="#000" d="M105.856 212.25c7.68-.015 19.2 0 19.2 0s21.826-.675 25.19 1.967c3.364 2.642-.937 5.284-16.665 4.623-15.729-.66-25.282 0-30.704-.875-5.422-.891-4.7-5.699 2.98-5.714z" opacity=".15"/>
            <path fill="#FEBAC7" d="M105.165 201.775l-1.029 6.713c.23 4.131 2.888 3.717 5.929 2.55l2.903-5.576-7.803-3.687z"/>
            <path fill="#0E4E80" d="M104.12 208.488l-1.09 5.683a1.541 1.541 0 0 0 1.52 1.827h15.898s.046-4.116-2.012-4.96c-2.058-.846-6.835-.2-7.05-2.55h-2.842s.2 3.133-1.858 2.55c-2.058-.584-2.565-2.55-2.565-2.55z"/>
            <path fill="#FEBAC7" d="M131.43 201.775l1.122 6.713c.23 4.131 2.887 3.717 5.929 2.55l.937-6.652-7.988-2.61z"/>
            <path fill="#0E4E80" d="M139.187 123.61l1.275 15.974 1.582 25.067c.138 2.258 1.167 5.253.015 7.203l-1.704 35.328-8.694-.783s-6.451-32.194-2.243-42.255l-5.345-25.19 1.198-5.56 13.916-9.785z"/>
            <path fill="#FEBAC7" d="M149.232 90.908l2.412 6.528 7.634-18.97 4.208 1.752s-5.545 26.772-9.845 29.383c-4.301 2.611-14.607-16.819-14.607-16.819l10.198-1.874z"/>
            <path fill="#F58A07" d="M126.485 74.55s-21.166-1.075-22.349 0c-1.183 1.075-10.183 18.324-10.183 18.324s1.996 2.412 4.93 3.18c2.95.753 11.151 1.044 11.151 1.044l-2.12 25.56a.997.997 0 0 0 .999 1.074l30.259-.138a1 1 0 0 0 .998-.968l1.06-28.139 9-4.04s-5.56-13.209-6.727-13.808c-1.152-.584-17.018-2.089-17.018-2.089z"/>
            <path fill="#031162" d="M99.835 96.254a9.833 9.833 0 0 1-.937-.2c-2.949-.753-4.93-3.18-4.93-3.18s1.874 1.383 4.531 1.46c.891.03 1.244.844 1.336 1.92z"/>
            <path fill="#FEBAC7" d="M135.01 59.682s-.646 2.795-.8 4.792c-.153 1.997-.476 4.316-3.194 5.192-2.719.875-2.32.645-2.32.645-.092 1.92.983 2.995 1.751 4.608a7.62 7.62 0 0 1-8.616.353l-1.598-.998s2.857-5.192 1.828-7.588c-1.044-2.396-.799-7.496-.799-7.496s.845-2.073 4.24-2.749c3.056-.614 10.552-2.765 9.507 3.24z"/>
            <path fill="#000D41" d="M110.51 95.747h-.03a.206.206 0 0 1-.17-.23c1.905-12.181-1.013-16.866-1.044-16.912a.2.2 0 1 1 .338-.215c.123.2 3.026 4.87 1.106 17.203-.015.092-.092.154-.2.154zM141.2 92.752h-.016a.215.215 0 0 1-.184-.215l1.075-12.334c.015-.108.107-.2.215-.185a.215.215 0 0 1 .184.215L141.4 92.567c-.015.092-.092.185-.2.185z"/>
            <path fill="#FEBAC7" d="M133.919 114.67s-25.943 5.284-26.71 3.563c-6.16-13.87-8.725-23.9-8.725-23.9 11.105-2.488 11.581 2.366 11.581 2.366l2.765 15.513 19.921-1.705s-.138-2.027 1.245-2.964l1.597-3.072a.787.787 0 0 1 1.567.062l-.907 2.334 3.825-1.828 3.594.139a.777.777 0 0 1 .738.706c.03.43-.292.814-.722.83l-2.489.122-.86.646.415.092c.568.123.921.69.799 1.26-.108.506-.569.86-1.076.844l-.522-.015.016.276.552.215a.683.683 0 0 1 .415.814l-.03.108a.695.695 0 0 1-.769.507l-.983-.154-.138.307.292.108a.687.687 0 0 1 .307 1.075.67.67 0 0 1-.69.246l-.892-.2c0-.046-2.626 1.766-4.116 1.705z"/>
            <path fill="#031162" d="M120.233 52.478c2.995-1.213 10.737-1.367 11.382-4.516 0 0 4.516 1.69 4.761 5.253.123 1.813-.2 3.165-.875 4.01.722 1.935-.906 4.484-.906 4.484.2-1.367-.262-2.688-.66-3.517a3.89 3.89 0 0 1-1.276.03c-2.503-.322-6.051-1.781-6.051-1.781l.906 1.69a2.873 2.873 0 0 1-1.152 3.886l-.323 4.009s-.568-3.871-2.503-3.272c-1.936.599-1.69 3.318-.492 3.963h-.998c-2.458-2.565-4.025-5.607-3.994-9.447 0-.03-.814-3.594 2.181-4.792z"/>
            <path fill="#FFC53A" d="M130.156 73.29s-3.932 2.765-9.938-.798l-.968 1.812s1.782 2.612 6.559 2.704c3.67.061 5.468-1.982 5.468-1.982l-1.121-1.735z"/>
            <path fill="#FEBAC7" d="M159.355 78.805s-1.92-3.364-1.92-5.315v-4.362a.778.778 0 1 1 1.551-.108l.292 2.151a.55.55 0 0 0 .553.476c.26 0 .491-.2.537-.46l1.23-7.005a.892.892 0 0 1 1.765.246l-.414 4.193s1.536 0 1.766.123c.154.077.415.753.568 1.198.093.246.292.43.553.476l.062.016a.706.706 0 0 1 .568.537l.215.83a.72.72 0 0 0 .353.46c.292.154.43.477.37.8l-.416 1.842-3.578 5.438-4.055-1.536z"/>
            <path fill="#EB8195" d="M162.043 75.979c.353-.722.798-2.181-.615-3.15a.685.685 0 0 1-.23-.89l1.766-3.318-1.305 3.118c-.215.523.184 1.122.752 1.06h.016c.568-.061 1.213-1.198 1.505-1.766a.182.182 0 0 1 .322 0c.046.077.031.169-.046.215-.338.292-1.167 1.428-1.136 1.782.046.353.322.906 1.827-.093-.353.262-.706.584-.814.814-.23.507-.153.937.86.753 1.014-.2 1.92-1.183 1.92-1.183l.37.553-.231 1.03c.03 0-3.702-.784-4.961 1.075z"/>
            <path fill="#146EB4" d="M109.082 123.732l-1.198 10.076a21.46 21.46 0 0 0-.03 4.762l2.61 25.128s-5.299 12.442-7.71 41.072l9.123 3.088 11.32-37.97a8.248 8.248 0 0 0 1.598-4.346l1.813-28.216c7.295-2.181 11.55-6.759 12.748-13.732l-30.274.138z"/>
            <path fill="#0E4E80" d="M132.552 208.488l-1.09 5.683a1.541 1.541 0 0 0 1.52 1.827h15.897s.046-4.116-2.012-4.96c-2.058-.846-6.835-.2-7.05-2.55h-2.842s.2 3.133-1.858 2.55c-2.058-.584-2.565-2.55-2.565-2.55z"/>
        </g>
        <g transform="translate(143.764 54.644)">
            <path fill="#000" d="M.154 151.816c.307-3.67 9.016-3.333 13.823-4.454 4.808-1.121 17.188-.277 20.475.107 3.287.384 11.996.2 11.996 4.347 0 0-.108 3.272-3.563 3.272-3.456 0-36.557.583-38.415 0-1.859-.569-4.608.4-4.316-3.272z" opacity=".15"/>
            <path fill="#0E4E80" d="M24.146 149.558c3.425-1.828 6.174-3.963 7.756-6.62h6.42v6.897a.892.892 0 0 1-1.781 0v-2.32l-.814 1.168a4.8 4.8 0 0 1-3.917 2.043h-7.234a.653.653 0 0 1-.63-.83.687.687 0 0 1 .2-.338z"/>
            <path fill="#FEBAC7" d="M28.969 146.333h4.04l2.994-3.395h2.32v-6.45H31.84l.415 5.836z"/>
            <path fill="#0E4E80" d="M38.323 136.487s2.12-22.226 0-29.199L36.77 72.713l-13.224 1.89 5.422 32.685 2.872 29.2h6.482zM7.357 149.558c3.426-1.828 6.175-3.963 7.757-6.62h6.42v6.897a.892.892 0 0 1-1.781 0v-2.32l-.814 1.168a4.8 4.8 0 0 1-3.917 2.043H7.787a.653.653 0 0 1-.63-.83.519.519 0 0 1 .2-.338z"/>
            <path fill="#FEBAC7" d="M12.18 146.333h4.025l3.01-3.395h2.32l.276-6.42-5.929-.584-.43 6.39z"/>
            <path fill="#0E4E80" d="M22.103 136.794s3.809-21.995 2.242-29.107l1.383-34.574-11.597.752.89 33.116.615 29.337 6.467.476z"/>
            <path fill="#EB8195" d="M5.192 41.902s-1.29 16.85 3.21 16.465C12.887 58 11.72 38.2 11.72 38.2l-6.528 3.702z"/>
            <path fill="#146EB4" d="M21.181 22.948s12.38.568 13.947 1.152c9.907 3.717 12.119 19.63 12.119 19.63s-.615 1.32-3.702 2.104c-3.087.798-5.192.66-5.192.66l-2.365 10.383-21.872-1.106L9.707 43.76l-6.22-1.26s.706-13.47 6.374-17.11c1.183-.722 11.32-2.442 11.32-2.442z"/>
            <path fill="#031162" d="M45.788 44.989l-.123-.046.076-1.767c.6.031 1.076.246 1.506.569 0-.016-.292.614-1.46 1.244z"/>
            <path fill="#146EB4" d="M36.003 56.877l4.347 15.729c.691 2.258.922 4.608.691 6.958-.737 7.557-1.797 3.717-1.044 9.492 1.26 9.523.83 14.976.83 14.976s-17.726 2.534-29.952 0l3.271-48.26 21.857 1.105z"/>
            <path fill="#FEBAC7" d="M12.272 7.526s.676 2.919.83 5.008c.169 2.089.507 4.515 3.348 5.437 2.842.922 2.427.676 2.427.676.092 2.012-1.029 3.133-1.828 4.823l2.197 5.606c.814 2.089 3.686 2.289 4.792.338l3.702-6.62s-3.763-2.304-2.673-4.823c1.09-2.504 2.673-9.416 2.673-9.416s-1.95-3.701-5.514-4.408c-3.21-.645-7.895 1.598-9.954 3.38z"/>
            <path fill="#EB8195" d="M15.698 16.68c-.261.231-.23.615-.154.907a4.05 4.05 0 0 1-1.413-1.26l1.843-.69s.184.644-.276 1.044z"/>
            <path fill="#031162" d="M24.13 10.89s1.92-.691 2.105.891c.184 1.582-.17 4.04-1.045 4.685-.89.645-1.46-.4-1.46-.4l.554 2.734a9.122 9.122 0 0 0 1.628 3.702c.491.66 1.06 1.229 1.613 1.29 1.397.185 5.514.108 4.869-2.242-.645-2.35-5.822-2.427-3.963-5.99 1.859-3.564 2.304-10.599-.906-13.026-3.21-2.426-6.451-.89-6.451-.89s.076-1.859-5.422-1.46c-5.5.4-8.77 5.699-4.148 8.264 4.624 2.565 11.582-.43 11.582-.43s-.784 2.657 1.044 2.872z"/>
            <circle cx="25.39" cy="16.681" r="1" fill="#E6E7E8"/>
            <path fill="#FEBAC7" d="M45.741 43.176s-6.328.6-9.922 2.627L36.833 61.1l-20.92 4.731 1.106 4.393s24.667.691 25.743-2.642c4.454-13.854 2.98-24.407 2.98-24.407z"/>
            <path fill="#E6E7E8" d="M.599 60.318l9.876-1.582c.369-.062.768.184.907.537l4.162 10.998c.138.353-.061.691-.415.753l-9.876 1.582c-.369.061-.768-.185-.906-.538L.184 61.071c-.138-.354.046-.692.415-.753z"/>
            <path fill="#FFF" d="M15.175 70.332l-4.162-10.997c-.138-.353-.538-.6-.906-.538l.353-.061c.369-.062.768.184.906.537l4.163 10.998c.138.353-.062.691-.415.753l-.353.061c.368-.061.553-.4.414-.753z"/>
            <path fill="#FEBAC7" d="M16.788 67.276s-.43-2.504-2.027-2.796c-1.352-.245-1.49-.184-1.49-.184l.599 1.582s-3.456.384-4.885-.123c0 0-.522.6.185 1.122 0 0-.937 1.075 0 1.766 0 0-.707.968.491 1.044 0 0-.245.738 1.214 1.122 1.459.384 6.39-.6 6.39-.6l-.477-2.933z"/>
            <path fill="#EB8195" d="M19.03 28.554l-1.98-5.084c.337-.722.737-1.337 1.09-1.966l1.46-.23s.598 1.766-.231 2.595c-.016 0 .768 2.642-.338 4.685z"/>
            <path fill="#FEBAC7" d="M17.694 29.03s2.827-4.224.646-6.282c0 0 .829.307 1.12-.722.293-1.03.154-1.644-1.566-2.32-1.72-.675-2.826-.783-2.826-.783s-1.213-1.152-.522-1.966c.69-.814 1.428-.384 1.52-1.966.092-1.582-1.228-.783-1.228-.476 0 .307-.354 1.244-1.444 1.843-1.106.584.061 2.842.061 2.842l.63 9.231 3.61.599z"/>
            <path fill="#FEBAC7" d="M17.694 29.03s-.69 29-8.77 29.353C.922 58.72 10.076 33.576 14.1 28.4l3.594.63z"/>
            <path fill="#000D41" d="M35.543 44.252a.212.212 0 0 1-.2-.154c-.015-.061-1.905-6.605 0-17.48.015-.107.123-.184.246-.168.107.015.184.122.169.245-1.874 10.783-.031 17.234 0 17.295.03.108-.031.23-.139.262-.03-.016-.046 0-.076 0z"/>
            <ellipse cx="23.408" cy="55.787" fill="#FF654D" rx="2.811" ry="1.828"/>
            <path fill="#000D41" d="M34.483 56.026h-6.574c-.123 0-.215-.1-.215-.235 0-.134.092-.235.215-.235h6.574c.123 0 .215.101.215.235 0 .135-.092.235-.215.235zM19.369 56.026h-4.27c-.123 0-.215-.1-.215-.235 0-.134.092-.235.215-.235h4.27c.123 0 .215.101.215.235 0 .135-.092.235-.215.235z"/>
        </g>
        <g>
            <path fill="#000" d="M76.734 201.437c.077.016.123-.015.185-.046.245-.107.506-.215.752-.307 1.321-.522 2.734-.63 4.147-.691 4.286-.184 8.54.323 12.81.568 1.03.062 2.059.154 3.088.2.89.046 1.797.03 2.688.061 1.536.046 3.072.031 4.623.031.645 0 1.29-.015 1.935 0 .538.015 1.06.108 1.598.154a22.21 22.21 0 0 1 3.195.445c.69.154 1.459.323 2.073.691.338.215.737.523.845.922.184.676-.169 1.29-.645 1.736-.307.291-.66.506-1.03.706-.767.4-1.673.476-2.518.568-1.152.123-2.32.246-3.472.308-1.536.076-3.087.03-4.638.03h-6.252c-.875 0-1.75-.03-2.626-.046-.906-.015-1.813-.123-2.719-.23-.89-.108-1.782-.138-2.688-.23-1.044-.108-2.089-.323-3.118-.507-1.843-.338-3.686-.707-5.53-1.06-.46-.092-.921-.215-1.382-.323-.43-.107-.845-.26-1.26-.4-.306-.091-.767-.23-.92-.537-.124-.215-.108-.414-.108-.66l.967-1.383z" opacity=".15"/>
            <path fill="#0E4E80" d="M91.096 195.6c-.154 2.535-.108 5.085-.077 7.635h1.09c.123-1.567.246-3.15.37-4.716.168 1.106.43 2.197.798 3.256.138.415.307.845.63 1.168.506.491 1.29.568 1.996.614 2.304.154 4.624.246 6.943.307-2.657-2.887-4.73-6.267-6.16-9.907-.552-1.398-1.843-2.642-3.532-2.15-1.598.445-1.982 2.38-2.058 3.794z"/>
            <path fill="#FEBAC7" d="M93.139 192.59a.496.496 0 0 0 .46.461l1.52.123c.124.015.277.015.37-.062.092-.061.122-.184.153-.291a78.616 78.616 0 0 0 1.736-8.203c-.123.507-4.07-.215-4.67 1.521-.291.876-.015 1.95.077 2.826.138 1.214.246 2.427.354 3.625z"/>
            <path fill="#FEBAC7" d="M96.84 199.855c.968.446 2.09.784 3.088.4.015 0 .03-.016.046-.016a31.878 31.878 0 0 1-3.287-6.297c-.292-.768-.814-1.475-1.506-1.89-.26-.06-.553-.076-.814.016-.338.123-.66.43-1.013.338l-.215.246c-.093 1.413-.185 2.903.399 4.208.63 1.383 1.935 2.35 3.302 2.995z"/>
            <path fill="#0E4E80" d="M79.99 195.6c-.153 2.535-.107 5.085-.076 7.635h1.09l.369-4.716c.169 1.106.43 2.197.799 3.256.138.415.307.845.63 1.168.506.491 1.29.568 1.996.614 2.304.154 4.623.246 6.943.307-2.657-2.887-4.731-6.267-6.16-9.907-.552-1.398-1.843-2.642-3.532-2.15-1.582.445-1.966 2.38-2.058 3.794z"/>
            <path fill="#FEBAC7" d="M82.033 192.59a.496.496 0 0 0 .461.461l1.52.123c.124.015.277.015.37-.062.092-.061.122-.184.153-.291a78.616 78.616 0 0 0 1.736-8.203c-.123.507-4.07-.215-4.67 1.521-.292.876-.015 1.95.077 2.826.138 1.214.246 2.427.353 3.625z"/>
            <path fill="#031162" d="M101.955 73.03c-.092.875-.092 1.781.138 2.641.369 1.337 1.352 2.735.768 3.994-.2.43-.568.768-.921 1.106-.553.507-1.122 1.029-1.843 1.213-1.03.261-2.15-.245-2.842-1.044-.691-.814-1.014-1.874-1.198-2.918-.062-.4-.108-.815-.015-1.199.276-1.182 1.597-1.735 2.503-2.55 1.168-1.044 1.582-3.885 2.826-4.561 1.982-1.137.66 2.473.584 3.318z"/>
            <path fill="#0E4E80" d="M84.138 138.14c1.92 8.448 3.133 15.022 3.517 23.377.323 7.158 1.92 17.956 2.365 25.098h8.064c.615-17.141 1.23-38.046 1.844-55.187.107-2.98-2.596-7.066-4.301-9.508-.906-1.29.522-1.367-.799-2.227a52.99 52.99 0 0 0-6.666-3.656c-.845-.384-1.751-.753-2.657-.63-.922.123-1.69.722-2.381 1.337-5.36 4.792-8.494 11.98-8.356 19.169l9.37 2.227z"/>
            <path fill="#146EB4" d="M78.455 142.195c.967 13.685 1.459 31.15 1.459 44.85 2.61-.077 5.207-.169 7.818-.245 1.797-14.623 4.808-32.855 9-46.97 1.352-4.547 3.871-19.922 1.552-23.363-.753-1.121-1.09-2.335-2.411-2.596-3.994 0-4.255.63-7.65 2.596-2.257 1.306-4.715 2.611-6.39 4.67-4.469 5.483-3.84 14.53-3.378 21.058z"/>
            <path fill="#031162" d="M98.914 113.595c-2.504-.277-9.216 2.688-14.884 5.514-.799.599-1.551 1.275-2.18 2.043-2.643 3.225-3.503 7.71-3.672 12.18 2.965.415 10.307.615 15.39-6.128 0 0 2.182-3.165 3.979-2.888 1.797.276 2.104 4.73 5.16 5.069.293-.2.584-.4.907-.569 1.551-2.78-.614-14.776-4.7-15.221z"/>
            <path fill="#75BDF3" d="M116.255 94.042c.108.153.23.307.415.353.276.061.522-.184.706-.4 2.227-2.657 4.455-5.314 6.682-7.986-.108 1.628 1.797 3.04 3.318 2.457-1.951 4.577-3.902 9.17-5.837 13.747-.23.538-.461 1.075-.845 1.505-1.306 1.46-3.64 1.045-5.514.461a131.84 131.84 0 0 1-13.517-4.976c-.307-.139-.614-.277-.814-.538-.215-.292-.246-.691-.276-1.06-.2-3.763-3.303-19.184 2.027-18.309 4.286.707 11.459 11.674 13.655 14.746z"/>
            <path fill="#75BDF3" d="M77.687 80.894c-4.578 5.1-2.827 9.216.138 15.406 3.18 6.65 3.947 15.897 3.993 16.235.062.384-.061.753-.184 1.121l-4.393 12.995c-.752 2.242.999 4.546 3.364 4.423h.061c.753-.03 1.506-.061 2.258-.077 8.71-.184 15.637-7.388 15.39-16.097v-.169c.154 2.443.323 4.885.508 7.327.43 5.56 5.176 9.8 10.752 9.57h.168c2.888-.124.354-4.378.354-4.378-3.349-4.639-5.422-8.648-7.035-15.775-.261-1.152 2.411-12.533 3.778-17.556.999-3.671 2.335-7.803.4-11.075-1.229-2.104-3.579-3.317-5.93-3.962-2.35-.645-4.807-.83-7.157-1.475-2.718-.737-5.483-2.089-8.217-1.413l-8.248 4.9z"/>
            <path fill="#146EB4" d="M94.168 77.422c-1.936-.522-3.886-1.351-5.837-1.55-.369.03-.737.076-1.106.122l-.323 3.072a208.49 208.49 0 0 1 13.67 24.3c1.613-6.667 2.013-13.564 2.366-20.414.062-1.213.077-2.55-.338-3.656a17.645 17.645 0 0 0-1.275-.414c-2.35-.63-4.807-.83-7.157-1.46z"/>
            <path fill="#FEBAC7" d="M93.553 77.238c-.153-.046-.322-.092-.476-.153-.03-.016-.061-.016-.092-.031-.138-.046-.277-.092-.4-.123-.214-.061-.414-.138-.63-.2-.706.4-1.213 1.06-1.412 2.135-.676 3.763 3.993 8.08 7.572 7.788.507-.046 1.014-.17 1.444-.446.553-.368.922-.952 1.213-1.551.66-1.382.461-4.408-.507-6.006-2.012-.445-4.085-.676-6.082-1.213l-.507-.138c-.046-.031-.092-.046-.123-.062z"/>
            <path fill="#FEBAC7" d="M103.43 69.666c.015 2.258-.845 4.9-3.01 5.53-.646.184-1.353.168-2.013.307-.66.138-1.352.506-1.567 1.151-.322.999.615 2.15.123 3.072-.215.4-.645.646-1.075.8a6.567 6.567 0 0 1-2.78.43c-.446-.031-.906-.108-1.244-.385-.86-.722-.43-2.089-.108-3.18 1.321-4.561-1.167-9.353-.937-14.1.062-1.213.323-2.472 1.075-3.425.753-.937 1.905-1.474 3.042-1.843 1.874-.614 3.978-.906 5.806-.138 1.904.799 2.887 2.672 2.826 4.67-.092 2.395-.154 4.7-.138 7.11z"/>
            <path fill="#031162" d="M92.447 73.736c.093-.906.338-1.812.323-2.719-.015-1.336-.538-2.61-.998-3.87-.185-.522-.37-1.09-.262-1.644.108-.553.646-1.044 1.183-.937.46.108.722.569.922.999.353.798.583 1.643.722 2.519.03.2.061.43.215.568.23.215.599.108.89-.015 3.011-1.321 5.223-4.347 5.545-7.619 2.458 1.782 2.458 4.332 2.443 6.79.46-1.982.906-3.994.783-6.022-.123-2.027-.89-4.1-2.504-5.345-1.843-1.428-4.393-1.505-6.712-1.244-2.918.338-6.052 1.305-7.634 3.778-1.981 3.088-.798 7.127-1.136 10.783-.046.538-.139 1.09-.384 1.567-.369.737-1.06 1.244-1.613 1.858-.707.768-1.198 1.767-1.183 2.811.016 1.044.63 2.104 1.628 2.442.461.154.968.17 1.383.384 1.029.522 1.136 1.982 1.95 2.796.63.63 1.567.798 2.412 1.06 1.336.414 2.58 1.136 3.947 1.397.799.139 3.303.046 3.456-1.152.108-.814-1.075-1.09-1.659-1.413-2.734-1.505-4.04-4.67-3.717-7.772z"/>
            <path fill="#75BDF3" d="M66.889 103.534c0 .384.015.768.184 1.121.23.477.691.8 1.167 1.03 1.23.614 2.627.875 3.994 1.09a143.586 143.586 0 0 0 18.846 1.797c-.414-1.275-.061-2.765.876-3.717a209.905 209.905 0 0 1-12.964-3.917c-.43-.138-3.302-.384-3.41-.814-.061-.26.645-3.317.753-3.563 1.536-3.303 7.864-1.214 10-4.163 2.918-4.04 2.457-15.052-4.64-13.347-5.898 1.413-10.444 8.34-12.61 13.562-1.474 3.456-2.242 7.189-2.196 10.921z"/>
            <path fill="#FFF" d="M93 104.01c-.015 0-.015-.015 0 0a35.511 35.511 0 0 1-12.61-2.734c-.092-.046-.154-.153-.108-.26.046-.093.154-.154.262-.108a35.216 35.216 0 0 0 12.472 2.703c.107 0 .2.092.184.2-.015.107-.108.2-.2.2zM89.068 108.695c-1.997 0-3.993-.184-5.975-.538-.107-.015-.169-.122-.153-.23a.185.185 0 0 1 .23-.154c2.796.507 5.637.66 8.463.43.108-.015.2.077.215.185.016.107-.076.2-.184.215-.86.061-1.736.092-2.596.092z"/>
            <path fill="#FEBAC7" d="M97.716 102.582c.338-.016.706-.016.998.153.292.17.46.615.23.876-.598.138-1.182.261-1.781.4-.17.03-.338.091-.43.23-.092.169.015.399.184.491.169.092.369.108.568.108.814 0 1.736-.17 2.15-.86.185-.308.231-.692.4-1.014.154-.323.507-.615.86-.507.4.123.492.66.415 1.075a3.001 3.001 0 0 1-.83 1.567c.292.445.216 1.014.108 1.536-.154.768-.4 1.597-1.03 2.073-.368.277-.813.4-1.274.492a8.277 8.277 0 0 1-4.147-.277c-2.181-.721-1.72-2.411-.89-4.1.844-1.767 2.702-2.182 4.469-2.243zM127.637 88.497c.875-.323 1.628-.906 2.35-1.49 1.213-.998 2.411-2.12 2.918-3.625a.539.539 0 0 0-.061-.507c-.154-.23-.384-.2-.569-.092-.338.184-.522.553-.752.86-.23.307-.615.584-.968.446.415-.553.845-1.106 1.26-1.675.23-.307.476-.63.46-1.044 0-.246-.138-.492-.368-.584-.492-.215-.937.369-1.275.784-.369.476-.86.86-1.413 1.09l2.12-2.81c.184-.246.291-.554.245-.845-.061-.615-.614-.738-1.044-.6-.983.292-1.613 1.936-2.443 2.842-.138.154-.368-.015-.26-.2l.998-1.766c.338-.691-.645-1.29-1.076-.645 0 0 0 .015-.015.015-.368.553-1.06 2.074-1.305 2.688-.23.615-.692 1.244-1.352 1.321-.614.062-1.152-.353-1.72-.599-.569-.246-1.414-.184-1.582.415-.323 1.198 1.628 1.183 2.12 1.812.43.569.122 1.106.015 1.736-.323 2.196 1.858 3.149 3.717 2.473z"/>
            <path fill="#D67487" d="M127.007 86.67s-.015 0 0 0c-.062 0-.092-.047-.092-.108a5.771 5.771 0 0 0-.077-1.782c-.092-.476-.23-.845-.43-1.137-.246-.353-.584-.599-.952-.66-.047-.016-.093-.062-.077-.108.015-.046.061-.092.107-.077.415.077.799.338 1.075.738.215.307.37.69.461 1.213.123.6.138 1.229.077 1.828 0 .061-.046.092-.092.092zM130.709 84.626c-.031 0-.047-.015-.062-.03a10.272 10.272 0 0 0-3.164-2.043c-.046-.016-.077-.077-.046-.123.015-.046.077-.077.123-.046a10.293 10.293 0 0 1 3.21 2.073c.03.031.046.092 0 .139-.015.015-.03.03-.061.03z"/>
            <path fill="#FEBAC7" d="M85.75 199.855c.968.446 2.09.784 3.088.4.015 0 .03-.016.046-.016a31.878 31.878 0 0 1-3.287-6.297c-.292-.768-.814-1.475-1.505-1.89-.261-.06-.553-.076-.814.016-.338.123-.66.43-1.014.338l-.215.246c-.092 1.413-.185 2.903.4 4.208.614 1.383 1.92 2.35 3.301 2.995z"/>
            <path fill="#FFF" d="M96.687 98.604h-.046a58.201 58.201 0 0 1-9.247-3.456c-.323-.154-.691-.369-.707-.768-.015-.246.108-.446.2-.6l2.965-4.792a68.136 68.136 0 0 1-7.726-.399l-.185-.015v-.185a50.051 50.051 0 0 1 1.168-8.816.204.204 0 0 1 .23-.154c.108.031.169.123.154.23a48.729 48.729 0 0 0-1.152 8.571c2.595.277 5.237.4 7.864.369h.353L87.21 93.98c-.077.139-.154.261-.154.369.015.2.277.353.492.445a57.955 57.955 0 0 0 9.185 3.426c.107.03.169.138.138.245-.015.077-.092.139-.184.139zM102.523 99.11a.174.174 0 0 1-.123-.046c-.076-.076-.092-.2-.015-.276a48.638 48.638 0 0 0 4.639-6.129 9.668 9.668 0 0 1-2.796-2.949l-.123-.2.215-.076a10.243 10.243 0 0 1 4.025-.63c-.369-1.075-.968-2.058-1.552-3.026l-2.626-4.347c-.062-.092-.03-.215.061-.26.092-.062.215-.031.261.06l2.627 4.348c.645 1.06 1.306 2.165 1.674 3.379l.092.276-.292-.015a10.063 10.063 0 0 0-3.932.507 8.95 8.95 0 0 0 2.704 2.718l.169.108-.108.169a48.265 48.265 0 0 1-4.777 6.343c-.015.031-.077.047-.123.047z"/>
        </g>
        <g>
            <path fill="#000" d="M172.58 214.54c-.769.045-1.49.46-1.844 1.151-.906 1.751 1.413 3.042 3.195 3.41a151.377 151.377 0 0 0 47.508 2.289c3.164-.353 6.59-.983 9.4-2.396 2.365-1.183 1.705-4.731-.922-5.023-4.254-.476-9.461-1.106-10.337-1.121-4.285-.092-8.555.03-12.825-.077-11.32-.292-22.902 1.198-34.176 1.766z" opacity=".15"/>
            <path fill="#0E4E80" d="M198.123 217.458c2.242-1.198 4.024-2.596 5.068-4.316h4.194v4.5a.583.583 0 1 1-1.168 0v-1.52l-.537.767a3.139 3.139 0 0 1-2.565 1.337h-4.716a.427.427 0 0 1-.415-.538.422.422 0 0 1 .139-.23z"/>
            <path fill="#FE91A6" d="M201.271 215.353h2.627l1.966-2.227h1.505v-4.193h-4.224l.261 3.794z"/>
            <path fill="#0E4E80" d="M207.43 217.458c2.243-1.198 4.025-2.596 5.07-4.316h4.193v4.5a.583.583 0 1 1-1.168 0v-1.52l-.537.767a3.139 3.139 0 0 1-2.565 1.337h-4.716a.427.427 0 0 1-.415-.538.35.35 0 0 1 .139-.23z"/>
            <path fill="#FEBAC7" d="M210.58 215.353h2.626l1.966-2.227h1.505v-4.193h-4.224l.261 3.794z"/>
            <path fill="#031162" d="M196.05 68.56s6.926 12.672 3.071 18.247c-3.855 5.576 4.393 4.086 4.393 4.086s4.546-11.812.983-18.447c-3.563-6.636-8.448-3.886-8.448-3.886z"/>
            <path fill="#0E4E80" d="M197.201 128.693s-3.44 7.788-2.857 16.45c.584 8.68 2.965 24.438 2.965 24.438l5.683 40.888h4.577s.691-30.074-.03-40.888l.506-40.888h-10.844z"/>
            <path fill="#FE91A6" d="M191.748 93.55s-3.24 9.447 7.757 26.757c0 0-21.35 3.932-23.93 4.623-2.58.692-2.704 3.502-2.704 3.502h33.193L191.748 93.55z"/>
            <path fill="#146EB4" d="M197.201 128.693h25.62s2.995 8.71 1.352 20.153c-1.644 11.427-5.73 25.359-5.73 25.359s2.458 17.34-1.336 36.264h-5.13l-4.439-40.888-1.889-28.293c-.015 0-10.69.722-8.448-12.595z"/>
            <path fill="#0E4E80" d="M222.821 128.693h-25.62c-.015.062-.015.139-.03.2h6.466s16.588-.061 20.336 4.777c-.522-3.118-1.152-4.977-1.152-4.977z"/>
            <path fill="#FFC53A" d="M207.2 83.428s-22.164 2.934-13.578 15.544c2.489 3.656 2.166 6.574 3.856 13.624 2.211 9.247-.323 16.097-.323 16.097h25.62c-5.821-5.222 7.404-34.037 6.175-37.232-4.224-10.967-21.75-8.033-21.75-8.033z"/>
            <path fill="#031162" d="M218.874 95.025s2.18 9.047 5.115 14.76c.814-2.795 1.69-5.56 2.488-8.079l-7.603-6.681z"/>
            <path fill="#FEBAC7" d="M222.376 86.362c-1.29.046-1.813.046-2.734.937-1.475 1.428-1.859 3.932-.615 8.279 1.675 5.852 9.984 23.838 9.984 23.838-9.523 1.09-18.247 3.118-27.862 4.639-9.032.691-9.938 4.654-9.938 4.654h9.354s36.126 1.32 37.8-2.842c1.567-3.87-4.73-39.89-15.99-39.505zM196.05 68.56s-1.045 8.847 3.255 10.829c4.286 1.98 4.178 4.331 4.178 4.331s-3.01 7.05 1.429 7.757c4.439.706 10.69-9.754 10.69-9.754s-3.886 1.306-4.208-2.135c-.323-3.44.998-12.195-.907-14.53-1.92-2.35-13.685-4.685-14.438 3.502z"/>
            <path fill="#031162" d="M195.773 64.658a2.518 2.518 0 0 0 1.566 3.794c.953.23 2.12.354 3.333.123 3.026-.553 4.808-1.136 4.808-1.136s3.855 6.789 2.488 13.7c-1.367 6.912-.86 11.95 3.564 13.24 4.423 1.29-.691-10.367 8.34-10.367 0 0-4.208-7.68-4.777-15.345-.568-7.649-8.647-9.016-14.653-7.188-2.58.799-3.947 2.028-4.67 3.18z"/>
            <path fill="#BCBEC0" d="M211.378 130.798h-36.387v-2.181h38.138v.43a1.75 1.75 0 0 1-1.75 1.75z"/>
            <path fill="#E6E7E8" d="M202.377 130.86h-30.811c-.922 0-1.89-.753-2.15-1.675l-5.453-19.108c-.262-.921.276-1.674 1.198-1.674h30.796c.922 0 1.874.753 2.15 1.674l5.453 19.108c.277.922-.261 1.674-1.183 1.674z"/>
            <path fill="#000" d="M107.515 243.615c-.645-4.055-18.862-3.67-28.938-4.915-10.076-1.244-35.988-.307-42.869.108-6.88.414-25.113.215-25.113 4.792 0 0 .23 3.625 7.465 3.625 7.234 0 76.538.645 80.44 0 3.9-.645 9.66.445 9.015-3.61z" opacity=".15"/>
            <path fill="#0E4E80" d="M47.796 234.814v6.144c0 1.014.83 1.843 1.844 1.843h3.317l.277-.43a.799.799 0 0 1 1.367.031l.23.4h10.153c.707 0 1.03-.876.507-1.337l-7.588-6.65H47.796zM62.496 228.67l-.753 6.098a1.849 1.849 0 0 0 1.613 2.058l3.302.4.323-.384a.8.8 0 0 1 1.351.2l.185.43 10.076 1.244c.691.092 1.136-.738.66-1.26l-6.712-7.542-10.045-1.244z"/>
            <path fill="#0E4E80" d="M70.099 133.486l9.907 56.862-7.496 39.551-10.122-1.213s3.118-38.477 3.118-39.106c0-.63-12.426-32.532-12.426-32.532l4.424-18.555 12.595-5.007z"/>
            <path fill="#146EB4" d="M36.46 133.486s-2.426 19.752 1.445 37.984c3.87 18.233 9.615 63.344 9.615 63.344h10.49s-.43-76.154 0-76.584c.43-.43 5.883-2.565 9.217-6.789 4.715-5.975 2.856-17.955 2.856-17.955H36.461z"/>
            <path fill="#E6E7E8" d="M53.864 134.023h7.94v3.978h-7.94z"/>
            <path fill="#000D41" d="M53.096 137.704H37.244a.239.239 0 0 1-.23-.235c0-.126.107-.235.23-.235h15.852c.122 0 .23.11.23.235a.239.239 0 0 1-.23.235zM53.096 134.8H37.244a.239.239 0 0 1-.23-.234c0-.126.107-.235.23-.235h15.852c.122 0 .23.11.23.235a.239.239 0 0 1-.23.235zM69.607 137.704h-7.296a.239.239 0 0 1-.23-.235c0-.126.108-.235.23-.235h7.296c.123 0 .23.11.23.235a.239.239 0 0 1-.23.235zM69.607 134.8h-7.296a.239.239 0 0 1-.23-.234c0-.126.108-.235.23-.235h7.296c.123 0 .23.11.23.235a.239.239 0 0 1-.23.235z"/>
            <path fill="#FEBAC7" d="M79.99 97.283l4.977 27.11s1.275 4.285-.921 5.207c-2.197.921-10.46 0-10.46 0l-.615 1.336H70.99s-1.905-4.27-.907-5.468c.984-1.198 4.132-1.551 4.132-1.551l-4.761-23.962 10.537-2.672z"/>
            <path fill="#FFC53A" d="M55.983 77.453s-24.422-1.244-25.774 0c-1.351 1.244-12.134 21.043-12.134 21.043s.676 1.46 4.07 2.335c3.395.875 14.884 2.626 14.884 2.626l-2.442 29.491a1.146 1.146 0 0 0 1.152 1.244l34.897-.153c.63 0 1.137-.507 1.168-1.122l1.229-32.47 10.383-4.654s-6.405-15.237-7.772-15.928c-1.367-.692-19.66-2.412-19.66-2.412z"/>
            <path fill="#031162" d="M22.146 100.8c.768.2 1.95.446 3.317.691-.015-.46-.46-.937-2.089-1.106-3.655-.414-5.314-1.92-5.314-1.92s.691 1.46 4.086 2.335z"/>
            <path fill="#FEBAC7" d="M65.813 60.296s-.737 3.226-.921 5.53c-.184 2.304-.553 4.976-3.686 5.99-3.134 1.014-2.673.737-2.673.737-.108 2.228 1.121 3.456 2.012 5.315l-4.823 3.625-6.958-4.362s4.147-2.55 2.95-5.315c-1.199-2.765-2.95-10.398-2.95-10.398s2.166-4.086 6.083-4.87c3.517-.69 8.693 1.782 10.966 3.748z"/>
            <path fill="#031162" d="M57.427 67.162s.63-1.244 2.212-1.09c1.567.153 2.75-.308 3.533 1.628 0 0 .337.507.599.445 0 0-1.536.707-2.78 0-1.245-.706-1.275.23-2.535.307-1.275.077-1.812-.399-1.812-.399s.844-.323.783-.89z"/>
            <path fill="#031162" d="M68.763 57.04s.122-3.164-2.55-4.132c-2.673-.967-5.176-.845-5.176-.845s-4.01-2.196-7.42-1.459c-3.41.738-5.114 4.01-5.114 4.01s-2.857 2.672-2.734 5.467c.123 2.796 2.488 4.5 2.488 4.5s-1.09 1.644-.246 3.103c.23.384.43.814.615 1.245.752 1.72 1.858 3.24 3.21 4.53l.03.031.769-5.007s-2.366-.369-2.304-3.471c.061-3.103 1.398-2.734 2.196-2.427.307.123.584.522.814.983.092 1.382.338 2.258.523 2.734a.844.844 0 0 0 .2.46s.015.062.06.185c.062.922-2.134 3.932-.06 5.714 2.242 1.92 7.019 1.183 9.184 0 2.166-1.183 1.367-4.777 1.367-4.777-.276 2.043-2.426 2.289-3.18 2.12-.752-.17-1.796-.691-2.61-.185-.66.415-2.243-.015-2.826-.2a.388.388 0 0 1-.262-.291c.17-1.214-.63-2.796-.89-3.456-.23-.568-.446-2.611-.523-3.425.215-.523.569-.968 1.09-1.183l-.122-2.627s4.562.692 6.374.63c1.813-.061 3.963.891 3.963.891l-.138 1.505c.03 0 5.837-2.55 3.272-4.623z"/>
            <path fill="#000D41" d="M37.567 101.89h-.03a.239.239 0 0 1-.2-.26c2.18-14.055-1.168-19.461-1.199-19.507-.076-.108-.03-.246.077-.323.108-.077.246-.03.323.061.138.215 3.486 5.607 1.275 19.83-.047.123-.139.2-.246.2zM72.956 98.435h-.016a.248.248 0 0 1-.215-.246l1.245-14.223a.248.248 0 0 1 .245-.215.248.248 0 0 1 .215.245L73.186 98.22a.245.245 0 0 1-.23.215zM50.054 83.582l-2.61-5.576c-.062-.123 0-.246.107-.307.123-.061.245 0 .307.107l2.411 5.13 3.61-1.95c.107-.061.246-.015.307.092.062.108.015.246-.092.307l-4.04 2.197zM60.345 83.612l-3.225-1.92a.225.225 0 0 1-.077-.322.225.225 0 0 1 .323-.077l2.718 1.613 1.29-4.362c.031-.123.17-.2.292-.154.123.03.2.17.154.292l-1.475 4.93zM55.553 84.887c-.276 0-.537-.092-.737-.276a1.18 1.18 0 0 1-.4-.783 1.138 1.138 0 0 1 1.045-1.23c.307-.03.599.078.83.262.23.2.368.476.399.783.03.307-.077.6-.261.83-.2.23-.477.368-.784.399-.03.015-.061.015-.092.015zm0-1.827h-.061a.697.697 0 0 0-.63.737.605.605 0 0 0 .246.46.653.653 0 0 0 .491.154.605.605 0 0 0 .461-.246.653.653 0 0 0 .154-.491.605.605 0 0 0-.246-.46c-.092-.108-.246-.154-.415-.154zM55.553 87.99c-.584 0-1.09-.46-1.136-1.06a1.138 1.138 0 0 1 1.044-1.229c.307-.03.599.077.83.262.23.2.368.476.399.783.03.307-.077.599-.261.83-.2.23-.477.368-.784.399-.03.015-.061.015-.092.015zm0-1.828h-.061a.697.697 0 0 0-.63.737c.03.37.369.66.737.63a.605.605 0 0 0 .461-.246.653.653 0 0 0 .154-.491.605.605 0 0 0-.246-.46.543.543 0 0 0-.415-.17z"/>
            <path fill="#FEBAC7" d="M23.39 100.385s1.305 27.54 2.473 29.353c1.167 1.812 34.175 0 34.175 0s2.627 1.382 4.178.814c1.551-.568 2.089-.66 2.089-.66l.753 1.06.952-.093-.507-2.565h.507l.553 2.657h1.121l-.338-2.718h.338l.4 2.718h.89l.338-4.285s-1.444-2.089-1.889-2.089c-.445 0-1.736.246-2.55-.077-1.198-.476-1.167-.138-1.95.369-.784.507-5.73.737-5.73.737l-22.855-2.98.998-19.368c-.015-.016-4.608-3.779-13.946-2.873z"/>
            <g>
                <path fill="#9E8FAE" d="M15.218 242.924h-1.09L12.285 131.49h4.776z"/>
                <path fill="#031162" d="M17.061 131.489h-4.776l.107 5.284 4.623-3.241z"/>
            </g>
            <g>
                <path fill="#9E8FAE" d="M208.276 242.924h-1.091l-1.843-111.435h4.777z"/>
                <path fill="#031162" d="M210.119 131.489h-4.777l.107 5.284 4.624-3.241z"/>
            </g>
            <path fill="#9E8FAE" d="M217.307 132.503H7.354a1.013 1.013 0 1 1 0-2.028h209.953c.553 0 1.014.446 1.014 1.014 0 .553-.461 1.014-1.014 1.014z"/>
            <g>
                <path fill="#D1C8CE" d="M62.573 130.475h33.376c.86 0 1.567-.706 1.567-1.567h-36.51c0 .86.706 1.567 1.567 1.567z"/>
                <path fill="#FDFDFF" d="M66.873 130.475h36.695c.86 0 1.567-.706 1.567-1.567H68.716c-.307.692-.675 1.567-1.843 1.567z"/>
                <g fill="#BCBEC0">
                    <path d="M72.925 130.045h1.367a.308.308 0 0 0 .307-.307.308.308 0 0 0-.307-.307h-1.367a.308.308 0 0 0-.307.307c-.016.169.123.307.307.307zM71.481 129.738c0 .169.138.307.307.307a.308.308 0 0 0 .308-.307.308.308 0 0 0-.308-.307.308.308 0 0 0-.307.307z"/>
                </g>
                <path fill="#E6E7E8" d="M112.538 108.372H80.16c-1.03 0-1.951.584-2.397 1.506l-9.123 19.015h36.51l8.786-18.324c.491-1.014-.261-2.197-1.398-2.197z"/>
                <path fill="#D1C8CE" d="M80.206 108.372h-.968c-1.03 0-1.95.584-2.396 1.506l-9.124 19.015h.968l9.123-19.015a2.651 2.651 0 0 1 2.397-1.506z"/>
            </g>
        </g>
        <g>
            <path fill="#75BDF3" d="M120.74 27.165H97.547c-1.183 0-2.15.968-2.15 2.15V43.37c0 1.183.967 2.15 2.15 2.15h7.557l6.405 6.405V45.52h9.246c1.183 0 2.15-.967 2.15-2.15V29.316a2.18 2.18 0 0 0-2.165-2.15z"/>
            <g fill="#FFF" transform="translate(102.754 34.369)">
                <circle cx="1.753" cy="1.891" r="1.26" transform="rotate(-22.619 1.753 1.891)"/>
                <circle cx="6.379" cy="1.89" r="1.259" transform="rotate(-76.767 6.38 1.89)"/>
                <circle cx="11.025" cy="1.887" r="1.259" transform="rotate(-45 11.025 1.887)"/>
            </g>
        </g>
        <g transform="translate(208.276 34.676)">
            <circle cx="13.158" cy="13.27" r="9.277" fill="#146EB4" transform="rotate(-45 13.158 13.27)"/>
            <g transform="translate(6.758 5.837)">
                <circle cx="6.404" cy="6.392" r="4.454" fill="#FFF" transform="rotate(-45 6.404 6.392)"/>
                <path fill="#DADADA" d="M2.058 5.437c.154.277.538.446.784.246.153-.138.184-.384.337-.537.154.138-.03.384-.061.583a.371.371 0 0 0 .246.384c.153.062.338-.015.43-.153-.046.23-.03.491.123.675.153.185.491.2.614 0-.138.384.307.83.691.692.23-.077.384-.292.538-.492.154-.2.369-.384.614-.369.246.016.415.384.215.523-.061.03-.123.046-.169.077-.153.092-.122.368.031.43a.484.484 0 0 0-.307.568c.061.23.307.4.538.353-.031.538.46 1.03.998 1.014.169 0 .353-.077.384-.246.046-.276-.43-.445-.369-.722.062-.307.691-.246.691-.553 0-.169-.184-.292-.169-.46.016-.17.246-.23.354-.37.138-.199-.031-.49-.23-.629-.2-.138-.461-.23-.584-.445a.63.63 0 0 1 .368-.092c.154-.108.123-.354.016-.507-.108-.154-.261-.277-.338-.446.123-.184.414-.153.63-.123.23.016.537-.076.522-.307-.016-.276-.507-.338-.492-.614.016-.17.2-.246.354-.261.168-.016.337-.016.46-.108.139-.123.139-.292.062-.476a4.443 4.443 0 0 0-2.95-1.121c-2.104-.016-3.885 1.49-4.33 3.486zM9.861 5.652c-.092.077-.154.2-.108.308.047.153.277.26.216.43-.047.138-.23.138-.338.215a.337.337 0 0 0-.108.307.976.976 0 0 0 .138.322c-.184.016-.276.262-.169.415.108.154.308.2.492.154-.03.107-.215.184-.17.292.016.03.047.046.078.061.153.077.307.154.476.169h.03a4.532 4.532 0 0 0 .446-1.935c0-.354-.046-.692-.123-1.014-.184.03-.369.077-.553.138-.092.03-.215.077-.307.138z"/>
                <path fill="#FFF" d="M6.313 11.95a.308.308 0 0 1-.307-.307c0-.17.138-.307.307-.307a4.936 4.936 0 0 0 4.93-4.931 4.936 4.936 0 0 0-4.93-4.93.308.308 0 0 1-.307-.308c0-.169.138-.307.307-.307a5.569 5.569 0 0 1 5.56 5.56c0 3.072-2.488 5.53-5.56 5.53z"/>
                <path fill="#FFF" d="M6.313 13.593a.583.583 0 0 1-.584-.583v-1.475a.583.583 0 1 1 1.168 0v1.475a.583.583 0 0 1-.584.583z"/>
                <path fill="#FFF" d="M8.694 13.747h-4.7a.34.34 0 0 1-.338-.338v-.307a.34.34 0 0 1 .338-.338h4.7a.34.34 0 0 1 .338.338v.307c0 .2-.154.338-.338.338z"/>
                <circle cx="6.282" cy="1.121" r="1" fill="#146EB4"/>
                <path fill="#146EB4" d="M6.65 11.643c0 .2-.168.368-.368.368a.374.374 0 0 1-.368-.368c0-.2.168-.369.368-.369.2 0 .369.169.369.369z"/>
            </g>
        </g>
        <g transform="translate(146.586 13.84)">
            <circle cx="12.459" cy="12.206" r="9.277" fill="#F58A07" transform="rotate(-21.655 12.46 12.206)"/>
            <g transform="translate(8 6)">
                <g fill="#FFF">
                    <path d="M4.593 6.021l-1.337-.722-3.164 6.006 1.966-.461.737 1.874 3.15-5.99z"/>
                    <path d="M4.362 6.021l1.352-.722 3.164 6.006-1.966-.461-.737 1.874-3.15-5.99z"/>
                    <path d="M7.542 6.774l-.845.076a.629.629 0 0 0-.538.43l-.292.8c-.153.414-.675.568-1.013.276l-.66-.538a.661.661 0 0 0-.692-.092l-.768.369c-.4.184-.875-.077-.906-.523l-.077-.844a.629.629 0 0 0-.43-.538l-.799-.292c-.414-.153-.568-.676-.276-1.014l.537-.66c.154-.184.2-.46.093-.691l-.37-.768c-.183-.4.078-.876.523-.906l.845-.077a.629.629 0 0 0 .537-.43l.292-.799c.154-.415.676-.568 1.014-.277l.66.538c.185.154.461.2.692.092l.768-.368c.4-.185.875.076.906.522l.077.845c.03.245.184.46.43.537l.799.292c.414.154.568.676.276 1.014l-.538.66a.64.64 0 0 0-.092.676l.369.768c.184.415-.092.89-.522.922z"/>
                </g>
                <circle cx="4.279" cy="4.313" r="2.688" fill="#F58A07" transform="rotate(-53.044 4.279 4.313)"/>
                <circle cx="4.282" cy="4.313" r="1.152" fill="#FFF" transform="rotate(-53.31 4.282 4.313)"/>
            </g>
        </g>
        <g transform="translate(-2 13.326)">
            <circle cx="12.124" cy="12.132" r="9.999" fill="#146EB4" transform="rotate(-76.332 12.124 12.132)"/>
            <path fill="#FFF" d="M22.103 12.902c.015-.246.03-.507.03-.752 0-.262-.015-.507-.03-.753h-3.656a25.3 25.3 0 0 0-.476-4.593 10.8 10.8 0 0 0 1.843-1.06c-.338-.399-.691-.767-1.075-1.105-.338.23-.707.445-1.137.66a14.554 14.554 0 0 0-.737-1.95 9.715 9.715 0 0 0-2.242-.876c.46.614 1.075 1.69 1.566 3.394-.921.292-2.012.507-3.287.569v-4.24c-.246-.015-.507-.03-.752-.03-.262 0-.507.015-.753.03v4.24a13.872 13.872 0 0 1-3.133-.476C8.77 4.163 9.43 3.04 9.892 2.41c-.784.185-1.536.461-2.243.815a13.97 13.97 0 0 0-.83 2.227 9.425 9.425 0 0 1-1.366-.707 9.152 9.152 0 0 0-1.06 1.121c.584.384 1.26.768 2.073 1.091a25.431 25.431 0 0 0-.445 4.439h-3.81c-.015.246-.03.507-.03.753 0 .26.015.506.03.752h3.78c.045 1.52.199 2.857.414 4.024-.89.37-1.643.8-2.273 1.23.307.414.645.798 1.014 1.151.445-.307.983-.599 1.597-.875.292 1.075.63 1.966.983 2.688a9.798 9.798 0 0 0 2.196.768c-.491-.691-1.213-1.966-1.735-3.978a13.42 13.42 0 0 1 3.18-.492v4.685c.245.015.506.03.752.03.261 0 .507-.015.753-.03v-4.67c1.29.062 2.396.277 3.317.569-.522 1.92-1.198 3.148-1.69 3.84a9.514 9.514 0 0 0 2.228-.845c.307-.66.614-1.475.89-2.427a9.17 9.17 0 0 1 1.368.83c.368-.354.706-.722 1.029-1.122a10.708 10.708 0 0 0-2.028-1.213c.23-1.198.4-2.58.446-4.163h3.67zm-10.737 3.01c-1.32.047-2.488.246-3.502.523a24.93 24.93 0 0 1-.353-3.533h3.855v3.01zm0-4.53h-3.87c.03-1.536.169-2.842.384-3.963 1.013.276 2.165.46 3.486.522v3.44zm5.176 5.145c-1.044-.322-2.242-.537-3.655-.599v-3.026h4.024a21.998 21.998 0 0 1-.369 3.625zm-3.655-5.145V7.926a14.997 14.997 0 0 0 3.64-.6c.215 1.137.369 2.474.4 4.056h-4.04z"/>
            <circle cx="12.057" cy="12.165" r="1.536" fill="#FFF"/>
        </g>
        <path fill="#9E8FAE" d="M47.744 47.532h-.47v-.89h.47v.89zm0-2.089h-.47v-.89h.47v.89zm0-2.089h-.47v-.89h.47v.89zm0-2.073h-.47v-.891h.47v.89zm0-2.089h-.47v-.89h.47v.89zm0-2.089h-.47v-.89h.47v.89zm0-2.074h-.47v-.89h.47v.89zm0-2.088h-.47v-.891h.47v.89zm0-2.09h-.47v-.89h.47v.89zm0-2.073h-.47v-.89h.47v.89zM176.281 58.376h-.154v-.66h.154v.66zm0-1.858h-.154v-.891h.154v.89zm0-2.09h-.154v-.89h.154v.89zm0-2.073h-.154v-.89h.154v.89zm0-2.089h-.154v-.89h.154v.89zm0-2.089h-.154v-.89h.154v.89zm0-2.088h-.154v-.891h.154v.89zm0-2.074h-.154v-.89h.154v.89zm-.138-2.089c0-.292-.016-.584-.046-.875l.153-.016c.031.292.046.6.046.906l-.153-.015zm-.277-2.043a9.026 9.026 0 0 0-.276-.845l.138-.061c.108.276.2.568.292.86l-.154.046zm-.798-1.89c-.154-.245-.308-.506-.492-.736l.123-.093c.184.246.353.492.507.753l-.138.077zm-1.275-1.627c-.215-.2-.43-.4-.66-.584l.091-.123c.23.185.461.384.676.6l-.107.107zm-1.644-1.229a7.63 7.63 0 0 0-.798-.384l.061-.138c.276.123.553.246.814.4l-.077.122zm-1.904-.768a8.792 8.792 0 0 0-.876-.169l.016-.154c.291.047.599.093.89.17l-.03.153zm-2.043-.23h-.891v-.154h.89v.154zm-2.09 0h-.89v-.154h.89v.154zm-2.088 0h-.89v-.154h.89v.154zM10.672 13.108h-.154v-.89h.154v.89zm0-2.089h-.154v-.89h.154v.89zm.015-2.074l-.153-.015c.015-.292.046-.599.107-.89l.154.03a5.456 5.456 0 0 0-.108.875zm.384-2.027l-.138-.046c.092-.277.2-.568.338-.83l.138.062a5.354 5.354 0 0 0-.338.814zm.906-1.843l-.122-.077c.168-.246.353-.491.537-.722l.108.092a8.41 8.41 0 0 0-.523.707zm1.352-1.552l-.092-.107c.23-.2.46-.384.706-.553l.093.123a7.791 7.791 0 0 0-.707.537zm1.72-1.136l-.061-.138a9.59 9.59 0 0 1 .83-.354l.045.139a7.66 7.66 0 0 0-.814.353zM17 1.727l-.03-.154c.291-.062.598-.092.89-.123l.016.154c-.292.03-.584.076-.876.122zm11.29-.139h-.891v-.153h.89v.153zm-2.09 0h-.89v-.153h.89v.153zm-2.073 0h-.89v-.153h.89v.153zm-2.089 0h-.89v-.153h.89v.153zm-2.089 0h-.89v-.153h.89v.153zM222.76 12.134h-.154v-.046h.154v.046zm0-1.229h-.154v-.276c0-.2-.015-.415-.03-.614l.153-.016c.015.2.03.415.03.615v.291zm-.353-2.058c-.062-.292-.154-.568-.246-.845l.138-.046c.108.277.184.569.261.86l-.153.031zm-.738-1.92a7.593 7.593 0 0 0-.46-.752l.122-.093c.17.246.323.507.476.768l-.138.077zm-1.198-1.659a5.959 5.959 0 0 0-.645-.599l.092-.107c.23.2.446.4.66.614l-.107.092zm-1.597-1.305a6.314 6.314 0 0 0-.784-.415l.062-.138c.276.123.537.261.799.43l-.077.123zm-1.89-.83a7.788 7.788 0 0 0-.86-.2l.031-.153c.292.046.584.123.876.2l-.046.153zm-2.042-.307h-.891v-.153h.891v.153zm-2.074 0h-.89v-.153h.89v.153zm-2.089 0h-.89v-.153h.89v.153zm-2.089 0h-.89v-.153h.89v.153zm-2.073 0h-.891v-.153h.89v.153zm-2.09 0h-.89v-.153h.89v.153zM133.412 44.322h-.154v-.89h.154v.89zm-.215-2.073c-.046-.292-.092-.584-.17-.876l.14-.03a8.3 8.3 0 0 1 .168.89l-.138.016zm-.538-1.982c-.107-.276-.245-.537-.384-.799l.123-.076c.154.26.277.537.4.814l-.139.061zm-1.044-1.782a8.135 8.135 0 0 0-.584-.66l.108-.108a8.2 8.2 0 0 1 .599.676l-.123.092zm-1.475-1.428a6.151 6.151 0 0 0-.737-.492l.077-.122c.26.153.507.322.752.506l-.092.108zm-1.781-1.014a7.758 7.758 0 0 0-.845-.276l.046-.139c.292.077.583.17.86.292l-.061.123zm-1.997-.507a8.358 8.358 0 0 0-.876-.046v-.153c.307 0 .6.015.906.046l-.03.153z"/>
    </g>
</svg>
