<svg xmlns="http://www.w3.org/2000/svg" width="328" height="248" viewBox="0 0 328 248">
    <g fill="none" fill-rule="evenodd">
        <g fill-rule="nonzero" transform="translate(119.74 41.633)">
            <ellipse cx="54.878" cy="137.193" fill="#000" opacity=".15" rx="22.715" ry="5.284"/>
            <path fill="#FFCB30" d="M106.642 53.74c0-29.584-24.005-53.556-53.514-53.309C23.598.678.105 24.896.535 54.542c.307 20.477 12.115 38.137 29.203 46.792v23.602l12.524 8.45c2.762 1.85 5.996 2.857 9.31 2.857h3.991c3.316 0 6.57-.987 9.312-2.858l12.524-8.45v-23.58c17.353-8.759 29.243-26.789 29.243-47.615z"/>
            <path fill="#F58A07" d="M40.87 101.355h-4.522V46.4l12.155 12.232L56.28 47.8l6.548 10.629 18.438-30.242 3.868 2.364L62.85 67.124l-6.856-11.143-6.917 9.642L40.87 57.4z"/>
            <path fill="#FF654D" d="M99.725 27.445C92.563 43.502 67.105 87.148 5.467 76.17c5.034 10.896 13.63 19.798 24.291 25.185v23.58l12.524 8.45c2.763 1.85 5.996 2.858 9.311 2.858h3.99c3.316 0 6.57-.987 9.312-2.858l12.524-8.45v-23.58c17.333-8.78 29.223-26.789 29.223-47.615 0-9.56-2.517-18.523-6.917-26.295z" opacity=".2"/>
            <path fill="#0E4E80" d="M29.738 124.524v.412l12.524 8.45c2.762 1.85 5.996 2.857 9.31 2.857h3.97c3.316 0 6.57-.987 9.312-2.858l12.524-8.45v-.41h-47.64z"/>
            <path fill="#F58A07" d="M29.738 101.355H77.42v4.605H29.738zM29.738 110.647H77.42v4.605H29.738zM29.738 119.919H77.42v4.605H29.738zM86.771 21.73v16.324l-13.076-6.805z"/>
            <path fill="#FFF" d="M56.055 5.057v13.28s-34.524 0-48.112 32.936c-.02.02 3.602-38.342 48.112-46.216z"/>
            <path fill="#F58A07" d="M91.715 11.227c.327-.761.491-1.604.45-2.488-.123-2.96-2.558-5.325-5.505-5.345-3.11-.042-5.648 2.487-5.648 5.612 0 .802.164 1.563.47 2.241.185.411.41.781.676 1.13l3.52 6.045a1.07 1.07 0 0 0 1.842 0l3.52-6.044c.286-.35.511-.74.675-1.151z"/>
            <ellipse cx="86.599" cy="8.718" fill="#FFF" rx="2.149" ry="2.159"/>
        </g>
        <g fill="#031162" fill-rule="nonzero">
            <g opacity=".3">
                <path d="M260.474 89.953l.974-.227 18.941 81.194-.973.227z"/>
                <path d="M261.901 94.616h17.295v1h-17.295zM263.101 99.89h17.295v1h-17.295zM264.33 105.137h17.295v1H264.33zM265.53 110.41h17.295v1H265.53zM266.73 115.657h17.295v1H266.73zM267.96 120.932h17.294v1H267.96zM269.16 126.206h17.294v1H269.16zM270.388 131.452h17.295v1h-17.295zM271.588 136.726h17.295v1h-17.295zM272.817 142h17.295v1h-17.295zM274.016 147.247h17.295v1h-17.295zM275.246 152.52h17.295v1h-17.295zM276.445 157.767h17.295v1h-17.295zM277.645 163.04h17.295v1h-17.295zM278.874 168.316h17.295v1h-17.295z"/>
            </g>
            <path d="M249.991 171.159l-.41-.088 18.934-81.378h9.686l18.905 81.378-.44.088-18.816-81.026h-8.984z"/>
            <path d="M232.725 171.159l-.439-.088 18.963-81.378h18.232v.44H251.6z"/>
            <path d="M250.196 94.617h17.295v1h-17.295zM248.996 99.89h17.295v1h-17.295zM247.767 105.137h17.295v1h-17.295zM246.567 110.41h17.295v1h-17.295zM245.338 115.657h17.295v1h-17.295zM244.138 120.932h17.295v1h-17.295zM242.939 126.206h17.295v1h-17.295zM241.709 131.452h17.295v1h-17.295zM240.51 136.726h17.295v1H240.51zM239.28 142h17.296v1H239.28zM238.08 147.247h17.296v1H238.08zM236.852 152.52h17.295v1h-17.295zM235.652 157.767h17.295v1h-17.295zM234.423 163.04h17.295v1h-17.295zM233.223 168.316h17.295v1h-17.295z"/>
        </g>
        <g fill-rule="nonzero">
            <path fill="#000" d="M235.734 192.342c-.439.03-.878.264-1.082.674-.527 1.026.819 1.788 1.872 1.993 9.13 1.905 18.554 2.374 27.801 1.348 1.844-.205 3.863-.586 5.502-1.407 1.375-.703.995-2.783-.556-2.96-2.488-.263-5.531-.644-6.058-.644-2.517-.059-5.004.03-7.52-.059-6.585-.146-13.374.704-19.959 1.055z" opacity=".15"/>
            <path fill="#2C4B80" d="M245.596 144.694h1.024v46.828h-1.024z"/>
            <path fill="#031162" d="M250.659 194.042c1.317-.703 2.37-1.524 2.955-2.52h2.459v2.637a.356.356 0 0 1-.352.352.356.356 0 0 1-.35-.352v-.879l-.323.44a1.833 1.833 0 0 1-1.492.79h-2.75c-.176 0-.294-.146-.235-.321a.64.64 0 0 1 .088-.147z"/>
            <path fill="#FE91A6" d="M252.502 192.811h1.551l1.142-1.29h.878v-2.49h-2.459l.147 2.256z"/>
            <path fill="#031162" d="M256.131 194.042c1.317-.703 2.37-1.524 2.956-2.52h2.458v2.637a.356.356 0 0 1-.351.352.356.356 0 0 1-.351-.352v-.879l-.322.44a1.833 1.833 0 0 1-1.493.79h-2.75c-.176 0-.293-.146-.235-.321 0-.06.03-.118.088-.147z"/>
            <path fill="#FEBAC7" d="M257.945 192.811h1.551l1.142-1.29h.878v-2.49h-2.459l.147 2.256z"/>
            <path fill="#031162" d="M249.459 106.804s4.068 7.414 1.785 10.696c-2.283 3.282 2.575 2.403 2.575 2.403s2.663-6.916.586-10.813c-2.078-3.898-4.946-2.286-4.946-2.286z"/>
            <path fill="#0E4E80" d="M250.132 142.027s-2.02 4.572-1.668 9.641c.351 5.07 1.727 14.33 1.727 14.33l3.336 23.97h2.663s.41-17.611-.03-23.97l.293-23.97h-6.321z"/>
            <path fill="#FE91A6" d="M246.942 121.427s-1.902 5.538 4.536 15.677c0 0-12.495 2.315-13.988 2.726-1.522.41-1.58 2.05-1.58 2.05h19.431l-8.399-20.453z"/>
            <path fill="#146EB4" d="M250.132 142.027h14.983s1.756 5.1.79 11.81c-.965 6.71-3.365 14.857-3.365 14.857s1.434 10.169-.79 21.245h-3.014l-2.605-23.97-1.112-16.586c.059.029-6.204.44-4.887-7.356z"/>
            <path fill="#031162" d="M265.115 142.027h-14.983c0 .03 0 .088-.03.118h3.776s9.715-.03 11.91 2.813c-.292-1.846-.673-2.93-.673-2.93z"/>
            <path fill="#F58A07" d="M255.985 115.507s-12.964 1.73-7.96 9.114c1.463 2.139 1.258 3.839 2.253 7.97 1.288 5.422-.175 9.436-.175 9.436h14.983c-3.395-3.077 4.33-19.956 3.6-21.831-2.459-6.418-12.701-4.689-12.701-4.689z"/>
            <path fill="#031162" d="M262.803 122.306s1.288 5.304 2.985 8.644c.468-1.64.995-3.252 1.463-4.747l-4.448-3.897z"/>
            <path fill="#FEBAC7" d="M264.852 117.236c-.761.03-1.054.03-1.61.557-.878.85-1.083 2.315-.351 4.835.966 3.429 5.853 13.978 5.853 13.978-5.56.645-10.681 1.817-16.3 2.725-5.297.41-5.824 2.726-5.824 2.726h5.473s21.128.762 22.123-1.67c.907-2.286-2.75-23.385-9.364-23.15zM249.459 106.804s-.615 5.187 1.902 6.33c2.517 1.172 2.458 2.549 2.458 2.549s-1.756 4.132.849 4.542c2.604.41 6.262-5.714 6.262-5.714s-2.282.762-2.458-1.26c-.175-2.022.585-7.15-.527-8.498-1.17-1.378-8.047-2.755-8.486 2.05z"/>
            <path fill="#031162" d="M249.283 104.518c-.556.85-.058 1.993.908 2.227.556.147 1.229.205 1.96.088 1.785-.322 2.81-.674 2.81-.674s2.253 3.986 1.463 8.03c-.79 4.043-.498 7.003 2.077 7.765 2.576.762-.41-6.066 4.888-6.066 0 0-2.459-4.513-2.81-8.996-.322-4.484-5.062-5.275-8.574-4.22-1.493.44-2.283 1.172-2.722 1.846z"/>
            <path fill="#BCBEC0" d="M258.414 143.258h-21.275v-1.29h22.328v.264c-.03.557-.468 1.026-1.053 1.026z"/>
            <path fill="#E6E7E8" d="M253.146 143.287H235.12c-.527 0-1.112-.44-1.259-.967l-3.19-11.194c-.146-.527.147-.967.703-.967H249.4c.527 0 1.112.44 1.259.967l3.19 11.194c.175.528-.147.967-.703.967z"/>
            <path fill="#1599FB" d="M261.574 145.515h-29.38c-.674 0-1.23-.557-1.23-1.231s.556-1.231 1.23-1.231h29.38c.673 0 1.23.557 1.23 1.23 0 .675-.557 1.232-1.23 1.232z"/>
            <path fill="#2C4B80" d="M245.596 191.522l-2.546 2.374c-.234.205-.088.586.234.586h5.531c.293 0 .468-.381.234-.586l-2.429-2.403h-1.024v.029z"/>
        </g>
        <g fill-rule="nonzero">
            <path fill="#000" d="M306.219 225.432c.38.44.731.938 1.2 1.319.907.703 2.165.703 3.306.967 1.142.264 2.341 1.055 2.283 2.227-.059 1.172-1.346 1.817-2.429 2.168a33.343 33.343 0 0 1-15.188 1.173c-.907-.147-1.814-.323-2.575-.82-.761-.5-1.317-1.378-1.2-2.287.117-.937.936-1.64 1.814-1.963.878-.322 1.844-.322 2.78-.41 1.932-.176 4.507-.586 6.117-1.759 1.316-.996 2.34-2.402 3.892-.615z" opacity=".15"/>
            <path fill="#0E4E80" d="M304.024 212.362s-2.546 1.67-1.083 5.803c1.083 3.077 1.932 4.806 2.283 5.48a.702.702 0 0 0 .585.351.638.638 0 0 0 .644-.586c.205-1.524.702-5.685.644-8.176-.03-3.047-3.073-2.872-3.073-2.872zM298.142 222.56s-.79 1.436-.79 3.84c0 2.402.234 4.453.234 4.453h.175l.38-2.725s.937 1.876 2.518 2.725c1.082.586 3.248.528 4.448.44a.495.495 0 0 0 .35-.791c-1.199-1.612-4.067-5.627-5.091-7.59l-2.224-.352z"/>
            <path fill="#FEBAC7" d="M310.9 176.729l-3.686-9.055s-8.165-.674-10.565 1.084c0 0-3.98 5.275-3.98 10.315 0 5.04 3.98 20.278 3.98 20.278s.469 14.623.908 17.935c.263 1.904.41 4.395.497 6.124a3.882 3.882 0 0 0 1.99 3.224l.205.117a1.279 1.279 0 0 0 1.668-.352c.117-.176.205-.352.263-.557l-1.814-2.93s2.224-23.59 2.224-27.898c0-4.307.673-14.095.673-14.095l7.14 11.898s-3.219 4.893-4.272 9.348c-1.054 4.454-2.049 9.875-2.049 9.875l-.35.996a3.163 3.163 0 0 0 .087 2.315l.82 1.935c.146.38.526.615.936.615.527 0 .966-.41.995-.908l.497-5.422s9.277-17.494 9.277-18.696c.058-1.143-5.443-16.146-5.443-16.146z"/>
            <path fill="#FEBAC7" d="M309.935 152.436s1.551 4.659 1.317 6.71c-.234 2.052-1.873 7.502-1.873 7.502s3.512 10.93 3.512 13.392c0 2.462-1.463 2.315-1.463 2.315s-1.112-1.875-.79-3.194c.321-1.319-3.22-10.022-3.454-11.487-.234-1.495 0-8.85.556-10.96.556-2.08 1.932-4.278 2.195-4.278z"/>
            <path fill="#00508C" d="M287.929 154.4s-.293 1.61 1.522 2.255c1.814.645 1.433-2.989.614-2.989-.849-.029-2.136.733-2.136.733z"/>
            <path fill="#031162" d="M291.909 149.476c-.088-1.055.848-2.11 1.931-2.14-.527-.615-.614-1.582-.234-2.285.38-.733 1.23-1.172 2.048-1.084-.965-.293-1.668-1.348-1.58-2.374.088-1.025.966-1.905 1.99-2.051-1.083-.41-1.317-1.963-.731-2.99.585-.995 1.668-1.61 2.692-2.138.848-.44 1.726-.909 2.692-1.055.966-.147 2.02.058 2.692.762.556-.352 1.112-.733 1.785-.85.644-.117 1.405.03 1.786.557.41.527.263 1.436-.352 1.67.878.615 1.405 1.67 1.346 2.725-.058 1.055-.673 2.08-1.58 2.608.586.47.849 1.319.586 2.052-.264.703-1.025 1.201-1.756 1.172 1.141.146 1.843 1.377 1.375 2.432v.03c.585-.352 1.434-.177 1.873.38.41.557.351 1.407-.146 1.905-.644.645-1.698.527-2.576.38-2.165-.38-4.448-1.083-6.642-1.26-2.4-.204-4.946.939-7.2 1.554z"/>
            <path fill="#146EB4" d="M307.214 167.674c-3.424.938-7.082.703-10.565 1.084.615-4.044-.585-8.352-3.219-11.487-.848.996-2.985-2.403-4.184-2.872-1.23-.469-1.551.674-1.23-.352.674-2.344 2.312-4.424 4.507-5.538 2.136-1.084 3.98-.733 6.233-.674 1.668.03 3.044.234 4.77.293 1.142.03 1.58.03 2.224.147 1.317.234 2.576.79 3.6 1.64.439.352.82.792 1.024 1.202a445.1 445.1 0 0 0 1.405 2.784l-3.629 6.417s-1.434 3.546-.936 7.356z"/>
            <path fill="#031162" d="M310.638 155.894c-1.551-1.612-2.4-4.308-2.4-4.308s-.468.938.673 2.813c.76 1.23.673 2.755.497 3.634l1.23-2.14z"/>
            <path fill="#FEBAC7" d="M298.23 137.784c.585-1.29 1.873-2.227 3.277-2.286 1.844-.059 3.512 1.465 3.863 3.282s-.468 3.722-1.844 4.923c-.556.498-1.229.967-1.346 1.7-.175 1.23 1.376 2.11 1.434 3.34.117 2.814-5.794 1.964-4.536-1.611.44-1.231.937-2.14.41-3.458-.878-2.051-2.341-3.517-1.258-5.89z"/>
            <path fill="#031162" d="M301.566 139.425c.556.058 1.112-.323 1.258-.85.03.498.439.938.937.996.497.059.994-.264 1.14-.732.264.44.937.44 1.288.058.352-.351.352-.938.176-1.406-.205-.47-.556-.82-.936-1.143-2.078-1.758-6.731-3.253-7.785.41-.234.791-.322 2.169.352 2.784.907.85 2.224-.03 2.458-1.114.146.499.556.938 1.112.997z"/>
            <path fill="#FEBAC7" d="M289.246 154.4s2.926 1.113 4.184 2.87c0 0-1.463 6.243-1.902 7.62l10.155-3.34.351 1.875s-7.99 5.655-12.818 6.798c-4.828 1.143.03-15.824.03-15.824z"/>
            <path fill="#E6E7E8" d="M310.052 156.275h-5.648c-.205 0-.41.175-.468.38l-1.346 6.535c-.03.205.088.381.293.381h5.648c.204 0 .41-.176.468-.38l1.346-6.536c.058-.205-.088-.38-.293-.38z"/>
            <path fill="#FFF" d="M302.795 163.19l1.346-6.535c.03-.205.234-.38.468-.38h-.205c-.205 0-.41.175-.468.38l-1.346 6.535c-.03.205.088.381.293.381h.204c-.204 0-.321-.176-.292-.38z"/>
            <path fill="#FEBAC7" d="M301.624 161.608s.03-1.436.878-1.758c.732-.264.82-.235.82-.235l-.205.938s1.96-.088 2.721-.498c0 0 .351.293 0 .644 0 0 .615.528.147.997 0 0 .497.469-.176.644 0 0 .205.381-.585.733-.79.352-3.19.352-3.19.352l-.41-1.817z"/>
            <path fill="#031162" d="M294.952 159.469c-.82-1.876-.585-3.605-.38-4.484-.38 1.026-1.112 2.257-1.112 2.257.556.703 1.082 1.435 1.492 2.227z"/>
            <path fill="#F58A07" d="M307.214 167.674s4.828 9.436 8.72 22.476c0 0-5.12.147-7.784.967-2.663.82-13.549 2.198-13.549 2.198s-3.102-11.868-2.341-15.707c.76-3.81 4.477-9.172 4.477-9.172s6.38.058 10.477-.762z"/>
            <path fill="#031162" d="M307.214 167.674c-4.097.82-10.506.762-10.506.762s-.263.38-.673 1.025c3.921.118 10.71-1.611 11.179-1.787z"/>
        </g>
        <g fill-rule="nonzero">
            <path fill="#0E4E80" d="M270.454 89.85v2.608c0 .44-.351.791-.79.791h-1.405l-.117-.176a.355.355 0 0 0-.585 0l-.088.176h-4.302c-.292 0-.439-.38-.204-.557l3.219-2.842h4.272zM264.22 87.213l.323 2.608a.79.79 0 0 1-.673.879l-1.405.176-.146-.176c-.176-.205-.469-.147-.586.088l-.087.175-4.273.528c-.292.03-.468-.322-.292-.528l2.838-3.194 4.302-.556z"/>
            <path fill="#0E4E80" d="M260.973 46.714l-4.214 24.205 3.19 16.85 4.301-.527s-1.317-16.381-1.317-16.645c0-.264 5.268-13.86 5.268-13.86l-1.873-7.913-5.355-2.11z"/>
            <path fill="#F58A07" d="M263.255 24.12l2.692-.439h3.658l7.053 2.227c.41.41.673.85.468 2.902l-1.873 17.934h-14.28l-2.02-18.11c-.234-.235-.35-2.198-.35-2.198l2.72-1.582c.586-.381 1.26-.616 1.932-.733z"/>
            <path fill="#F58A07" d="M258.631 26.377l-4.945 3.898.351-5.597h-2.81l-1.375 9.201a1.583 1.583 0 0 0 1.785 1.788l9.423-1.29-2.429-8z"/>
            <path fill="#FFF" d="M251.198 24.678h2.81l-.03.732h-2.897zM269.605 23.681l-2.663 2.227 1.961 1.26z"/>
            <path fill="#FFF" d="M264.513 23.916l2.43 1.992-1.99 1.26z"/>
            <g fill="#FFF">
                <path d="M267.85 26.495l-.908-.587-.907.587.79.674z"/>
                <path d="M266.942 26.934l1.317 12.425-1.61 1.084-1.404-.996 1.405-12.513z"/>
            </g>
            <path fill="#146EB4" d="M275.283 46.714s1.024 8.41-.615 16.176c-1.639 7.766-4.097 26.96-4.097 26.96h-4.448s.176-32.41 0-32.586c-.176-.176-2.517-1.084-3.921-2.901-1.99-2.55-1.2-7.649-1.2-7.649h14.28z"/>
            <path fill="#E6E7E8" d="M264.513 46.949h3.365v1.7h-3.365z"/>
            <path fill="#031162" d="M274.931 48.496h-6.73c-.059 0-.088-.057-.088-.085 0-.057.058-.085.088-.085h6.73c.059 0 .088.057.088.085.03.056-.03.085-.088.085zM274.931 47.265h-6.73c-.059 0-.088-.057-.088-.085 0-.056.058-.085.088-.085h6.73c.059 0 .088.057.088.085.03.057-.03.085-.088.085zM264.28 48.496h-3.103c-.058 0-.087-.057-.087-.085 0-.057.058-.085.087-.085h3.102c.059 0 .088.057.088.085.03.056-.03.085-.088.085zM264.28 47.265h-3.103c-.058 0-.087-.057-.087-.085 0-.056.058-.085.087-.085h3.102c.059 0 .088.057.088.085.03.057-.03.085-.088.085z"/>
            <path fill="#FE91A6" d="M251.228 24.678s-.41-.118-.527-1.231c-.117-1.084.849-2.99.849-2.99l2.165.294-.088 1.963-.878 1.934h-1.521v.03z"/>
            <path fill="#2C4B80" d="M254.68 19.901l-1.52 4.044c-.235.615-.967.85-1.493.469a.995.995 0 0 1-.44-.908l.264-4.572 3.19.967z"/>
            <path fill="#031162" d="M254.33 20.78c-.527-.469-1.493-1.084-2.897-1.29l.029-.556 3.219.967-.351.88z"/>
            <path fill="#146EB4" d="M248.448 10.377c.878-1.318 2.838-1.29 3.628.088 1.961 3.34 3.951 5.949 6.058 7.737.527.468.644 1.26.263 1.846l-.263.41c-.38.586-1.141.791-1.785.498-2.488-1.23-5.648-2.051-9.482-2.55-1.58-.204-2.37-1.992-1.492-3.31l3.073-4.719z"/>
            <path fill="#E6E7E8" d="M256.583 16.707a14.78 14.78 0 0 0 1.551 1.495c.527.468.644 1.26.263 1.846l-.263.41c-.38.586-1.141.791-1.785.498a25.403 25.403 0 0 0-1.99-.85c.322-1.64 1.522-2.813 2.224-3.399z"/>
            <path fill="#BCBEC0" d="M257.432 19.696c-.234.381-.322.762-.147.88.176.116.469-.118.732-.499.234-.381.322-.762.146-.88-.175-.116-.497.118-.731.499z"/>
            <g fill="#FEBAC7">
                <path d="M251.696 21.718l-1.346-.234c-.234-.03-.41-.264-.38-.528.029-.234.263-.41.526-.38l1.346.234c.234.029.41.263.38.527a.477.477 0 0 1-.526.381z"/>
                <path d="M251.608 22.51l-1.17-.206c-.205-.03-.352-.234-.322-.469.029-.205.234-.351.468-.322l1.17.205c.205.03.352.234.322.469-.058.205-.263.352-.468.322z"/>
                <path d="M251.52 23.212l-1.082-.175c-.205-.03-.322-.235-.293-.41.03-.206.234-.323.41-.294l1.082.176c.205.03.322.235.293.41-.03.206-.205.352-.41.293zM251.433 23.886l-.966-.175a.331.331 0 0 1-.263-.381.33.33 0 0 1 .38-.264l.966.176c.175.03.292.205.263.38a.33.33 0 0 1-.38.264z"/>
            </g>
            <path fill="#FEBAC7" d="M254.008 24.678l.702-2.784c.088-.381.059-.762-.146-1.114l-.293-.557c-.175-.322-.497-.498-.848-.44l-2.254.323s.38 1.055 1.17 1.055l.703-.088s-1.844 1.846-.878 3.605h1.844z"/>
            <path fill="#F58A07" d="M271.39 30.187c-.819-3.985 4.42-6.33 6.76-3.048.088.117.176.264.235.381 1.726 3.136 3.453 14.213 3.453 15.238 0 1.026-5.882 7.62-5.882 7.62l-2.43-1.524 3.6-7.21-5.53-10.344-.206-1.113z"/>
            <path fill="#031162" d="M273.79 31.997h-4.214c-.058 0-.088-.056-.088-.084 0-.029.059-.085.088-.085h4.214c.059 0 .088.056.088.085 0 .028-.03.084-.088.084zM273.79 32.935h-.673c-.058 0-.088-.056-.088-.085 0-.056.059-.084.088-.084h.674c.058 0 .088.056.088.084.029.029-.03.085-.088.085z"/>
            <path fill="#FFF" d="M276.658 49.586c-.41.469-.673.762-.673.762l-2.429-1.524.41-.85 2.692 1.612z"/>
            <path fill="#FEBAC7" d="M275.868 50.29l-.41 1.377c-.058.234-.175.44-.322.615l-1.229 1.495-.322.498a.462.462 0 0 1-.614.176c-.234-.118-.351-.352-.264-.616l.059-.176-.088-.088-.439.587c-.146.205-.439.234-.644.087-.175-.117-.234-.322-.175-.527l.205-.615-.117-.059-.644.762c-.117.146-.351.176-.527.088-.117-.088-.205-.235-.176-.381l.176-1.319-.234.586a.72.72 0 0 1-.263-.732l.468-1.553c.117-.41.439-.733.848-.88l2.341-.82 2.37 1.494zM264.748 15.535l-.703 1.875-1.521 1.26 1.112 1.026s-.205 1.436.439 2.051c.321.323.614.645.848.88.205.205.205.556.03.79l-.41.499 2.429 2.022 2.663-2.257c-.761-.556-.908-1.201-.673-1.904 0 0 1.287-.323 1.463-1.26.175-.938-.176-4.66-1.551-5.392-1.376-.792-3.746-.557-4.126.41z"/>
            <path fill="#031162" d="M268.493 19.755a2.246 2.246 0 0 0-.234 1.055h-.439s.673-1.495.264-2.462c0 0 .936-.85.146-1.612 0 0-.468.44-1.346-.41 0 0-1.551.703-2.195-.762 0 0-1.258-.293-1.258-1.172 0-.88.79-1.817 2.692-1.055 0 0 1.551-1.788 3.424-.88 0 0 .497.235.497.91 0 0 1.844-.03 2.4 1.142.556 1.172-.41 1.319-.41 1.319s1.083.234 1.083 1.201c0 .997-1.083 1.29-1.083 1.29s.907.293.556 1.318c-.35 1.026-1.346.674-1.346.674s.907.293.293.88c-.585.586-1.317.38-1.317.38s.234.733-.38 1.026c-.615.293-1.054.117-1.054.117-.351-.263-.351-.556.088-.908 0 0 1.61-.498 1.141-1.963-.058-.206-.205-.323-.351-.41-.351-.294-.937-.118-1.17.322z"/>
            <path fill="#031162" d="M265.977 19.14h-.088a.83.83 0 0 1-.585-.352 1.06 1.06 0 0 1-.176-.733c.03-.264.146-.498.322-.674a.802.802 0 0 1 .673-.234.83.83 0 0 1 .585.351c.147.205.205.47.176.733-.03.264-.146.498-.322.674a.792.792 0 0 1-.585.234zm.029-1.818a.645.645 0 0 0-.439.176.99.99 0 0 0-.263.557c-.03.205.029.44.146.586a.628.628 0 0 0 .468.293c.176.03.351-.059.498-.176a.99.99 0 0 0 .263-.556.808.808 0 0 0-.146-.587.628.628 0 0 0-.469-.293h-.058z"/>
            <path fill="#000D41" d="M263.782 18.202h-.059c-.468-.06-.79-.528-.731-1.085.058-.557.468-.967.936-.908.468.058.79.527.732 1.084-.088.528-.468.909-.878.909zm-.615-1.055c-.058.44.205.85.556.879.352.029.673-.293.732-.762.059-.44-.205-.85-.556-.88-.38-.029-.702.294-.732.763z"/>
            <path fill="#000D41" d="M265.216 17.99h-.03l-.76-.347c-.059-.03-.059-.087-.059-.116 0-.03.088-.058.117-.058l.761.347c.059.03.059.087.059.116 0 .058-.03.058-.088.058zM269.46 18.963s-.03 0 0 0l-2.722-.527c-.059 0-.088-.059-.088-.117 0-.059.058-.088.117-.088l2.692.527c.059 0 .088.059.088.117 0 .06-.059.088-.088.088z"/>
        </g>
        <g fill-rule="nonzero">
            <path fill="#000" d="M219.133 243.007c-16.388.322-32.776.615-49.134.937-.703 0-1.434.03-2.049.352-.614.322-1.082 1.084-.848 1.729.292.85 1.404 1.025 2.282 1.055 12.291.38 24.582.469 36.873.264a786.452 786.452 0 0 0 18.582-.499c3.131-.117 6.233-.263 9.364-.41 1.347-.059 6 .44 3.863-1.993-1.668-1.904-6.35-1.377-8.662-1.465-3.424-.088-6.848-.03-10.271.03z" opacity=".15"/>
            <g transform="translate(166.721 185.952)">
                <path fill="#0E4E80" d="M17.236 54.183l-1.96 3.78c-.293.528-.907.792-1.493.557-2.312-.879-7.96-3.223-10.008-6.007l1.23-1.348s5.618 1.993 7.49.117l4.741 2.901z"/>
                <path fill="#0E4E80" d="M47.7 37.949l-12.408-6.682a2.767 2.767 0 0 0-3.394.616L12.466 51.897l4.42 3.898c7.93-5.216 14.66-10.198 19.225-14.799l14.925 5.92-3.336-8.967z"/>
                <path fill="#FEBAC7" d="M58.85 13.392l-.996-2.315s2.342-5.92.498-7.766-6.555-2.813-8.399-1.523c-2.136 1.494-1.082 5.655-1.082 5.655l-.41 2.93c.322.587 1.258.352 1.258.352s.117 2.14 1.668 2.696c1.522.557 1.639.85 1.639 2.579 0 1.7 6.32 1.114 5.823-2.608z"/>
                <path fill="#146EB4" d="M52.411 14.623a7.14 7.14 0 0 0-4.857 7.355l.995 12.689-.937 3.663 16.505 9.436 3.716-8.47c2.663-6.036 2.81-12.893.293-18.988-.058-.118-.117-.264-.176-.381-1.433-3.312-3.394-5.715-6.408-6.594a7.24 7.24 0 0 0-3.95-.029l-5.18 1.319z"/>
                <g fill="#FEBAC7">
                    <path d="M48.695 25.993l8.955 2.168s-1.2 7.912-2.459 9.905c-1.287 1.993-22.181-6.799-22.181-6.799l-4.36-1.494s.848-1.758 2.75-2.344c1.902-.586 3.746 1.406 3.746 1.406l13.666 2.051-.117-4.893z"/>
                    <path d="M54.226 38.388c-4.331 0-20.485-6.769-21.246-7.091l-4.419-1.524.03-.059c0-.029.878-1.787 2.78-2.344 1.843-.527 3.628 1.23 3.775 1.407l13.578 2.05-.088-4.893h.059l8.984 2.169v.029c0 .088-1.2 7.941-2.488 9.905-.117.263-.468.351-.965.351zm-25.548-8.644l4.302 1.494c.205.088 20.895 8.762 22.124 6.828 1.2-1.876 2.37-9.202 2.458-9.846l-8.838-2.14.088 4.894h-.059l-13.666-2.05c-.029-.03-1.843-1.935-3.687-1.407-1.697.44-2.546 1.934-2.722 2.227z"/>
                </g>
                <path fill="#00508C" d="M12.847 54.623l-2.692 3.282a1.214 1.214 0 0 1-1.58.264C6.496 56.849 1.433 53.392 0 50.227l1.463-1.055s5.092 3.106 7.316 1.641l4.068 3.81z"/>
                <path fill="#146EB4" d="M64.088 47.736s-3.892 5.949-7.872 7.326c-3.98 1.348-25.987-13.567-25.987-13.567-3.043 3.78-8.779 8.293-17.294 13.597l-4.536-4.279C15.188 45.07 21.275 39.15 25.4 32.674c.849-1.026 2.224-1.436 3.482-.967l19.022 6.799 16.183 9.23z"/>
                <path fill="#0E4E80" d="M47.905 38.506l16.183 9.23s-.82 1.26-2.078 2.726c-1.756-2.345-6.028-7.297-14.105-11.956z"/>
                <path fill="#E6E7E8" d="M44.503 36.063l-16.835-5.661.318-.948 16.836 5.661z"/>
                <path fill="#E6E7E8" d="M24.803 12.433L28.2 29.868l-.982.191-3.398-17.435z"/>
                <ellipse cx="27.801" cy="29.978" fill="#BCBEC0" rx="1" ry="1"/>
                <path fill="#031162" d="M48.958 1.172c1.376-1.084 6.38-1.758 9.072.703-.058-.058 0 0 0 0-2.341 1.407-5.472 1.876-6.496 2.022h.087c-.146 0-.292 0-.439.03-1.317.234-2.458.205-2.458.205s-1.17-1.846.234-2.96z"/>
                <path fill="#9E8FAE" d="M55.191 10.051s1.288-2.11 0-2.9c-1.287-.792-1.697.292-1.697.292s-1.17-.996-.878-1.905c.234-.82-.029-1.67-1.082-1.64 1.053-.118 4.184-.616 6.496-2.023.117.118.263.235.38.352 2.663 2.667.088 8.293-.468 8.615-.556.352-2.282 1.32-2.75-.79z"/>
                <path fill="#031162" d="M58.176 27.136c-.087 0-.117-.06-.117-.118.79-6.828-1.287-8.293-1.317-8.322-.058-.03-.058-.117-.029-.147.03-.058.117-.058.147-.029.087.059 2.224 1.553 1.433 8.528-.029.058-.058.088-.117.088z"/>
            </g>
            <path fill="#1599FB" d="M236.106 209.453c-.088 4.923-.82 16.762-5.882 24.352-3.366 5.07-8.428 7.092-14.369 4.894-2.195-.82-4.594-1.964-6.467-3.575-2.692-2.286-8.545-2.462-13.14-.03-5.472 2.872-3.219 10.726 3.073 10.726h30.522c2.605 0 4.975-1.436 6.058-3.634 4.302-8.791 4.623-26.432 4.594-32.703 0-1.26-.995-2.286-2.195-2.286-1.2 0-2.165 1.026-2.194 2.256z"/>
        </g>
        <g fill-rule="nonzero">
            <path fill="#000" d="M136.76 246.996c.936 0 2.107-.176 2.429-.997.234-.644-.235-1.348-.849-1.67-.615-.322-1.375-.352-2.107-.381-9.247-.293-18.495-.733-27.742-.996-1.054-.03-2.575-.118-3.336.732-.966 1.084-.351 2.843.936 3.4 1.785.761 4.595.205 6.497.205l7.462-.088c5.53-.059 11.12-.205 16.71-.205z" opacity=".15"/>
            <path fill="#0E4E80" d="M125.274 240.873v3.985h3.804s-.088-.615 1.17-.41c1.26.205.674.674 2.693.674h3.248a.587.587 0 0 0 .586-.586.617.617 0 0 0-.322-.527c-1.112-.616-5.004-2.843-5.912-4.162h-5.296v1.026h.029zM106.768 240.873v3.985h3.804s-.088-.615 1.17-.41c1.259.205.674.674 2.693.674h3.248a.587.587 0 0 0 .585-.586.617.617 0 0 0-.322-.527c-1.112-.616-5.004-2.843-5.91-4.162h-5.298v1.026h.03z"/>
            <path fill="#0E4E80" d="M106.969 193.546l1.229 27.37-2.488 18.989 7.726-.205s1.96-18.667 1.96-19.84c0-1.171 1.698-19.955 1.698-19.955l-10.125-6.36z"/>
            <path fill="#146EB4" d="M124.689 189.43s2.516 15.912 4.184 30.359c1.025 8.88 1.259 18.432 1.815 19.81 0 0-6.263.146-7.14.146l-2.078-19.077-6.204-17.348s-3.57-.938-6.643-2.96c-3.073-2.022-1.463-9.465-1.463-9.465l17.529-1.465z"/>
            <path fill="#FE91A6" d="M125.45 167.78l.087.293s1.727-.527 1.961-.762c.234-.234.644-.674.644-.674l.439-.41-.907-2.52-2.137 3.048-.292.644.205.381z"/>
            <path fill="#FEBAC7" d="M122.205 147.1l.644 1.466c.204.498.234 1.025.087 1.553-.234.703-.468 1.67-.204 1.963.292.293.995.88 1.463 1.26a.466.466 0 0 1-.03.762l-.731.527s.673 1.876-.732 2.55c-1.404.674-2.165 1.113-2.165 1.993 0 .879.439 2.813.439 2.813l-6.76-.323s1.2-2.315 1.2-4.337-2.254-6.769-1.2-8.556c1.083-1.817 6.35-6.037 7.989-1.67z"/>
            <path fill="#F58A07" d="M112.907 160.73l1.083-2.168 6.028 1.876c.644.205 1.142.703 1.288 1.348l.234.937-8.633-1.992z"/>
            <path fill="#E6E7E8" d="M134.77 172.126l-9.19-7.678c-.204-.176-.146-.469.147-.674l7.433-5.245c.263-.206.673-.206.878-.059l9.189 7.678c.205.175.146.469-.147.674l-7.433 5.245c-.292.205-.673.234-.877.059z"/>
            <path fill="#000" d="M135.267 171.645l-8.78-7.326 7.024-4.924 8.779 7.326z"/>
            <path fill="#939598" d="M137.885 169.828l-.088-.059 1.58-1.113.088.058z"/>
            <path fill="#FEBAC7" d="M125.709 167.719s.82-.235 1.23-.645c.409-.41.614-2.14.614-2.14l.819-1.23c.088-.147.146-.322.088-.498l-.059-.293a.283.283 0 0 0-.526-.088c-.498.762-1.376 2.022-1.727 2.344-.498.498-1.931 1.114-1.931 1.114s.819 1.729 1.492 1.436z"/>
            <path fill="#0E4E80" d="M106.526 164.961a6.487 6.487 0 0 1 7.199-4.249l7.696 1.26c2.839.381 4.858 2.93 4.624 5.773l-1.463 17.993.585 4.366s-9.394 3.634-17.997 1.67l-1.024-16.117c-.469-2.96-.82-7.297.38-10.696z"/>
            <path fill="#031162" d="M118.832 155.405c.175 0 .292-.146.263-.322-.176-.967-.644-3.722-.205-4.132.527-.528-1.346-1.993-1.346-1.993s.263-1.846 2.165-1.846c1.903 0 1.903-.38 1.903-.38s1.053-1.378-1.288-2.375c-2.341-.996-6.614 2.052-6.614 2.052s-2.224-.235-2.75 2.256c-.527 2.52.965 5.89 2.253 6.887 1.317.996 1.756 2.403 1.756 2.403h.234a3.042 3.042 0 0 0 2.955-2.315l.03-.088s-2.81-1.466-1.844-2.755c.966-1.26 1.756-.176 1.756.264 0 .351.322 1.64.468 2.139.03.117.146.205.264.205zM122.156 152.115c-.556 0-1.024-.615-1.024-1.406 0-.792.468-1.407 1.024-1.407s1.025.615 1.025 1.407c0 .79-.469 1.406-1.025 1.406zm0-2.55c-.439 0-.79.528-.79 1.173s.351 1.172.79 1.172c.44 0 .79-.527.79-1.172 0-.645-.38-1.172-.79-1.172z"/>
            <path fill="#031162" d="M118.165 152.18c-.059 0-.117-.029-.117-.088 0-.058.03-.117.088-.146l3.219-.586a.16.16 0 0 1 .146.088c0 .058-.03.117-.088.146l-3.248.586c.03 0 .03 0 0 0z"/>
            <path fill="#FEBAC7" d="M130.385 174.302s.586-1.875.849-2.168c.263-.264 1.58-1.026 1.58-1.026l.966-2.256s.849.322.849.703c0 .41-1.23 2.667.087 3.4l3.366-2.14s-.293 1.377-.761 1.846c-.468.469-5.414 4.425-5.414 4.425l-1.522-2.784z"/>
            <path fill="#E6E7E8" d="M129.357 174.7l1.23-.704 2.223 3.224-.965.996z"/>
            <path fill="#0E4E80" d="M116 165.482s-3.541 4.044-4.068 13.187c-.527 9.143 3.014 8.82 5.297 8.82 2.282 0 15.129-9.758 15.129-9.758l-2.897-4.161-8.311 4.571s3.511-6.74 3.511-10.9c0-4.162-7.257-4.514-8.662-1.76z"/>
            <path fill="#031162" d="M115.852 188.256c-.731 0-1.521-.176-2.195-.762-1.404-1.26-1.96-4.015-1.726-8.44.527-9.084 4.068-13.216 4.097-13.245.03-.059.117-.059.175 0 .059.029.059.117 0 .176-.029.029-3.54 4.131-4.038 13.128-.234 4.278.322 7.062 1.639 8.263.965.85 2.165.762 3.102.616.907-.147 1.902-.674 2.604-1.055.205-.117.351-.205.498-.264.058-.03.117 0 .146.059.03.058 0 .117-.059.146-.146.059-.292.147-.497.264-.732.381-1.727.938-2.692 1.084-.293-.029-.673.03-1.054.03zM120.104 178.442l.176-.352c.029-.058 2.663-5.128 3.336-9.143 0-.058.058-.117.146-.088.059 0 .117.059.088.147-.585 3.428-2.605 7.648-3.19 8.879l4.038-2.227c.059-.03.118 0 .147.058.029.06 0 .118-.059.147l-4.682 2.579z"/>
            <path fill="#031162" d="M120.104 186.744s3.014-1.553 5.209-1.73l.146-1.758-5.355 3.488z"/>
        </g>
        <g fill-rule="nonzero">
            <path fill="#000" d="M69.531 198.122c1.756.029 3.57.087 5.18.79 1.814.821 3.307 2.492 5.297 2.492.731 0 1.463-.264 2.165-.118.703.147 1.376.938.937 1.524-.264.352-.79.41-1.23.44-7.637.38-15.275.732-22.913 1.113-.527.03-1.112.059-1.492.44-.732.674-.147 1.934.76 2.403.908.44 1.288.791 2.254 1.025.995.264 3.512 1.26 3.365 2.228-.117.674-1.61.586-2.312.732-.702.147-1.433 0-2.136-.117l-7.55-1.436c-.82-.146-1.141-1.114-.614-1.758.321-.381.556-.82.673-1.29.322-1.26-.205-2.696-1.288-3.457-1.844-1.348-4.448-.47-6.32-1.641-1.464-.909-.674-2.491.73-3.136 1.961-.88 5.268-.293 7.434-.293h8.076c2.985-.03 5.97 0 8.984.059z" opacity=".15"/>
            <path fill="#E6E7E8" d="M46.823 198.385l-.849-.234 6.672-30.77h6.643l5.121 30.8-.848.175-5.004-30.095h-5.239z"/>
            <path fill="#A7A9AC" d="M47.467 198.59a1.1 1.1 0 0 1-1.083 1.085 1.1 1.1 0 0 1-1.083-1.085 1.1 1.1 0 0 1 1.083-1.084 1.1 1.1 0 0 1 1.083 1.084zM65.054 198.59a1.1 1.1 0 0 1-1.083 1.085 1.1 1.1 0 0 1-1.082-1.085 1.1 1.1 0 0 1 1.082-1.084c.615 0 1.083.498 1.083 1.084z"/>
            <g fill="#6D6E71">
                <path d="M55.631 198.385l-.848-.234 6.672-30.77h6.643l5.12 30.8-.848.175-5.004-30.095h-5.238z"/>
                <path d="M56.246 198.59a1.1 1.1 0 0 1-1.083 1.085 1.1 1.1 0 0 1-1.083-1.085 1.1 1.1 0 0 1 1.083-1.084 1.1 1.1 0 0 1 1.083 1.084zM73.862 198.59a1.1 1.1 0 0 1-1.082 1.085 1.1 1.1 0 0 1-1.083-1.085 1.1 1.1 0 0 1 1.083-1.084 1.1 1.1 0 0 1 1.082 1.084z"/>
            </g>
            <path fill="#BCBEC0" d="M48.666 146.898h15.452l.585 10.99c.205 3.72 1.99 7.179 4.946 9.464l3.862 3.019h-19.05l-2.049-1.905a14.905 14.905 0 0 1-4.682-10.14l-.468-9.904a1.401 1.401 0 0 1 1.404-1.524z"/>
            <path fill="#E6E7E8" d="M48.93 158.297l-.468-9.904c-.03-.82.614-1.495 1.404-1.495h-1.229c-.82 0-1.463.674-1.405 1.495l.469 9.904a14.846 14.846 0 0 0 4.682 10.14l2.048 1.904h1.23l-2.049-1.904c-2.81-2.638-4.477-6.272-4.682-10.14z"/>
            <path fill="#0E4E80" d="M72.809 196.979l-1.083 4.425c-.088.527.293.996.82.996h1.873l.79-1.026.526 1.026h7.316l.527-.967s-5.18-1.055-6.38-3.839l-4.389-.615zM54.52 202.898l-2.05 4.044a.838.838 0 0 0 .586 1.143l1.844.41.995-.85.263 1.143 7.14 1.641.732-.82s-4.8-2.198-5.355-5.158l-4.156-1.553z"/>
            <path fill="#0E4E80" d="M68.624 154.927l.849 3.78s12.29 15.415 12.73 16.587c.468 1.172-3.746 22.974-3.746 22.974-1.2.176-3.834-.322-6.35-.762 0 0-1.112-14.27.614-20.454l-11.325-9.67.644-12.455h6.584z"/>
            <path fill="#146EB4" d="M54.49 154.927s-.176.528-.44 1.407c-1.872 5.89-1.199 12.278 1.903 17.612l2.429 4.16s-.936 14.155-4.624 24.88c2.458 1.495 4.77 2.286 6.76 1.729l6.73-23.736c.176-.41.264-.85.323-1.29.556-7.12-3.541-13.274-3.541-13.274s5.443-2.198 4.653-11.488c-.059 0-14.018-.205-14.193 0z"/>
            <g fill="#FEBAC7">
                <path d="M76.701 125.154s-.439-.937-.439-1.67l3.541-.557-.146 1.847c.029 0-2.839.674-2.956.38z"/>
                <path d="M80.037 118.942l-.234 4.19-3.54.44s-.381-.88-.937-1.436c-.556-.557-.234-1.143-.234-1.143s.556-.44.76.147c.205.586.205.908.644.879.41-.059.351-2.432.351-2.432l3.19-.645z"/>
            </g>
            <path fill="#F58A07" d="M71.287 130.664h5.414l-.439-5.978c1.23.175 2.605 0 3.658-.616 0 0 3.57 10.315 2.956 12.806-.615 2.344-11.97 1.114-11.97 1.114l.381-7.326z"/>
            <path fill="#F58A07" d="M55.163 130.957l12.935-.733 8.603.41s-3.131 5.45-4.682 9.231c-2.81 6.857-3.395 15.033-3.395 15.033H54.49l-3.22-17.582c-.175-1.172-.38-6.36 3.893-6.36z"/>
            <path fill="#FEBAC7" d="M63.942 119.089s1.083 1.172 1.083 2.96c0 1.787.702 2.373.702 3.516 0 1.143-1.346 1.934-2.107 2.696-.76.762-.146 2.227-.146 2.227l-1.844 1.875-2.634-1.729s.44-1.553 0-2.696c-.438-1.142-2.516-3.838-1.843-5.92.731-2.138 4.038-5.713 6.79-2.93z"/>
            <path fill="#031162" d="M59.611 124.1s-.702 0-.702 1.113c0 1.114.848 1.524 1.141 1.524.263 0-1.024 1.172-1.024 1.172s-2.517 1.407-2.956 0c-.439-1.407.644-1.612.644-1.612s-2.224-1.289-1.288-2.227c.937-.937.966-.703.761-1.846-.205-1.143-.03-3.604 1.463-3.604 0 0-.117-1.73 1.815-2.11 1.931-.381 2.838.586 2.838.586s1.025-1.319 2.107-.674c1.083.645 1.346 1.172 1.346 1.172s.79-.41 1.405.205c.615.616.176 3.4-2.75 3.136-2.898-.264-3.015-.82-3.015-.82s1.141 1.376.264 2.256c-.878.879-1.464 1.611-1.464 1.934 0 .38-.585-.205-.585-.205z"/>
            <path fill="#F58A07" d="M77.042 135.763c-.056 0-.113-.06-.113-.118l-.17-4.395c0-.059.057-.117.114-.117.056 0 .113.058.113.117l.169 4.395c0 .059-.028.118-.113.118.028 0 .028 0 0 0z"/>
            <path fill="#00508C" d="M69.151 123.69l-1.258.292c-.41.088-.761-1.465-.351-1.582l1.258-.293.351 1.582z"/>
            <path fill="#1599FB" d="M101.136 118.678l-32.22 5.392c-.438.088-.906-1.992-.467-2.08l31.37-9.202c2.722-.615 4.068 5.275 1.317 5.89z"/>
            <path fill="#031162" d="M101.956 115.25c.263 1.172-.176 2.256-1.025 2.461-.819.176-1.726-.615-1.99-1.758-.263-1.172.176-2.256 1.025-2.462.82-.175 1.726.616 1.99 1.759z"/>
            <path fill="#E6E7E8" d="M100.931 114.546l-1.14 1.934s-.762-1.289-.03-2.139c.497-.556 1.17.205 1.17.205z"/>
            <g fill="#FEBAC7">
                <path d="M80.037 118.854s0 1.407-.76 1.612c0 0-.381.117-.293-.323.087-.44.175-.79.175-1.084 0-.263.732-.791.878-.205z"/>
                <path d="M79.247 118.971s0 1.495-.79 1.67c0 0-.38.147-.293-.322.088-.469.205-.82.205-1.143-.03-.293.732-.82.878-.205z"/>
                <path d="M78.398 119.06s0 1.494-.79 1.67c0 0-.38.146-.292-.323.087-.469.204-.82.204-1.143-.029-.293.761-.82.878-.205z"/>
                <path d="M77.52 119.323s0 1.494-.79 1.67c0 0-.38.147-.292-.322.087-.469.205-.82.205-1.143-.03-.293.731-.82.877-.205z"/>
            </g>
            <path fill="#FEBAC7" d="M72.077 126.356s.79-1.26.644-3.106l-.03-1.29c0-.058 0-.088-.028-.146-.059-.235-.264-1.084.556-1.26 0 0-.878-.791-1.346.058 0 0-.79-.44-.908.499 0 0-.643-.381-.79.293 0 0-.526-.264-.644.293 0 0-.117.351-.058 1.406.03.557.322 2.08 0 2.462l2.604.79z"/>
            <path fill="#F58A07" d="M55.426 140.598l8.428 3.985c1.815.85 3.98-.146 4.448-2.11l4.039-16c-.849-1.26-1.902-1.348-3.014-.908l-4.77 12.425-6.087-5.656a3.04 3.04 0 0 0-1.96-.82 5.935 5.935 0 0 0-3.513 1.025c-.848.557-1.112 1.553-1.112 2.579 0 2.373 1.434 4.483 3.541 5.48z"/>
            <path fill="#031162" d="M64.586 138.195l-5.736-5.334c-.058-.029-.058-.117 0-.175.03-.059.117-.059.176 0l5.501 5.099 2.751-7.18c.03-.059.088-.088.146-.059.059.03.088.088.059.147l-2.897 7.502z"/>
            <path fill="#031162" d="M65.23 144.993c-.469 0-.966-.117-1.405-.322l-8.428-3.985c-.585-.264-1.112-.645-1.61-1.085-.058-.029-.058-.117 0-.175.03-.06.118-.06.176 0 .468.41.966.761 1.551 1.025l8.428 3.986a3.178 3.178 0 0 0 2.634 0c.848-.381 1.434-1.143 1.668-2.022l2.838-11.253a.16.16 0 0 1 .147-.088c.058.03.088.088.088.146l-2.839 11.253c-.234.967-.907 1.758-1.785 2.198a3.397 3.397 0 0 1-1.463.322z"/>
            <g>
                <path fill="#031162" d="M60.343 156.032h-5.385c-.058 0-.117-.056-.117-.113 0-.056.059-.112.117-.112h5.385c.058 0 .117.056.117.112 0 .085-.059.113-.117.113z"/>
                <path fill="#E6E7E8" d="M63.971 156.187c0 .47-.526.85-1.2.85-.673 0-1.2-.38-1.2-.85 0-.468.527-.85 1.2-.85.674 0 1.2.382 1.2.85z"/>
                <path fill="#031162" d="M68.127 156.15H64.82c-.059 0-.117-.057-.117-.113 0-.057.058-.113.117-.113h3.307c.058 0 .117.056.117.113 0 .056-.059.113-.117.113z"/>
            </g>
        </g>
        <g fill-rule="nonzero">
            <path fill="#FEBAC7" d="M111.456 28.912s.763-.133.896-.886c.133-.754.298-1.556.492-1.795.193-.24-.672-.334-.805.046-.137.407-.646 1.001-.646 1.001l-2.179-1.717s-.02 2.42.118 2.946c.165.529 1.871.689 2.124.405z"/>
            <path fill="#FE91A6" d="M110.791 27.966l.02.429 1.394-1.03z"/>
            <path fill="#00508C" d="M111.384 38.889c-.226.474-.453.948-.496 1.448-.048.526.114 1.082.52 1.405.623.487 1.517.187 2.227-.14 2.423-1.15 4.662-2.7 6.554-4.618.714-.726 1.412-1.533 1.63-2.514.432-1.937-1.109-8.2-2.804-6.92-2.321 1.752-3.815 5.377-5.186 6.809-1.212 1.241-1.696 2.984-2.445 4.53z"/>
            <path fill="#00508C" d="M111.785 42.088c-.793.155-1.71.053-2.329-.46-1.026-.837-.992-2.404-.886-3.72l.78-9.532c.08.384.568.506.97.483.402-.024.82-.151 1.162.057.347.181.47.625.576 1.013a69.748 69.748 0 0 1 1.427 7.444c.125 1.003.557 2.475.339 3.457-.226.847-1.275 1.126-2.039 1.258z"/>
            <path fill="#FFF" d="M112.205 27.366l-1.477.671a.454.454 0 0 1-.582-.215l-1.594-3.606a.455.455 0 0 1 .215-.582l1.477-.672a.454.454 0 0 1 .582.215l1.594 3.607a.436.436 0 0 1-.215.582z"/>
            <path fill="#F58A07" d="M108.676 24.458l2.289-1.011 1.365 3.087-2.289 1.012z"/>
            <path fill="#BCBEC0" d="M109.39 23.666l.916-.404.404.915-.915.404z"/>
            <g fill="#FEBAC7">
                <path d="M108.49 24.66s.479-.758.669-.785c.186 0 .697.524-.321 1.526-.03.023-.82-.035-.348-.741z"/>
                <path d="M108.663 25.323s.478-.758.668-.785c.187 0 .698.525-.32 1.527-.03.022-.798-.006-.348-.742z"/>
                <path d="M108.999 25.77s.479-.758.669-.785c.186 0 .697.524-.321 1.526-.004.027-.794-.031-.348-.74z"/>
                <path d="M109.213 26.52s.478-.76.668-.786c.187 0 .698.524-.32 1.527 0 0-.794-.032-.348-.742z"/>
            </g>
            <path fill="#FEBAC7" d="M109.616 26.869s.998.273 1.194 1.34c.17 1.062-.87.33-.87.33s-.536-1.3-.324-1.67z"/>
            <path fill="#0E4E80" d="M107.906 91.266l-.411 2.925c-.03.21-.212.37-.42.34-2.027-.15-11.441-.915-12.02-1.715-.673-.893.753-1.572 1.978-1.4 1.226.173 5.636.02 5.938-1.376l4.935 1.226zM123.042 69.291l2.893 1.365a.307.307 0 0 1 .154.421c-.775 1.73-4.697 10.526-5.673 10.842-1.057.33-1.477-1.22-.898-2.31.578-1.091 2.315-6.253 1.091-7.011l2.433-3.307z"/>
            <path fill="#0E4E80" d="M117.001 49.826s-7.753 13.531-8.94 17.626c-1.187 4.094-5.116 22.585-5.116 22.585s2.879 1.47 4.96 1.23c0 0 6.25-16.087 7.33-18.839 1.103-2.748 3.036-6.47 5.183-9.258 2.174-2.784 5.074-3.549 7.378-4.05l-.423-3.043L117 49.826z"/>
            <path fill="#146EB4" d="M135.238 51.963s-2.222 6.159-8.019 7.288c-5.797 1.13-12.867-2.873-12.867-2.873s4.264 1.451 9.726 13.298c0 0-1.703 2.85-3.685 2.945 0 0-16.825-16.534-16.599-20.417.23-3.91 15.895-3.146 15.895-3.146l14.97 2.104.58.8z"/>
            <path fill="#F1F2F2" d="M105.332 48.918l17.248-1.687.1 1.024-17.247 1.687z"/>
            <path fill="#F1F2F2" d="M104.614 49.432L98.409 33.25l.96-.369 6.205 16.182z"/>
            <path fill="#D1D3D4" d="M105.758 49.204c.009.321-.218.609-.538.617a.57.57 0 0 1-.586-.562c-.008-.32.218-.608.538-.616.295-.012.552.237.586.561z"/>
            <path fill="#FFF" d="M105.465 49.216c.004.16-.123.303-.257.31-.16.005-.276-.118-.306-.282-.004-.16.122-.303.256-.31a.298.298 0 0 1 .307.282z"/>
            <path fill="#0E4E80" d="M135.238 51.963l-.575-.827-14.97-2.104s4.802 4.244 14.14 5.556c.972-1.435 1.405-2.625 1.405-2.625z"/>
            <g>
                <path fill="#FEBAC7" d="M111.868 19.355l.32 1.51c.08.384.411.67.832.703 0 0 .255.835-.05 1.112-.278.28-.52.859.092.865.607.032.871.042.871.042s-.107.571.517 1.245c.623.673 1.4 1.395 2.855.88 1.43-.518 1.554.299 1.972.73.414.458.85 2.463.85 2.463l4.553-3.248s-3.629-2.002-3.59-3.035c.043-1.06-1.403-6.669-5.422-6.834-4.023-.14-4.108 2.166-3.8 3.567z"/>
                <path fill="#031162" d="M117.525 20.736l-.424-.006s.245 1.659.228 2.35c-.017.69-.92.296-1.713.264-.793-.031-1.653.22-1.653.22s-.107.572.517 1.245c.623.674 1.4 1.395 2.855.88.42-.153.744-.187.979-.154.68-.304.41-1.594-.101-2.119-.538-.528-.688-2.68-.688-2.68z"/>
                <path fill="#FEBAC7" d="M115.38 24.083c-.537-.155-1.05.093-1.311.242.082.172.194.32.355.503l.045.06c.625-.099 1.59.037 1.776-.15.268-.202-.072-.436-.866-.655z"/>
                <path fill="#031162" d="M117.1 20.73s-.558-1.89-1.3-1.914c-.74-.024-.732-1.035-.732-1.035s-2.7.1-3.068 2.152c0 0-2.961-1.828-1.706-3.382 1.286-1.577 5.552-1.084 5.552-1.084s2.657-.932 4.314.34c1.656 1.271.777 6.767.946 7.084.172.29-2.12 1.273-2.671-.11 0 0 1.074-1.207.93-2.266-.14-1.085-1.783-1.315-1.858.352.026.004-.417.128-.406-.137z"/>
            </g>
            <path fill="#E6E7E8" d="M123.146 24.456l-.485-.521s-2.323.632-3.679 2.333l-.224 1.593s-1.501 5.195-.723 8.74c.749 3.568 2.742 10.959 1.687 12.409 0 0 3.73 2.788 9.01 1.745 5.28-1.042-2.142-22.033-2.86-22.986-.746-.93-2.726-3.313-2.726-3.313z"/>
            <path fill="#00508C" d="M123.457 25.272l1.39-.044s3.234.454 6.694 4.03c3.46 3.575 6.438 14.94 8.14 17.203 1.704 2.264 4.39 2.641 4.39 2.641s-5.684 5.247-10.77 4.532c-4.955-.696-6.832-2.478-8.1-6.145-1.27-3.64-3.19-6.254-5.292-9.08-.695-.923-1.358-2.64-1.986-3.848-1.526-2.77 2.59-8.025 5.534-9.289z"/>
            <path fill="#FEBAC7" d="M117.347 47.744s-1.15.424-2.399.035c-1.248-.388-1.593-1.342-1.593-1.342l-1.138.719a.442.442 0 0 1-.477-.014.421.421 0 0 1-.098-.626l.85-1.133-1.263-.47-1.303.563a.363.363 0 0 1-.458-.145c-.083-.171-.027-.376.118-.463l1.689-1.04c.085-.042.171-.083.275-.068l1.643.23 3.506.227.648 3.527z"/>
            <path fill="#00508C" d="M121.6 30.923s-.397 4.898 3.8 7.592c4.173 2.664 6.49 3.203 6.49 3.203l-15.378 2.313.81 4.082s17.184-.967 22.417-3.002c5.232-2.034-6.692-16.92-11.5-18.475-4.827-1.61-6.64 4.287-6.64 4.287z"/>
            <path fill="#031162" d="M123.755 43.025c-.052-.008-.075-.037-.093-.093-.02-.056.04-.101.096-.12l7.742-1.15c-.828-.355-3.057-1.334-6.141-3.046-3.994-2.24-3.852-7.04-3.848-7.066.007-.052.04-.1.12-.09.051.008.1.041.089.12-.008.052-.132 4.722 3.739 6.89 3.92 2.202 6.443 3.17 6.465 3.2l.38.133-8.504 1.281c-.019-.056-.045-.06-.045-.06zM125.824 47.603c-.052-.007-.074-.037-.093-.093.007-.052.04-.1.097-.12.108-.01 9.492-.742 11.9-1.603.056-.018.105.015.124.071.018.056-.015.105-.07.123-2.413.886-11.552 1.573-11.958 1.622.026.004 0 0 0 0z"/>
            <path fill="#1957C2" d="M119.18 37.162s-.45-3.233.299-4.965c.274-.628.109-1.343-.354-1.835l-.396-.401.794.218a.978.978 0 0 0 1.213-.682c.392-1.277 1.42-3.476 4.107-4.243l-1.365-.885s-6.024 1.604-6.187 7.12c.003-.025-.236 2.817 1.889 5.673z"/>
            <g fill="#FEBAC7">
                <path d="M113.67 46.082l-.936.987c-.126.142-.13.354.012.48a.356.356 0 0 0 .444.063l1.343-.85-.862-.68z"/>
                <path d="M114.528 46.415l-.936.987c-.127.142-.13.355.012.481a.356.356 0 0 0 .443.063l1.343-.85-.862-.68z"/>
            </g>
        </g>
        <path fill="#146EB4" fill-rule="nonzero" d="M304.13 126.3a30.23 30.23 0 0 1-.234-1.464l.585-.06c.059.47.117.968.205 1.408l-.556.117zm.322-3.545l-.585-.03c.029-.498.058-.996.146-1.494l.585.088a7.967 7.967 0 0 0-.146 1.436zm.556-3.4l-.556-.146c.146-.469.292-.938.468-1.406l.556.205c-.205.44-.351.879-.468 1.348zm17.412-.556c-.322 0-.673-.03-.995-.088l.088-.586c.468.059.936.088 1.404.059l.059.586c-.205.029-.38.029-.556.029zm2.575-.615l-.263-.528c.263-.146.526-.322.76-.527.118-.088.205-.206.293-.293l.44.38-.352.352a2.98 2.98 0 0 1-.878.616zm-5.619-.088c-.146-.059-.263-.147-.41-.206-.292-.175-.585-.351-.877-.556l.35-.47c.264.206.557.382.82.528.117.059.234.147.38.205l-.263.499zm-13.11-1.934l-.527-.264c.235-.44.469-.88.732-1.29l.497.323c-.234.38-.468.791-.702 1.23zm10.242-.235a13.147 13.147 0 0 1-.965-1.143l.468-.351c.322.41.615.761.936 1.084l-.439.41zm10.77-.586l-.556-.147c.117-.44.175-.879.175-1.347l.585-.03v.03c0 .498-.087 1.025-.204 1.494zm-19.11-2.08l-.439-.382c.322-.38.644-.761.995-1.113l.41.41c-.322.352-.644.733-.966 1.084zm6.146-.118a1.662 1.662 0 0 1-.234-.38c-.176-.294-.38-.587-.556-.85l.497-.323c.176.293.38.557.556.85.088.117.176.234.234.38l-.497.323zm12.232-1.26a5.03 5.03 0 0 0-.615-1.26l.498-.322c.263.44.497.879.673 1.377l-.556.205zm-15.92-1.055l-.38-.469c.38-.322.79-.615 1.2-.879l.322.498c-.38.264-.79.557-1.142.85zm1.815-.674c-.264-.41-.498-.85-.732-1.26l.498-.293c.234.41.468.85.731 1.26l-.497.293zm12.203-.938a5.475 5.475 0 0 0-1.2-.732l.263-.528c.469.235.908.499 1.288.792l-.351.468zm-11.12-.234l-.264-.527c.44-.206.907-.41 1.376-.587l.204.557c-.439.147-.907.352-1.316.557zm3.219-1.114l-.117-.586.087-.029c.469-.088.937-.176 1.405-.205l.059.586c-.44.03-.908.117-1.347.205l-.087.03zm4.828-.029a10.806 10.806 0 0 0-1.405-.205l.059-.586c.497.03 1.024.117 1.492.205l-.146.586zm-10.857-.791c-.234-.44-.439-.88-.673-1.319l.527-.263c.205.44.439.879.673 1.289l-.527.293zm-1.55-3.165c-.206-.44-.41-.908-.586-1.348l.527-.234c.205.44.38.879.585 1.318l-.527.264zm-1.376-3.253c-.176-.468-.351-.908-.527-1.377l.556-.205c.176.469.351.908.527 1.377l-.556.205zm-1.2-3.311l-.439-1.407.556-.175c.146.468.293.937.44 1.377l-.557.205zm-1.053-3.37c-.117-.469-.264-.938-.38-1.436l.555-.146c.117.469.234.937.38 1.406l-.555.176zm-.85-3.429c-.116-.468-.204-.967-.292-1.435l.586-.118c.087.47.204.967.292 1.436l-.585.117zm-.643-3.487c-.088-.498-.146-.967-.234-1.465l.585-.088c.059.47.147.967.234 1.436l-.585.117zm-.497-3.487c-.059-.498-.088-.967-.147-1.465l.586-.059c.029.498.087.967.146 1.466l-.585.058zm-.293-3.516c-.03-.499-.059-.967-.059-1.466l.586-.029c.029.498.029.967.058 1.465l-.585.03zM69.44 66.123a6.731 6.731 0 0 1-1.463-.527l.263-.528c.41.206.849.381 1.288.47l-.088.585zm2.166-.029l-.147-.557a2.82 2.82 0 0 0 1.083-.498c.03-.03.088-.059.117-.088l.351.47c-.058.028-.088.058-.146.087-.351.264-.79.469-1.258.586zm-5.268-1.875a6.332 6.332 0 0 1-.849-1.26l.527-.264c.234.44.498.82.79 1.172l-.468.352zm8.048-.499l-.527-.234c.175-.41.322-.85.38-1.319l.586.088a6.492 6.492 0 0 1-.44 1.465zm-9.628-2.754c-.059-.205-.088-.41-.117-.586-.059-.293-.088-.586-.117-.88l.585-.058c.03.293.059.557.117.85.03.176.059.38.117.557l-.585.117zm9.423-.762c0-.059-.03-.088-.03-.147-.087-.41-.234-.79-.41-1.201l.528-.234c.175.44.321.85.438 1.289 0 .059.03.117.03.146l-.556.147zm-9.043-2.755l-.585-.058a8.12 8.12 0 0 1 .293-1.465l.556.146c-.147.44-.234.908-.264 1.377zm7.638-.293c-.263-.38-.556-.732-.878-1.143l.44-.38c.35.41.643.79.906 1.172l-.468.351zm-2.253-2.637c-.322-.352-.673-.674-1.024-1.026l.41-.44c.35.352.702.675 1.053 1.026l-.44.44zm-4.448-.352l-.527-.234c.205-.44.439-.88.702-1.319l.498.293c-.264.41-.498.82-.673 1.26zm1.902-2.022c-.38-.322-.761-.615-1.141-.908l.35-.469c.381.293.762.615 1.142.938l-.351.44zm-.059-.879l-.439-.38c.322-.382.644-.763 1.025-1.085l.41.41c-.381.352-.703.704-.996 1.055zm26.777-1.084c-.44-.234-.878-.469-1.288-.674l.263-.528c.44.206.878.44 1.317.674l-.292.528zm-29.498-.176c-.38-.264-.79-.557-1.2-.791l.322-.498c.41.263.82.527 1.229.82l-.351.47zm5.209-1.113l-.351-.47c.41-.292.819-.585 1.229-.85l.292.5c-.38.263-.79.556-1.17.82zm21.157-.264c-.439-.205-.907-.381-1.346-.586l.234-.557c.44.176.908.38 1.347.586l-.235.557zm-29.322-.44c-.41-.234-.849-.469-1.287-.674l.263-.527c.439.234.878.469 1.287.703l-.263.498zm26.074-.85a77.998 77.998 0 0 1-1.375-.44l.175-.556 1.405.44-.205.556zm-14.954-.175l-.234-.528c.468-.205.937-.38 1.405-.527l.175.556a8.343 8.343 0 0 0-1.346.499zm-14.222-.528a18.492 18.492 0 0 0-1.346-.557l.205-.556c.468.175.907.38 1.375.556l-.234.557zm25.84-.234a12.303 12.303 0 0 0-1.434-.264l.088-.586c.468.088.966.176 1.463.264l-.117.586zm-8.31-.235l-.118-.586c.468-.088.966-.146 1.463-.205l.059.586c-.468.03-.937.117-1.405.205zm4.857-.263c-.498-.03-.966-.059-1.434-.059v-.586c.498 0 .995.03 1.492.058l-.058.587zm-25.635-.528a77.997 77.997 0 0 1-1.376-.44l.176-.556 1.405.44-.205.556zm-3.365-.938a20.658 20.658 0 0 0-1.434-.293l.117-.586c.468.088.965.176 1.434.293l-.117.586zm-3.424-.615c-.234-.03-.44-.059-.673-.088l.058-.586c.234.03.44.059.673.088l-.058.586z"/>
        <g fill-rule="nonzero">
            <path fill="#FEA120" d="M299.965 54.926h12.115a3.474 3.474 0 0 1 3.483 3.487v9.759a3.474 3.474 0 0 1-3.483 3.487h-3.95l-3.805 3.575a1.079 1.079 0 0 1-1.814-.791v-2.784h-2.546a3.474 3.474 0 0 1-3.482-3.487v-9.759a3.474 3.474 0 0 1 3.482-3.487z"/>
            <g fill="#FFF">
                <path d="M301.223 62.516h9.628c.498 0 .937-.41.937-.938a.944.944 0 0 0-.937-.938h-9.628a.944.944 0 0 0-.936.938c0 .528.439.938.936.938zM301.223 65.915h9.628c.498 0 .937-.41.937-.938a.944.944 0 0 0-.937-.937h-9.628a.944.944 0 0 0-.936.937c0 .528.439.938.936.938z"/>
            </g>
        </g>
        <path fill="#FFF" fill-rule="nonzero" d="M1.796 2.501l-1.14.528L.42 2.003l1.551-.733h1.141v5.89H1.796z"/>
        <g fill-rule="nonzero">
            <path fill="#9E8FAE" d="M212.408 182.956l-13.988-1.378c-1.522-.146-2.634-1.524-2.488-3.047l1.376-14.008c.146-1.523 1.521-2.637 3.043-2.49l13.988 1.377c1.522.146 2.634 1.524 2.488 3.047l-1.376 14.008c-.175 1.524-1.521 2.637-3.043 2.49z"/>
            <path fill="#FFF" d="M214.34 163.41l-13.989-1.378c-1.522-.146-2.897.968-3.043 2.491l-1.083 11.019 19.519 1.934 1.083-11.019c.146-1.523-.966-2.9-2.488-3.047z" opacity=".3"/>
            <path fill="#FFF" d="M199.883 178.208a1.092 1.092 0 0 1-1.2.997 1.092 1.092 0 0 1-.995-1.202 1.092 1.092 0 0 1 1.2-.996c.615.058 1.053.586.995 1.201zM206.906 179.468l-5.53-.556a.558.558 0 0 1-.498-.616.557.557 0 0 1 .614-.498l5.531.557c.322.03.527.322.498.615-.03.323-.293.528-.615.498z"/>
        </g>
        <g fill="#9E8FAE" fill-rule="nonzero">
            <path d="M240.809.855l.7-.713 5.748 5.65-.7.713zM237.327 5.107l.484-.875 7.05 3.905-.484.874zM235.985 10.55l.232-.973 7.838 1.875-.232.972z"/>
        </g>
    </g>
</svg>
