<svg xmlns="http://www.w3.org/2000/svg" xmlns:xlink="http://www.w3.org/1999/xlink" width="151" height="125" viewBox="0 0 151 125">
    <defs>
        <path id="a" d="M22.674 1.877C15.287 7.61.96 6.094.96 6.094L.3 9.844s18.176 5.362 20.444 1.071c2.267-4.29 9.318-14.772 1.931-9.038"/>
        <linearGradient id="b" x1="4.538%" x2="95.487%" y1="24.616%" y2="57.802%">
            <stop offset="0%" stop-color="#72C3FF"/>
            <stop offset="100%" stop-color="#55A9EB"/>
        </linearGradient>
        <path id="d" d="M8.218.336c-.135 0-.267.002-.397.007C3.498.501.12 6.457.12 10.775v15.62h16.686V8.518c0-3.973-2.85-7.446-6.783-8.05A11.892 11.892 0 0 0 8.218.336"/>
        <path id="f" d="M14.273.355s8.416 11.221 3.13 16.664C12.115 22.46.22 20.152.22 20.152V16.69s11.234.027 11.895-3.78c.66-3.807-2.672-7.93-2.672-7.93"/>
        <path id="h" d="M11.011 3.889s-.673-.903-.673-1.88c0-.976.636-1.761.636-1.761v-.07H2.098C1.019.177.136.963.136 1.924v.309c0 .96.883 1.747 1.962 1.747h8.876l.037-.024V3.89z"/>
    </defs>
    <g fill="none" fill-rule="evenodd">
        <path stroke="#146EB4" stroke-width="1.984" d="M33.073 56.101c-4.542-17.502 0-52.784 0-52.784h77.408v51.669S58.83 63.133 33.073 56.1z"/>
        <path fill="#146EB4" d="M111.088 2.754H32.433c-.758 0-1.379-.62-1.379-1.377S31.674 0 32.434 0h78.654c.758 0 1.38.62 1.38 1.377s-.622 1.377-1.38 1.377"/>
        <path fill="#F58A07" d="M49.561 42.782c0 1.036-.84 1.876-1.878 1.876a1.877 1.877 0 0 1-1.878-1.876c0-1.035.84-1.875 1.878-1.875 1.038 0 1.878.84 1.878 1.875M97.695 9.455a1.877 1.877 0 0 1-1.878 1.875 1.877 1.877 0 0 1-1.879-1.875c0-1.035.841-1.875 1.88-1.875 1.036 0 1.877.84 1.877 1.875"/>
        <path fill="#F58A07" d="M55.73 43.646h-7.208v-.882h6.713l3.429-5.562h9.906l3.516-7.786H86.25L95.99 9.13l.798.381-9.983 20.788H72.657l-3.516 7.786h-9.984l-3.428 5.561"/>
        <path fill="#FFC53A" d="M42.7 48.369V10.293h.883v37.194H98.07v.882z"/>
        <path fill="#F58A07" d="M72.2 27.32h1.918v-1.914h-1.917zM72.2 24.608h1.918v-1.915h-1.917zM72.2 21.896h1.918V19.98h-1.917zM70.648 19.101h4.385l-2.166-3.383-2.22 3.383M85.01 18.795h1.918v-1.914H85.01zM85.01 16.082h1.918v-1.914H85.01zM85.01 13.37h1.918v-1.915H85.01zM83.846 10.576h4.385l-2.166-3.384-2.22 3.384"/>
        <path fill="#0E4E80" d="M128.973 112.212s-1.28 1.185-4.198 1.927c-.643.164-1.335-.055-1.335 1.004h3.541l2.946-.509v.509h1.59s.444-2.598-.485-2.931h-2.059"/>
        <path fill="#F0AB85" d="M129.441 110.274l-.179 1.866c.58.401 1.343.427 1.95.065l.109-.065.33-1.866h-2.21"/>
        <path fill="#0E4E80" d="M141.784 112.212s-1.28 1.185-4.2 1.927c-.642.164-1.335-.055-1.335 1.004h3.542l2.946-.509v.509h1.591s.443-2.598-.486-2.931h-2.058"/>
        <path fill="#F0AB85" d="M142.25 110.274l-.178 1.866c.58.401 1.343.427 1.949.065l.11-.065.33-1.866h-2.21M110.095 41.11c-.197.056-.113-.205-1.436-.67-1.189-.42-3.377-2.833-3.464-1.418.805 1.128 1.616 2.56 1.616 2.56.555.63 1.16 2.03 2.057 2.007l2.764-.417s.767-1.195.813-1.245l-.391-.434a6.107 6.107 0 0 1-1.96-.383"/>
        <path fill="#EC967C" d="M136.621 31.136l-.372 3.652 3.92.155-.785-5.662-2.763 1.855"/>
        <path fill="#F0AB85" d="M135.559 31.66c-.456-.013-.878-.081-1.099-.26-1.313-1.908.183-7.05.183-7.05l2.1-.881 2.667 1.66.152 3.446c.04.92-.402 1.802-1.191 2.376a5.47 5.47 0 0 1-2.812.708"/>
        <path fill="#1B2441" d="M139.111 27.162c-.146-.579-.07-1.914-.66-1.818-.43.07-1.906.131-2.403.131-1.183 0-3.292-.462-3.292-2.26 0-.898.873-1.673 1.426-1.903.543-.227 1.156-.215 1.711-.022 1.304.454 3.031 1.458 3.72 1.32 1.16-.233 2.316.446 2.3 1.429-.018 1.05-.567 2.63-1.084 3.635-.3.58-.7 1.101-1.182 1.543l-.536-2.055"/>
        <path fill="#F0AB85" d="M140.378 27.105c-.264-.232-.757-.188-1.103.099-.345.287-.41.707-.147.94.264.232.757.188 1.102-.098.346-.287.412-.708.148-.94"/>
        <g transform="translate(110.242 34.32)">
            <mask id="c" fill="#fff">
                <use xlink:href="#a"/>
            </mask>
            <path fill="url(#b)" d="M22.674 1.877C15.287 7.61.96 6.094.96 6.094L.3 9.844s18.176 5.362 20.444 1.071c2.267-4.29 9.318-14.772 1.931-9.038" mask="url(#c)"/>
        </g>
        <g transform="translate(130.039 33.157)">
            <mask id="e" fill="#fff">
                <use xlink:href="#d"/>
            </mask>
            <path fill="url(#b)" d="M8.218.336c-.135 0-.267.002-.397.007C3.498.501.12 6.457.12 10.775v15.62h16.686V8.518c0-3.973-2.85-7.446-6.783-8.05A11.892 11.892 0 0 0 8.218.336" mask="url(#e)"/>
        </g>
        <path fill="#F0AB85" d="M132.986 56.644l-3.693.424c-1.51.057-2.72-2.089-3.126-3.73a.34.34 0 0 1 .414-.408c1.296.318 4.632 1.157 5.517 1.597l.888 2.117"/>
        <g transform="translate(131.591 37.42)">
            <mask id="g" fill="#fff">
                <use xlink:href="#f"/>
            </mask>
            <path fill="url(#b)" d="M14.273.355s8.416 11.221 3.13 16.664C12.115 22.46.22 20.152.22 20.152V16.69s11.234.027 11.895-3.78c.66-3.807-2.672-7.93-2.672-7.93" mask="url(#g)"/>
        </g>
        <path fill="#146EB4" d="M146.79 56.042c-5.325 3.063-13.71 1.755-14.868 1.554v-3.161c1.458-.012 11.252-.23 11.892-3.916.666-3.836-2.568-7.891-2.705-8.062l-.257.207c.032.04 3.277 4.108 2.637 7.799-.627 3.608-11.508 3.643-11.73 3.643h-.168v3.764l.134.026c.055.01 2.53.476 5.715.476 2.965 0 6.54-.409 9.35-1.958v-.372"/>
        <path fill="#0E4E80" d="M130.345 59.508c-1.908 9.239-2.201 19.182-2.244 27.529-.07 13.443 1.035 23.267 1.035 23.267h2.754l5.749-38.429s.627 5.716 1.475 15.406c.666 7.604.98 14.033 2.769 23.023h2.762s2.385-27.748 2.385-50.796h-16.685"/>
        <path fill="#146EB4" d="M136.698 32.77h3.486l.555 1.28h-4.49l.45-1.28M95.898 21.856l15.221 24.856c.131.214.414.28.627.146a.446.446 0 0 0 .142-.618L96.322 21.645c-.153-.246-.531-.057-.424.211"/>
        <path fill="#F0AB85" d="M110.47 41.535l-2.712-2.178s-.513.293-.018 1.087c.495.793 1.25 1.593 1.358 1.735.46.227.916.464 1.373.698v-1.342"/>
        <path fill="#EC967C" d="M120.334 60.39l1.002 3.79 2.957-1.895-1.026-5.102-2.933 3.207"/>
        <path fill="#FFC53A" d="M121.03 62.886s-1.7 3.379-3.072 6.438c-.963 2.15-.963 3.987-.052 6.108 2.078 4.834 2.463 11.69 2.463 11.69h9.661s-3.894-9.509-2.82-14.669c1.038-4.995-2.222-11.782-2.222-11.782l-3.957 2.215"/>
        <path fill="#1B2441" d="M119.582 52.61c2.283.31 3.419 3.232 3.419 3.232l-.026 8.645 3.958-3.416s.287-3.901-.69-8.15c-.846-2.677-4.262-3.382-6.66-2.076-1.167.635-1.86 1.88-2.272 3.119-.553 1.66-.601 3.449-.235 5.161l1.358 6.344 2.36-2.344s-.237-.947-.663-2.506c-.87-3.184-2.081-8.216-.549-8.008"/>
        <path fill="#F0AB85" d="M123.644 55.792c-.255-.248-.734-.2-1.07.104-.334.305-.398.753-.142 1s.735.2 1.07-.104c.334-.305.398-.753.142-1"/>
        <path fill="#F0AB85" d="M119.207 60.468c-.442-.013-.852-.085-1.066-.276-1.275-2.028.177-7.496.177-7.496l2.037-.938 2.59 1.767.147 3.663c.039.978-.39 1.917-1.156 2.527-.82.504-1.767.782-2.73.753"/>
        <path fill="#EC967C" d="M117.033 82.372l-1.566 3.444h-1.57c-.59 0-1.17.15-1.686.436l-1.97 1.283 5.973-.116 3.847-4.355-3.028-.692"/>
        <path fill="#1B2441" d="M119.208 52.316c-.488 1.634 3.849 3.53 3.849 3.53l1.09-2.04-1.992-2.436-2.517.402s-.347.272-.43.544"/>
        <path fill="#65B7F6" d="M113.241 123.267a4.2 4.2 0 0 1 .784-.77c.233-.606.467-1.275.544-1.69.165-.908-.742-1.62-.742-1.62s-2.372 2.457-5.272 2.887c-2.9.43-2.572 1.768-2.572 1.768h4.939c.338 0 2.337-2.113 2.34-1.984l-.02 1.409"/>
        <path fill="#EC967C" d="M116.882 94.178h-4.58s1.321 2.802 1.377 6.362c.01.685-.1 1.798-.207 2.475-.838 5.324.357 16.503.357 16.503s-3.14 3.996-5.518 2.927c2.64-1.203 3.322-2.844 3.552-3.629.075-.258.05-.521.017-.789-.21-1.748-2.21-9.336-5.263-25.798-.288-1.552-.517-3.039.37-4.182 2.4-3.101 9.895 6.131 9.895 6.131"/>
        <path fill="#1B2441" d="M119.198 52.485c-.09.644-1.098 1.426-1.098 1.426l-.095-.77.23-.542.517-.287s.537-.472.446.173"/>
        <path fill="#F0AB85" d="M122.03 67.424c.146-.643.487-1.238 1.008-1.644.456-.355 1.078-.609 1.832-.358 1.122.372 1.437 1.659 1.522 2.47.041.39-.007.785-.136 1.158 0 0-1.578 14.413-4.095 15.502-2.517 1.089-11.762-7.797-11.762-7.797l-1.723-1.09c-.606-.378-1.397-.896-1.522-1.599-.123-.696.424-1.33.603-1.897.19-.6.261-.742.855-.542.548.183 1 .579 1.281 1.083l1.654 2.956 9.074 4.873 1.409-13.115"/>
        <path fill="#65B7F6" d="M115.38 119.187s.907.712.74 1.62c-.166.908-.401 3.035-.401 3.035h-.934l.03-1.984c-.003-.13-2.003 1.984-2.341 1.984h-4.938s-.329-1.338 2.572-1.768c2.9-.43 5.271-2.887 5.271-2.887"/>
        <path fill="#F0AB85" d="M117.257 94.302h-3.46s1.379 2.575 1.434 6.135c.011.685-.1 1.798-.206 2.475-.838 5.324.357 16.502.357 16.502s-3.141 3.997-5.518 2.927c2.64-1.202 3.322-2.844 3.552-3.628.075-.258.049-.522.017-.789-.21-1.748-2.21-9.336-5.263-25.798-.288-1.552-.517-3.039.369-4.182 1.342-1.734 7.01 1.199 9.939 2.532 2.174.99-1.22 3.826-1.22 3.826"/>
        <path fill="#146EB4" d="M129.855 87.423s1.217 1.938.586 3.944c-.225.715-.722 1.35-1.268 1.87-1.038.99-2.436 1.17-3.87 1.17h-7.999s-.462-3.785-2.656-4.817c-1.113-.523-3.429-.927-4.34-1.141-1.002-.236-2.537-.229-3.172-1.039l22.719.013"/>
        <path fill="#67B9F7" d="M57.771 60.283l1.015 1.055-1.083 6.214-1.03.592 1.098-7.86"/>
        <path fill="#EC967C" d="M13.198 68.388s4.757 9.44 7.66 9.978c2.903.54 16.111-4.231 16.111-4.231v-1.882l-13.208.316-3.135-6.473-7.428 2.292"/>
        <path fill="#FFC53A" d="M18.203 56.796c-15.647.79-13.872 27.353-13.872 27.353h16.775s2.925-9.707-2.903-27.353"/>
        <path fill="#0E4E80" d="M18.896 119.503s.009 2.105 4.242 3.368c.869.259.586.515.75.88h-4.873l-1.907-2.141-.594.509-1.375-1.35s.642-1.952 1.69-1.97l2.067.704"/>
        <path fill="#F0AB85" d="M19.878 116.862l-1.12 2.577a1.911 1.911 0 0 1-1.98-.6l-.086-.104.64-1.873h2.546"/>
        <path fill="#EC967C" d="M15.282 52.533l-.531 4.919s.7 1.312 2.204 1.474c1.505.162 1.622-.92 1.622-.92l.346-3.205-2.164-.82-1.477-1.448"/>
        <path fill="#F0AB85" d="M19.262 55.927c.465.036.902.006 1.148-.17 1.566-1.981.663-7.874.663-7.874l-4.942.345-.569 3.823a3.24 3.24 0 0 0 .925 2.779c.803.62 1.763 1.019 2.775 1.097"/>
        <path fill="#1B2441" d="M18.304 48.702s1.577.474 3.302.356c1.726-.118.844-2.097.844-2.097s-1.315.436-3.506-.132c-1.479-.384-1.851-.718-2.87-.31-1.384.556-1.323 2.953-1.323 2.953l.182 5.075.276.353s.382-3.289.492-4.3c.332-.43.64-.397.863-.257.242.153.358.446.327.73l-.56 5.19s3.156 1.78 4.026 1.613c.87-.168.723-4.073.723-4.073s-.926-.526-1.77.235c-.835.753-1.646-.211-1.646-.211l.64-5.125"/>
        <path fill="#F0AB85" d="M16.174 50.208c.376.01.695.403.713.88.018.477-.272.855-.647.846-.375-.009-.694-.403-.712-.88-.018-.476.271-.855.646-.846"/>
        <path fill="#0E4E80" d="M21.34 84.31s7.8 4.37 11.717 9.654a3.879 3.879 0 0 1 .08 4.527c-5.653 8.134-13.126 18.9-13.126 18.9H17.08s3.871-14.024 8.554-22.294c.45-3.056-4.295-10.787-4.295-10.787"/>
        <path fill="#EC967C" d="M37.049 72.297l2.362.377 2.217 2.398s-1.08.522-2.701-1.152c-3.2-.226-2.331-.8-2.331-.8l.453-.823"/>
        <path fill="#F0AB85" d="M10.48 71.102s4.758 9.438 7.66 9.977c2.903.54 15.594-5.653 15.594-5.653l.518-2.032-13.209 1.887-3.134-6.472-7.428 2.293"/>
        <path fill="#0E4E80" d="M39.3 120.737s1.358 1.258 4.455 2.045c.682.173 1.416-.058 1.416 1.065h-3.757l-3.125-.54v.54H36.6s-.47-2.756.516-3.11H39.3"/>
        <path fill="#F0AB85" d="M39.218 118.8l.333 1.98a1.913 1.913 0 0 1-2.068.068l-.116-.069-.49-1.98h2.341M39.501 74.486a.495.495 0 0 0-.315-.5l-1.978-.77a2.136 2.136 0 0 0-1.523-.008l-1.954.383-.21.35-.138 1.8c.38-.157.602-.253.602-.253l1.255-.16s2.697 1.82 3.569-.261c.363 2.014.932 1.767.932 1.767l-.24-2.348"/>
        <path fill="#146EB4" d="M4.347 84.31s-2.44 10.252 20.07 13.777a3.943 3.943 0 0 1 3.205 2.941c1.932 7.613 9.038 18.52 9.038 18.52h2.91l-4.72-20.8a7.533 7.533 0 0 0-2.247-3.878l-11.48-10.56H4.347"/>
        <path fill="#146EB4" d="M18.452 124.635l-3.786-27.537-.692.095 3.773 27.442h.705"/>
        <path fill="#69BBF9" d="M19.7 96.965H3.104V93.71C8.926 91.038 19.7 95.338 19.7 95.338v1.627"/>
        <path fill="#146EB4" d="M3.027 96.668v-.697c-.093-.002-2.328-.074-2.328-3.72 0-3.951 2.474-9.938 2.499-9.999l-.645-.267C2.449 82.235 0 88.162 0 92.252c0 4.366 2.997 4.416 3.027 4.416"/>
        <path fill="#69BBF9" d="M6.911 83.1c-4.074-.953-4.582-.416-4.582-.416s1.253-4.812.057-7.685c4.998-2.88 5.922.546 5.922.546s.864 2.91-1.397 7.554"/>
        <path fill="#146EB4" d="M1.48 124.635l3.774-27.442-.692-.095-3.786 27.537h.705"/>
        <path fill="#0E4E80" d="M108.17 78.645H32.219c0-.724.587-1.31 1.312-1.31h73.326c.725 0 1.313.586 1.313 1.31"/>
        <path fill="#146EB4" d="M33.023 124.325l-.804-.14 3.691-45.688.805.14-3.692 45.688M107.334 124.325l.805-.14-3.692-45.688-.804.14 3.691 45.688"/>
        <path fill="#67B9F7" d="M36.877 77.185h7.544v-.626h-7.544zM52.32 77.205h-5.35v-.81h5.35a2.917 2.917 0 0 0 2.88-2.506l3.66-22.519.8.13-3.658 22.508c-.25 1.819-1.835 3.197-3.682 3.197"/>
        <path fill="#146EB4" d="M59.11 51.37l-.545.422-3.444 20.611.483.54L59.11 51.37"/>
        <path fill="#67B9F7" d="M82.531 60.283l-1.014 1.055 1.083 6.214 1.03.592-1.099-7.86M95.88 77.185h7.544v-.626h-7.545z"/>
        <path fill="#67B9F7" d="M88.08 77.205h5.351v-.81h-5.35a2.917 2.917 0 0 1-2.88-2.506L81.54 51.37l-.8.13 3.66 22.508c.25 1.819 1.833 3.197 3.68 3.197"/>
        <path fill="#146EB4" d="M81.517 51.37l.545.422 3.445 20.611-.484.54-3.506-21.573M117.617 124.635l3.787-27.537.691.095-3.773 27.442h-.705"/>
        <path fill="#63B6F5" d="M116.452 96.965h16.595V93.71c-5.821-2.673-16.595 1.627-16.595 1.627v1.627"/>
        <path fill="#146EB4" d="M133.315 96.668v-.697c.093-.002 2.328-.074 2.328-3.72 0-3.951-2.474-9.938-2.499-9.999l.645-.267c.104.25 2.552 6.177 2.552 10.267 0 4.366-2.996 4.416-3.026 4.416"/>
        <path fill="#63B6F5" d="M129.269 83.1c4.074-.953 4.582-.416 4.582-.416s-1.253-4.812-.057-7.685c-4.998-2.88-5.923.546-5.923.546s-.863 2.91 1.398 7.554"/>
        <path fill="#146EB4" d="M134.976 124.635l-3.773-27.442.691-.095 3.787 27.537h-.705"/>
        <path fill="#F5F4F3" d="M81.182 73.606c-.89-.33-16.384 0-16.384 0-.795 0-1.526.888-1.526 1.682 0 .795.73 1.682 1.526 1.682 0 0 15.15.636 16.392.018-.212-1.35-.182-2.571-.008-3.382"/>
        <path fill="#146EB4" d="M64.049 73.926h17.48v-.08h-17.48zM81.403 74.234H63.66v.08h17.723a1.03 1.03 0 0 1 .019-.08M63.272 75.089h17.926v-.08H63.272zM62.884 75.476H80.81v-.08H62.884zM81.078 76.172H63.272v.08H81.09a.959.959 0 0 1-.012-.08M81.085 76.56H63.661c.018.025.034.051.05.078H81.1a.95.95 0 0 1-.016-.079"/>
        <path fill="#0E4E80" d="M64.808 77.154c-.796 0-1.526-.888-1.526-1.682 0-.794.73-1.683 1.526-1.683 0 0 15.433-.328 16.378-.002.04-.207.071-.328.071-.328H64.9a2.02 2.02 0 0 0-2.016 2.013 2.02 2.02 0 0 0 2.016 2.012s15.562.358 16.357 0c0-.03-.026-.142-.06-.311-1.256.616-16.389-.02-16.389-.02M79.055 73.39H65.134a1.087 1.087 0 0 1-1.085-1.083v-2.415c0-.596.488-1.083 1.085-1.083h13.921c.597 0 1.085.487 1.085 1.083v2.415c0 .596-.488 1.083-1.085 1.083"/>
        <path fill="#6EBBF5" d="M66.358 68.809c-.882 2.29.097 4.581.097 4.581h2.02s-.739-2.618.12-4.581h-2.237M75.674 68.809c-.882 2.29.098 4.581.098 4.581h2.019s-.739-2.618.12-4.581h-2.237"/>
        <path fill="#FFFFFE" d="M79.582 68.645s-.673-.903-.673-1.88c0-.976.636-1.761.636-1.761v-.07h-8.876c-1.079 0-1.962.786-1.962 1.747v.309c0 .96.883 1.747 1.962 1.747h8.876l.037-.023v-.069"/>
        <g transform="translate(68.319 64.546)">
            <mask id="i" fill="#fff">
                <use xlink:href="#h"/>
            </mask>
            <path fill="#146EB4" d="M2.583.662h8.428v-.08H2.583zM20.036 1.085H2.294v.08h17.723c.005-.028.012-.054.019-.08M2.07 1.879h8.941v-.08h-8.94zM2.07 2.236h8.941v-.08h-8.94zM2.681 2.593h8.33v-.08h-8.33zM20.134 3.016H2.392v.08h17.723a.908.908 0 0 1 .019-.08M2.169 3.587h8.842v-.08H2.169z" mask="url(#i)"/>
        </g>
        <path fill="#F58A07" d="M75.823 64.848h3.825v-.302h-6.671v.302h1.095c-.114.927-.382 1.914-.679 2.783-.014.101-.032.203-.042.304-.007.062-.01.123-.014.184.152.117.285.248.398.389h-.758v.302h6.671v-.302h-3.934a1.385 1.385 0 0 1-1.248-.774 2.626 2.626 0 0 1-.267-1.227c.01-.242.058-.467.139-.672.238-.606.839-.987 1.485-.987"/>
        <path fill="#FFC53A" d="M73.855 66.851v-.346c0-1.078.883-1.959 1.962-1.959h-9.418c-1.08 0-1.962.881-1.962 1.96v.345c0 1.077.883 1.959 1.962 1.959h9.418a1.966 1.966 0 0 1-1.962-1.959"/>
        <path fill="#FFFFFE" d="M66.766 68.81h.42v-4.264h-.42zM67.542 68.81h.21v-4.264h-.21z"/>
        <path fill="#146EB4" d="M60.349 109.06s15.305-5.035 19.152-12.25c1.853-3.477-.777-7.538-4.721-7.461-11.532.225-15.777 18.51-15.777 18.51l1.346 1.2"/>
        <path fill="#FFF" d="M59.41 110.328l-.407-.24c.422-.714 10.295-17.49 19.965-18.803l.337.407c-9.443 1.282-19.794 18.463-19.895 18.636"/>
        <path fill="#F58A07" d="M48.867 97.295c-1.834-2.448-2.9-4.624-3.468-6.512-1.541-5.122 1.895-10.447 7.177-11.343 2.963-.504 6.619-.017 10.057 3.463 7.557 7.65-2.624 28.53-2.624 28.53h-3.673s-.14-4.356-7.469-14.138"/>
        <path fill="#69BBF9" d="M51.966 111.669s-10.712-2.331-12.655-10.514c-.604-2.545 1.477-4.96 4.094-4.827 13.266.675 12.655 15.34 12.655 15.34h-4.094"/>
        <path fill="#FFFFFE" d="M57.993 111.684l-.46-.107c.049-.21 4.656-21.25-7.07-31.33l.509-.2c11.943 10.266 7.07 31.424 7.02 31.637"/>
        <path fill="#FFF" d="M54.283 111.576c-.074-.125-7.513-12.515-14.69-13.251l.267-.452c7.415.761 14.526 12.946 14.83 13.465l-.407.238"/>
        <path fill="#146EB4" d="M49.686 124.399h13.67v-12.962h-13.67z"/>
        <path fill="#0E4E80" d="M64.314 113.323H48.69a.947.947 0 0 1-.944-.943c0-.519.425-.943.944-.943h15.624c.52 0 .945.424.945.943a.947.947 0 0 1-.945.943"/>
        <path fill="#FFC53A" d="M20.533 38.735l-5.41-.03s.412-1.642.257-2.904a1.608 1.608 0 0 0-.756-1.153c-5.303-3.31-4.003-7.09-4.003-7.09s.578-4.8 7.394-5.229c7.266-.457 6.797 5.987 6.797 5.987s.312 3.589-3.47 6.004a2.174 2.174 0 0 0-.967 1.564c-.204 1.598.158 2.851.158 2.851"/>
        <path fill="#63B6F5" d="M15.15 38.582l-.011 1.935c-.004.725.467 1.32 1.047 1.324l3.295.018c.58.003 1.057-.588 1.06-1.313l.011-1.935-5.403-.029"/>
        <path fill="#146EB4" d="M16.692 42.07l.368.886 2.048.01.453-.88-2.87-.016"/>
        <path fill="#FFF" d="M15.795 28.882c.615-.306 1.11-.014 1.387.262.155.155.24.365.238.585l-.006 1.178c-.69.055-1.354-.122-1.77-.742-.283-.422-.236-1.044.15-1.283zm3.2 1.13c-.004-.185.272-1.66 1.183-.837.095.086.15.216.133.343-.072.518-.81.866-1.333 1.037a4.592 4.592 0 0 1 .017-.543zm-1.803 1.137c.069 0 .146-.005.22-.007l-.042 7.664.37.002.042-7.694c.263-.028.54-.075.816-.142.003.145.007.286.005.419l-.035 2.535-.069 4.886.37.002.11-7.949c.469-.15.903-.357 1.199-.636 1.261-1.192-.889-2.5-1.462-.826-.129.377-.136.83-.126 1.269-.242.07-.562.143-.85.191 0 0 .01-.707.004-1.161a1.068 1.068 0 0 0-.252-.705c-.951-1.052-2.979-.305-2.164 1.229.35.66 1.16.917 1.864.923z"/>
        <path fill="#FAD473" d="M24.926 21.242a.286.286 0 0 1 .002-.404l2.747-2.712a.286.286 0 0 1 .402.406l-2.746 2.713a.287.287 0 0 1-.405-.003M12.909 20.886a.285.285 0 0 0 .002-.403l-2.717-2.742a.286.286 0 0 0-.407.401l2.717 2.742a.286.286 0 0 0 .405.002M18.14 20.147a.286.286 0 0 1-.284-.288l.021-3.857a.286.286 0 0 1 .572.004l-.02 3.857a.286.286 0 0 1-.288.284"/>
    </g>
</svg>
