<svg xmlns="http://www.w3.org/2000/svg" xmlns:xlink="http://www.w3.org/1999/xlink" width="340" height="280" viewBox="0 0 340 280">
    <defs>
        <path id="a" d="M51.055 4.238C34.421 17.184 2.162 13.76 2.162 13.76l-1.49 8.466s40.928 12.107 46.034 2.42c5.105-9.686 20.982-33.355 4.35-20.408"/>
        <linearGradient id="b" x1="4.538%" x2="95.487%" y1="24.616%" y2="57.802%">
            <stop offset="0%" stop-color="#72C3FF"/>
            <stop offset="100%" stop-color="#55A9EB"/>
        </linearGradient>
        <path id="d" d="M18.504.758c-.303 0-.6.005-.894.016C7.876 1.131.274 14.578.274 24.33v35.267h37.57v-40.36c0-8.97-6.417-16.812-15.273-18.176a26.703 26.703 0 0 0-4.067-.302"/>
        <path id="f" d="M32.138.802s18.95 25.336 7.046 37.625C27.28 50.716.497 45.503.497 45.503v-7.821s25.295.062 26.783-8.534c1.488-8.596-6.015-17.906-6.015-17.906"/>
        <path id="h" d="M24.793 8.78s-1.515-2.037-1.515-4.242S24.71.559 24.71.559V.401H4.723C2.294.4.306 2.176.306 4.346v.697c0 2.17 1.988 3.945 4.417 3.945H24.71l.084-.053v-.154z"/>
    </defs>
    <g fill="none" fill-rule="evenodd">
        <path fill="#FFF" stroke="#F58A07" stroke-width=".921" d="M248.765 121.914s-116.298 18.396-174.297 2.518c-10.227-39.52 0-119.182 0-119.182h174.297v116.664"/>
        <path fill="#F58A07" d="M250.132 6.219H73.028a3.116 3.116 0 0 1-3.105-3.11C69.923 1.4 71.32 0 73.028 0h177.104c1.707 0 3.105 1.4 3.105 3.11a3.116 3.116 0 0 1-3.105 3.109M111.595 94.36a4.232 4.232 0 0 1-4.23 4.234 4.233 4.233 0 0 1-4.229-4.235 4.232 4.232 0 0 1 4.23-4.234 4.232 4.232 0 0 1 4.23 4.234M219.977 19.11a4.232 4.232 0 0 1-4.23 4.233 4.232 4.232 0 0 1-4.23-4.234 4.233 4.233 0 0 1 4.23-4.234 4.232 4.232 0 0 1 4.23 4.234"/>
        <path fill="#F58A07" d="M125.483 96.31h-16.229v-1.993h15.117l7.72-12.557h22.305l7.916-17.581h31.894l21.934-45.804 1.796.86-22.478 46.937h-31.86l-7.916 17.58h-22.48l-7.72 12.558"/>
        <path fill="#FFC53A" d="M220.82 106.973H96.145V21h1.99v83.98h122.687v1.993"/>
        <path fill="#F58A07" d="M162.57 59.447h4.318v-4.322h-4.317zM162.57 53.322h4.318V49h-4.317zM162.57 47.198h4.318v-4.323h-4.317zM159.075 40.89h9.873l-4.877-7.64-4.996 7.64M191.414 40.198h4.318v-4.323h-4.318zM191.414 34.072h4.318V29.75h-4.318zM191.414 27.948h4.318v-4.323h-4.318zM188.792 21.64h9.873L193.789 14l-4.997 7.64"/>
        <path fill="#0E4E80" d="M290.404 251.125s-2.882 2.677-9.455 4.352c-1.446.37-3.006-.124-3.006 2.266h7.975l6.632-1.148v1.148h3.583s.998-5.865-1.094-6.618h-4.635"/>
        <path fill="#F0AB85" d="M291.457 246.75l-.403 4.212a4.048 4.048 0 0 0 4.39.147l.245-.147.745-4.212h-4.977"/>
        <path fill="#0E4E80" d="M319.248 251.125s-2.883 2.677-9.455 4.352c-1.446.37-3.006-.124-3.006 2.266h7.974l6.633-1.148v1.148h3.583s.998-5.865-1.094-6.618h-4.635"/>
        <path fill="#F0AB85" d="M320.3 246.75l-.403 4.212a4.046 4.046 0 0 0 4.389.147l.246-.147.744-4.212H320.3M247.896 90.584c-.444.126-.254-.463-3.234-1.515-2.676-.945-7.604-6.396-7.798-3.2 1.813 2.547 3.638 5.78 3.638 5.78 1.248 1.421 2.612 4.585 4.631 4.533l6.224-.944s1.726-2.697 1.83-2.811l-.88-.98a13.718 13.718 0 0 1-4.411-.863"/>
        <path fill="#EC967C" d="M307.624 68.063l-.837 8.246 8.826.35-1.769-12.784-6.22 4.188"/>
        <path fill="#F0AB85" d="M305.232 69.244c-1.026-.028-1.977-.182-2.474-.587-2.958-4.307.412-15.915.412-15.915l4.727-1.992 6.006 3.75.343 7.779c.09 2.077-.905 4.069-2.683 5.365-1.902 1.07-4.1 1.662-6.331 1.6"/>
        <path fill="#1B2441" d="M313.23 59.089c-.33-1.306-.157-4.322-1.486-4.104-.97.16-4.291.296-5.41.296-2.664 0-7.414-1.044-7.414-5.102 0-2.03 1.967-3.78 3.212-4.3 1.221-.51 2.602-.485 3.852-.048 2.935 1.026 6.826 3.292 8.377 2.98 2.61-.526 5.215 1.007 5.178 3.227-.04 2.372-1.275 5.94-2.44 8.207a12.472 12.472 0 0 1-2.661 3.485l-1.207-4.641"/>
        <path fill="#F0AB85" d="M316.083 58.962c-.594-.525-1.705-.425-2.483.222-.777.648-.924 1.598-.332 2.123.594.525 1.705.425 2.482-.222.778-.648.927-1.598.333-2.123"/>
        <g transform="translate(248.226 75.25)">
            <mask id="c" fill="#fff">
                <use xlink:href="#a"/>
            </mask>
            <path fill="url(#b)" d="M51.055 4.238C34.421 17.184 2.162 13.76 2.162 13.76l-1.49 8.466s40.928 12.107 46.034 2.42c5.105-9.686 20.982-33.355 4.35-20.408" mask="url(#c)"/>
        </g>
        <g transform="translate(292.802 72.625)">
            <mask id="e" fill="#fff">
                <use xlink:href="#d"/>
            </mask>
            <path fill="url(#b)" d="M18.504.758c-.303 0-.6.005-.894.016C7.876 1.131.274 14.578.274 24.33v35.267h37.57v-40.36c0-8.97-6.417-16.812-15.273-18.176a26.703 26.703 0 0 0-4.067-.302" mask="url(#e)"/>
        </g>
        <path fill="#F0AB85" d="M299.438 125.658l-8.314.956c-3.401.13-6.126-4.715-7.04-8.422-.137-.556.375-1.056.932-.92 2.92.717 10.432 2.612 12.423 3.605l2 4.78"/>
        <g transform="translate(296.298 82.25)">
            <mask id="g" fill="#fff">
                <use xlink:href="#f"/>
            </mask>
            <path fill="url(#b)" d="M32.138.802s18.95 25.336 7.046 37.625C27.28 50.716.497 45.503.497 45.503v-7.821s25.295.062 26.783-8.534c1.488-8.596-6.015-17.906-6.015-17.906" mask="url(#g)"/>
        </g>
        <path fill="#146EB4" d="M330.521 124.299c-11.99 6.914-30.87 3.962-33.478 3.509v-7.139c3.283-.026 25.336-.517 26.777-8.84 1.499-8.663-5.782-17.819-6.092-18.204l-.579.467c.074.092 7.38 9.275 5.938 17.609-1.411 8.148-25.912 8.226-26.41 8.226h-.006l-.373-.001v8.5l.302.058c.122.025 5.698 1.076 12.868 1.076 6.676 0 14.727-.924 21.053-4.423v-.838"/>
        <path fill="#0E4E80" d="M293.491 132.125c-4.295 20.86-4.955 43.312-5.052 62.156-.157 30.355 2.331 52.537 2.331 52.537h6.2l12.945-86.77s1.412 12.905 3.322 34.786c1.5 17.17 2.207 31.685 6.235 51.984h6.22s5.37-62.652 5.37-114.693H293.49"/>
        <path fill="#146EB4" d="M307.797 71.75h7.848l1.25 2.893h-10.108l1.01-2.893M215.93 47.11l34.273 56.121c.294.484.93.633 1.41.332a1.01 1.01 0 0 0 .32-1.396l-35.048-55.534c-.345-.555-1.197-.129-.956.476"/>
        <path fill="#F0AB85" d="M248.742 91.543l-6.107-4.918s-1.157.662-.042 2.454c1.115 1.792 2.816 3.597 3.058 3.919 1.038.51 2.062 1.046 3.09 1.575v-3.03"/>
        <path fill="#EC967C" d="M270.951 134.117l2.255 8.555 6.66-4.278-2.312-11.519-6.603 7.242"/>
        <path fill="#FFC53A" d="M272.52 139.752s-3.83 7.629-6.918 14.537c-2.17 4.853-2.17 9-.118 13.792 4.678 10.913 5.544 26.395 5.544 26.395h21.755s-8.767-21.471-6.351-33.123c2.34-11.28-5.002-26.603-5.002-26.603l-8.91 5.002"/>
        <path fill="#1B2441" d="M269.258 116.55c5.14.7 7.697 7.296 7.697 7.296l-.059 19.521 8.913-7.714s.647-8.809-1.552-18.403c-1.907-6.043-9.598-7.634-14.999-4.686-2.626 1.434-4.187 4.247-5.115 7.041-1.243 3.752-1.353 7.788-.529 11.655l3.058 14.323 5.313-5.29s-.532-2.141-1.491-5.66c-1.958-7.19-4.687-18.552-1.236-18.082"/>
        <path fill="#F0AB85" d="M278.405 123.733c-.576-.558-1.654-.452-2.41.236-.752.69-.897 1.7-.32 2.258.575.558 1.654.452 2.408-.236s.898-1.7.322-2.258"/>
        <path fill="#F0AB85" d="M268.413 134.292c-.996-.03-1.918-.193-2.4-.624-2.87-4.58.4-16.924.4-16.924l4.586-2.119 5.829 3.99.332 8.27a6.95 6.95 0 0 1-2.603 5.707c-1.847 1.137-3.978 1.766-6.144 1.7"/>
        <path fill="#EC967C" d="M263.517 183.75l-3.525 7.775h-3.533a7.808 7.808 0 0 0-3.798.986l-4.435 2.897 13.447-.263 8.664-9.834-6.82-1.561"/>
        <path fill="#1B2441" d="M268.415 115.886c-1.1 3.69 8.666 7.97 8.666 7.97l2.454-4.605-4.484-5.501-5.666.906s-.783.615-.97 1.23"/>
        <path fill="#65B7F6" d="M254.98 276.086a9.47 9.47 0 0 1 1.765-1.74c.524-1.365 1.052-2.875 1.224-3.813.373-2.05-1.67-3.658-1.67-3.658s-5.34 5.548-11.87 6.518c-6.53.971-5.792 3.992-5.792 3.992h11.12c.762 0 5.264-4.77 5.269-4.48l-.045 3.181"/>
        <path fill="#EC967C" d="M263.178 210.407h-10.311s2.973 6.326 3.099 14.364c.024 1.548-.226 4.06-.466 5.59-1.888 12.02.804 37.26.804 37.26s-7.073 9.024-12.424 6.61c5.942-2.716 7.48-6.422 7.997-8.193.17-.584.111-1.178.039-1.782-.472-3.948-4.976-21.08-11.851-58.25-.648-3.505-1.164-6.861.832-9.443 5.406-7.002 22.281 13.844 22.281 13.844"/>
        <path fill="#1B2441" d="M268.392 116.266c-.204 1.455-2.472 3.22-2.472 3.22l-.213-1.739.517-1.223 1.165-.647s1.208-1.067 1.003.389"/>
        <path fill="#F0AB85" d="M274.77 150c.33-1.454 1.096-2.797 2.27-3.714 1.026-.801 2.426-1.374 4.124-.809 2.527.84 3.235 3.746 3.428 5.576a6.075 6.075 0 0 1-.307 2.616s-3.553 32.543-9.22 35.002c-5.667 2.46-26.485-17.605-26.485-17.605l-3.88-2.46c-1.362-.855-3.145-2.023-3.426-3.61-.276-1.573.954-3.004 1.357-4.285.427-1.353.589-1.674 1.927-1.223 1.233.414 2.25 1.307 2.884 2.444l3.724 6.675 20.43 11.003L274.77 150"/>
        <path fill="#65B7F6" d="M259.795 266.875s2.043 1.608 1.67 3.658c-.376 2.05-.906 6.852-.906 6.852h-2.102l.065-4.48c-.006-.29-4.507 4.48-5.27 4.48h-11.119s-.74-3.02 5.792-3.992c6.529-.97 11.87-6.518 11.87-6.518"/>
        <path fill="#F0AB85" d="M264.023 210.687h-7.79s3.103 5.813 3.229 13.85c.023 1.549-.227 4.06-.466 5.59-1.887 12.021.805 37.261.805 37.261s-7.074 9.023-12.426 6.61c5.944-2.716 7.48-6.423 7.998-8.194.17-.583.11-1.177.038-1.781-.472-3.948-4.976-21.08-11.85-58.25-.648-3.505-1.163-6.861.831-9.444 3.023-3.914 15.785 2.709 22.38 5.718 4.896 2.234-2.749 8.64-2.749 8.64"/>
        <path fill="#146EB4" d="M292.389 195.154s2.74 4.377 1.319 8.906c-.507 1.614-1.625 3.047-2.856 4.223-2.336 2.234-5.484 2.638-8.713 2.638h-18.01s-1.042-8.543-5.98-10.873c-2.507-1.182-7.721-2.094-9.772-2.578-2.258-.533-5.713-.516-7.143-2.345l51.155.029"/>
        <path fill="#67B9F7" d="M130.081 133.875l2.286 2.38-2.44 14.032-2.318 1.336 2.472-17.748"/>
        <path fill="#EC967C" d="M29.717 152.176s10.712 21.312 17.248 22.53c6.536 1.218 36.277-9.555 36.277-9.555v-4.25l-29.741.714L46.444 147l-16.727 5.176"/>
        <path fill="#FFC53A" d="M40.987 126c-35.232 1.786-31.236 61.763-31.236 61.763h37.772s6.587-21.92-6.536-61.763"/>
        <path fill="#0E4E80" d="M42.546 267.589s.02 4.751 9.554 7.603c1.955.585 1.32 1.164 1.686 1.988h-10.97l-4.295-4.835-1.337 1.15-3.097-3.047s1.447-4.41 3.805-4.448l4.654 1.589"/>
        <path fill="#F0AB85" d="M44.759 261.625l-2.521 5.819a4.296 4.296 0 0 1-4.458-1.357l-.196-.232 1.44-4.23h5.735"/>
        <path fill="#EC967C" d="M34.41 116.375l-1.197 11.106s1.577 2.963 4.965 3.329c3.388.366 3.65-2.08 3.65-2.08l.78-7.234-4.872-1.85-3.325-3.271"/>
        <path fill="#F0AB85" d="M43.371 124.038c1.047.082 2.032.015 2.586-.383 3.525-4.474 1.493-17.78 1.493-17.78l-11.128.78-1.281 8.632a7.327 7.327 0 0 0 2.083 6.274c1.806 1.4 3.969 2.301 6.247 2.477"/>
        <path fill="#1B2441" d="M41.215 107.726s3.55 1.07 7.435.803 1.899-4.735 1.899-4.735-2.96.984-7.893-.299c-3.33-.866-4.17-1.621-6.463-.698-3.116 1.255-2.979 6.667-2.979 6.667l.41 11.46.623.796s.859-7.425 1.105-9.71c.75-.97 1.44-.896 1.944-.578.546.343.807 1.005.738 1.648l-1.262 11.715s7.106 4.022 9.065 3.644c1.96-.378 1.628-9.197 1.628-9.197s-2.086-1.186-3.984.53c-1.881 1.701-3.708-.476-3.708-.476l1.442-11.57"/>
        <path fill="#F0AB85" d="M36.42 111.125c.845.021 1.562.91 1.603 1.988.04 1.076-.612 1.93-1.456 1.91-.845-.02-1.563-.91-1.604-1.987-.04-1.076.612-1.932 1.456-1.91"/>
        <path fill="#0E4E80" d="M48.048 188.125s17.567 9.87 26.385 21.799c2.236 3.025 2.32 7.13.178 10.22-12.728 18.366-29.554 42.674-29.554 42.674h-6.6s8.718-31.663 19.26-50.336c1.015-6.902-9.669-24.357-9.669-24.357"/>
        <path fill="#EC967C" d="M83.422 161l5.319.853 4.992 5.413s-2.434 1.18-6.083-2.6c-7.204-.51-5.248-1.808-5.248-1.808l1.02-1.858"/>
        <path fill="#F0AB85" d="M23.599 158.302s10.712 21.311 17.247 22.529c6.536 1.218 35.11-12.766 35.11-12.766l1.168-4.588-29.742 4.262-7.057-14.614-16.726 5.177"/>
        <path fill="#0E4E80" d="M88.49 270.375s3.058 2.84 10.03 4.617c1.536.392 3.19-.132 3.19 2.404h-8.46l-7.037-1.219v1.219h-3.801s-1.059-6.222 1.161-7.021h4.917"/>
        <path fill="#F0AB85" d="M88.306 266l.749 4.47a4.297 4.297 0 0 1-4.656.156l-.262-.156-1.104-4.47h5.273M88.943 165.943c.037-.492-.25-.95-.71-1.129l-4.452-1.737a4.797 4.797 0 0 0-3.43-.02l-4.4.865-.473.79-.31 4.063c.855-.352 1.355-.569 1.355-.569l2.825-.361s6.072 4.11 8.036-.59c.818 4.548 2.1 3.99 2.1 3.99l-.541-5.302"/>
        <path fill="#146EB4" d="M9.789 188.125s-5.496 23.148 45.19 31.107c3.524.553 6.341 3.179 7.217 6.642 4.348 17.19 20.35 41.816 20.35 41.816h6.55l-10.624-46.967a17.02 17.02 0 0 0-5.06-8.754l-25.85-23.844H9.788"/>
        <path fill="#146EB4" d="M41.548 279.177L33.023 217l-1.558.214 8.496 61.963h1.587"/>
        <path fill="#69BBF9" d="M44.356 216.699H6.992v-7.347c13.106-6.035 37.364 3.674 37.364 3.674v3.673"/>
        <path fill="#146EB4" d="M6.816 216.028v-1.574c-.21-.003-5.243-.166-5.243-8.397 0-8.923 5.57-22.442 5.627-22.578l-1.452-.604C5.513 183.439 0 196.822 0 206.057c0 9.858 6.748 9.97 6.816 9.97"/>
        <path fill="#69BBF9" d="M15.562 185.392c-9.174-2.15-10.318-.939-10.318-.939s2.822-10.865.13-17.352c11.252-6.501 13.334 1.234 13.334 1.234s1.945 6.57-3.146 17.057"/>
        <path fill="#146EB4" d="M3.334 279.177l8.497-61.964-1.558-.213-8.525 62.177h1.586"/>
        <path fill="#0E4E80" d="M243.56 175.334H72.546a2.957 2.957 0 0 1 2.956-2.959h165.104a2.957 2.957 0 0 1 2.956 2.96"/>
        <path fill="#146EB4" d="M74.357 278.475l-1.812-.317L80.858 175l1.812.317-8.313 103.158M241.68 278.475l1.812-.317L235.18 175l-1.811.317 8.312 103.158"/>
        <path fill="#67B9F7" d="M83.033 172.037h16.987v-1.412H83.033zM117.806 172.083h-12.048v-1.827h12.048c3.254 0 6.042-2.435 6.485-5.661l8.242-50.845 1.801.293-8.238 50.822c-.563 4.105-4.13 7.218-8.29 7.218"/>
        <path fill="#146EB4" d="M133.096 113.75l-1.228.952-7.755 46.539 1.09 1.217 7.893-48.708"/>
        <path fill="#67B9F7" d="M185.832 133.875l-2.284 2.38 2.439 14.032 2.317 1.336-2.472-17.748M215.887 172.037h16.988v-1.412h-16.988z"/>
        <path fill="#67B9F7" d="M198.328 172.083h12.047v-1.827h-12.047c-3.255 0-6.043-2.435-6.486-5.661L183.6 113.75l-1.8.293 8.238 50.822c.563 4.105 4.13 7.218 8.29 7.218"/>
        <path fill="#146EB4" d="M183.548 113.75l1.228.952 7.756 46.539-1.09 1.217-7.894-48.708M264.833 279.177L273.359 217l1.557.214-8.496 61.963h-1.587"/>
        <path fill="#63B6F5" d="M262.21 216.699h37.365v-7.347c-13.106-6.035-37.364 3.674-37.364 3.674v3.673"/>
        <path fill="#146EB4" d="M300.179 216.028v-1.574c.209-.003 5.243-.166 5.243-8.397 0-8.923-5.57-22.442-5.628-22.578l1.453-.604c.234.564 5.747 13.947 5.747 23.182 0 9.858-6.746 9.97-6.815 9.97"/>
        <path fill="#63B6F5" d="M291.069 185.392c9.174-2.15 10.318-.939 10.318-.939s-2.822-10.865-.13-17.352c-11.252-6.501-13.335 1.234-13.335 1.234s-1.944 6.57 3.147 17.057"/>
        <path fill="#146EB4" d="M303.919 279.177l-8.495-61.964 1.557-.213 8.525 62.177h-1.587"/>
        <path fill="#F5F4F3" d="M182.794 163.956c-2.002-.745-36.89 0-36.89 0-1.792 0-3.436 2.006-3.436 3.799 0 1.793 1.644 3.798 3.436 3.798 0 0 34.112 1.434 36.908.04-.478-3.046-.41-5.806-.018-7.637"/>
        <path fill="#146EB4" d="M144.216 164.68h39.359v-.18h-39.36zM183.29 165.375h-39.948v.18h39.907c.011-.062.026-.121.042-.18M142.468 167.304h40.363v-.179h-40.363zM141.594 168.179h40.363V168h-40.363zM182.56 169.75h-40.092v.18h40.12a2.171 2.171 0 0 1-.027-.18M182.577 170.625h-39.235c.04.058.078.117.113.179h39.157a2.15 2.15 0 0 1-.035-.179"/>
        <path fill="#0E4E80" d="M145.926 171.967c-1.792 0-3.436-2.004-3.436-3.798 0-1.793 1.644-3.799 3.436-3.799 0 0 34.749-.742 36.877-.004.089-.467.16-.741.16-.741h-36.83c-2.497 0-4.54 2.045-4.54 4.544 0 2.499 2.043 4.544 4.54 4.544 0 0 35.039.808 36.83 0 0-.07-.058-.32-.135-.703-2.829 1.39-36.902-.043-36.902-.043M178.005 163.47H146.66a2.452 2.452 0 0 1-2.443-2.446v-5.453c0-1.345 1.1-2.446 2.443-2.446h31.346c1.343 0 2.442 1.1 2.442 2.446v5.453c0 1.345-1.1 2.445-2.442 2.445"/>
        <path fill="#6EBBF5" d="M149.415 153.125c-1.985 5.172.22 10.344.22 10.344h4.546s-1.663-5.91.27-10.344h-5.036M170.391 153.125c-1.984 5.172.22 10.344.22 10.344h4.547s-1.663-5.91.27-10.344h-5.037"/>
        <path fill="#FFFFFE" d="M179.191 152.755s-1.514-2.038-1.514-4.243c0-2.205 1.43-3.979 1.43-3.979v-.158h-19.985c-2.43 0-4.418 1.775-4.418 3.945v.698c0 2.169 1.989 3.944 4.418 3.944h19.985l.084-.052v-.155"/>
        <g transform="translate(153.83 143.5)">
            <mask id="i" fill="#fff">
                <use xlink:href="#h"/>
            </mask>
            <path fill="#146EB4" d="M5.817 1.494h18.976v-.18H5.817zM45.114 2.45H5.164v.178h39.908c.012-.06.027-.12.042-.179M4.663 4.242h20.13v-.178H4.663zM4.663 5.05h20.13v-.18H4.663zM6.037 5.856h18.756v-.18H6.037zM45.334 6.811H5.384v.18h39.909c.01-.062.025-.12.041-.18M4.883 8.099h19.91v-.18H4.883z" mask="url(#i)"/>
        </g>
        <path fill="#F58A07" d="M170.726 144.182h8.614v-.682h-15.021v.682h2.466c-.258 2.092-.86 4.322-1.53 6.284-.032.228-.07.457-.095.687-.014.139-.022.277-.03.415.342.264.64.559.897.877h-1.708v.682h15.02v-.682h-8.857a3.117 3.117 0 0 1-2.81-1.748c-.42-.87-.637-1.842-.602-2.77.021-.546.13-1.053.313-1.517.537-1.367 1.889-2.228 3.343-2.228"/>
        <path fill="#FFC53A" d="M166.295 148.704v-.78c0-2.434 1.988-4.424 4.418-4.424h-21.206c-2.43 0-4.417 1.99-4.417 4.423v.781c0 2.433 1.988 4.423 4.417 4.423h21.206c-2.43 0-4.418-1.99-4.418-4.423"/>
        <path fill="#FFFFFE" d="M150.334 153.127h.947V143.5h-.947zM152.082 153.127h.473V143.5h-.473z"/>
        <path fill="#146EB4" d="M135.885 244.008s34.463-11.368 43.124-27.66c4.173-7.85-1.75-17.019-10.63-16.846-25.965.508-35.526 41.793-35.526 41.793l3.032 2.713"/>
        <path fill="#FFF" d="M133.77 246.87l-.917-.54c.95-1.613 23.183-39.493 44.956-42.455l.758.919C157.305 207.687 134 246.48 133.77 246.87"/>
        <path fill="#F58A07" d="M110.032 217.445c-4.13-5.527-6.531-10.441-7.81-14.704-3.47-11.566 4.269-23.589 16.161-25.613 6.672-1.136 14.903-.037 22.645 7.821 17.015 17.27-5.908 64.42-5.908 64.42h-8.271s-.313-9.838-16.817-31.924"/>
        <path fill="#69BBF9" d="M117.01 249.899s-24.12-5.263-28.495-23.738c-1.361-5.747 3.326-11.2 9.218-10.9 29.87 1.525 28.494 34.638 28.494 34.638h-9.217"/>
        <path fill="#FFFFFE" d="M130.58 249.934l-1.037-.241c.111-.476 10.485-47.981-15.918-70.74l1.146-.453c26.892 23.18 15.92 70.952 15.808 71.434"/>
        <path fill="#FFF" d="M122.227 249.69c-.167-.284-16.917-28.257-33.075-29.92l.6-1.02c16.694 1.719 32.707 29.23 33.393 30.402l-.918.537"/>
        <path fill="#146EB4" d="M111.877 278.642h30.778v-29.267h-30.778z"/>
        <path fill="#0E4E80" d="M144.814 253.635h-35.18a2.135 2.135 0 0 1-2.128-2.13c0-1.172.957-2.13 2.128-2.13h35.18c1.17 0 2.127.958 2.127 2.13 0 1.17-.957 2.13-2.127 2.13"/>
        <path fill="#FFC53A" d="M46.233 85.22l-12.183-.065s.928-3.71.58-6.558c-.13-1.077-.783-2.029-1.701-2.604-11.94-7.474-9.013-16.01-9.013-16.01s1.3-10.839 16.647-11.806c16.362-1.031 15.304 13.52 15.304 13.52s.704 8.102-7.814 13.554c-1.218.78-1.993 2.096-2.175 3.533-.46 3.608.355 6.436.355 6.436"/>
        <path fill="#63B6F5" d="M34.111 84.875l-.024 4.369c-.008 1.637 1.053 2.982 2.358 2.989l7.419.041c1.304.006 2.38-1.326 2.39-2.965l.023-4.367-12.166-.067"/>
        <path fill="#146EB4" d="M37.584 92.75l.828 2.001 4.612.025 1.02-1.991-6.46-.035"/>
        <path fill="#FFF" d="M35.565 62.974c1.384-.691 2.498-.032 3.123.59.35.35.539.826.535 1.321l-.014 2.66c-1.551.125-3.048-.275-3.984-1.675-.637-.952-.532-2.357.34-2.896zm7.205 2.55c-.009-.417.612-3.748 2.663-1.89a.9.9 0 0 1 .3.774c-.162 1.172-1.825 1.958-3 2.342-.005-.41-.006-.823.037-1.226zm-4.06 2.567c.155.001.328-.01.497-.016l-.095 17.305.832.006.095-17.373a14.143 14.143 0 0 0 1.836-.32c.009.326.016.645.012.945l-.08 5.724c-.05 3.678-.101 7.355-.153 11.032l.832.005.25-17.948c1.054-.338 2.031-.806 2.697-1.436 2.841-2.692-2-5.643-3.29-1.865-.29.85-.306 1.874-.285 2.865-.546.157-1.266.324-1.913.432 0 0 .023-1.598.01-2.623-.01-.58-.182-1.161-.57-1.592-2.141-2.375-6.706-.687-4.873 2.775.79 1.49 2.615 2.072 4.197 2.084z"/>
        <path fill="#FAD473" d="M56.124 45.723a.647.647 0 0 1 .005-.912l6.185-6.124a.644.644 0 1 1 .906.917l-6.184 6.125a.645.645 0 0 1-.912-.006M29.066 44.92a.645.645 0 0 0 .005-.912l-6.118-6.191a.646.646 0 0 0-.916.907l6.118 6.192c.25.253.658.255.911.004M40.846 43.25a.644.644 0 0 1-.64-.65l.047-8.708a.645.645 0 1 1 1.288.007l-.046 8.71a.645.645 0 0 1-.649.64"/>
    </g>
</svg>
