<svg xmlns="http://www.w3.org/2000/svg" width="136" height="125" viewBox="0 0 136 125">
    <g fill="none" fill-rule="evenodd">
        <path fill="#95869E" d="M42.377 100.392h.2V22.55h-.2z"/>
        <path fill="#146EB4" d="M19.594 27.03a.785.785 0 1 1 0-1.57.785.785 0 0 1 0 1.57"/>
        <path fill="#95869E" d="M27.852 26.613h-6.548a.316.316 0 0 1-.316-.316v-.169c0-.175.142-.316.316-.316h6.548c.175 0 .316.141.316.316v.169a.316.316 0 0 1-.316.316"/>
        <path fill="#146EB4" d="M19.594 35.839a.785.785 0 1 1 0-1.57.785.785 0 0 1 0 1.57"/>
        <path fill="#95869E" d="M27.852 35.422h-6.548a.316.316 0 0 1-.316-.316v-.168c0-.175.142-.316.316-.316h6.548c.175 0 .316.141.316.316v.168a.316.316 0 0 1-.316.316"/>
        <path fill="#146EB4" d="M19.594 47.307a.785.785 0 1 1 0-1.57.785.785 0 0 1 0 1.57"/>
        <path fill="#95869E" d="M27.852 46.89h-6.548a.316.316 0 0 1-.316-.315v-.169c0-.174.142-.316.316-.316h6.548c.175 0 .316.142.316.316v.169a.316.316 0 0 1-.316.316"/>
        <path fill="#146EB4" d="M19.594 50.27a.785.785 0 1 1-.001-1.57.785.785 0 0 1 0 1.57"/>
        <path fill="#95869E" d="M27.852 49.854h-6.548a.316.316 0 0 1-.316-.316v-.169c0-.174.142-.316.316-.316h6.548c.175 0 .316.142.316.316v.17a.316.316 0 0 1-.316.315"/>
        <path fill="#146EB4" d="M21.773 29.336a.785.785 0 1 1 0-1.57.785.785 0 0 1 0 1.57"/>
        <path fill="#95869E" d="M30.032 28.92h-6.548a.316.316 0 0 1-.316-.317v-.168c0-.175.141-.317.316-.317h6.548c.174 0 .316.142.316.317v.168a.316.316 0 0 1-.316.316"/>
        <path fill="#146EB4" d="M21.773 31.642a.785.785 0 1 1 0-1.57.785.785 0 0 1 0 1.57"/>
        <path fill="#95869E" d="M32.756 31.226h-9.272a.316.316 0 0 1-.316-.316v-.169c0-.174.141-.316.316-.316h9.272c.175 0 .317.142.317.316v.169a.316.316 0 0 1-.317.316"/>
        <path fill="#146EB4" d="M21.773 38.05a.785.785 0 1 1 .785-.785.785.785 0 0 1-.785.784"/>
        <path fill="#95869E" d="M34.904 37.633h-11.42a.316.316 0 0 1-.316-.316v-.17c0-.174.141-.315.316-.315h11.42c.175 0 .316.141.316.316v.169a.316.316 0 0 1-.316.316"/>
        <path fill="#146EB4" d="M21.773 40.356a.785.785 0 1 1 0-1.57.785.785 0 0 1 0 1.57"/>
        <path fill="#95869E" d="M30.993 39.94h-7.509a.316.316 0 0 1-.316-.317v-.168c0-.175.141-.316.316-.316h7.51c.174 0 .316.14.316.316v.168a.316.316 0 0 1-.317.316"/>
        <path fill="#146EB4" d="M23.788 42.46a.62.62 0 1 1-.001-1.24.62.62 0 0 1 0 1.24"/>
        <path fill="#95869E" d="M37.981 42.131H25.204a.316.316 0 1 1 0-.632h12.777a.316.316 0 1 1 0 .632"/>
        <path fill="#146EB4" d="M23.788 44.28a.62.62 0 1 1 0-1.24.62.62 0 0 1 0 1.24"/>
        <path fill="#95869E" d="M32.756 43.951h-7.552a.316.316 0 1 1 0-.632h7.552a.316.316 0 1 1 0 .632"/>
        <path fill="#146EB4" d="M19.594 53.586a.785.785 0 1 1-.001-1.57.785.785 0 0 1 0 1.57"/>
        <path fill="#95869E" d="M27.852 53.17h-6.548a.316.316 0 0 1-.316-.316v-.169c0-.174.142-.316.316-.316h6.548c.175 0 .316.142.316.316v.169a.316.316 0 0 1-.316.316"/>
        <path fill="#146EB4" d="M19.594 62.396a.785.785 0 1 1 0-1.57.785.785 0 0 1 0 1.57"/>
        <path fill="#95869E" d="M27.852 61.98h-6.548a.316.316 0 0 1-.316-.316v-.17c0-.174.142-.315.316-.315h6.548c.175 0 .316.141.316.316v.169a.316.316 0 0 1-.316.316"/>
        <path fill="#146EB4" d="M19.594 73.864a.785.785 0 1 1-.001-1.57.785.785 0 0 1 0 1.57"/>
        <path fill="#95869E" d="M27.852 73.448h-6.548a.316.316 0 0 1-.316-.316v-.169c0-.174.142-.316.316-.316h6.548c.175 0 .316.142.316.316v.169a.316.316 0 0 1-.316.316"/>
        <path fill="#146EB4" d="M19.594 76.828a.785.785 0 1 1 0-1.57.785.785 0 0 1 0 1.57"/>
        <path fill="#95869E" d="M27.852 76.411h-6.548a.316.316 0 0 1-.316-.316v-.169c0-.174.142-.316.316-.316h6.548c.175 0 .316.142.316.316v.17a.316.316 0 0 1-.316.315"/>
        <path fill="#146EB4" d="M21.773 55.893a.785.785 0 1 1 0-1.57.785.785 0 0 1 0 1.57"/>
        <path fill="#95869E" d="M30.032 55.477h-6.548a.316.316 0 0 1-.316-.317v-.168c0-.175.141-.316.316-.316h6.548c.174 0 .316.141.316.316v.168a.316.316 0 0 1-.316.317"/>
        <path fill="#146EB4" d="M21.773 58.2a.785.785 0 1 1 0-1.57.785.785 0 0 1 0 1.57"/>
        <path fill="#95869E" d="M32.756 57.783h-9.272a.316.316 0 0 1-.316-.316v-.169c0-.174.141-.316.316-.316h9.272c.175 0 .317.142.317.316v.169a.316.316 0 0 1-.317.316"/>
        <path fill="#146EB4" d="M21.773 64.606a.785.785 0 1 1 0-1.57.785.785 0 0 1 0 1.57"/>
        <path fill="#95869E" d="M34.904 64.19h-11.42a.316.316 0 0 1-.316-.316v-.169c0-.174.141-.316.316-.316h11.42c.175 0 .316.142.316.316v.169a.316.316 0 0 1-.316.316"/>
        <path fill="#146EB4" d="M21.773 66.913a.785.785 0 1 1 0-1.57.785.785 0 0 1 0 1.57"/>
        <path fill="#95869E" d="M30.993 66.496h-7.509a.316.316 0 0 1-.316-.316v-.168c0-.175.141-.316.316-.316h7.51c.174 0 .316.141.316.316v.168a.316.316 0 0 1-.317.316"/>
        <path fill="#146EB4" d="M23.788 69.017a.62.62 0 1 1-.001-1.24.62.62 0 0 1 0 1.24"/>
        <path fill="#95869E" d="M37.981 68.688H25.204a.316.316 0 1 1 0-.632h12.777a.316.316 0 1 1 0 .632"/>
        <path fill="#146EB4" d="M23.788 70.837a.62.62 0 1 1-.001-1.239.62.62 0 0 1 0 1.24"/>
        <path fill="#95869E" d="M32.756 70.509h-7.552a.316.316 0 1 1 0-.632h7.552a.316.316 0 1 1 0 .632"/>
        <path fill="#F58A07" d="M45.122 26.212a.64.64 0 1 1 0-1.279.64.64 0 0 1 0 1.28"/>
        <path fill="#F8C73D" d="M54.721 26.212H48.31a.64.64 0 1 1 0-1.278h6.411a.64.64 0 1 1 0 1.278"/>
        <path fill="#F58A07" d="M70.648 26.212H57.9a.64.64 0 1 1 0-1.278h12.748a.64.64 0 1 1 0 1.278M45.122 29.975a.64.64 0 1 1 0-1.279.64.64 0 0 1 0 1.28"/>
        <path fill="#305293" d="M66.197 29.975H48.31a.64.64 0 1 1 0-1.279h17.887a.64.64 0 1 1 0 1.28"/>
        <path fill="#F8C73D" d="M101.914 29.975H69.376a.64.64 0 1 1 0-1.279h32.538a.64.64 0 1 1 0 1.28"/>
        <path fill="#F58A07" d="M45.122 33.738a.64.64 0 1 1 0-1.28.64.64 0 0 1 0 1.28"/>
        <path fill="#305293" d="M54.721 33.738H48.31a.64.64 0 1 1 0-1.279h6.411a.64.64 0 1 1 0 1.279"/>
        <path fill="#F58A07" d="M45.122 37.5a.64.64 0 1 1 0-1.279.64.64 0 0 1 0 1.28M51.481 37.5H48.31a.64.64 0 1 1 0-1.278h3.171a.64.64 0 1 1 0 1.278M66.197 37.5H54.66a.64.64 0 1 1 0-1.278h11.537a.64.64 0 1 1 0 1.278M45.122 41.263a.64.64 0 1 1 0-1.279.64.64 0 0 1 0 1.279M58.566 41.263h-6.411a.64.64 0 1 1 0-1.279h6.411a.64.64 0 1 1 0 1.279"/>
        <path fill="#146EB4" d="M77.391 41.263H61.746a.64.64 0 1 1 0-1.279H77.39a.64.64 0 1 1 0 1.279"/>
        <path fill="#494E5B" d="M45.122 45.026a.64.64 0 1 1 0-1.28.64.64 0 0 1 0 1.28"/>
        <path fill="#F8C73D" d="M108.523 45.026H52.155a.64.64 0 1 1 0-1.279h56.368a.64.64 0 1 1 0 1.279"/>
        <path fill="#EBA53E" d="M118.638 45.026h-6.504a.64.64 0 1 1 0-1.279h6.504a.64.64 0 1 1 0 1.279"/>
        <path fill="#EBA53E" d="M118.638 44.92h-6.504a.64.64 0 1 1 0-1.28h6.504a.64.64 0 1 1 0 1.28"/>
        <path fill="#494E5B" d="M45.122 48.788a.64.64 0 1 1 0-1.279.64.64 0 0 1 0 1.28M45.122 52.551a.64.64 0 1 1 0-1.279.64.64 0 0 1 0 1.28"/>
        <path fill="#146EB4" d="M103.252 52.551h-46.68a.64.64 0 1 1 0-1.278h46.68a.64.64 0 1 1 0 1.278"/>
        <path fill="#F8C73D" d="M118.638 52.551h-12.06a.64.64 0 1 1 0-1.278h12.06a.64.64 0 1 1 0 1.278"/>
        <path fill="#494E5B" d="M45.122 56.314a.64.64 0 1 1 0-1.28.64.64 0 0 1 0 1.28"/>
        <path fill="#F58A07" d="M55.292 56.314h-3.137a.64.64 0 1 1 0-1.279h3.137a.64.64 0 1 1 0 1.279"/>
        <path fill="#494E5B" d="M45.122 60.027a.64.64 0 1 1 0-1.28.64.64 0 0 1 0 1.28"/>
        <path fill="#F58A07" d="M58.566 60.027h-6.411a.64.64 0 1 1 0-1.279h6.411a.64.64 0 1 1 0 1.279"/>
        <path fill="#146EB4" d="M77.391 60.027H61.746a.64.64 0 1 1 0-1.279H77.39a.64.64 0 1 1 0 1.279"/>
        <path fill="#494E5B" d="M45.122 63.79a.64.64 0 1 1 0-1.28.64.64 0 0 1 0 1.28"/>
        <path fill="#F8C73D" d="M108.523 63.79H52.155a.64.64 0 1 1 0-1.279h56.368a.64.64 0 1 1 0 1.279"/>
        <path fill="#EBA53E" d="M118.638 63.79h-6.504a.64.64 0 1 1 0-1.279h6.504a.64.64 0 1 1 0 1.279"/>
        <path fill="#EBA53E" d="M118.638 63.683h-6.504a.64.64 0 1 1 0-1.278h6.504a.64.64 0 1 1 0 1.278"/>
        <path fill="#494E5B" d="M45.122 67.552a.64.64 0 1 1 0-1.279.64.64 0 0 1 0 1.28"/>
        <path fill="#F58A07" d="M134.738 67.552H56.572a.64.64 0 1 1 0-1.278h78.166a.64.64 0 0 1 0 1.278"/>
        <path fill="#494E5B" d="M45.122 71.315a.64.64 0 1 1 0-1.28.64.64 0 0 1 0 1.28"/>
        <path fill="#208DA2" d="M69.606 71.315H56.572a.64.64 0 1 1 0-1.279h13.034a.64.64 0 1 1 0 1.279"/>
        <path fill="#F58A07" d="M103.252 71.315H73.394a.64.64 0 1 1 0-1.279h29.858a.64.64 0 1 1 0 1.279"/>
        <path fill="#F8C73D" d="M118.638 71.315h-12.06a.64.64 0 1 1 0-1.279h12.06a.64.64 0 1 1 0 1.279"/>
        <path fill="#494E5B" d="M45.122 75.077a.64.64 0 1 1 0-1.278.64.64 0 0 1 0 1.278"/>
        <path fill="#EBA53E" d="M55.292 75.077h-3.137a.64.64 0 1 1 0-1.278h3.137a.64.64 0 1 1 0 1.278"/>
        <path fill="#494E5B" d="M45.122 78.79a.64.64 0 1 1 0-1.278.64.64 0 0 1 0 1.279"/>
        <path fill="#95869E" d="M58.566 78.79h-6.411a.64.64 0 1 1 0-1.278h6.411a.64.64 0 1 1 0 1.279"/>
        <path fill="#208DA2" d="M77.391 78.79H61.746a.64.64 0 1 1 0-1.278H77.39a.64.64 0 1 1 0 1.279"/>
        <path fill="#494E5B" d="M45.122 82.553a.64.64 0 1 1 0-1.279.64.64 0 0 1 0 1.28"/>
        <path fill="#F8C73D" d="M108.523 82.553H52.155a.64.64 0 1 1 0-1.278h56.368a.64.64 0 1 1 0 1.278"/>
        <path fill="#EBA53E" d="M118.638 82.553h-6.504a.64.64 0 1 1 0-1.278h6.504a.64.64 0 1 1 0 1.278"/>
        <path fill="#F8C73D" d="M118.638 82.447h-6.504a.64.64 0 1 1 0-1.279h6.504a.64.64 0 1 1 0 1.28"/>
        <path fill="#494E5B" d="M45.122 86.316a.64.64 0 1 1 0-1.279.64.64 0 0 1 0 1.279"/>
        <path fill="#146EB4" d="M134.738 86.316H56.572a.64.64 0 1 1 0-1.278h78.166a.64.64 0 0 1 0 1.278"/>
        <path fill="#494E5B" d="M45.122 90.079a.64.64 0 1 1 0-1.28.64.64 0 0 1 0 1.28"/>
        <path fill="#F58A07" d="M103.252 90.079h-46.68a.64.64 0 1 1 0-1.279h46.68a.64.64 0 1 1 0 1.279M118.638 90.079h-12.06a.64.64 0 1 1 0-1.279h12.06a.64.64 0 1 1 0 1.279M134.738 90.079h-12.06a.64.64 0 1 1 0-1.279h12.06a.64.64 0 0 1 0 1.279"/>
        <path fill="#494E5B" d="M45.122 93.841a.64.64 0 1 1 0-1.279.64.64 0 0 1 0 1.28"/>
        <path fill="#EBA53E" d="M55.292 93.841h-3.137a.64.64 0 1 1 0-1.278h3.137a.64.64 0 1 1 0 1.278"/>
        <path fill="#146EB4" d="M41.33 87.738c-1.433-1.628-1.454-4.12-.702-6.154.753-2.034 2.15-3.75 3.385-5.534 1.234-1.783 2.357-3.77 2.426-5.938.13-4.02-3.274-7.2-4.673-10.971a12.01 12.01 0 0 1-.678-2.95c-.857-8.546 3.798-18.083 12.061-20.99 1.048-.466 2.444.232 2.444 1.279.117 2.326-2.095 4.187-2.095 6.63 0 .232.117.697.233.813 4.19 2.327 5.004 6.514.698 9.305-.349.35-.465.815-.709 1.244-.29.742-.323 1.535-.197 2.322.126.786.412 1.566.762 2.28.701 1.43 1.655 2.74 2.173 4.245 1.416 4.111-.708 8.578-3.234 12.119-2.525 3.54-5.606 6.948-6.43 11.217-.264 1.368-.292 2.812-.908 4.06-.617 1.25-2.11 2.237-3.39 1.686l-.254-1.126"/>
        <path fill="#FFF" d="M44.905 75.009l-.115-.138c5.822-4.825 4.09-12.052 2.416-19.042-.145-.602-.289-1.205-.429-1.805-.928-3.993.332-7.452 1.551-9.65 1.32-2.379 2.883-3.836 2.898-3.85l.122.131c-.062.057-6.148 5.793-4.396 13.328.14.6.284 1.202.428 1.805 1.687 7.042 3.432 14.324-2.475 19.22"/>
        <path fill="#83A1C8" d="M29.37 63.385c-2.147-2.43-3.572-5.717-3-8.909.571-3.192 3.581-6.005 6.804-5.627-1.79-2.794-3.637-5.757-3.806-9.071-.17-3.314 2.024-6.997 5.337-7.218 1.407-.093 2.765.553 3.728 1.571.983 1.07 1.565 2.465 1.449 3.86-.698-.93.233-2.093 1.164-2.325a2.02 2.02 0 0 1 1.629.348c.931.815 1.513 1.978 1.28 3.14-.698 2.792-2.677 5.351-1.28 8.259 2.211 4.42 4.19 8.723 5.19 13.521.195.779.377 1.562.538 2.35.16.789.298 1.581.414 2.377.307 2.125.438 4.371-.404 6.347-1.003 2.352-3.276 4.055-3.985 6.512-1.124 3.898 2.046 8.372.149 11.958-1.374 2.598-5.064 3.069-7.474 1.734-3.436-1.903-3.521-6.413-2.645-9.787.827-3.188 2.652-5.934 2.146-9.411-.176-1.208-.607-2.255-1.196-3.202-1.525-2.454-4.105-4.24-6.038-6.427"/>
        <path fill="#F8C73D" d="M28.543 87.154h24l-6.45 12.842H34.225l-5.682-12.842"/>
        <path fill="#FFF" d="M40.463 86.494c-.025-.051-.602-1.294-.718-3.718-.107-2.229.179-5.915 2.148-10.816 2.69-6.692-.85-13.383-3.434-18.268-1.053-1.99-1.963-3.71-2.234-5.02-.926-4.476 1.688-9.852 1.714-9.906l.161.08c-.026.053-2.613 5.375-1.7 9.79.267 1.284 1.17 2.994 2.218 4.973 2.6 4.916 6.162 11.648 3.442 18.417-1.955 4.865-2.241 8.52-2.137 10.729.113 2.392.696 3.65.701 3.663l-.161.076"/>
        <path fill="#FFF" d="M42.066 72.003l-.178-.02c.351-3.008-.307-7.519-5.44-11.931-3.076-2.645-6.344-4.014-6.376-4.027l.068-.166c.033.014 3.327 1.394 6.425 4.057 2.866 2.464 6.147 6.56 5.5 12.087M37.562 51.97c-1.124-3.737-.09-6.653.976-8.44 1.154-1.935 2.595-3.002 2.61-3.013l.106.144c-.014.01-1.43 1.06-2.565 2.967-1.045 1.755-2.06 4.618-.956 8.291l-.171.052"/>
        <path fill="#FFF" d="M41.43 73.7l-.178-.012c.193-2.832-.25-6.718-3.464-9.15-1.922-1.456-3.948-1.703-3.968-1.705l.02-.178c.021.002 2.096.255 4.056 1.74 3.277 2.48 3.731 6.43 3.535 9.305M47.58 56.647l-.178-.016c.224-2.561 1.002-5.998 3.429-7.827 1.46-1.101 2.806-1.093 2.863-1.093l-.003.18c-.014.002-1.35-.006-2.762 1.063-2.367 1.792-3.128 5.172-3.349 7.693M29.018 54.68a.385.385 0 1 0 0 .77.385.385 0 0 0 0-.77zm0 .948a.565.565 0 1 1 0-1.13.565.565 0 0 1 0 1.13zM54.682 47.153a.28.28 0 1 0 0 .559.28.28 0 0 0 0-.559zm0 .737a.459.459 0 1 1 0-.917.459.459 0 0 1 0 .917zM32.52 62.39a.347.347 0 1 0 .001.694.347.347 0 0 0 0-.694zm0 .872a.526.526 0 1 1 .001-1.053.526.526 0 0 1 0 1.053zM38.293 37.674a.266.266 0 1 0 0 .531.266.266 0 0 0 0-.53zm0 .71a.445.445 0 1 1 .001-.89.445.445 0 0 1 0 .89zM41.96 39.826a.265.265 0 1 0 0 .53.265.265 0 0 0 0-.53zm0 .71a.445.445 0 1 1 0-.89.445.445 0 0 1 0 .89zM52.026 39.023a.475.475 0 1 0 0 .95.475.475 0 0 0 0-.95zm0 1.128a.655.655 0 1 1 .001-1.309.655.655 0 0 1 0 1.31z"/>
        <path fill="#F8C73D" d="M92.837 62.865a5.213 5.213 0 0 1-5.215 5.212 5.214 5.214 0 0 1-5.216-5.212 5.214 5.214 0 0 1 5.216-5.212 5.213 5.213 0 0 1 5.215 5.212"/>
        <path fill="#FBFAF8" d="M84.914 66.345a.305.305 0 0 0 .212-.526c-1.139-1.094-1.152-2.684-1.152-2.7a.306.306 0 0 0-.612 0c0 .076.015 1.869 1.34 3.141.059.057.135.085.212.085"/>
        <path fill="#0E4E80" d="M109.481 93.827l4.276-21.967L97.333 54.24l.86-1.208 17.29 18.294-4.325 22.266-1.677.236"/>
        <path fill="#1C1F45" d="M99.227 54.125l1.92 2.031H99.12l-.66-.708.767-1.323M114.629 75.719l-1.312-1.6.082-.42 1.647-.13-.417 2.15"/>
        <path fill="#FBFAF8" d="M104.745 96.59a.214.214 0 0 1-.214.213h-2.835a.215.215 0 0 1-.215-.214V94.45c0-.118.097-.213.215-.213h2.835c.12 0 .214.095.214.213v2.14"/>
        <path fill="#0E4E80" d="M110.32 94.566c-6.986 0-12.648 1.63-12.648 4.549h25.295c0-2.92-5.662-4.549-12.648-4.549"/>
        <path fill="#1C1F45" d="M110.32 96.386c-1.27 0-1.017-.963-.544-1.816a39.14 39.14 0 0 1 4.929.231c-.705.467-2.582 1.585-4.386 1.585"/>
        <path fill="#0E4E80" d="M99.622 55.687a2.68 2.68 0 0 1-3.788-.07 2.676 2.676 0 0 1 .07-3.785 2.68 2.68 0 0 1 3.788.07 2.676 2.676 0 0 1-.07 3.785"/>
        <path fill="#1C1F45" d="M98.661 54.691a1.295 1.295 0 0 1-1.796-1.862 1.294 1.294 0 0 1 1.796 1.862"/>
        <path fill="#0E4E80" d="M117.276 71.583a2.678 2.678 0 1 1-5.356-.002 2.678 2.678 0 0 1 5.356.002"/>
        <path fill="#1C1F45" d="M115.891 71.583a1.293 1.293 0 1 1-2.586 0 1.293 1.293 0 0 1 2.586 0"/>
        <path fill="#0E4E80" d="M112.998 93.709a2.678 2.678 0 1 1-5.356 0 2.678 2.678 0 0 1 5.356 0"/>
        <path fill="#1C1F45" d="M111.613 93.709a1.294 1.294 0 1 1-2.587-.001 1.294 1.294 0 0 1 2.587.001"/>
        <path fill="#0A385C" d="M96.737 57.542l-2.846-2.95 1.206-1.163 2.847 2.95-1.207 1.163"/>
        <path fill="#146EB4" d="M81.06 59.263c5.211-5.02 10.051-8.276 14.758-3.572 4.328 4.325 1.099 9.589-4.113 14.609L81.06 59.263"/>
        <path fill="#FBFAF8" d="M97.756 52.829a.89.89 0 1 0-.002 1.78.89.89 0 0 0 .002-1.78M114.597 70.676a.89.89 0 1 0 0 1.78.89.89 0 0 0 0-1.78M110.32 92.819a.89.89 0 1 0-.001 1.78.89.89 0 0 0 0-1.78"/>
        <path fill="#E6E7E8" d="M77.496 124.435a1.98 1.98 0 0 1-.711-.132c-1.578-.6-1.663-2.735-2.247-4.32-.767-2.077-2.907-3.569-5.123-3.569h-.002c-1.567 0-3.1.746-4.128 1.916-.918 1.043-.91 3.17-2.136 3.78-.391.193-.726.282-1.012.282-2.474 0-1.332-6.573-1.727-7.8-.735-2.277-3.319-3.44-5.704-3.652a14.58 14.58 0 0 0-1.287-.054c-2.04 0-4.08.367-6.124.508-.459.032-.924.05-1.39.05-2.043 0-4.102-.358-5.742-1.533-2.014-1.444-3.059-4.448-1.675-6.503.893-1.328 2.559-1.962 4.158-2.023.104-.004.208-.006.311-.006 1.492 0 2.961.397 4.412.76a108.925 108.925 0 0 0 26.458 3.252c7.543 0 15.087-.779 22.467-2.338.994-.21 2.011-.435 3.019-.435.371 0 .742.03 1.109.104 1.363.27 2.685 1.306 2.8 2.69.113 1.339-.935 2.551-2.164 3.092-1.23.542-2.614.568-3.956.632a59.114 59.114 0 0 0-14.003 2.373c1.353.174 2.171 1.725 2.04 3.082-.13 1.357-.935 2.543-1.715 3.66-.857 1.229-1.713 2.458-2.57 3.685-.824 1.183-2.038 2.5-3.358 2.5"/>
        <path fill="#0E4E80" d="M53.21 94.316l38.119-1.662-2.357 8.61-22.195 9.301-14.134-6.296.567-9.953"/>
        <path fill="#E1604E" d="M57.277 90.671l.33 6.771h29.128l.734-14.175-30.192 7.404"/>
        <path fill="#F58A07" d="M66.643 64.377s-12.438 2.52-14.726 4.397c-2.287 1.876-4.553 24.906-3.78 25.968.773 1.063 47.322 2.148 48.395.157 1.073-1.991-4.904-25.842-6.514-27.036-1.61-1.195-19.432-3.754-23.375-3.486"/>
        <path fill="#0F1229" d="M86.737 88.742h-.012a.137.137 0 0 1-.124-.148c.38-4.387.003-16.743 0-16.867a.137.137 0 1 1 .273-.009c.004.125.38 12.496 0 16.9a.137.137 0 0 1-.137.124M56.007 88.293h-.016a.137.137 0 0 1-.12-.152c.594-5.194-.477-15.863-.488-15.97a.137.137 0 1 1 .272-.027c.011.107 1.085 10.805.488 16.028a.137.137 0 0 1-.136.121"/>
        <path fill="#F0B3BD" d="M60.327 93.785l-.588-2.373a.316.316 0 0 1 .214-.378l.804-.25a.317.317 0 0 0 .218-.244l.136-.737a.317.317 0 0 1 .312-.259h.657c.11 0 .211-.056.269-.149l.4-.64a.317.317 0 0 1 .431-.105l.761.45a.317.317 0 0 0 .317.004l.446-.25a.317.317 0 0 1 .42.102l1.6 2.42a.316.316 0 0 1-.098.444l-.355.217a.317.317 0 0 1-.403-.061c-.21-.237-.599-.054-.55.259l.017.105a.316.316 0 0 1-.173.332l-3.14 1.55a.317.317 0 0 1-.065.023c-.197.049-1.162.25-1.586-.36a.305.305 0 0 1-.044-.1M82.455 93.785l.587-2.373a.316.316 0 0 0-.213-.378l-.804-.25a.317.317 0 0 1-.218-.244l-.136-.737a.317.317 0 0 0-.312-.259h-.657a.317.317 0 0 1-.27-.149l-.4-.64a.317.317 0 0 0-.43-.105l-.762.45a.317.317 0 0 1-.316.004l-.447-.25a.317.317 0 0 0-.418.102l-1.602 2.42c-.099.149-.054.35.1.444l.354.217c.13.08.3.054.402-.061.21-.237.6-.054.55.259l-.016.105a.316.316 0 0 0 .173.332l3.14 1.55c.021.01.042.017.065.023.197.049 1.161.25 1.586-.36a.305.305 0 0 0 .044-.1"/>
        <path fill="#0F1229" d="M59.73 90.602l-.02-.002-7.446-1.096a.137.137 0 1 1 .04-.27l7.446 1.096a.137.137 0 0 1-.02.272M83.708 90.996a.137.137 0 0 1-.024-.271l6.053-1.08a.137.137 0 1 1 .048.27l-6.053 1.08-.024.001"/>
        <path fill="#F0B3BD" d="M64.656 59.047s-1.045 8.98 5.353 8.98c5.82 0 5.617-7.726 5.617-7.726s.582-4.78-3.93-5.322c-4.512-.54-7.313 2.455-7.04 4.068"/>
        <path fill="#0E4E80" d="M74.078 56.101s-1.422 2.784.02 4.197c.919.902 1.326 2.204 1.03 3.457l-.015.068s2.416-1.913 2.863-5.791c.448-3.878-1.313-6.319-2.804-6.043 0 0-.593-2.98-4.38-2.701-3.786.279-6.912-.029-8.283 2.971-1.371 3 1.02 5.628 1.02 5.628s.186 3.175 1.478 5.937l-.504-3.707s4.16-5.587 9.575-4.016"/>
        <path fill="#F0B3BD" d="M75.554 60.783l-.441 3.04s2.15-1.141 2.116-2.69c-.011-.515-.19-.8-.424-.95-.5-.322-1.165.013-1.25.6M64.668 59.908l.373 3.915s-2.067-1.197-2.033-2.745c.035-1.548 1.66-1.17 1.66-1.17"/>
        <path fill="#FBFAF8" d="M81.596 80.887H60.05c-.947 0-1.715.768-1.715 1.714v14.212c0 .947.768 1.714 1.715 1.714h21.547c.947 0 1.715-.767 1.715-1.714V82.601c0-.946-.768-1.714-1.715-1.714"/>
        <path fill="#6D6374" d="M82.896 99.357H58.75a.415.415 0 1 1 0-.83h24.147a.415.415 0 1 1 0 .83"/>
        <path fill="#95869E" d="M79.303 98.911a.177.177 0 1 1-.354 0 .177.177 0 0 1 .354 0M77.093 99.088h1.428v-.354h-1.428z"/>
        <path fill="#146EB4" d="M45.191 88.547l33.086 20.076c-2.663 2.161-4.146 4.985-4.742 8.306L39.07 99.583c-3.47-1.746-4.556-6.178-2.286-9.328a6.32 6.32 0 0 1 8.406-1.708"/>
        <path fill="#1C1F45" d="M68.71 111.67l-2.102 1.773 4.156 2.092c1.244-1.07 3.668-3.133 4.03-3.271.488-.186-6.085-.594-6.085-.594"/>
        <path fill="#0E4E80" d="M78.277 108.623l5.51 3.103a.85.85 0 0 1 .32 1.163c-1.453 2.534-6.302 10.721-8.864 11.834 0 0-2.068-.664-1.276-3.366.792-2.704-.274-5.204-.274-5.204s.18-6.3 4.584-7.53"/>
        <path fill="#2E446F" d="M75.243 124.723c2.562-1.113 7.41-9.3 8.864-11.834a.849.849 0 0 0-.097-.98c-.984.581-5.248 3.541-8.767 12.814"/>
        <path fill="#146EB4" d="M95.644 90.814l-34.957 16.609c2.43 2.42 3.617 5.38 3.872 8.746l36.051-13.754c3.629-1.385 5.16-5.683 3.223-9.048a6.32 6.32 0 0 0-8.189-2.553"/>
        <path fill="#0E4E80" d="M60.687 107.423l-5.798 2.527a.85.85 0 0 0-.436 1.124c1.188 2.668 5.178 11.307 7.614 12.675 0 0 2.125-.452 1.612-3.22-.513-2.77.802-5.148.802-5.148s.462-6.287-3.794-7.958"/>
        <path fill="#2E446F" d="M62.067 123.749c-2.436-1.368-6.426-10.007-7.614-12.675a.849.849 0 0 1 .196-.966c.92.68 4.861 4.057 7.418 13.64"/>
        <path fill="#F58A07" d="M48.196 88.815c-.247 3.212-.296 5.601-.059 5.927.218.299 4.053.6 9.48.833l-9.421-6.76M83.105 95.986c7.364-.084 13.06-.405 13.427-1.087.263-.488.103-2.286-.312-4.742l-13.115 5.83"/>
        <path fill="#0F1229" d="M62.026 106.924a.137.137 0 0 1-.059-.261l6.27-2.98a.137.137 0 0 1 .118.248l-6.27 2.98a.135.135 0 0 1-.059.013"/>
        <path fill="#F58A07" d="M45.634 22.02c0 .881-.715 1.596-1.596 1.596H29.332a1.595 1.595 0 0 1-1.596-1.595v-8.068c0-.88.715-1.594 1.596-1.594h14.706c.881 0 1.596.714 1.596 1.595v8.067"/>
        <path fill="#FBFAF8" d="M34.318 21.141h1.166l3.355-6.308h-1.165l-3.356 6.308M42.598 18.174h-.008l-1.805-2.552h-1.238l1.81 2.56-1.81 2.437h1.238l1.805-2.43h.008l-.004-.008.004-.007M30.771 18.174h.009l1.805-2.552h1.13l-1.808 2.56 1.809 2.437h-1.131l-1.805-2.43h-.009l.005-.008-.005-.007"/>
        <path fill="#146EB4" d="M112.184 37.283a1.908 1.908 0 0 1-1.909 1.908H92.687a1.908 1.908 0 0 1-1.908-1.908v-9.648c0-1.053.854-1.907 1.908-1.907h17.588c1.054 0 1.909.854 1.909 1.907v9.648"/>
        <path fill="#FBFAF8" d="M96.609 32.135c-.072.096-.2.197-.386.305l-.206.134c.06.048.128.093.206.134.132.085.229.153.292.207a.546.546 0 0 1 .148.214c.035.09.053.213.053.368v1.639c0 .233.068.4.202.502.134.102.36.152.677.152v.68h-.314c-.478 0-.82-.083-1.026-.25-.206-.167-.31-.448-.31-.842v-1.935c0-.185-.033-.318-.098-.398-.066-.081-.168-.121-.305-.121h-.26v-.69h.26c.137 0 .24-.04.305-.121.065-.08.098-.214.098-.399V29.78c0-.389.104-.668.31-.838.206-.17.548-.255 1.026-.255h.314v.68c-.317 0-.543.05-.677.153-.134.101-.202.269-.202.501v1.648c0 .216-.036.37-.107.466M107.68 32.234v.69h-.26c-.137 0-.239.04-.304.12-.066.081-.099.214-.099.4v1.934c0 .394-.103.675-.309.842-.206.167-.549.25-1.026.25h-.314v-.68c.316 0 .542-.05.676-.152.135-.102.202-.27.202-.502v-1.639c0-.155.018-.278.054-.368a.539.539 0 0 1 .148-.214 2.81 2.81 0 0 1 .291-.207c.078-.041.147-.086.207-.134l-.207-.134c-.185-.108-.314-.21-.385-.305-.072-.095-.108-.25-.108-.466v-1.648c0-.232-.067-.4-.202-.501-.134-.102-.36-.153-.676-.153v-.68h.314c.477 0 .82.084 1.026.255.206.17.31.45.31.838v1.934c0 .185.032.318.098.399.065.08.167.12.305.12h.26"/>
        <path fill="#146EB4" d="M101.777 8.412a5.734 5.734 0 0 1-6.567 4.755 5.732 5.732 0 1 1 1.81-11.319 5.731 5.731 0 0 1 4.757 6.564M5.31 55.486a4.588 4.588 0 0 0-.773 9.142 4.588 4.588 0 0 0 .773-9.142"/>
        <path fill="#F8C73D" d="M127.478 101.165c0 .813-.66 1.472-1.473 1.472h-7.936a1.472 1.472 0 0 1-1.473-1.472V93.72c0-.813.66-1.472 1.473-1.472h7.936c.814 0 1.473.66 1.473 1.473v7.445"/>
        <path fill="#FFFFFE" d="M122.73 94.428h-1.381v.817a2.27 2.27 0 0 0-.375.155l-.58-.578-.976.976.578.578c-.062.119-.115.244-.156.374h-.818v1.38h.817c.04.13.093.256.155.375l-.579.579.977.976.578-.578c.12.063.244.115.375.156v.818h1.382v-.816a2.3 2.3 0 0 0 .373-.156l.58.58.976-.977-.578-.578a2.2 2.2 0 0 0 .157-.374h.818v-1.38h-.817a2.305 2.305 0 0 0-.155-.375l.58-.58-.978-.976-.579.578a2.301 2.301 0 0 0-.373-.155v-.819zm-.268.269v.746l.188.06c.112.035.223.081.33.137l.175.092.14-.14.388-.388.597.597-.39.389-.138.14.09.174c.056.107.102.218.138.33l.058.189h.747v.843h-.747l-.06.188a1.985 1.985 0 0 1-.138.33l-.091.175.14.14.388.388-.597.597-.39-.39-.138-.139-.176.091a1.984 1.984 0 0 1-.33.138l-.189.059v.745h-.844v-.746l-.188-.06a2.039 2.039 0 0 1-.33-.137l-.175-.092-.528.528-.597-.597.528-.528-.09-.175a2.036 2.036 0 0 1-.138-.33l-.059-.189h-.746v-.844h.747l.06-.187a2.02 2.02 0 0 1 .137-.33l.092-.175-.528-.528.597-.597.529.528.174-.09c.108-.057.22-.103.331-.138l.188-.059v-.745h.845z"/>
        <path fill="#FFFFFE" d="M122.037 95.991a1.452 1.452 0 1 0 0 2.903 1.452 1.452 0 0 0 0-2.903zm0 .268c.653 0 1.184.531 1.184 1.183a1.185 1.185 0 0 1-2.367 0c0-.652.53-1.183 1.183-1.183z"/>
        <path fill="#F58A07" d="M127.704 23.616a5.665 5.665 0 0 1-5.667 5.662 5.665 5.665 0 0 1-5.666-5.662 5.665 5.665 0 0 1 5.666-5.663 5.665 5.665 0 0 1 5.667 5.663M81.742 18.047a4.648 4.648 0 0 1-4.71 4.587 4.648 4.648 0 0 1-4.589-4.707 4.648 4.648 0 0 1 4.71-4.586 4.648 4.648 0 0 1 4.589 4.706"/>
        <path fill="#FFC53A" d="M16.283 39.259a4.7 4.7 0 0 1-9 2.704 4.7 4.7 0 0 1 9-2.704"/>
        <path fill="#95869E" d="M62.424 4.946a5.625 5.625 0 0 1-10.978 2.461 5.625 5.625 0 0 1 10.978-2.461"/>
        <path fill="#F8C73D" d="M131.986 51.082a3.279 3.279 0 0 1-6.558 0 3.279 3.279 0 1 1 6.558 0"/>
        <path fill="#146EB4" d="M23.856 90.087a5.046 5.046 0 0 1-5.048 5.045 5.046 5.046 0 0 1-5.047-5.045 5.046 5.046 0 0 1 5.047-5.045 5.046 5.046 0 0 1 5.048 5.045"/>
        <path fill="#95869E" d="M113.707 52.97a5.232 5.232 0 0 0-5.234 5.23 5.232 5.232 0 0 0 5.234 5.23 5.232 5.232 0 0 0 5.233-5.23 5.232 5.232 0 0 0-5.233-5.23"/>
    </g>
</svg>
