<svg xmlns="http://www.w3.org/2000/svg" xmlns:xlink="http://www.w3.org/1999/xlink" width="128" height="125" viewBox="0 0 128 125">
    <defs>
        <path id="a" d="M77.813.368V.3h-.152l-.014.02v13.93a2.309 2.309 0 0 1-1.746 2.233l.009.07h-7.476V12.25l-.018.016V57.47h-53.81V.3H.035v57.212H85.61V.3h-3.207v.068h-4.591z"/>
        <path id="c" d="M98.589 16.75a.276.276 0 0 1-.034.258l.034.089a.277.277 0 0 1-.258.375l-7.045.004a.276.276 0 0 1-.262-.191l-.815-2.543a.275.275 0 0 1 .035-.239l-.035-.107a.277.277 0 0 1 .263-.362l6.897-.006c.115 0 .218.071.259.18l.96 2.542zm-10.667.373a.277.277 0 0 1-.265.356l-7.056.005a.276.276 0 0 1-.27-.212l-.608-2.541a.274.274 0 0 1 .033-.207l-.033-.139a.277.277 0 0 1 .267-.342l6.91-.006c.123 0 .231.08.266.198l.756 2.542a.273.273 0 0 1-.035.23l.035.116zm-8.63-4.184l-.608-2.54a.276.276 0 0 1 .033-.208l-.033-.139a.277.277 0 0 1 .268-.342l5.766-.006 1.1-.001 9.912-.01c.115 0 .218.07.259.178l.961 2.544a.276.276 0 0 1-.033.258l.033.088a.277.277 0 0 1-.258.375l-9.953.009-1.128.001-6.05.005a.276.276 0 0 1-.268-.212zm-2.04 4.212a.277.277 0 0 1-.27.336l-7.302.005-3.058.002-7.645.005-3.058.002-7.645.006-3.058.002-7.645.005-10.377.007c-.17 0-.3-.153-.272-.322l.028-.172a.274.274 0 0 1-.028-.174l.416-2.534a.277.277 0 0 1 .273-.232l10.218-.008 7.467-.007 2.986-.002 7.467-.007 2.986-.002 7.466-.006 2.987-.003 7.243-.006c.13 0 .243.091.27.218l.55 2.54a.273.273 0 0 1-.031.198l.032.149zM25.14 10.44l-.476 2.535a.276.276 0 0 1-.27.225l-6.07.006h-1.097l-9.971.01a.277.277 0 0 1-.263-.364l.034-.105a.274.274 0 0 1-.034-.24l.827-2.532a.275.275 0 0 1 .262-.19l9.903-.011 1.07-.001 5.813-.007c.173 0 .304.158.272.329l-.03.16c.03.055.043.12.03.186zm-.812 4.323l-.475 2.534a.276.276 0 0 1-.271.226l-7.064.005a.276.276 0 0 1-.268-.343l.033-.137a.275.275 0 0 1-.033-.21l.622-2.532a.276.276 0 0 1 .268-.21l6.917-.006c.173 0 .304.157.271.327l-.03.162c.03.054.043.118.03.184zm-10.485.03l-.68 2.533a.276.276 0 0 1-.267.205l-7.052.004a.277.277 0 0 1-.263-.363l.035-.105a.278.278 0 0 1-.035-.24l.828-2.533a.276.276 0 0 1 .262-.19l6.905-.006c.183 0 .315.173.267.35l-.034.126c.04.063.056.14.034.22zm3.485-12.963l-.681 2.533a.275.275 0 0 1-.266.204l-6.303.009a.276.276 0 0 1-.262-.363l.034-.105a.273.273 0 0 1-.034-.241l.827-2.532a.277.277 0 0 1 .262-.19l6.156-.01c.181 0 .314.173.267.349l-.035.128c.04.062.055.14.035.218zm3.997 4.304l-.573 2.533a.276.276 0 0 1-.269.215l-3.919.005-4.14.005-3.757.004a.277.277 0 0 1-.263-.363l.035-.106a.274.274 0 0 1-.035-.24l.827-2.532a.277.277 0 0 1 .262-.19l3.837-.005 4.035-.006 3.69-.004c.177 0 .31.164.27.338l-.033.144c.034.059.05.129.033.202zm5.438-4.685l-.03.161c.03.054.042.118.03.185l-.476 2.534a.276.276 0 0 1-.27.225l-6.315.01a.277.277 0 0 1-.268-.344l.034-.137a.276.276 0 0 1-.034-.21l.622-2.532a.276.276 0 0 1 .268-.21l6.167-.01c.173 0 .304.157.272.328zm47.673 2.359a.273.273 0 0 1-.033.197l.033.149a.277.277 0 0 1-.27.336l-6.317.008a.277.277 0 0 1-.273-.233l-.403-2.54a.275.275 0 0 1 .027-.171l-.027-.175a.276.276 0 0 1 .272-.32l6.17-.01c.13 0 .243.09.27.218l.55 2.54zm-10.89 5.026a.277.277 0 0 1-.274-.244l-.301-2.539a.272.272 0 0 1 .023-.146l-.023-.2a.277.277 0 0 1 .273-.31l6.425-.008c.134 0 .249.096.272.229l.447 2.54a.278.278 0 0 1-.029.18l.03.166c.03.17-.1.325-.272.325l-6.57.007zm-9.982.012a.277.277 0 0 1-.276-.267l-.096-2.537.01-.08-.01-.267a.276.276 0 0 1 .275-.287l6.43-.008c.141 0 .26.108.275.25l.242 2.539a.279.279 0 0 1-.02.131l.02.215a.276.276 0 0 1-.274.303l-6.576.008zm-9.98.01a.276.276 0 0 1-.276-.288l.011-.26-.01-.086.108-2.537a.276.276 0 0 1 .276-.264l6.43-.009c.15 0 .273.122.276.273l.037 2.537-.004.051.004.296a.277.277 0 0 1-.276.28l-6.576.008zm-9.979.012a.276.276 0 0 1-.274-.311l.024-.197a.273.273 0 0 1-.024-.15l.314-2.534a.277.277 0 0 1 .274-.243l6.427-.008c.16 0 .287.135.276.295l-.015.235a.278.278 0 0 1 .015.111l-.168 2.536a.277.277 0 0 1-.275.259l-6.574.007zm12.017-7.146l-.065 2.537a.277.277 0 0 1-.275.27l-6.326.008a.276.276 0 0 1-.275-.3l.018-.223a.275.275 0 0 1-.018-.123l.211-2.536a.276.276 0 0 1 .275-.253l6.18-.01c.155 0 .28.128.275.284l-.007.28.007.066zm9.565 2.155a.278.278 0 0 1-.014.1l.014.246a.277.277 0 0 1-.276.293l-6.326.008a.276.276 0 0 1-.276-.278V3.901l.007-2.537c0-.152.123-.276.275-.276l6.18-.01c.147 0 .268.115.276.262l.14 2.538zm2.555-2.16a.276.276 0 0 1 .018-.12l-.018-.226a.277.277 0 0 1 .275-.298l6.177-.01c.138 0 .255.102.274.24l.345 2.54a.276.276 0 0 1-.026.156l.026.19a.277.277 0 0 1-.273.314l-6.324.008a.277.277 0 0 1-.275-.255l-.199-2.539zM29.056 3.883l.416-2.534a.277.277 0 0 1 .272-.232l6.175-.01c.165 0 .292.143.275.307l-.022.208a.274.274 0 0 1 .022.138l-.27 2.535a.277.277 0 0 1-.274.248l-6.322.008c-.17 0-.3-.153-.272-.322l.028-.172a.273.273 0 0 1-.028-.174zM23.358 8.2l.52-2.533a.277.277 0 0 1 .27-.222l6.421-.008c.168 0 .298.15.273.318l-.027.182a.274.274 0 0 1 .027.164l-.372 2.534a.276.276 0 0 1-.274.237l-6.568.007a.276.276 0 0 1-.27-.332l.032-.154a.274.274 0 0 1-.032-.193zm11.913 2.208l-.27 2.536a.276.276 0 0 1-.274.247l-6.821.006c-.171 0-.3-.153-.273-.322l.028-.172a.275.275 0 0 1-.028-.174l.417-2.534a.277.277 0 0 1 .272-.233l6.675-.006c.164 0 .292.142.274.306l-.021.208a.275.275 0 0 1 .021.138zm10.129-.033l-.066 2.537a.276.276 0 0 1-.275.27l-6.826.006a.276.276 0 0 1-.275-.3l.018-.223a.274.274 0 0 1-.018-.123l.212-2.536a.276.276 0 0 1 .274-.254l6.68-.007c.155 0 .28.128.276.284l-.007.28.007.066zm10.264 2.505a.276.276 0 0 1-.275.292l-6.827.006a.277.277 0 0 1-.276-.277l.001-.337-.001-.009.007-2.537c0-.153.124-.276.275-.276l6.68-.008c.147 0 .268.115.276.262l.14 2.538a.27.27 0 0 1-.013.1l.013.246zm10.326-.031a.277.277 0 0 1-.273.314l-6.823.006a.277.277 0 0 1-.276-.256l-.198-2.538a.275.275 0 0 1 .017-.12l-.017-.226a.276.276 0 0 1 .274-.298l6.678-.007c.138 0 .255.102.273.24l.345 2.538a.272.272 0 0 1-.025.157l.025.19zm10.323-.03a.277.277 0 0 1-.27.335l-6.816.006a.277.277 0 0 1-.273-.233l-.404-2.54a.275.275 0 0 1 .028-.171l-.028-.175a.276.276 0 0 1 .272-.321l6.67-.007c.13 0 .243.09.271.218l.55 2.541c.016.07.001.14-.032.197l.032.15zm4.047-4.35a.277.277 0 0 1-.268.347l-6.562.007a.276.276 0 0 1-.27-.222l-.507-2.54a.273.273 0 0 1 .03-.19l-.03-.157a.277.277 0 0 1 .27-.331l6.416-.009c.126 0 .236.086.267.208l.654 2.542a.272.272 0 0 1-.034.214l.034.132zm14.95-.045a.277.277 0 0 1-.257.375l-3.707.004-4.107.005-3.897.004a.275.275 0 0 1-.266-.202l-.709-2.542a.275.275 0 0 1 .035-.222l-.035-.124a.277.277 0 0 1 .266-.351l3.64-.005 4.005-.005 3.814-.005c.114 0 .217.07.258.178l.96 2.544a.274.274 0 0 1-.032.258l.033.088zm-9.267-6.687a.273.273 0 0 1 .034-.238l-.034-.108a.276.276 0 0 1 .262-.361l6.147-.01c.115 0 .218.071.26.179l.96 2.544A.274.274 0 0 1 93.64 4l.033.088a.277.277 0 0 1-.257.375l-6.294.01a.277.277 0 0 1-.264-.193l-.814-2.543zm-9.437-.005a.273.273 0 0 1 .033-.207l-.033-.14a.277.277 0 0 1 .268-.341l6.16-.01c.123 0 .23.08.265.198l.756 2.542a.273.273 0 0 1-.034.23l.034.117a.277.277 0 0 1-.264.355l-6.307.009a.277.277 0 0 1-.269-.212l-.609-2.541zm27.633 17.063L96.531.236 6.758.38.024 18.863l104.215-.067z"/>
        <path id="d" d="M.293 2.695h6.01L10.9.11H.293z"/>
        <path id="f" d="M1.296.418l.436-.245H.314c.293.156.627.245.982.245z"/>
        <path id="h" d="M2.313.234c-1.199 0-2.18 1.264-2.18 2.81v62.244h53.81V7.24l.018-.031V2.537A2.306 2.306 0 0 1 56.257.234H2.313z"/>
        <path id="i" d="M16.087 8.313c0 4.392-3.549 7.952-7.927 7.952S.233 12.705.233 8.313C.233 3.92 3.783.36 8.16.36c4.378 0 7.927 3.56 7.927 7.953"/>
        <path id="k" d="M1.115.334a10.07 10.07 0 0 0 3.59 2.085c.072.082.131.18.167.298.12.39-.044.876-.274.944-.263.078-.48-.425-.765-.354-.26.065-.447.58-.333.983.141.503.723.741.98.846.523.214.982.187 1 .334.014.119-.277.172-.274.296.005.234 1.07.655 1.783.255.466-.26.363-.634.746-.786.518-.208.826.432 2.176.944.765.29 1.213.292 1.392.688.143.317-.104.498.04.866.246.633.852.607 1.293 1.14.61.735.467 2.001.04 2.832-.056.108-.161.311-.33.53A14.094 14.094 0 0 1 .267 8.07 14.377 14.377 0 0 1 .07 5.7C.069 3.8.441 1.99 1.115.334"/>
        <path id="m" d="M9.935.364c.06.218-.398.61-1.314 1.397-1.286 1.104-1.95 1.412-1.98 2.065-.02.417.24.524.157 1.023-.096.575-.506.836-.373 1.121.083.176.336.285.471.217.221-.112-.007-.63.235-.866.244-.239.852-.077 1.235.158.95.58 1.446 2.171.824 3.009-.283.381-.866.697-1.274.511-.473-.215-.509-1.006-.51-1.062-.019-.579.295-.924.176-1.023-.114-.094-.534.114-.764.453-.322.473-.32 1.27.078 1.73.524.605 1.392.236 1.745.866.14.25.043.376.274.826l.042.077a10.096 10.096 0 0 1-4.887-.113c.05-.267.242-.534.12-.869-.09-.25-.341-.492-.647-.511-.35-.022-.719.255-.725.511-.007.3.484.39.774.725a10.07 10.07 0 0 1-3.59-2.085C1.682 4.392 5.246 1.233 9.624.12c.173.064.282.146.31.244"/>
        <path id="o" d="M4.879 11.28c-.223-.348 0-.718-.236-.884-.17-.12-.387.002-1.117.236-.703.225-1.058.335-1.177.236-.278-.233.079-1.172.471-1.77.194-.298.824-1.26 1.647-1.24.453.012.659.312.882.177.308-.185.203-.924.06-1.357-.03-.086-.39-1.137-.942-1.12-.435.012-.755.682-.823.825-.138.288-.155.51-.417 1.1-.137.31-.177.35-.23.375-.411.194-1.46-.633-1.412-1.356.025-.38.336-.478.294-.827-.054-.447-.62-.726-.824-.826a2.624 2.624 0 0 0-.844-.246c.159-.416.29-.844.394-1.284.386-.268.672-.39.98-.299.35.104.66.462.706.826.055.448-.319.68-.177.944.136.251.594.258.82.227.124-.018.424-.06.474-.227.075-.25-.507-.48-.47-.767.045-.353.964-.306 1.117-.649.143-.318-.393-.962-2.587-2.596C1.134.53.968.337.903.188a14.141 14.141 0 0 1 6.402 3.795c.129.77.197 1.563.197 2.37 0 1.923-.382 3.756-1.072 5.429-.733-.318-1.276-.07-1.551-.501"/>
        <path id="q" d="M2.614.6c.044.35-.629.439-.72.87-.064.298.207.404.47 1.018.157.366.447 1.043.147 1.49-.208.309-.683.483-.985.339-.346-.165-.17-.606-.515-.944-.195-.19-.442-.235-.699-.238A10.15 10.15 0 0 0 2.277.158c.24.176.32.31.337.441"/>
        <path id="s" d="M.926 3.675C.71 3.438.937 3.339.66 2.598c-.082-.22-.232-.559-.485-1.21C.09 1.17.013.965.088.902c.104-.09.374.217.69.147.211-.046.304-.23.412-.354.555-.64 2.095-.416 2.941.207h.002A10.15 10.15 0 0 1 2.168 3.88c-.456-.005-.946.121-1.242-.205"/>
    </defs>
    <g fill="none" fill-rule="evenodd">
        <path fill="#E4EFF9" d="M24.085 105.706h67.808v12.449H24.085z"/>
        <path fill="#CDC7CE" d="M94.471 92.709l-1.312-.771s.095-.287.255-.783c.526.078 1.052.159 1.57.24-.165.437-.336.874-.513 1.314"/>
        <path fill="#FFFFFE" d="M.242 77.043c0-1.087.88-1.97 1.964-1.97s1.963.883 1.963 1.97c0 1.088-.879 1.97-1.963 1.97a1.967 1.967 0 0 1-1.964-1.97"/>
        <path fill="#548DB6" d="M98.41 24.77l-.153.228h.153v-.227"/>
        <path fill="#146EB4" d="M111.96 84.579c.01.05.031.11.059.174V25.4c0-2.504-2.043-4.553-4.54-4.553h-4.478v4.151h3.207v57.213H20.632V24.998h14.57v-4.151H20.417c-2.496 0-4.538 2.049-4.538 4.553v59.764c.074-.16.165-.316.276-.427l95.805-.158"/>
        <path fill="#35528C" d="M98.41 25.067v-.069h-.153l-.013.02v13.93a2.309 2.309 0 0 1-1.746 2.233l.009.07H89.03V36.95l-.019.015v45.204h-53.81v-57.17h-14.57v57.213h85.576V24.998h-3.207v.069H98.41"/>
        <g transform="translate(20.597 24.699)">
            <mask id="b" fill="#fff">
                <use xlink:href="#a"/>
            </mask>
            <path fill="#E4EFF9" d="M.036 57.512H85.61V.3H.036z" mask="url(#b)"/>
        </g>
        <path fill="#E4EFF9" d="M108.964 86.362l7.708 18.559-104.216.067 6.735-18.483 89.773-.143zm-22.131 30.855l-43.896.006c-1.991 0-3.513-.613-3.4-1.371l1.108-7.384c.093-.623 1.185-1.149 2.599-1.318a8.152 8.152 0 0 1 1.031-.065l11.015-.007.015.009 29.747-.017h.18c.984 0 1.903.172 2.572.448h-.181c.592.244.988.569 1.06.925l1.48 7.398c.152.76-1.339 1.376-3.33 1.376zm-83.43 1.38l46.03-.004a.455.455 0 0 1 .043-.907h28.122a.455.455 0 0 1 .069.904l48.735-.005a.556.556 0 0 0 .507-.785l-14.443-32.2c-.073-.165-.325-.557-.447-.847a.969.969 0 0 1-.06-.174l-95.804.158c-.11.11-.202.266-.276.427-.113.24-.189.49-.239.616L2.888 117.834a.559.559 0 0 0 .515.764z"/>
        <path fill="#95BDCF" d="M111.021 102.876a.277.277 0 0 1-.033.258l.033.088a.277.277 0 0 1-.258.375l-7.044.005a.275.275 0 0 1-.262-.192l-.815-2.543a.275.275 0 0 1 .034-.238l-.034-.108a.277.277 0 0 1 .262-.362l6.898-.005c.115 0 .217.07.258.178l.961 2.544zm-10.667.372a.277.277 0 0 1-.264.356l-7.057.005a.276.276 0 0 1-.269-.212l-.609-2.541a.274.274 0 0 1 .034-.207l-.034-.139a.277.277 0 0 1 .268-.342l6.91-.006c.123 0 .23.08.265.198l.756 2.542a.273.273 0 0 1-.034.23l.034.116zm-8.629-4.183l-.609-2.542a.276.276 0 0 1 .033-.207l-.033-.139a.277.277 0 0 1 .268-.342l5.766-.006 1.1-.001 9.913-.01c.115 0 .218.071.258.179l.962 2.543a.276.276 0 0 1-.034.258l.034.088a.277.277 0 0 1-.258.375l-9.954.01h-1.127l-6.05.005a.276.276 0 0 1-.269-.211zm-2.04 4.21a.277.277 0 0 1-.27.337l-7.303.005-3.057.002-7.645.005-3.058.003-7.645.005-3.058.002-7.645.006-10.377.007c-.17 0-.3-.154-.273-.322l.028-.172a.274.274 0 0 1-.028-.174l.417-2.535a.277.277 0 0 1 .272-.232l10.219-.008 7.466-.007 2.987-.002 7.466-.006 2.987-.003 7.466-.006 2.987-.003 7.243-.006c.13 0 .243.091.27.218l.55 2.541a.273.273 0 0 1-.032.197l.032.149zm-52.112-6.708l-.476 2.534a.276.276 0 0 1-.271.225l-6.07.006-1.097.001-9.97.009a.277.277 0 0 1-.264-.363l.035-.106a.274.274 0 0 1-.035-.24l.828-2.532a.275.275 0 0 1 .262-.19l9.903-.011 1.07-.001 5.813-.007c.173 0 .303.158.272.329l-.03.16c.03.055.042.12.03.186zm-.812 4.323l-.475 2.534a.276.276 0 0 1-.272.225l-7.063.005a.277.277 0 0 1-.269-.343l.034-.137a.277.277 0 0 1-.034-.21l.623-2.532a.276.276 0 0 1 .268-.21l6.917-.006c.173 0 .303.157.271.327l-.03.162c.03.054.043.118.03.185zm-10.485.03l-.68 2.532a.276.276 0 0 1-.267.205l-7.052.005a.277.277 0 0 1-.263-.363l.034-.105a.278.278 0 0 1-.034-.242l.827-2.532a.276.276 0 0 1 .262-.19l6.906-.006c.182 0 .314.173.267.35l-.034.126c.039.063.055.14.034.22zm3.484-12.964l-.68 2.533a.275.275 0 0 1-.267.204l-6.302.009a.276.276 0 0 1-.262-.363l.034-.105a.273.273 0 0 1-.034-.24l.827-2.533a.277.277 0 0 1 .262-.19l6.155-.01c.182 0 .314.173.267.35l-.034.127c.039.062.055.14.034.218zm3.997 4.304l-.572 2.533a.276.276 0 0 1-.269.216l-3.92.004-4.139.005-3.757.004a.277.277 0 0 1-.263-.363l.035-.105a.274.274 0 0 1-.035-.241l.827-2.532a.277.277 0 0 1 .262-.19l3.836-.005 4.036-.006 3.69-.004c.177 0 .309.164.27.338l-.034.145c.035.058.05.128.033.201zm5.438-4.685l-.03.161c.03.054.043.119.03.185l-.475 2.534a.276.276 0 0 1-.271.225l-6.314.01a.277.277 0 0 1-.268-.344l.033-.137a.276.276 0 0 1-.033-.21l.622-2.532a.276.276 0 0 1 .268-.21l6.166-.01c.174 0 .304.158.272.328zm47.673 2.359a.274.274 0 0 1-.032.197l.032.149a.277.277 0 0 1-.269.336l-6.317.008a.277.277 0 0 1-.273-.233l-.404-2.54a.275.275 0 0 1 .028-.17l-.028-.176a.276.276 0 0 1 .272-.32l6.17-.01c.13 0 .243.09.27.218l.551 2.54zm-10.89 5.027a.277.277 0 0 1-.274-.245l-.3-2.539a.272.272 0 0 1 .023-.146l-.024-.2a.277.277 0 0 1 .274-.31l6.424-.007c.134 0 .25.096.272.228l.448 2.54a.278.278 0 0 1-.03.18l.03.166c.03.17-.1.325-.271.325l-6.571.008zm-9.981.011a.277.277 0 0 1-.276-.266l-.096-2.538.01-.08-.01-.267a.276.276 0 0 1 .275-.287l6.43-.008c.141 0 .26.108.274.25l.243 2.539a.279.279 0 0 1-.02.131l.02.215a.276.276 0 0 1-.275.303l-6.575.008zm-9.98.01a.276.276 0 0 1-.276-.288l.01-.26-.01-.086.109-2.537a.277.277 0 0 1 .275-.264l6.43-.008c.151 0 .274.12.277.272l.037 2.538-.004.05.004.296a.277.277 0 0 1-.276.28l-6.577.008zm-9.98.012a.276.276 0 0 1-.273-.311l.024-.197a.277.277 0 0 1-.024-.149l.314-2.535a.277.277 0 0 1 .274-.243l6.427-.008c.16 0 .287.135.276.295l-.016.235a.278.278 0 0 1 .016.111l-.168 2.536a.277.277 0 0 1-.275.259l-6.574.007zm12.018-7.146l-.065 2.537a.277.277 0 0 1-.276.27l-6.325.008a.276.276 0 0 1-.276-.3l.019-.222a.275.275 0 0 1-.019-.124l.212-2.535a.276.276 0 0 1 .274-.254l6.18-.01c.155 0 .28.128.276.284l-.007.28.007.066zm9.564 2.155a.27.27 0 0 1-.013.1l.013.246a.277.277 0 0 1-.275.293l-6.326.008a.276.276 0 0 1-.277-.277l.001-.337v-.01l.006-2.537c0-.152.124-.276.276-.276l6.18-.01c.146 0 .267.115.275.262l.14 2.538zm2.556-2.16a.277.277 0 0 1 .018-.12l-.018-.225a.277.277 0 0 1 .274-.3l6.177-.008c.139 0 .255.102.274.239l.346 2.54a.276.276 0 0 1-.026.156l.026.19a.277.277 0 0 1-.274.314l-6.323.008a.277.277 0 0 1-.276-.255l-.198-2.538zm-28.687 2.165l.417-2.534a.277.277 0 0 1 .272-.232l6.175-.01c.164 0 .292.143.275.307l-.022.207c.018.043.027.09.022.14l-.27 2.534a.277.277 0 0 1-.275.248l-6.321.008c-.17 0-.3-.153-.273-.322l.028-.172a.273.273 0 0 1-.028-.174zm-5.697 4.318l.52-2.533a.277.277 0 0 1 .27-.221l6.42-.009c.17 0 .299.15.274.318l-.027.182a.274.274 0 0 1 .027.164l-.373 2.534a.276.276 0 0 1-.273.237l-6.568.008a.277.277 0 0 1-.27-.333l.031-.154a.274.274 0 0 1-.031-.193zm11.913 2.209l-.27 2.535a.277.277 0 0 1-.274.247l-6.822.006c-.17 0-.3-.153-.272-.322l.028-.172a.275.275 0 0 1-.028-.174l.416-2.534a.276.276 0 0 1 .273-.232l6.674-.007c.164 0 .293.143.275.306l-.022.208a.275.275 0 0 1 .022.139zm10.128-.034l-.065 2.537a.276.276 0 0 1-.276.27l-6.825.006a.276.276 0 0 1-.276-.3l.019-.223a.274.274 0 0 1-.019-.123l.212-2.536a.276.276 0 0 1 .275-.254l6.68-.006c.155 0 .28.127.275.283l-.007.28.007.066zm10.265 2.506a.276.276 0 0 1-.275.291l-6.827.006a.277.277 0 0 1-.276-.277V98.681l.006-2.537c0-.153.124-.276.276-.276l6.68-.008c.147 0 .268.115.276.262l.14 2.538a.269.269 0 0 1-.014.1l.014.247zm10.326-.032a.277.277 0 0 1-.273.314l-6.823.006a.277.277 0 0 1-.276-.255l-.199-2.539a.275.275 0 0 1 .018-.12l-.018-.226a.276.276 0 0 1 .275-.298l6.677-.007c.138 0 .255.102.274.24l.345 2.539a.276.276 0 0 1-.026.156l.026.19zm10.323-.03a.277.277 0 0 1-.27.335l-6.817.006a.277.277 0 0 1-.273-.233l-.403-2.54a.275.275 0 0 1 .028-.171l-.028-.175a.276.276 0 0 1 .272-.32l6.67-.008c.13 0 .243.091.27.218l.55 2.541c.017.07.002.14-.031.197l.032.15zm4.046-4.349a.277.277 0 0 1-.266.346l-6.563.007a.276.276 0 0 1-.271-.222l-.507-2.54a.273.273 0 0 1 .032-.19l-.032-.157a.277.277 0 0 1 .27-.33l6.417-.01c.126 0 .236.086.267.209l.653 2.54a.272.272 0 0 1-.034.215l.034.132zm14.952-.046a.277.277 0 0 1-.258.376l-3.707.003-4.107.005-3.898.005a.275.275 0 0 1-.265-.203l-.71-2.542a.275.275 0 0 1 .035-.222l-.034-.124a.277.277 0 0 1 .265-.351l3.641-.005 4.005-.005 3.813-.005c.115 0 .218.071.258.179l.962 2.543a.275.275 0 0 1-.033.258l.033.088zm-9.268-6.687a.273.273 0 0 1 .034-.238l-.034-.108a.276.276 0 0 1 .262-.361l6.147-.01c.115 0 .218.071.259.179l.96 2.544a.274.274 0 0 1-.032.257l.033.088a.277.277 0 0 1-.258.376l-6.294.009a.277.277 0 0 1-.263-.193l-.814-2.543zm-9.437-.005a.273.273 0 0 1 .033-.207l-.033-.14a.277.277 0 0 1 .268-.34l6.16-.01c.122 0 .23.08.265.198l.756 2.541a.273.273 0 0 1-.035.23l.035.117a.277.277 0 0 1-.264.356l-6.307.008a.276.276 0 0 1-.269-.212l-.61-2.541zm-76.583 17.13l104.216-.067-7.708-18.56-89.773.144-6.735 18.483z"/>
        <use fill="#FAFAFA" transform="translate(12.433 86.125)" xlink:href="#c"/>
        <path fill="#BBD8E7" d="M25.329 103.31l-7.052.006a.274.274 0 0 1-.229-.122l-.034.105a.277.277 0 0 0 .263.363l7.052-.005a.276.276 0 0 0 .266-.205l.68-2.533a.273.273 0 0 0-.033-.219l-.647 2.406a.276.276 0 0 1-.266.204M36.014 103.303l-7.063.005a.273.273 0 0 1-.235-.134l-.034.137a.277.277 0 0 0 .269.343l7.063-.005a.276.276 0 0 0 .272-.225l.475-2.534a.275.275 0 0 0-.03-.185l-.445 2.372a.277.277 0 0 1-.272.226M89.415 103.266l-7.303.005-3.057.002-7.645.005-3.058.002-7.645.006-3.058.002-7.645.005-10.377.008a.276.276 0 0 1-.245-.148l-.028.172a.277.277 0 0 0 .273.322l10.377-.007 7.645-.006 3.058-.002 7.645-.005 3.058-.003 7.645-.005 3.057-.002 7.303-.005a.277.277 0 0 0 .27-.336l-.033-.149a.273.273 0 0 1-.237.139M100.09 103.258l-7.057.005a.276.276 0 0 1-.269-.212l-.575-2.402a.274.274 0 0 0-.034.207l.61 2.541c.03.125.14.212.268.212l7.057-.005a.277.277 0 0 0 .264-.356l-.034-.116a.272.272 0 0 1-.23.126M110.763 103.25l-7.044.006a.275.275 0 0 1-.262-.193l-.78-2.434a.275.275 0 0 0-.035.238l.815 2.543a.275.275 0 0 0 .262.192l7.044-.005a.277.277 0 0 0 .258-.375l-.033-.088a.273.273 0 0 1-.225.117M36.826 98.98l-6.07.006h-1.097l-9.97.01a.273.273 0 0 1-.229-.123l-.035.106a.277.277 0 0 0 .263.363l9.971-.009 1.097-.001 6.07-.006a.276.276 0 0 0 .27-.225l.477-2.534a.274.274 0 0 0-.03-.185l-.446 2.373a.276.276 0 0 1-.271.225M47.16 98.971l-6.822.006a.276.276 0 0 1-.244-.148l-.028.172a.276.276 0 0 0 .272.322l6.822-.006c.14 0 .259-.107.274-.247l.27-2.535a.275.275 0 0 0-.022-.139l-.248 2.328a.277.277 0 0 1-.274.247M57.491 98.961l-6.825.007a.276.276 0 0 1-.257-.177l-.019.223c-.013.162.114.3.276.3l6.825-.006c.15 0 .272-.12.276-.27l.065-2.537-.007-.067-.058 2.258a.276.276 0 0 1-.276.27M67.822 98.952l-6.827.007c-.15 0-.27-.12-.275-.27l-.001.338c0 .153.124.277.276.277l6.827-.006a.276.276 0 0 0 .275-.291l-.014-.247a.276.276 0 0 1-.261.192M78.15 98.943l-6.823.006a.277.277 0 0 1-.276-.255l-.18-2.312a.275.275 0 0 0-.019.12l.199 2.538a.277.277 0 0 0 .276.255l6.823-.006a.277.277 0 0 0 .273-.314l-.026-.19a.275.275 0 0 1-.247.158M88.476 98.934l-6.817.006a.277.277 0 0 1-.273-.234l-.375-2.364a.275.275 0 0 0-.028.17l.403 2.54a.277.277 0 0 0 .273.234l6.817-.006a.277.277 0 0 0 .27-.336l-.032-.149a.274.274 0 0 1-.238.139M99.171 99.27l9.954-.009a.277.277 0 0 0 .258-.375l-.034-.088a.273.273 0 0 1-.224.117l-9.954.009-1.127.001-6.05.005a.276.276 0 0 1-.269-.212l-.576-2.402a.276.276 0 0 0-.033.207l.61 2.542c.03.124.14.212.268.211l6.05-.005h1.127M32.916 94.663l-3.92.004-4.139.005-3.757.004a.273.273 0 0 1-.228-.122l-.035.105a.277.277 0 0 0 .263.363l3.757-.004 4.14-.005 3.92-.004c.127 0 .24-.09.268-.216l.572-2.533a.274.274 0 0 0-.033-.201l-.54 2.388a.276.276 0 0 1-.268.216M36.061 95.006l6.568-.008c.137 0 .253-.1.273-.237l.373-2.534a.274.274 0 0 0-.027-.164l-.346 2.353a.276.276 0 0 1-.273.236l-6.568.007a.274.274 0 0 1-.239-.14l-.031.154a.277.277 0 0 0 .27.333M52.887 94.728l.168-2.536a.278.278 0 0 0-.016-.111l-.152 2.301a.277.277 0 0 1-.275.259l-6.574.007a.275.275 0 0 1-.25-.162l-.024.197a.276.276 0 0 0 .274.311l6.574-.007a.277.277 0 0 0 .275-.259M62.87 94.695l-.005-.296a.276.276 0 0 1-.272.23l-6.577.008a.274.274 0 0 1-.264-.203l-.011.26a.276.276 0 0 0 .275.289l6.577-.008a.277.277 0 0 0 .276-.28M72.847 94.661l-.02-.215a.275.275 0 0 1-.255.172l-6.575.008a.277.277 0 0 1-.276-.267l-.086-2.271-.01.08.096 2.538a.277.277 0 0 0 .276.266l6.575-.008c.163 0 .29-.14.275-.303M82.821 94.628l-.03-.166a.276.276 0 0 1-.241.145l-6.571.008a.277.277 0 0 1-.275-.245l-.277-2.339a.272.272 0 0 0-.024.146l.301 2.54c.017.139.135.244.275.244l6.57-.008a.277.277 0 0 0 .272-.325M92.526 94.596l-6.563.007a.276.276 0 0 1-.271-.222l-.475-2.385a.273.273 0 0 0-.032.19l.507 2.54c.026.13.139.224.27.223l6.564-.007c.18 0 .311-.17.266-.346l-.034-.132a.273.273 0 0 1-.232.132M107.486 94.58l-3.707.003-4.107.005-3.898.004a.275.275 0 0 1-.265-.202l-.675-2.418a.275.275 0 0 0-.034.222l.709 2.542c.033.12.141.203.265.203l3.898-.005 4.107-.005 3.707-.003a.277.277 0 0 0 .258-.376l-.033-.088a.273.273 0 0 1-.225.117M29.08 90.143a.276.276 0 0 1-.267.205l-6.302.008a.274.274 0 0 1-.228-.122l-.034.105a.276.276 0 0 0 .262.363l6.302-.009a.275.275 0 0 0 .266-.204l.681-2.533a.276.276 0 0 0-.034-.218l-.647 2.405M38.72 90.109a.276.276 0 0 1-.271.226l-6.314.008a.273.273 0 0 1-.235-.134l-.033.137a.277.277 0 0 0 .268.343l6.314-.009a.276.276 0 0 0 .27-.225l.476-2.534a.275.275 0 0 0-.03-.185l-.445 2.373M41.761 90.676l6.321-.008a.277.277 0 0 0 .274-.248l.271-2.535a.277.277 0 0 0-.022-.139l-.249 2.328a.277.277 0 0 1-.274.248l-6.321.008a.275.275 0 0 1-.245-.148l-.028.172a.277.277 0 0 0 .273.322M57.99 90.039a.277.277 0 0 1-.276.27l-6.325.008a.274.274 0 0 1-.257-.176l-.019.222c-.013.162.113.3.276.3l6.325-.008c.15 0 .272-.12.276-.27l.065-2.537-.007-.067-.058 2.258M67.344 90.295l-6.326.01c-.15 0-.271-.12-.276-.27v.338c-.001.153.123.277.276.277l6.326-.008a.277.277 0 0 0 .275-.293l-.013-.246a.275.275 0 0 1-.262.192M70.373 90.382a.277.277 0 0 0 .276.255l6.323-.008a.277.277 0 0 0 .274-.315l-.026-.189a.275.275 0 0 1-.248.157l-6.323.009a.277.277 0 0 1-.276-.255l-.18-2.313a.277.277 0 0 0-.018.12l.198 2.54M86.6 90.27l-6.318.008a.276.276 0 0 1-.273-.233l-.376-2.365a.275.275 0 0 0-.028.171l.404 2.54a.277.277 0 0 0 .273.233l6.317-.008a.277.277 0 0 0 .27-.336l-.033-.149a.274.274 0 0 1-.237.139M89.917 90.611l6.307-.008a.277.277 0 0 0 .264-.356l-.035-.116a.272.272 0 0 1-.23.126l-6.306.008a.276.276 0 0 1-.269-.212l-.576-2.402a.273.273 0 0 0-.033.207l.61 2.541c.03.124.14.213.268.212M99.553 90.599l6.294-.01a.277.277 0 0 0 .258-.375l-.033-.088a.272.272 0 0 1-.225.118l-6.294.008a.277.277 0 0 1-.263-.192l-.78-2.435a.273.273 0 0 0-.034.238l.814 2.543a.277.277 0 0 0 .263.193"/>
        <path fill="#548DB6" d="M55.402 107.087l29.66-.017h-.01l-29.747.017h.097"/>
        <path fill="#E6E7E8" d="M78.052 118.141a.455.455 0 0 0-.454-.455H49.476a.455.455 0 0 0-.043.907l.043.005h28.122l.069-.008a.455.455 0 0 0 .385-.449"/>
        <path fill="#F58A07" d="M26.009 100.224l-6.906.006a.276.276 0 0 0-.262.19l-.827 2.532a.278.278 0 0 0 .263.364l7.052-.006a.276.276 0 0 0 .266-.204l.68-2.533a.277.277 0 0 0-.266-.349"/>
        <path fill="#146EB4" d="M36.49 100.216l-6.917.005a.276.276 0 0 0-.268.211l-.623 2.533a.277.277 0 0 0 .034.21.273.273 0 0 0 .235.133l7.063-.005a.277.277 0 0 0 .272-.226l.445-2.372.03-.162a.276.276 0 0 0-.271-.327M89.684 102.93l-.55-2.54a.277.277 0 0 0-.27-.219l-7.243.006-2.987.003-7.466.006-2.987.003-7.466.006-2.987.002-7.466.007-10.219.008a.277.277 0 0 0-.272.232l-.417 2.535a.276.276 0 0 0 .273.322l10.377-.008 7.645-.005 3.058-.002 7.645-.006 3.058-.002 7.645-.005 3.057-.002 7.303-.005c.104 0 .19-.057.237-.139a.273.273 0 0 0 .032-.197"/>
        <path fill="#F58A07" d="M100.354 102.902l-.756-2.542a.277.277 0 0 0-.264-.198l-6.91.006a.277.277 0 0 0-.269.342l.034.139.575 2.402c.03.125.141.212.27.212l7.056-.005c.099 0 .181-.051.23-.126a.273.273 0 0 0 .034-.23M109.802 100.154l-6.898.005a.277.277 0 0 0-.262.362l.815 2.542a.275.275 0 0 0 .262.193l7.044-.005a.277.277 0 0 0 .258-.375l-.961-2.544a.276.276 0 0 0-.258-.178"/>
        <path fill="#146EB4" d="M37.3 95.892l-5.812.007h-1.07l-9.903.011a.275.275 0 0 0-.262.19l-.828 2.533a.274.274 0 0 0 .035.24c.049.073.13.123.228.123l9.971-.01h1.097l6.07-.006a.276.276 0 0 0 .27-.225l.446-2.373.03-.161a.277.277 0 0 0-.271-.329M47.43 95.882l-6.675.007a.276.276 0 0 0-.273.232l-.416 2.534a.275.275 0 0 0 .272.322l6.822-.006c.14 0 .259-.107.274-.247l.248-2.328.022-.208a.276.276 0 0 0-.275-.306"/>
        <path fill="#FFC53A" d="M57.556 95.872l-6.68.006a.276.276 0 0 0-.274.254l-.212 2.536a.276.276 0 0 0 .275.3l6.826-.007c.15 0 .272-.12.276-.27l.058-2.257.007-.279a.276.276 0 0 0-.276-.283"/>
        <path fill="#F58A07" d="M67.957 96.122a.276.276 0 0 0-.276-.262l-6.68.008a.276.276 0 0 0-.276.276l-.006 2.537v.009c.005.149.126.269.276.269l6.827-.007a.276.276 0 0 0 .275-.292l-.14-2.538M78.423 98.629l-.345-2.54a.276.276 0 0 0-.274-.24l-6.677.008a.276.276 0 0 0-.275.298l.018.227.18 2.312a.277.277 0 0 0 .277.255l6.823-.006c.11 0 .203-.066.247-.158a.276.276 0 0 0 .026-.156M88.746 98.598l-.55-2.54a.277.277 0 0 0-.27-.219l-6.671.007a.276.276 0 0 0-.272.32l.403 2.54a.277.277 0 0 0 .273.234l6.817-.006c.104 0 .19-.057.238-.139a.272.272 0 0 0 .032-.197"/>
        <path fill="#146EB4" d="M91.994 98.93l6.05-.005 1.127-.001 9.954-.01a.273.273 0 0 0 .224-.116.276.276 0 0 0 .034-.258l-.962-2.543a.275.275 0 0 0-.258-.18l-9.912.011-1.1.001-5.767.006a.277.277 0 0 0-.268.342l.033.14.576 2.401c.03.125.141.213.27.212"/>
        <path fill="#F58A07" d="M33.488 91.576l-3.69.004-4.036.006-3.836.005a.277.277 0 0 0-.262.19l-.827 2.532a.274.274 0 0 0 .035.24c.048.073.13.123.228.123l3.757-.004 4.14-.005 3.92-.004c.127 0 .24-.09.268-.216l.54-2.388.032-.145a.277.277 0 0 0-.269-.338M36.061 94.66l6.568-.008c.137 0 .253-.101.273-.236l.346-2.353.027-.182a.277.277 0 0 0-.273-.318l-6.422.009a.277.277 0 0 0-.27.221l-.52 2.533c-.014.07 0 .137.032.193.048.083.135.14.24.14"/>
        <path fill="#FFC53A" d="M46.038 94.648l6.574-.007a.277.277 0 0 0 .275-.259l.168-2.536a.276.276 0 0 0-.276-.295l-6.427.008a.277.277 0 0 0-.274.243l-.314 2.535a.277.277 0 0 0 .024.15.275.275 0 0 0 .25.161M56.016 94.637l6.577-.007c.137 0 .25-.1.272-.23l.004-.051-.037-2.538a.277.277 0 0 0-.277-.272l-6.43.008a.277.277 0 0 0-.275.264l-.11 2.537.012.086a.274.274 0 0 0 .264.203"/>
        <path fill="#F58A07" d="M65.997 94.626l6.575-.008a.279.279 0 0 0 .274-.303l-.242-2.539a.277.277 0 0 0-.275-.25l-6.429.008a.276.276 0 0 0-.275.287l.096 2.538a.277.277 0 0 0 .276.267"/>
        <path fill="#E6E7E8" d="M75.979 94.615l6.57-.008a.276.276 0 0 0 .272-.325l-.448-2.54a.276.276 0 0 0-.272-.228l-6.424.007a.277.277 0 0 0-.274.31l.301 2.54c.017.139.135.244.275.244"/>
        <path fill="#F58A07" d="M92.792 94.25l-.653-2.541a.275.275 0 0 0-.267-.208l-6.416.008a.277.277 0 0 0-.27.331l.03.156.476 2.385c.026.13.139.222.27.222l6.564-.007c.1 0 .185-.055.232-.132a.272.272 0 0 0 .034-.214"/>
        <path fill="#146EB4" d="M107.744 94.204l-.962-2.543a.276.276 0 0 0-.258-.179l-3.813.005-4.005.005-3.64.005a.277.277 0 0 0-.266.351l.709 2.542c.033.12.141.202.265.202l3.898-.004 4.107-.005 3.707-.004a.273.273 0 0 0 .225-.117.275.275 0 0 0 .033-.258"/>
        <path fill="#F58A07" d="M29.493 87.261l-6.155.01a.277.277 0 0 0-.262.19l-.827 2.532a.273.273 0 0 0 .034.24.274.274 0 0 0 .228.123l6.302-.008a.276.276 0 0 0 .266-.205l.647-2.405.034-.128a.277.277 0 0 0-.267-.349M32.757 87.257a.276.276 0 0 0-.268.21L31.867 90a.276.276 0 0 0 .033.21.273.273 0 0 0 .235.133l6.314-.008a.276.276 0 0 0 .27-.226l.446-2.373.03-.16a.277.277 0 0 0-.272-.329l-6.166.01"/>
        <path fill="#146EB4" d="M41.761 90.33l6.321-.008a.277.277 0 0 0 .274-.248l.249-2.328.022-.207a.277.277 0 0 0-.275-.306l-6.175.009a.277.277 0 0 0-.272.232l-.417 2.534a.273.273 0 0 0 .028.174.275.275 0 0 0 .245.148"/>
        <path fill="#FFC53A" d="M57.779 87.219l-6.18.009a.276.276 0 0 0-.274.254l-.212 2.535a.275.275 0 0 0 .019.124c.04.102.139.176.257.176l6.325-.008c.15 0 .272-.12.276-.27l.058-2.258.007-.279a.276.276 0 0 0-.276-.283M67.203 87.204l-6.18.01a.276.276 0 0 0-.275.275l-.007 2.537.001.01a.276.276 0 0 0 .276.268l6.326-.009a.275.275 0 0 0 .262-.192.27.27 0 0 0 .013-.1l-.14-2.538a.276.276 0 0 0-.276-.261"/>
        <path fill="#F58A07" d="M70.373 90.036a.277.277 0 0 0 .276.255l6.323-.009c.11 0 .204-.065.248-.157a.276.276 0 0 0 .026-.157l-.346-2.54a.276.276 0 0 0-.274-.238l-6.177.009a.277.277 0 0 0-.274.299l.018.225.18 2.313M86.318 87.393a.276.276 0 0 0-.27-.218l-6.17.01a.276.276 0 0 0-.273.32l.404 2.54a.276.276 0 0 0 .273.233l6.317-.008c.103 0 .19-.058.237-.139a.274.274 0 0 0 .032-.197l-.55-2.54"/>
        <path fill="#146EB4" d="M89.648 90.053c.03.124.141.212.269.212l6.307-.008a.272.272 0 0 0 .23-.126.273.273 0 0 0 .034-.23l-.756-2.542a.277.277 0 0 0-.265-.199l-6.16.01a.277.277 0 0 0-.268.342l.61 2.541M99.29 90.06a.277.277 0 0 0 .263.192l6.294-.008a.272.272 0 0 0 .225-.118.274.274 0 0 0 .033-.257l-.961-2.544a.276.276 0 0 0-.259-.179l-6.147.01a.276.276 0 0 0-.262.361l.034.108.78 2.435"/>
        <path fill="#FFF" stroke="#146EB4" stroke-width=".553" d="M91.809 17.167a2.31 2.31 0 0 1 1.813 2.25l.03.23v19.301a2.306 2.306 0 0 0 2.296 2.304 2.309 2.309 0 0 0 2.296-2.303v-13.93l.013-.02.153-.228V2.644a2.306 2.306 0 0 1 2.295-2.302 2.306 2.306 0 0 1 2.296 2.302v.335l.075-.515A2.125 2.125 0 0 0 100.96.342H54.548a2.125 2.125 0 0 0-2.116 2.122v14.65h39.045c.143 0 .25.019.332.053"/>
        <path fill="#BBD8E7" d="M89.03 24.09l-.018.031v12.843l.019-.015V24.09"/>
        <path fill="#548DB6" d="M35.202 24.998h17.23v-4.151h-17.23z"/>
        <path fill="#213B83" d="M42.446 76.675H75.56c.476 0 .862.387.862.865v.216a.864.864 0 0 1-.862.865H42.446a.863.863 0 0 1-.862-.865v-.216c0-.478.386-.865.862-.865zm-.862-3.621c0-.478.386-.866.862-.866H75.56c.476 0 .862.388.862.866v.215a.864.864 0 0 1-.862.865H42.446a.863.863 0 0 1-.862-.865v-.215zm0-4.488c0-.477.386-.864.862-.864H75.56c.476 0 .862.387.862.864v.216a.864.864 0 0 1-.862.865H42.446a.864.864 0 0 1-.862-.865v-.216zm0-4.53c0-.477.386-.865.862-.865H75.56c.476 0 .862.388.862.866v.215a.864.864 0 0 1-.862.865H42.446a.863.863 0 0 1-.862-.865v-.215zm0-4.487c0-.477.386-.864.862-.864H75.56c.476 0 .862.387.862.864v.216a.864.864 0 0 1-.862.865H42.446a.863.863 0 0 1-.862-.865v-.216zM82.36 71.714c1.547 0 2.28 1.19 2.28 2.603 0 1.265-.4 2.176-1.057 2.79-.575.52-1.372.8-2.308.837-.232.018-.482.009-.64 0v-1.098c.186.019.334.01.612 0 .436-.027.871-.148 1.187-.372.398-.269.658-.669.76-1.124l-.019-.01c-.268.28-.667.437-1.214.437-1.02 0-1.872-.706-1.872-1.887 0-1.18.945-2.176 2.27-2.176zm-1.196-7.738c.593-.549 1.381-.837 2.317-.883.26-.028.435-.019.565-.01v1.088a3.91 3.91 0 0 0-.546.019c-1.252.102-1.808.743-1.965 1.44h.027c.297-.297.723-.473 1.28-.473 1.01 0 1.862.716 1.862 1.97 0 1.2-.917 2.186-2.215 2.186-1.612 0-2.4-1.2-2.4-2.64 0-1.135.417-2.084 1.075-2.697zm-.704-4.717c.259.13.806.298 1.353.298.584 0 1.205-.279 1.205-.92 0-.624-.492-1.005-1.696-1.005-.334 0-.566.019-.807.056l.39-3.17h3.317v1.162h-2.335l-.13.93c.13-.02.241-.02.39-.02.574 0 1.167.131 1.584.438.454.306.732.809.732 1.515 0 1.126-.963 2.12-2.585 2.12-.733 0-1.344-.168-1.678-.344l.26-1.06zm8.551 22.91V36.963c-.24.214-.422.333-.525.333l-2.858 1.607v12.709H63.038l-4.595 2.584H75.56c.476 0 .862.388.862.866v.215a.864.864 0 0 1-.862.865H54.984l-.436.245a2.09 2.09 0 0 1-.982-.245h-11.12a.864.864 0 0 1-.862-.865v-.215c0-.478.386-.866.862-.866h9.986v-2.584H41.584V27.057h10.848v-2.059h-17.23v57.17h53.81z"/>
        <path fill="#146EB4" d="M77.667 117.705l-.07.013H3.92c-.314 0-.879.067-.886-.452-.174.648-.236 1.135-.186 1.46.074.49.24.979.555.979l123-.021c.336 0 .723-.411.723-1.084 0-.449-.221-1.041-.665-1.778.222.444.242.874-.059.874l-48.735.009z"/>
        <path fill="#213B83" d="M82.342 74.773c.39 0 .658-.177.788-.39.046-.093.065-.186.065-.363.009-.641-.232-1.274-.89-1.274-.473 0-.816.428-.816 1.06 0 .521.288.967.853.967M82.472 68.271c.49 0 .806-.455.806-1.069 0-.558-.297-1.041-.899-1.041a.902.902 0 0 0-.825.53c-.046.083-.065.195-.065.362.028.642.334 1.218.983 1.218"/>
        <path fill="#BBD8E7" d="M52.432 24.998v2.06H85.63v11.846l2.858-1.607c.103 0 .284-.119.525-.333V24.121l.019-.03v-4.674a2.306 2.306 0 0 1 2.295-2.303c.165 0 .327.02.483.053a.858.858 0 0 0-.332-.053H52.432v7.884M52.432 54.197h6.01l4.596-2.584H52.432v2.584"/>
        <g transform="translate(52.14 51.503)">
            <mask id="e" fill="#fff">
                <use xlink:href="#d"/>
            </mask>
            <path fill="#E3F2F7" d="M.293 2.695h1.044V.11H.293z" mask="url(#e)"/>
            <path fill="#E4F3F8" d="M1.337 2.695h1.131V.11H1.337z" mask="url(#e)"/>
            <path fill="#E5F3F7" d="M2.468 2.695H3.6V.11H2.47z" mask="url(#e)"/>
            <path fill="#E6F4F8" d="M3.6 2.695h1.13V.11H3.6z" mask="url(#e)"/>
            <path fill="#E8F4F8" d="M4.73 2.695h1.131V.11h-1.13z" mask="url(#e)"/>
            <path fill="#E9F4F8" d="M5.861 2.695h1.131V.11H5.861z" mask="url(#e)"/>
            <path fill="#EAF5F9" d="M6.992 2.695h1.132V.11H6.992z" mask="url(#e)"/>
            <path fill="#EBF5F9" d="M8.124 2.695h1.13V.11h-1.13z" mask="url(#e)"/>
            <path fill="#EBF6F9" d="M9.255 2.695h1.13V.11h-1.13z" mask="url(#e)"/>
            <path fill="#EEF7F9" d="M10.386 2.695h.513V.11h-.513z" mask="url(#e)"/>
        </g>
        <path fill="#BBD8E7" d="M54.548 56.388l.436-.245h-1.418c.294.156.628.245.982.245"/>
        <g transform="translate(53.253 55.97)">
            <mask id="g" fill="#fff">
                <use xlink:href="#f"/>
            </mask>
            <path fill="#E4F3F8" d="M.314.418h1.04V.173H.315z" mask="url(#g)"/>
            <path fill="#E5F3F7" d="M1.355.418h.378V.173h-.378z" mask="url(#g)"/>
        </g>
        <path fill="#0E4E80" d="M89.03 36.949v4.303h7.477l-.01-.07c-.176.044-.36.07-.55.07a2.306 2.306 0 0 1-2.295-2.304V19.647l-.03-.23a2.31 2.31 0 0 0-2.296-2.303 2.306 2.306 0 0 0-2.295 2.303V36.95M100.705.342a2.306 2.306 0 0 0-2.295 2.302v22.423H103V2.644a2.306 2.306 0 0 0-2.296-2.302"/>
        <use fill="#FFF" stroke="#146EB4" stroke-width=".553" transform="translate(35.07 16.88)" xlink:href="#h"/>
        <path fill="#3B6FA9" d="M91.478 17.114h-.152c.166 0 .328.02.484.053a.863.863 0 0 0-.332-.053"/>
        <path fill="#BBD8E7" d="M54.88 30.79c0 4.399-3.555 7.964-7.94 7.964S39 35.19 39 30.79c0-4.398 3.555-7.964 7.94-7.964s7.94 3.566 7.94 7.964"/>
        <g transform="translate(38.78 22.465)">
            <mask id="j" fill="#fff">
                <use xlink:href="#i"/>
            </mask>
            <use fill="#FFC53A" xlink:href="#i"/>
            <path fill="#F58A07" d="M2.61 33.037s2.553-1.05 5.607-1.26c3.055-.21 5.188 0 5.188 0s.653-16.184-.142-16.908c-.795-.724.418-1.42-1.502-2.6-1.164-.714-4.59-1.017-5.426-.556-.837.462-3.4 2.012-3.4 2.012L2.61 33.037" mask="url(#j)"/>
            <path fill="#F58A07" d="M5.196 12.371s-3.705 1.932-4.27 3.192c-.565 1.259-1.948 4.171-2.385 7.996-.215 1.88.502 14.985 3.138 15.11 2.636.127.182-2.893-.188-6.862-.094-1.005-.252-9.13.69-11.333.941-2.204 3.015-8.103 3.015-8.103M11.963 12.405c-2.062-.93-.72 3.197-.749 4.318-.027 1.12 1.898 7.567 2.117 8.653.219 1.086 3.336 7.928 4.01 9.067.213.36 1.495 2.66 2.932 1.382 1.437-1.276-1.996-5.903-3.412-9.483-1.415-3.58-2.097-6.984-2.329-8.52-.231-1.535-1.407-4.892-2.57-5.417" mask="url(#j)"/>
            <path fill="#FFFFFE" d="M8.274 13.878a2.253 2.253 0 0 1-2.23-1.953l-.528-3.897h5.419l-.423 3.841a2.254 2.254 0 0 1-2.238 2.01" mask="url(#j)"/>
            <path fill="#FFFFFE" d="M11.761 4.65a3.542 3.542 0 0 1-3.536 3.548A3.542 3.542 0 0 1 4.69 4.65a3.541 3.541 0 0 1 3.535-3.547 3.541 3.541 0 0 1 3.536 3.547" mask="url(#j)"/>
            <path fill="#FFFFFE" d="M11.761 4.748c0 1.959-1.583 6.827-3.536 6.827-1.952 0-3.535-4.868-3.535-6.827 0-1.96 1.583-.268 3.535-.268 1.953 0 3.536-1.691 3.536.268" mask="url(#j)"/>
            <path fill="#25335B" d="M6.049 9.4s.48 2.888 2.132 2.87c1.652-.018 2.221-2.87 2.221-2.87H6.049" mask="url(#j)"/>
            <path fill="#FFFFFE" d="M11.761 4.748c0 1.959-1.583 6.827-3.536 6.827-1.952 0-3.535-4.868-3.535-6.827 0-1.96 1.583-.268 3.535-.268 1.953 0 3.536-1.691 3.536.268" mask="url(#j)"/>
            <path fill="#0E4E80" d="M11.76 4.683l.001-.033a3.541 3.541 0 0 0-3.536-3.547A3.541 3.541 0 0 0 4.69 4.65v.098c0 .319.042.716.12 1.155.513.016 1.102-.471 1.413-1.217.09-.215.149-.432.177-.64.576.167 1.26.264 1.994.264.619 0 1.201-.069 1.714-.19.032.175.084.355.159.535.305.73.875 1.211 1.379 1.217.075-.427.115-.812.115-1.124v-.065" mask="url(#j)"/>
            <path fill="#0E4E80" d="M5.64 8.832c-.508 0-.917-.475-.903-1.052L4.69 4.47l.95.271v4.091" mask="url(#j)"/>
            <path fill="#FFFFFE" d="M5.896 8.05s-.493.123-.52-.43c-.026-.553-.005-.91-.248-.819-.244.09-.165 1.446.333 1.776.499.33.461-.058.536.446.074.506.26.07.26.07l.328-.819-.69-.223" mask="url(#j)"/>
            <path fill="#0E4E80" d="M10.811 8.832c.508 0 .917-.475.903-1.052l.047-3.31-.95.271v4.091" mask="url(#j)"/>
            <path fill="#FFFFFE" d="M10.555 8.05s.493.123.52-.43c.026-.553.005-.91.248-.819.244.09.164 1.446-.333 1.776-.499.33-.461-.058-.536.446-.074.506-.26.07-.26.07l-.328-.819.689-.223" mask="url(#j)"/>
            <path fill="#0E4E80" d="M5.166 6.863h.26V4.93s.493.85 1.763.85c1.269 0 1.787-.709 2.092-.992.305-.282.54-.66.964-.66.423 0 .54.378.54.779v2.099h.283s.4-2.595.376-3.279c-.023-.684-.493-2.713-2.375-2.713-1.88 0-1.763.92-3.268 1.227-1.505.307-.635 4.623-.635 4.623M5.472 7.901v3.727s0 1.91 2.516 1.91 2.868-1.297 2.868-1.769V7.878s-.329.118-.329.495-.07.943-.423.943c-.352 0-.306-1.25-1.011-1.25h-1.88s-.471.118-.519.708c-.046.59-.54.637-.54.637s-.4.047-.4-1.038c0 0 .024-.377-.282-.472" mask="url(#j)"/>
        </g>
        <path fill="#F58A07" d="M81.346 28.446H61.204c-.86 0-1.565-.706-1.565-1.57v-.588c0-.863.704-1.57 1.565-1.57h20.142c.86 0 1.564.707 1.564 1.57v.589c0 .863-.704 1.569-1.564 1.569"/>
        <path fill="#72C3FF" d="M81.346 34.331H61.204c-.86 0-1.565-.706-1.565-1.57v-.587c0-.864.704-1.57 1.565-1.57h20.142c.86 0 1.564.706 1.564 1.57v.588c0 .863-.704 1.57-1.564 1.57M38.728 45.023a2.632 2.632 0 0 1 2.627-2.635 2.631 2.631 0 0 1 2.627 2.635 2.631 2.631 0 0 1-2.627 2.636 2.632 2.632 0 0 1-2.627-2.636M38.728 53.52a2.632 2.632 0 0 1 2.627-2.635 2.631 2.631 0 0 1 2.627 2.635 2.631 2.631 0 0 1-2.627 2.636 2.632 2.632 0 0 1-2.627-2.636"/>
        <path fill="#146EB4" d="M38.728 62.017a2.632 2.632 0 0 1 2.627-2.636 2.631 2.631 0 0 1 2.627 2.636 2.631 2.631 0 0 1-2.627 2.636 2.632 2.632 0 0 1-2.627-2.636"/>
        <path fill="#72C3FF" d="M38.728 70.514a2.632 2.632 0 0 1 2.627-2.636 2.631 2.631 0 0 1 2.627 2.636 2.631 2.631 0 0 1-2.627 2.636 2.631 2.631 0 0 1-2.627-2.636"/>
        <path fill="#146EB4" d="M72.056 44.467H47a.859.859 0 0 1-.855-.857v-.05c0-.472.385-.858.855-.858h25.055c.47 0 .855.386.855.857v.05a.859.859 0 0 1-.855.858"/>
        <path fill="#72C3FF" d="M84.274 47.214H47a.859.859 0 0 1-.855-.858v-.05c0-.472.385-.858.855-.858h37.273c.47 0 .855.386.855.858v.05a.859.859 0 0 1-.855.858M72.056 53.187H47a.859.859 0 0 1-.855-.858v-.05c0-.472.385-.858.855-.858h25.055c.47 0 .855.386.855.858v.05a.859.859 0 0 1-.855.858"/>
        <path fill="#146EB4" d="M84.274 55.933H47a.859.859 0 0 1-.855-.857v-.05c0-.472.385-.858.855-.858h37.273c.47 0 .855.386.855.857v.051a.859.859 0 0 1-.855.857"/>
        <path fill="#72C3FF" d="M72.056 61.906H47a.859.859 0 0 1-.855-.857v-.05c0-.472.385-.858.855-.858h25.055c.47 0 .855.386.855.858v.05a.859.859 0 0 1-.855.857M84.274 64.653H47a.859.859 0 0 1-.855-.857v-.051c0-.472.385-.858.855-.858h37.273c.47 0 .855.386.855.858v.05a.859.859 0 0 1-.855.858"/>
        <path fill="#146EB4" d="M72.056 70.626H47a.859.859 0 0 1-.855-.858v-.05c0-.472.385-.857.855-.857h25.055c.47 0 .855.385.855.857v.05a.859.859 0 0 1-.855.858"/>
        <path fill="#72C3FF" d="M84.274 73.373H47a.859.859 0 0 1-.855-.858v-.05c0-.472.385-.858.855-.858h37.273c.47 0 .855.386.855.858v.05a.859.859 0 0 1-.855.858"/>
        <path fill="#0E4E80" d="M114.632 110.03c.077.22.077 1.903.077 1.903s-5.64.147-6.025-.073c-.386-.22-.618-1.245.927-1.464 1.545-.22 3.476-1.098 3.476-1.098l1.545.732M125.4 111.752c.078.22.078 1.903.078 1.903s-5.638.147-6.025-.073c-.386-.22-.618-1.245.927-1.464 1.545-.22 3.476-1.099 3.476-1.099l1.545.733"/>
        <path fill="#0E4E80" d="M113.254 75.193l1.053-4.74 9.953 2.053.002.033c-2.38 1.87-4.641 4.661-5.679 7.514l-.064-.742-3.424 31.817s-2.549-1.245-2.78-1.318c-.232-.073.939-34.617.939-34.617"/>
        <path fill="#146EB4" d="M119.572 72.074l-5.968 2.676 4.919 9.721 4.592 27.128 2.394.073s-.014-28.304-.014-31.363c0-4.741-1.448-6.987-1.448-6.987l-4.475-1.248"/>
        <path fill="#F2C1C0" d="M106.356 67.029s-2.37-.51-2.483-.283c-.113.226.282.566.282.566s-2.088 0-2.2.283c-.113.283 1.918 1.868 3.893 1.642 1.975-.227 3.499-1.416 3.499-1.416l-1.637-.849-1.354.057"/>
        <path fill="#385291" d="M119.465 54.16c-.457.115-2.859 1.472-2.407 2.566.451 1.095-1.806 5.699-1.806 5.699l-7.749 4.226 1.656 1.925s9.742-2.453 10.08-3.698c.339-1.245 2.182-3.434 1.355-7.02-.828-3.585.526-4.113-1.129-3.697"/>
        <path fill="#F2C1C0" d="M120.426 51.865l-1.163-2.484-.338-.79.713-1.58-3.114-1.845-3.49-.15-.524 1.166s.187 5.834 2.213 5.796c2.026-.037 2.439-.15 2.439-.15l.15.715-.45.715s2.1.377 3.226-.188c1.125-.565.338-1.205.338-1.205"/>
        <path fill="#F58A07" d="M116.983 52.99s-1.693 1.246-1.881 1.699c-.188.453-1.75 15.359-1.75 15.359l-.703 5.502 12.296-.266s-2.508-19.727-2.658-19.916c-.151-.189-1.486-3.543-1.75-3.468-.263.076-2.05 1.355-3.554 1.09"/>
        <path fill="#F2C1C0" d="M113.353 70.048s-2.37-.51-2.483-.283c-.113.226.282.566.282.566s-2.088 0-2.2.283c-.114.283 1.918 1.868 3.893 1.641 1.975-.226 3.498-1.415 3.498-1.415l-1.636-.849-1.354.057"/>
        <path fill="#385291" d="M120.18 52.273c-.457.115-1.166 1.095-.715 2.19.451 1.094 2.784 10.98 2.784 10.98l-7.75 4.228 1.656 1.924s9.743-2.453 10.081-3.698c.339-1.246-.15-5.548-.978-9.133-.828-3.585-3.423-6.906-5.078-6.49"/>
        <path fill="#262753" d="M116.147 45.497s-3.693 1.063-3.923.399c-.23-.665-.419-1.898-.419-1.898s2.062-.092 3.161-.538c1.1-.447 4.561-1.607 4.866.862.305 2.47-.038 5.998-.038 5.998l-.767-.253-.076-2.408s-.197-1.345-.848-.927c-.65.418.208 5.719.208 5.719s-2.825 1.51-3.759 1.003c-.934-.507-1.402-3.125-1.402-3.125s1.67-.223 2.149.237c.48.46 1.64-.216 1.64-.216l-.792-4.853"/>
        <path fill="#356FA9" d="M96.199 76.788c.244-.43-1.254-1.401-.902-2.478.19-.58.804-.857.745-1.495-.038-.417-.327-.594-.235-.748.137-.23.873.028 2.078.315 2.115.504 2.575.36 2.784.275.422-.17.721-.461.926-.728 5.058-.694 9.264-4.065 11.153-8.644h.001c1.057.46 1.14 1.5 1.8 1.446 0 0 .075-.006.942-.472.107-.96.245-1.171.353-1.18.302-.027.904 1.466.412 2.065-.17.207-.407.229-.47.472-.085.32.279.466.293.826.023.587-.923.724-1.058 1.475-.093.518.294.796.117 1.062-.212.32-.811-.017-1.53.118-.922.174-1.107.95-2.587 2.479-.507.523-.992 1.023-1.706 1.534-1.66 1.187-2.672 1.082-2.94 1.829-.292.81.41 1.844 1.058 2.36.97.773 2.137.63 2.456.59.176-.022.344-.055.505-.101a14.058 14.058 0 0 1-6.917 1.81c-3.04 0-5.856-.962-8.164-2.599.476.022.796-.052.886-.211"/>
        <path fill="#356FA9" d="M115.682 71.517c-.13-.664-.58-.865-.5-1.534.095-.802.78-.863.926-1.83.076-.495-.06-.763.162-1.283.138-.321.275-.42.441-.679.375-.585.375-1.183.397-1.696a31.5 31.5 0 0 1 .195-2.175c.217.99.333 2.017.333 3.072 0 4.387-1.983 8.309-5.098 10.915.377-.388.786-.847 1.262-1.383 1.267-1.424 2.085-2.37 1.882-3.407"/>
        <path fill="#3C80B6" d="M101.884 68.566c-.44-.533-1.046-.507-1.293-1.14-.143-.368.104-.55-.04-.866-.179-.396-.627-.398-1.392-.688-1.35-.512-1.657-1.152-2.176-.944-.382.152-.28.526-.745.786-.714.4-1.779-.021-1.784-.255-.003-.124.288-.177.275-.296-.018-.147-.477-.12-1-.334-.257-.105-.84-.343-.98-.846-.114-.403.072-.918.333-.983.284-.071.502.432.764.354.23-.068.395-.555.274-.944a.812.812 0 0 0-.166-.298c.158.052.317.1.478.144a.492.492 0 0 0 .042.33c.136.264.396.219.45.453.08.345-.43.675-.333.827.051.079.238.063.373.02.456-.15.425-.664.843-.984.488-.375 1.222-.202 1.235-.118.016.108-1.137.224-1.216.688-.01.063-.01.184.06.236.098.073.287-.033.411-.098.495-.262.883-.468 1.216-.433.255.027.424.195.764.531.209.207.428.43.49.767.043.233-.037.258 0 .453.083.432.59.882 1.137.845.07-.004.4-.026.628-.295.208-.244.28-.632.137-.905-.247-.474-.987-.296-1.137-.707-.104-.286.222-.449.137-.886-.048-.247-.171-.29-.35-.61a10.072 10.072 0 0 0 5.085-2.892c.257.003.504.047.699.237.346.338.169.78.515.945.302.144.777-.03.985-.34.3-.446.01-1.123-.147-1.49-.263-.614-.534-.72-.47-1.018.091-.43.764-.519.72-.87-.017-.132-.098-.265-.337-.441.057-.13.11-.262.16-.396.249.032.538.096.845.247.204.1.77.38.824.826.041.348-.27.446-.295.826-.048.723 1.001 1.551 1.412 1.357.053-.025.094-.066.23-.375.262-.59.28-.812.417-1.1.069-.143.389-.813.824-.826.551-.016.912 1.035.94 1.12.144.434.25 1.173-.058 1.358-.224.135-.43-.165-.882-.177-.823-.02-1.453.942-1.647 1.24-.392.598-.75 1.536-.471 1.77.12.099.473-.012 1.176-.236.731-.234.948-.356 1.118-.237.235.167.012.537.235.886.276.43.818.183 1.551.5-1.889 4.58-6.095 7.951-11.153 8.645.168-.22.273-.423.329-.53.427-.832.57-2.098-.04-2.833M107.786 52.28c2.194 1.635 2.73 2.279 2.588 2.597-.154.343-1.072.296-1.118.65-.037.286.546.516.471.766-.05.166-.35.209-.475.226-.225.032-.683.025-.819-.226-.142-.264.232-.496.176-.944-.045-.364-.355-.722-.706-.826-.308-.091-.593.03-.98.3a10.179 10.179 0 0 0 .237-3.15l.062.017c.064.15.231.343.564.59"/>
        <path fill="#4997C6" d="M106.923 54.822c-.162.113-.342.25-.549.409-.395.303-.702.539-.647.708.05.156.362.11.803.166-.051.134-.104.265-.16.396l-.002-.001c-.847-.623-2.386-.848-2.941-.207-.108.125-.201.308-.412.354-.316.07-.586-.236-.69-.147-.076.063.002.268.087.486.254.651.403.99.485 1.21.277.74.05.84.265 1.077.297.326.786.2 1.242.205a10.072 10.072 0 0 1-5.086 2.891l-.04-.077c-.232-.45-.136-.577-.275-.826-.354-.63-1.222-.26-1.745-.865-.399-.46-.4-1.258-.079-1.731.23-.339.65-.547.765-.453.119.099-.195.444-.177 1.023.002.055.037.847.51 1.062.409.186.991-.13 1.274-.511.623-.838.127-2.43-.823-3.01-.383-.234-.99-.396-1.235-.157-.242.236-.014.754-.235.865-.136.069-.389-.04-.47-.216-.134-.285.276-.546.372-1.121.082-.5-.177-.607-.157-1.023.03-.654.694-.96 1.98-2.065.916-.786 1.374-1.18 1.314-1.397-.028-.098-.137-.18-.31-.245a14.153 14.153 0 0 1 3.49-.435c1.274 0 2.508.17 3.683.487a10.27 10.27 0 0 1-.237 3.148M93.18 61.387c.006-.256.374-.533.725-.511.306.018.556.26.647.511.121.335-.07.602-.12.869a9.435 9.435 0 0 1-.478-.144c-.29-.336-.781-.426-.774-.725"/>
        <path fill="#BBD8E7" d="M89.514 67.763a14.094 14.094 0 0 0 10.147 4.298c.656 0 1.302-.046 1.934-.132a2.236 2.236 0 0 1-.926.728c-.209.085-.67.229-2.784-.275-1.205-.287-1.94-.545-2.078-.315-.092.154.197.331.235.748.059.638-.556.916-.745 1.495-.352 1.077 1.146 2.047.902 2.478-.09.159-.41.233-.886.211a14.21 14.21 0 0 1-5.799-9.236M99.318 62.37c.18.32.303.363.351.61.085.437-.24.6-.137.886.15.411.89.233 1.137.707.142.273.07.66-.137.905-.228.269-.558.29-.628.295-.546.037-1.054-.413-1.137-.845-.037-.195.043-.22 0-.453-.062-.338-.281-.56-.49-.767-.34-.336-.51-.504-.764-.531-.333-.035-.721.17-1.216.433-.124.065-.313.171-.412.098-.069-.052-.069-.173-.059-.236.08-.464 1.232-.58 1.216-.688-.013-.084-.747-.257-1.235.118-.418.32-.387.834-.843.983-.135.044-.322.06-.373-.02-.097-.151.413-.481.334-.826-.055-.234-.315-.19-.451-.452a.492.492 0 0 1-.042-.331 10.096 10.096 0 0 0 4.887.113"/>
        <g transform="translate(89.248 59.693)">
            <mask id="l" fill="#fff">
                <use xlink:href="#k"/>
            </mask>
            <path fill="#146EB4" fill-opacity=".146" d="M1.115.334a10.07 10.07 0 0 0 3.59 2.085c.072.082.131.18.167.298.12.39-.044.876-.274.944-.263.078-.48-.425-.765-.354-.26.065-.447.58-.333.983.141.503.723.741.98.846.523.214.982.187 1 .334.014.119-.277.172-.274.296.005.234 1.07.655 1.783.255.466-.26.363-.634.746-.786.518-.208.826.432 2.176.944.765.29 1.213.292 1.392.688.143.317-.104.498.04.866.246.633.852.607 1.293 1.14.61.735.467 2.001.04 2.832-.056.108-.161.311-.33.53A14.094 14.094 0 0 1 .267 8.07 14.377 14.377 0 0 1 .07 5.7C.069 3.8.441 1.99 1.115.334" mask="url(#l)"/>
        </g>
        <g transform="translate(90.362 51.503)">
            <mask id="n" fill="#fff">
                <use xlink:href="#m"/>
            </mask>
            <path fill="#146EB4" fill-opacity=".146" d="M9.935.364c.06.218-.398.61-1.314 1.397-1.286 1.104-1.95 1.412-1.98 2.065-.02.417.24.524.157 1.023-.096.575-.506.836-.373 1.121.083.176.336.285.471.217.221-.112-.007-.63.235-.866.244-.239.852-.077 1.235.158.95.58 1.446 2.171.824 3.009-.283.381-.866.697-1.274.511-.473-.215-.509-1.006-.51-1.062-.019-.579.295-.924.176-1.023-.114-.094-.534.114-.764.453-.322.473-.32 1.27.078 1.73.524.605 1.392.236 1.745.866.14.25.043.376.274.826l.042.077a10.096 10.096 0 0 1-4.887-.113c.05-.267.242-.534.12-.869-.09-.25-.341-.492-.647-.511-.35-.022-.719.255-.725.511-.007.3.484.39.774.725a10.07 10.07 0 0 1-3.59-2.085C1.682 4.392 5.246 1.233 9.624.12c.173.064.282.146.31.244" mask="url(#n)"/>
        </g>
        <path fill="#BBD8E7" d="M110.394 77.788a14.163 14.163 0 0 0 2.144-1.481c-.755.778-1.379 1.265-2.144 1.48"/>
        <path fill="#BBD8E7" d="M107.433 77.3c-.648-.517-1.35-1.552-1.059-2.361.27-.747 1.282-.642 2.941-1.83.714-.51 1.199-1.01 1.706-1.533 1.48-1.528 1.665-2.305 2.588-2.479.718-.135 1.317.202 1.529-.118.177-.266-.21-.544-.117-1.062.135-.751 1.081-.888 1.058-1.475-.014-.36-.378-.505-.294-.826.064-.243.3-.265.47-.472.493-.599-.11-2.092-.411-2.065-.108.009-.246.22-.353 1.18-.867.466-.941.472-.941.472-.662.054-.744-.987-1.8-1.446h-.002a14.199 14.199 0 0 0 1.072-5.43c0-.807-.068-1.598-.197-2.37a14.191 14.191 0 0 1 3.68 6.835 31.5 31.5 0 0 0-.195 2.175c-.022.513-.022 1.11-.397 1.696-.166.26-.303.358-.44.679-.223.52-.087.788-.163 1.283-.147.967-.83 1.028-.926 1.83-.08.67.37.87.5 1.534.203 1.038-.615 1.983-1.882 3.407-.476.536-.885.995-1.262 1.383a14.163 14.163 0 0 1-2.144 1.48c-.161.047-.329.08-.505.102-.319.04-1.486.183-2.456-.59"/>
        <g transform="translate(106.319 51.503)">
            <mask id="p" fill="#fff">
                <use xlink:href="#o"/>
            </mask>
            <path fill="#DDEAF4" d="M4.879 11.28c-.223-.348 0-.718-.236-.884-.17-.12-.387.002-1.117.236-.703.225-1.058.335-1.177.236-.278-.233.079-1.172.471-1.77.194-.298.824-1.26 1.647-1.24.453.012.659.312.882.177.308-.185.203-.924.06-1.357-.03-.086-.39-1.137-.942-1.12-.435.012-.755.682-.823.825-.138.288-.155.51-.417 1.1-.137.31-.177.35-.23.375-.411.194-1.46-.633-1.412-1.356.025-.38.336-.478.294-.827-.054-.447-.62-.726-.824-.826a2.624 2.624 0 0 0-.844-.246c.159-.416.29-.844.394-1.284.386-.268.672-.39.98-.299.35.104.66.462.706.826.055.448-.319.68-.177.944.136.251.594.258.82.227.124-.018.424-.06.474-.227.075-.25-.507-.48-.47-.767.045-.353.964-.306 1.117-.649.143-.318-.393-.962-2.587-2.596C1.134.53.968.337.903.188a14.141 14.141 0 0 1 6.402 3.795c.129.77.197 1.563.197 2.37 0 1.923-.382 3.756-1.072 5.429-.733-.318-1.276-.07-1.551-.501" mask="url(#p)"/>
        </g>
        <path fill="#BBD8E7" d="M105.727 55.939c-.055-.17.252-.405.647-.708.207-.16.387-.296.55-.409-.104.44-.236.868-.394 1.283-.44-.055-.752-.01-.803-.166"/>
        <g transform="translate(104.092 56.343)">
            <mask id="r" fill="#fff">
                <use xlink:href="#q"/>
            </mask>
            <path fill="#DDEAF4" d="M2.614.6c.044.35-.629.439-.72.87-.064.298.207.404.47 1.018.157.366.447 1.043.147 1.49-.208.309-.683.483-.985.339-.346-.165-.17-.606-.515-.944-.195-.19-.442-.235-.699-.238A10.15 10.15 0 0 0 2.277.158c.24.176.32.31.337.441" mask="url(#r)"/>
        </g>
        <g transform="translate(102.237 55.598)">
            <mask id="t" fill="#fff">
                <use xlink:href="#s"/>
            </mask>
            <path fill="#146EB4" fill-opacity=".146" d="M.926 3.675C.71 3.438.937 3.339.66 2.598c-.082-.22-.232-.559-.485-1.21C.09 1.17.013.965.088.902c.104-.09.374.217.69.147.211-.046.304-.23.412-.354.555-.64 2.095-.416 2.941.207h.002A10.15 10.15 0 0 1 2.168 3.88c-.456-.005-.946.121-1.242-.205" mask="url(#t)"/>
        </g>
        <path fill="#F2C1C0" d="M113.353 70.048s-2.37-.51-2.483-.283c-.113.226.282.566.282.566s-2.088 0-2.2.283c-.114.283 1.918 1.868 3.893 1.641 1.975-.226 3.498-1.415 3.498-1.415l-1.636-.849-1.354.057"/>
        <path fill="#F58A07" d="M120.18 52.273c-.457.115-1.166 1.095-.715 2.19.451 1.094 2.784 10.98 2.784 10.98l-7.75 4.228 1.656 1.924s9.743-2.453 10.081-3.698c.339-1.246-.15-5.548-.978-9.133-.828-3.585-3.423-6.906-5.078-6.49"/>
        <path fill="#F3C0C0" d="M24.118 62.5s.043-1.35-.043-1.929c-.085-.578-.815-2.363-.815-2.363s.686-.723.986.435l.215.53s1.715-2.412 1.972-2.267c.257.145 1.458 1.158 1.03 2.605-.43 1.446-2.402 3.617-2.402 3.617l-.943-.627"/>
        <path fill="#F58A07" d="M24.29 61.44l1.457.916s.131 15.622-3.73 12.974c-.16-.109-4.716-5.182-4.716-5.182l-1.868-9.477s5.012 5.265 6.427 8.159c0 0 1.915-7.39 2.43-7.39"/>
        <path fill="#F58A07" d="M6.09 62.903s.45 21.1.707 21.229c.257.13 11.897-.903 11.897-.903s1.48-8.947.236-14.237c-1.243-5.29-3.437-8.281-3.437-8.281l-2.01.297-.69.571-.38.67s-.443.105-.614.364c-.171.258-.283.083-.669.126-.385.044-1.86-1.522-1.86-1.522l-3.18 1.686z"/>
        <path fill="#0E4E80" d="M6.262 112.688l-.091 1.481s-1.226 2.3-1.135 2.758c.09.46 2.816.358 2.816.358s-.318-2.196-.773-2.86c-.454-.665.364-1.993.364-1.993l-1.18.256M11.092 112.065l.042 1.723-.91 1.024-.083.605s6.04.559 6.413.419c.373-.14-.083-.838-.083-.838l-4.261-1.21.206-1.862-1.324.14"/>
        <path fill="#F3C0C0" d="M11.342 63.21a2.197 2.197 0 0 1-2.174-1.905l-.516-3.801h5.286l-.414 3.747a2.197 2.197 0 0 1-2.182 1.96"/>
        <path fill="#F3C0C0" d="M14.743 54.21c0 1.91-1.543 3.46-3.448 3.46a3.454 3.454 0 0 1-3.449-3.46c0-1.911 1.544-3.46 3.449-3.46a3.454 3.454 0 0 1 3.448 3.46"/>
        <path fill="#F3C0C0" d="M14.743 54.305c0 1.91-1.543 6.659-3.448 6.659s-3.449-4.748-3.449-6.66c0-1.91 1.544-.26 3.449-.26 1.905 0 3.448-1.65 3.448.26"/>
        <path fill="#262753" d="M9.171 58.842s.469 2.817 2.08 2.8c1.612-.018 2.167-2.8 2.167-2.8H9.17"/>
        <path fill="#F3C0C0" d="M14.743 54.305c0 1.91-1.543 6.659-3.448 6.659s-3.449-4.748-3.449-6.66c0-1.91 1.544-.26 3.449-.26 1.905 0 3.448-1.65 3.448.26"/>
        <path fill="#262753" d="M14.743 54.242v-.032c0-1.911-1.543-3.46-3.448-3.46a3.454 3.454 0 0 0-3.449 3.46v.095c0 .31.041.698.118 1.127.5.015 1.074-.46 1.378-1.187.088-.21.145-.422.172-.625a7.054 7.054 0 0 0 1.945.258 7.31 7.31 0 0 0 1.671-.186c.032.171.083.347.156.522.297.711.853 1.181 1.345 1.188a6.55 6.55 0 0 0 .112-1.097v-.063"/>
        <path fill="#262753" d="M8.773 58.289c-.496 0-.894-.464-.881-1.026l-.046-3.229.927.265v3.99"/>
        <path fill="#F3C0C0" d="M9.023 57.526s-.481.12-.507-.42c-.026-.539-.005-.886-.243-.798-.238.088-.16 1.41.326 1.732.486.321.45-.057.522.435.072.493.253.068.253.068l.32-.799-.671-.218"/>
        <path fill="#262753" d="M13.817 58.289c.496 0 .894-.464.88-1.026l.046-3.229-.926.265v3.99"/>
        <path fill="#F3C0C0" d="M13.567 57.526s.48.12.507-.42c.026-.539.005-.886.243-.798.237.088.16 1.41-.326 1.732-.486.321-.45-.057-.522.435-.073.493-.253.068-.253.068l-.321-.799.672-.218"/>
        <path fill="#262753" d="M8.31 56.368h.253v-1.886s.482.828 1.72.828c1.239 0 1.743-.69 2.041-.967.298-.276.528-.644.94-.644.413 0 .528.368.528.759v2.048h.275s.39-2.53.367-3.198c-.023-.667-.481-2.646-2.316-2.646s-1.72.897-3.188 1.196c-1.468.3-.62 4.51-.62 4.51"/>
        <path fill="#0E4E80" d="M6.867 84.103L5.124 112.65l3.13.445s3.13-19.63 3.516-19.967c.386-.338.986-1.013.986-1.013l-.429 2.46-1.843 17.652 2.615.035s2.1-13.153 2.873-14.987c.772-1.832 3.801-11.467 2.797-14.18-.105-.282-11.902 1.008-11.902 1.008"/>
        <path fill="#FFC53A" d="M23.176 54.366c2.313-8.193 10.81-12.954 18.977-10.634 8.167 2.32 12.912 10.844 10.6 19.038-2.314 8.193-10.81 12.954-18.977 10.634-8.167-2.32-12.913-10.844-10.6-19.038zm32.449 9.22C58.387 53.8 52.72 43.622 42.966 40.85c-9.753-2.772-19.9 2.914-22.663 12.7a18.397 18.397 0 0 0 .855 12.421l-15.99 8.962c-1.055.59-2.867 2.78-2.278 3.838.589 1.058 3.476.517 4.53-.074l15.962-8.945a18.272 18.272 0 0 0 9.58 6.532c9.754 2.772 19.9-2.915 22.663-12.7z"/>
        <path fill="#E3AF34" d="M2.869 78.735a2.198 2.198 0 0 1 .843-2.986l12.912-7.236a2.184 2.184 0 0 1 2.977.846 2.198 2.198 0 0 1-.843 2.985L5.845 79.58a2.183 2.183 0 0 1-2.976-.845"/>
        <path fill="#F3C0C0" d="M13.26 74.884s1.286-2.46 1.511-2.351c.226.108-.418 1.483-.418 1.483s2.83-.362 2.83.326c0 .687.836 1.88-2.026 2.315-2.862.434-3.344.325-3.344.325l.032-1.591 1.415-.507"/>
        <path fill="#F58A07" d="M6.04 62.833c.91-.693 1.137 7.702 1.678 13.595l5.124-2.159.9 2.966S7.136 83.296 5.4 80.692C3.663 78.087-.327 67.68 6.04 62.833"/>
        <path fill="#FFFFFE" d="M42.619 48.765c0-.903.73-1.635 1.63-1.635.9 0 1.63.732 1.63 1.635s-.73 1.635-1.63 1.635c-.9 0-1.63-.732-1.63-1.635"/>
        <path fill="#F2C1C0" d="M81.494 103.245c-.018.172-.036.374-.052.566l-.046.585a96.64 96.64 0 0 0-.187 3.554 123.728 123.728 0 0 0 .036 9.55c.026.798.077 1.595.118 2.392.045.797.108 1.593.162 2.39l.001.019a.794.794 0 0 1-.738.846.796.796 0 0 1-.836-.667c-.128-.798-.266-1.596-.386-2.397-.117-.8-.242-1.601-.343-2.405a130.432 130.432 0 0 1-.558-4.833 125.91 125.91 0 0 1-.376-4.862 100.659 100.659 0 0 1-.144-3.674l-.01-.62c-.002-.21-.003-.408 0-.637v-.003a1.687 1.687 0 0 1 1.703-1.67 1.687 1.687 0 0 1 1.656 1.866"/>
        <path fill="#0E4E80" d="M79.015 121.919s2.354-.373 2.756-.692c.402-.318-.057 2.979-.057 2.979l-5.34.106s-.459-.638.575-1.063c1.033-.426 2.066-1.33 2.066-1.33"/>
        <path fill="#F2C1C0" d="M64.162 55.395c.273-.486.574-.955.884-1.418.374.719.75 1.437 1.132 2.15.968 1.804 1.96 3.59 2.998 5.327.52.867 1.053 1.72 1.602 2.537.137.206.276.408.417.603l.21.297.213.284c.283.384.575.724.853 1.03l.033.036c.71.78.657 1.99-.12 2.703a1.902 1.902 0 0 1-2.694-.121l-.086-.102c-.384-.484-.723-.96-1.018-1.428l-.226-.352-.212-.351c-.143-.234-.28-.468-.41-.702a61.005 61.005 0 0 1-1.499-2.811c-.942-1.88-1.815-3.77-2.66-5.67-.046-.101-.089-.203-.134-.305.203-.588.4-1.141.717-1.707M85.362 72.413c.127.049.189.078.275.116.08.037.158.073.234.111a9.331 9.331 0 0 1 1.31.782c.557.406 1.103.882 1.562 1.527.057.081.114.16.168.244l.154.266c.105.172.182.377.265.568.04.098.068.205.1.308.028.104.066.204.082.313.034.216.083.431.082.649.004.109.006.217.007.326 0 .108-.017.211-.027.318-.012.105-.024.21-.04.314l-.07.298c-.027.097-.05.198-.08.293l-.104.271-.108.27c-.04.084-.084.164-.126.246-.165.336-.368.614-.565.902l-.317.388c-.053.064-.105.132-.16.19l-.167.175-.336.347-.347.314c-.117.103-.23.214-.35.307l-.358.286c-.959.75-2.175 1.106-3.185 1.685l.026-.234.31-.388.387 2.252c.109.407.225 1.185-.181 1.294-.356.097-.46-.205-.617-.525l-1.341-2.7-.351-.711.817-.647c.896-.607 1.764-1.245 2.527-1.942l.283-.262c.096-.086.175-.18.263-.27l.259-.27.23-.28.115-.138c.037-.046.066-.094.1-.14l.196-.281c.103-.189.223-.374.287-.552.152-.36.195-.675.156-.923.002-.065-.034-.123-.042-.185l-.036-.09-.038-.091c-.043-.06-.059-.123-.113-.186l-.065-.094-.081-.096c-.214-.258-.542-.514-.911-.738a6.087 6.087 0 0 0-.897-.444l-.152-.058c-.043-.015-.11-.039-.116-.038a1.758 1.758 0 0 1-2.052-1.408 1.763 1.763 0 0 1 1.403-2.058c.332-.063.658-.027.95.085l.785.304M75.15 58.695s-2.926 6.334.693 7.106c3.619.773 1.771-5.716 1.771-5.716l-2.464-1.39M77.12 103.06a221.15 221.15 0 0 0-.043 4.742c.001 1.584.018 3.169.05 4.753s.087 3.166.158 4.746c.076 1.58.177 3.156.31 4.726v.008c.048.564-.37 1.06-.931 1.108a1.025 1.025 0 0 1-1.097-.87 133.71 133.71 0 0 1-.616-4.787 198.261 198.261 0 0 1-.459-4.792 253.18 253.18 0 0 1-.35-4.797c-.101-1.603-.19-3.195-.256-4.814a1.621 1.621 0 0 1 1.55-1.69 1.62 1.62 0 0 1 1.683 1.556l.001.096v.014"/>
        <path fill="#F58A07" d="M81.585 74.415c.007-1.951.14-3.918.171-5.88l-6.022-.686-6.16-5.407-2.925 3.322 5.62 7.801 1.155 10.118h8.161l.223-8.724a.71.71 0 0 1-.223-.544M87.514 73.256c-.288-.115-2.93-2.637-4.255-3.911-.04 1.689-.128 3.38-.134 5.07a.704.704 0 0 1-.47.692l2.395 1.316s2.849-3.012 2.464-3.167"/>
        <path fill="#FFC53A" d="M74.887 120.141l2.771-.309-.308-23.017.308-3.785.693-.078s-.847 11.355-.538 16.298c.308 4.944.462 10.35.462 10.35l3.695-.231s1.232-21.241 1.694-25.258c.462-4.017-.308-8.65-2.079-10.428h-8.161s-1.617 3.167-1.232 8.42c.385 5.252 2.695 28.038 2.695 28.038"/>
        <path fill="#262753" d="M81.119 83.697a.986.986 0 0 1 .408.083l.243.105a3.865 3.865 0 0 0-.185-.202h-.49l.024.014"/>
        <path fill="#FFC53A" d="M73.433 92.284c-.02 3.996-.106 10.365.31 14.345.324 3.087 1.025 6.116 1.313 9.206.106 1.137.173 2.276.222 3.417.342-.128.692-.277.977-.491.035-3.297.045-6.594.046-9.892.002-2.327-.035-4.647-.112-6.974-.07-2.116-.019-7.08.24-9.181-.423.251-2.536.042-2.996-.43M82.85 92.499c-.085.155-1.165.589-1.39.644-.417.103-1.3-.107-1.713-.107-.042.025.072 10.554-.227 15.572-.163 2.734-.567 5.509-.7 8.274.27-.175.636-.2.937.086.27.257.565.46.875.622 1.13-8.142 2.076-16.874 2.219-25.091"/>
        <path fill="#262753" d="M78.79 119.421l.004.147.737-.046a20.706 20.706 0 0 0-.74-.1M73.32 84.116c-.03.113-.058.227-.085.34.16-.253.311-.51.456-.773h-.266s-.03.058-.079.168a.811.811 0 0 1-.026.265M75.04 56.88s-3.106 1.585-.778 3.423c.428.338 2.137-.46 2.137-.46s-2.205 10.092 1.414 12.795c3.618 2.704 7.39 4.558 6.852 2.395-.539-2.163-.924-3.09-.154-4.79.77-1.699.308-3.32-.847-5.406s-.693-1.622-1.001-4.558c-.308-2.935-3.696-6.179-7.622-3.398"/>
        <path fill="#0E4E80" d="M74.906 122.233s2.5-.396 2.928-.735c.427-.34-.06 3.165-.06 3.165l-5.674.113s-.488-.678.61-1.13c1.098-.453 2.196-1.413 2.196-1.413"/>
        <path fill="#F3C0C0" d="M64.175 58.392s-1.04-1.169-1.04-2.277c0-1.107 3.01-11.579 3.412-11.78.402-.201-.502-1.51.301-1.913.803-.403 1.707-.805 2.108-2.014.401-1.208.903-.1.401 1.31-.502 1.409.502 2.416-1.104 3.322 0 0-3.287 9.895-1.682 11.707l-2.396 1.645"/>
    </g>
</svg>
