<svg xmlns="http://www.w3.org/2000/svg" xmlns:xlink="http://www.w3.org/1999/xlink" width="366" height="311" viewBox="0 0 366 311">
    <defs>
        <path id="a" d="M175.575.828V.674h-.343l-.031.045V32.05c0 2.422-1.686 4.462-3.94 5.022l.02.159h-16.868v-9.678l-.041.035v101.67H32.955V.674H.08v128.68h193.09V.673h-7.235v.154h-10.36z"/>
        <path id="c" d="M222.453 37.674a.619.619 0 0 1-.075.58l.075.2a.623.623 0 0 1-.581.842l-15.895.011a.623.623 0 0 1-.593-.431l-1.838-5.719a.616.616 0 0 1 .078-.537l-.078-.242a.622.622 0 0 1 .592-.813l15.563-.013c.26 0 .492.16.584.402l2.168 5.72zm-24.068.839c.119.399-.18.8-.597.8l-15.923.012a.623.623 0 0 1-.606-.478l-1.375-5.715a.615.615 0 0 1 .075-.466l-.075-.312a.623.623 0 0 1 .605-.769l15.592-.013c.276 0 .52.18.598.445l1.706 5.717a.612.612 0 0 1-.079.517l.079.262zm-19.47-9.41l-1.375-5.716a.618.618 0 0 1 .075-.465l-.075-.314a.622.622 0 0 1 .605-.768l13.01-.014 2.483-.003 22.366-.023c.26 0 .491.16.582.402l2.17 5.721a.618.618 0 0 1-.075.58l.075.198a.623.623 0 0 1-.582.844l-22.459.02-2.543.002-13.651.012a.623.623 0 0 1-.607-.476zm-4.606 9.472a.623.623 0 0 1-.607.756l-16.478.01-6.9.006-17.25.011-6.9.005-17.25.012-6.899.005-17.25.013-23.414.015a.623.623 0 0 1-.616-.724l.064-.387a.616.616 0 0 1-.064-.391l.94-5.7c.05-.302.31-.521.615-.522l23.057-.019 16.847-.014 6.739-.006 16.847-.014 6.739-.005 16.846-.015 6.74-.005 16.343-.014c.294 0 .548.204.61.49l1.241 5.715a.612.612 0 0 1-.073.443l.073.335zM56.724 23.485l-1.072 5.699a.623.623 0 0 1-.612.507l-13.696.013-2.474.002-22.499.02a.623.623 0 0 1-.593-.817l.078-.237a.614.614 0 0 1-.078-.54l1.868-5.695a.621.621 0 0 1 .59-.429l22.345-.023 2.415-.003 13.116-.014c.39 0 .685.355.612.738l-.068.363a.609.609 0 0 1 .068.416zm-1.83 9.722l-1.073 5.7a.623.623 0 0 1-.612.507l-15.938.011a.622.622 0 0 1-.605-.772l.076-.307a.617.617 0 0 1-.076-.471l1.404-5.697a.623.623 0 0 1 .604-.474l15.608-.012c.39-.001.685.353.612.737l-.068.363a.616.616 0 0 1 .068.415zm-23.659.067L29.7 38.971a.623.623 0 0 1-.601.46l-15.913.011a.623.623 0 0 1-.593-.816l.078-.237a.623.623 0 0 1-.078-.542l1.868-5.695a.623.623 0 0 1 .59-.428l15.582-.013c.411 0 .71.39.602.785l-.077.286c.09.14.126.315.077.492zM39.098 4.12L37.56 9.815a.621.621 0 0 1-.6.46l-14.22.019a.622.622 0 0 1-.592-.816l.077-.237a.611.611 0 0 1-.077-.541l1.865-5.695a.625.625 0 0 1 .592-.429l13.889-.02c.41 0 .71.389.603.784l-.078.287a.62.62 0 0 1 .078.492zm9.019 9.68l-1.292 5.696a.622.622 0 0 1-.607.485l-8.843.01-9.34.011-8.479.01a.623.623 0 0 1-.592-.817l.078-.237a.616.616 0 0 1-.078-.542l1.865-5.694a.625.625 0 0 1 .591-.428l8.657-.011 9.105-.013 8.327-.01c.4 0 .696.37.608.76l-.075.326a.615.615 0 0 1 .075.453zM60.387 3.26l-.069.363a.616.616 0 0 1 .069.415l-1.074 5.7a.623.623 0 0 1-.611.506l-14.246.02a.623.623 0 0 1-.605-.771l.076-.308a.618.618 0 0 1-.076-.471l1.403-5.697a.623.623 0 0 1 .604-.473l13.915-.021c.391-.001.686.353.614.737zm107.568 5.306a.612.612 0 0 1-.073.443l.073.334a.624.624 0 0 1-.607.757l-14.255.018a.623.623 0 0 1-.615-.524l-.911-5.713a.617.617 0 0 1 .063-.385l-.063-.394a.622.622 0 0 1 .614-.72l13.922-.022c.294 0 .548.204.61.49l1.242 5.716zm-24.57 11.305a.624.624 0 0 1-.62-.55l-.68-5.71a.61.61 0 0 1 .054-.328l-.053-.45a.623.623 0 0 1 .617-.697l14.496-.018c.302 0 .561.216.613.514l1.011 5.713a.623.623 0 0 1-.066.405l.066.373a.624.624 0 0 1-.612.732l-14.827.016zm-22.524.026a.625.625 0 0 1-.623-.6l-.216-5.707.022-.18-.022-.6a.623.623 0 0 1 .62-.646l14.507-.018c.32 0 .59.244.62.564l.548 5.71a.625.625 0 0 1-.046.295l.046.483a.622.622 0 0 1-.62.682l-14.836.017zm-22.52.024a.622.622 0 0 1-.622-.649l.026-.585-.026-.193.246-5.706a.623.623 0 0 1 .622-.594l14.508-.02c.341 0 .618.273.624.613l.085 5.708-.01.113.01.665a.623.623 0 0 1-.623.632l-14.84.016zm-22.515.025a.622.622 0 0 1-.618-.7l.055-.442a.613.613 0 0 1-.055-.335l.709-5.702a.624.624 0 0 1 .617-.546l14.503-.019c.36 0 .646.304.622.664l-.035.528a.623.623 0 0 1 .035.25l-.378 5.705a.623.623 0 0 1-.621.582l-14.834.015zm27.115-16.071l-.147 5.705a.623.623 0 0 1-.622.607l-14.273.018a.621.621 0 0 1-.62-.674l.041-.5a.617.617 0 0 1-.042-.279l.477-5.703a.622.622 0 0 1 .62-.57l13.943-.02a.62.62 0 0 1 .623.637l-.016.628.016.151zm21.581 4.846a.623.623 0 0 1-.03.225l.03.554a.623.623 0 0 1-.621.657l-14.275.019a.622.622 0 0 1-.624-.624l.003-.758-.003-.02.016-5.707c.001-.343.28-.62.622-.62l13.943-.022c.332 0 .605.258.623.588l.316 5.708zm5.766-4.857a.619.619 0 0 1 .04-.27l-.04-.509a.624.624 0 0 1 .62-.671l13.938-.021c.312 0 .575.23.618.538l.78 5.712a.618.618 0 0 1-.06.352l.06.426a.624.624 0 0 1-.618.707l-14.268.02a.625.625 0 0 1-.622-.574l-.448-5.71zM65.56 8.733l.94-5.7c.05-.3.309-.52.614-.521l13.933-.021c.37 0 .659.32.62.69l-.05.466c.04.095.062.2.05.311l-.61 5.702a.624.624 0 0 1-.62.557l-14.262.02a.623.623 0 0 1-.615-.726l.063-.387a.613.613 0 0 1-.063-.39zm-12.856 9.712l1.172-5.697a.624.624 0 0 1 .61-.498l14.488-.018c.38-.001.672.337.617.714l-.06.41c.054.11.08.235.06.369l-.841 5.7a.622.622 0 0 1-.617.53l-14.82.018a.622.622 0 0 1-.609-.748l.071-.346a.615.615 0 0 1-.07-.434zm26.88 4.967l-.609 5.702a.623.623 0 0 1-.619.556l-15.391.014a.622.622 0 0 1-.616-.724l.064-.386a.617.617 0 0 1-.064-.392l.94-5.7c.05-.301.31-.52.615-.522l15.061-.016c.37 0 .659.321.62.69l-.05.467c.041.094.061.2.05.311zm22.854-.074l-.148 5.705a.623.623 0 0 1-.622.607l-15.4.014a.623.623 0 0 1-.622-.675l.042-.5a.615.615 0 0 1-.042-.279l.478-5.703a.622.622 0 0 1 .62-.57l15.07-.016c.352 0 .633.287.624.638l-.016.628.016.15zm23.16 5.634a.622.622 0 0 1-.62.657l-15.404.013a.624.624 0 0 1-.624-.624l.003-.758-.003-.02.015-5.707c.001-.342.28-.62.623-.62l15.072-.017c.33 0 .605.259.622.59l.316 5.707a.605.605 0 0 1-.03.224l.03.555zm23.3-.071a.623.623 0 0 1-.616.707l-15.397.014a.624.624 0 0 1-.621-.575l-.448-5.71a.617.617 0 0 1 .04-.269l-.04-.509a.623.623 0 0 1 .62-.67l15.066-.017c.312 0 .575.23.617.539l.779 5.711a.611.611 0 0 1-.058.353l.058.426zm23.293-.069a.623.623 0 0 1-.61.755l-15.38.014a.623.623 0 0 1-.616-.525l-.911-5.713a.618.618 0 0 1 .063-.384l-.063-.394a.622.622 0 0 1 .614-.72l15.051-.017c.293 0 .547.205.61.49l1.242 5.716a.61.61 0 0 1-.073.443l.073.335zm9.13-9.78a.623.623 0 0 1-.603.78l-14.807.015a.622.622 0 0 1-.612-.5l-1.142-5.715a.612.612 0 0 1 .07-.427l-.07-.35a.623.623 0 0 1 .61-.746l14.476-.019c.285 0 .534.193.603.468l1.475 5.716a.61.61 0 0 1-.077.481l.077.297zm33.735-.103a.623.623 0 0 1-.58.844l-8.366.009-9.267.01-8.794.01a.621.621 0 0 1-.599-.455l-1.6-5.716a.617.617 0 0 1 .079-.5l-.078-.279a.623.623 0 0 1 .598-.79l8.216-.011 9.036-.012 8.604-.01c.259 0 .49.16.583.401l2.168 5.72c.08.208.04.421-.074.581l.074.198zM194.145 3.91a.613.613 0 0 1 .077-.536l-.077-.242a.622.622 0 0 1 .592-.812l13.87-.022c.26-.001.492.16.584.402l2.169 5.721c.079.206.04.42-.075.58l.075.197a.622.622 0 0 1-.581.844l-14.202.02a.624.624 0 0 1-.594-.433l-1.838-5.719zm-21.293-.012a.613.613 0 0 1 .076-.465l-.076-.313a.623.623 0 0 1 .606-.769l13.9-.021c.275 0 .518.18.597.445l1.706 5.717a.612.612 0 0 1-.078.518l.078.261c.12.399-.18.8-.597.8l-14.23.02a.624.624 0 0 1-.607-.478l-1.375-5.715zm62.351 38.378L217.811.532 15.248.852.054 42.425l235.15-.15z"/>
        <path id="d" d="M.661 6.06h13.562L24.59.248H.661z"/>
        <path id="f" d="M2.924.94L3.908.39h-3.2C1.37.739 2.124.94 2.924.94z"/>
        <path id="h" d="M5.22.526C2.514.526.3 3.37.3 6.846v139.996h121.416V16.285l.041-.069V5.706c0-2.85 2.331-5.18 5.18-5.18H5.22z"/>
        <path id="i" d="M36.298 18.697c0 9.877-8.007 17.885-17.885 17.885-9.879 0-17.887-8.008-17.887-17.885C.526 8.817 8.534.81 18.413.81c9.878 0 17.885 8.007 17.885 17.886"/>
        <path id="k" d="M2.515.75a22.74 22.74 0 0 0 8.102 4.69c.161.186.295.404.376.67.271.877-.099 1.97-.619 2.124-.592.175-1.084-.957-1.724-.796-.588.146-1.01 1.305-.753 2.211.319 1.13 1.633 1.667 2.212 1.903 1.18.481 2.216.42 2.257.752.03.266-.627.386-.62.664.012.526 2.413 1.474 4.025.575 1.05-.585.819-1.426 1.681-1.77 1.17-.466 1.865.974 4.91 2.124 1.726.651 2.738.656 3.141 1.547.324.713-.234 1.122.09 1.948.557 1.423 1.923 1.366 2.919 2.566 1.374 1.652 1.053 4.5.088 6.369-.124.242-.361.7-.74 1.192a32.204 32.204 0 0 1-4.366.298c-8.978 0-17.09-3.705-22.894-9.667a32.235 32.235 0 0 1-.444-5.331c0-4.272.84-8.344 2.36-12.069"/>
        <path id="m" d="M22.417.82c.136.489-.897 1.372-2.964 3.14-2.903 2.485-4.4 3.176-4.468 4.646-.044.936.54 1.177.354 2.3-.216 1.294-1.141 1.88-.84 2.522.185.395.755.64 1.06.487.5-.252-.014-1.415.532-1.947.55-.537 1.922-.173 2.786.354 2.144 1.305 3.263 4.884 1.858 6.769-.638.857-1.952 1.568-2.874 1.15-1.068-.484-1.147-2.265-1.151-2.39-.041-1.301.667-2.078.398-2.3-.258-.212-1.205.257-1.725 1.018-.727 1.065-.722 2.858.177 3.893 1.181 1.36 3.14.529 3.937 1.946.315.56.098.846.62 1.858l.093.174a22.85 22.85 0 0 1-5.003.552c-2.085 0-4.105-.281-6.023-.807.111-.6.545-1.201.271-1.953-.205-.565-.77-1.109-1.46-1.15-.792-.05-1.622.574-1.636 1.15-.016.672 1.091.875 1.746 1.63a22.74 22.74 0 0 1-8.102-4.69C3.798 9.878 11.84 2.772 21.718.268c.39.145.637.33.699.55"/>
        <path id="o" d="M11.008 25.372c-.503-.785 0-1.617-.53-1.99-.384-.27-.874.005-2.523.531-1.586.505-2.385.754-2.654.53-.628-.524.178-2.634 1.063-3.98.438-.67 1.858-2.833 3.716-2.789 1.02.026 1.485.702 1.99.399.694-.416.457-2.08.133-3.053-.064-.193-.88-2.557-2.123-2.52-.982.028-1.704 1.534-1.858 1.857-.311.648-.35 1.149-.94 2.474-.309.695-.4.788-.52.843-.928.437-3.295-1.425-3.186-3.051.057-.855.758-1.075.664-1.859-.122-1.005-1.397-1.632-1.859-1.858a5.935 5.935 0 0 0-1.905-.554c.358-.935.655-1.898.888-2.886.872-.604 1.516-.879 2.212-.674.791.234 1.491 1.04 1.593 1.858.125 1.008-.72 1.531-.398 2.124.307.565 1.34.58 1.847.509.282-.04.96-.136 1.073-.51.169-.562-1.146-1.079-1.063-1.724.103-.795 2.176-.688 2.522-1.46.322-.716-.888-2.164-5.838-5.84C2.56 1.192 2.184.758 2.038.422a31.928 31.928 0 0 1 14.444 8.536c.291 1.734.444 3.515.444 5.33 0 4.326-.86 8.45-2.418 12.212-1.654-.715-2.878-.158-3.5-1.128"/>
        <path id="q" d="M5.897 1.348c.1.79-1.418.988-1.625 1.958-.143.67.468.908 1.062 2.29.354.824 1.01 2.347.331 3.35-.469.696-1.54 1.088-2.222.764-.781-.372-.382-1.364-1.162-2.124-.44-.429-.997-.528-1.577-.534A22.822 22.822 0 0 0 5.14.356c.539.396.721.695.758.992"/>
        <path id="s" d="M2.088 8.265c-.485-.532.026-.756-.597-2.421C1.305 5.347.97 4.587.396 3.122c-.19-.49-.368-.952-.198-1.094.236-.2.844.488 1.559.332.475-.105.685-.516.928-.797 1.253-1.44 4.727-.936 6.636.465l.004.003a22.822 22.822 0 0 1-4.434 6.696C3.863 8.715 2.757 9 2.088 8.265"/>
    </defs>
    <g fill="none" fill-rule="evenodd">
        <path fill="#E4EFF9" d="M101.651 267.605h153v28h-153z"/>
        <path fill="#FFC53A" d="M200.12 182.523l-3.192-.53s-1.106-24.583-3.696-32.026c0 0-35.411-.844-40.639-26.953 0 0 27.369-8.346 40.742 23.045 0 0-1.242-23.763-7.014-46.599 0 0-26.688 4.253-30.195-19.046 0 0 16.27-7.389 28.33 7.238 0 0-3.525-18.255-7.706-27.644 0 0-20.158 2.815-25.852-17.202 0 0 14.784-1.746 23.93 9.03l-6.894-19.376S151.785 19.397 156.606.287c0 0 18.296 8.373 13.6 30.027l6.621 21.013s3.27-19.647 17.47-19.528c0 0 .087 24.132-14.703 27.56 0 0 6.628 19.332 8.395 33.368 0 0-.393-25.586 20.967-29.043 0 0 5.96 20.062-18.942 33.305 0 0 4.403 21.205 5.988 47.83 0 0-4.52-25.43 20.383-38.674 0 0 13.274 22.12-18.675 44.848 0 0 2.74 14.759 2.41 31.53"/>
        <path fill="#F58A07" d="M261.628 235.42c-1.171-.186-2.357-.367-3.546-.543 1.867-5.801 7.666-24.33 7.874-31.327 0 0-34.723-14.222-30.027-42.036 0 0 30.24 2.086 31.607 38.206 0 0 7.755-23.987 10.675-48.766 0 0-28.02-5.879-22.683-30.263 0 0 .224-.014.63-.014 3.331 0 18.961.922 24.672 17.886 0 0 3.41-19.397 2.822-30.269 0 0-21.013-4.834-19.081-26.797 0 0 15.292 3.86 20.269 17.983l.501-21.782s-11.043-19.031.95-36.12c0 0 14.943 15.202 2.109 34.856l-1.39 23.298s8.055-13.753 19.358-13.753c1.703 0 3.478.313 5.314 1.031 0 0-8.261 21.86-22.911 21.86-.673 0-1.36-.047-2.06-.143 0 0-.748 21.635-4.305 36.193 0 0 7.796-21.383 26.366-21.383 1.697 0 3.483.179 5.362.569 0 0-1.685 22.106-31.335 25.799 0 0-3.226 19.967-10.652 44.714 3.053-7.927 11.635-22.988 33.288-25.685 0 0 4.776 26.91-35.434 37.323 0 0-2.533 13.822-8.373 29.162"/>
        <path fill="#CDC7CE" d="M260.469 238.373l-2.96-1.734s.214-.645.573-1.762c1.19.176 2.375.357 3.546.542-.374.98-.76 1.965-1.16 2.954"/>
        <path fill="#FFC53A" d="M307.835 274.758l3.062-.263s2.942-22.618 5.967-29.304c0 0 33.569 1.744 40.529-21.99 0 0-25.252-9.657-40.326 18.374 0 0 3.008-21.853 10.23-42.525 0 0 24.923 5.83 30.038-15.433 0 0-14.825-7.98-27.363 4.664 0 0 4.744-16.603 9.422-24.974 0 0 18.857 4.036 25.787-14.04 0 0-13.853-2.666-23.337 6.632l8.017-17.399s16.288-10.91 13.2-28.897c0 0-17.958 6.426-15.184 26.755l-7.885 18.928s-1.578-18.373-15.024-19.275c0 0-1.942 22.274 11.787 26.495 0 0-7.762 17.376-10.516 30.208 0 0 2.344-23.594-17.598-28.308 0 0-7.186 18.098 15.353 32.1 0 0-5.8 19.264-9.355 43.735 0 0 6.237-23.158-16.302-37.161 0 0-14.265 19.477 14.21 42.739 0 0-3.73 13.43-4.712 28.94"/>
        <path fill="#FFCB30" d="M101.071 230.362l2.868-2.226s-11.594-24.313-12.886-32.884c0 0 34.404-19.81 26.075-47.807 0 0-31.234 6.627-28.195 44.09 0 0-11.038-23.596-17.14-48.727 0 0 28.45-10.212 19.88-34.575 0 0-19.82 1.598-24.14 22.181 0 0-5.95-19.506-6.68-30.808 0 0 21.285-8.097 16.559-30.467 0 0-15.447 6.246-18.885 21.55l-3.214-22.395s9.148-21.268-5.454-37.12c0 0-13.682 17.893 2.113 36.268l4.326 23.828s-13.354-17.205-27.264-9.472c0 0 12.366 23.333 28.687 18.706 0 0 3.453 22.21 8.957 36.701 0 0-12.816-24.899-35.613-16.777 0 0 4.486 22.556 35.82 21.978 0 0 6.61 22.822 18.785 49.365 0 0-8.673-26.964-40.007-26.385 0 0-1.647 28.465 41.513 33.257 0 0 4.918 15.712 13.895 31.719"/>
        <path fill="#146EB4" d="M83.307 279.08l1.063-2.047s-13.154-10.954-16.177-15.56c0 0 14.597-20.576 2.35-34.526 0 0-16.27 12.126-4.56 32.945 0 0-12.642-10.69-22.843-23.575 0 0 13.71-13.455 2.289-25.242 0 0-11.018 6.189-8.041 19.218 0 0-8.618-9.678-12.043-16.01 0 0 10.136-10.33 1.464-21.987 0 0-7.258 7.709-5.176 17.458l-7.805-12.074s-.37-14.708-13.013-19.98c0 0-3.144 13.964 10.856 20.376l8.83 12.606s-12.281-6.384-18.256 1.776c0 0 13.338 10.183 21.53 3.176 0 0 7.896 11.905 14.923 18.807 0 0-14.014-10.968-25.017-.222 0 0 8.583 11.83 26.518 3.17 0 0 9.88 11.418 23.962 23.506 0 0-12.173-13.26-30.106-4.602 0 0 6.613 16.87 32.802 8.17 0 0 7.013 7.762 16.45 14.618"/>
        <path fill="#FFFFFE" d="M47.853 203.138a4.43 4.43 0 1 1 8.862.002 4.43 4.43 0 0 1-8.862-.002"/>
        <path fill="#548DB6" d="M269.355 85.57l-.343.51h.343v-.51"/>
        <path fill="#146EB4" d="M299.93 220.086c.023.113.07.248.132.393V86.985c0-5.633-4.608-10.241-10.241-10.241h-10.106v9.337h7.236v128.68H93.861V86.08h32.874v-9.337H93.374c-5.632 0-10.24 4.608-10.24 10.241v134.417c.169-.36.374-.71.623-.96l216.172-.356"/>
        <path fill="#35528C" d="M269.355 86.235v-.154h-.343l-.031.045v31.33c0 2.422-1.687 4.463-3.94 5.023l.02.158h-16.868v-9.677l-.041.035v101.67H126.735V86.08H93.86v128.68h193.091V86.08h-7.236v.154h-10.36"/>
        <g transform="translate(93.78 85.407)">
            <mask id="b" fill="#fff">
                <use xlink:href="#a"/>
            </mask>
            <path fill="#E4EFF9" d="M.08 129.353h193.09V.674H.08z" mask="url(#b)"/>
        </g>
        <path fill="#E4EFF9" d="M293.17 224.096l17.392 41.743-235.15.151 15.195-41.572 202.563-.322zm-49.936 69.4l-99.045.013c-4.494.001-7.928-1.38-7.671-3.085l2.498-16.608c.211-1.4 2.675-2.583 5.864-2.963a18.452 18.452 0 0 1 2.328-.147l24.854-.014.032.019 67.121-.039h.409c2.218 0 4.29.388 5.8 1.008h-.408c1.335.549 2.23 1.279 2.39 2.081l3.342 16.639c.343 1.708-3.02 3.094-7.514 3.095zM54.985 296.6l103.86-.011a1.02 1.02 0 0 1-.928-1.015c0-.566.459-1.025 1.025-1.025h63.454a1.023 1.023 0 1 1 .157 2.034l109.965-.01a1.254 1.254 0 0 0 1.142-1.767l-32.587-72.425c-.165-.368-.735-1.25-1.01-1.902a2.174 2.174 0 0 1-.134-.393l-216.172.356c-.25.25-.454.6-.623.96-.253.539-.424 1.1-.538 1.386l-28.774 72.095a1.253 1.253 0 0 0 1.163 1.717z"/>
        <path fill="#95BDCF" d="M297.812 261.239a.62.62 0 0 1-.075.581l.075.198a.623.623 0 0 1-.582.843l-15.894.01a.621.621 0 0 1-.592-.43l-1.84-5.72a.616.616 0 0 1 .079-.536l-.078-.242a.622.622 0 0 1 .592-.813l15.563-.013c.26 0 .492.16.583.401l2.17 5.721zm-24.068.838c.118.4-.18.8-.597.8l-15.923.012a.623.623 0 0 1-.606-.477l-1.375-5.715a.615.615 0 0 1 .075-.466l-.075-.312a.623.623 0 0 1 .604-.769l15.593-.013c.276 0 .52.18.598.444l1.706 5.717a.612.612 0 0 1-.08.518l.08.261zm-19.47-9.41l-1.375-5.715a.618.618 0 0 1 .075-.466l-.075-.313a.622.622 0 0 1 .605-.769l13.01-.013 2.483-.003 22.365-.023c.26 0 .492.16.583.402l2.17 5.72a.618.618 0 0 1-.076.58l.076.198a.623.623 0 0 1-.582.844l-22.459.02-2.544.003-13.65.012a.623.623 0 0 1-.607-.477zm-4.606 9.472a.623.623 0 0 1-.607.756l-16.478.011-6.9.005-17.25.012-6.9.005-17.25.012-6.9.005-17.249.012-23.415.016a.623.623 0 0 1-.615-.724l.064-.387a.614.614 0 0 1-.064-.391l.94-5.7c.05-.301.31-.521.615-.522l23.057-.02 16.847-.014 6.739-.006 16.847-.014 6.738-.005 16.847-.014 6.74-.006 16.343-.014c.294 0 .547.205.61.49l1.241 5.715a.612.612 0 0 1-.073.444l.073.334zm-117.584-15.09l-1.073 5.7a.623.623 0 0 1-.612.507l-13.696.013-2.474.002-22.499.02a.623.623 0 0 1-.593-.817l.078-.237a.614.614 0 0 1-.078-.54L93.005 246a.621.621 0 0 1 .59-.428l22.345-.024 2.414-.002 13.117-.014c.39 0 .684.355.613.738l-.069.363a.614.614 0 0 1 .069.416zm-1.831 9.723l-1.073 5.7a.623.623 0 0 1-.612.506l-15.938.012a.623.623 0 0 1-.606-.772l.076-.307a.62.62 0 0 1-.076-.472l1.404-5.696a.623.623 0 0 1 .605-.474l15.608-.013c.39 0 .685.354.612.737l-.068.364a.616.616 0 0 1 .068.415zm-23.659.067l-1.535 5.696a.623.623 0 0 1-.602.46l-15.912.012a.623.623 0 0 1-.593-.817l.078-.236a.623.623 0 0 1-.078-.543l1.867-5.694a.623.623 0 0 1 .592-.428l15.581-.013c.411 0 .71.389.602.785l-.077.286c.089.14.126.314.077.492zm7.863-29.156l-1.537 5.697a.621.621 0 0 1-.6.46l-14.22.019a.622.622 0 0 1-.592-.817l.077-.237a.611.611 0 0 1-.077-.54l1.865-5.695a.625.625 0 0 1 .591-.429l13.89-.02c.41 0 .709.388.603.784l-.078.287a.62.62 0 0 1 .078.491zm9.018 9.68l-1.292 5.697a.622.622 0 0 1-.606.485l-8.844.01-9.339.01-8.479.01a.623.623 0 0 1-.593-.817l.078-.236a.616.616 0 0 1-.078-.542l1.866-5.695a.625.625 0 0 1 .591-.428l8.656-.01 9.106-.013 8.327-.01c.399 0 .696.37.607.76l-.074.326a.615.615 0 0 1 .074.453zm12.27-10.537l-.068.363a.617.617 0 0 1 .069.415l-1.074 5.7a.623.623 0 0 1-.611.506l-14.246.02a.623.623 0 0 1-.605-.772l.076-.307a.618.618 0 0 1-.076-.472l1.403-5.697a.623.623 0 0 1 .604-.473l13.915-.02c.39-.002.686.353.614.737zm107.569 5.304a.614.614 0 0 1-.073.445l.073.334a.624.624 0 0 1-.607.756l-14.255.019a.623.623 0 0 1-.615-.525l-.911-5.713a.618.618 0 0 1 .062-.384l-.062-.394a.622.622 0 0 1 .613-.72l13.923-.022c.293-.001.548.203.61.49l1.242 5.714zm-24.57 11.307a.624.624 0 0 1-.62-.55l-.68-5.71a.61.61 0 0 1 .054-.328l-.053-.45a.623.623 0 0 1 .617-.697l14.495-.018c.303 0 .562.216.614.514l1.01 5.712a.623.623 0 0 1-.065.406l.066.373a.623.623 0 0 1-.612.732l-14.827.016zm-22.525.026a.625.625 0 0 1-.623-.6l-.216-5.708.023-.18-.023-.599a.623.623 0 0 1 .622-.646l14.506-.018c.32 0 .59.243.62.563l.547 5.71a.625.625 0 0 1-.046.295l.046.484a.622.622 0 0 1-.618.681l-14.838.018zm-22.519.024a.622.622 0 0 1-.622-.649l.025-.585-.025-.194.246-5.705a.623.623 0 0 1 .622-.596l14.508-.018c.34 0 .618.273.624.613l.084 5.707-.01.114.01.665a.623.623 0 0 1-.623.631l-14.839.017zm-22.515.025a.622.622 0 0 1-.618-.7l.054-.442a.621.621 0 0 1-.054-.336l.708-5.701a.624.624 0 0 1 .618-.546l14.503-.02c.36 0 .647.305.622.665l-.035.528a.623.623 0 0 1 .035.25l-.379 5.704a.623.623 0 0 1-.62.582l-14.834.016zm27.115-16.071l-.147 5.704a.623.623 0 0 1-.622.607l-14.273.019a.621.621 0 0 1-.621-.674l.042-.501a.617.617 0 0 1-.042-.278l.477-5.702a.622.622 0 0 1 .62-.571l13.943-.021c.35-.001.632.287.623.638l-.016.628.016.15zm21.581 4.846a.605.605 0 0 1-.031.224l.031.555a.623.623 0 0 1-.621.657l-14.275.018a.622.622 0 0 1-.624-.623l.003-.758-.003-.021.016-5.706c.001-.343.279-.62.621-.62l13.944-.023c.332 0 .605.258.623.589l.316 5.708zm5.766-4.857a.62.62 0 0 1 .04-.27l-.04-.508a.624.624 0 0 1 .62-.673l13.937-.02c.313-.001.576.229.618.538l.78 5.711a.618.618 0 0 1-.059.353l.059.426a.623.623 0 0 1-.617.707l-14.268.019a.625.625 0 0 1-.622-.574l-.448-5.71zm-64.728 4.868l.94-5.7c.05-.3.31-.52.614-.521l13.933-.021c.371-.001.66.32.62.689l-.05.466a.62.62 0 0 1 .05.312l-.61 5.702a.624.624 0 0 1-.618.557l-14.263.019a.623.623 0 0 1-.616-.725l.064-.387a.613.613 0 0 1-.064-.391zm-12.855 9.712l1.171-5.697a.624.624 0 0 1 .61-.498l14.489-.019c.381 0 .672.338.617.714l-.061.41c.055.11.08.236.061.37l-.841 5.699a.622.622 0 0 1-.617.531l-14.82.018a.623.623 0 0 1-.609-.749l.071-.345a.615.615 0 0 1-.071-.434zm26.88 4.967l-.61 5.702a.625.625 0 0 1-.618.557l-15.391.012a.622.622 0 0 1-.616-.723l.064-.387a.617.617 0 0 1-.064-.392l.94-5.7a.623.623 0 0 1 .615-.521l15.06-.016c.371 0 .66.32.62.69l-.049.466c.041.095.061.2.05.312zm22.853-.075l-.147 5.706a.623.623 0 0 1-.622.606l-15.4.014a.623.623 0 0 1-.622-.675l.042-.5a.615.615 0 0 1-.042-.278l.478-5.703a.622.622 0 0 1 .62-.571l15.07-.015c.351-.001.633.287.623.638l-.015.628.015.15zm23.16 5.635a.622.622 0 0 1-.62.656l-15.403.014a.623.623 0 0 1-.623-.624l.002-.759-.002-.02.014-5.706c.001-.343.28-.62.622-.62l15.073-.017c.33 0 .605.258.622.589l.316 5.708a.603.603 0 0 1-.03.224l.03.555zm23.302-.071a.624.624 0 0 1-.617.706l-15.396.014a.624.624 0 0 1-.622-.575l-.448-5.709a.617.617 0 0 1 .04-.27l-.04-.508a.623.623 0 0 1 .62-.671l15.066-.016c.312 0 .575.23.617.538l.78 5.712a.618.618 0 0 1-.059.352l.059.427zm23.291-.07a.623.623 0 0 1-.608.755l-15.382.015a.624.624 0 0 1-.615-.525l-.911-5.713a.618.618 0 0 1 .063-.385l-.063-.393a.622.622 0 0 1 .613-.721l15.052-.016c.293 0 .547.204.61.49l1.241 5.715a.61.61 0 0 1-.072.443l.072.336zm9.13-9.779a.623.623 0 0 1-.601.779l-14.808.016a.622.622 0 0 1-.612-.501l-1.143-5.714a.612.612 0 0 1 .07-.427l-.07-.35a.623.623 0 0 1 .61-.746l14.477-.02c.285 0 .534.193.603.469l1.475 5.715a.61.61 0 0 1-.077.482l.077.297zm33.736-.103a.623.623 0 0 1-.58.844l-8.366.008-9.267.011-8.794.01a.621.621 0 0 1-.6-.455l-1.598-5.717a.617.617 0 0 1 .077-.5l-.077-.278a.623.623 0 0 1 .598-.79l8.216-.012 9.036-.011 8.604-.01c.259-.001.49.159.583.4l2.168 5.721c.079.207.04.42-.074.581l.074.198zm-20.912-15.04a.613.613 0 0 1 .077-.537l-.077-.242a.622.622 0 0 1 .592-.812l13.87-.022c.26 0 .492.16.584.402l2.169 5.722c.078.206.039.42-.075.58l.075.197a.622.622 0 0 1-.581.844l-14.202.02a.624.624 0 0 1-.594-.433l-1.838-5.719zm-21.293-.013a.613.613 0 0 1 .075-.464l-.075-.313a.623.623 0 0 1 .606-.769l13.899-.022c.276 0 .52.181.598.446l1.705 5.717a.612.612 0 0 1-.077.517l.077.262c.12.398-.18.8-.596.8l-14.23.02a.623.623 0 0 1-.607-.478l-1.375-5.716zM75.412 265.99l235.15-.15-17.392-41.744-202.563.322-15.195 41.572z"/>
        <use fill="#FAFAFA" transform="translate(75.359 223.565)" xlink:href="#c"/>
        <path fill="#BBD8E7" d="M104.457 262.217l-15.912.012a.62.62 0 0 1-.515-.275l-.078.236a.623.623 0 0 0 .593.817l15.912-.011c.282 0 .529-.19.602-.46l1.535-5.697a.612.612 0 0 0-.077-.492l-1.458 5.41a.622.622 0 0 1-.602.46M128.568 262.201l-15.938.01a.617.617 0 0 1-.53-.3l-.076.307a.623.623 0 0 0 .606.772l15.938-.012c.3 0 .556-.213.612-.506l1.073-5.7a.616.616 0 0 0-.068-.415l-1.005 5.336a.624.624 0 0 1-.612.508M249.061 262.117l-16.478.011-6.9.005-17.25.011-6.9.005-17.25.013-6.9.005-17.249.011-23.415.017a.624.624 0 0 1-.551-.333l-.064.387c-.063.38.23.724.615.724l23.415-.016 17.25-.012 6.9-.005 17.249-.012 6.9-.005 17.25-.012 6.9-.005 16.478-.01a.623.623 0 0 0 .607-.757l-.073-.334a.617.617 0 0 1-.534.312M273.147 262.099l-15.923.012a.623.623 0 0 1-.606-.478l-1.3-5.402a.615.615 0 0 0-.075.466l1.375 5.715c.067.28.318.477.606.477l15.923-.011a.623.623 0 0 0 .597-.8l-.08-.262a.613.613 0 0 1-.517.283M297.23 262.082l-15.894.012a.62.62 0 0 1-.592-.433l-1.761-5.476a.616.616 0 0 0-.078.537l1.839 5.719a.621.621 0 0 0 .592.43l15.894-.01a.623.623 0 0 0 .582-.843l-.075-.198a.616.616 0 0 1-.507.262M130.4 252.477l-13.697.013-2.474.002-22.499.02a.617.617 0 0 1-.515-.275l-.078.237a.623.623 0 0 0 .593.817l22.499-.02 2.474-.002 13.696-.013a.623.623 0 0 0 .612-.507l1.073-5.7a.614.614 0 0 0-.069-.415l-1.004 5.337a.623.623 0 0 1-.612.506M153.716 252.457l-15.391.013a.622.622 0 0 1-.552-.332l-.064.387c-.063.38.23.724.616.723l15.391-.012a.625.625 0 0 0 .619-.557l.61-5.702a.616.616 0 0 0-.05-.312l-.56 5.235a.624.624 0 0 1-.619.557M177.028 252.435l-15.4.015a.622.622 0 0 1-.58-.397l-.042.5a.623.623 0 0 0 .621.675l15.401-.014c.338 0 .614-.27.622-.606l.147-5.706-.015-.15-.132 5.077a.623.623 0 0 1-.622.606M200.337 252.414l-15.403.015a.622.622 0 0 1-.621-.605l-.002.759c0 .344.279.624.623.624l15.403-.014c.357 0 .64-.3.62-.656l-.03-.555a.621.621 0 0 1-.59.432M223.642 252.394l-15.396.014a.624.624 0 0 1-.622-.574l-.408-5.201a.617.617 0 0 0-.04.27l.448 5.708a.624.624 0 0 0 .622.575l15.396-.014a.624.624 0 0 0 .617-.706l-.059-.427a.622.622 0 0 1-.558.355M246.942 252.373l-15.382.014a.624.624 0 0 1-.615-.525l-.848-5.319a.618.618 0 0 0-.063.385l.91 5.713c.05.302.31.525.616.525l15.382-.015a.623.623 0 0 0 .608-.754l-.072-.336a.618.618 0 0 1-.536.312M271.074 253.13l22.459-.02a.623.623 0 0 0 .582-.845l-.076-.197a.617.617 0 0 1-.506.263l-22.459.02-2.544.002-13.65.012a.623.623 0 0 1-.607-.476l-1.3-5.403a.618.618 0 0 0-.074.466l1.374 5.715c.068.28.319.478.607.477l13.65-.012 2.544-.002M121.577 242.767l-8.844.01-9.339.01-8.479.01a.616.616 0 0 1-.515-.275l-.078.236a.623.623 0 0 0 .593.817l8.479-.01 9.34-.01 8.843-.01c.29 0 .542-.201.606-.485l1.292-5.697a.615.615 0 0 0-.074-.453l-1.218 5.372a.623.623 0 0 1-.606.485M128.674 243.538l14.82-.018c.31 0 .57-.226.616-.531l.841-5.7a.615.615 0 0 0-.061-.368l-.78 5.29a.622.622 0 0 1-.617.53l-14.82.018a.619.619 0 0 1-.538-.315l-.071.345a.623.623 0 0 0 .61.749M166.64 242.914l.378-5.704a.623.623 0 0 0-.035-.25l-.344 5.176a.623.623 0 0 1-.62.581l-14.834.017a.62.62 0 0 1-.564-.364l-.054.442c-.047.373.244.7.618.7l14.834-.016c.327 0 .6-.255.62-.582M189.162 242.839l-.01-.665a.623.623 0 0 1-.613.518l-14.839.016a.619.619 0 0 1-.597-.455l-.025.585a.622.622 0 0 0 .622.649l14.84-.017a.623.623 0 0 0 .622-.631M211.675 242.764l-.046-.484a.62.62 0 0 1-.572.386l-14.838.017a.623.623 0 0 1-.623-.599l-.193-5.109-.023.18.216 5.708c.014.334.29.6.623.6l14.838-.018a.622.622 0 0 0 .618-.681M234.182 242.689l-.066-.373a.622.622 0 0 1-.546.326l-14.827.017a.624.624 0 0 1-.62-.55l-.625-5.26a.61.61 0 0 0-.053.328l.679 5.71c.037.314.304.55.62.55l14.826-.016c.387-.001.679-.351.612-.732M256.079 242.617l-14.808.016a.623.623 0 0 1-.612-.5l-1.072-5.363a.612.612 0 0 0-.07.427l1.142 5.714a.622.622 0 0 0 .612.5l14.808-.015a.623.623 0 0 0 .602-.779l-.077-.297a.615.615 0 0 1-.525.297M289.835 242.58l-8.365.009-9.267.01-8.794.01a.621.621 0 0 1-.6-.456l-1.52-5.438a.617.617 0 0 0-.078.5l1.599 5.717c.074.27.32.455.6.455l8.793-.01 9.267-.01 8.365-.009a.623.623 0 0 0 .581-.844l-.074-.198a.617.617 0 0 1-.507.263M112.92 232.601a.622.622 0 0 1-.6.46l-14.22.02a.618.618 0 0 1-.515-.276l-.077.237a.622.622 0 0 0 .592.817l14.22-.02a.621.621 0 0 0 .6-.46l1.537-5.696a.62.62 0 0 0-.078-.491l-1.459 5.409M134.672 232.525a.623.623 0 0 1-.611.507l-14.246.02a.617.617 0 0 1-.53-.301l-.075.307a.623.623 0 0 0 .605.772l14.246-.02a.623.623 0 0 0 .611-.507l1.074-5.7a.617.617 0 0 0-.07-.414l-1.004 5.336M141.535 233.8l14.263-.018c.318-.001.584-.24.619-.557l.61-5.702a.62.62 0 0 0-.05-.312l-.56 5.235a.624.624 0 0 1-.62.557l-14.262.02a.62.62 0 0 1-.552-.334l-.064.387c-.062.38.23.726.616.725M178.153 232.367a.623.623 0 0 1-.622.607l-14.273.019a.62.62 0 0 1-.58-.397l-.041.5a.621.621 0 0 0 .621.675l14.273-.019c.337 0 .613-.27.622-.607l.147-5.704-.016-.151-.131 5.077M199.26 232.944l-14.275.02a.623.623 0 0 1-.621-.604l-.003.758c0 .345.28.624.624.623l14.275-.018c.357 0 .641-.3.621-.657l-.031-.555a.62.62 0 0 1-.59.433M206.095 233.14a.625.625 0 0 0 .622.573l14.268-.02a.623.623 0 0 0 .617-.706l-.059-.426a.62.62 0 0 1-.558.354l-14.268.02a.624.624 0 0 1-.622-.574l-.408-5.202a.62.62 0 0 0-.04.27l.448 5.71M242.707 232.886l-14.255.019a.622.622 0 0 1-.615-.525l-.849-5.318a.618.618 0 0 0-.062.384l.91 5.713c.05.302.31.525.616.525l14.255-.019a.624.624 0 0 0 .607-.756l-.073-.334a.619.619 0 0 1-.534.311M250.192 233.654l14.231-.019a.623.623 0 0 0 .596-.8l-.077-.262a.615.615 0 0 1-.519.284l-14.23.019a.623.623 0 0 1-.607-.477l-1.3-5.402a.613.613 0 0 0-.075.464l1.375 5.716c.068.28.318.478.606.477M271.936 233.626l14.202-.02a.622.622 0 0 0 .58-.844l-.074-.198a.613.613 0 0 1-.506.264l-14.202.02a.624.624 0 0 1-.594-.434l-1.76-5.477a.613.613 0 0 0-.078.537l1.838 5.719a.624.624 0 0 0 .594.433"/>
        <path fill="#548DB6" d="M172.313 270.71l66.925-.038h-.023l-67.12.039h.218"/>
        <path fill="#E6E7E8" d="M223.42 295.574c0-.566-.458-1.025-1.024-1.025h-63.454c-.566 0-1.025.46-1.025 1.025 0 .534.408.966.928 1.015l.097.01h63.454l.156-.016c.49-.076.869-.497.869-1.009"/>
        <path fill="#F58A07" d="M105.992 255.276l-15.581.013a.623.623 0 0 0-.592.428l-1.867 5.694a.623.623 0 0 0 .593.818l15.912-.012a.622.622 0 0 0 .602-.46l1.535-5.696a.623.623 0 0 0-.602-.785"/>
        <path fill="#146EB4" d="M129.64 255.256l-15.607.013a.623.623 0 0 0-.605.474l-1.404 5.696a.62.62 0 0 0 .076.472c.108.177.301.3.53.3l15.938-.01c.3 0 .556-.213.612-.508l1.005-5.336.068-.364a.621.621 0 0 0-.612-.737M249.668 261.361l-1.242-5.714a.624.624 0 0 0-.61-.491l-16.343.014-6.739.006-16.847.014-6.738.005-16.847.014-6.739.006-16.847.015-23.057.019a.625.625 0 0 0-.615.521l-.94 5.7a.624.624 0 0 0 .615.724l23.415-.016 17.25-.011 6.9-.005 17.249-.013 6.9-.005 17.25-.01 6.9-.006 16.478-.011a.617.617 0 0 0 .534-.312.612.612 0 0 0 .073-.444"/>
        <path fill="#F58A07" d="M273.744 261.298l-1.706-5.717a.624.624 0 0 0-.598-.444l-15.593.013c-.401 0-.699.377-.604.769l.075.312 1.3 5.402c.067.28.318.478.606.478l15.923-.012c.223 0 .409-.116.518-.283a.612.612 0 0 0 .079-.518M295.06 255.117l-15.563.013a.622.622 0 0 0-.592.813l1.839 5.718a.62.62 0 0 0 .592.433l15.894-.012a.62.62 0 0 0 .582-.843l-2.17-5.72a.622.622 0 0 0-.582-.402"/>
        <path fill="#146EB4" d="M131.471 245.533l-13.117.014-2.414.002-22.344.024a.621.621 0 0 0-.591.428l-1.868 5.695a.614.614 0 0 0 .078.541c.11.163.295.275.515.275l22.499-.02 2.474-.002 13.696-.013a.623.623 0 0 0 .612-.506l1.004-5.337.069-.363a.624.624 0 0 0-.613-.738M154.325 245.51l-15.061.015a.623.623 0 0 0-.615.522l-.94 5.7a.622.622 0 0 0 .615.723l15.392-.013c.317 0 .585-.24.619-.557l.56-5.235.05-.467a.623.623 0 0 0-.62-.689"/>
        <path fill="#FFC53A" d="M177.175 245.486l-15.071.015a.622.622 0 0 0-.62.57l-.478 5.704a.622.622 0 0 0 .621.675l15.401-.015c.338 0 .614-.27.622-.606l.132-5.077.015-.628a.621.621 0 0 0-.622-.638"/>
        <path fill="#F58A07" d="M200.642 246.05a.623.623 0 0 0-.622-.59l-15.073.017a.623.623 0 0 0-.622.62l-.014 5.708.002.02c.01.334.283.605.621.604l15.403-.015a.621.621 0 0 0 .62-.656l-.315-5.708M224.259 251.687l-.78-5.712a.621.621 0 0 0-.617-.538l-15.067.016a.623.623 0 0 0-.62.67l.04.51.409 5.201a.624.624 0 0 0 .622.574l15.396-.014c.25 0 .458-.148.558-.355a.618.618 0 0 0 .059-.352M247.55 251.618l-1.241-5.715a.624.624 0 0 0-.61-.49l-15.052.016a.622.622 0 0 0-.613.72l.91 5.713c.05.302.31.525.616.525l15.382-.014a.618.618 0 0 0 .536-.312.61.61 0 0 0 .072-.443"/>
        <path fill="#146EB4" d="M254.88 252.365l13.65-.012 2.544-.002 22.459-.02a.617.617 0 0 0 .506-.263.618.618 0 0 0 .076-.58l-2.17-5.721a.62.62 0 0 0-.583-.402l-22.365.023-2.483.003-13.01.013c-.403.001-.7.377-.605.77l.075.312 1.3 5.403c.067.28.318.477.606.476"/>
        <path fill="#F58A07" d="M122.868 235.824l-8.327.01-9.106.012-8.656.011a.625.625 0 0 0-.591.428l-1.866 5.695a.616.616 0 0 0 .078.542c.11.163.295.275.515.275l8.479-.01 9.34-.01 8.843-.01c.29 0 .542-.202.606-.485l1.218-5.372.074-.326a.623.623 0 0 0-.607-.76M128.674 242.76l14.82-.018c.31 0 .57-.226.616-.531l.78-5.29.061-.41a.623.623 0 0 0-.617-.715l-14.489.019a.624.624 0 0 0-.61.498l-1.171 5.697a.615.615 0 0 0 .071.434.619.619 0 0 0 .539.315"/>
        <path fill="#FFC53A" d="M151.185 242.734l14.834-.017c.327 0 .6-.255.62-.58l.379-5.705a.622.622 0 0 0-.622-.664l-14.503.019a.624.624 0 0 0-.618.546l-.708 5.701a.621.621 0 0 0 .054.336.62.62 0 0 0 .564.364M173.7 242.708l14.84-.016a.623.623 0 0 0 .612-.518l.01-.114-.084-5.707a.623.623 0 0 0-.624-.613l-14.508.018a.623.623 0 0 0-.622.596l-.246 5.705.025.194c.073.261.31.456.597.455"/>
        <path fill="#F58A07" d="M196.22 242.683l14.837-.017a.62.62 0 0 0 .572-.386.625.625 0 0 0 .046-.295l-.546-5.71a.624.624 0 0 0-.62-.563l-14.507.018a.623.623 0 0 0-.622.646l.216 5.708c.014.335.29.6.623.6"/>
        <path fill="#E6E7E8" d="M218.743 242.659l14.827-.017a.622.622 0 0 0 .612-.732l-1.01-5.712a.621.621 0 0 0-.615-.514l-14.495.018a.623.623 0 0 0-.617.696l.679 5.71c.037.315.304.55.62.55"/>
        <path fill="#F58A07" d="M256.68 241.838l-1.474-5.715a.621.621 0 0 0-.603-.468l-14.476.019a.623.623 0 0 0-.61.745l.07.351 1.072 5.363c.059.29.314.5.612.5l14.808-.016a.615.615 0 0 0 .525-.297.61.61 0 0 0 .077-.482"/>
        <path fill="#146EB4" d="M290.416 241.735l-2.168-5.72a.622.622 0 0 0-.583-.401l-8.604.01-9.036.011-8.216.011a.623.623 0 0 0-.598.79l1.599 5.717c.074.27.32.456.6.456l8.793-.01 9.267-.01 8.365-.01a.617.617 0 0 0 .507-.263.618.618 0 0 0 .074-.58"/>
        <path fill="#F58A07" d="M113.854 226.12l-13.89.021a.625.625 0 0 0-.59.429l-1.866 5.694a.611.611 0 0 0 .077.541c.11.164.295.276.515.276l14.22-.02c.281 0 .527-.189.6-.46l1.459-5.41.078-.286a.624.624 0 0 0-.603-.785M121.217 226.11a.623.623 0 0 0-.604.472l-1.403 5.697a.618.618 0 0 0 .076.472c.108.177.3.3.529.3l14.246-.019a.623.623 0 0 0 .611-.507l1.005-5.336.069-.363a.623.623 0 0 0-.614-.738l-13.915.021"/>
        <path fill="#146EB4" d="M141.535 233.022l14.263-.02c.318 0 .584-.24.619-.556l.56-5.235.05-.466a.623.623 0 0 0-.62-.69l-13.934.022a.624.624 0 0 0-.613.521l-.94 5.7a.62.62 0 0 0 .615.724"/>
        <path fill="#FFC53A" d="M177.677 226.024l-13.943.02a.622.622 0 0 0-.62.572l-.477 5.702a.617.617 0 0 0 .042.278.62.62 0 0 0 .58.397l14.272-.02c.337 0 .613-.27.622-.606l.131-5.077.016-.628a.621.621 0 0 0-.623-.638M198.942 225.99l-13.944.022a.622.622 0 0 0-.62.62l-.017 5.707.003.02c.01.336.284.605.621.605l14.275-.02a.62.62 0 0 0 .59-.433.605.605 0 0 0 .031-.224l-.316-5.708a.622.622 0 0 0-.623-.589"/>
        <path fill="#F58A07" d="M206.095 232.36a.624.624 0 0 0 .622.574l14.268-.019a.62.62 0 0 0 .558-.354.618.618 0 0 0 .059-.353l-.78-5.711a.622.622 0 0 0-.618-.539l-13.938.021a.624.624 0 0 0-.62.673l.041.507.408 5.202M242.072 226.417a.622.622 0 0 0-.61-.491l-13.923.022a.622.622 0 0 0-.613.72l.91 5.712c.05.304.31.526.616.525l14.255-.019a.619.619 0 0 0 .534-.311.614.614 0 0 0 .073-.445l-1.242-5.713"/>
        <path fill="#146EB4" d="M249.586 232.4c.068.279.318.476.606.476l14.231-.019c.223 0 .41-.116.519-.284a.612.612 0 0 0 .077-.517l-1.705-5.717a.624.624 0 0 0-.598-.446l-13.9.022c-.403 0-.699.377-.605.769l1.375 5.715M271.342 232.414a.624.624 0 0 0 .594.433l14.202-.02a.613.613 0 0 0 .506-.263.614.614 0 0 0 .075-.58l-2.169-5.72a.623.623 0 0 0-.584-.403l-13.87.022a.622.622 0 0 0-.592.812l.077.242 1.761 5.477"/>
        <path fill="#FFF" stroke="#146EB4" stroke-width=".875" d="M254.46 68.468c2.331.503 4.093 2.585 4.093 5.06l.068.517v43.412c0 2.85 2.33 5.18 5.18 5.18.427 0 .842-.058 1.24-.158 2.253-.56 3.94-2.6 3.94-5.022V86.126l.03-.045.344-.512V35.804c0-2.85 2.331-5.18 5.18-5.18 2.85 0 5.18 2.33 5.18 5.18v.752l.17-1.16a4.787 4.787 0 0 0-4.774-4.772H170.388c-2.626 0-4.774 2.148-4.774 4.773v32.952h88.1c.32 0 .564.042.747.119"/>
        <path fill="#BBD8E7" d="M248.193 84.04l-.041.068v28.887l.04-.035V84.04"/>
        <path fill="#548DB6" d="M126.735 86.08h38.879v-9.336h-38.879z"/>
        <path fill="#213B83" d="M143.08 202.31h74.72c1.074 0 1.946.87 1.946 1.945v.485a1.946 1.946 0 0 1-1.946 1.946h-74.72a1.945 1.945 0 0 1-1.945-1.946v-.485c0-1.074.87-1.945 1.945-1.945zm-1.945-8.145c0-1.076.87-1.947 1.945-1.947h74.72c1.074 0 1.946.871 1.946 1.947v.484a1.946 1.946 0 0 1-1.946 1.945h-74.72a1.945 1.945 0 0 1-1.945-1.945v-.484zm0-10.093c0-1.074.87-1.945 1.945-1.945h74.72c1.074 0 1.946.871 1.946 1.945v.484a1.946 1.946 0 0 1-1.946 1.946h-74.72a1.946 1.946 0 0 1-1.945-1.946v-.484zm0-10.188c0-1.075.87-1.946 1.945-1.946h74.72c1.074 0 1.946.87 1.946 1.946v.484a1.946 1.946 0 0 1-1.946 1.945h-74.72a1.945 1.945 0 0 1-1.945-1.945v-.484zm0-10.092c0-1.075.87-1.945 1.945-1.945h74.72c1.074 0 1.946.87 1.946 1.945v.484a1.946 1.946 0 0 1-1.946 1.946h-74.72a1.945 1.945 0 0 1-1.945-1.946v-.484zm92.008 27.36c3.492 0 5.143 2.677 5.143 5.855 0 2.845-.899 4.894-2.383 6.274-1.297 1.17-3.095 1.799-5.207 1.882-.523.042-1.088.02-1.443 0v-2.468c.418.042.753.022 1.38 0 .983-.062 1.965-.334 2.677-.836a4.098 4.098 0 0 0 1.715-2.53l-.042-.022c-.606.628-1.506.983-2.74.983-2.3 0-4.224-1.588-4.224-4.244 0-2.656 2.134-4.893 5.124-4.893zm-2.698-17.405c1.339-1.234 3.116-1.881 5.227-1.986a6.778 6.778 0 0 1 1.276-.022v2.447c-.355-.02-.731 0-1.233.042-2.823.231-4.078 1.673-4.434 3.241h.063c.67-.669 1.631-1.066 2.886-1.066 2.279 0 4.203 1.61 4.203 4.434 0 2.697-2.07 4.914-4.997 4.914-3.64 0-5.417-2.698-5.417-5.939 0-2.551.941-4.685 2.426-6.065zm-1.59-10.608c.586.293 1.82.67 3.053.67 1.318 0 2.72-.628 2.72-2.071 0-1.401-1.11-2.259-3.827-2.259-.753 0-1.276.042-1.82.125l.879-7.13h7.485v2.615h-5.269l-.292 2.09c.292-.042.543-.042.878-.042 1.296 0 2.634.294 3.575.983 1.025.69 1.652 1.82 1.652 3.408 0 2.532-2.174 4.768-5.834 4.768-1.652 0-3.032-.377-3.785-.773l.586-2.384zm19.297 51.526v-101.67c-.545.48-.952.747-1.186.747l-6.449 3.616v28.583h-50.974l-10.368 5.813H217.8c1.074 0 1.946.871 1.946 1.946v.484a1.946 1.946 0 0 1-1.946 1.946h-46.428l-.984.552a4.728 4.728 0 0 1-2.216-.552H143.08a1.946 1.946 0 0 1-1.945-1.946v-.484c0-1.075.87-1.946 1.945-1.946h22.534v-5.813h-24.48V90.712h24.48v-4.631h-38.879v128.584h121.417z"/>
        <path fill="#146EB4" d="M222.552 294.592l-.157.03H56.151c-.708 0-1.983.15-2-1.017-.391 1.457-.531 2.552-.42 3.286.167 1.1.544 2.2 1.254 2.2l277.533-.048c.758 0 1.633-.924 1.633-2.438 0-1.008-.5-2.342-1.5-4 .5 1 .545 1.967-.133 1.967l-109.966.02z"/>
        <path fill="#213B83" d="M233.1 198.032c.88 0 1.486-.398 1.778-.878.105-.209.147-.418.147-.816.02-1.442-.523-2.864-2.008-2.864-1.067 0-1.84.962-1.84 2.384 0 1.171.649 2.174 1.924 2.174M233.394 183.408c1.108 0 1.82-1.025 1.82-2.404 0-1.255-.67-2.342-2.03-2.342-.857 0-1.568.522-1.86 1.192-.105.188-.147.439-.147.815.062 1.443.753 2.74 2.217 2.74"/>
        <path fill="#BBD8E7" d="M165.614 86.08v4.632h74.903v26.646l6.449-3.616c.234 0 .641-.267 1.186-.747V84.108l.04-.069V73.53c0-2.848 2.332-5.18 5.18-5.18.373 0 .737.043 1.089.119-.183-.077-.426-.12-.748-.12h-88.1v17.733M165.614 151.754h13.56l10.37-5.813h-23.93v5.813"/>
        <g transform="translate(164.952 145.694)">
            <mask id="e" fill="#fff">
                <use xlink:href="#d"/>
            </mask>
            <path fill="#E3F2F7" d="M.661 6.06h2.355V.248H.661z" mask="url(#e)"/>
            <path fill="#E4F3F8" d="M3.016 6.06h2.553V.248H3.016z" mask="url(#e)"/>
            <path fill="#E5F3F7" d="M5.569 6.06h2.552V.248H5.57z" mask="url(#e)"/>
            <path fill="#E6F4F8" d="M8.121 6.06h2.552V.248H8.121z" mask="url(#e)"/>
            <path fill="#E8F4F8" d="M10.673 6.06h2.552V.248h-2.552z" mask="url(#e)"/>
            <path fill="#E9F4F8" d="M13.225 6.06h2.553V.248h-2.553z" mask="url(#e)"/>
            <path fill="#EAF5F9" d="M15.778 6.06h2.552V.248h-2.552z" mask="url(#e)"/>
            <path fill="#EBF5F9" d="M18.33 6.06h2.552V.248H18.33z" mask="url(#e)"/>
            <path fill="#EBF6F9" d="M20.882 6.06h2.552V.248h-2.552z" mask="url(#e)"/>
            <path fill="#EEF7F9" d="M23.434 6.06h1.157V.248h-1.157z" mask="url(#e)"/>
        </g>
        <path fill="#BBD8E7" d="M170.388 156.682l.984-.552h-3.2c.663.351 1.417.552 2.216.552"/>
        <g transform="translate(167.464 155.742)">
            <mask id="g" fill="#fff">
                <use xlink:href="#f"/>
            </mask>
            <path fill="#E4F3F8" d="M.708.94h2.35V.39H.707z" mask="url(#g)"/>
            <path fill="#E5F3F7" d="M3.057.94h.85V.39h-.85z" mask="url(#g)"/>
        </g>
        <path fill="#0E4E80" d="M248.193 112.96v9.677h16.868l-.02-.158c-.398.1-.813.158-1.24.158-2.85 0-5.18-2.33-5.18-5.18V74.045l-.068-.517c0-2.475-1.762-4.557-4.092-5.06a5.137 5.137 0 0 0-1.089-.12c-2.848 0-5.18 2.333-5.18 5.18v39.432M274.535 30.624c-2.849 0-5.18 2.33-5.18 5.18v50.43h10.36v-50.43c0-2.85-2.33-5.18-5.18-5.18"/>
        <use fill="#FFF" stroke="#146EB4" stroke-width=".875" transform="translate(126.435 67.823)" xlink:href="#h"/>
        <path fill="#3B6FA9" d="M253.713 68.349h-.34c.372 0 .736.043 1.088.119-.183-.077-.426-.12-.748-.12"/>
        <path fill="#BBD8E7" d="M171.134 99.106c0 9.895-8.02 17.915-17.913 17.915-9.894 0-17.914-8.02-17.914-17.915 0-9.893 8.02-17.913 17.914-17.913 9.893 0 17.913 8.02 17.913 17.913"/>
        <g transform="translate(134.809 80.383)">
            <mask id="j" fill="#fff">
                <use xlink:href="#i"/>
            </mask>
            <use fill="#FFC53A" xlink:href="#i"/>
            <path fill="#F58A07" d="M5.89 74.305s5.76-2.36 12.65-2.833c6.893-.471 11.707 0 11.707 0s1.473-36.4-.32-38.03c-1.794-1.628.942-3.194-3.389-5.846-2.627-1.607-10.357-2.29-12.245-1.251-1.888 1.038-7.672 4.524-7.672 4.524l-.73 43.436" mask="url(#j)"/>
            <path fill="#F58A07" d="M11.725 27.825s-8.361 4.345-9.636 7.178c-1.274 2.832-4.394 9.383-5.381 17.984-.486 4.23 1.133 33.704 7.08 33.987 5.948.284.411-6.508-.424-15.435-.212-2.26-.567-20.534 1.557-25.49 2.124-4.957 6.804-18.224 6.804-18.224M26.993 27.901c-4.653-2.093-1.626 7.191-1.69 9.712-.062 2.52 4.282 17.019 4.776 19.461.495 2.443 7.528 17.832 9.049 20.393.481.81 3.374 5.981 6.616 3.11 3.242-2.872-4.505-13.278-7.7-21.33-3.193-8.052-4.731-15.709-5.254-19.162-.522-3.453-3.174-11.003-5.797-12.184" mask="url(#j)"/>
            <path fill="#FFFFFE" d="M18.67 31.214a5.077 5.077 0 0 1-5.03-4.393l-1.194-8.766h12.227l-.955 8.64a5.08 5.08 0 0 1-5.048 4.52" mask="url(#j)"/>
            <path fill="#FFFFFE" d="M26.538 10.459a7.979 7.979 0 1 1-15.957 0 7.979 7.979 0 0 1 15.957 0" mask="url(#j)"/>
            <path fill="#FFFFFE" d="M26.538 10.68c0 4.405-3.572 15.354-7.979 15.354-4.405 0-7.977-10.949-7.977-15.355 0-4.407 3.572-.602 7.977-.602 4.407 0 7.979-3.805 7.979.602" mask="url(#j)"/>
            <path fill="#25335B" d="M13.648 21.142s1.083 6.495 4.812 6.454c3.727-.04 5.01-6.454 5.01-6.454h-9.822" mask="url(#j)"/>
            <path fill="#FFFFFE" d="M26.538 10.68c0 4.405-3.572 15.354-7.979 15.354-4.405 0-7.977-10.949-7.977-15.355 0-4.407 3.572-.602 7.977-.602 4.407 0 7.979-3.805 7.979.602" mask="url(#j)"/>
            <path fill="#0E4E80" d="M26.536 10.533l.002-.074a7.978 7.978 0 0 0-7.979-7.977 7.977 7.977 0 0 0-7.977 7.977l.002.074-.002.146c0 .717.095 1.61.272 2.598 1.157.035 2.485-1.06 3.188-2.737.203-.485.335-.973.4-1.442 1.298.377 2.842.596 4.499.596 1.395 0 2.71-.154 3.866-.429.073.395.19.8.358 1.205.689 1.64 1.975 2.724 3.113 2.737.169-.96.26-1.827.26-2.528l-.002-.146" mask="url(#j)"/>
            <path fill="#0E4E80" d="M12.726 19.865c-1.147 0-2.069-1.07-2.038-2.367l-.106-7.443 2.144.61v9.2" mask="url(#j)"/>
            <path fill="#FFFFFE" d="M13.303 18.107s-1.112.276-1.171-.968c-.06-1.244-.013-2.045-.562-1.842-.55.203-.372 3.252.753 3.994 1.124.742 1.04-.131 1.208 1.004.168 1.137.586.157.586.157l.741-1.843-1.555-.502" mask="url(#j)"/>
            <path fill="#0E4E80" d="M24.394 19.865c1.147 0 2.068-1.07 2.038-2.367l.106-7.443-2.144.61v9.2" mask="url(#j)"/>
            <path fill="#FFFFFE" d="M23.816 18.107s1.112.276 1.172-.968c.06-1.244.012-2.045.562-1.842.55.203.37 3.252-.753 3.994-1.124.742-1.04-.131-1.208 1.004-.167 1.137-.586.157-.586.157l-.742-1.843 1.555-.502" mask="url(#j)"/>
            <path fill="#0E4E80" d="M11.657 15.437h.585v-4.352s1.113 1.911 3.979 1.911c2.863 0 4.031-1.592 4.72-2.229.69-.635 1.22-1.484 2.176-1.484.954 0 1.22.849 1.22 1.75v4.721h.637s.902-5.835.848-7.373c-.053-1.54-1.114-6.102-5.358-6.102-4.243 0-3.979 2.07-7.374 2.76-3.396.69-1.433 10.398-1.433 10.398M12.347 17.77v8.383s0 4.297 5.677 4.297c5.676 0 6.472-2.918 6.472-3.979v-8.753s-.742.265-.742 1.113c0 .85-.16 2.122-.955 2.122-.796 0-.69-2.81-2.282-2.81h-4.244s-1.061.264-1.168 1.59c-.105 1.326-1.22 1.433-1.22 1.433s-.902.106-.902-2.335c0 0 .054-.848-.636-1.06" mask="url(#j)"/>
        </g>
        <path fill="#F58A07" d="M230.853 93.835h-45.448a3.54 3.54 0 0 1-3.53-3.53v-1.323a3.54 3.54 0 0 1 3.53-3.53h45.448a3.54 3.54 0 0 1 3.53 3.53v1.324a3.54 3.54 0 0 1-3.53 3.53"/>
        <path fill="#72C3FF" d="M230.853 107.072h-45.448a3.54 3.54 0 0 1-3.53-3.53v-1.323a3.54 3.54 0 0 1 3.53-3.53h45.448a3.54 3.54 0 0 1 3.53 3.53v1.323a3.54 3.54 0 0 1-3.53 3.53M134.691 131.12a5.928 5.928 0 1 1 11.857 0 5.928 5.928 0 0 1-11.857 0M134.691 150.231a5.928 5.928 0 1 1 11.857 0 5.928 5.928 0 0 1-11.857 0"/>
        <path fill="#146EB4" d="M134.691 169.342a5.928 5.928 0 1 1 11.857 0 5.928 5.928 0 0 1-11.857 0"/>
        <path fill="#72C3FF" d="M134.691 188.453a5.928 5.928 0 1 1 11.857 0 5.928 5.928 0 0 1-11.857 0"/>
        <path fill="#146EB4" d="M209.891 129.87H153.36c-1.061 0-1.93-.868-1.93-1.93v-.112c0-1.061.869-1.93 1.93-1.93h56.532c1.061 0 1.93.869 1.93 1.93v.113c0 1.06-.869 1.93-1.93 1.93"/>
        <path fill="#72C3FF" d="M237.46 136.047h-84.101c-1.061 0-1.93-.868-1.93-1.928v-.114c0-1.061.869-1.93 1.93-1.93h84.1c1.063 0 1.93.869 1.93 1.93v.114c0 1.06-.867 1.928-1.93 1.928M209.891 149.481H153.36c-1.061 0-1.93-.867-1.93-1.928v-.113c0-1.062.869-1.93 1.93-1.93h56.532c1.061 0 1.93.868 1.93 1.93v.113c0 1.06-.869 1.928-1.93 1.928"/>
        <path fill="#146EB4" d="M237.46 155.659h-84.101c-1.061 0-1.93-.869-1.93-1.929v-.113c0-1.061.869-1.93 1.93-1.93h84.1c1.063 0 1.93.869 1.93 1.93v.113c0 1.06-.867 1.929-1.93 1.929"/>
        <path fill="#72C3FF" d="M209.891 169.093H153.36c-1.061 0-1.93-.868-1.93-1.929v-.113c0-1.061.869-1.929 1.93-1.929h56.532c1.061 0 1.93.868 1.93 1.93v.112c0 1.061-.869 1.929-1.93 1.929M237.46 175.27h-84.101c-1.061 0-1.93-.868-1.93-1.928v-.114c0-1.06.869-1.929 1.93-1.929h84.1c1.063 0 1.93.868 1.93 1.93v.113c0 1.06-.867 1.928-1.93 1.928"/>
        <path fill="#146EB4" d="M209.891 188.704H153.36c-1.061 0-1.93-.867-1.93-1.929v-.112c0-1.062.869-1.93 1.93-1.93h56.532c1.061 0 1.93.868 1.93 1.93v.112c0 1.062-.869 1.93-1.93 1.93"/>
        <path fill="#72C3FF" d="M237.46 194.882h-84.101c-1.061 0-1.93-.868-1.93-1.929v-.113c0-1.06.869-1.93 1.93-1.93h84.1c1.063 0 1.93.87 1.93 1.93v.113c0 1.06-.867 1.93-1.93 1.93"/>
        <path fill="#0E4E80" d="M305.959 277.33c.174.494.174 4.281.174 4.281s-12.724.33-13.595-.164c-.872-.495-1.395-2.8 2.092-3.294 3.485-.494 7.843-2.47 7.843-2.47l3.486 1.647M330.258 281.202c.174.494.174 4.282.174 4.282s-12.722.33-13.594-.165c-.872-.494-1.394-2.8 2.092-3.294 3.485-.494 7.842-2.47 7.842-2.47l3.486 1.647"/>
        <path fill="#0E4E80" d="M302.85 198.978l2.376-10.664 22.459 4.619.002.074c-5.37 4.207-10.471 10.484-12.813 16.9l-.144-1.67-7.726 71.563s-5.751-2.8-6.274-2.964c-.523-.165 2.12-77.858 2.12-77.858"/>
        <path fill="#146EB4" d="M317.105 191.962l-13.466 6.018 11.1 21.864 10.36 61.015 5.402.165s-.03-63.66-.03-70.542c0-10.662-3.268-15.714-3.268-15.714l-10.098-2.806"/>
        <path fill="#F2C1C0" d="M287.285 180.614s-5.347-1.146-5.601-.637c-.256.51.635 1.274.635 1.274s-4.71 0-4.964.637c-.255.635 4.329 4.2 8.784 3.692 4.456-.51 7.894-3.184 7.894-3.184l-3.693-1.909-3.055.127"/>
        <path fill="#385291" d="M316.865 151.671c-1.032.257-6.451 3.31-5.432 5.771 1.018 2.462-4.074 12.817-4.074 12.817l-17.485 9.506 3.735 4.328s21.983-5.517 22.747-8.317c.763-2.8 4.922-7.724 3.055-15.787-1.867-8.064 1.188-9.252-2.546-8.318"/>
        <path fill="#F2C1C0" d="M319.032 146.51l-2.624-5.588-.762-1.778 1.608-3.555-7.026-4.147-7.872-.34-1.185 2.625s.423 13.12 4.994 13.036c4.571-.085 5.502-.34 5.502-.34l.339 1.61-1.016 1.608s4.741.847 7.28-.423c2.54-1.27.762-2.709.762-2.709"/>
        <path fill="#F58A07" d="M311.263 149.04s-3.82 2.8-4.244 3.82c-.424 1.018-3.947 34.544-3.947 34.544l-1.587 12.375 27.745-.599s-5.66-44.369-6-44.793c-.34-.425-3.352-7.97-3.945-7.8-.595.17-4.627 3.047-8.022 2.453"/>
        <path fill="#F2C1C0" d="M303.072 187.404s-5.347-1.146-5.602-.636c-.255.509.637 1.272.637 1.272s-4.71 0-4.965.638c-.256.636 4.328 4.201 8.784 3.691 4.457-.509 7.893-3.183 7.893-3.183l-3.691-1.91-3.056.128"/>
        <path fill="#385291" d="M318.477 147.427c-1.031.258-2.631 2.462-1.612 4.923 1.018 2.461 6.28 24.699 6.28 24.699l-17.484 9.507 3.734 4.328s21.984-5.517 22.747-8.318c.764-2.8-.339-12.477-2.206-20.54-1.868-8.064-7.724-15.533-11.459-14.599"/>
        <path fill="#262753" d="M309.377 132.186s-8.332 2.39-8.85.896c-.518-1.495-.946-4.267-.946-4.267s4.651-.207 7.133-1.21c2.482-1.005 10.29-3.616 10.978 1.939.69 5.554-.085 13.49-.085 13.49l-1.732-.569-.17-5.417s-.445-3.026-1.913-2.085c-1.468.94.469 12.863.469 12.863s-6.375 3.397-8.482 2.255c-2.108-1.14-3.163-7.027-3.163-7.027s3.765-.501 4.848.533c1.083 1.035 3.701-.487 3.701-.487l-1.788-10.914"/>
        <path fill="#356FA9" d="M264.367 202.564c.55-.969-2.83-3.152-2.035-5.574.427-1.302 1.813-1.927 1.681-3.363-.085-.937-.738-1.335-.53-1.68.31-.519 1.97.061 4.689.707 4.771 1.134 5.81.81 6.282.62.95-.384 1.627-1.039 2.09-1.64 11.41-1.559 20.902-9.142 25.165-19.44h.002c2.385 1.033 2.57 3.374 4.063 3.251 0 0 .167-.013 2.123-1.06.241-2.16.553-2.635.796-2.656.682-.059 2.04 3.299.93 4.646-.384.465-.919.515-1.062 1.06-.19.723.631 1.05.663 1.86.053 1.32-2.083 1.627-2.388 3.317-.21 1.164.665 1.79.265 2.389-.478.72-1.83-.039-3.45.265-2.082.39-2.5 2.138-5.84 5.574-1.144 1.178-2.237 2.301-3.849 3.451-3.744 2.67-6.028 2.434-6.635 4.114-.659 1.82.927 4.147 2.388 5.308 2.19 1.74 4.823 1.415 5.542 1.328.398-.05.776-.124 1.14-.228a31.8 31.8 0 0 1-15.608 4.07 31.804 31.804 0 0 1-18.42-5.844c1.072.049 1.796-.119 1.998-.475"/>
        <path fill="#356FA9" d="M308.33 190.708c-.294-1.494-1.309-1.944-1.13-3.45.215-1.804 1.759-1.941 2.09-4.115.17-1.113-.136-1.717.366-2.887.31-.721.62-.943.995-1.526.845-1.317.845-2.662.896-3.815.058-1.293.206-2.91.439-4.893.49 2.226.752 4.538.752 6.911 0 9.867-4.474 18.688-11.503 24.548.85-.872 1.772-1.905 2.847-3.109 2.858-3.203 4.704-5.33 4.247-7.664"/>
        <path fill="#3C80B6" d="M277.196 184.072c-.996-1.199-2.362-1.142-2.92-2.565-.322-.827.235-1.235-.089-1.948-.403-.89-1.415-.896-3.14-1.547-3.046-1.15-3.74-2.59-4.91-2.124-.863.344-.631 1.184-1.682 1.77-1.612.899-4.013-.049-4.025-.576-.007-.278.65-.397.62-.664-.04-.33-1.076-.27-2.257-.751-.58-.237-1.893-.773-2.212-1.903-.256-.906.165-2.065.753-2.211.64-.161 1.133.971 1.725.796.52-.154.89-1.248.618-2.123a1.825 1.825 0 0 0-.376-.671c.356.117.716.225 1.079.324-.045.245-.038.49.095.744.306.591.895.491 1.017 1.018.18.775-.971 1.517-.752 1.859.115.178.537.142.84.044 1.03-.337.96-1.492 1.902-2.212 1.103-.844 2.76-.455 2.787-.266.037.243-2.564.503-2.742 1.548-.024.142-.024.415.133.531.222.165.65-.074.93-.22 1.114-.59 1.99-1.052 2.741-.975.576.06.96.44 1.726 1.195.47.465.965.966 1.105 1.726.097.523-.084.58 0 1.017.188.973 1.332 1.985 2.566 1.902.156-.01.9-.06 1.416-.663.469-.55.63-1.423.31-2.036-.559-1.067-2.228-.665-2.567-1.591-.233-.643.503-1.01.31-1.992-.108-.556-.386-.654-.791-1.375 4.461-1 8.429-3.309 11.475-6.502.58.006 1.136.105 1.577.534.78.76.38 1.752 1.162 2.124.682.324 1.753-.068 2.222-.763.679-1.004.023-2.527-.331-3.351-.594-1.382-1.205-1.62-1.062-2.29.207-.97 1.725-1.168 1.625-1.958-.037-.297-.22-.596-.758-.992a21.7 21.7 0 0 0 .361-.89c.56.072 1.214.215 1.905.555.462.226 1.737.853 1.86 1.858.093.784-.608 1.004-.665 1.859-.109 1.626 2.258 3.488 3.185 3.05.12-.054.212-.147.521-.842.59-1.326.629-1.826.94-2.475.154-.322.876-1.828 1.858-1.857 1.244-.037 2.059 2.328 2.123 2.52.324.974.561 2.637-.133 3.054-.505.303-.97-.373-1.99-.4-1.858-.043-3.278 2.12-3.716 2.79-.885 1.346-1.691 3.456-1.063 3.98.269.223 1.068-.025 2.654-.53 1.649-.526 2.139-.801 2.522-.532.53.374.028 1.206.531 1.991.622.97 1.846.413 3.5 1.127-4.263 10.299-13.754 17.882-25.165 19.441.379-.493.616-.95.74-1.192.965-1.869 1.287-4.717-.088-6.37M290.513 147.443c4.95 3.676 6.16 5.124 5.838 5.84-.346.771-2.419.665-2.522 1.46-.083.645 1.232 1.162 1.063 1.725-.113.373-.79.468-1.073.509-.507.07-1.54.056-1.847-.51-.322-.592.522-1.116.398-2.123-.102-.819-.802-1.624-1.593-1.858-.696-.205-1.34.07-2.212.673a22.824 22.824 0 0 0 .534-7.08l.14.037c.146.336.522.77 1.274 1.327"/>
        <path fill="#4997C6" d="M288.565 153.16c-.365.252-.771.561-1.238.919-.892.681-1.585 1.211-1.46 1.592.114.352.816.249 1.81.375a21.7 21.7 0 0 1-.361.889l-.005-.003c-1.909-1.4-5.383-1.905-6.635-.464-.244.28-.453.691-.929.796-.714.156-1.323-.532-1.559-.332-.17.143.008.605.198 1.095.573 1.464.91 2.224 1.096 2.721.623 1.665.112 1.89.597 2.421.669.735 1.774.45 2.802.462a22.743 22.743 0 0 1-11.475 6.502l-.093-.174c-.522-1.011-.305-1.297-.62-1.857-.797-1.417-2.755-.586-3.937-1.946-.9-1.036-.903-2.828-.177-3.893.52-.761 1.467-1.23 1.725-1.018.27.222-.44.998-.398 2.3.004.125.083 1.906 1.151 2.39.922.418 2.236-.293 2.875-1.15 1.404-1.885.285-5.464-1.858-6.77-.865-.526-2.236-.89-2.787-.353-.546.531-.032 1.695-.53 1.946-.307.154-.877-.09-1.063-.486-.3-.641.625-1.228.841-2.522.187-1.123-.398-1.364-.354-2.3.068-1.47 1.566-2.161 4.468-4.646 2.067-1.768 3.1-2.651 2.964-3.14-.062-.222-.308-.406-.698-.551a32.031 32.031 0 0 1 7.874-.98c2.874 0 5.66.383 8.31 1.095a22.824 22.824 0 0 1-.534 7.081M257.555 167.925c.014-.576.844-1.199 1.636-1.15.69.042 1.255.586 1.46 1.15.274.752-.16 1.354-.271 1.954a21.34 21.34 0 0 1-1.079-.324c-.654-.755-1.762-.957-1.746-1.63"/>
        <path fill="#BBD8E7" d="M249.285 182.265c5.804 5.962 13.915 9.667 22.894 9.667 1.48 0 2.938-.103 4.365-.298-.463.601-1.14 1.256-2.09 1.64-.472.19-1.51.514-6.282-.62-2.719-.646-4.38-1.226-4.69-.707-.207.345.446.743.531 1.68.132 1.436-1.254 2.06-1.681 3.363-.794 2.422 2.585 4.605 2.035 5.574-.202.356-.926.524-1.998.475-6.806-4.81-11.646-12.215-13.084-20.774M271.406 170.133c.405.72.683.82.791 1.375.193.983-.543 1.35-.31 1.992.34.926 2.008.524 2.567 1.591.32.613.159 1.486-.31 2.036-.515.604-1.26.653-1.416.663-1.234.083-2.378-.93-2.566-1.902-.084-.438.097-.494 0-1.017-.14-.76-.635-1.261-1.105-1.726-.767-.756-1.15-1.134-1.726-1.195-.75-.077-1.627.385-2.742.974-.28.147-.707.386-.93.221-.156-.116-.156-.389-.132-.531.178-1.045 2.779-1.305 2.742-1.548-.028-.189-1.684-.578-2.787.266-.942.72-.872 1.875-1.901 2.212-.304.098-.726.134-.841-.044-.22-.342.932-1.084.752-1.86-.122-.526-.711-.426-1.017-1.017a1.104 1.104 0 0 1-.095-.744c1.918.526 3.938.807 6.024.807a22.85 22.85 0 0 0 5.002-.553"/>
        <g transform="translate(248.684 164.115)">
            <mask id="l" fill="#fff">
                <use xlink:href="#k"/>
            </mask>
            <path fill="#146EB4" fill-opacity=".146" d="M2.515.75a22.74 22.74 0 0 0 8.102 4.69c.161.186.295.404.376.67.271.877-.099 1.97-.619 2.124-.592.175-1.084-.957-1.724-.796-.588.146-1.01 1.305-.753 2.211.319 1.13 1.633 1.667 2.212 1.903 1.18.481 2.216.42 2.257.752.03.266-.627.386-.62.664.012.526 2.413 1.474 4.025.575 1.05-.585.819-1.426 1.681-1.77 1.17-.466 1.865.974 4.91 2.124 1.726.651 2.738.656 3.141 1.547.324.713-.234 1.122.09 1.948.557 1.423 1.923 1.366 2.919 2.566 1.374 1.652 1.053 4.5.088 6.369-.124.242-.361.7-.74 1.192a32.204 32.204 0 0 1-4.366.298c-8.978 0-17.09-3.705-22.894-9.667a32.235 32.235 0 0 1-.444-5.331c0-4.272.84-8.344 2.36-12.069" mask="url(#l)"/>
        </g>
        <g transform="translate(251.196 145.694)">
            <mask id="n" fill="#fff">
                <use xlink:href="#m"/>
            </mask>
            <path fill="#146EB4" fill-opacity=".146" d="M22.417.82c.136.489-.897 1.372-2.964 3.14-2.903 2.485-4.4 3.176-4.468 4.646-.044.936.54 1.177.354 2.3-.216 1.294-1.141 1.88-.84 2.522.185.395.755.64 1.06.487.5-.252-.014-1.415.532-1.947.55-.537 1.922-.173 2.786.354 2.144 1.305 3.263 4.884 1.858 6.769-.638.857-1.952 1.568-2.874 1.15-1.068-.484-1.147-2.265-1.151-2.39-.041-1.301.667-2.078.398-2.3-.258-.212-1.205.257-1.725 1.018-.727 1.065-.722 2.858.177 3.893 1.181 1.36 3.14.529 3.937 1.946.315.56.098.846.62 1.858l.093.174a22.85 22.85 0 0 1-5.003.552c-2.085 0-4.105-.281-6.023-.807.111-.6.545-1.201.271-1.953-.205-.565-.77-1.109-1.46-1.15-.792-.05-1.622.574-1.636 1.15-.016.672 1.091.875 1.746 1.63a22.74 22.74 0 0 1-8.102-4.69C3.798 9.878 11.84 2.772 21.718.268c.39.145.637.33.699.55" mask="url(#n)"/>
        </g>
        <path fill="#BBD8E7" d="M296.397 204.813a31.96 31.96 0 0 0 4.838-3.332c-1.705 1.752-3.111 2.846-4.838 3.332"/>
        <path fill="#BBD8E7" d="M289.715 203.713c-1.46-1.161-3.047-3.488-2.388-5.308.607-1.68 2.89-1.444 6.635-4.114 1.612-1.15 2.705-2.273 3.849-3.45 3.34-3.437 3.758-5.184 5.84-5.575 1.62-.304 2.972.454 3.45-.265.4-.6-.475-1.225-.265-2.389.305-1.69 2.44-1.997 2.388-3.317-.032-.81-.852-1.137-.663-1.86.143-.545.678-.595 1.062-1.06 1.11-1.347-.248-4.705-.93-4.646-.243.021-.555.495-.796 2.656-1.956 1.047-2.123 1.06-2.123 1.06-1.493.123-1.678-2.218-4.063-3.25l-.002-.002a31.847 31.847 0 0 0 2.418-12.21c0-1.816-.153-3.597-.444-5.332 4.067 4.18 7 9.469 8.303 15.371-.233 1.984-.381 3.6-.44 4.893-.05 1.153-.05 2.498-.895 3.815-.374.583-.685.805-.995 1.526-.502 1.17-.196 1.774-.366 2.887-.331 2.174-1.875 2.31-2.09 4.115-.179 1.506.836 1.956 1.13 3.45.456 2.335-1.39 4.461-4.248 7.664-1.075 1.204-1.998 2.237-2.847 3.11a31.96 31.96 0 0 1-4.838 3.33 7.532 7.532 0 0 1-1.14.229c-.72.087-3.352.412-5.542-1.328"/>
        <g transform="translate(287.201 145.694)">
            <mask id="p" fill="#fff">
                <use xlink:href="#o"/>
            </mask>
            <path fill="#DDEAF4" d="M11.008 25.372c-.503-.785 0-1.617-.53-1.99-.384-.27-.874.005-2.523.531-1.586.505-2.385.754-2.654.53-.628-.524.178-2.634 1.063-3.98.438-.67 1.858-2.833 3.716-2.789 1.02.026 1.485.702 1.99.399.694-.416.457-2.08.133-3.053-.064-.193-.88-2.557-2.123-2.52-.982.028-1.704 1.534-1.858 1.857-.311.648-.35 1.149-.94 2.474-.309.695-.4.788-.52.843-.928.437-3.295-1.425-3.186-3.051.057-.855.758-1.075.664-1.859-.122-1.005-1.397-1.632-1.859-1.858a5.935 5.935 0 0 0-1.905-.554c.358-.935.655-1.898.888-2.886.872-.604 1.516-.879 2.212-.674.791.234 1.491 1.04 1.593 1.858.125 1.008-.72 1.531-.398 2.124.307.565 1.34.58 1.847.509.282-.04.96-.136 1.073-.51.169-.562-1.146-1.079-1.063-1.724.103-.795 2.176-.688 2.522-1.46.322-.716-.888-2.164-5.838-5.84C2.56 1.192 2.184.758 2.038.422a31.928 31.928 0 0 1 14.444 8.536c.291 1.734.444 3.515.444 5.33 0 4.326-.86 8.45-2.418 12.212-1.654-.715-2.878-.158-3.5-1.128" mask="url(#p)"/>
        </g>
        <path fill="#BBD8E7" d="M285.867 155.671c-.125-.38.568-.91 1.46-1.592.467-.358.873-.667 1.238-.92-.233.99-.53 1.952-.888 2.887-.994-.126-1.696-.023-1.81-.375"/>
        <g transform="translate(282.177 156.579)">
            <mask id="r" fill="#fff">
                <use xlink:href="#q"/>
            </mask>
            <path fill="#DDEAF4" d="M5.897 1.348c.1.79-1.418.988-1.625 1.958-.143.67.468.908 1.062 2.29.354.824 1.01 2.347.331 3.35-.469.696-1.54 1.088-2.222.764-.781-.372-.382-1.364-1.162-2.124-.44-.429-.997-.528-1.577-.534A22.822 22.822 0 0 0 5.14.356c.539.396.721.695.758.992" mask="url(#r)"/>
        </g>
        <g transform="translate(277.99 154.904)">
            <mask id="t" fill="#fff">
                <use xlink:href="#s"/>
            </mask>
            <path fill="#146EB4" fill-opacity=".146" d="M2.088 8.265c-.485-.532.026-.756-.597-2.421C1.305 5.347.97 4.587.396 3.122c-.19-.49-.368-.952-.198-1.094.236-.2.844.488 1.559.332.475-.105.685-.516.928-.797 1.253-1.44 4.727-.936 6.636.465l.004.003a22.822 22.822 0 0 1-4.434 6.696C3.863 8.715 2.757 9 2.088 8.265" mask="url(#t)"/>
        </g>
        <path fill="#F2C1C0" d="M303.072 187.404s-5.347-1.146-5.602-.636c-.255.509.637 1.272.637 1.272s-4.71 0-4.965.638c-.256.636 4.328 4.201 8.784 3.691 4.457-.509 7.893-3.183 7.893-3.183l-3.691-1.91-3.056.128"/>
        <path fill="#F58A07" d="M318.477 147.427c-1.031.258-2.631 2.462-1.612 4.923 1.018 2.461 6.28 24.699 6.28 24.699l-17.484 9.507 3.734 4.328s21.984-5.517 22.747-8.318c.764-2.8-.339-12.477-2.206-20.54-1.868-8.064-7.724-15.533-11.459-14.599"/>
        <path fill="#F3C0C0" d="M101.726 170.43s.096-3.038-.098-4.34c-.192-1.3-1.838-5.314-1.838-5.314s1.548-1.628 2.225.976l.485 1.193s3.869-5.424 4.45-5.098c.58.325 3.29 2.603 2.321 5.858-.967 3.253-5.417 8.136-5.417 8.136l-2.128-1.411"/>
        <path fill="#F58A07" d="M102.113 168.043l3.288 2.061s.296 35.137-8.416 29.182c-.36-.247-10.642-11.657-10.642-11.657l-4.214-21.314s11.308 11.842 14.501 18.35c0 0 4.322-16.622 5.483-16.622"/>
        <path fill="#F58A07" d="M61.046 171.333s1.015 47.46 1.596 47.749c.58.29 26.845-2.03 26.845-2.03s3.338-20.124.532-32.023c-2.805-11.899-7.755-18.625-7.755-18.625l-4.536.67-1.557 1.283-.856 1.509s-1 .234-1.386.815c-.386.58-.637.188-1.508.286-.871.097-4.2-3.425-4.2-3.425l-7.175 3.791z"/>
        <path fill="#0E4E80" d="M61.436 283.308l-.206 3.332s-2.766 5.17-2.561 6.204c.205 1.035 6.353.804 6.353.804s-.717-4.94-1.742-6.434c-1.025-1.493.82-4.481.82-4.481l-2.664.575M72.334 281.908l.094 3.874-2.054 2.303-.186 1.36s13.63 1.258 14.471.944c.84-.315-.188-1.885-.188-1.885l-9.615-2.722.466-4.188-2.988.314"/>
        <path fill="#F3C0C0" d="M72.899 172.026a4.951 4.951 0 0 1-4.907-4.285l-1.164-8.55h11.927l-.933 8.428a4.953 4.953 0 0 1-4.923 4.407"/>
        <path fill="#F3C0C0" d="M80.573 151.782a7.782 7.782 0 1 1-15.563-.001 7.782 7.782 0 0 1 15.563 0"/>
        <path fill="#F3C0C0" d="M80.573 151.995c0 4.298-3.483 14.978-7.781 14.978s-7.782-10.68-7.782-14.978c0-4.296 3.484-.586 7.782-.586s7.78-3.71 7.78.586"/>
        <path fill="#262753" d="M68 162.202s1.057 6.334 4.694 6.295c3.637-.038 4.888-6.295 4.888-6.295H68"/>
        <path fill="#F3C0C0" d="M80.573 151.995c0 4.298-3.483 14.978-7.781 14.978s-7.782-10.68-7.782-14.978c0-4.296 3.484-.586 7.782-.586s7.78-3.71 7.78.586"/>
        <path fill="#262753" d="M80.571 151.854l.002-.072A7.78 7.78 0 0 0 72.792 144a7.781 7.781 0 0 0-7.782 7.78l.001.073-.001.141c0 .7.093 1.57.265 2.536 1.129.034 2.424-1.036 3.11-2.67.198-.473.326-.95.39-1.406 1.267.367 2.772.58 4.388.58 1.36 0 2.643-.152 3.77-.418.071.385.186.781.35 1.175.672 1.6 1.926 2.657 3.036 2.671.166-.938.254-1.783.254-2.468l-.002-.141"/>
        <path fill="#262753" d="M67.1 160.956c-1.118 0-2.017-1.044-1.987-2.307l-.103-7.261 2.09.594v8.974"/>
        <path fill="#F3C0C0" d="M67.665 159.242s-1.085.268-1.143-.945c-.06-1.213-.013-1.994-.55-1.797-.535.2-.36 3.173.736 3.896 1.097.724 1.014-.128 1.179.98.162 1.109.57.152.57.152l.724-1.797-1.516-.49"/>
        <path fill="#262753" d="M78.482 160.956c1.119 0 2.017-1.044 1.988-2.307l.103-7.261-2.09.594v8.974"/>
        <path fill="#F3C0C0" d="M77.919 159.242s1.084.268 1.142-.945c.06-1.213.012-1.994.549-1.797.536.2.36 3.173-.735 3.896-1.097.724-1.015-.128-1.178.98-.164 1.109-.571.152-.571.152l-.724-1.797 1.517-.49"/>
        <path fill="#262753" d="M66.059 156.636h.57v-4.243s1.086 1.863 3.88 1.863c2.794 0 3.933-1.553 4.605-2.173.673-.622 1.19-1.45 2.122-1.45.931 0 1.19.828 1.19 1.707v4.607h.621s.88-5.693.828-7.193c-.052-1.5-1.086-5.952-5.226-5.952s-3.881 2.02-7.193 2.691c-3.312.674-1.397 10.143-1.397 10.143"/>
        <path fill="#0E4E80" d="M62.802 219.016l-3.933 64.206 7.062 1.002s7.062-44.15 7.932-44.91c.871-.76 2.226-2.278 2.226-2.278l-.968 5.532-4.16 39.704 5.902.08s4.74-29.586 6.481-33.709c1.742-4.122 8.578-25.791 6.311-31.893-.236-.635-26.853 2.266-26.853 2.266"/>
        <path fill="#FFC53A" d="M99.601 152.134c5.219-18.428 24.39-29.137 42.817-23.918 18.429 5.22 29.136 24.39 23.917 42.818-5.22 18.428-24.39 29.137-42.817 23.918-18.428-5.22-29.137-24.39-23.917-42.818zm73.216 20.736c6.232-22.008-6.555-44.902-28.563-51.134-22.008-6.234-44.902 6.554-51.136 28.562a41.254 41.254 0 0 0 1.929 27.94l-36.081 20.155c-2.379 1.328-6.469 6.254-5.14 8.634 1.33 2.38 7.844 1.161 10.224-.168l36.015-20.118a41.232 41.232 0 0 0 21.618 14.692c22.007 6.233 44.901-6.556 51.134-28.563z"/>
        <path fill="#E3AF34" d="M53.78 206.942a4.934 4.934 0 0 1 1.901-6.714l29.136-16.276a4.934 4.934 0 1 1 4.814 8.617l-29.137 16.275a4.934 4.934 0 0 1-6.715-1.902"/>
        <path fill="#F3C0C0" d="M77.225 198.283s2.903-5.533 3.41-5.29c.509.245-.943 3.337-.943 3.337s6.385-.814 6.385.732c0 1.545 1.887 4.23-4.57 5.206-6.459.976-7.546.733-7.546.733l.072-3.58 3.192-1.138"/>
        <path fill="#F58A07" d="M60.935 171.178c2.054-1.56 2.564 17.323 3.785 30.575l11.562-4.855 2.032 6.672s-14.907 13.632-18.826 7.774c-3.917-5.858-12.919-29.264 1.447-40.166"/>
        <path fill="#FFFFFE" d="M143.47 139.536a3.677 3.677 0 1 1 7.355 0 3.677 3.677 0 0 1-7.354 0"/>
        <path fill="#F2C1C0" d="M231.188 262.069c-.041.387-.082.842-.118 1.273l-.103 1.316c-.066.88-.122 1.767-.175 2.653a216.67 216.67 0 0 0-.248 5.34c-.123 3.568-.18 7.146-.164 10.728.028 3.582.086 7.169.247 10.753.058 1.795.172 3.586.266 5.38.101 1.793.243 3.582.364 5.377l.003.04a1.788 1.788 0 0 1-1.666 1.904 1.795 1.795 0 0 1-1.886-1.5c-.29-1.796-.6-3.591-.87-5.391-.264-1.801-.547-3.603-.775-5.41-.5-3.61-.895-7.236-1.26-10.87a282.303 282.303 0 0 1-.847-10.936c-.11-1.829-.188-3.66-.254-5.498-.03-.92-.056-1.84-.072-2.765l-.021-1.393c-.004-.472-.008-.92-.002-1.434v-.007a3.801 3.801 0 1 1 7.58.44"/>
        <path fill="#0E4E80" d="M225.594 304.07s5.311-.838 6.218-1.555-.129 6.7-.129 6.7l-12.047.239s-1.037-1.436 1.295-2.393c2.331-.958 4.663-2.991 4.663-2.991"/>
        <path fill="#F2C1C0" d="M192.08 154.448c.615-1.094 1.295-2.148 1.994-3.19a465.68 465.68 0 0 0 2.555 4.837c2.184 4.056 4.423 8.074 6.765 11.98a129.859 129.859 0 0 0 3.615 5.707c.308.464.621.917.94 1.356l.473.668.482.638a28.41 28.41 0 0 0 1.924 2.316l.074.082a4.302 4.302 0 1 1-6.35 5.806l-.194-.227a36.69 36.69 0 0 1-2.297-3.212l-.51-.792-.477-.79a48.305 48.305 0 0 1-.927-1.578 137.061 137.061 0 0 1-3.38-6.324c-2.127-4.227-4.096-8.48-6.004-12.752-.102-.228-.199-.457-.3-.686.458-1.323.902-2.566 1.617-3.839M239.915 192.723c.286.11.426.176.621.262.179.083.357.165.528.25a21.065 21.065 0 0 1 2.954 1.76c1.257.911 2.49 1.981 3.527 3.432.128.183.257.362.379.55l.346.598c.238.386.41.848.598 1.277.09.22.153.462.226.692.063.235.149.46.185.706.078.485.188.969.185 1.458.008.245.013.49.015.733 0 .243-.038.476-.06.716-.027.236-.054.473-.09.707l-.16.669c-.059.22-.111.445-.178.659l-.236.61-.242.606c-.09.19-.19.37-.286.554-.373.757-.83 1.381-1.274 2.029l-.715.874c-.12.142-.237.295-.361.427l-.378.392-.757.78-.784.708c-.264.23-.519.481-.79.691l-.808.642c-2.162 1.686-4.906 2.489-7.185 3.79l.058-.525.699-.873.873 5.065c.246.915.508 2.664-.408 2.91-.803.217-1.039-.46-1.393-1.18l-3.025-6.072-.792-1.602 1.844-1.455c2.022-1.365 3.98-2.8 5.702-4.366l.638-.59c.217-.193.395-.406.594-.606l.584-.61.518-.627.26-.311c.085-.104.15-.213.226-.318l.444-.63c.23-.424.501-.84.645-1.242.343-.81.44-1.516.353-2.075.004-.146-.076-.277-.095-.416l-.081-.203-.086-.205c-.096-.135-.133-.276-.254-.417l-.147-.213-.183-.215c-.484-.58-1.224-1.156-2.057-1.66a13.75 13.75 0 0 0-2.023-.999l-.342-.13c-.098-.034-.25-.088-.262-.085a3.966 3.966 0 1 1 .68-7.605l1.77.683M216.873 161.87s-6.602 14.246 1.563 15.983c8.166 1.737 3.997-12.856 3.997-12.856l-5.56-3.127M221.318 261.652c-.074 3.524-.1 7.109-.098 10.666.004 3.564.042 7.128.114 10.69.073 3.563.196 7.121.356 10.675.17 3.553.4 7.098.699 10.631l.002.018a2.306 2.306 0 0 1-4.578.533 299.82 299.82 0 0 1-1.388-10.766 444.53 444.53 0 0 1-1.037-10.778 567.65 567.65 0 0 1-.791-10.79 502.038 502.038 0 0 1-.577-10.826 3.651 3.651 0 1 1 7.296-.302l.003.218v.03"/>
        <path fill="#F58A07" d="M231.394 197.226c.014-4.388.315-8.811.386-13.222l-13.59-1.545-13.898-12.16-6.601 7.47 12.682 17.546 2.605 22.758h18.416l.503-19.623c-.305-.28-.505-.686-.503-1.224M244.77 194.62c-.648-.26-6.612-5.93-9.6-8.797-.092 3.8-.29 7.603-.302 11.403-.002.82-.471 1.338-1.062 1.556l5.405 2.96s6.428-6.774 5.56-7.122"/>
        <path fill="#FFC53A" d="M216.28 300.072l6.253-.695-.695-51.77.695-8.513 1.563-.174s-1.91 25.538-1.215 36.656c.694 11.12 1.042 23.28 1.042 23.28l8.339-.521s2.779-47.775 3.822-56.809c1.043-9.034-.695-19.457-4.69-23.453h-18.416s-3.649 7.123-2.779 18.936c.869 11.814 6.08 63.063 6.08 63.063"/>
        <path fill="#262753" d="M230.341 218.104c.296-.007.61.053.921.185l.549.237a8.705 8.705 0 0 0-.417-.453h-1.108l.055.03"/>
        <path fill="#FFC53A" d="M213 237.417c-.046 8.987-.24 23.312.7 32.263.729 6.945 2.31 13.756 2.96 20.706.24 2.557.39 5.12.5 7.686.774-.288 1.563-.624 2.206-1.105.08-7.415.102-14.831.105-22.247a462.12 462.12 0 0 0-.255-15.686c-.158-4.759-.04-15.926.544-20.65-.956.566-5.722.095-6.76-.967M234.249 237.9c-.193.349-2.63 1.324-3.14 1.45-.939.23-2.932-.242-3.863-.242-.096.057.161 23.738-.513 35.024-.368 6.15-1.28 12.39-1.58 18.61.612-.394 1.436-.45 2.114.193a8.69 8.69 0 0 0 1.976 1.398c2.55-18.311 4.683-37.951 5.006-56.433"/>
        <path fill="#262753" d="M225.087 298.453c.003.11.003.22.007.33l1.665-.104a46.867 46.867 0 0 0-1.672-.226M212.743 219.045c-.067.254-.13.51-.192.766.36-.569.7-1.148 1.027-1.738h-.6s-.066.13-.175.376c.013.185-.005.385-.06.596M216.627 157.79s-7.01 3.563-1.757 7.696c.964.76 4.822-1.034 4.822-1.034s-4.976 22.698 3.189 28.778c8.165 6.08 16.677 10.25 15.461 5.386-1.215-4.864-2.084-6.95-.347-10.772s.695-7.47-1.91-12.16c-2.607-4.69-1.565-3.648-2.26-10.25-.695-6.602-8.339-13.898-17.198-7.644"/>
        <path fill="#0E4E80" d="M216.323 304.775s5.642-.889 6.607-1.65c.963-.764-.138 7.117-.138 7.117l-12.801.253s-1.101-1.525 1.376-2.541c2.478-1.017 4.956-3.179 4.956-3.179"/>
        <path fill="#F3C0C0" d="M192.108 161.19s-2.346-2.63-2.346-5.122c0-2.49 6.794-26.043 7.7-26.496.906-.453-1.133-3.397.679-4.303 1.811-.906 3.85-1.811 4.756-4.529.905-2.717 2.037-.226.905 2.945-1.132 3.17 1.132 5.434-2.49 7.473 0 0-7.419 22.254-3.796 26.33l-5.408 3.701"/>
    </g>
</svg>
